<?xml version="1.0" encoding="utf-8"?>
<!-- Generator: Adobe Illustrator 21.0.2, SVG Export Plug-In . SVG Version: 6.00 Build 0)  -->
<svg version="1.1" id="SCENE_3" xmlns="http://www.w3.org/2000/svg" xmlns:xlink="http://www.w3.org/1999/xlink" x="0px"
	y="0px" viewBox="0 0 1024 1024" style="enable-background:new 0 0 1024 1024;" xml:space="preserve">
	<style type="text/css">
		.st0 {
			fill: rgba(255, 255, 255, 0.689);
		}
		.st1 {
			fill: #0C6A37;
		}
		.st2 {
			fill: #231F20;
			display: none;
		}
		.st4 {
			fill: #222222;
		}
		.st3 {
			fill: #FFFFFF;
		}
		.st9 {
			fill: rgba(255, 204, 0, 0.515);
		}
	</style>
	<rect id="BACKGROUND_cobblestone" class="st0" width="1024" height="1024" />
<g id="OBSTACLES">
<path id="_x33_3_x5F_grass" class="st0" d="M858.3,853.3H175.6V170.7h682.7V853.3z M575.3,848.4h6.7v-0.2
		c30.4-1.6,58.7-14.2,80.5-35.9c23.3-23.3,36.1-54.3,36.1-87.2c0-22.5-6.1-44.5-17.7-63.7l9.4-9.4c15.1,24.5,41.9,39.6,70.9,39.6
		l0,0c20.3,0,40.7-7.3,59.5-21.1c0.8-0.6,1.5-1.3,2.1-2.1c14.2-18.7,21.7-39.4,21.7-59.9v-207h-0.3c-2.3-29.2-20.1-55.1-46.3-67.9
		c12.7-6.2,23.5-15.5,31.6-27.3c9.7-14,14.9-30.3,14.9-47.5c0-23.7-7.8-45.2-21.9-60.5c-13.3-14.4-31.6-22.7-50.5-22.7H487.3
		c-30.8,0-59.2,12.1-79.7,34.3c-20.3,21.7-30.1,50.3-28,80.3c0.9,12.2,3.7,23.9,8.5,34.9h-114c-23.9,0-45.7,8.8-61.5,24.8
		c-13.6,13.9-21.5,32-22.7,51.8h-0.1V732h0.3c0,0.3,0,0.5,0.1,0.9c1.9,31.3,15.6,60.5,38.5,82.1c23,21.7,53.1,33.7,84.7,33.7
		L575.3,848.4L575.3,848.4z"/>
	<path id="33_grass" class="st0" d="M436.8,669.3c-1.1,14.1-7.1,84.1-22.5,106.9c-0.5,0.9-1.5,2.5-0.9,3.4
		c0.7,1.5,3.9,2.9,8.3,2.9c0.7,0,1.5-0.1,2.3-0.1l30.2-3.4h0.4c1.5,0,2.5-0.8,2.9-1.3c0.5-0.5,1.1-1.5,1-3
		c-2.9-28.5-5.5-78.6,7.3-105.5L436.8,669.3L436.8,669.3z"/>
	<path id="33_grass" class="st0" d="M575,669.3c-0.3,0-0.6,0-0.9,0c-29.3,0.5-53.4,24.7-53.7,54
		c-0.2,14.7,5.4,28.6,15.8,39.1c10.4,10.5,24.2,16.2,38.9,16.2c30.1,0,54.7-24.5,54.7-54.7C629.6,693.9,605.1,669.3,575,669.3z"/>
	<path id="33_grass" class="st0" d="M314.1,669.3c-30.1,0-54.7,24.5-54.7,54.7s24.5,54.7,54.7,54.7
		c14.7,0,28.5-5.8,38.9-16.3c10.3-10.5,15.9-24.5,15.7-39.2c-0.5-29.3-24.6-53.5-54-53.9C314.6,669.3,314.4,669.3,314.1,669.3z"/>
	<path id="33_grass" class="st0" d="M759.8,592c-4.5,0-8.8,1.9-11.9,5.3c-3.1,3.4-4.6,7.7-4.2,12.3
		c0.7,7.8,7.1,14.1,14.9,14.6c0.3,0,0.7,0.1,1.1,0.1c4.5,0,8.9-1.9,11.9-5.3c3.1-3.5,4.5-7.9,4.1-12.4c-0.7-7.3-6.5-13.3-13.7-14.3
		C761.3,592,760.5,592,759.8,592z"/>
	<path id="33_grass" class="st0" d="M600.6,494.1c-3.5,0-6.4,2.9-6.4,6.4v93.3c0,3.3,2.3,5.9,5.7,6.4
		c11.5,1.5,19.9,5.3,29.7,11.1c0.9,0.5,2.1,0.8,3.2,0.8c1.7,0,3.3-0.7,4.5-1.9l36.1-36.1c1.1-1.1,1.9-2.7,1.9-4.4v-69.3
		c0-3.5-2.9-6.4-6.4-6.4L600.6,494.1L600.6,494.1z"/>
	<path id="33_grass" class="st0" d="M267.6,494.1c-2.8,0-5.4,1.1-7.3,3.1c-1.9,1.9-3,4.5-3,7.3l1,96.2
		c0,2.1,0.8,4.2,2.4,5.7c1.5,1.5,3.5,2.3,5.5,2.3c1,0,1.9-0.2,3-0.6l0.1-0.1c14.5-6.1,30.1-9.3,45.9-9.3h54.4V494.5L269,494.2
		l-0.5-0.1C268.3,494.1,267.9,494.1,267.6,494.1z"/>
	<path id="33_grass" class="st0" d="M445.4,494.1c-3.5,0-6.3,2.9-6.3,6.3v91.9c0,3.5,2.9,6.3,6.3,6.3h78.1
		c3.5,0,6.3-2.9,6.3-6.3v-91.9c0-3.5-2.9-6.3-6.3-6.3H445.4z"/>
	<path id="33_grass" class="st0" d="M743.5,524.9c4.1-1.1,8.9-1.9,13.6-1.9c1.1,0,2.2,0.1,3.3,0.1
		c3.2,0.3,7.5,0.5,12.9,0.7c0.1,0,0.2,0,0.2,0c0.9,0,1.9-0.3,2.5-1.1c0.7-0.7,1.1-1.6,1-2.6c0,0-0.5-26.9-0.5-28.8
		c-6.5,1.7-9.3,2.1-17.5,2.1l-15.5-0.1V524.9L743.5,524.9z"/>
	<path id="33_grass" class="st0" d="M274.3,392.9c-8.7,0-15.8,7.1-15.8,15.8c0,8.7,7.1,15.8,15.8,15.8
		c4.4,0,8.5-1.8,11.5-5.1c3.1-3.3,4.5-7.5,4.2-11.9c-0.5-7.8-6.8-14.1-14.7-14.7C275.1,392.9,274.6,392.9,274.3,392.9z"/>
	<path id="33_grass_" class="st0" d="M677.6,421.7c-1.3-5.7-2-11.6-2-17.5c0-15.9,4.8-31.3,13.9-44.3
		c7.6-10.9,17.7-19.6,29.5-25.5c-11.8-5.8-21.9-14.5-29.5-25.5c-9.1-13.1-13.9-28.3-13.9-44.3c0-5.9,0.7-11.8,2-17.5h-89.5
		c5.1,11.8,7.9,24.5,8.2,37.7v136.7h81.3V421.7z"/>
	<path id="33_grass" class="st0" d="M759.8,392.5c-4.5,0-9,1.9-12,5.3c-3.1,3.5-4.5,7.9-4,12.5
		c0.8,7.5,6.8,13.5,14.3,14.3c0.6,0.1,1.2,0.1,1.8,0.1c4.5,0,9-1.9,12-5.3c3.1-3.5,4.5-7.9,4-12.5c-0.8-7.5-6.8-13.5-14.3-14.3
		C761,392.5,760.4,392.5,759.8,392.5z"/>
	<path id="33_grass" class="st0" d="M376.5,392.5c-1.6,0-3.1,0.7-4.1,1.9c-1.1,1.2-1.5,2.8-1.3,4.5
		c0.4,2.9,0.6,6,0.6,9.3s-0.2,6.4-0.6,9.3c-0.2,1.6,0.3,3.1,1.3,4.4c0.9,1.1,2.1,1.7,3.4,1.8h0.7h135.2c3.1,0,5.5-2.5,5.5-5.5v-25.9
		c0-3.3-2.8-5.5-5.5-5.5c-0.6,0-1.3,0.1-1.9,0.3c-9.4,3.5-19.2,5.3-29.1,5.5L376.5,392.5z"/>
	<path id="33_grass" class="st0" d="M486.3,244.9c-21.2,0-38.5,17.2-38.5,38.5c0,10.3,4,19.9,11.2,27.3
		c7.2,7.3,16.9,11.3,27.3,11.3c21.3,0,38.5-17.2,38.5-38.5c0-10.3-4-19.9-11.2-27.3C506.1,248.9,496.6,244.9,486.3,244.9v-6.1V244.9
		z"/>
	<path id="33_grass" class="st0" d="M759.8,243.9c-0.6,0-1.2,0.1-1.8,0.1c-7.5,0.8-13.6,6.8-14.4,14.4
		c-0.5,4.7,0.9,9.1,4.1,12.6c3.1,3.4,7.5,5.4,12.1,5.4c0.6,0,1.2-0.1,1.8-0.1c7.5-0.8,13.6-6.8,14.4-14.4c0.5-4.7-0.9-9.1-4.1-12.6
		C768.8,245.9,764.3,243.9,759.8,243.9z"/>
</g>
<g id="ROAD">
	<path id="TRACK_asphalt1" class="st1" d="M836,408.7L836,408.7c-0.1-1.3-0.1-2.7-0.2-4.1c-1.6-30.5-21.1-56.2-48.3-66.8
		c-1.4-0.5-2.3-1.9-2.3-3.4c0-1.5,0.9-2.9,2.3-3.4c28.3-11.1,48.4-38.7,48.4-70.9c0-47.1-31.5-76.1-65.3-76.1H487.9h-0.7
		c-58.9,0-104.7,48.1-100.5,106.8c0.9,13,4.3,25.4,9.8,36.5c1.2,2.4-0.6,5.3-3.3,5.3h-17.6H275.2c-45,0-78.1,33.4-77.3,76.2l0,0
		v315.3h0.1c0,2.3,0.1,4.7,0.2,7.1c3.7,60.7,54.1,108.8,115.9,108.8l0,0H575l0,0c64.1,0,116-51.9,116-116c0-22.7-6.5-43.9-17.9-61.9
		c-0.9-1.5-0.7-3.3,0.5-4.5l13.7-13.7c1.7-1.7,4.6-1.3,5.8,0.8c20.9,37.9,72.9,56,121.8,19.7c0.3-0.2,0.5-0.5,0.7-0.7
		c14.1-18.7,20.3-37.8,20.3-55.6l0,0V408.7z M785.3,485c0,0.1,0.4,22.6,0.7,36.9c0.1,6.2-5,11.1-11.2,10.9
		c-4.9-0.2-10.5-0.5-14.9-0.9c-7.2-0.6-14.1,1-20.7,2.9c-2.3,0.7-4.7-1.1-4.7-3.5v-42.8c0-2,1.7-3.7,3.7-3.7l20.7,0.1
		c9.2,0,11.7-0.4,20.1-2.6C785.1,480.7,785.3,482.5,785.3,485z M785.1,405.9c1.7,16.1-11.9,29.7-28,28
		c-11.8-1.3-21.3-10.7-22.5-22.5c-1.7-16.1,11.9-29.7,28-28C774.3,384.7,783.8,394.1,785.1,405.9z M757.1,234.9
		c16.1-1.7,29.7,11.9,28,28c-1.3,11.8-10.7,21.3-22.5,22.5c-16.1,1.7-29.7-11.9-28-28C735.8,245.6,745.3,236.1,757.1,234.9z
		 M486.2,234.7c27.1,0,48.9,21.9,48.9,48.9c0,26.9-22.1,48.9-48.9,48.9c-27.1,0-48.9-21.9-48.9-48.9
		C437.3,256.8,459.3,234.7,486.2,234.7z M349.6,398.4c-1.1-8,5.1-15.1,13.2-15.1h12.9H488c11.5-0.2,22.6-2.4,32.9-6.2
		c8.7-3.2,17.9,3.3,17.9,12.5v31.1c0,7.3-6,13.3-13.3,13.3H430h-50.7h-16.5v0.1c-8.1,0-14.3-7.1-13.2-15.1c0.5-3.3,0.7-6.8,0.7-10.3
		S350.1,401.8,349.6,398.4z M455.5,789.3l-31.9,3.6c-13,1.5-23.9-6.1-16.6-16.9c17.1-25.5,23.1-113.5,23.1-113.5
		c0-2,1.7-3.7,3.7-3.7h38.7c2.9,0,4.6,3.1,3.1,5.6c-16,26.5-11.9,87.3-9.3,113.1C466.9,783.8,461.9,789.3,455.5,789.3z M443.3,608
		c-7.3,0-13.3-6-13.3-13.3v-96.5c0-7.3,6-13.3,13.3-13.3h82.1c7.3,0,13.3,6,13.3,13.3v96.5c0,7.3-6,13.3-13.3,13.3H443.3z
		 M375.6,484.7c2,0,3.7,1.7,3.7,3.7v115.9c0,2-1.7,3.7-3.7,3.7h-60.3c-16.3,0-31.7,3.3-45.8,9.3c-0.1,0-0.1,0.1-0.2,0.1
		c-9.9,4.1-20.7-3.3-20.7-14L247.5,502c-0.1-10.4,8.9-18.6,19.2-17.6h0.2L375.6,484.7z M276,383.4c12.5,0.9,22.7,11,23.5,23.5
		c1.1,14.8-10.7,27.2-25.3,27.2c-14-0.1-25.4-11.5-25.4-25.4C248.8,394.1,261.2,382.3,276,383.4z M248.8,724
		c0-36.3,29.7-65.7,66.1-65.3c35.2,0.5,63.9,29.1,64.4,64.3c0.5,36.5-28.9,66.3-65.3,66.3C278.1,789.3,248.8,760.1,248.8,724z
		 M575,789.3c-36.3,0-65.7-29.6-65.3-66.1c0.4-35.1,29-63.9,64.1-64.5c36.5-0.6,66.4,28.8,66.4,65.3
		C640.3,760.1,611,789.3,575,789.3z M683.7,570.3c0,3.5-1.4,6.9-3.9,9.4l-37.6,37.6c-4.3,4.3-10.9,5.1-16.1,2.1
		c-9.5-5.5-17.4-9.2-28.5-10.7c-6.7-0.9-11.7-6.5-11.7-13.3v-97.3c0-7.3,6-13.3,13.3-13.3h71.2c7.3,0,13.3,6,13.3,13.3V570.3z
		 M732.1,337.9c-28.3,11.1-48.4,38.7-48.4,70.9c0,7.2,1,14.1,2.9,20.7c0.7,2.3-1.1,4.7-3.5,4.7h-93.5c-2,0-3.7-1.7-3.7-3.7V281.9
		c-0.3-15-3.9-29.1-10.1-41.8c-1.2-2.5,0.5-5.3,3.3-5.3h104c2.5,0,4.2,2.3,3.5,4.7c-1.9,6.5-2.9,13.5-2.9,20.7
		c0,32.3,20.1,59.9,48.4,70.9c1.4,0.5,2.3,1.9,2.3,3.4C734.5,335.9,733.5,337.3,732.1,337.9z M758.1,633.4
		c-12.4-0.8-22.5-10.7-23.6-23.1c-1.5-16.3,12.6-29.7,28.9-27.5c11.5,1.6,20.5,11,21.7,22.6C786.6,621.2,773.7,634.4,758.1,633.4z"
		/>
	<circle id="START" class="st1" cx="419" cy="546" r="2.3"/>
	<g id="CHECK">
		<rect id="1" x="366.3" y="528.5" class="st0" width="76.3" height="7"/>
		<rect id="2" x="481.3" y="173.3" class="st0" width="9.5" height="73.9"/>
		<rect id="3" x="329.4" y="778.7" class="st0" width="7.6" height="56.7"/>
		<rect id="4" x="361.4" y="723.9" class="st0" width="76.6" height="9.5"/>
	</g>
</g>
<path id="drive" d="M392.6,546.2l1.2-9.4l1.4-19.9l3.9-16.3l6.7-14.6l7.9-9.4l7.7-4.9l12-4.7l12.3-2.7l74.4-8.9l8.3-2.3
	l4.7-1.5l4.7-2.7l3.1-2.4l3.2-2.3l2.7-3.2l2.3-3.1l2.9-5.1l1.7-5.4c0,0,1.7-19.7,1.7-36.7c0-21.7,0-38.2,0-59.9
	c0-19.3-4.7-51.3-4.7-51.3l-5.3-29l-13.1-19.3l-9.7-5.1L507,219l-18.7-3.5l-16.5,2.5l-9.5,3.5l-10,6l-8.7,8.3l-7,9.9l-5.1,11.8
	l-8,53.1l-0.9,18.9l-8.5,13.3l-18.9,11.3l-15.7,5.9L361,370.5l-17,16.3L279.9,449l-44,40.7l-4.3,4.6l-2.3,3.5l-1.8,5
	c0,4.5,0,8.9,0,13.3c0,4.7,0,9.5,0,14.2c0,8.2,0,16.4,0,24.7c0,10.7,0,21.5,0,32.1c0,12.1,0,24.1,0,36.3c0,12.5,0,25,0,37.5
	c0,11.8,0,23.5,0,35.3c0,10.1,0,20.2,0,30.3c0,7.3,0,14.5,0,21.9c0,3.5,0,7,0,10.5c0,0.1,0,0.3,0,0.5l2.5,7.5l5.2,5.2l6.2,4.5
	l82.4,44.9l6.3,1.9h6.5l6.9-2l5.9-2.9l4.5-4l3.5-6l45.9-99.2l1.2-6.2l-0.7-8.7l-1.3-9.3L392.6,546.2z"/>
<g id="layout_overviewB">
		<path class="st0" d="M571.7,837.3H314.1c-59.8,0-109.5-46.7-113.2-106.3c-0.1-2.2-0.2-4.5-0.2-6.9v-2.7h-0.1v-310h0.1v-2.7
			c-0.3-19.7,6.8-38.1,20.1-51.6c13.9-14.1,33.2-21.9,54.5-21.9h118.1c2.2,0,4.2-1.1,5.3-3c1.1-1.9,1.3-4.1,0.3-6.1
			c-5.4-11.1-8.6-23-9.5-35.5c-1.9-27.3,7.1-53.1,25.4-72.9c18.7-20.1,44.4-31.1,72.5-31.1h283.3c30.3,0,62.6,25.7,62.6,73.5
			c0,15.1-4.5,29.5-13.1,41.9c-8.4,12.1-20,21.3-33.6,26.5c-2.4,0.9-4,3.3-4,5.9c0,2.7,1.6,4.9,4.1,5.9
			c26.8,10.5,45.1,35.7,46.6,64.5c0.1,1.3,0.1,2.6,0.1,3.9v2.7h0.1V608c0,18.3-6.9,37-19.7,54c-0.1,0.1-0.1,0.1-0.2,0.2
			c-16.9,12.5-35.4,19.1-53.5,19.1c-26.8,0-51.4-14.6-64.3-38.1c-1.1-2-3.3-3.3-5.5-3.3c-1.7,0-3.3,0.7-4.5,1.9l-13.7,13.7
			c-2.1,2.1-2.5,5.3-0.9,7.9c11.3,18.1,17.3,39.1,17.3,60.5c0,30.3-11.8,58.7-33.2,80.1c-21.4,21.4-49.9,33.2-80.1,33.2H571.7z
			 M201.9,720L201.9,720l0.1,4c0,2.3,0.1,4.7,0.2,6.9c3.6,58.9,52.7,105.1,111.9,105.1H571h4c29.9,0,58.1-11.7,79.2-32.8
			c21.1-21.1,32.8-49.3,32.8-79.2c0-21.2-5.9-41.9-17.3-59.7c-1.9-3-1.5-6.9,1.1-9.5l13.7-13.7c1.5-1.5,3.4-2.3,5.4-2.3
			c2.7,0,5.3,1.5,6.7,3.9c12.7,23.1,36.9,37.3,63.2,37.3c17.8,0,36-6.5,52.7-18.9c12.7-16.7,19.4-35.1,19.5-53.1V412.7h-0.1v-4
			c0-1.3-0.1-2.6-0.1-3.9c-1.5-28.2-19.5-53-45.8-63.3c-3-1.1-4.9-3.9-4.9-7.1c0-3.1,1.9-6,4.9-7.1c13.3-5.2,24.7-14.2,33-26.1
			c8.4-12.1,12.9-26.3,12.9-41.1c0-46.9-31.5-72.1-61.3-72.1H487.2c-27.7,0-53.1,10.9-71.5,30.7c-18.1,19.4-27,44.9-25.1,71.9
			c0.9,12.3,4.1,24.1,9.4,35.1c1.2,2.3,1.1,5.1-0.3,7.4c-1.4,2.3-3.9,3.7-6.5,3.7H275.2c-20.9,0-40,7.6-53.6,21.5
			c-13.1,13.3-20.1,31.3-19.7,50.7l0.1,4.1h-0.1L201.9,720L201.9,720z"/>
		<path class="st0" d="M420.4,797.1c-8.4,0-15.5-3.3-18.3-8.8c-2.3-4.4-1.8-9.6,1.6-14.6c16.1-23.9,22.1-107.7,22.4-111.5
			c0.1-4.1,3.5-7.5,7.7-7.5h38.7c2.8,0,5.3,1.5,6.7,3.9c1.4,2.4,1.3,5.4-0.1,7.8c-15.4,25.5-11.3,85.9-8.7,110.6
			c0.4,4.1-0.9,8.3-3.7,11.4c-2.7,3.1-6.7,4.8-10.8,4.9l-31.7,3.6C422.9,797.1,421.6,797.1,420.4,797.1z M433.7,656.1
			c-3.4,0-6.3,2.8-6.3,6.2v0.1c-0.3,3.6-6.3,87.9-22.6,112.1c-3.1,4.6-3.6,9.3-1.5,13.2c2.7,5,9.3,8.1,17.1,8.1
			c1.1,0,2.3-0.1,3.5-0.2l31.8-3.6c3.8-0.1,7.4-1.7,9.9-4.5c2.5-2.8,3.8-6.6,3.4-10.4c-2.5-24.9-6.7-85.5,8.9-111.4
			c1.2-2,1.2-4.5,0.1-6.5s-3.2-3.2-5.5-3.2L433.7,656.1L433.7,656.1z"/>
		<path class="st0" d="M575,793.3c-18.7,0-36.1-7.3-49.3-20.6c-13.1-13.3-20.2-30.9-20-49.5c0.4-37.1,31-67.8,68.1-68.5
			c38.7-0.7,70.5,30.7,70.5,69.3C644.3,762.2,613.2,793.3,575,793.3z M575,656.1c-0.4,0-0.8,0-1.1,0c-36.4,0.6-66.3,30.7-66.8,67.1
			c-0.2,18.3,6.7,35.5,19.6,48.5c12.9,13,30,20.2,48.3,20.2c37.5,0,67.9-30.5,67.9-67.9C642.9,686.5,612.5,656.1,575,656.1z"/>
		<path class="st0" d="M314.1,793.3c-38.2,0-69.3-31.1-69.3-69.3s31.1-69.3,69.3-69.3c0.3,0,0.6,0,0.9,0
			c37.1,0.5,67.8,31.1,68.4,68.2c0.3,18.7-6.8,36.3-19.9,49.7C350.3,785.9,332.7,793.3,314.1,793.3z M314.1,656.1
			c-37.5,0-67.9,30.5-67.9,67.9s30.5,67.9,67.9,67.9c18.3,0,35.5-7.2,48.4-20.3s19.8-30.3,19.5-48.7c-0.5-36.5-30.6-66.5-67.1-66.9
			C314.7,656.1,314.3,656.1,314.1,656.1z"/>
		<path class="st0" d="M759.8,637.5c-0.7,0-1.3,0-1.9-0.1c-14.3-0.9-26.1-12.4-27.3-26.7c-0.7-8.3,1.9-16.3,7.6-22.5
			c5.6-6.1,13.5-9.6,21.7-9.6c1.4,0,2.8,0.1,4.2,0.3c13.2,1.9,23.7,12.9,25.1,26.1c0.8,8.3-1.9,16.5-7.5,22.7
			C776,633.9,768.1,637.5,759.8,637.5z M759.8,580c-7.8,0-15.4,3.3-20.7,9.1c-5.4,5.9-7.9,13.5-7.3,21.5
			c1.2,13.6,12.5,24.6,26.1,25.5c0.6,0.1,1.3,0.1,1.9,0.1c7.9,0,15.5-3.4,20.8-9.3c5.3-5.9,7.9-13.7,7.1-21.7
			c-1.3-12.7-11.3-23.2-23.9-24.9C762.5,580.1,761.1,580,759.8,580z"/>
		<path class="st0" d="M632.7,625.3c-3,0-6-0.8-8.7-2.3c-9.3-5.4-16.7-8.8-27.1-10.2c-8.7-1.2-15.1-8.5-15.1-17.2v-97.3
			c0-9.5,7.8-17.3,17.3-17.3h71.2c9.5,0,17.3,7.8,17.3,17.3v72.1c0,4.6-1.9,9.1-5.1,12.3L645,620.1
			C641.7,623.5,637.4,625.3,632.7,625.3z M599.2,482.2c-8.8,0-16,7.2-16,16v97.3c0,8.1,5.9,14.8,13.9,15.9
			c10.5,1.4,18.1,4.9,27.5,10.3c2.5,1.4,5.2,2.1,8,2.1c4.3,0,8.3-1.7,11.3-4.7l37.6-37.6c3-2.9,4.7-7,4.7-11.3v-72.2
			c0-8.8-7.2-16-16-16H599.2z"/>
		<path class="st0" d="M263.6,622.5c-4.9,0-9.7-2-13.3-5.5c-3.7-3.6-5.7-8.5-5.7-13.6l-1.1-101.3c-0.1-5.8,2.1-11.3,6.2-15.3
			c4.1-4.1,9.5-6.4,15.3-6.4c0.7,0,1.4,0,2.1,0.1l108.5,0.3c4.2,0,7.7,3.5,7.7,7.7v115.9c0,4.2-3.5,7.7-7.7,7.7h-60.3
			c-15.3,0-30.2,3-44.3,8.9l-0.3,0.1C268.5,622,266,622.5,263.6,622.5z M265.1,481.7c-5.4,0-10.5,2.1-14.3,6
			c-3.8,3.9-5.9,9-5.9,14.4l1.1,101.3c0,4.8,1.9,9.3,5.3,12.7c3.3,3.2,7.8,5.1,12.3,5.1c2.3,0,4.5-0.5,6.7-1.3l0.3-0.1
			c14.2-6,29.3-9.1,44.8-9.1h60.3c3.5,0,6.3-2.9,6.3-6.3V488.4c0-3.5-2.9-6.3-6.3-6.3l-108.5-0.3h-0.1
			C266.3,481.7,265.7,481.7,265.1,481.7z"/>
		<path class="st0" d="M525.4,612h-82.1c-9.5,0-17.3-7.8-17.3-17.3v-96.5c0-9.5,7.8-17.3,17.3-17.3h82.1c9.5,0,17.3,7.8,17.3,17.3
			v96.5C542.7,604.2,534.9,612,525.4,612z M443.3,482.1c-8.8,0-16,7.2-16,16v96.5c0,8.8,7.2,16,16,16h82.1c8.8,0,16-7.2,16-16v-96.5
			c0-8.8-7.2-16-16-16H443.3z"/>
		<path class="st0" d="M738.2,538.9c-2,0-3.9-0.8-5.3-2.2c-1.5-1.5-2.3-3.4-2.3-5.5v-42.8c0-4.2,3.5-7.7,7.7-7.7l0,0l20.7,0.1
			c8.9,0,11-0.4,19.1-2.5c1.9-0.5,3.3-0.7,4.6-0.7c2.5,0,6.7,0.9,6.7,7.3c0,0.2,0.7,36.9,0.7,36.9c0.1,4-1.4,7.7-4.2,10.6
			c-2.9,3-6.9,4.6-11.1,4.4c-6.2-0.3-11.3-0.6-15.1-0.9c-0.9-0.1-1.9-0.1-2.8-0.1c-5.7,0-11.3,1.4-16.4,2.9
			C739.6,538.8,738.9,538.9,738.2,538.9z M738.2,482.1c-3.5,0-6.3,2.9-6.3,6.3v42.8c0,1.7,0.7,3.3,1.9,4.5c1.2,1.2,2.7,1.8,4.4,1.8
			c0.6,0,1.2-0.1,1.7-0.3c5.3-1.5,10.9-2.9,16.8-2.9c1,0,2,0.1,2.9,0.1c3.8,0.3,8.8,0.6,15,0.9c3.9,0.2,7.5-1.3,10.1-4
			c2.5-2.6,3.9-6,3.9-9.6c0,0-0.6-36.7-0.7-36.9c0-4-1.8-6-5.4-6c-1.1,0-2.5,0.2-4.3,0.7c-8.2,2.1-10.4,2.5-19.5,2.5L738.2,482.1z"
			/>
		<path class="st0" d="M683.1,438.1h-93.5c-4.2,0-7.7-3.5-7.7-7.7V281.9c-0.3-14.1-3.6-27.7-9.7-40.1c-1.2-2.4-1.1-5.2,0.4-7.5
			c1.4-2.3,3.8-3.6,6.5-3.6h104c2.5,0,4.7,1.1,6.1,3.1s1.9,4.4,1.3,6.7c-1.8,6.3-2.7,12.9-2.7,19.6c0,14.8,4.5,29,12.9,41.1
			c8.2,11.9,19.6,20.9,33,26.1c3,1.1,4.9,3.9,4.9,7.1c0,3.1-1.9,6-4.9,7.1c-13.3,5.2-24.7,14.2-33,26.1
			c-8.4,12.1-12.9,26.3-12.9,41.1c0,6.7,0.9,13.3,2.7,19.6c0.7,2.3,0.2,4.8-1.3,6.7C687.7,437,685.5,438.1,683.1,438.1z
			 M579.1,232.1c-2.2,0-4.2,1.1-5.3,2.9c-1.1,1.9-1.3,4.1-0.3,6.1c6.2,12.6,9.5,26.3,9.8,40.7v148.6c0,3.5,2.9,6.3,6.3,6.3h93.5
			c2,0,3.9-0.9,5.1-2.5s1.6-3.6,1-5.5c-1.9-6.4-2.7-13.1-2.7-19.9c0-15.1,4.5-29.5,13.1-41.9c8.4-12.1,20-21.3,33.6-26.5
			c2.4-0.9,4-3.3,4-5.9c0-2.7-1.6-4.9-4.1-5.9c-13.6-5.3-25.2-14.5-33.6-26.5c-8.6-12.3-13.1-26.8-13.1-41.9
			c0-6.8,0.9-13.5,2.7-19.9c0.5-1.9,0.2-3.9-1-5.5s-3.1-2.5-5.1-2.5H579.1V232.1z"/>
		<path class="st0" d="M274.2,438.1c-16.2-0.1-29.4-13.3-29.4-29.4c0-16.2,13.2-29.4,29.4-29.4c0.7,0,1.4,0,2.1,0.1
			c14.5,1,26.2,12.7,27.2,27.2c0.6,8.3-2.2,16.1-7.8,22.1C290.1,434.7,282.3,438.1,274.2,438.1z M274.2,380.7
			c-15.5,0-28.1,12.6-28.1,28.1c0,15.4,12.6,28,28.1,28.1c7.7,0,15.3-3.3,20.5-8.9c5.4-5.7,8-13.3,7.5-21.1c-1-13.9-12.1-25-26-26
			C275.5,380.7,274.9,380.7,274.2,380.7z"/>
		<path class="st0" d="M759.8,438.1c-1.1,0-2.1-0.1-3.2-0.2c-13.7-1.5-24.6-12.4-26.1-26.1c-0.9-8.3,1.8-16.6,7.4-22.8
			c5.6-6.2,13.5-9.7,21.9-9.7c1.1,0,2.1,0.1,3.2,0.2c13.7,1.5,24.6,12.4,26.1,26.1c0.9,8.3-1.8,16.6-7.4,22.8
			C776.1,434.5,768.1,438.1,759.8,438.1z M759.8,380.6c-7.9,0-15.5,3.4-20.9,9.3c-5.3,5.9-7.9,13.9-7.1,21.8
			c1.4,13,11.9,23.5,24.9,24.9c1,0.1,2.1,0.1,3.1,0.1c7.9,0,15.5-3.4,20.9-9.3c5.3-5.9,7.9-13.9,7.1-21.8
			c-1.4-13-11.9-23.5-24.9-24.9C761.8,380.7,760.8,380.6,759.8,380.6z"/>
		<path class="st0" d="M366.8,438.1h-4c-5,0-9.7-2.1-13-5.9c-3.3-3.8-4.8-8.8-4.1-13.8c0.4-3,0.6-6.3,0.6-9.7s-0.2-6.7-0.6-9.7
			c-0.7-5,0.9-10,4.1-13.7s8-5.9,13-5.9h125.1c10.7-0.2,21.4-2.2,31.5-5.9c1.9-0.7,3.9-1.1,5.9-1.1c9.5,0,17.3,7.8,17.3,17.3v31.1
			c0,9.5-7.8,17.3-17.3,17.3L366.8,438.1L366.8,438.1z M362.8,380.6c-4.6,0-9,2-12,5.5c-3.1,3.5-4.5,8.1-3.9,12.7
			c0.4,3.1,0.7,6.4,0.7,9.9s-0.2,6.9-0.7,9.9c-0.6,4.6,0.8,9.3,3.8,12.7c3.1,3.5,7.4,5.5,12,5.5h2.7v-0.1h159.9c8.8,0,16-7.2,16-16
			v-31.1c0-8.9-7.1-16-16-16c-1.9,0-3.7,0.3-5.5,1c-10.3,3.8-21.1,5.9-32,6.1L362.8,380.6z"/>
		<path class="st0" d="M486.2,336.6c-14.1,0-27.5-5.5-37.5-15.5c-10-10-15.5-23.3-15.5-37.5c0-29.2,23.7-52.9,52.9-52.9l0,0
			c14.1,0,27.5,5.5,37.5,15.5c10,10,15.5,23.3,15.5,37.5C539.1,312.9,515.4,336.6,486.2,336.6z M486.2,231.4v0.7
			c-28.5,0-51.6,23.1-51.6,51.6c0,13.8,5.3,26.8,15.1,36.5s22.7,15.1,36.5,15.1c28.5,0,51.6-23.1,51.6-51.6
			c0-13.8-5.3-26.8-15.1-36.5c-9.7-9.7-22.7-15.1-36.5-15.1L486.2,231.4z"/>
		<path class="st0" d="M759.8,289.5c-8.3,0-16.3-3.5-21.9-9.7c-5.6-6.2-8.3-14.5-7.4-22.8c1.5-13.7,12.4-24.6,26.1-26.1
			c1.1-0.1,2.1-0.2,3.2-0.2c8.3,0,16.3,3.5,21.9,9.7c5.6,6.2,8.3,14.5,7.4,22.8c-1.5,13.7-12.4,24.6-26.1,26.1
			C761.9,289.5,760.9,289.5,759.8,289.5z M759.8,232.1c-1,0-2,0.1-3.1,0.1c-13,1.4-23.5,11.9-24.9,24.9c-0.9,7.9,1.7,15.9,7.1,21.8
			c6,6.7,14.9,10.1,23.9,9.1c13-1.4,23.5-11.9,24.9-24.9c0.9-7.9-1.7-15.9-7.1-21.8C775.3,235.5,767.7,232.1,759.8,232.1z"/>

		<path class="st4" d="M575.1,241.1c6.2,12.7,9.7,26.8,10.1,41.8v148.6c0,2,1.7,3.7,3.7,3.7h93.5c1.5,0,2.8-0.9,3.3-2.1
			c-0.7,0.7-1.6,1.1-2.7,1.1h-93.5c-2,0-3.7-1.7-3.7-3.7V281.9c-0.3-15-3.9-29.1-10.1-41.8c-0.5-1.1-0.5-2.2-0.1-3.1
			C574.7,238,574.4,239.6,575.1,241.1z"/>
		<path class="st4" d="M430.1,662.5c0-0.5,0.1-1,0.3-1.5c-0.6,0.7-1,1.5-1,2.5c0,0-6,88-23.1,113.5c-7.3,10.8,3.6,18.4,16.6,16.9
			l31.9-3.6c4,0,7.5-2.2,9.3-5.3c-1.9,2.6-5.1,4.3-8.7,4.3l-31.9,3.6c-13,1.5-23.9-6.1-16.6-16.9
			C424.1,750.5,430.1,662.5,430.1,662.5z"/>
		<path class="st4" d="M733.9,412.5c1.2,11.7,10.7,21.2,22.5,22.5c10.1,1.1,19.3-3.9,24.3-11.7c-5.1,7.3-13.9,11.8-23.6,10.7
			c-11.8-1.3-21.3-10.7-22.5-22.5c-0.7-6,0.8-11.6,3.7-16.3C735,400.1,733.3,406.1,733.9,412.5z"/>
		<path class="st4" d="M536.1,602.5c-2.4,3.3-6.3,5.5-10.7,5.5h-82.1c-7.3,0-13.3-6-13.3-13.3v-96.5c0-2.5,0.7-4.9,1.9-6.9
			c-1.6,2.2-2.6,4.9-2.6,7.9v96.5c0,7.3,6,13.3,13.3,13.3h82.1C529.5,609,533.8,606.4,536.1,602.5z"/>
		<path class="st4" d="M486.6,184.9h0.7h282.7c33.7,0,65.3,29.1,65.3,76.1c0,15.1-4.4,29.2-12,41.1c8-12.1,12.7-26.5,12.7-42.1
			c0-47.1-31.5-76.1-65.3-76.1H487.9h-0.7c-35.9,0-67.1,17.9-84.9,45.3C420.3,202.5,451.1,184.9,486.6,184.9z"/>
		<path class="st4" d="M574.3,790.3c22.8,0,42.9-11.7,54.6-29.5c-11.7,17.2-31.5,28.5-53.9,28.5c-36.3,0-65.7-29.6-65.3-66.1
			c0.1-12.8,4.1-24.8,10.7-34.9c-7,10.3-11.2,22.6-11.3,35.9C508.7,760.7,538.1,790.3,574.3,790.3z"/>
		<path class="st4" d="M362.1,435.1L362.1,435.1l16.5-0.1h50.7h95.4c4.8,0,9.1-2.6,11.4-6.5c-2.4,3.3-6.3,5.5-10.7,5.5H430h-50.7
			h-16.5v0.1c-8.1,0-14.3-7.1-13.2-15.1c0.5-3.3,0.7-6.8,0.7-10.3s-0.2-6.9-0.7-10.3c-0.4-3.1,0.3-6.2,1.8-8.7
			c-1.9,2.7-2.9,6.1-2.5,9.7c0.5,3.4,0.7,6.8,0.7,10.3c0,3.5-0.2,6.9-0.7,10.3C347.9,427.9,354.1,435.1,362.1,435.1z"/>
		<path class="st4" d="M774.8,532.7c-4.9-0.2-10.5-0.5-14.9-0.9c-7.2-0.6-14.1,1-20.7,2.9c-2.3,0.7-4.7-1.1-4.7-3.5v-42.8
			c0-0.5,0.1-1,0.3-1.5c-0.6,0.7-1,1.5-1,2.5v42.8c0,2.5,2.3,4.2,4.7,3.5c6.5-1.9,13.5-3.5,20.7-2.9c4.4,0.3,10,0.7,14.9,0.9
			c4.1,0.2,7.8-2,9.7-5.3C781.9,531.2,778.5,532.9,774.8,532.7z"/>
		<path class="st4" d="M733.9,611.3c1.1,12.4,11.2,22.3,23.6,23.1c9.7,0.6,18.3-4.3,23.1-11.8c-4.9,6.9-13.2,11.3-22.5,10.8
			c-12.4-0.8-22.5-10.7-23.6-23.1c-0.5-5.9,0.9-11.3,3.8-15.9C735.1,599.2,733.3,605.1,733.9,611.3z"/>
		<path class="st4" d="M731.5,338.9c0.9-0.3,1.6-1.1,2-1.9c-0.3,0.4-0.8,0.7-1.3,0.9c-15.1,5.9-27.8,16.5-36.4,29.9
			C704.3,354.8,716.8,344.6,731.5,338.9z"/>
		<path class="st4" d="M274.5,333.5H375h17.6c1.5,0,2.7-0.9,3.3-2.2c-0.7,0.7-1.6,1.2-2.7,1.2h-17.6H275.2
			c-28.3,0-51.9,13.3-65.3,33.7C223.4,346.3,246.7,333.5,274.5,333.5z"/>
		<path class="st4" d="M436.6,284.7c0,27.1,21.9,48.9,48.9,48.9c17.1,0,32.2-8.9,40.9-22.3c-8.9,12.9-23.7,21.3-40.3,21.3
			c-27.1,0-48.9-21.9-48.9-48.9c0-9.8,2.9-18.9,8-26.6C439.8,264.9,436.6,274.5,436.6,284.7z"/>
		<path class="st4" d="M835.9,408.7c0-1.3-0.1-2.7-0.1-4.1c-1.6-30.5-21.1-56.2-48.3-66.8c-1.4-0.5-2.3-1.9-2.3-3.4
			c0-0.5,0.1-1,0.3-1.5c-0.6,0.7-1,1.6-1,2.5c0,1.5,0.9,2.9,2.3,3.4c27.2,10.6,46.7,36.3,48.3,66.8c0.1,1.3,0.1,2.7,0.1,4.1h0.1
			v199.4c0,15.9-4.9,32.8-15.9,49.5c11.5-17.1,16.6-34.3,16.6-50.5L835.9,408.7L835.9,408.7z"/>
		<path class="st4" d="M762.6,285.3c-16.1,1.7-29.7-11.9-28-28c0.4-3.9,1.7-7.6,3.7-10.8c-2.4,3.4-4,7.5-4.4,11.8
			c-1.7,16.1,11.9,29.7,28,28c7.8-0.8,14.6-5.3,18.7-11.7C776.5,280.5,770,284.6,762.6,285.3z"/>
		<path class="st4" d="M672.9,658.7c-1.1,1.2-1.3,3-0.5,4.4c11.3,17.9,17.9,39.1,17.9,61.9c0,23.7-7.1,45.7-19.3,64.1
			c12.6-18.5,20-41,20-65.1c0-22.7-6.5-43.9-17.9-61.9C672.5,661.1,672.4,659.8,672.9,658.7z"/>
		<path class="st4" d="M248.1,409.7c0,13.9,11.4,25.3,25.4,25.4c9,0,16.9-4.7,21.5-11.9c-4.6,6.5-12.2,10.9-20.8,10.9
			c-14-0.1-25.4-11.5-25.4-25.4c0-5,1.5-9.6,3.9-13.5C249.8,399.3,248.1,404.3,248.1,409.7z"/>
		<path class="st4" d="M248.1,725c0,36.1,29.3,65.3,65.3,65.3c22.9,0,43.1-11.8,54.7-29.7c-11.7,17.3-31.6,28.7-54,28.7
			c-36,0-65.3-29.2-65.3-65.3c0-13.2,3.9-25.5,10.7-35.8C252.3,698.7,248.1,711.3,248.1,725z"/>
		<path class="st4" d="M247.9,604.3c0,10.7,10.8,18.1,20.7,14c0.1,0,0.1-0.1,0.2-0.1c14.1-5.9,29.5-9.3,45.8-9.3h60.3
			c1.5,0,2.8-0.9,3.3-2.2c-0.7,0.7-1.6,1.2-2.7,1.2h-60.3c-16.3,0-31.7,3.3-45.8,9.3c-0.1,0-0.1,0.1-0.2,0.1
			c-9.9,4.1-20.7-3.3-20.7-14L247.5,502c-0.1-3.5,0.9-6.7,2.6-9.4c-2.1,2.9-3.3,6.5-3.3,10.4L247.9,604.3z"/>
		<path class="st4" d="M681.2,578.1c-0.4,0.5-0.9,1.1-1.4,1.6l-37.6,37.6c-4.3,4.3-10.9,5.1-16.1,2.1c-9.5-5.5-17.4-9.2-28.5-10.7
			c-6.7-0.9-11.7-6.5-11.7-13.3v-97.3c0-2.5,0.7-4.9,1.9-6.9c-1.6,2.2-2.6,4.9-2.6,7.9v97.3c0,6.7,5,12.3,11.7,13.3
			c11.1,1.5,19,5.1,28.5,10.7c5.3,3,11.9,2.1,16.1-2.1l37.6-37.6C679.9,579.9,680.6,579.1,681.2,578.1z"/>
		<rect x="423" y="532.3" class="st0" width="4" height="2"/>
		<path class="st0" d="M418.3,534.3h-6v-2h6V534.3z M407.5,534.3h-6v-2h6V534.3z M396.8,534.3h-6v-2h6V534.3z"/>
		<rect x="382.1" y="532.3" class="st0" width="4" height="2"/>
		<rect x="499.2" y="444.6" class="st0" width="27.3" height="2.7"/>
		<rect x="499.2" y="439.3" class="st0" width="27.3" height="2.7"/>
		<rect x="499.2" y="476.6" class="st0" width="27.3" height="2.7"/>
		<rect x="499.2" y="449.9" class="st0" width="27.3" height="2.7"/>
		<rect x="499.2" y="455.3" class="st0" width="27.3" height="2.7"/>
		<rect x="499.2" y="460.6" class="st0" width="27.3" height="2.7"/>
		<rect x="499.2" y="465.9" class="st0" width="27.3" height="2.7"/>
		<rect x="499.2" y="471.3" class="st0" width="27.3" height="2.7"/>
		<rect x="579.3" y="194.6" class="st0" width="27.3" height="2.7"/>
		<rect x="579.3" y="189.3" class="st0" width="27.3" height="2.7"/>
		<rect x="579.3" y="226.6" class="st0" width="27.3" height="2.7"/>
		<rect x="579.3" y="200" class="st0" width="27.3" height="2.7"/>
		<rect x="579.3" y="205.3" class="st0" width="27.3" height="2.7"/>
		<rect x="579.3" y="210.6" class="st0" width="27.3" height="2.7"/>
		<rect x="579.3" y="216" class="st0" width="27.3" height="2.7"/>
		<rect x="579.3" y="221.3" class="st0" width="27.3" height="2.7"/>
		<rect x="471.9" y="342.7" class="st0" width="27.3" height="2.7"/>
		<rect x="471.9" y="337.4" class="st0" width="27.3" height="2.7"/>
		<rect x="471.9" y="374.7" class="st0" width="27.3" height="2.7"/>
		<rect x="471.9" y="348" class="st0" width="27.3" height="2.7"/>
		<rect x="471.9" y="353.4" class="st0" width="27.3" height="2.7"/>
		<rect x="471.9" y="358.7" class="st0" width="27.3" height="2.7"/>
		<rect x="471.9" y="364" class="st0" width="27.3" height="2.7"/>
		<rect x="471.9" y="369.4" class="st0" width="27.3" height="2.7"/>
		<rect x="596.3" y="444.6" class="st0" width="27.3" height="2.7"/>
		<rect x="596.3" y="439.3" class="st0" width="27.3" height="2.7"/>
		<rect x="596.3" y="476.6" class="st0" width="27.3" height="2.7"/>
		<rect x="596.3" y="449.9" class="st0" width="27.3" height="2.7"/>
		<rect x="596.3" y="455.3" class="st0" width="27.3" height="2.7"/>
		<rect x="596.3" y="460.6" class="st0" width="27.3" height="2.7"/>
		<rect x="596.3" y="465.9" class="st0" width="27.3" height="2.7"/>
		<rect x="596.3" y="471.3" class="st0" width="27.3" height="2.7"/>
		<rect x="439.9" y="618.7" class="st0" width="27.3" height="2.7"/>
		<rect x="439.9" y="613.3" class="st0" width="27.3" height="2.7"/>
		<rect x="439.9" y="650.7" class="st0" width="27.3" height="2.7"/>
		<rect x="439.9" y="624" class="st0" width="27.3" height="2.7"/>
		<rect x="439.9" y="629.3" class="st0" width="27.3" height="2.7"/>
		<rect x="439.9" y="634.7" class="st0" width="27.3" height="2.7"/>
		<rect x="439.9" y="640" class="st0" width="27.3" height="2.7"/>
		<rect x="439.9" y="645.3" class="st0" width="27.3" height="2.7"/>
			<polygon class="st0" points="666.2,619.6 657.8,628 649.4,636.4 648.4,635.4 647.5,634.5 655.9,626.1 664.3,617.7 665.2,618.7 
							"/>
			<polygon class="st0" points="662.4,615.8 654,624.2 645.6,632.6 644.7,631.7 643.7,630.7 652.1,622.3 660.5,613.9 661.5,614.9 
							"/>
			<polygon class="st0" points="658.6,612.1 650.2,620.4 641.8,628.8 640.9,627.9 640,627 648.4,618.6 656.7,610.2 657.7,611.1 			
				"/>
			<polygon class="st0" points="669.9,623.4 661.6,631.8 653.2,640.2 652.2,639.2 651.3,638.3 659.7,629.9 668.1,621.5 669,622.4 
							"/>
			<polygon class="st0" points="673.7,627.1 665.3,635.5 656.9,643.9 656,643 655,642 663.4,633.6 671.8,625.3 672.8,626.2 			"/>
			<polygon class="st0" points="677.5,630.9 669.1,639.3 660.7,647.7 659.8,646.8 658.8,645.8 667.2,637.4 675.6,629 676.5,630 			
				"/>
			<polygon class="st0" points="681.3,634.7 672.9,643.1 664.5,651.5 663.5,650.5 662.6,649.6 671,641.2 679.4,632.8 680.3,633.7 
							"/>
			<polygon class="st0" points="685,638.5 676.6,646.8 668.2,655.2 667.3,654.3 666.4,653.4 674.8,645 683.1,636.6 684.1,637.5 			
				"/>
		<rect x="413.2" y="804.7" class="st0" width="27.3" height="2.7"/>
		<rect x="413.2" y="799.3" class="st0" width="27.3" height="2.7"/>
		<rect x="413.2" y="810" class="st0" width="27.3" height="2.7"/>
		<rect x="413.2" y="815.3" class="st0" width="27.3" height="2.7"/>
		<rect x="413.2" y="820.7" class="st0" width="27.3" height="2.7"/>
		<rect x="413.2" y="826" class="st0" width="27.3" height="2.7"/>
		<rect x="413.2" y="831.3" class="st0" width="27.3" height="2.7"/>
		<rect x="564.2" y="799.7" class="st0" width="27.3" height="2.7"/>
		<rect x="564.2" y="794.3" class="st0" width="27.3" height="2.7"/>
		<rect x="564.2" y="805" class="st0" width="27.3" height="2.7"/>
		<rect x="564.2" y="810.3" class="st0" width="27.3" height="2.7"/>
		<rect x="564.2" y="815.7" class="st0" width="27.3" height="2.7"/>
		<rect x="564.2" y="821" class="st0" width="27.3" height="2.7"/>
		<rect x="564.2" y="826.3" class="st0" width="27.3" height="2.7"/>
		<rect x="564.2" y="831.7" class="st0" width="27.3" height="2.7"/>
		<rect x="298.9" y="618.7" class="st0" width="27.3" height="2.7"/>
		<rect x="298.9" y="613.3" class="st0" width="27.3" height="2.7"/>
		<rect x="298.9" y="624" class="st0" width="27.3" height="2.7"/>
		<rect x="298.9" y="629.3" class="st0" width="27.3" height="2.7"/>
		<rect x="298.9" y="634.7" class="st0" width="27.3" height="2.7"/>
		<rect x="298.9" y="640" class="st0" width="27.3" height="2.7"/>
		<rect x="298.9" y="645.3" class="st0" width="27.3" height="2.7"/>
		<rect x="298.9" y="650.7" class="st0" width="27.3" height="2.7"/>
		<rect x="384.5" y="495.6" class="st0" width="2.7" height="27.3"/>
		<rect x="202.9" y="497" class="st0" width="2.7" height="27.3"/>
		<rect x="208.2" y="497" class="st0" width="2.7" height="27.3"/>
		<rect x="213.5" y="497" class="st0" width="2.7" height="27.3"/>
		<rect x="218.9" y="497" class="st0" width="2.7" height="27.3"/>
		<rect x="224.2" y="497" class="st0" width="2.7" height="27.3"/>
		<rect x="229.5" y="497" class="st0" width="2.7" height="27.3"/>
		<rect x="234.9" y="497" class="st0" width="2.7" height="27.3"/>
		<rect x="240.2" y="497" class="st0" width="2.7" height="27.3"/>
		<rect x="389.8" y="495.6" class="st0" width="2.7" height="27.3"/>
		<rect x="395.2" y="495.6" class="st0" width="2.7" height="27.3"/>
		<rect x="400.5" y="495.6" class="st0" width="2.7" height="27.3"/>
		<rect x="405.8" y="495.6" class="st0" width="2.7" height="27.3"/>
		<rect x="411.2" y="495.6" class="st0" width="2.7" height="27.3"/>
		<rect x="416.5" y="495.6" class="st0" width="2.7" height="27.3"/>
		<rect x="421.8" y="495.6" class="st0" width="2.7" height="27.3"/>
		<rect x="544.7" y="495.6" class="st0" width="2.7" height="27.3"/>
		<rect x="550.1" y="495.6" class="st0" width="2.7" height="27.3"/>
		<rect x="555.4" y="495.6" class="st0" width="2.7" height="27.3"/>
		<rect x="540.2" y="270" class="st0" width="2.7" height="27.3"/>
		<rect x="545.5" y="270" class="st0" width="2.7" height="27.3"/>
		<rect x="550.8" y="270" class="st0" width="2.7" height="27.3"/>
		<rect x="556.2" y="270" class="st0" width="2.7" height="27.3"/>
		<rect x="561.5" y="270" class="st0" width="2.7" height="27.3"/>
		<rect x="566.8" y="270" class="st0" width="2.7" height="27.3"/>
		<rect x="572.2" y="270" class="st0" width="2.7" height="27.3"/>
		<rect x="577.5" y="270" class="st0" width="2.7" height="27.3"/>
		<rect x="560.7" y="495.6" class="st0" width="2.7" height="27.3"/>
		<rect x="566.1" y="495.6" class="st0" width="2.7" height="27.3"/>
		<rect x="571.4" y="495.6" class="st0" width="2.7" height="27.3"/>
		<rect x="576.7" y="495.6" class="st0" width="2.7" height="27.3"/>
		<rect x="689" y="497.8" class="st0" width="2.7" height="27.3"/>
		<rect x="694.3" y="497.8" class="st0" width="2.7" height="27.3"/>
		<rect x="699.7" y="497.8" class="st0" width="2.7" height="27.3"/>
		<rect x="705" y="497.8" class="st0" width="2.7" height="27.3"/>
		<rect x="710.3" y="497.8" class="st0" width="2.7" height="27.3"/>
		<rect x="715.7" y="497.8" class="st0" width="2.7" height="27.3"/>
		<rect x="721" y="497.8" class="st0" width="2.7" height="27.3"/>
		<rect x="726.3" y="497.8" class="st0" width="2.7" height="27.3"/>

	<path class="st9" d="M563.9,311.7c0-0.7-0.2-1.3-0.5-1.9c-0.4-0.7-0.9-1.4-1.7-1.8c-0.6-0.3-1.2-0.5-1.8-0.6
		c-0.9-0.1-1.8,0.1-2.6,0.5c-1.2,0.7-2,1.7-2.2,3.1c0,0.3-0.1,0.5-0.1,0.8c0,1.6,0,3.2,0,4.8c0,0.1,0,0.1-0.1,0.1c-0.5,0-1,0-1.5,0
		c0,0-0.1,0-0.1,0c-0.3,0-0.4,0.3-0.2,0.5c0.6,0.8,1.2,1.5,1.7,2.3c0.2,0.4,0.6,0.7,0.9,1.1c0,0,0.1,0.1,0.1,0.1
		c0.2,0.3,0.5,0.3,0.7,0c0.3-0.4,0.6-0.8,0.9-1.2c0.6-0.7,1.2-1.5,1.7-2.2c0.1-0.1,0.1-0.2,0.1-0.3c0-0.1-0.1-0.2-0.3-0.2
		c-0.5,0-0.9,0-1.4,0c-0.1,0-0.2-0.1-0.2-0.2c0-1.7,0-3.4,0-5.1c0-0.9,0.5-1.4,1.3-1.7c1.1-0.4,2.4,0.2,2.7,1.3
		c0,0.2,0.1,0.4,0.1,0.6c0,2.5,0,4.9,0,7.4c0,0.4,0,0.9,0,1.3c0,0,0,0.1,0,0.1c0,0.2,0.1,0.3,0.3,0.3c0.3,0,0.5,0,0.8,0
		c0.3,0,0.5,0,0.8,0c0.2,0,0.4-0.2,0.4-0.4c0-0.6,0-1.3,0-1.9c0-0.9,0-1.8,0-2.6c0,0,0,0,0,0C563.9,314.6,563.9,313.1,563.9,311.7z"
		/>
	<path class="st9" d="M225,712.4c-0.8,0-1.6-0.2-2.3-0.7c-0.9-0.6-1.4-1.5-1.5-2.6c-0.1-1.2,0.1-2.4-0.2-3.5c-0.1-0.5,0-1,0.1-1.5
		c0-0.1,0-0.2,0-0.4c0-0.1-0.1-0.2-0.2-0.2c-0.1,0-0.2,0-0.3,0c-0.4,0-0.8,0-1.2,0c-0.5,0-0.6,0.1-0.6,0.5c0.1,1.5,0.2,3,0,4.5
		c-0.2,2.3,1.2,4.6,3.3,5.5c0.7,0.3,1.5,0.5,2.3,0.5c0.4,0,0.7,0,1.1,0c0.1,0,0.1,0.1,0.1,0.2c-0.1,0.5-0.3,1.1-0.4,1.6
		c0,0.1,0,0.2,0.1,0.3c0.1,0.1,0.2,0.1,0.3,0.1c0.1,0,0.1-0.1,0.2-0.1c1.2-0.9,2.4-1.8,3.6-2.8c0.2-0.2,0.2-0.5,0-0.7
		c-1.2-0.9-2.4-1.8-3.6-2.7c-0.1-0.1-0.2-0.1-0.3-0.1c-0.2,0-0.4,0.2-0.3,0.4c0.1,0.5,0.3,1.1,0.4,1.6c0,0,0,0,0,0.1
		C225.5,712.4,225.3,712.4,225,712.4z"/>
	<path class="st9" d="M312.7,812.2c0,0.8-0.2,1.6-0.7,2.3c-0.6,0.9-1.5,1.4-2.6,1.5c-1.2,0.1-2.4-0.1-3.5,0.2c-0.5,0.1-1,0-1.5-0.1
		c-0.1,0-0.2,0-0.4,0c-0.1,0-0.2,0.1-0.2,0.2c0,0.1,0,0.2,0,0.3c0,0.4,0,0.8,0,1.2c0,0.5,0.1,0.6,0.5,0.6c1.5-0.1,3-0.2,4.5,0
		c2.3,0.2,4.6-1.2,5.5-3.3c0.3-0.7,0.5-1.5,0.5-2.3c0-0.4,0-0.7,0-1.1c0-0.1,0.1-0.1,0.2-0.1c0.5,0.1,1.1,0.3,1.6,0.4
		c0.1,0,0.2,0,0.3-0.1c0.1-0.1,0.1-0.2,0.1-0.3c0-0.1-0.1-0.1-0.1-0.2c-0.9-1.2-1.8-2.4-2.8-3.6c-0.2-0.2-0.5-0.2-0.7,0
		c-0.9,1.2-1.8,2.4-2.7,3.6c-0.1,0.1-0.1,0.2-0.1,0.3c0,0.2,0.2,0.4,0.4,0.3c0.5-0.1,1.1-0.3,1.6-0.4c0,0,0,0,0.1,0
		C312.7,811.8,312.7,812,312.7,812.2z"/>
	<path id="siup" class="st9" d="M490.7,453.1c-0.5,0.6-1.1,1.2-1.6,1.9c-0.4,0.4-0.8,0.9-1.1,1.3c0,0-0.1,0.1-0.1,0.1
		c-0.1,0.1-0.1,0.2,0,0.3c0.1,0.1,0.2,0.2,0.3,0.1c0.2,0,0.4,0,0.7,0c0.3,0,0.5,0,0.8,0c0.1,0,0.2,0.1,0.2,0.2c0,1.2,0,2.4,0,3.5
		c0,0.9,0,1.8,0,2.7c0,0,0,0.1,0,0.1c0,0.2,0,0.2-0.2,0.2c-0.3,0-0.6,0-1,0c-1.2,0-2.3,0-3.5,0c0,0,0,0-0.1,0
		c-0.3,0-0.4,0.1-0.4,0.4c0,0.2,0,0.5,0,0.7c0,0.2,0,0.3,0,0.5c0,0.3,0.2,0.5,0.5,0.5c0.8,0,1.5,0,2.3,0c1.4,0,2.8,0,4.2,0.1
		c0.2,0,0.4-0.1,0.4-0.4c0-0.5,0-1.1,0-1.6c0-1.5,0-3,0-4.5c0-0.7,0-1.4,0-2.1c0,0,0-0.1,0-0.1c0-0.1,0-0.2,0.2-0.1
		c0.5,0,1,0.1,1.5,0.1c0.1,0,0.1,0,0.2,0c0.1,0,0.2-0.1,0.2-0.2c0-0.1,0-0.2-0.1-0.3c-0.5-0.6-0.9-1.2-1.4-1.7
		c-0.4-0.5-0.8-1-1.2-1.5c-0.1-0.1-0.1-0.1-0.2-0.2C491,452.8,490.9,452.8,490.7,453.1z"/>
	<path class="st9" d="M379.3,362.9c0.5-0.6,1.1-1.2,1.6-1.9c0.4-0.4,0.8-0.9,1.1-1.3c0,0,0.1-0.1,0.1-0.1c0.1-0.1,0.1-0.2,0-0.3
		c-0.1-0.1-0.2-0.2-0.3-0.1c-0.2,0-0.4,0-0.7,0c-0.3,0-0.5,0-0.8,0c-0.1,0-0.2-0.1-0.2-0.2c0-1.2,0-2.4,0-3.5c0-0.9,0-1.8,0-2.7
		c0,0,0-0.1,0-0.1c0-0.2,0-0.2,0.2-0.2c0.3,0,0.6,0,1,0c1.2,0,2.3,0,3.5,0c0,0,0,0,0.1,0c0.3,0,0.4-0.1,0.4-0.4c0-0.2,0-0.5,0-0.7
		c0-0.2,0-0.3,0-0.5c0-0.3-0.2-0.5-0.5-0.5c-0.8,0-1.5,0-2.3,0c-1.4,0-2.8,0-4.2-0.1c-0.2,0-0.4,0.1-0.4,0.4c0,0.5,0,1.1,0,1.6
		c0,1.5,0,3,0,4.5c0,0.7,0,1.4,0,2.1c0,0,0,0.1,0,0.1c0,0.1,0,0.2-0.2,0.1c-0.5,0-1-0.1-1.5-0.1c-0.1,0-0.1,0-0.2,0
		c-0.1,0-0.2,0.1-0.2,0.2c0,0.1,0,0.2,0.1,0.3c0.5,0.6,0.9,1.2,1.4,1.7c0.4,0.5,0.8,1,1.2,1.5c0.1,0.1,0.1,0.1,0.2,0.2
		C379.1,363.2,379.1,363.2,379.3,362.9z"/>
	<path class="st9" d="M263.6,465.2c0.5-0.6,1.1-1.2,1.6-1.9c0.4-0.4,0.8-0.9,1.1-1.3c0,0,0.1-0.1,0.1-0.1c0.1-0.1,0.1-0.2,0-0.3
		c-0.1-0.1-0.2-0.2-0.3-0.1c-0.2,0-0.4,0-0.7,0c-0.3,0-0.5,0-0.8,0c-0.1,0-0.2-0.1-0.2-0.2c0-1.2,0-2.4,0-3.5c0-0.9,0-1.8,0-2.7
		c0,0,0-0.1,0-0.1c0-0.2,0-0.2,0.2-0.2c0.3,0,0.6,0,1,0c1.2,0,2.3,0,3.5,0c0,0,0,0,0.1,0c0.3,0,0.4-0.1,0.4-0.4c0-0.2,0-0.5,0-0.7
		c0-0.2,0-0.3,0-0.5c0-0.3-0.2-0.5-0.5-0.5c-0.8,0-1.5,0-2.3,0c-1.4,0-2.8,0-4.2-0.1c-0.2,0-0.4,0.1-0.4,0.4c0,0.5,0,1.1,0,1.6
		c0,1.5,0,3,0,4.5c0,0.7,0,1.4,0,2.1c0,0,0,0.1,0,0.1c0,0.1,0,0.2-0.2,0.1c-0.5,0-1-0.1-1.5-0.1c-0.1,0-0.1,0-0.2,0
		c-0.1,0-0.2,0.1-0.2,0.2c0,0.1,0,0.2,0.1,0.3c0.5,0.6,0.9,1.2,1.4,1.7c0.4,0.5,0.8,1,1.2,1.5c0.1,0.1,0.1,0.1,0.2,0.2
		C263.3,465.5,263.4,465.5,263.6,465.2z"/>
	<path class="st9" d="M412.6,560.8c-0.6,0.5-1.2,1.1-1.9,1.6c-0.4,0.4-0.9,0.8-1.3,1.1c0,0-0.1,0.1-0.1,0.1c-0.1,0.1-0.2,0.1-0.3,0
		c-0.1-0.1-0.2-0.2-0.1-0.3c0-0.2,0-0.4,0-0.7c0-0.3,0-0.5,0-0.8c0-0.1-0.1-0.2-0.2-0.2c-1.2,0-2.4,0-3.5,0c-0.9,0-1.8,0-2.7,0
		c0,0-0.1,0-0.1,0c-0.2,0-0.2,0-0.2,0.2c0,0.3,0,0.6,0,1c0,1.2,0,2.3,0,3.5c0,0,0,0,0,0.1c0,0.3-0.1,0.4-0.4,0.4c-0.2,0-0.5,0-0.7,0
		c-0.2,0-0.3,0-0.5,0c-0.3,0-0.5-0.2-0.5-0.5c0-0.8,0-1.5,0-2.3c0-1.4,0-2.8-0.1-4.2c0-0.2,0.1-0.4,0.4-0.4c0.5,0,1.1,0,1.6,0
		c1.5,0,3,0,4.5,0c0.7,0,1.4,0,2.1,0c0,0,0.1,0,0.1,0c0.1,0,0.2,0,0.1-0.2c0-0.5-0.1-1-0.1-1.5c0-0.1,0-0.1,0-0.2
		c0-0.1,0.1-0.2,0.2-0.2c0.1,0,0.2,0,0.3,0.1c0.6,0.5,1.2,0.9,1.7,1.4c0.5,0.4,1,0.8,1.5,1.2c0.1,0.1,0.1,0.1,0.2,0.2
		C412.9,560.5,412.9,560.6,412.6,560.8z"/>
	<path class="st9" d="M217.7,573L217.7,573c0,1.5,0,3.1,0,4.6c0,0.2,0,0.2-0.2,0.2c-0.5,0-1-0.1-1.6-0.1c-0.2,0-0.4,0.1-0.4,0.3
		c0,0.1,0.1,0.2,0.2,0.3c0.9,1,1.9,2,2.8,2.9c0.2,0.2,0.5,0.2,0.7,0c0.8-0.9,1.6-1.7,2.5-2.6c0.1-0.2,0.3-0.3,0.4-0.5
		c0.1-0.1,0.1-0.2,0.1-0.3c-0.1-0.1-0.2-0.2-0.3-0.2c-0.1,0-0.2,0-0.4,0c-0.3,0-0.7,0-1,0c-0.4,0.1-0.6,0.1-0.6-0.1
		c0-0.1,0-0.3,0-0.4c0-2.8,0-5.6,0-8.4c0-0.1,0-0.3,0-0.4c0-0.2-0.2-0.3-0.3-0.3c-0.2,0-0.5,0-0.7,0c-0.3,0-0.6,0-0.9,0
		c-0.3,0-0.4,0.1-0.4,0.4c0,0,0,0,0,0.1C217.7,570,217.7,571.5,217.7,573z"/>
	<path class="st9" d="M404.6,688.6L404.6,688.6c0-1.5,0-3.1,0-4.6c0-0.2,0-0.2,0.2-0.2c0.5,0,1,0.1,1.6,0.1c0.2,0,0.4-0.1,0.4-0.3
		c0-0.1-0.1-0.2-0.2-0.3c-0.9-1-1.9-2-2.8-2.9c-0.2-0.2-0.5-0.2-0.7,0c-0.8,0.9-1.6,1.7-2.5,2.6c-0.1,0.2-0.3,0.3-0.4,0.5
		c-0.1,0.1-0.1,0.2-0.1,0.3c0.1,0.1,0.2,0.2,0.3,0.2c0.1,0,0.2,0,0.4,0c0.3,0,0.7,0,1,0c0.4-0.1,0.6-0.1,0.6,0.1c0,0.1,0,0.3,0,0.4
		c0,2.8,0,5.6,0,8.4c0,0.1,0,0.3,0,0.4c0,0.2,0.2,0.3,0.3,0.3c0.2,0,0.5,0,0.7,0c0.3,0,0.6,0,0.9,0c0.3,0,0.4-0.1,0.4-0.4
		c0,0,0,0,0-0.1C404.6,691.6,404.6,690.1,404.6,688.6z"/>
</g>
</svg>
