<?xml version="1.0" encoding="utf-8"?>
<!-- Generator: Adobe Illustrator 21.0.2, SVG Export Plug-In . SVG Version: 6.00 Build 0)  -->
<svg version="1.1" id="SCENE_3" xmlns="http://www.w3.org/2000/svg" xmlns:xlink="http://www.w3.org/1999/xlink" x="0px"
	y="0px" viewBox="0 0 1024 1024" style="enable-background:new 0 0 1024 1024;" xml:space="preserve">
	<style type="text/css">
		.st0 {
			display: none;
		}

		.st1 {
			display: inline;
			fill: #231F20;
		}

		.st2 {
			display: inline;
		}

		.st3 {
			fill: #FFFFFF;
		}

		.st4 {
			fill: #231F20;
		}
	</style>
	<rect id="BACKGROUND_cobblestone" width="1024" height="1024" />
	<g id="ROAD">
		<path id="TRACK_asphalt1" class="st0" d="M874.8,471.2c66.2,0,118.9-54.2,115.4-120.3c-2.4-45.7-31.7-84.3-72.5-100.2
		c-2.1-0.8-3.5-2.8-3.5-5.1v0c0-2.2,1.4-4.3,3.5-5.1c42.5-16.6,72.6-58,72.6-106.4c0-57.5-42.5-106.2-97.9-114.2l0,0h-424l0,0h-1
		c-88.3,0-157.1,72.2-150.8,160.2c1.4,19.5,6.5,38.1,14.7,54.8c1.8,3.6-0.9,7.9-4.9,7.9H300H149.3c-73.9,0-126.3,60-114.2,132.9
		c8.4,50.6,50,90,101.8,94.9v0.5h163c3,0,5.5,2.5,5.5,5.5v173.9c0,3-2.5,5.5-5.5,5.5h-90.5c-100.6,0-181.6,84.3-175.6,184.7
		C39.4,931.9,115,1004,207.6,1004c96.1,0,174-77.9,174-174c0-1.8,0-3.6-0.1-5.4h0.1v-86.9c0-3,2.5-5.5,5.5-5.5h58.1
		c4.3,0,6.9,4.7,4.7,8.4c-35.2,58.4-36.8,139.3,20.9,216.1c0.3,0.4,0.7,0.8,1.1,1.1C615.4,1066.5,773,966.8,773,830
		c0-34.1-9.8-65.9-26.8-92.8c-1.4-2.2-1-5,0.8-6.8l20.6-20.6c2.6-2.6,6.9-2,8.7,1.2c31.3,56.8,109.3,84,182.7,29.6
		c0.4-0.3,0.8-0.7,1.1-1.1c71.5-94.2,6-197.7-83.8-197.7c-10.8,0-21.2,1.5-31,4.3c-3.5,1-7-1.6-7-5.3v-64.2c0-3,2.5-5.5,5.5-5.5
		H874.8z M615.3,166.8L615.3,166.8c-0.5-22.5-5.8-43.7-15.1-62.7c-1.8-3.7,0.8-7.9,4.9-7.9h156c3.7,0,6.3,3.5,5.3,7
		c-2.8,9.8-4.3,20.3-4.3,31c0,48.4,30.1,89.8,72.6,106.4c2.1,0.8,3.5,2.8,3.5,5.1v0c0,2.2-1.4,4.3-3.5,5.1
		c-42.5,16.6-72.6,58-72.6,106.4c0,10.8,1.5,21.2,4.3,31c1,3.5-1.6,7-5.3,7H620.8c-3,0-5.5-2.5-5.5-5.5V166.8z M876.2,395.1
		c-21,0-38.1-17.1-38.1-38.1c0-21,17.1-38.1,38.1-38.1s38.1,17.1,38.1,38.1C914.3,378,897.2,395.1,876.2,395.1z M914.3,134.2
		c0,21-17.1,38.1-38.1,38.1s-38.1-17.1-38.1-38.1s17.1-38.1,38.1-38.1S914.3,113.2,914.3,134.2z M392.4,169.5
		c0-40.6,32.8-73.4,73.4-73.4s73.4,32.8,73.4,73.4s-32.8,73.4-73.4,73.4S392.4,210.1,392.4,169.5z M109.7,357.1
		c0-21,17.1-38.1,38.1-38.1c21,0,38.1,17.1,38.1,38.1c0,21-17.1,38.1-38.1,38.1C126.8,395.1,109.7,378,109.7,357.1z M280.7,395.1
		c-12.1,0-21.4-10.7-19.8-22.7c0.7-5,1-10.2,1-15.4c0-5.2-0.3-10.3-1-15.4c-1.6-12,7.7-22.7,19.8-22.7H300h168.5l0,0
		c17.3-0.3,33.9-3.6,49.3-9.3c13-4.8,26.8,5,26.8,18.8v46.6c0,11-9,20-20,20H381.5h-76.1H280.7z M401.5,471.2h123.1c11,0,20,9,20,20
		v144.8c0,11-9,20-20,20H401.5c-11,0-20-9-20-20V491.2C381.5,480.2,390.5,471.2,401.5,471.2z M207.6,927.9
		c-54,0-97.9-43.8-97.9-97.9s43.8-97.9,97.9-97.9s97.9,43.8,97.9,97.9S261.6,927.9,207.6,927.9z M599,927.9
		c-54,0-97.9-43.8-97.9-97.9s43.8-97.9,97.9-97.9c54,0,97.9,43.8,97.9,97.9S653,927.9,599,927.9z M876.2,618
		c21,0,38.1,17.1,38.1,38.1s-17.1,38.1-38.1,38.1s-38.1-17.1-38.1-38.1S855.3,618,876.2,618z M615.3,637.3v-146c0-11,9-20,20-20
		h106.8c11,0,20,9,20,20v108.2c0,5.3-2.1,10.4-5.9,14.1L699.8,670c-6.4,6.4-16.3,7.7-24.2,3.2c-14.3-8.3-26.1-13.8-42.8-16
		C622.8,655.8,615.3,647.4,615.3,637.3z" />
		<circle id="START" cx="365.9" cy="573.7" r="3.8" />
		<g id="CHECK">
			<rect id="_x31_" x="284.5" y="369.1" class="st1" width="4.6" height="114.1" />
			<rect id="_x32_" x="415.8" y="13.7" class="st1" width="14.3" height="114.8" />
			<rect id="_x33_" x="597.1" y="902.5" class="st1" width="11.4" height="114.8" />
		</g>
	</g>


	<g id="layout">
		<path class="st3" d="M599,1000c-42.4,0-85.5-15.7-124.7-45.4c-0.1-0.1-0.2-0.2-0.3-0.3c-27-35.9-42-73.9-44.5-112.8
		c-2.3-35,6-69.2,23.8-98.8c1.8-2.9,1.8-6.6,0.1-9.6c-1.7-3-4.8-4.8-8.2-4.8H387c-5.2,0-9.5,4.3-9.5,9.5v82.9h-0.4l0.2,4.2
		c0.1,1.7,0.1,3.4,0.1,5.2c0,93.7-76.2,170-170,170c-89.7,0-164.2-70.1-169.7-159.5c-2.8-46.9,13.5-91.7,45.9-126.1
		c32.5-34.5,78.3-54.3,125.7-54.3h90.5c5.2,0,9.5-4.3,9.5-9.5V476.7c0-5.2-4.3-9.5-9.5-9.5h-159V467l-3.6-0.3
		c-49.7-4.7-90.1-42.3-98.2-91.6c-5.6-33.6,2.7-65.5,23.4-89.8c21-24.8,51.9-38.4,86.9-38.4h177.1c3.3,0,6.3-1.7,8.1-4.5
		c1.7-2.8,1.9-6.2,0.5-9.1c-8.2-16.7-13-34.6-14.3-53.3c-2.9-41,10.7-79.8,38.2-109.4c28-30,66.6-46.6,108.7-46.6h424.8l0.1,0
		c53.6,7.9,94.1,55.2,94.1,110.2c0,22.6-6.8,44.3-19.7,62.8c-12.6,18.1-30,31.8-50.4,39.8c-3.7,1.4-6,4.9-6,8.8c0,3.9,2.4,7.4,6,8.8
		c40.2,15.7,67.7,53.7,69.9,96.7c1.6,30.4-9,59.3-29.9,81.3c-21.3,22.4-50.2,34.8-81.6,34.8h-31.1c-5.2,0-9.5,4.3-9.5,9.5v64.2
		c0,2.6,1,5,2.8,6.8c1.8,1.7,4.1,2.7,6.6,2.7c0,0,0,0,0,0c0.9,0,1.8-0.1,2.6-0.4c9.6-2.7,19.7-4.1,30-4.1c42.2,0,80,23.5,98.7,61.2
		c20.2,40.8,13.6,88.2-18.2,130c-0.1,0.2-0.2,0.3-0.3,0.3c-25.3,18.8-53.1,28.7-80.2,28.7c-40.1,0-77.1-21.9-96.5-57
		c-1.7-3-4.9-4.9-8.3-4.9c-2.5,0-4.9,1-6.7,2.8l-20.6,20.6c-3.2,3.2-3.7,8-1.3,11.7c17.1,27.2,26.2,58.5,26.2,90.7
		c0,45.4-17.7,88.1-49.8,120.2C687.1,982.3,644.4,1000,599,1000z M387,726.2h58.1c4.2,0,7.9,2.2,10,5.8c2,3.6,2,8.1-0.2,11.6
		c-17.6,29.3-25.8,63.1-23.5,97.7c2.5,38.6,17.4,76.1,44.1,111.8C514.3,982.4,557,998,599,998c44.9,0,87.1-17.5,118.8-49.2
		C749.5,917.1,767,874.9,767,830c0-31.8-8.9-62.8-25.9-89.6c-2.9-4.6-2.2-10.4,1.6-14.2l20.6-20.6c2.2-2.2,5-3.4,8.1-3.4
		c4.2,0,8.1,2.3,10.1,6c19.1,34.5,55.4,56,94.8,56c26.7,0,54-9.8,79-28.3c31.3-41.2,37.8-87.8,17.9-127.9
		c-18.4-37.1-55.6-60.1-97-60.1c-10,0-19.9,1.4-29.4,4.1c-1,0.3-2.1,0.4-3.2,0.4c0,0,0,0,0,0c-3,0-5.9-1.2-8-3.3
		c-2.2-2.2-3.5-5.1-3.5-8.2v-64.2c0-6.3,5.2-11.5,11.5-11.5h31.1c30.8,0,59.2-12.1,80.1-34.1c20.5-21.6,30.9-49.9,29.3-79.8
		c-2.2-42.3-29.2-79.6-68.7-95c-4.4-1.7-7.3-5.9-7.3-10.7c0-4.8,2.9-9,7.3-10.7c20.1-7.8,37.2-21.3,49.5-39.1
		c12.6-18.1,19.3-39.5,19.3-61.7c0-53.9-39.7-100.4-92.3-108.2H467.5c-41.5,0-79.6,16.3-107.2,45.9c-27.1,29.1-40.5,67.4-37.7,107.9
		c1.3,18.4,6.1,36.1,14.1,52.6c1.7,3.6,1.5,7.7-0.6,11.1c-2.1,3.4-5.8,5.4-9.8,5.4H149.3c-34.4,0-64.8,13.4-85.4,37.7
		c-20.2,23.8-28.4,55.2-22.9,88.2c8,48.4,47.6,85.3,96.4,89.9l5.4,0.5h157c6.3,0,11.5,5.2,11.5,11.5v173.9c0,6.3-5.2,11.5-11.5,11.5
		h-90.5c-46.8,0-92.1,19.6-124.2,53.7c-32,34-48.1,78.3-45.3,124.6c5.4,88.4,79,157.6,167.7,157.6c92.6,0,168-75.3,168-168
		c0-1.8,0-3.4-0.1-5.1l-0.4-6.4h0.5v-80.9C375.5,731.3,380.7,726.2,387,726.2z" />
		<path class="st3" d="M599,933.9c-57.3,0-103.9-46.6-103.9-103.9S541.7,726.2,599,726.2S702.8,772.8,702.8,830
		S656.3,933.9,599,933.9z M599,728.2c-56.2,0-101.9,45.7-101.9,101.9S542.8,931.9,599,931.9S700.8,886.2,700.8,830
		S655.1,728.2,599,728.2z" />
		<path class="st3" d="M207.6,933.9c-57.3,0-103.9-46.6-103.9-103.9s46.6-103.9,103.9-103.9S311.4,772.8,311.4,830
		S264.8,933.9,207.6,933.9z M207.6,728.2c-56.2,0-101.9,45.7-101.9,101.9s45.7,101.9,101.9,101.9c56.2,0,101.9-45.7,101.9-101.9
		S263.7,728.2,207.6,728.2z" />
		<path class="st3" d="M876.2,700.1c-24.3,0-44.1-19.8-44.1-44.1S852,612,876.2,612s44.1,19.8,44.1,44.1S900.5,700.1,876.2,700.1z
		 M876.2,614c-23.2,0-42.1,18.9-42.1,42.1s18.9,42.1,42.1,42.1s42.1-18.9,42.1-42.1S899.4,614,876.2,614z" />
		<path class="st3" d="M685.7,681.8c-4.6,0-9.1-1.2-13-3.5c-14-8.1-25.2-13.2-40.6-15.2c-13-1.7-22.8-12.8-22.8-25.8v-146
		c0-14.3,11.7-26,26-26h106.8c14.3,0,26,11.7,26,26v108.2c0,6.9-2.7,13.5-7.6,18.4L704,674.2C699.1,679.1,692.6,681.8,685.7,681.8z
		 M635.3,467.2c-13.2,0-24,10.8-24,24v146c0,12,9,22.2,21,23.8c15.7,2.1,27.1,7.2,41.3,15.5c3.7,2.1,7.8,3.2,12,3.2
		c6.4,0,12.4-2.5,17-7l56.4-56.4c4.5-4.5,7-10.6,7-17V491.2c0-13.2-10.8-24-24-24H635.3z" />
		<path class="st3" d="M524.6,662.1H401.5c-14.3,0-26-11.7-26-26V491.2c0-14.3,11.7-26,26-26h123.1c14.3,0,26,11.7,26,26v144.8
		C550.6,650.4,539,662.1,524.6,662.1z M401.5,467.2c-13.2,0-24,10.8-24,24v144.8c0,13.2,10.8,24,24,24h123.1c13.2,0,24-10.8,24-24
		V491.2c0-13.2-10.8-24-24-24H401.5z" />
		<path class="st3" d="M876.2,401.1c-24.3,0-44.1-19.8-44.1-44.1c0-24.3,19.8-44.1,44.1-44.1s44.1,19.8,44.1,44.1
		C920.3,381.4,900.5,401.1,876.2,401.1z M876.2,315c-23.2,0-42.1,18.9-42.1,42.1s18.9,42.1,42.1,42.1s42.1-18.9,42.1-42.1
		S899.4,315,876.2,315z" />
		<path class="st3" d="M761.1,401.1H620.8c-6.3,0-11.5-5.2-11.5-11.5V166.8c-0.5-21.2-5.3-41.4-14.5-60.2c-1.8-3.6-1.5-7.8,0.6-11.2
		c2.1-3.4,5.7-5.4,9.7-5.4h156c3.6,0,7,1.7,9.1,4.6c2.2,2.9,2.9,6.6,1.9,10.1c-2.7,9.5-4,19.4-4,29.4c0,22.2,6.7,43.5,19.3,61.7
		c12.3,17.7,29.5,31.3,49.5,39.1c4.4,1.7,7.3,5.9,7.3,10.7s-2.9,9-7.3,10.7c-20.1,7.8-37.2,21.3-49.5,39.1
		c-12.6,18.1-19.3,39.5-19.3,61.7c0,10,1.4,19.9,4.1,29.4c1,3.5,0.3,7.2-1.9,10.1C768.1,399.5,764.7,401.1,761.1,401.1z M605.1,92.1
		c-3.3,0-6.3,1.7-8,4.4c-1.8,2.8-1.9,6.3-0.5,9.2c9.3,19,14.2,39.5,14.7,61v222.8c0,5.2,4.3,9.5,9.5,9.5h140.3c3,0,5.7-1.4,7.6-3.8
		c1.8-2.4,2.4-5.4,1.6-8.3c-2.7-9.6-4.1-19.7-4.1-30c0-22.6,6.8-44.3,19.7-62.8c12.6-18.1,30-31.8,50.4-39.8c3.7-1.4,6-4.9,6-8.8
		s-2.4-7.4-6-8.8c-20.4-8-37.9-21.7-50.4-39.8c-12.9-18.5-19.7-40.2-19.7-62.8c0-10.2,1.4-20.3,4.1-30c0.8-2.9,0.3-5.9-1.6-8.3
		c-1.8-2.4-4.6-3.8-7.6-3.8H605.1z" />
		<path class="st3" d="M524.6,401.1H280.7c-7.5,0-14.6-3.2-19.6-8.9c-4.9-5.6-7.2-13.2-6.2-20.6c0.6-4.8,1-9.7,1-14.6
		c0-4.9-0.3-9.8-1-14.6c-1-7.4,1.3-15,6.2-20.6c4.9-5.6,12.1-8.9,19.6-8.9l187.7,0c16.3-0.3,32.3-3.3,47.3-8.9
		c2.9-1.1,5.9-1.6,8.9-1.6c14.3,0,25.9,11.7,25.9,26.1v46.6C550.6,389.5,539,401.1,524.6,401.1z M280.7,315c-6.9,0-13.5,3-18.1,8.2
		c-4.6,5.2-6.6,12.1-5.7,19c0.7,4.9,1,9.9,1,14.8s-0.3,10-1,14.8c-0.9,6.9,1.2,13.8,5.7,19c4.6,5.2,11.1,8.2,18.1,8.2h243.9
		c13.2,0,24-10.8,24-24v-46.6c0-13.3-10.7-24.1-23.9-24.1c-2.8,0-5.6,0.5-8.2,1.5c-15.3,5.7-31.4,8.7-48,9L280.7,315z" />
		<path class="st3" d="M147.8,401.1c-24.3,0-44.1-19.8-44.1-44.1c0-24.3,19.8-44.1,44.1-44.1s44.1,19.8,44.1,44.1
		C191.8,381.4,172,401.1,147.8,401.1z M147.8,315c-23.2,0-42.1,18.9-42.1,42.1s18.9,42.1,42.1,42.1s42.1-18.9,42.1-42.1
		S170.9,315,147.8,315z" />
		<path class="st3" d="M465.8,248.9c-43.8,0-79.4-35.6-79.4-79.4c0-43.8,35.6-79.4,79.4-79.4c43.8,0,79.4,35.6,79.4,79.4
		C545.2,213.3,509.6,248.9,465.8,248.9z M465.8,92.1c-42.7,0-77.4,34.7-77.4,77.4s34.7,77.4,77.4,77.4s77.4-34.7,77.4-77.4
		S508.5,92.1,465.8,92.1z" />
		<path class="st3" d="M876.2,178.2c-24.3,0-44.1-19.8-44.1-44.1c0-24.3,19.8-44.1,44.1-44.1s44.1,19.8,44.1,44.1
		C920.3,158.5,900.5,178.2,876.2,178.2z M876.2,92.1c-23.2,0-42.1,18.9-42.1,42.1s18.9,42.1,42.1,42.1s42.1-18.9,42.1-42.1
		S899.4,92.1,876.2,92.1z" />
	</g>

	<g id="OBSTACLES">
		<path id="_x31__x5F_stone3" class="st3" d="M893,10.9l0.6,0.1c60.2,8.7,105.6,61.6,105.6,123.1c0,25.3-7.6,49.6-22,70.3
		c-9.1,13.1-20.5,24.2-33.7,32.9c-2.8,1.8-4.5,5-4.5,8.4c0,3.4,1.7,6.5,4.5,8.4c32.8,21.4,53.5,57.5,55.6,96.5
		c1.8,34-10.1,66.3-33.4,91c-23.7,25-56.1,38.8-91,38.8h-17.5c-5.5,0-10,4.5-10,10v34c0,2.9,1.3,5.7,3.5,7.6
		c1.8,1.6,4.2,2.4,6.5,2.4c0.5,0,0.9,0,1.4-0.1c5.8-0.8,11.7-1.3,17.6-1.3c23.4,0,46.1,6.6,65.8,19c19.1,12.1,34.6,29.2,44.6,49.4
		c10.5,21.1,14.6,44.8,12,68.5c-2.8,26.1-13.4,51.3-31.5,75.1c-0.8,1.1-1.8,2.1-2.8,2.9c-27.7,20.5-58.1,31.3-88.1,31.3
		c-19.2,0-38.5-4.6-55.7-13.3c-17.1-8.6-32.1-21.3-43.4-36.7c-1.7-2.3-4.4-3.8-7.3-4c-0.2,0-0.5,0-0.7,0c-2.6,0-5.2,1-7.1,2.9
		l-1.4,1.4c-3.2,3.2-3.8,8-1.7,11.9c15,27,22.9,57.7,22.9,88.7c0,48.9-19,94.9-53.6,129.4C693.9,994,647.9,1013,599,1013
		c-45.2,0-91.1-16.6-132.6-48c-1-0.8-2-1.8-2.8-2.9c-28.1-37.4-44.4-78.9-47.1-119.8c-1.9-30,3.4-60.1,15.5-87
		c1.4-3.1,1.1-6.7-0.7-9.5c-1.8-2.8-5-4.6-8.4-4.6h-22.3c-5.5,0-10,4.5-10,10V830c0,100.9-82.1,183-183,183
		c-47,0-91.6-17.7-125.7-49.9c-34-32-54.2-75.3-57.1-121.8c-3-50.6,14.6-98.8,49.5-135.9c17.1-18.2,37.4-32.5,60.2-42.6
		c23.7-10.4,48.8-15.7,74.9-15.7h77c5.5,0,10-4.5,10-10V490.1c0-5.5-4.5-10-10-10l-150-0.5l-0.4,0c-55.5-5.3-100.7-47.4-109.8-102.4
		c-6.2-37.4,3.1-73.1,26.2-100.3c23.2-27.4,58.5-43,96.9-43h156.9c3.2,0,6.3-1.6,8.1-4.2c1.9-2.6,2.4-6,1.3-9
		c-4.3-12.7-7-26.1-8-39.8c-3.2-44.6,11.6-86.9,41.6-119.1c14.8-15.9,32.4-28.4,52.4-37.1c20.6-9,42.8-13.6,65.8-13.6H893
		 M893.8,0.9H467.4c-24.4,0-47.9,4.9-69.8,14.5c-21.2,9.3-40,22.6-55.7,39.5c-31.9,34.3-47.6,79.2-44.2,126.6
		c1,14.6,3.9,28.8,8.5,42.3H149.3c-41.3,0-79.4,17-104.5,46.6c-25,29.5-35.2,68.1-28.5,108.4c9.9,59.5,58.7,105,118.8,110.7l0.9,0.1
		l150.4,0.5V637h-77c-27.4,0-54,5.6-78.9,16.6c-24,10.6-45.4,25.7-63.5,44.9c-36.8,39.1-55.4,90-52.2,143.4
		c3,49.1,24.4,94.7,60.2,128.5c36,33.9,83,52.6,132.6,52.6c106.4,0,193-86.6,193-193v-78.8h22.3c-12.8,28.5-18.5,59.9-16.4,91.8
		c2.8,42.9,19.7,86.1,49,125.1c1.4,1.8,3.1,3.5,4.8,4.8c43.2,32.7,91.1,50,138.6,50c51.6,0,100-20.1,136.5-56.5
		C771.9,930.1,792,881.6,792,830c0-32.9-8.3-65-24.2-93.6l1.4-1.4c24.9,33.7,64.5,54.1,107.1,54.1c32.1,0,64.6-11.5,94.1-33.3
		c1.8-1.4,3.5-3,4.9-4.9c19.1-25.2,30.4-52.2,33.4-80.1c2.8-25.7-1.7-51.3-13-74.1c-10.9-21.9-27.5-40.4-48.2-53.4
		c-21.3-13.5-45.9-20.6-71.2-20.6c-6.4,0-12.7,0.5-19,1.4v-34h17.5c37.7,0,72.6-14.9,98.2-41.9c25.3-26.6,38.1-61.6,36.1-98.4
		c-2.2-42.8-25.1-81.4-60.1-104.3c14.2-9.3,26.6-21.3,36.5-35.5c15.5-22.4,23.8-48.6,23.8-76c0-66.4-49.1-123.6-114.2-133L893.8,0.9
		L893.8,0.9z" />
		<path id="_x31__x5F_stone3" class="st3" d="M876.2,163.3c16,0,29.1-13.1,29.1-29.1c0-16-13.1-29.1-29.1-29.1
		c-16,0-29.1,13.1-29.1,29.1C847.1,150.2,860.2,163.3,876.2,163.3 M876.2,153.3c-10.5,0-19.1-8.6-19.1-19.1s8.6-19.1,19.1-19.1
		c10.5,0,19.1,8.6,19.1,19.1S886.7,153.3,876.2,153.3L876.2,153.3z" />
		<path id="_x31__x5F_stone3" class="st3" d="M465.8,233.9c35.5,0,64.4-28.9,64.4-64.4c0-35.5-28.9-64.4-64.4-64.4
		c-35.5,0-64.4,28.9-64.4,64.4C401.4,205,430.3,233.9,465.8,233.9 M465.8,223.9c-30,0-54.4-24.4-54.4-54.4s24.4-54.4,54.4-54.4
		c30,0,54.4,24.4,54.4,54.4S495.8,223.9,465.8,223.9L465.8,223.9z" />
		<path id="_x31__x5F_stone3" class="st3" d="M624.3,166.5l0,0.3v209.3c0,5.5,4.5,10,10,10h110.2c2.9,0,5.7-1.3,7.6-3.5
		c1.9-2.2,2.8-5.1,2.3-8c-0.8-5.8-1.3-11.7-1.3-17.6c0-25.3,7.6-49.6,22-70.3c9.1-13.1,20.5-24.2,33.7-32.9c2.8-1.8,4.5-5,4.5-8.4
		s-1.7-6.5-4.5-8.4c-13.3-8.7-24.6-19.7-33.7-32.9c-14.4-20.7-22-45-22-70.3c0-5.9,0.4-11.8,1.3-17.6c0.4-2.9-0.4-5.8-2.3-8
		c-1.9-2.2-4.7-3.5-7.6-3.5H625.3c-3.2,0-6.3,1.6-8.1,4.2c-1.9,2.6-2.4,6-1.3,9C621.1,133.7,623.9,149.9,624.3,166.5 M744.5,115.2
		c-0.9,6.3-1.4,12.6-1.4,19c0,27.3,8.2,53.6,23.8,76c9.9,14.2,22.2,26.2,36.5,35.5c-14.2,9.3-26.6,21.3-36.5,35.5
		c-15.5,22.4-23.8,48.6-23.8,76c0,6.4,0.5,12.7,1.4,19H634.3V166.8l0-0.4c-0.4-17.7-3.4-34.9-9-51.2H744.5L744.5,115.2z" />
		<path id="_x31__x5F_stone3" class="st3" d="M468.7,327.9l-188,0c-3.2,0-6.1,1.3-8.2,3.7c-2.1,2.4-3.1,5.6-2.6,8.8
		c0.7,5.3,1.1,10.7,1.1,16.6c0,5.9-0.4,11.4-1.1,16.6c0,0.1,0,0.1,0,0.2c-0.4,3.1,0.6,6.2,2.7,8.6c0.9,1,1.9,1.8,3,2.4
		c1.5,0.8,3.1,1.2,4.8,1.2h244.3c6.1,0,11-4.9,11-11v-46.6c0-6.6-5.7-11-11-11c-1.3,0-2.5,0.2-3.7,0.7
		C504.1,324.3,486.6,327.6,468.7,327.9 M280.3,376c-0.1,0-0.2-0.1-0.3-0.2c-0.3-0.3-0.3-0.7-0.3-0.8c0.8-5.6,1.2-11.6,1.2-17.9
		c0-6.3-0.4-12.2-1.2-17.9c0-0.1-0.1-0.5,0.3-0.9c0.3-0.3,0.6-0.3,0.7-0.3l188.1,0c19-0.3,37.7-3.9,55.6-10.5c0.1,0,0.2-0.1,0.3-0.1
		c0.1,0,1,0.2,1,1V375c0,0.5-0.5,1-1,1H280.3L280.3,376z" />
		<path id="_x31__x5F_stone3" class="st3" d="M876.2,386.1c16,0,29.1-13.1,29.1-29.1s-13.1-29.1-29.1-29.1
		c-16,0-29.1,13.1-29.1,29.1S860.2,386.1,876.2,386.1 M876.2,376.1c-10.5,0-19.1-8.6-19.1-19.1s8.6-19.1,19.1-19.1
		c10.5,0,19.1,8.6,19.1,19.1S886.7,376.1,876.2,376.1L876.2,376.1z" />
		<path id="_x31__x5F_stone3" class="st3" d="M147.9,386.2c16,0,29-13.1,29-29.1c0-16-13.1-29.1-29.1-29.1
		c-16,0-29.1,13.1-29.1,29.1C118.7,373.1,131.8,386.1,147.9,386.2C147.9,386.2,147.9,386.2,147.9,386.2 M147.9,376.2
		c-10.6,0-19.2-8.6-19.2-19.1c0-10.5,8.6-19.1,19.1-19.1c10.5,0,19.1,8.6,19.1,19.1C166.9,367.6,158.3,376.2,147.9,376.2
		L147.9,376.2z" />
		<path id="_x31__x5F_stone3" class="st3" d="M401.5,647h123.1c6.1,0,11-4.9,11-11V491.2c0-6.1-4.9-11-11-11H401.5
		c-6.1,0-11,4.9-11,11V636C390.5,642.1,395.4,647,401.5,647 M401.5,637c-0.5,0-1-0.5-1-1V491.2c0-0.5,0.5-1,1-1h123.1
		c0.5,0,1,0.5,1,1V636c0,0.5-0.5,1-1,1H401.5L401.5,637z" />
		<path id="_x31__x5F_stone3" class="st3" d="M685.6,666.9c3,0,5.7-1.1,7.8-3.2l56.6-56.6h0c2-2,3.1-4.7,3.1-7.6V491.3
		c0-6.1-4.9-11-11-11H635.3c-6.1,0-11,4.9-11,11v146c0,5.5,4,10.1,9.5,11c0.1,0,0.2,0,0.3,0c17.8,2.4,30.8,8.3,45.9,17.1
		c0.1,0,0.1,0.1,0.2,0.1C681.9,666.4,683.8,666.9,685.6,666.9 M685.6,656.9c-0.2,0-0.4-0.1-0.6-0.2c-16.2-9.4-30.2-15.7-49.6-18.3
		c-0.5-0.1-1.1-0.5-1.1-1.1v-146c0-0.5,0.5-1,1-1h106.8c0.5,0,1,0.5,1,1v108.2c0,0.2-0.1,0.4-0.2,0.5l-56.6,56.6
		C686.1,656.8,685.8,656.9,685.6,656.9L685.6,656.9z" />
		<path id="_x31__x5F_stone3" class="st3" d="M876.2,685.2c16,0,29.1-13.1,29.1-29.1c0-16-13.1-29.1-29.1-29.1
		c-16,0-29.1,13.1-29.1,29.1C847.1,672.1,860.2,685.2,876.2,685.2 M876.2,675.2c-10.5,0-19.1-8.6-19.1-19.1
		c0-10.5,8.6-19.1,19.1-19.1c10.5,0,19.1,8.6,19.1,19.1C895.3,666.6,886.7,675.2,876.2,675.2L876.2,675.2z" />
		<path id="_x31__x5F_stone3" class="st3" d="M599,918.9c49,0,88.9-39.9,88.9-88.9c0-49-39.9-88.9-88.9-88.9
		c-49,0-88.9,39.9-88.9,88.9C510.1,879,550,918.9,599,918.9 M599,908.9c-43.5,0-78.9-35.4-78.9-78.9c0-43.5,35.4-78.9,78.9-78.9
		c43.5,0,78.9,35.4,78.9,78.9C677.9,873.5,642.5,908.9,599,908.9L599,908.9z" />
		<path id="_x31__x5F_stone3" class="st3" d="M207.6,918.9c49,0,88.9-39.9,88.9-88.9c0-49-39.9-88.9-88.9-88.9
		c-49,0-88.9,39.9-88.9,88.9C118.7,879,158.6,918.9,207.6,918.9 M207.6,908.9c-43.5,0-78.9-35.4-78.9-78.9
		c0-43.5,35.4-78.9,78.9-78.9s78.9,35.4,78.9,78.9C286.5,873.5,251.1,908.9,207.6,908.9L207.6,908.9z" />
	</g>


</svg>