<?xml version="1.0" encoding="utf-8"?>
<!-- Generator: Adobe Illustrator 21.0.2, SVG Export Plug-In . SVG Version: 6.00 Build 0)  -->
<svg version="1.1" id="SCENE_4" xmlns="http://www.w3.org/2000/svg" xmlns:xlink="http://www.w3.org/1999/xlink" x="0px" y="0px"
	 viewBox="0 0 1024 1024" style="enable-background:new 0 0 1024 1024;" xml:space="preserve">
<style type="text/css">
	.st0{fill:#FFFFFF;}
	.st1{display:none;}
	.st2{fill:#64566D;}
</style>
	<rect id="BACKGROUND_grass" y="0" width="1024" height="1024"/>
	<g id="ROAD">
		<path id="TRACK_cobblestone" class="st2" d="M667.9,233.7c0,2,1,197.9,1.1,244.9c0,9.7-1.8,19.4-3.1,29
		c-2.1,15.5-5.9,30.6-11.4,45.3c-7.7,20.2-18.4,38.5-33.9,53.7C601.6,625,579,636,553,639.8c-4.1,0.6-8.1,1.1-12.6,1.6
		c0,1.3,0,2.6,0,3.9c0.2,25.9,2.5,213.6,2.5,230c0,15.5-2.1,30.8-7.5,45.6c-9.6,26.7-28.1,45-54,56.1c-12.6,5.3-25.8,8.6-39.3,10.7
		c-22.6,3.5-45.4,4.7-68.1,4.7c-40.5-0.1-81.2-0.3-121.7-0.9c-18.6-0.2-37.1-1.3-55.6-3.3c-17.3-1.9-34.7-4.6-51.1-10.5
		c-14.7-5.2-27.9-12.6-38.9-23.9c-12.1-12.3-19.5-27.2-23.9-43.8c-2.6-9.8-4-19.9-4.9-30.1c-1.5-17.3-1.5-34.7-1.1-52.1
		c0.4-16.5,3.1-32.5,9.3-47.9c10.7-26.7,29.8-45.3,56.4-56.3c14.2-5.9,29.1-9.1,44.3-10.9c28.5-3.4,56.9-2.5,85.5-2.4
		c17.8,0.1,35.6-0.1,53.4-0.2c5.5,0,10.8-1.1,15.9-2.8c8.6-2.7,14.9-7.9,19.3-15.8c3.4-6.3,5.8-12.9,7.1-19.9
		c1.4-7.7,2.2-15.5,3.3-23.3c0.1-0.7,0-1.5,0-2.8c-1.3,0-2.6-0.1-3.9-0.1c-27.7,0.2-55.5,0.4-83.2,0.5c-5.9,0-11.8,0.1-17.5,0.1
		c-10.8-0.1-21.6,0.6-32.4,1.1c-20.9,1-41-2.4-60-11.3c-27.3-12.9-44.7-34.3-53.4-63c-3.5-11.7-5.5-23.8-5.5-35.9
		c0-12.4,0.1-24.8,0.9-37.1c1.2-17.9,4.5-35.3,11.4-51.9c12.2-28.9,33.5-47.7,63.2-57.2c12-3.9,24.3-5.8,36.8-6.7
		c18.9-1.5,37.8-0.7,56.7,0.5c9.9,0.7,19.9,1.3,29.7,2.2c17.1,1.6,34,4.4,50.3,9.8c18.7,6.3,35.1,16.3,47.7,31.7
		c10.8,13.2,17.3,28.4,21.2,44.9c3.4,15,7.1,101.2,7.1,101.2l30.5-0.7c0,0-0.4-259-0.3-289.3c0.1-21.1,3.9-41.5,11.9-61.1
		c5.9-14.2,14-26.9,25.6-37.1c12.2-10.9,26.4-17.5,42.6-19.9c5.1-0.7,10.4-0.9,15.5-1.3c9.4-0.7,18.7-1.5,28.1-2.2
		c0.7-0.1,1.5-0.3,2.5-0.5c0-1.7,0-3.3,0-5c0.4-18.2,2.7-36.2,9-53.4c13.6-37.3,40-60.1,78.5-68.8c21.5-4.8,43.2-5.2,64.7,0.2
		c34.8,8.8,58.1,30.6,70.6,64.1c4.6,12.4,7.1,25.2,8.1,38.5c1,12,0.7,23.9-0.4,35.7c-0.1,1,0,2,0.2,3c2.2,12.5,8.3,22.9,17.7,31.6
		c6.3,5.9,13.4,10.9,20.8,15.4c12,7.4,24.1,14.4,35.9,21.9c12,7.5,22.9,16.3,32.1,27.1c14.1,16.7,21.9,35.8,23.1,57.7
		c1,18,0,35.8-2,53.6c-2,18.2-5.7,36.1-11.3,53.4c-9,27.7-22.6,52.7-42.4,74.4c-15.6,16.9-33.9,30.4-54.6,40.5
		c-12.9,6.4-26.4,11.1-40.3,15c-12.3,3.4-23.3,9.5-33.7,16.8c-1.4,1-1.9,1.9-1.5,3.6c1.1,4.9,2.4,9.6,4.6,14.1
		c3.4,6.8,8.6,11.8,15.5,14.8c6.5,2.9,13.5,4.1,20.6,4.5c12.2,0.7,24.2,2.5,35.8,6.4c29.8,10.1,50.6,30,62.7,58.8
		c5.8,13.9,9,28.5,10.7,43.3c1.4,12,1.8,24.1,2,36.1c0.1,8.2,0.6,16.6,1.1,24.8c1.8,38.1-12.6,68.3-43.9,90.2
		c-15.2,10.7-32.1,17.8-49.7,23c-17.5,5.2-35.4,8.6-53.5,10.9c-23.4,3-46.9,4.6-70.5,3.7c-20.4-0.7-40.5-3.4-59.7-11.1
		c-20.4-8.1-36.9-21.1-47.9-40.5c-6.6-11.8-10.5-24.6-12.3-37.9c-2.2-15.8-2.4-31.8-1.3-47.7c1-13.9,4.2-27.5,8.1-40.9
		c9.4-32.1,22.6-62.6,38.5-91.8c12.1-22,25.6-43.2,41.1-63c8-10.2,16.5-20,25.7-29.1c1.5-1.5,2.2-3,2.1-5.2
		c-1-27.2-4.5-281.4-6.7-290.5c-0.9-3.4-2-6.8-3.4-9.9C685.8,241.3,678,236.5,667.9,233.7z M768.6,506.4c4.2-1.5,7.8-2.9,11.7-4.1
		c7.6-2.5,15.3-4.5,22.7-7.3c20.4-7.5,38-19.3,51.6-36.5c11.7-14.5,19.2-31.1,24.3-49c6.7-23.8,8.7-48,8.5-72.5
		c-0.1-9.1-3.4-16.8-10.4-22.8c-3.3-2.8-6.5-5.7-10.2-8c-6.8-4.5-13.8-8.8-20.9-12.9c-12.6-7.6-25.2-15.1-36.9-24.1
		c-26.7-20.6-44.4-47.1-50.7-80.6c-1.1-6-2.4-12-1.5-18.1c1.4-10.2,1.7-20.2,0.5-30.4c-0.7-7-2.4-13.7-5.2-20.1
		c-4.2-9.4-11.2-15.2-21.3-17.2c-12.4-2.5-24.6-1.8-36.7,1.6c-10.7,3-18.1,9.9-22.4,20.1c-0.7,1.8-1.5,3.7-2,5.6
		c-3,10.2-4,20.5-4,31.1c0,0.3,0.2,0.6,0.4,1c0.4,0.1,0.9,0.2,1.3,0.3c9.6,1.4,19.2,3.5,28.2,6.8c24.5,8.9,43.3,24.5,55.5,47.7
		c9.1,17.4,13.3,36.3,14.1,55.7c0.4,8.9,0.1,17.7,0.2,26.5c0.1,27.6,0.2,55.3,0.3,82.9c0,9.4,0.2,18.8,0.4,28.2
		c0.5,24.2,1.1,48.5,1.6,72.6C768,490.8,768.3,498.4,768.6,506.4z M717.6,641.6c-1.1,1.4-1.7,2.4-2.5,3.3
		c-8.7,12.5-16.6,25.6-23.9,39c-12.8,24-23.6,48.7-31.2,74.8c-2.6,8.9-5.2,17.9-5.7,27.2c-0.4,8.9-0.3,17.9,0.1,26.9
		c0.2,4.8,1.3,9.6,2.5,14.3c1.6,6.6,5.9,11.3,12.1,14c4.3,1.8,8.7,3.3,13.2,4.4c17.2,4,34.7,3.7,52.1,3c15.9-0.7,31.8-2.5,47.4-5
		c13.7-2.2,27.1-5.5,40-10.6c8.5-3.3,16.6-7.3,23.3-13.6c4.6-4.3,7.7-9.4,8.3-15.7c0.3-3.5,0.4-7.1,0.3-10.6
		c-0.2-8.3-0.6-16.8-1.1-25.1c-0.4-9.8-0.7-19.7-1.5-29.4c-0.7-9-2.6-17.7-6.2-26c-3.9-9-10.1-15.5-19.6-18.6
		c-5.1-1.7-10.5-2.7-15.9-2.9c-8.6-0.4-16.9-1.4-25.2-3.3c-20.1-4.5-37.8-13.5-52.5-28C726.6,654.2,722,648.3,717.6,641.6z
		 M440.7,647.4c-0.9,14.7-2.6,29.3-6.1,43.6c-4.2,17-10.8,33-21.4,47.1c-15.3,20.2-35.7,32.5-60.2,38.4c-12.9,3.1-26,3.9-39.2,3.9
		c-27.5,0-55.1-0.3-82.6-0.4c-12.1,0-24.1,0.5-36.1,1.9c-9.4,1.2-18.7,2.9-27.6,6.7c-9.2,4-15.2,10.7-18.2,20.3
		c-1.9,6.5-3,13.2-3.2,19.9c-0.4,16.6-0.6,33.2,1.2,49.7c0.7,6.4,1.7,12.7,4,18.7c1.9,5.2,5.2,9.2,10.3,11.7c3,1.4,6.1,2.7,9.2,3.7
		c9.6,3.1,19.6,4.6,29.5,5.8c17.9,2,35.9,2.9,53.9,3.3c17.1,0.4,34.2,0.6,51.5,0.7c31.6,0.2,63,1,94.6-0.6
		c12.2-0.6,24.3-1.7,36.3-4.1c7.2-1.4,14.2-3.2,20.8-6.5c6.4-3.2,10.5-8.2,12.7-15c2.1-6.8,2.9-13.9,3-21c0.1-6-0.2-12-0.3-17.9
		c-0.4-28.5-1-56.8-1.2-85.3c-0.4-41.4-0.5-82.7-0.9-124.1c0-1.3,0-2.6,0-4.2c-10.1,0.2-19.7,0.5-29.6,0.7
		C441,645.7,440.8,646.6,440.7,647.4z M369.7,572.3c-0.4-8.3-1-16.8-1.2-25.1c-0.4-12.5-0.5-25-1-37.4c-0.2-7.4-1.4-14.7-3-21.9
		c-2.9-12.9-10.6-21.2-23.3-25c-10.3-3.1-20.9-5-31.6-6.1c-9.4-1-18.9-1.6-28.5-2.4c-15.6-1.2-31.3-1.8-47.1-0.9
		c-7.1,0.4-14,1.5-21,3.2c-12,3-19.9,10.3-23.3,22.1c-1.7,6.1-3.1,12.4-4.1,18.7c-1.9,13.2-1.8,26.4-1.5,39.7
		c0.2,6.3,1.3,12.5,3.4,18.5c3.2,9,9.3,15.1,18.2,18.4c8.3,3.1,17,4.1,25.8,3.5c7.5-0.4,99-1.5,132.7-1.7c1.6,0,3.3,0,5.1,0
		C369.7,574.5,369.8,573.4,369.7,572.3z M595.7,232.9c-11.6,0.9-23.1,1.7-34.8,2.7c-3.7,0.3-6.7,2-9.1,4.9
		c-2.8,3.3-4.8,7.2-6.3,11.2c-4,10.6-6,21.5-6.1,32.7c-0.1,10.9,0,21.9,0,32.8c0,54.1,0.1,108.2,0.2,162.3c0,29.4,0.2,58.8,0.3,88.3
		c0,1.2,0.1,2.2,0.2,3.5c5.9-0.6,11-1.9,16-4.1c12.2-5.1,20.5-14.3,26.7-25.7c6.2-11.1,10.1-23.1,12.3-35.5
		c1.6-9.1,2.8-18.3,3.7-27.6c0.5-5.2,0.2-10.6,0.2-15.9c-0.3-69.6-0.5-139.4-0.9-209c0-6.7-0.3-13.5-0.4-20.5
		C596.9,232.9,596.3,232.8,595.7,232.9z"/>
		<circle id="START" cx="528.4" cy="671.4" r="4" class="st1"/>
	</g>
<g id="OBSTACLES">
	<path id="01_stone" class="st0" d="M233.1,790.6c-12.1,0-23.1,0.6-33.8,1.9c-10.4,1.2-18,3.1-24.6,5.9
		c-6.3,2.7-10.2,7-12.1,13.6c-1.7,5.5-2.6,11.2-2.7,17c-0.4,17.2-0.5,32.7,1.2,48.4c0.7,6.8,1.8,11.9,3.4,16.3
		c1.3,3.6,5.9,7.8,7.5,8.6c26.3,11.7,65.5,9,136,9.8c70.5,0.9,119.3,1.1,147.7-10.3c3.7-1.9,6-4.6,7.3-8.7c1.6-4.9,2.4-10.7,2.6-18
		c0.1-3.5-2.5-220.3-2.5-220.3l-9,0.2c-1.1,14.4-3,26.9-5.9,38.6c-4.9,20.1-12.5,36.8-23.2,50.9c-16.3,21.5-38.6,35.7-66.3,42.4
		c-12,2.9-24.8,4.1-41.6,4.1L233.1,790.6z"/>
	<path id="02_stone" class="st0" d="M720.9,660.1c-6,9.3-11.8,18.9-17.1,29c-13.5,25-23.4,48.8-30.4,72.7
		c-2.4,8.1-4.8,16.6-5.2,24.7c-0.4,7.7-0.3,16.2,0.1,25.8c0.2,3.9,1.2,8,2.1,12.3c0.7,3.2,2.7,5.3,5.9,6.6c4.2,1.7,7.9,3,11.4,3.9
		c9.4,2.1,19.7,3.2,32.3,3.2c4.9,0,10.2-0.1,17-0.4c15.4-0.7,30.9-2.4,46.2-4.9c14.8-2.5,26.9-5.7,37.9-9.9
		c9.2-3.6,15.2-7.1,19.9-11.4c4.1-3.9,4.8-7,5-9c0.3-3,0.4-6.1,0.3-9.2c-0.2-7.6-0.5-15.3-1-22.8l-0.1-2.2c-0.1-2.6-0.2-5.1-0.3-7.7
		c-0.3-7.1-0.6-14.3-1.2-21.4c-0.6-8.5-2.5-15.8-5.3-22.7c-2.9-6.6-7-10.6-13.1-12.6c-4.1-1.4-8.6-2.1-13.2-2.5
		c-10.1-0.5-18.8-1.7-27.1-3.5c-22.8-5.1-42.3-15.5-57.8-30.8C725.1,664.9,723,662.6,720.9,660.1z"/>
	<path id="03_stone" class="st0" d="M252.7,463.6c-5.2,0-10.1,0.1-14.8,0.4c-6.5,0.4-12.8,1.4-18.9,2.9
		c-8.6,2.1-13.4,6.6-15.6,14.8c-1.6,5.7-2.9,11.4-3.7,17.3c-1.9,12.7-1.7,26.2-1.4,37.8c0.1,5.3,1.1,10.5,2.8,15.2
		c2.1,6,5.9,9.8,11.9,12c5.5,2,11.1,3,17.4,3c1.3,0,131.5-1.8,131.5-1.8c0-0.3,0-0.5,0-0.9c-0.3-5.6-0.6-11.2-0.7-17
		c-0.2-5.9-0.3-11.9-0.4-17.8c-0.1-6.5-0.2-13.2-0.5-19.7c-0.2-6.2-1.1-12.7-2.8-20c-2-9.1-7-14.4-16-17.1
		c-8.9-2.7-18.5-4.6-29.5-5.7c-8-0.9-16.4-1.4-24.4-2l-3.7-0.3C271.4,464.1,261.5,463.6,252.7,463.6z"/>
	<path id="04_stone" class="st0" d="M564.6,246.1c-0.3,0-0.9,0.1-1.7,1.1c-1.7,2-3.2,4.7-4.5,8.1
		c-3.4,9.2-4.9,302.4-4.9,302.4c0.5-0.2,1-0.4,1.5-0.6c8.9-3.7,15.7-10.5,21.6-21c5.2-9.5,9-20.3,11.1-32.2
		c1.5-8.3,2.7-17.1,3.6-26.7c0.3-3.4-0.7-230-0.7-233.2C587.1,244.4,564.6,246.1,564.6,246.1z"/>
	<path id="05_stone" class="st0" d="M776.2,248.8c1.4,7.5,2.4,15.4,2.7,23.6c0.3,6.4,2.8,219.2,2.8,219.2s4.5-1.4,6.7-2
		c4.8-1.5,9.3-2.8,13.7-4.5c19.5-7.2,34.9-18,46.9-33.1c9.9-12.4,17.2-27.3,22.4-45.3c5.8-20.2,8.2-42.3,8-69.5
		c-0.1-6.3-2.1-11-6.6-14.8l-0.2-0.2c-3-2.6-5.9-5-8.9-7c-7-4.6-14.2-9-20.4-12.7l-1.8-1.1c-12.1-7.2-24.5-14.7-36.2-23.6
		C794,269,784.3,259.3,776.2,248.8z"/>
	<path id="06_stone" class="st0" d="M679.6,153.3c8,1.5,15.5,3.5,22.7,6.1c20,7.3,36.4,18.6,48.9,33.9
		c-0.2-0.9-0.3-1.7-0.5-2.6l-0.1-0.7c-1.2-6.2-2.5-13.3-1.4-20.9c1.4-9.5,1.5-18.8,0.5-27.7c-0.7-6.4-2.1-12-4.4-17
		c-2.8-6.3-7-9.7-13.6-11c-4.3-0.9-8.6-1.3-12.8-1.3c-6.2,0-12.5,1-18.8,2.7c-7.4,2.1-12.3,6.5-15.4,13.9c-0.7,1.7-1.3,3.2-1.7,4.6
		C681.1,139.4,680.1,145.8,679.6,153.3z"/>
	<circle class="st0" cx="376.8" cy="1002.9" r="5.6"/>
	<circle class="st0" cx="364.6" cy="1002.9" r="5.6"/>
	<circle class="st0" cx="352.4" cy="1002.9" r="5.6"/>
	<circle class="st0" cx="340.3" cy="1002.8" r="5.6"/>
	<circle class="st0" cx="328.2" cy="1002.8" r="5.6"/>
	<circle class="st0" cx="316.2" cy="1002.7" r="5.6"/>
	<circle class="st0" cx="304.1" cy="1002.6" r="5.6"/>
	<circle class="st0" cx="292.2" cy="1002.5" r="5.6"/>
	<circle class="st0" cx="280.3" cy="1002.4" r="5.6"/>
	<circle class="st0" cx="268.4" cy="1002.3" r="5.6"/>
	<circle class="st0" cx="256.6" cy="1002.1" r="5.6"/>
	<circle class="st0" cx="244.4" cy="1001.9" r="5.6"/>
	<circle class="st0" cx="232.2" cy="1001.4" r="5.6"/>
	<circle class="st0" cx="220.2" cy="1000.7" r="5.6"/>
	<circle class="st0" cx="208.4" cy="999.8" r="5.6"/>
	<circle class="st0" cx="196.9" cy="998.6" r="5.6"/>
	<circle class="st0" cx="185.9" cy="997.3" r="5.6"/>
	<circle class="st0" cx="174.3" cy="995.4" r="5.6"/>
	<circle class="st0" cx="162.3" cy="992.9" r="5.6"/>
	<circle class="st0" cx="150.1" cy="989.6" r="5.6"/>
	<circle class="st0" cx="137.9" cy="985.1" r="5.6"/>
	<circle class="st0" cx="126.6" cy="979.8" r="5.6"/>
	<circle class="st0" cx="116.5" cy="973.7" r="5.6"/>
	<circle class="st0" cx="107.4" cy="966.6" r="5.6"/>
	<circle class="st0" cx="99.1" cy="958.6" r="5.6"/>
	<circle class="st0" cx="91.9" cy="949.6" r="5.6"/>
	<circle class="st0" cx="85.7" cy="939.7" r="5.6"/>
	<circle class="st0" cx="80.5" cy="928.9" r="5.6"/>
	<circle class="st0" cx="76.4" cy="917.1" r="5.6"/>
	<circle class="st0" cx="73.5" cy="905.8" r="5.6"/>
	<circle class="st0" cx="71.5" cy="894.3" r="5.6"/>
	<circle class="st0" cx="70.1" cy="881.4" r="5.6"/>
	<circle class="st0" cx="69.2" cy="868.5" r="5.6"/>
	<circle class="st0" cx="68.8" cy="856" r="5.6"/>
	<circle class="st0" cx="68.7" cy="844" r="5.6"/>
	<circle class="st0" cx="68.8" cy="832.7" r="5.6"/>
	<circle class="st0" cx="69.3" cy="820.8" r="5.6"/>
	<circle class="st0" cx="70.5" cy="808.5" r="5.6"/>
	<circle class="st0" cx="72.7" cy="796.7" r="5.6"/>
	<circle class="st0" cx="75.7" cy="785.5" r="5.6"/>
	<circle class="st0" cx="79.6" cy="774.6" r="5.6"/>
	<circle class="st0" cx="84.9" cy="763.6" r="5.6"/>
	<circle class="st0" cx="91.1" cy="753.4" r="5.6"/>
	<circle class="st0" cx="98.3" cy="744.2" r="5.6"/>
	<circle class="st0" cx="106.4" cy="735.8" r="5.6"/>
	<circle class="st0" cx="115.5" cy="728.3" r="5.6"/>
	<circle class="st0" cx="125.5" cy="721.7" r="5.6"/>
	<circle class="st0" cx="136.5" cy="716" r="5.6"/>
	<circle class="st0" cx="147.4" cy="711.5" r="5.6"/>
	<circle class="st0" cx="158.3" cy="708.1" r="5.6"/>
	<circle class="st0" cx="169.9" cy="705.2" r="5.6"/>
	<circle class="st0" cx="182.4" cy="703" r="5.6"/>
	<circle class="st0" cx="195.3" cy="701.5" r="5.6"/>
	<circle class="st0" cx="207.9" cy="700.4" r="5.6"/>
	<circle class="st0" cx="220.2" cy="699.9" r="5.6"/>
	<circle class="st0" cx="231.8" cy="699.6" r="5.6"/>
	<circle class="st0" cx="242.8" cy="699.5" r="5.6"/>
	<circle class="st0" cx="254.9" cy="699.6" r="5.6"/>
	<circle class="st0" cx="266.8" cy="699.7" r="5.6"/>
	<circle class="st0" cx="278.8" cy="699.8" r="5.6"/>
	<circle class="st0" cx="290.8" cy="699.8" r="5.6"/>
	<circle class="st0" cx="302.9" cy="699.7" r="5.6"/>
	<circle class="st0" cx="314.9" cy="699.6" r="5.6"/>
	<circle class="st0" cx="326.9" cy="699.6" r="5.6"/>
	<circle class="st0" cx="338.5" cy="698.1" r="5.6"/>
	<circle class="st0" cx="349.4" cy="692.9" r="5.6"/>
	<circle class="st0" cx="356.1" cy="683" r="5.6"/>
	<circle class="st0" cx="359.8" cy="671.6" r="5.6"/>
	<circle class="st0" cx="361.7" cy="659.8" r="5.6"/>
	<circle class="st0" cx="353.5" cy="656.5" r="5.6"/>
	<circle class="st0" cx="341.5" cy="656.6" r="5.6"/>
	<circle class="st0" cx="329.5" cy="656.7" r="5.6"/>
	<circle class="st0" cx="317.5" cy="656.7" r="5.6"/>
	<circle class="st0" cx="305.5" cy="656.8" r="5.6"/>
	<circle class="st0" cx="293.5" cy="656.9" r="5.6"/>
	<circle class="st0" cx="281.5" cy="657" r="5.6"/>
	<circle class="st0" cx="269.5" cy="657.1" r="5.6"/>
	<circle class="st0" cx="257.6" cy="657.2" r="5.6"/>
	<circle class="st0" cx="245.5" cy="657.8" r="5.6"/>
	<circle class="st0" cx="233.5" cy="658.3" r="5.6"/>
	<circle class="st0" cx="221.1" cy="658.1" r="5.6"/>
	<circle class="st0" cx="209" cy="656.9" r="5.6"/>
	<circle class="st0" cx="197.2" cy="654.6" r="5.6"/>
	<circle class="st0" cx="185.9" cy="651.3" r="5.6"/>
	<circle class="st0" cx="175" cy="647.1" r="5.6"/>
	<circle class="st0" cx="164.1" cy="641.6" r="5.6"/>
	<circle class="st0" cx="154" cy="635.1" r="5.6"/>
	<circle class="st0" cx="144.9" cy="627.7" r="5.6"/>
	<circle class="st0" cx="136.7" cy="619.4" r="5.6"/>
	<circle class="st0" cx="129.5" cy="610.2" r="5.6"/>
	<circle class="st0" cx="123.2" cy="600.1" r="5.6"/>
	<circle class="st0" cx="117.9" cy="589.1" r="5.6"/>
	<circle class="st0" cx="113.6" cy="577.3" r="5.6"/>
	<circle class="st0" cx="110.4" cy="565.5" r="5.6"/>
	<circle class="st0" cx="108.4" cy="553.7" r="5.6"/>
	<circle class="st0" cx="107.5" cy="541.8" r="5.6"/>
	<circle class="st0" cx="107.4" cy="530.3" r="5.6"/>
	<circle class="st0" cx="107.5" cy="518.5" r="5.6"/>
	<circle class="st0" cx="107.9" cy="506.1" r="5.6"/>
	<circle class="st0" cx="108.7" cy="493.4" r="5.6"/>
	<circle class="st0" cx="110.3" cy="480.9" r="5.6"/>
	<circle class="st0" cx="112.5" cy="469" r="5.6"/>
	<circle class="st0" cx="115.6" cy="457.7" r="5.6"/>
	<circle class="st0" cx="119.3" cy="447" r="5.6"/>
	<circle class="st0" cx="124.3" cy="436" r="5.6"/>
	<circle class="st0" cx="130.3" cy="425.5" r="5.6"/>
	<circle class="st0" cx="137.3" cy="416" r="5.6"/>
	<circle class="st0" cx="145.2" cy="407.4" r="5.6"/>
	<circle class="st0" cx="153.9" cy="399.7" r="5.6"/>
	<circle class="st0" cx="163.6" cy="393" r="5.6"/>
	<circle class="st0" cx="174.2" cy="387.2" r="5.6"/>
	<circle class="st0" cx="185.7" cy="382.5" r="5.6"/>
	<circle class="st0" cx="196.9" cy="378.9" r="5.6"/>
	<circle class="st0" cx="208.2" cy="376.4" r="5.6"/>
	<circle class="st0" cx="220.3" cy="374.5" r="5.6"/>
	<circle class="st0" cx="232.8" cy="373.4" r="5.6"/>
	<circle class="st0" cx="244.7" cy="372.9" r="5.6"/>
	<circle class="st0" cx="256.5" cy="372.8" r="5.6"/>
	<circle class="st0" cx="267.8" cy="373.1" r="5.6"/>
	<circle class="st0" cx="280.2" cy="373.7" r="5.6"/>
	<circle class="st0" cx="292.9" cy="374.6" r="5.6"/>
	<circle class="st0" cx="304.8" cy="375.5" r="5.6"/>
	<circle class="st0" cx="316.9" cy="376.5" r="5.6"/>
	<circle class="st0" cx="330.3" cy="378" r="5.6"/>
	<circle class="st0" cx="342.7" cy="379.9" r="5.6"/>
	<circle class="st0" cx="354.2" cy="382.3" r="5.6"/>
	<circle class="st0" cx="364.8" cy="385.1" r="5.6"/>
	<circle class="st0" cx="376.2" cy="389" r="5.6"/>
	<circle class="st0" cx="387.5" cy="394.5" r="5.6"/>
	<circle class="st0" cx="397" cy="401" r="5.6"/>
	<circle class="st0" cx="405.3" cy="408.6" r="5.6"/>
	<circle class="st0" cx="413.1" cy="417.3" r="5.6"/>
	<circle class="st0" cx="420.6" cy="426.8" r="5.6"/>
	<circle class="st0" cx="426.7" cy="436.6" r="5.6"/>
	<circle class="st0" cx="431.5" cy="447.1" r="5.6"/>
	<circle class="st0" cx="435.4" cy="458.6" r="5.6"/>
	<circle class="st0" cx="438.6" cy="471.1" r="5.6"/>
	<circle class="st0" cx="440.9" cy="481.8" r="5.6"/>
	<circle class="st0" cx="442.6" cy="492.6" r="5.6"/>
	<circle class="st0" cx="443.5" cy="505.3" r="5.6"/>
	<circle class="st0" cx="443.8" cy="517.1" r="5.6"/>
	<circle class="st0" cx="444.4" cy="530.7" r="5.6"/>
	<circle class="st0" cx="445.1" cy="546" r="5.6"/>
	<circle class="st0" cx="445.8" cy="559" r="5.6"/>
	<circle class="st0" cx="447.8" cy="564.8" r="5.6"/>
	<circle class="st0" cx="459.8" cy="564.1" r="5.6"/>
	<circle class="st0" cx="462.8" cy="562.7" r="5.6"/>
	<circle class="st0" cx="462.8" cy="558.8" r="5.6"/>
	<circle class="st0" cx="462.8" cy="552.7" r="5.6"/>
	<circle class="st0" cx="462.7" cy="544.4" r="5.6"/>
	<circle class="st0" cx="462.7" cy="534.2" r="5.6"/>
	<circle class="st0" cx="462.7" cy="522.3" r="5.6"/>
	<circle class="st0" cx="462.7" cy="509" r="5.6"/>
	<circle class="st0" cx="462.6" cy="494.6" r="5.6"/>
	<circle class="st0" cx="462.6" cy="479.1" r="5.6"/>
	<circle class="st0" cx="462.6" cy="462.9" r="5.6"/>
	<circle class="st0" cx="462.6" cy="446.1" r="5.6"/>
	<circle class="st0" cx="462.5" cy="429" r="5.6"/>
	<circle class="st0" cx="462.5" cy="411.9" r="5.6"/>
	<circle class="st0" cx="462.5" cy="395" r="5.6"/>
	<circle class="st0" cx="462.4" cy="378.4" r="5.6"/>
	<circle class="st0" cx="462.4" cy="362.4" r="5.6"/>
	<circle class="st0" cx="462.4" cy="347.2" r="5.6"/>
	<circle class="st0" cx="462.4" cy="333.2" r="5.6"/>
	<circle class="st0" cx="462.4" cy="320.4" r="5.6"/>
	<circle class="st0" cx="462.3" cy="309.1" r="5.6"/>
	<circle class="st0" cx="462.3" cy="299.6" r="5.6"/>
	<circle class="st0" cx="462.3" cy="292" r="5.6"/>
	<circle class="st0" cx="462.3" cy="286.7" r="5.6"/>
	<circle class="st0" cx="462.5" cy="278.5" r="5.6"/>
	<circle class="st0" cx="463.4" cy="266.4" r="5.6"/>
	<circle class="st0" cx="465.1" cy="254.5" r="5.6"/>
	<circle class="st0" cx="467.6" cy="242.8" r="5.6"/>
	<circle class="st0" cx="470.8" cy="231.4" r="5.6"/>
	<circle class="st0" cx="474.9" cy="220.2" r="5.6"/>
	<circle class="st0" cx="480.2" cy="208.8" r="5.6"/>
	<circle class="st0" cx="486.4" cy="198.4" r="5.6"/>
	<circle class="st0" cx="493.5" cy="189" r="5.6"/>
	<circle class="st0" cx="501.5" cy="180.6" r="5.6"/>
	<circle class="st0" cx="510.8" cy="172.9" r="5.6"/>
	<circle class="st0" cx="520.9" cy="166.5" r="5.6"/>
	<circle class="st0" cx="531.7" cy="161.5" r="5.6"/>
	<circle class="st0" cx="543.1" cy="158" r="5.6"/>
	<circle class="st0" cx="555.1" cy="156" r="5.6"/>
	<circle class="st0" cx="567" cy="155.1" r="5.6"/>
	<circle class="st0" cx="578.9" cy="154" r="5.6"/>
	<circle class="st0" cx="588.8" cy="150.8" r="5.6"/>
	<circle class="st0" cx="589.8" cy="137.9" r="5.6"/>
	<circle class="st0" cx="591.5" cy="125.8" r="5.6"/>
	<circle class="st0" cx="594" cy="114.4" r="5.6"/>
	<circle class="st0" cx="597.1" cy="103.7" r="5.6"/>
	<circle class="st0" cx="601.5" cy="92.2" r="5.6"/>
	<circle class="st0" cx="607" cy="81.1" r="5.6"/>
	<circle class="st0" cx="613.3" cy="71" r="5.6"/>
	<circle class="st0" cx="620.4" cy="61.7" r="5.6"/>
	<circle class="st0" cx="628.4" cy="53.4" r="5.6"/>
	<circle class="st0" cx="637.2" cy="46.1" r="5.6"/>
	<circle class="st0" cx="646.9" cy="39.6" r="5.6"/>
	<circle class="st0" cx="657.4" cy="34.1" r="5.6"/>
	<circle class="st0" cx="668.7" cy="29.6" r="5.6"/>
	<circle class="st0" cx="680.8" cy="26" r="5.6"/>
	<circle class="st0" cx="693" cy="23.4" r="5.6"/>
	<circle class="st0" cx="705" cy="21.8" r="5.6"/>
	<circle class="st0" cx="716.8" cy="21.1" r="5.6"/>
	<circle class="st0" cx="728.8" cy="21.3" r="5.6"/>
	<circle class="st0" cx="740.7" cy="22.6" r="5.6"/>
	<circle class="st0" cx="752.4" cy="24.9" r="5.6"/>
	<circle class="st0" cx="764.4" cy="28.4" r="5.6"/>
	<circle class="st0" cx="775.6" cy="32.9" r="5.6"/>
	<circle class="st0" cx="786.1" cy="38.4" r="5.6"/>
	<circle class="st0" cx="795.6" cy="44.9" r="5.6"/>
	<circle class="st0" cx="804.4" cy="52.5" r="5.6"/>
	<circle class="st0" cx="812.3" cy="61" r="5.6"/>
	<circle class="st0" cx="819.3" cy="70.5" r="5.6"/>
	<circle class="st0" cx="825.4" cy="81" r="5.6"/>
	<circle class="st0" cx="830.7" cy="92.5" r="5.6"/>
	<circle class="st0" cx="834.7" cy="103.7" r="5.6"/>
	<circle class="st0" cx="837.6" cy="115.1" r="5.6"/>
	<circle class="st0" cx="839.7" cy="127" r="5.6"/>
	<circle class="st0" cx="841" cy="139.4" r="5.6"/>
	<circle class="st0" cx="841.5" cy="151.3" r="5.6"/>
	<circle class="st0" cx="841.3" cy="163.3" r="5.6"/>
	<circle class="st0" cx="840.5" cy="175.4" r="5.6"/>
	<circle class="st0" cx="844.2" cy="186.6" r="5.6"/>
	<circle class="st0" cx="850.8" cy="196.5" r="5.6"/>
	<circle class="st0" cx="859.4" cy="204.6" r="5.6"/>
	<circle class="st0" cx="869.1" cy="211.7" r="5.6"/>
	<circle class="st0" cx="879.7" cy="218.3" r="5.6"/>
	<circle class="st0" cx="889.9" cy="224.5" r="5.6"/>
	<circle class="st0" cx="900.1" cy="230.7" r="5.6"/>
	<circle class="st0" cx="910.5" cy="237" r="5.6"/>
	<circle class="st0" cx="921" cy="244.3" r="5.6"/>
	<circle class="st0" cx="930.4" cy="251.8" r="5.6"/>
	<circle class="st0" cx="938.9" cy="259.8" r="5.6"/>
	<circle class="st0" cx="946.6" cy="268.4" r="5.6"/>
	<circle class="st0" cx="953.7" cy="278.3" r="5.6"/>
	<circle class="st0" cx="959.6" cy="288.7" r="5.6"/>
	<circle class="st0" cx="964.2" cy="299.6" r="5.6"/>
	<circle class="st0" cx="967.5" cy="311" r="5.6"/>
	<circle class="st0" cx="969.6" cy="322.8" r="5.6"/>
	<circle class="st0" cx="970.4" cy="334.5" r="5.6"/>
	<circle class="st0" cx="970.6" cy="345.7" r="5.6"/>
	<circle class="st0" cx="970.4" cy="357.3" r="5.6"/>
	<circle class="st0" cx="969.7" cy="369.5" r="5.6"/>
	<circle class="st0" cx="968.5" cy="382.5" r="5.6"/>
	<circle class="st0" cx="967" cy="395" r="5.6"/>
	<circle class="st0" cx="965" cy="407" r="5.6"/>
	<circle class="st0" cx="962.5" cy="418.7" r="5.6"/>
	<circle class="st0" cx="959.6" cy="430.2" r="5.6"/>
	<circle class="st0" cx="956.1" cy="441.5" r="5.6"/>
	<circle class="st0" cx="951.9" cy="453.5" r="5.6"/>
	<circle class="st0" cx="947.1" cy="464.9" r="5.6"/>
	<circle class="st0" cx="941.8" cy="475.8" r="5.6"/>
	<circle class="st0" cx="936.1" cy="486.2" r="5.6"/>
	<circle class="st0" cx="929.8" cy="496.2" r="5.6"/>
	<circle class="st0" cx="923" cy="505.6" r="5.6"/>
	<circle class="st0" cx="915.6" cy="514.7" r="5.6"/>
	<circle class="st0" cx="907.6" cy="523.3" r="5.6"/>
	<circle class="st0" cx="899" cy="531.6" r="5.6"/>
	<circle class="st0" cx="889.9" cy="539.3" r="5.6"/>
	<circle class="st0" cx="880.3" cy="546.4" r="5.6"/>
	<circle class="st0" cx="870.2" cy="553" r="5.6"/>
	<circle class="st0" cx="859.7" cy="559.1" r="5.6"/>
	<circle class="st0" cx="849.2" cy="564.3" r="5.6"/>
	<circle class="st0" cx="838.7" cy="568.8" r="5.6"/>
	<circle class="st0" cx="827.4" cy="572.9" r="5.6"/>
	<circle class="st0" cx="815.4" cy="576.8" r="5.6"/>
	<circle class="st0" cx="804.2" cy="580.3" r="5.6"/>
	<circle class="st0" cx="793.5" cy="585.4" r="5.6"/>
	<circle class="st0" cx="786.3" cy="593.5" r="5.6"/>
	<circle class="st0" cx="792.5" cy="603.6" r="5.6"/>
	<circle class="st0" cx="802.7" cy="608.8" r="5.6"/>
	<circle class="st0" cx="815" cy="610.7" r="5.6"/>
	<circle class="st0" cx="827.8" cy="611.9" r="5.6"/>
	<circle class="st0" cx="839.6" cy="613.9" r="5.6"/>
	<circle class="st0" cx="850.7" cy="616.8" r="5.6"/>
	<circle class="st0" cx="862" cy="620.9" r="5.6"/>
	<circle class="st0" cx="872.9" cy="626.1" r="5.6"/>
	<circle class="st0" cx="883" cy="632.3" r="5.6"/>
	<circle class="st0" cx="892.2" cy="639.4" r="5.6"/>
	<circle class="st0" cx="900.6" cy="647.5" r="5.6"/>
	<circle class="st0" cx="908.1" cy="656.6" r="5.6"/>
	<circle class="st0" cx="914.8" cy="666.6" r="5.6"/>
	<circle class="st0" cx="920.6" cy="677.5" r="5.6"/>
	<circle class="st0" cx="925.1" cy="688.4" r="5.6"/>
	<circle class="st0" cx="928.6" cy="699.3" r="5.6"/>
	<circle class="st0" cx="931.4" cy="710.9" r="5.6"/>
	<circle class="st0" cx="933.6" cy="723.4" r="5.6"/>
	<circle class="st0" cx="935" cy="736" r="5.6"/>
	<circle class="st0" cx="935.8" cy="748.1" r="5.6"/>
	<circle class="st0" cx="936.3" cy="760" r="5.6"/>
	<circle class="st0" cx="936.6" cy="771.8" r="5.6"/>
	<circle class="st0" cx="937.1" cy="783.8" r="5.6"/>
	<circle class="st0" cx="937.6" cy="796.2" r="5.6"/>
	<circle class="st0" cx="937.1" cy="808.7" r="5.6"/>
	<circle class="st0" cx="935.5" cy="820.7" r="5.6"/>
	<circle class="st0" cx="932.6" cy="832.1" r="5.6"/>
	<circle class="st0" cx="928.6" cy="842.9" r="5.6"/>
	<circle class="st0" cx="923.4" cy="853.2" r="5.6"/>
	<circle class="st0" cx="917.1" cy="862.8" r="5.6"/>
	<circle class="st0" cx="909.6" cy="871.9" r="5.6"/>
	<circle class="st0" cx="900.9" cy="880.4" r="5.6"/>
	<circle class="st0" cx="891.1" cy="888.2" r="5.6"/>
	<circle class="st0" cx="881.6" cy="894.6" r="5.6"/>
	<circle class="st0" cx="871.7" cy="900.2" r="5.6"/>
	<circle class="st0" cx="861.1" cy="905.3" r="5.6"/>
	<circle class="st0" cx="849.5" cy="909.8" r="5.6"/>
	<circle class="st0" cx="837.1" cy="914" r="5.6"/>
	<circle class="st0" cx="826.2" cy="917" r="5.6"/>
	<circle class="st0" cx="814.9" cy="919.7" r="5.6"/>
	<circle class="st0" cx="803.2" cy="922.1" r="5.6"/>
	<circle class="st0" cx="790.9" cy="924.1" r="5.6"/>
	<circle class="st0" cx="778" cy="925.9" r="5.6"/>
	<circle class="st0" cx="765.2" cy="927.3" r="5.6"/>
	<circle class="st0" cx="753" cy="928.3" r="5.6"/>
	<circle class="st0" cx="741.2" cy="929.1" r="5.6"/>
	<circle class="st0" cx="729.8" cy="929.5" r="5.6"/>
	<circle class="st0" cx="718.3" cy="929.5" r="5.6"/>
	<circle class="st0" cx="705.9" cy="929.2" r="5.6"/>
	<circle class="st0" cx="692.6" cy="928.3" r="5.6"/>
	<circle class="st0" cx="680.1" cy="926.7" r="5.6"/>
	<circle class="st0" cx="668.5" cy="924.5" r="5.6"/>
	<circle class="st0" cx="657.6" cy="921.7" r="5.6"/>
	<circle class="st0" cx="647.3" cy="918.2" r="5.6"/>
	<circle class="st0" cx="636" cy="913.2" r="5.6"/>
	<circle class="st0" cx="625.3" cy="907.1" r="5.6"/>
	<circle class="st0" cx="615.7" cy="900.1" r="5.6"/>
	<circle class="st0" cx="607" cy="892.1" r="5.6"/>
	<circle class="st0" cx="599.5" cy="883.3" r="5.6"/>
	<circle class="st0" cx="592.9" cy="873.5" r="5.6"/>
	<circle class="st0" cx="587.6" cy="863.2" r="5.6"/>
	<circle class="st0" cx="583.5" cy="852.2" r="5.6"/>
	<circle class="st0" cx="580.4" cy="840.5" r="5.6"/>
	<circle class="st0" cx="578.3" cy="828.3" r="5.6"/>
	<circle class="st0" cx="577.2" cy="816.9" r="5.6"/>
	<circle class="st0" cx="576.7" cy="805.2" r="5.6"/>
	<circle class="st0" cx="576.7" cy="792.9" r="5.6"/>
	<circle class="st0" cx="577.3" cy="780.2" r="5.6"/>
	<circle class="st0" cx="578.4" cy="769.5" r="5.6"/>
	<circle class="st0" cx="580.4" cy="758.2" r="5.6"/>
	<circle class="st0" cx="583.4" cy="745.9" r="5.6"/>
	<circle class="st0" cx="586.9" cy="733.4" r="5.6"/>
	<circle class="st0" cx="590.5" cy="722.3" r="5.6"/>
	<circle class="st0" cx="594.3" cy="711.2" r="5.6"/>
	<circle class="st0" cx="598.5" cy="700.1" r="5.6"/>
	<circle class="st0" cx="603.1" cy="689.1" r="5.6"/>
	<circle class="st0" cx="607.9" cy="678" r="5.6"/>
	<circle class="st0" cx="613.1" cy="666.9" r="5.6"/>
	<circle class="st0" cx="618.5" cy="655.9" r="5.6"/>
	<circle class="st0" cx="624.3" cy="644.9" r="5.6"/>
	<circle class="st0" cx="630.5" cy="633.9" r="5.6"/>
	<circle class="st0" cx="636.7" cy="623.2" r="5.6"/>
	<circle class="st0" cx="643.1" cy="612.9" r="5.6"/>
	<circle class="st0" cx="649.7" cy="602.9" r="5.6"/>
	<circle class="st0" cx="656.4" cy="593.3" r="5.6"/>
	<circle class="st0" cx="663.2" cy="584" r="5.6"/>
	<circle class="st0" cx="670.7" cy="574.5" r="5.6"/>
	<circle class="st0" cx="679.6" cy="566" r="5.6"/>
	<circle class="st0" cx="688.5" cy="555.3" r="5.6"/>
	<circle class="st0" cx="692.5" cy="545.1" r="5.6"/>
	<circle class="st0" cx="692.2" cy="532.4" r="5.6"/>
	<circle class="st0" cx="691.8" cy="518.2" r="5.6"/>
	<circle class="st0" cx="691.6" cy="503.8" r="5.6"/>
	<circle class="st0" cx="691.3" cy="490.2" r="5.6"/>
	<circle class="st0" cx="691.1" cy="475.5" r="5.6"/>
	<circle class="st0" cx="690.8" cy="460" r="5.6"/>
	<circle class="st0" cx="690.5" cy="443.8" r="5.6"/>
	<circle class="st0" cx="690.2" cy="427.2" r="5.6"/>
	<circle class="st0" cx="689.9" cy="410.4" r="5.6"/>
	<circle class="st0" cx="689.6" cy="393.5" r="5.6"/>
	<circle class="st0" cx="689.3" cy="376.8" r="5.6"/>
	<circle class="st0" cx="689" cy="360.5" r="5.6"/>
	<circle class="st0" cx="688.7" cy="344.8" r="5.6"/>
	<circle class="st0" cx="688.3" cy="329.9" r="5.6"/>
	<circle class="st0" cx="688" cy="315.9" r="5.6"/>
	<circle class="st0" cx="687.7" cy="303.2" r="5.6"/>
	<circle class="st0" cx="687.7" cy="290.7" r="5.6"/>
	<circle class="st0" cx="686.8" cy="278.3" r="5.6"/>
	<circle class="st0" cx="686.8" cy="264.8" r="5.6"/>
	<circle class="st0" cx="684" cy="251.8" r="5.6"/>
	<circle class="st0" cx="675.6" cy="242.7" r="5.6"/>
	<circle class="st0" cx="674.3" cy="254.6" r="5.6"/>
	<circle class="st0" cx="674.3" cy="265.5" r="5.6"/>
	<circle class="st0" cx="674.3" cy="278.6" r="5.6"/>
	<circle class="st0" cx="674.3" cy="292.5" r="5.6"/>
	<circle class="st0" cx="674.2" cy="306.9" r="5.6"/>
	<circle class="st0" cx="674.2" cy="322.5" r="5.6"/>
	<circle class="st0" cx="675.2" cy="338.9" r="5.6"/>
	<circle class="st0" cx="675.2" cy="355.9" r="5.6"/>
	<circle class="st0" cx="675.2" cy="371.1" r="5.6"/>
	<circle class="st0" cx="675.1" cy="387.3" r="5.6"/>
	<circle class="st0" cx="676.1" cy="402" r="5.6"/>
	<circle class="st0" cx="676.1" cy="417.9" r="5.6"/>
	<circle class="st0" cx="676.1" cy="432.8" r="5.6"/>
	<circle class="st0" cx="676" cy="446.3" r="5.6"/>
	<circle class="st0" cx="676" cy="460.1" r="5.6"/>
	<circle class="st0" cx="676" cy="473.8" r="5.6"/>
	<circle class="st0" cx="676" cy="487.9" r="5.6"/>
	<circle class="st0" cx="674.3" cy="501.9" r="5.6"/>
	<circle class="st0" cx="671.9" cy="515.5" r="5.6"/>
	<circle class="st0" cx="668.7" cy="529.5" r="5.6"/>
	<circle class="st0" cx="665.6" cy="542.5" r="5.6"/>
	<circle class="st0" cx="660.6" cy="555.4" r="5.6"/>
	<circle class="st0" cx="655.6" cy="567.8" r="5.6"/>
	<circle class="st0" cx="646.3" cy="586.6" r="5.6"/>
	<circle class="st0" cx="638.6" cy="597.4" r="5.6"/>
	<circle class="st0" cx="632.5" cy="605.1" r="5.6"/>
	<circle class="st0" cx="623.3" cy="614.3" r="5.6"/>
	<circle class="st0" cx="613.8" cy="623.6" r="5.6"/>
	<circle class="st0" cx="604.2" cy="629.8" r="5.6"/>
	<circle class="st0" cx="593.2" cy="636.2" r="5.6"/>
	<circle class="st0" cx="582.1" cy="641.6" r="5.6"/>
	<circle class="st0" cx="570.6" cy="645" r="5.6"/>
	<circle class="st0" cx="558.6" cy="647.4" r="5.6"/>
	<circle class="st0" cx="548.9" cy="649.7" r="5.6"/>
	<circle class="st0" cx="651.9" cy="576.8" r="5.6"/>
	<circle class="st0" cx="549.1" cy="664.4" r="5.6"/>
	<circle class="st0" cx="548.2" cy="680" r="5.6"/>
	<circle class="st0" cx="548.4" cy="694.7" r="5.6"/>
	<circle class="st0" cx="548.2" cy="709.8" r="5.6"/>
	<circle class="st0" cx="548.2" cy="723.9" r="5.6"/>
	<circle class="st0" cx="548.2" cy="737.1" r="5.6"/>
	<circle class="st0" cx="548.2" cy="750.7" r="5.6"/>
	<circle class="st0" cx="549.2" cy="765.3" r="5.6"/>
	<circle class="st0" cx="548.9" cy="807.9" r="5.6"/>
	<circle class="st0" cx="549.2" cy="822.6" r="5.6"/>
	<circle class="st0" cx="549.2" cy="836.2" r="5.6"/>
	<circle class="st0" cx="550.5" cy="849.9" r="5.6"/>
	<circle class="st0" cx="550.6" cy="862.6" r="5.6"/>
	<circle class="st0" cx="552.7" cy="874.9" r="5.6"/>
	<circle class="st0" cx="549.2" cy="793.9" r="5.6"/>
	<circle class="st0" cx="549.2" cy="780.2" r="5.6"/>
	<circle class="st0" cx="555.9" cy="887.1" r="5.6"/>
	<circle class="st0" cx="554.5" cy="899.2" r="5.6"/>
	<circle class="st0" cx="552.3" cy="910.7" r="5.6"/>
	<circle class="st0" cx="549" cy="921.9" r="5.6"/>
	<circle class="st0" cx="544.6" cy="933.1" r="5.6"/>
	<circle class="st0" cx="539.1" cy="943.7" r="5.6"/>
	<circle class="st0" cx="532.5" cy="953.4" r="5.6"/>
	<circle class="st0" cx="524.8" cy="962.2" r="5.6"/>
	<circle class="st0" cx="516.2" cy="970.1" r="5.6"/>
	<circle class="st0" cx="506.5" cy="977.1" r="5.6"/>
	<circle class="st0" cx="495.8" cy="983.2" r="5.6"/>
	<circle class="st0" cx="484.7" cy="988.1" r="5.6"/>
	<circle class="st0" cx="473.9" cy="991.9" r="5.6"/>
	<circle class="st0" cx="462.4" cy="995" r="5.6"/>
	<circle class="st0" cx="449.9" cy="997.5" r="5.6"/>
	<circle class="st0" cx="438.4" cy="999.2" r="5.6"/>
	<circle class="st0" cx="427.2" cy="1000.5" r="5.6"/>
	<circle class="st0" cx="415.6" cy="1001.5" r="5.6"/>
	<circle class="st0" cx="403.5" cy="1002.3" r="5.6"/>
	<circle class="st0" cx="390.9" cy="1002.7" r="5.6"/>
	<circle class="st0" cx="377.8" cy="1002.8" r="5.6"/>
</g>
</svg>
