<?xml version="1.0" encoding="utf-8"?>
<!-- Generator: Adobe Illustrator 21.0.2, SVG Export Plug-In . SVG Version: 6.00 Build 0)  -->
<svg version="1.1" id="SCENE_3" xmlns="http://www.w3.org/2000/svg" xmlns:xlink="http://www.w3.org/1999/xlink" x="0px" y="0px"
	 viewBox="0 0 1024 1024" style="enable-background:new 0 0 1024 1024;" xml:space="preserve">
<style type="text/css">
	.st0{fill:#FFFFFF;}
	.st1{fill:#64566D;}
	.st2{display:none;}
	.st3 {fill: rgba(255,255,255,0.8);}
</style>
<rect id="BACKGROUND_green" y="0" width="1024" height="1024"/>
<g id="ROAD">
	<path id="TRACK_cobblestone" class="st0" d="M288.1,474.4l38.3,25.6l273.9-191.5c0,0,31.3-17.8,50.8-23.2c12.1-3.5,25.4-5.4,39-5.6
		c22.5-0.3,45.1,5.2,63.4,15.4c18.6,10.2,32.2,22.9,39.8,37.9c6.5,12.6,7.3,25.1,4,37.4c-4,15.2-13,28.7-26.1,40.9
		c-1.4,1.1-135.3,91.1-151.3,101.9c-5.3,3.5-10,7.5-13.6,12c-6.9,9-5,17.9,6.6,26.1c4.1,3,14.4,9.4,14.4,9.4s47.5-34.3,57.4-40.5
		c18.5-11.7,38.6-22,61.5-30c17.8-6.2,36.9-10.7,57.4-12.3c35.4-2.7,68.5,3.4,99.2,18.5c11.1,5.4,20.8,12,30.3,18.7
		c20.1,14.2,37.8,29.4,51.1,46.6c12.1,15.7,20.1,32.2,21.5,49.3c1.8,20.3-5.3,38.6-19.8,55.4c-7.5,8.5-16.6,16.3-27.1,23.2
		c-11.1,7.4-22.5,14.6-34.1,21.5c-12.7,7.6-27.6,13.5-43.7,17.6c-29.3,7.4-59.3,6-90-3c-16.9-5-32.3-11.9-46.8-19.8
		c-11.6-6.2-110.3-69.7-110.3-69.7L582,670.9c0,0,1.7,1.5,2,1.8c7,4.6,14.1,9.2,21,13.9c9.4,6.4,18.9,12.8,27.8,19.4
		c7.6,5.6,14.9,11.6,21.8,17.7c21.5,18.9,39.1,39.1,49.1,61.5c7.8,17.4,10.1,34.8,5,52c-3.9,12.6-11.3,24.2-22.2,34.4
		c-10,9.6-22.5,17.4-35.6,25c-8.2,4.6-16.6,9.3-25.1,13.5c-18.6,9.1-38.8,16.6-61.8,20.8c-38.2,7-75.4,2.7-111.7-12.3
		c-13.8-5.8-26.9-12.5-38.9-20.1c-11.9-7.2-23.2-14.8-33.9-22.9c-14.9-11.4-28-23.4-36.9-37.2c-14.6-22.6-14.5-44.4-1.8-65.5
		c5.7-9.2,13.3-17.8,22.1-25.6c9.2-8.3,108-78.2,108-78.2l-138.1-92.6c0,0-60.3,42.7-89.7,63.4c-11.6,8.4-24.8,15.7-39.5,21.7
		c-14.4,5.8-29.9,10.1-47.3,11.5c-29.6,2.4-56.6-3.3-80.6-17.3C62.3,648.2,50.9,639,42.4,629c-16.9-20.3-17.4-40-3.5-59
		c5.9-7.9,13.4-15.1,22.6-21.4c7.5-5.2,15.2-10.1,22.8-15.3c20.9-14.1,91.7-62.5,91.7-62.5s-16.3-11.3-22.6-16
		c-14.6-10.8-25.9-23.5-32.9-37c-9.4-17.9-11-35.8-7.1-53.5c3.9-17.8,11.7-31.9,22.3-46.6c10.9-15.1,24.3-29.2,40-42
		c7.6-6.2,260.7-185.1,273.8-193.4c13.2-8.2,26.4-14,42.6-18c27-6.5,54.4-5,82.3,3.6c15.2,4.7,28.7,11,41.5,18.3
		c9,5.1,17.6,10.6,25.4,16.5c31.8,24.2,43.4,51,33.8,80.4c-4.2,13.1-12.7,24.8-23.4,35.6C643.8,227.6,288.1,474.4,288.1,474.4z
		 M229.4,434.9c1-0.7,350.9-243.2,357.1-249.9c5.9-6.3,10.8-13.1,12.7-20.9c1.9-7.4-0.7-15.4-7.4-22.1c-6.4-6.4-14.6-11.5-23.1-16.4
		c-6.4-3.7-13.5-6.9-21.1-9.3c-8.4-2.8-17.9-2.9-25.3,0c-5.8,2-11,4.6-15.8,7.5C488.1,135.3,236,315,228.3,322.4
		c-10.7,10.3-19.5,21.4-26.5,33.1c-5.8,10-10,20.3-10.1,31.5c-0.1,11.2,3.6,20.3,12.8,29.4c6.9,6.9,16,12.3,25.1,18.3h-0.1
		L229.4,434.9L229.4,434.9z M574.8,597.7l-13-8.7c-14.4-9.5-25.5-20.9-32.1-33.4c-10.5-19.6-8.7-37.8,3.2-55.3
		c7-10.3,17.1-18.9,28.8-26.7c47.1-31.6,94-63.1,141.1-94.6c3.3-2.1,5.9-4.6,8.1-7.3c4.5-5.9,7.9-11.9,8.6-18.8s-3.6-11.8-10.8-16.5
		c-3.2-2.2-7.6-3.2-11.6-2.5c-3.9,0.5-7.5,1.3-11.1,2.3c-10.7,3.3-20.1,7.9-28,13.6c-16.8,11.6-271.7,190-271.7,190l137.9,92.3h0.3
		h0.5L574.8,597.7z M530.4,708.5c-0.7,0.5-1.1,0.8-1.6,1.1c-10.3,7.2-20.4,14.4-30.6,21.5c-16.8,11.9-33.8,23.7-50.5,35.8
		c-6.7,4.8-13.2,9.9-19.3,15.1c-6.6,5.4-11.8,11.6-15.2,18.3c-4,7.3-2.8,15.8,2.9,23.2c5,6.6,11.7,12.4,18.7,18
		c9.8,7.6,20.5,14.4,31.5,21c7.3,4.5,15.1,8.4,23.4,11.8c12,4.8,24.5,7.3,37.8,6c10.3-1.2,20-3.5,28.8-6.9
		c22.6-8.4,42.1-19.4,59.2-32.1c14.1-10.4,19.1-23.3,15-38.2c-2.8-10.4-9.2-20.2-17.1-29.6c-8.3-9.6-17.7-18.8-28.5-27.4
		c-9.2-7.5-18.9-14.5-29.3-21.4l-21.7-14.2L530.4,708.5z M687.2,601l76.3,49.3c10.3,6.6,20.3,13.3,31.6,19
		c7.8,4.1,16.3,7.5,25.3,10.1c9.8,2.8,20.4,2.8,29.3,0.1c7.5-2.2,14.3-5.1,20.3-8.7c10.8-6.5,21.4-13.2,31.9-20.1
		c6-3.9,11.1-8.3,15.4-13.2c10-11.4,13-23.9,7.8-37.7c-3.1-8.1-8.6-15.7-15.2-22.9c-11.6-12.6-26.2-23.6-42.2-33.8
		c-16-10.2-31.9-13.4-50.8-11l-4.6,0.6c-11.1,1.9-21.4,4.9-30.8,8.9c-21,8.5-93.2,58.6-94.4,59.4L687.2,601L687.2,601z M236.1,510.5
		c0,0-108.2,73.2-113.7,77.1c-4.9,3.3-8.8,7.2-11.8,11.5c-1.8,2.4-1.5,5.5,1.1,8c4,4.3,9.2,8.1,15.1,11.2c2.8,1.6,6.4,2.3,9.8,2.1
		c4-0.3,7.9-0.9,11.8-1.8c12.5-3.2,22.8-8.6,31.9-14.9c17.6-12.1,94.9-66.9,94.9-66.9L236.1,510.5z"/>
	<g id="CHECK">
		<polygon id="_x31_" class="st1" points="76.6,511.9 168.1,573.3 164.3,575.7 72.9,514.3 		"/>
		<polygon id="_x32_" class="st1" points="393.7,699.6 485.7,761.4 474.3,769.1 382.2,707.3 		"/>
		<polygon id="_x33_" class="st1" points="598.9,424 690.9,485.8 681.8,491.9 589.7,430.1 		"/>
	</g>
	<circle id="START" cx="112.4" cy="567.4" r="0"/>
</g>
<path id="drive" d="M96.4,550.4c173.7-120.4,345-217,518.8-337.3c5.1-4.7,12.9-9.5,18-14.3c2.8-5.2,11.2-17.8,14.1-22.9
	c0.7-5.4,2-15.8,2.8-21.3c-1.4-5.4-8.6-11.5-10-16.9c-3.2-5.2-20.4-12.4-23.6-17.5c-4.9-4.7-21.5-14.3-28.1-18.2
	c-8.1-3-17.9-8.1-26.1-11c-10-1.7-21.2-4.3-31.3-5.9c-8.6,0.5-23.8,3-32.4,3.4c-7.4,2.3-13.6,6.4-21,8.7
	c-6.5,3.7-10.8,11.1-17.2,14.8C362,200.6,253.9,256.7,155.6,345.3c-3.9,4.6-0.7,17.1-4.5,21.7c-1.6,4.4,6.1,18.4,4.5,22.8
	c0.3,4.2,5.6,7.3,5.9,11.5c2,4,7.6,8.4,9.6,12.6c3.3,4,8.2,7.6,11.5,11.7c27.7,21.9,52.5,39.2,80.2,61.1
	c107.7,71.6,215.4,143.2,323.1,214.7c19.1,14.6,37.9,29.2,56.8,43.7c7.8,8.1,15.7,16.1,23.4,24.2c5.3,8.4,10.8,16.9,16.3,25.3
	c2,8.7,4.2,17.5,6.2,26.3c-2.2,9-4.5,18-6.7,27c-7.5,9.1-15,18.3-22.3,27.4c-10.5,6.1-21,12.3-31.5,18.3c-13,3.1-26.2,6-39.2,9.1
	c-14.5,0.3-29,0.5-43.7,0.8c-15-2.2-29.7-4.3-44.6-6.5c-14.1-4.3-28.1-8.4-42.2-12.7c-12.1-6-24.3-12-36.5-17.9
	c-9.1-7.4-18.3-14.7-27.3-22.1c-5-8.4-10-16.9-15-25.3c-0.1-10.3-0.1-20.5-0.1-30.8c4.9-10.1,9.8-20.1,14.7-30.1
	c8.7-9.7,17.5-19.5,26.2-29.2c11.5-9.3,22.9-18.6,34.4-28c87.6-56.5,175.2-113,262.9-169.5c10.5-5.2,21.2-10.4,31.6-15.7
	c11.2-3.7,22.5-7.3,33.8-11c11.9-1.6,23.9-3.2,36-4.7c12.8,1.1,25.7,2.1,38.6,3.2c6.1,1.5,12.4,2.9,18.5,4.4
	c5.7,1.9,11.5,3.7,17.1,5.6c5.3,2.3,10.5,4.6,15.8,6.8c4.8,2.6,9.5,5.3,14.2,8c4.2,3,8.4,6.1,12.6,9.1c3.6,3.4,7.3,6.8,10.9,10.2
	c3.1,3.8,6.1,7.5,9.1,11.2c2.4,4.1,4.8,8.2,7.1,12.3c1.9,4.9,3.9,9.9,5.7,14.8c1.2,5.7,2.6,11.4,4,17.1c0.7,6.1,1.1,12.3,1.8,18.4
	c-0.3,6.2-0.7,12.6-0.9,18.8c-1.5,6.1-2.8,12.2-4.2,18.3c-2.6,5.6-5.3,11.3-7.9,16.9c-4.1,4.9-8.1,9.7-12.1,14.6
	c-5.6,3.8-11.3,7.6-16.9,11.4c-12.1,3.3-24.3,6.7-36.4,10c-13.3-0.4-26.8-0.9-40.1-1.3c-14.1-3.4-28-6.7-42.1-10.1
	c-14.1-5.4-28.1-10.9-42.2-16.4c-13.6-6.7-27-13.5-40.6-20.2c-47.7-31.3-95.7-62.6-143.5-93.9c-3.4-3.6-6.7-7.1-10.1-10.7
	c-1.8-3.7-3.5-7.4-5.3-11.1c0.1-4,0.3-8,0.5-12c2.4-4.5,4.8-8.9,7.1-13.4c4.9-5.1,9.8-10.2,14.6-15.3
	c41.7-30.4,83.5-60.7,125.3-91.1c5.8-5.5,11.7-11,17.5-16.5c4.8-5.8,9.5-11.6,14.2-17.4c1.9-4.3,3.7-8.6,5.7-12.9
	c0.1-4.5,0.1-8.9,0.2-13.4c-1.5-4.4-3.1-8.8-4.5-13.2c-2.8-4.1-5.9-8.2-8.8-12.3c-4.2-3.6-8.5-7.1-12.7-10.7
	c-5.3-2.8-10.5-5.5-15.9-8.3c-6.2-1.7-12.5-3.5-18.6-5.2c-7-0.5-13.8-0.9-20.9-1.4c-6.7,0.9-13.3,1.7-20,2.6c-6.1,2-12.5,4-18.7,6
	c-5.9,2.9-11.7,5.7-17.6,8.6c-5.4,3.4-11,6.9-16.4,10.4C470.2,429.4,337.4,527,204.7,624.6c-3.7,2-7.5,4-11.3,6
	c-3.9,1.6-7.8,3.2-11.7,4.8c-4.1,1.1-8.1,2.3-12.1,3.4c-4.3,0.6-8.6,1.3-13,1.9c-4.6,0.1-9.4,0.2-14.1,0.3
	c-5.1-0.5-10.1-1.1-15.2-1.6c-5.6-1.2-11.1-2.4-16.7-3.7c-6-2.3-11.9-4.6-17.9-6.9c-3.9-2.9-7.7-5.9-11.6-8.8c-2-3.4-4-6.9-6.1-10.3
	c-0.5-3.8-0.9-7.6-1.5-11.4c0.7-4,1.5-8,2.3-12.1c1.8-4.1,3.4-8.2,5.1-12.3c2.4-4,4.8-8,7.1-12.1C91,558.1,93.6,554.3,96.4,550.4
	L96.4,550.4L96.4,550.4z"/>
<g id="layout">
	<polygon class="st3" points="100,532.5 101.9,531.3 103.8,530.1 107.6,532.7 111.5,535.3 109.7,536.6 107.8,537.7 103.9,535.2 	"/>
	<polygon class="st3" points="111.6,540.3 113.4,539.1 115.4,537.9 119.3,540.5 123.2,543.1 121.2,544.3 119.4,545.5 115.6,543 	"/>
	<polygon class="st3" points="124.9,549.2 126.8,548 128.5,546.7 132.6,549.4 136.4,552.1 134.5,553.2 132.7,554.5 128.7,551.8 	"/>
	<polygon class="st3" points="136.4,557 138.4,555.8 140.3,554.6 144.2,557.2 148,559.8 146.2,561 144.3,562.2 140.4,559.6 	"/>
	<path class="st3" d="M400.3,885.6c-5.9-3.9-11.6-8-16.9-12c-17-13-28.5-24.6-36-36.3c-13.8-21.4-14.4-42.1-1.8-63.1
		c5.4-8.7,12.7-17.1,21.5-24.9c7.1-6.5,73.6-53.8,107.7-78l3.2-2.3l-144.7-97.1l-3.4,2.4c0,0-60.3,42.7-89.7,63.4
		c-11.2,8.2-24.3,15.3-38.4,21.2c-15.3,6.2-30.2,9.8-45.4,11.1c-28.6,2.3-53.8-3.1-77-16.6c-3.1-1.7-6-3.6-8.8-5.5
		c-9.2-6.1-17-13-23.4-20.6c-15.9-19-17-37.3-3.4-56c5.7-7.7,13-14.6,21.7-20.6c4.2-2.9,8.4-5.8,12.6-8.4c3.3-2.2,6.8-4.5,10.2-6.8
		c20.6-13.9,91.1-62.1,91.7-62.5l3.3-2.2l-3.2-2.3c-0.1-0.1-16.3-11.3-22.5-15.9c-14.1-10.4-25.2-22.8-31.9-35.9
		c-8.6-16.6-10.9-33.6-7-52c3.4-15.5,9.9-29.2,21.9-45.7c10.9-15.1,24.2-29,39.4-41.4c8.6-6.9,261.5-185.6,273.4-193.1
		c13.5-8.4,26.1-13.7,41.1-17.3c25.5-6.1,51.3-5,78.8,3.5c13.5,4.2,26.8,10,40.5,17.8c9,5.1,17.5,10.5,25,16.2
		c30.8,23.5,42,49.7,32.7,77.6c-3.7,11.6-11.2,22.8-22.8,34.5c-8.5,8.2-265.5,186.8-363.7,255l-3.2,2.3l45,30.1l277.1-193.7l0.1-0.1
		c3.2-1.8,31.6-17.7,49.4-22.6c11.7-3.3,24.3-5.2,37.4-5.4c21.3-0.3,42.8,4.9,60.3,14.7c3.4,1.9,6.8,3.9,9.9,6
		c13,8.8,22.6,19,28.6,30.6c5.9,11.5,7.1,23.5,3.9,35.8c-3.6,13.9-11.8,26.8-25.1,39.4l-0.1,0.1c-4.2,3-57,38.5-95.6,64.5
		c-24,16.1-48.9,32.9-55.1,37.1c-5.8,3.8-10.5,8.1-14.4,12.8l-0.1,0.1c-7.8,10.3-5.3,20.6,7.3,29.8c4.1,3,14.6,9.5,14.6,9.5l3.4,2.1
		l3.2-2.3c0.5-0.3,47.5-34.3,57-40.4c20.1-12.6,39.8-22.3,60.3-29.5c18.5-6.5,37.1-10.5,55.8-11.9c33.9-2.6,66.3,3.4,95.9,17.9
		c6.5,3.2,13,7,20.8,12.2c3.2,2.2,6.2,4.3,8.8,6.2c21.8,15.3,38.2,30.3,50.5,45.9c12.6,16.2,19.6,32.3,21.1,48
		c1.8,19-4.5,36.6-19.3,53.6c-7.4,8.3-16.2,15.9-26.3,22.6c-13.4,8.9-23.9,15.5-34,21.4c-12.2,7.3-26.4,13-42.2,17.1
		c-27.2,6.9-56.4,5.9-86.4-2.9c-15-4.5-29.9-10.8-45.7-19.4c-11.3-6.1-109.1-68.9-110.1-69.6l-3.4-2.2l-58,38.9l2.6,2.3
		c0.7,0.6,1.6,1.4,1.8,1.6l0.2,0.3l0.7,0.5c7,4.6,13.8,9,20.6,13.6l4,2.7c7.8,5.4,16.1,10.9,23.6,16.6c7.3,5.4,14.4,11.2,21.4,17.5
		c23.7,20.9,39.6,40.7,48.4,60.5c8.1,17.9,9.8,34.4,4.9,50.4c-3.7,12.2-11,23.3-21.4,33.2c-10,9.6-22.6,17.4-34.8,24.4
		c-7.8,4.4-16.3,9.1-24.8,13.3c-20.2,9.9-39.8,16.5-60.3,20.3c-36.3,6.6-72.7,2.6-108-11.9c-13.6-5.7-26.4-12.4-38.2-19.7
		C411.2,892.8,405.7,889.2,400.3,885.6z M333.1,568.8l149.6,100.3l-5.4,3.9c-34.1,24-100.4,71.3-107.5,77.7
		c-8.6,7.6-15.8,15.8-21.1,24.4c-12.2,20.4-11.7,40.5,1.8,61.2c7.4,11.5,18.7,22.9,35.5,35.7c5.3,4,11,8,16.8,11.9
		c5.3,3.6,10.9,7.1,16.6,10.6c11.7,7.3,24.3,13.8,37.7,19.4c34.5,14.2,70,18.2,105.2,11.7c20-3.7,39.2-10.2,59.1-20
		c8.5-4.2,16.8-8.8,24.6-13.3c12-6.9,24.4-14.5,34.2-23.9c10.2-9.6,17.2-20.5,20.9-32.3c4.6-15.7,3.2-31.8-4.8-49.3
		c-8.7-19.5-24.4-39.1-47.9-59.8c-7-6.2-14.1-12.1-21.3-17.3c-7.5-5.6-15.7-11.1-23.5-16.5l-4-2.7c-6.8-4.6-13.5-8.9-20.5-13.6
		l-0.9-0.6l-0.5-0.4c-0.2-0.2-1-0.9-1.7-1.5l-4.4-3.8l62.4-41.9l5.8,3.7c0.9,0.6,98.7,63.4,109.9,69.4c15.4,8.4,30.3,14.7,44.9,19
		c29.3,8.6,57.5,9.5,83.9,2.9c15.4-4,29.1-9.6,41.2-16.6c10-5.9,20.4-12.4,33.8-21.3c10-6.6,18.6-14,25.7-22.1
		c14.4-16.6,20.5-33.8,18.8-52.4c-1.4-15.3-8.4-31.2-20.6-47.1c-12-15.4-28.4-30.2-49.8-45.4c-2.6-1.8-5.7-4-8.8-6.1
		c-7.5-5.1-14.1-8.9-20.4-11.9c-28.9-14.2-60.3-20.1-93.6-17.5c-18.3,1.5-36.5,5.4-54.7,11.7c-20.2,7.1-39.8,16.7-59.5,29.1
		c-9.5,6.1-56.5,39.9-57,40.3l-5.4,4l-5.9-3.7c-0.1-0.1-7.3-4.5-12.1-7.7c-1-0.7-2-1.3-2.6-1.9c-13.8-9.9-16.6-21.1-7.8-32.4
		l0.1-0.1c4-4.9,9.1-9.4,15-13.3c6.4-4.3,31.1-21,55.1-37.1c38.2-25.8,90.7-61,95.4-64.3c12.9-12.2,20.9-24.9,24.4-38.4
		c3.2-11.9,1.9-23.7-3.7-34.8c-5.7-11.1-15-21.1-27.8-29.7c-2.9-2-6.2-4-9.6-5.8c-16.9-9.4-37.4-14.5-58.1-14.2
		c-12.7,0.2-24.7,2-36.2,5.2c-17.1,4.8-44.9,20.2-48.4,22.2L326.4,507.6l-49.9-33.4l5.6-3.9c98.1-68.1,355-246.6,363.3-254.7
		c11.3-11.5,18.6-22.5,22.2-33.7c8.8-27.2-1.9-52.6-32-75.6c-7.4-5.6-15.8-11-24.6-16c-13.6-7.7-26.4-13.5-39.7-17.5
		c-26.7-8.2-51.6-9.4-76.2-3.4c-14.5,3.5-26.8,8.7-39.8,16.8c-11.9,7.4-264.6,185.9-273.1,192.9c-15.1,12.3-28.2,26-39,40.9
		c-11.9,16.2-18.3,29.7-21.5,45c-4,18.1-1.8,34.8,6.8,51c6.6,12.8,17.5,25,31.3,35.2c6.1,4.6,22.2,15.8,22.3,15.9l5.6,3.8l-5.6,3.8
		c-0.7,0.4-71.1,48.6-91.7,62.5c-3.4,2.3-6.9,4.6-10.3,6.9c-4.1,2.7-8.4,5.5-12.5,8.4c-8.4,5.8-15.5,12.5-21.1,20
		c-13,17.9-12,35.5,3.3,53.9c8.2,9.6,18.8,18.2,31.5,25.4c22.5,13,46.7,18.3,74.4,16c14.6-1.2,29.1-4.7,44.1-10.8
		c14.1-5.8,26.8-12.8,37.8-20.8c29.3-20.7,89.7-63.4,89.7-63.4L333.1,568.8z M442.2,854.9c-5.1-3.4-9.4-6.6-13.6-9.7
		c-6.1-4.9-13.9-11.4-19.7-19c-6.8-8.8-8.1-18.8-3.4-27.5c3.6-7.3,9.2-14,16.4-20c6.7-5.6,13.2-10.7,19.7-15.4
		c11.2-8.1,22.6-16.1,33.8-23.9c5.6-4,11.2-8,16.8-11.9l30.6-21.5l7.4-4.9l9.2,5.9l21.7,14.2c10.8,7.2,20.6,14.3,29.8,21.7
		c10.9,8.7,20.6,18.2,29.4,28.2c9.8,11.5,15.4,21.4,18.1,31.3c4.5,16.7-1,31.2-16.9,42.9c-18.5,13.7-39.1,24.9-61.1,33.1
		c-9.5,3.7-20.1,6.3-31.5,7.6h-0.1c-14.4,1.5-28.4-0.8-43.2-6.7c-8.6-3.6-16.9-7.7-24.5-12.4C453.2,862.1,447.5,858.4,442.2,854.9z
		 M530.4,704l-5,3.3l-30.6,21.5c-5.6,4-11.2,8-16.8,11.9c-11.1,7.9-22.6,15.9-33.8,23.9c-6.6,4.7-12.9,9.7-19.6,15.3
		c-7,5.8-12.4,12.3-15.9,19.3l0,0c-4.3,8.1-3.2,17.4,3.3,25.7c5.6,7.4,13.3,13.8,19.3,18.6c4,3.1,8.4,6.3,13.3,9.6
		c5.2,3.5,11,7.2,18.6,11.7c7.5,4.6,15.5,8.6,24,12.2c14.1,5.7,27.6,7.8,40.9,6.4h0.1c10.9-1.3,21.1-3.7,30.3-7.3
		c21.9-8.1,42.2-19.1,60.4-32.7c15-11.1,20.4-24.9,16-40.9c-2.6-9.6-8.2-19.4-17.7-30.6c-8.5-9.9-18.3-19.3-28.9-27.8
		c-8.4-6.8-17.2-13.3-27-19.9c-0.9-0.6-1.7-1.1-2.6-1.7l-21.7-14.2L530.4,704z M115,618.4c-3.9-2.6-7.3-5.4-10-8.4
		c-4.1-4-4.8-9.2-1.7-13.3c3.2-4.8,7.7-9.1,13.3-12.9c4.8-3.3,80.2-54.3,112.4-76.1l7.3-4.9l50.2,33.8l-5.4,3.9
		c-0.8,0.5-77.6,54.9-95,67c-11.1,7.7-22.6,13.1-34.7,16.2h-0.5c-4.3,1-8.8,1.7-13.5,2h-0.1c-5.6,0.4-11.2-0.9-15.7-3.3
		C119.4,621.2,117.1,619.8,115,618.4z M236.1,505.9l-4.9,3.3C199,531,123.7,582,118.9,585.3c-5.3,3.6-9.5,7.7-12.7,12.3
		c-2.6,3.4-2,7.7,1.5,11.1l0.1,0.1c4.2,4.4,9.6,8.5,16,11.9c3.7,2.1,8.6,3.1,13.2,2.8h0.1c4.3-0.3,8.6-1,12.7-1.9l0.2-0.1
		c11.7-3,22.7-8.1,33.5-15.7c17.4-12,94.2-66.4,94.9-66.9l3.2-2.2L236.1,505.9z M213.1,431.7c-4.9-3.3-10.5-7.3-15.3-12
		c-10-9.8-14.4-19.9-14.3-32.5c0.1-10.5,3.6-21.1,10.8-33.6c7.4-12.3,16.6-23.7,27.4-34.2c7.5-7.3,258.3-186.3,279.4-199.5
		c5.3-3.3,11.1-6.1,17.4-8.3c9.8-3.7,22-3.7,32.9-0.1c8.2,2.6,15.9,6,22.9,10.1c4.5,2.6,8.4,4.9,12,7.4c5.1,3.4,9.2,6.7,12.5,10
		c7.8,7.7,11,17.2,8.6,25.9c-1.8,7.5-6,14.6-13.8,23c-7,7.4-354.6,248.2-358,250.7l-5.8,4l-5.9-3.9c-1.7-1.1-3.4-2.3-5.1-3.3
		l-0.1-0.1C216.6,434.1,214.9,432.9,213.1,431.7z M583.8,130.7c-3.6-2.4-7.5-4.7-11.9-7.3c-6.7-4-14.2-7.3-22.1-9.8
		c-9.9-3.3-21-3.3-29.7,0.1l0,0c-5.9,2.2-11.6,4.8-16.7,8C482.3,134.9,232,313.6,224.6,320.9c-10.7,10.3-19.7,21.6-27,33.7
		c-7,12.1-10.3,22.5-10.4,32.7c-0.1,12.1,4,21.7,13.6,31.2c4.5,4.6,10.1,8.5,14.9,11.7c1.8,1.2,3.5,2.4,5.3,3.5l0.1,0.1
		c1.7,1.1,3.4,2.2,5.2,3.4l3.4,2.3l3.3-2.3c3.4-2.4,350.9-243.2,357.7-250.3c7.5-8.1,11.7-14.9,13.4-22.1c2.2-8.2-0.8-17.1-8.2-24.3
		C592.6,137.1,588.7,134,583.8,130.7z M374.6,540l6.1-4.4c26.1-18.2,255.3-178.6,271-189.5c8.8-6.2,19.1-11.2,30.5-14.8l0.5-0.1
		c4.5-1.2,8.4-2,12.2-2.5c6.6-1.1,13.8,0.3,18.9,3.8l0.3,0.2l0.5,0.3c9.4,6.3,13.3,12.6,12.6,20.3c-0.7,6.8-3.7,13.5-9.4,21
		l-0.1,0.2c-2.9,3.5-5.9,6.2-9.5,8.6l-141,94.6c-12.6,8.4-21.2,16.4-27.2,25.1c-11.5,16.8-12.4,33.6-2.8,51.2
		c5.9,11.2,16,21.8,29.1,30.6c0.3,0.2,0.7,0.5,1.1,0.8l18.7,12.5l-58,39.8h-7.5l-0.5-0.3L374.6,540z M711.7,334.1
		c-4.2-2.9-10.3-4.1-15.8-3.1l-0.1,0.1c-3.6,0.5-7.4,1.3-11.8,2.4l-0.2,0.1c-11.1,3.4-21,8.2-29.6,14.3
		c-15.8,10.9-245,171.3-271,189.5l-3.9,2.7l142.6,95.4h4.8l54.7-37.7l-16.3-10.9c-0.5-0.3-0.7-0.5-1.1-0.8
		c-13.5-9-23.7-19.9-29.8-31.4c-9.8-18.2-8.8-35.5,2.9-52.9c6.1-8.9,15-17.1,27.8-25.8l141-94.6c3.4-2.2,6.1-4.7,8.8-8l0.1-0.1
		c5.6-7.2,8.5-13.6,9.2-20c0.7-7-2.9-12.8-11.7-18.6l-0.5-0.3L711.7,334.1z M677.2,602.1l8.1,1.2l-5.1-5.4l1.8-1.2
		c22.3-15.4,76.4-52.1,95-59.7c10-4.3,21.2-7.4,33.1-9.5h0.1l5.1-0.7c22-2.8,40.4,1.1,58.1,12.4c2.4,1.5,4.8,3.1,7,4.6
		c15.2,10.2,27.1,20.1,36.5,30.3c8.1,8.7,13.3,16.7,16.2,24.4c5.6,14.8,2.7,28.9-8.6,41.8c-4.5,5.3-10.3,10.1-16.8,14.4
		c-10.4,6.9-21.2,13.7-32.1,20.2c-6.7,4-14.3,7.2-22.5,9.6c-10.9,3.3-23.9,3.3-35.7-0.1c-9.8-2.8-18.9-6.5-27.2-10.8
		c-10-5.1-18.9-10.9-27.6-16.5c-1.5-1-3.1-1.9-4.5-3L677.2,602.1z M684.6,598.1l7.9,8.6l-4.2-0.6l71.9,46.4c1.5,1,3.2,2,4.5,3
		c8.6,5.5,17.5,11.3,27.3,16.3c7.9,4.3,16.9,7.8,26.4,10.5c10.9,3.1,22.9,3.1,33,0.1c7.8-2.3,15.2-5.3,21.5-9.2
		c10.8-6.5,21.5-13.3,32-20.2c6.2-4.1,11.7-8.8,16.2-13.9c10.8-12.3,13.6-25.8,8.3-40.1c-2.8-7.5-8.1-15.3-15.8-23.8
		c-9.2-10-21-19.8-36-29.9c-2.3-1.5-4.5-3-6.9-4.5c-16.8-10.7-34.2-14.5-54.9-11.8l-4.9,0.7c-11.6,2-22.3,5.1-32.2,9.3
		C760.4,546.3,706.8,582.7,684.6,598.1z"/>
</g>

</svg>
