<?xml version="1.0" encoding="utf-8"?>
<!-- Generator: Adobe Illustrator 21.0.2, SVG Export Plug-In . SVG Version: 6.00 Build 0)  -->
<svg version="1.1" id="SCENE_1" xmlns="http://www.w3.org/2000/svg" xmlns:xlink="http://www.w3.org/1999/xlink" x="0px"
	y="0px" viewBox="0 0 1024 1024" style="enable-background:new 0 0 1024 1024;" xml:space="preserve">
	<style type="text/css">
		.st0 {
			fill: #FFFFFF;
		}

		.st1 {
			display: none;
		}

		.st2 {
			fill: #64566D;
		}

		.st3 {
			fill: rgba(255,255,255,0.7);
		}
	</style>
	<rect id="BACKGROUND_grass" y="0" width="1024" height="1024" />
	<g id="OBSTACLES">
		<path id= "00_stone" class="st0" d="M55.2,390.9c12-23.7,21.8-99,109.8-101s129.6,28.5,183.3,185.8c13.3,38.8-2.5,96.9,7.7,118.7
		c31.1,66.4,75.7,35.6,82.3,32.5c8.7-4,37.7-31,15.7-86s-75-167.9-99-193c-24-25.1-85.9-71-109-94s-76-162-104-173s-142,69-142,69
		v435.8c0,0,102,180.2,116,152.2s-5-83-18-112S16.2,467.9,55.2,390.9z"/>
	<path id= "01_stone" class="st0" d="M177.2,402.6c-5.5,0-7.8,2.2-9.3,4.4c-12,17.3-1,80,27.4,156.1c5.2,13.6,11.7,27.3,17.9,40.6c9.2,19.5,18.7,39.7,25,61.1
		c10,33.8,9.6,66.9,9.1,98.8c-0.1,10.4-0.3,21.1-0.1,31.8c0.1,2.9,0.1,6.2,0.1,9.6c0.2,23.4,0.4,58.9,13.7,73
		c14.1,15.1,50.5,15.8,77,16.4c5.7,0.1,11.1,0.2,15.9,0.5c2.3,0.1,4.6,0.2,6.8,0.2c52.6,0,73.9-32.8,100.8-74.3
		c8.1-12.5,16.4-25.4,26.2-38.1c46.8-61.4,112-66.5,186.2-66.7h0.5c30.1,0,50.9,5.9,72.9,12c11.5,3.2,23.3,6.6,37,9.2
		c5.3,1,11.2,2.9,17.6,5c8.9,2.9,19.1,6.1,25.9,6.1c2.7,0,3.8-0.5,4-0.7c0,0,1.1-1.2,0.8-5.9c-0.6-13.3-13.1-27.8-36.9-43.1
		c-22.5-14.5-51.6-27.2-74.9-37.5c-16-7-29.8-13.1-38.9-18.5c-47.5-28-76.9-63.8-82.7-100.9c-4.5-28.7,5.1-56.4,28.3-82.4
		c40.4-45.1,81.4-48.8,125-52.8c17.5-1.6,35.6-3.2,54.8-7.6c25.3-5.7,39.6-19.6,44.9-43.8c5-22.9,1.5-51-1.8-78.2
		c-0.7-6-1.4-11.7-2.1-17.3c-0.4-3.3-0.7-8.2-1-14.5c-1-16.2-2.5-40.6-6.6-60.7c-4.8-23.4-10.9-29.5-13.4-29.5h-0.1
		c-5.1,0.2-12.6,9.7-18.1,35.8c-4.9,23.1-6.7,50.4-7.9,68.6c-0.4,6.4-0.8,11.4-1.1,14.8c-4.4,39.9-23.7,74.1-56,99
		c-30.1,23.2-69.4,36-110.6,36c-7.1,0-14.3-0.4-21.4-1.1c-81.4-8.6-120.6-72.3-145.5-126.8c-14.8-32.2-25.5-57.6-29.1-90.7
		c-2.2-19.8-20.2-42-41-42c-6.8,0-13.5,2.4-19.9,7.1c-10.8,8-16.4,16.7-17.2,26.6c-2,27.2,31.9,61.3,56.7,86.1
		c10.6,10.6,19.7,19.8,25.6,27.7C492,363.2,552.6,451.6,575,538.7c12.9,50.2,7.7,95.9-14.8,132.3c-22.5,36.3-61.1,61.1-111.5,71.9
		c-18.6,4-36.5,6-53.1,6c-84.2,0-137.6-50.6-150.4-142.6c-1.5-10.6-2.8-21.3-4-31.7c-3.6-30.4-7-59.2-15.5-87.7
		c-0.5-1.7-1.1-3.7-1.7-6c-3.2-11.2-8.6-29.9-15.2-46.2c-10.2-25.2-16.9-28.8-18.1-29.3C185.3,403.6,180.9,402.6,177.2,402.6z"/>
	<path id= "02_stone" class="st0" d="M641,300.6c20.3,1.7,66,4.7,62.7-39.3c-3.3-44-9.3-110,20.7-156s54.7-65.3,89.3-66c34.7-0.7,116-8.9,136.7,131.5
		c20.7,140.5,22,169.8,19.3,188.5c-2.7,18.7-0.7,80-34.7,105.3c-34,25.3-72.7,47.9-106.7,50.3S707.6,504.8,693,540
		s161.7,63.3,161.7,63.3s33,4.7,70.3,78s25.3,104,25.3,104s-18,67.3-72,76.7c-54,9.3-76,2-110.7-17.3c-34.7-19.3-91.3-47.3-136-22.7
		c-44.7,24.7-62,33.3-82,64c-20,30.7-58.7,84.7-74.7,95.3c-16,10.7-35.3,26.7-76,27.3s-99.3,6-152-13.3c-52.7-19.3-82-41.3-95.3-78
		c-13.3-36.7-18-88.7-16-126c2-37.3-8.6-103.4-26.6-137.3C91,620,0,574.6,0,574.6V1024h1024V0H0v194l214.9,7.1
		c0,0-15.9-20-15.9-52.5s22.7-80.5,61.3-97.2s88-46.2,186-20.4s117.3,79.1,122,96.4c4.7,17.3,14.7,84,16,103.3
		C585.7,250,601,297.3,641,300.6z"/>
	</g>

	<g id="ROAD">
		 <path id="TRACK_asphalt" class="st2" d="M386.9,1001.9c-68.6,0-165.4-0.2-210.3-60.3c-53.9-72.1-18.7-160.9-38.1-240.1
		c-15.7-64.4-56.4-122.6-74.9-186.7c-25.7-89,5.8-215,118.3-216.7C281.7,296.5,319,412.4,336,493.3c11.8,56-10.9,151.7,65.5,148.6
		c128.7-5.3,54.9-132.8,20.6-202.5c-23.4-47.6-50.4-94.9-91.4-129.6c-34.1-28.9-79.4-54.1-101.5-94.8
		C133.3,37.8,452.3-32.8,541.2,99c19.7,29.2,27.7,52.3,29.8,87.9c1.2,20.5,3.2,71.8,15.7,93.4c16.9,29.1,89.5,44,113.1,16.7
		c18.7-21.7,9.8-62.2,9.9-88.8c0.3-83.5,54-193.8,156.6-150.6c71.6,30.2,78.4,110.9,85.9,178c8.5,76.6,23.7,168.6-38.5,227.5
		c-27.9,26.5-65.1,37.5-102.4,42.4c-30.9,4-91.4-6.3-114.6,18.3c-48.3,51.1,102,74.2,130.9,86c88,35.7,173.8,174.7,54.9,235.9
		c-57.5,29.6-98.4-5.9-146.3-32.6c-35.8-19.9-77.8-11.2-116.2,2.6C521.5,850.9,514.7,1001.9,386.9,1001.9z M186,566.6
		c13,34.1,32.3,65.9,42.6,101c12.7,42.9,7.8,84.2,8.6,128c0.5,24.8-1.6,70,16.5,89.3c20.4,21.8,71.5,18.6,99.7,20
		c81.2,4.1,98.7-59.1,142.2-116.2c44.1-57.9,106.4-62.6,178.2-62.8c44.6-0.1,68.2,13.4,108.5,21c20.6,3.9,61.7,26.4,60.1-5.8
		c-2.5-50.7-120.4-86.5-155.6-107.2c-67.5-39.7-108.9-104.4-52-168c53.2-59.4,106.1-41.9,174.5-57.2c72.4-16.3,55.1-92.3,48.8-150.2
		c-2.2-20.1-2.7-114.8-31.5-113.7c-33.1,1.3-34.3,106.2-36.8,128.1c-9.3,84.3-90.6,134.1-177,124.9c-69.2-7.3-107.9-56.5-137.5-121
		c-15.1-32.9-24.9-56.9-28.3-87.6c-3.7-33.5-41.8-67.7-76.8-41.8c-65.2,48.3,37.5,120.3,63.1,154.5c52.1,69.6,110,155.1,131.6,239.2
		c24.6,95.9-20.6,171-118.8,191.9c-107,22.8-176.8-22.5-191.5-128.2c-5.7-40.6-8.1-81.2-19.8-120.8c-5.3-18.1-21.6-80.7-41.1-88
		C113.2,366.2,175.3,537.9,186,566.6z M535.5,225.6L535.5,225.6L535.5,225.6z"/>
	<circle id="START" cx="160" cy="579.9"  r="3.4" class="st1" />
	<g id="CHECK">
		<rect id="1" x="73.1" y="558" class="st0" width="114.8" height="4.1" transform="rotate(-15, 130.5, 560.05)"/>
		<rect id="2" x="472" y="268.1" class="st0" width="114.8" height="14.3"/>
		<rect id="3" x="833.3" y="733.7" class="st0" width="114.8" height="14.3"/>
	</g>
	</g>
	<path id="drive" class="st2" d="M120.5,589.4L96.6,489.4l-4.4-58.9l2-30.5l7.6-27.3l14.6-22.7l20.2-15.8l28.8-10.8l31.1,2.9
	l23.4,14.6l20.9,21.5l17.8,25.7l14.2,27.2l10,26.2l5.4,23.1L304.9,579l7.7,27.1l11,23.6l15.2,18.7l16.5,10.3l21.2,6.6l24.3,3.2h25.8
	l25.7-3l24-5.7l20.7-8.3l15.9-10.5l27.5-43.7l1.2-52.1L522.5,488l-42.2-57.7l-86-95.3l-84.7-85.3l-27.3-54l-1.3-50l18-41.3
	l40.7-24.7l61.3-9.3l54,8l32.7,25.4l18.8,35.3l10.5,44l1.3,56l4.1,50.7l19.3,23.2l20,19.3l24.7,15.9l24.5,9.3l23.8,2.9l26.4-0.6
	l20.7-3.3l30-13.3l18-24.7l14.3-28.8l6-29l-2.3-93.5l5.9-27.5L768,117l22.5-15.1l32.9-5.8l29.8,4.3l22.2,12.5l15.8,18.9l10.5,23.7
	l6.4,26.9l6.4,114l-1.8,27.6l-4.8,24.2l-8.6,21.1l-13.1,18.5L867.8,404l-24.5,14.3L812,430.9L718.2,453l-21.5,9.5l-17.9,13.8
	L666.1,496l-6.1,26.7l3.8,29.3l14.6,23.1l22.8,18l28.4,14L847,644.9l17.9,11l15.5,15.6l11.7,18.9l6.7,21l0.3,21.7l-7.3,21.2
	l-16.3,19.4L849,789.9l-16.3,5l-18.3,1.9l-19.7-0.5L699,780.9l-17.2-1.3l-17,0.5l-16.9,2.2l-16.6,3.8l-16.4,5.3l-16,6.6L568,814.9
	l-27.5,19.8L456.6,915l-23.5,16.6l-28.2,13.7l-34.6,10l-29.7,4.1l-28.3-0.3l-26.5-4.7l-24.2-9.1l-21.5-13.6l-18.4-18.1L207,890.9
	l-10.9-27.1l-34-141L138.6,634L120.5,589.4z"/>
	<g id="layout">
		<polygon class="st3" points="98.2,570.7 97.5,568.3 96.9,565.9 102.1,564.5 107.3,563.1 108,565.5 108.6,567.9 103.4,569.3 	"/>
		<polygon class="st3" points="119.1,565.1 118.4,562.7 117.8,560.3 123,558.9 128.2,557.5 128.8,559.9 129.5,562.3 124.3,563.7 	"/>
		<polygon class="st3" points="139.9,559.5 139.3,557.1 138.6,554.7 143.9,553.3 149.1,551.9 149.7,554.3 150.4,556.7 145.1,558.1 	"/>
		<polygon class="st3" points="160.8,553.9 160.2,551.5 159.5,549.1 164.7,547.7 169.9,546.3 170.6,548.7 171.2,551.1 166,552.5 	"/>
	</g>
</svg>