<?xml version="1.0" encoding="utf-8"?>
<!-- Generator: Adobe Illustrator 21.0.2, SVG Export Plug-In . SVG Version: 6.00 Build 0)  -->
<svg version="1.1" id="SCENE_1" xmlns="http://www.w3.org/2000/svg" xmlns:xlink="http://www.w3.org/1999/xlink" x="0px"
	y="0px" viewBox="0 0 1024 1024" style="enable-background:new 0 0 1024 1024;" xml:space="preserve">
	<style type="text/css">
		.st0 {
			fill: #FFFFFF;
		}

		.st1 {
			display: none;
		}

		.st2 {
			fill: #64566D;
		}
	</style>
	<rect id="BACKGROUND_grass" y="0" width="1024" height="1024" />
	<g id="OBSTACLES">
		<path id="01_stone" class="st0" d="M969.3,703.5c-11.3-18.2-27.5-32.1-46.9-40.3c-16.1-6.7-33.4-9.8-54.7-9.8
		c-1.8,0-3.7,0-5.5,0.1c0.3-1.9,0.7-3.8,1-5.6c17.2-1.7,33.4-7.1,48-16.1c24.2-15,43.7-40.1,54.9-70.8c10.8-29.6,13.4-63.3,7.2-94.7
		c-8.4-43-30-71.3-64.2-84.2c-10.6-3.9-19.6-6.7-28.3-8.7c-2.7-0.6-5.4-1.2-8.1-1.7c6.9-1.3,13.7-3,20.6-5.4
		c33-11.3,57.7-29.9,75.4-56.9c20.8-31.8,29.2-69.7,25.1-112.6c-5.4-56.5-27.5-99.5-65.8-128c-22.6-16.8-47.8-25-77.3-25
		c-5,0-10.2,0.3-16.2,0.8c-31.6,3.1-59.7,15.2-83.3,35.8c-20.5,17.9-36.8,40.1-48.5,66c-10.9,24-18.1,51.7-21.5,82.5
		c-0.7,6.3-1.3,12.8-1.8,19.7l-154.6,2.4v10l163.9-2.5c0.1-1,0.1-2,0.2-3c0.6-8.8,1.3-17.1,2.2-25.5c3.3-29.8,10.3-56.5,20.7-79.4
		c11.1-24.6,26.6-45.7,46-62.6c22.1-19.3,48.3-30.5,77.7-33.4c5.2-0.5,10.3-0.8,15.2-0.8c27.2,0,50.5,7.5,71.3,23
		c35.9,26.7,56.7,67.4,61.8,120.9c3.9,40.6-4,76.3-23.5,106.2c-16.4,25.1-39.4,42.4-70.2,52.9c-21.9,7.5-44.1,8.4-66.8,8.7
		c-10.9,0.2-21.9,0.3-32.8,0.5l-13.6,0.2v9.4c1,0,1.9,0,2.7,0c6.6-0.2,12.7-0.3,18.7-0.3c30.8,0,56.4,2.5,80.4,7.8
		c7.9,1.8,16.5,4.4,27,8.3c30.7,11.5,50.2,37.2,57.9,76.7c5.8,29.7,3.4,61.4-6.8,89.4c-10.4,28.4-28.4,51.8-50.8,65.7
		c-13.9,8.6-29.5,13.7-46.4,14.9c-2.5,0.1-3.6,0.4-4.1,0.5c-0.3,0.6-0.9,2.1-1.7,5.7c-1.3,6.3-2.3,12.8-3.3,19.6
		c5.5-0.3,11.4-0.5,17.3-0.5c20,0,36.2,2.9,50.9,9c17.4,7.3,32,19.8,42.2,36.3c10,16.2,15.9,36.4,16.8,58.3
		c2.2,49.6-3.1,91.5-16,128.2c-13,36.8-33.4,61.2-60.6,72.5c-11,4.6-22.4,6.9-33.9,6.7c-18.6,0-36.4-6-51.5-17.5
		c-16.9-12.8-29.9-31.7-38.8-56.3c-7.7-21.3-12.4-44.9-14.7-74c-0.9-11.7-2.5-40.7-2.5-40.7s-72.4,10.8-87.7,13l-2.5,0.4
		c-34.6,5-70.3,10.2-105.5,14.9l-2.2,0.3c-9.4,1.3-19,2.6-28.8,2.6c-8.8,0-16.7-1-24.1-3.2c-27.9-8.1-49-28.8-62.8-61.6
		c-2.3-5.4-4.4-11-6.2-16.8c0.2,20.4,0.4,41.3,0.6,61.8c0.5,36.4-7.7,69-23.6,94.4c-16.3,26-40.4,44-69.6,52.2
		c-14.7,4.1-29.4,6.2-43.9,6.2c-19.3,0-38.5-3.6-57-10.9c-47.4-18.6-77.1-60.5-88-124.4c-5.1-29.7-4.8-59.8-4.5-89v-4.8
		c0.2-18.8,0.4-37.6,0.5-56.4c0.1-20.7,0.3-42.1,0.5-63.2c-24.3-8.3-44-21.3-60.4-39.9C69,532.7,55,496,53,452.3
		c-1.4-30.3-1.7-61.1-2-90.9l-0.1-12.6c-0.2-27.8-0.5-56.5,0.4-84.8c1.1-34.9,6.7-65.2,17.1-92.6c17.9-47.1,49.3-77.9,93.5-91.5
		c17.5-5.4,36.6-7.9,59.9-7.9c2.4,0,4.9,0,7.4,0.1c29.3,0.6,60.7,2.2,92,9.8c21.3,5.2,38.3,12.2,53.6,22.2
		c34.7,22.5,54.5,58.5,59.1,107c1.3,13.7,1.7,27.2,2.1,41.5c0.1,3.2,0.2,6.6,0.3,9.9l79.4-1.2v-10l-69.7,1.1l0,0
		c-0.4-13.7-0.8-27.8-2.1-42.2c-4.9-51.8-26.3-90.3-63.6-114.4c-16.2-10.6-34.2-18-56.7-23.5c-32.2-7.8-64.2-9.5-94.1-10.1
		c-2.7-0.1-5.2-0.1-7.7-0.1c-24.4,0-44.4,2.7-62.8,8.3c-47.2,14.5-80.8,47.3-99.9,97.5c-10.8,28.5-16.6,59.8-17.7,95.8
		c-0.8,26.5-0.6,53.2-0.4,79.2l0.2,19.5c0.3,29.6,0.6,60.3,2,90.5c2.1,45.9,16.9,84.7,43.9,115.5c16,18.1,35,31.3,57.8,40.3
		c-0.2,17.8-0.3,37.3-0.4,56.2c-0.1,18.9-0.3,37.9-0.5,56.3l0,4.9c-0.3,29.6-0.6,60.1,4.6,90.7c11.5,67.6,43.2,112,94.2,132
		c19.5,7.7,39.9,11.6,60.7,11.6c15.3,0,31-2.2,46.6-6.6c31.7-8.9,57.8-28.4,75.4-56.5c17-27.1,25.6-61.6,25.1-99.8l-0.2-15.7
		c14.3,21.3,32.9,35.4,55.7,42c8.2,2.4,17,3.6,26.9,3.6c10.7,0,21-1.4,30.2-2.7l2.2-0.3c32.2-4.3,65-9,96.7-13.6l8.9-1.3l2.6-0.4
		c11.7-1.7,56.1-8.3,76.8-11.4c0.5,9.5,1.3,22.8,1.9,30c2.4,30,7.2,54.4,15.3,76.6c9.6,26.4,23.8,46.9,42.1,60.9
		c16.8,12.8,36.6,19.5,57.5,19.5c0.5,0,1,0,1.5,0h0c12.3,0,24.5-2.5,36.4-7.5c29.9-12.4,52.2-38.8,66.2-78.4
		c13.4-38.1,18.8-81.3,16.6-131.9C986.6,743.2,980.3,721.4,969.3,703.5z" />

	<path id="02_stone" class="st0" d="M876.5,495.9c-1.4-0.4-2.9-0.9-4.3-1.3c-3.9-1.2-7.5-2.4-11.1-3.1c-23.1-4.8-46.4-5.4-64-5.4
		c-4.3,0-8.9,0-14.2,0.1c-1.6,0-3.2,0-4.8,0c0,7.3,0.1,14.5,0.2,21.6c0.2,16.5,0.4,33.7-0.3,50.5c0,1.1-0.1,2.1-0.1,3.1L751,648
		c-2,3-4.1,5.9-6.3,8.7c-6.2,7.9-6.1,14.9-21.5,19.7c-15.4,4.8-101.8,15.1-111.9,15.3s-12.3-2.6-17.5-5.8
		c-28.1-17.5-48.2-43.6-60.2-77.8l-2.7-122.5c10.8-31,30.8-57,57.7-72.5c19.1-11,39.4-15.6,59-20.1l3.5-0.8
		c10-2.3,20.1-4.1,29.9-5.9c1.7-0.3,3.5-0.7,5.3-1v-16l-248.1,3.6v33.8c34.1,5.3,58.5,26.6,72.6,63.8c2.6,6.8,4.7,13.9,6.4,21.3
		l2.4,109.8c-0.7,20.4-0.8,41.1,1,61.4c1.2,13.6,3,28,8,41.3c2.1,5.7,8.3,13.6,8.6,13.6c6.7-0.8,222-32.3,222-32.3l0.2-7.5
		c0,0,0.6-9.3,1.8-21.2l27.9-90c9.4-12.8,21-22.1,34.8-28.2c10.1-4.4,20.4-6,30.3-7.6l3-0.5C871.2,528.1,879,514,876.5,495.9z"/>
	<path id="03_stone" class="st0" d="M304.6,842.8c-10.2,0-20.4-2-30.6-5.9c-13.2-5.1-21.3-17.5-24.5-37.8c-2.3-14.9-3.4-26.8-3.5-37.4
		c-0.1-39,0.3-78.7,0.6-117.1c0.1-12.2,0.2-24.5,0.3-36.7c0.1,0,0.1,0,0.2,0c5.6-1.3,11.3-2.7,17.1-4.4c23.8-7,45.4-18.8,64.4-35.1
		c4.3-3.7,8.8-7.1,13.3-10.8c6.5-5.4,5.5,4.3,5.5,6.9c0.7,79.5,1.3,159,2,238.5c0.2,26.3-10.6,32.9-20.1,35.8
		C321.1,841.6,312.8,842.8,304.6,842.8z"/>
	<path id="04_stone" class="st0" d="M156.5,482c-6.7-8-10.4-18.5-11.2-31.7c-0.9-13.9-1-28.4-1.1-42.3
		c0-5.8-0.1-11.8-0.2-17.7c-0.2-9.8-0.4-19.7-0.6-29.4c-0.5-24.8-1-50.2-0.8-75.3c0.2-18.1,2.7-36.7,4.9-50.7
		c4.6-29.3,18.5-45.5,42.7-49.7c11.4-2,24.1-3,37.3-3c0.5,0,1.1,0,1.6,0c26.3,0.2,54.3,1.4,81.3,9.4c6.7,2,13.3,5,18.9,7.7
		c8.8,4.3,13.4,12.1,14.1,24.2c0.7,11.4,1.1,22.9,1.5,34.9c0.1,1.9,0.1,3.8,0.2,5.8c-3.6,0-7.3,0-10.9,0c-20.1,0-41,0.1-61.8,4.4
		c-36.6,7.5-63.2,23-83.6,48.6c-23.1,28.8-33.6,64.2-32.3,108.1c0.5,17.3,0.2,35.1-0.1,52.2C156.5,478.9,156.5,480.5,156.5,482z"/>
	<path id="05_stone" class="st0" d="M248.4,475.2c0.2-16.7,0.3-33.4,0.5-50.1c0-2.2,0-4.3-0.1-6.3
		c-0.1-3.7-0.2-7.3,0.2-10.4c1.1-9.2,5.2-16,13-21.5c9.4-6.6,20.3-10.3,32.4-11.2c14.1-1,28.2-1.5,42.9-2c2.8-0.1,5.6-0.2,8.4-0.3
		v55.9c-2.2,1.4-4.5,2.8-6.7,4.1c-8.9,5.5-18.1,11.1-27.1,17.4c-12.3,8.6-24.8,18.2-38.1,29.5c-7.2,6.1-15.4,10.7-25.6,14.5
		L248.4,475.2z"/>
	<path id="06_stone" class="st0" d="M782.4,257.7c1.8-25.6,6-46.7,17.5-64.7c12.6-19.5,29.3-29,51-29c1.9,0,3.8,0.1,5.8,0.2
		c13.4,1,22.8,6.7,29.4,18.1c7.9,13.7,10.5,28.9,7.8,44.8c-1.4,8.2-5.4,14-12.9,18.7c-10.4,6.6-22.5,10-36.7,10.5
		c-16.6,0.5-33.7,0.8-50.1,1.1C790.3,257.6,786.3,257.6,782.4,257.7z"/>
	<path id="07_stone" class="st0" d="M649.5,592.2c-6.9,0-12.7-2.2-18.1-7c-13-11.5-20.2-35.4-16.3-54.3
		c1.3-6.3,4.3-14.4,11.5-17.6c9.4-4.1,19.8-7.7,33.1-11.2c8.4-2.3,16.9-3.9,25.9-5.7c0,4.1,0.1,8.1,0.1,12.1
		c0.2,18.3,0.4,35.7-0.5,53c-0.8,14.5-7.8,24.2-20.2,28C658.9,591.3,653.9,592.2,649.5,592.2z"/>
	<path id="08_stone" class="st0" d="M870.2,867.3c-0.8,0-1.7-0.1-2.8-0.3c-0.5-0.1-1.8-0.4-2.5-3c-0.5-1.8-1.1-3.6-1.6-5.3
		c-2.7-8.9-5.3-17.3-6.2-25.9c-1.6-15-2.4-30.6-3.2-45.6c-0.2-3.8-0.4-7.7-0.6-11.6c5.4-0.5,10.7-0.8,15.9-0.8
		c7.4,0,13.6,0.7,19.3,2.3c0.3,22-0.4,47.6-7.6,72.6c-1,3.4-2.3,6.9-4.1,10.8C873.8,867.3,871.6,867.3,870.2,867.3z"/>
	</g>
	<g id="ROAD">
		<path id="TRACK_asphalt" class="st2" d="M868.8,956.8c-31.6,0-57.7-22.1-71.7-60.7c-7-19.6-11.5-42.1-13.5-69
		c-0.8-10.9-1.5-21.7-2.1-33c-0.3-6-0.7-12.1-1.1-18.2l-0.7-10.8l-10.7,1.6c-4.8,0.7-9.5,1.4-14.3,2c-4.1,0.6-8.3,1.2-12.5,1.8
		c-8,1.2-16,2.4-23.9,3.6c-15.7,2.4-32,4.9-48.1,7.2l-3.6,0.5c-34.2,4.9-69.6,10-104.5,14.7l-1.8,0.2c-9.2,1.3-17.9,2.4-26.6,2.4
		c-6.9,0-13-0.8-18.5-2.4c-22.1-6.4-38.5-22.8-50.1-50.3c-9.2-21.9-14.4-47.1-16.8-81.4c-2.5-34.9-0.7-70.6,1.1-105.1l0.4-8.6
		c0.6-12.1-1-24.2-2.6-35.8l-0.3-2.1c-1.4-11-7.2-16.7-17.5-17.3l-10.6-0.6V506c0,6.1,0,12.2,0,18.3c0,12,0,24.4,0,36.7
		c0.4,49.7,0.9,100.4,1.4,149.3c0.1,9.8,0.2,19.7,0.3,29.5c0.2,19.6,0.4,39.8,0.6,59.7c0.7,65.7-28.7,113.4-78.8,127.3
		c-12.9,3.6-25.9,5.4-38.6,5.4c-16.8,0-33.6-3.2-49.8-9.5c-20.6-8.1-37.4-21.5-50-39.9c-12.3-18-21-41.4-25.8-69.6
		c-4.8-28.1-4.5-56.2-4.2-85.8l0-4.6c0.2-20.5,0.4-41.3,0.5-61.4c0.1-20.2,0.3-41,0.5-61.5c0-7.8-3.6-12.9-10.8-15.1
		c-22.1-7-40.1-18.5-54.7-35.2c-22.6-25.3-34.9-58-36.7-97.2c-1.3-28.5-1.6-57.6-1.9-85.7c-0.1-5.7-0.1-11.5-0.2-17.2
		C70.3,321,70,293.1,71,265.4c1.1-32.6,6.2-60.9,15.9-86.4c15.8-41.8,42.2-67.8,80.9-79.7c15.6-4.8,33-7,54.6-7c2.2,0,4.5,0,6.7,0.1
		c28.1,0.6,58.2,2.1,87.8,9.2c18.7,4.5,34.2,10.9,47.5,19.5c29.3,19.1,46.2,50.2,50.2,92.4l0,0.2c1.5,13.8,2,27.7,2.4,42.5
		c0.2,5.7,0.4,11.7,0.6,17.7l0.4,9.7l9.7-0.1c90.3-1.3,180.9-2.6,271.7-3.9l9-0.1l0.8-9c0.4-4.8,0.8-9.6,1.1-14.3
		c0.6-7.9,1.2-15.4,2-22.8c6.3-57.3,26-99.7,60.2-129.4c19.4-16.9,41.2-26.3,66.7-28.7c4.6-0.4,9.1-0.7,13.3-0.7
		c22.8,0,42.3,6.2,59.5,19c31.2,23.3,49.4,59.3,53.9,107c3.4,36.1-3.4,67.6-20.4,93.5c-14,21.5-33.1,35.8-60.1,45
		c-19.2,6.5-38.9,7.3-60.8,7.6c-8.5,0.1-17.1,0.2-25.7,0.3c-8.7,0.1-17.4,0.3-26,0.4h-14.6v49.4h10c1.4,0,2.9,0,4.3,0
		c1.5,0,2.9,0,4.4,0c1.5,0,3,0,4.5,0c6.5-0.2,12.4-0.3,18.2-0.3c29.5,0,53.7,2.3,76.2,7.3c8.5,1.9,17.2,4.9,24.6,7.5
		c24.1,8.9,38.9,29.2,45.3,61.9c10.5,53.9-10,110.6-48.7,134.7c-11.2,7-23.5,10.9-37.5,11.9c-14.5,1.1-20.3,6.4-23.8,21.9
		c-1.8,7.9-2.9,15.7-4,23.9c-0.4,3-0.8,6-1.3,9l-1.7,11.5h11.6c0.7,0,1.3,0,1.8,0c0.5,0,0.9,0,1.3,0c0.7,0,1.3,0,1.8-0.1
		c7.4-0.5,15.9-1,24.1-1c17.6,0,31,2.3,43.4,7.5c28.1,11.7,45.1,39.8,46.7,77.1c2,47.2-2.9,86.7-14.9,120.9
		c-11.2,31.7-27.4,51.6-49.5,60.9C886.7,955,877.8,956.8,868.8,956.8z M832.9,770c0.3,5.8,0.7,11.7,1,17.4
		c0.8,15.6,1.7,31.7,3.4,47.6c1.1,10.5,4.1,20.5,7,30.1c0.5,1.6,0.9,3.1,1.4,4.7c2.7,9,9.1,15.2,17.7,17c2.4,0.5,4.7,0.7,6.8,0.7
		c16.5,0,22.9-14,25-18.6l0.1-0.2c1.5-3.5,3.5-8.2,4.9-13.4c8.1-28.1,8.7-57,8.4-79.1c-0.2-8.9-4.7-15.2-12.7-17.8l-0.2-0.1
		c-7.9-2.4-16.6-3.6-26.5-3.6c-7.6,0-15.1,0.7-22.4,1.3c-1.5,0.1-3,0.3-4.4,0.4l-7.6,0.6l-1.4,7.5l-0.1,0.5
		C833.1,766.4,832.7,768,832.9,770z M351.4,525.1c-3.6,2.8-7.2,5.6-10.7,8.2c-8.7,6.6-17,12.9-25,19.9c-16.8,14.4-36,24.9-56.8,31
		c-4.9,1.4-9.9,2.6-15.1,3.8c-2.9,0.7-5.9,1.4-8.8,2.2l-6.2,1.6l-1.1,6.3c-0.3,1.7-0.5,3.2-0.5,4.7c-0.1,11.6-0.2,23.3-0.3,35.1
		c-0.3,40.6-0.7,82.6-0.6,123.9c0,11.6,1.1,24.1,3.7,40.4c4.4,27.7,16.9,45.6,37.1,53.4c12.3,4.8,24.9,7.2,37.6,7.2c0,0,0,0,0,0
		c10.2,0,20.5-1.6,30.7-4.7c15.9-4.9,34.7-18.4,34.4-55.1l-2.1-248.1c-0.1-4.3,0-8.5,0-13.3c0-2.7,0-5.5,0-8.6v-20.4L351.4,525.1z
		 M418.2,353.1V424l8.5,1.3c2.8,0.4,5,0.7,7.4,1c27.3,3.7,46.3,20.4,58,51.1c8.4,22.2,11.5,48.1,9.7,81.5l-0.4,7.1
		c-1.8,32.2-3.6,65.5-0.7,98.7c1.3,15,3.3,31.1,9.2,46.6c5.8,15.4,15.9,18.7,23.3,18.7c1,0,2-0.1,3.1-0.2c7.2-0.9,14.6-1.7,21.7-2.5
		c9.7-1,19.7-2.1,29.5-3.5c35.4-5,71.3-10.4,106-15.6c14.3-2.1,28.5-4.3,42.7-6.4c11.3-1.7,22.7-3.4,34.2-5.2l8.1-1.2l0.4-8.2
		c0.1-1.8,0.2-3.2,0.3-4.6l0-0.5c0.7-19,2.1-39.3,6.8-58.9c8.4-34.7,23.5-56.5,46-66.5c7.7-3.4,16.6-4.8,25.9-6.2l2.4-0.4
		c25.4-4.1,40.5-28.7,35.9-58.4c-1.4-9.4-7-13-11.3-14.2c-2.1-0.6-4.1-1.2-6.2-1.9c-4.3-1.4-8.7-2.8-13.5-3.7
		c-24.9-5.2-49.7-5.8-68.5-5.8c-4.2,0-8.8,0-14,0.1c-1.6,0-3.1,0-4.6,0c-1.5,0-3.1,0-4.7,0c-1.7,0-3.4,0-5.2,0h-10v19.3
		c0,7.8,0.1,15.7,0.2,23.3c0.2,16,0.3,32.6-0.3,48.7c-1.4,34.8-11.2,64-29.1,86.7c-18.6,23.7-47.7,37.8-77.9,37.8
		c-16.8,0-32.9-4.5-46.6-12.9c-33.2-20.8-53.8-56.3-61-105.7c-8.1-55.9,14-109.3,55-132.8c16.7-9.6,34.8-13.7,54-18l3-0.7
		c8.7-2,17.4-3.6,26.6-5.3c5.2-1,10.7-2,16.1-3.1l8.1-1.6v-53L418.2,353.1z M693.4,474.3c-4,0.8-8.1,1.6-12,2.4
		c-8.8,1.7-17.9,3.5-26.9,5.9c-14.4,3.8-25.9,7.8-36.1,12.3c-11.8,5.2-19.7,16.3-23,31.9c-5.3,26.1,4.2,57,22.6,73.4
		c9,8,19.6,12,31.4,12c6.5,0,13.5-1.2,21.4-3.6c20.5-6.3,33.1-23,34.3-46c1-18,0.8-35.5,0.5-54c-0.1-8-0.2-16.3-0.2-24.5v-12.3
		L693.4,474.3z M355.4,352.9c-6.8,0.3-13.6,0.5-20.2,0.8c-13.9,0.5-28.2,1-42.2,2c-15.6,1.1-29.9,6-42.4,14.6
		c-12.4,8.6-19.6,20.5-21.5,35.5c-0.5,4.5-0.4,8.8-0.3,13c0,2,0.1,4,0.1,5.8c-0.1,13-0.2,25.9-0.4,38.8c-0.1,12.9-0.3,25.8-0.4,38.7
		v19.4l12.6-3.4c13.3-3.6,30.5-9.5,46-22.8c11.3-9.5,23.7-19.1,36.7-28.5c7.9-5.6,16.3-10.8,24.5-15.8c4.3-2.7,8.8-5.4,13.1-8.2
		l4.6-2.9l0-5.4c0.1-23.1,0.1-46.6,0.1-71.5v-10.4L355.4,352.9z M227.5,162.2c-14.4,0-28.1,1.1-40.5,3.4c-22.8,4-51.6,18.8-59,66.3
		c-2.3,14.7-5,34.1-5.1,53.7c-0.3,24.4,0.2,49.3,0.7,73.3c0.2,10.5,0.4,21.3,0.6,31.9c0.1,5.6,0.1,11.3,0.1,16.9
		c0.1,14.5,0.2,29.5,1.2,44.2c1.8,27.1,14.1,47.5,35.7,59l11.6,6.2l2.8-12.4c0.3-0.8,0.8-2.3,0.8-4.1c0.1-7.6,0.2-15.4,0.3-22.9
		c0.3-17.4,0.6-35.3,0.1-53.1c-1.2-39,7.9-70,27.9-94.9c17.5-21.8,40.4-35,72-41.5c19.2-4,39-4,58.3-4h0.7c4,0,7.9,0,11.9,0l18.6,0
		l-0.4-10.4c-0.2-6.1-0.4-12.2-0.6-18.1c-0.4-11.5-0.7-22.3-1.4-33.3c-1.5-24.4-14.6-35.7-25.3-41l-0.1,0
		c-6.5-3.1-14.1-6.6-21.9-8.9c-29.1-8.6-58.9-10-86.8-10.2C228.9,162.2,228.2,162.2,227.5,162.2z M851,144.1
		c-28.6,0-51.4,12.9-67.8,38.2c-16.5,25.7-20,56-21.3,85l-0.4,9.5l9.5,0.9c0.2,0,0.4,0.1,0.6,0.1c0.6,0.1,1.6,0.3,2.8,0.3
		c0,0,9.5-0.2,14.2-0.2c18.4-0.3,37.5-0.6,56.3-1.2c17.9-0.6,33.2-5,46.7-13.5c12.2-7.6,19.6-18.5,22-32.3
		c3.5-20.8,0.1-40.3-10.1-58.2c-9.9-17.2-25.1-26.7-45.2-28.2C855.9,144.1,853.4,144.1,851,144.1z" />
		<circle id="START" cx="220.3" cy="729.1" r="3.4" class="st1" />
	</g>
</svg>