<?xml version="1.0" encoding="utf-8"?>
<!-- Generator: Adobe Illustrator 21.0.2, SVG Export Plug-In . SVG Version: 6.00 Build 0)  -->
<svg version="1.1" id="SCENE_1" xmlns="http://www.w3.org/2000/svg" xmlns:xlink="http://www.w3.org/1999/xlink" x="0px"
	y="0px" viewBox="0 0 1024 1024" style="enable-background:new 0 0 1024 1024;" xml:space="preserve">
	<style type="text/css">
		.st0 {
			fill: #FFFFFF;
		}

		.st1 {
			display: none;
		}

		.st2 {
			fill: #64566D;
		}
	</style>
	<rect id="BACKGROUND_grass" y="0" width="1024" height="1024" />
	<g id="OBSTACLES">
	<path class="st0" d="M198.5,221.8c0,10.6-4.3,20.2-11.2,27.1c-6.9,6.9-16.5,11.2-27.1,11.2s-20.2-4.3-27.1-11.2
		c-6.9-6.9-11.2-16.5-11.2-27.1s4.3-20.2,11.2-27.1c6.9-6.9,16.5-11.2,27.1-11.2s20.2,4.3,27.1,11.2
		C194.2,201.6,198.5,211.2,198.5,221.8z"/>
	<path class="st0" d="M416.1,365.7c0,10.6-4.3,20.2-11.2,27.1c-6.9,6.9-16.5,11.2-27.1,11.2c-10.6,0-20.2-4.3-27.1-11.2
		c-6.9-6.9-11.2-16.5-11.2-27.1c0-10.6,4.3-20.2,11.2-27.1c6.9-6.9,16.5-11.2,27.1-11.2c10.6,0,20.2,4.3,27.1,11.2
		C411.8,345.5,416.1,355.1,416.1,365.7z"/>
	<path class="st0" d="M213.5,577c0,10.6-4.3,20.2-11.2,27.1s-16.5,11.2-27.1,11.2s-20.2-4.3-27.1-11.2c-6.9-6.9-11.2-16.5-11.2-27.1
		c0-10.6,4.3-20.2,11.2-27.1c6.9-6.9,16.5-11.2,27.1-11.2s20.2,4.3,27.1,11.2S213.5,566.4,213.5,577z"/>
	<path class="st0" d="M266.7,644.9c0,10.6-4.3,20.2-11.2,27.1c-6.9,6.9-16.5,11.2-27.1,11.2s-20.2-4.3-27.1-11.2
		s-11.2-16.5-11.2-27.1c0-10.6,4.3-20.2,11.2-27.1s16.5-11.2,27.1-11.2s20.2,4.3,27.1,11.2C262.4,624.7,266.7,634.3,266.7,644.9z"/>
	<path class="st0" d="M508.8,711.8c0,10.6-4.3,20.2-11.2,27.1s-16.5,11.2-27.1,11.2c-10.6,0-20.2-4.3-27.1-11.2
		s-11.2-16.5-11.2-27.1s4.3-20.2,11.2-27.1s16.5-11.2,27.1-11.2c10.6,0,20.2,4.3,27.1,11.2S508.8,701.2,508.8,711.8z"/>
	<path class="st0" d="M618.7,887c0,10.6-4.3,20.2-11.2,27.1s-16.5,11.2-27.1,11.2c-10.6,0-20.2-4.3-27.1-11.2s-11.2-16.5-11.2-27.1
		c0-10.6,4.3-20.2,11.2-27.1s16.5-11.2,27.1-11.2c10.6,0,20.2,4.3,27.1,11.2S618.7,876.4,618.7,887z"/>
	<path class="st0" d="M865.3,839.7c0,10.6-4.3,20.2-11.2,27.1c-6.9,6.9-16.5,11.2-27.1,11.2s-20.2-4.3-27.1-11.2
		c-6.9-6.9-11.2-16.5-11.2-27.1c0-10.6,4.3-20.2,11.2-27.1c6.9-6.9,16.5-11.2,27.1-11.2s20.2,4.3,27.1,11.2
		C861,819.5,865.3,829.1,865.3,839.7z"/>
	<path class="st0" d="M834.1,574.9c0,10.6-4.3,20.2-11.2,27.1s-16.5,11.2-27.1,11.2s-20.2-4.3-27.1-11.2s-11.2-16.5-11.2-27.1
		s4.3-20.2,11.2-27.1s16.5-11.2,27.1-11.2s20.2,4.3,27.1,11.2S834.1,564.3,834.1,574.9z"/>
	<path class="st0" d="M943.9,351.3c0,10.6-4.3,20.2-11.2,27.1c-6.9,6.9-16.5,11.2-27.1,11.2s-20.2-4.3-27.1-11.2
		c-6.9-6.9-11.2-16.5-11.2-27.1c0-10.6,4.3-20.2,11.2-27.1c6.9-6.9,16.5-11.2,27.1-11.2s20.2,4.3,27.1,11.2
		C939.6,331.1,943.9,340.7,943.9,351.3z"/>
	<path class="st0" d="M780.3,165.6c0,10.6-4.3,20.2-11.2,27.1c-6.9,6.9-16.5,11.2-27.1,11.2c-10.6,0-20.2-4.3-27.1-11.2
		c-6.9-6.9-11.2-16.5-11.2-27.1s4.3-20.2,11.2-27.1s16.5-11.2,27.1-11.2c10.6,0,20.2,4.3,27.1,11.2S780.3,155,780.3,165.6z"/>
	<path class="st0" d="M556.3,290.5c0,10.6-4.3,20.2-11.2,27.1s-16.5,11.2-27.1,11.2c-10.6,0-20.2-4.3-27.1-11.2
		c-6.9-6.9-11.2-16.5-11.2-27.1c0-10.6,4.3-20.2,11.2-27.1c6.9-6.9,16.5-11.2,27.1-11.2c10.6,0,20.2,4.3,27.1,11.2
		S556.3,279.9,556.3,290.5z"/>
	<path class="st0" d="M368.9,122.4c0,10.6-4.3,20.2-11.2,27.1c-6.9,6.9-16.5,11.2-27.1,11.2c-10.6,0-20.2-4.3-27.1-11.2
		c-6.9-6.9-11.2-16.5-11.2-27.1s4.3-20.2,11.2-27.1S319.9,84,330.5,84c10.6,0,20.2,4.3,27.1,11.2S368.9,111.8,368.9,122.4z"/>
	</g>
	<g id="ROAD">
	<path id="TRACK_asphalt" class="st2" d="M867.5,381.1c-13.9-15.5-28.7-30.7-43.9-45.4c13.4-24.3,32.2-59.9,49.7-96.6
		c18.6-39.1,31.9-72.1,39.7-98c12-40,11.4-64.5-2.2-79.2c-12.3-13.4-31.5-21-57-22.5c-22.5-1.3-50.8,2-83.9,10
		c-59.1,14.2-132.8,42.3-219.5,83.8c-13.8-2.2-28.5-2.6-45-1.1c-26.9,2.3-57.7,9.1-98.3,18.5c-79.8,18.4-157.3,81.7-196.5,117.7
		c-30.4,28-63.7,63.9-86.5,97.9c-40.9,34.8-65.2,78.4-75,134c-12.3,69-1.7,151.6,10.6,247.3c0.7,5.3,1.4,10.7,2.1,16.1
		c5.3,41.2,21.1,77.6,47.2,108.1c22.5,26.3,51.9,48.1,90,66.6c67.2,32.6,148,47.6,212.9,59.7c32.9,6.1,61.4,11.4,82.6,17.8
		c19.3,5.8,38.7,8.7,57.9,8.7c30.5,0,60.5-7.3,88.7-21.6c34.7-17.6,54.7-40,55.6-40.9l0.2-0.2c5.4-6.3,48-62.8-24.4-216.5l31.2-21.2
		c19.6,0.5,56.2-0.1,94.9-8.7c34.8-7.7,64.5-20.3,88.4-37.3c32.2-23,53.4-53.6,63-90.9C965.1,527.5,938.2,460.2,867.5,381.1z
		 M779.2,88.4c74.7-17.9,96.3-5.1,101.6,0.2c1.1,3.2,6.4,29.2-46.6,139.5c-14.2,29.5-29.1,57.9-40.8,79.5
		c-33.8-30.5-67.6-58-95.6-80.7c-17.1-13.9-31.9-26-42.2-35.1c-20-17.7-36.5-30.2-52-39.1C672,121.7,731.8,99.7,779.2,88.4z
		 M264.9,327.1c56.7-52.3,115.1-88.2,160.2-98.6c36.1-8.3,65.5-14.9,87.1-16.7c31.4-2.7,48,2.5,90.4,39.9
		c11.5,10.2,26.9,22.7,44.7,37.2c28.2,22.9,62.6,50.9,96.1,81.4c-22.7,21.3-53.6,53.4-81.3,92.3c-30.1,42.3-50.1,83.9-59.4,123.7
		c-8.8,37.8-8.1,73.9,2.3,107.8l-109.4,74.2l-5.4,3.6l-4,5.2c-0.1,0.1-10.7,14-25.1,27.9c-12.7,12.3-22.1,18.7-27.8,21.7
		c-10-22.1-21.9-65.3-33.4-107.2c-32.1-116.8-56.3-195.6-99.1-225.3c-23.4-16.2-51.7-26.2-76.7-35c-13.6-4.8-26.4-9.3-36.4-14.1
		c-6.7-3.2-10.2-5.6-12-7c1-3.4,5.8-16.6,25.7-42.5C218.2,373.7,240.7,349.4,264.9,327.1z M666.2,935.7
		c-6.1,6.4-68.5,69.3-160.3,41.6c-23.3-7-52.7-12.5-86.8-18.8C292.8,935.1,119.9,903,101.4,758.5c-0.7-5.4-1.4-10.8-2.1-16.1
		C87.5,650,77.3,570.1,88.4,507.2c2.6-14.9,6.5-28.6,11.6-41.4c5.5,14.7,15.8,27.7,30.8,38.4c18.8,13.5,42.1,21.7,66.8,30.4
		c21.2,7.5,43.2,15.2,57.7,25.3c1.2,0.9,12.7,9.9,31,59.9c13.1,35.8,25,79,36.5,120.9c14.5,52.8,27,98.4,41.1,126.1
		c16.9,33.5,43.5,40.6,57.8,41.9c2.2,0.2,4.4,0.3,6.6,0.3c26.4,0,54.4-14.3,85.4-43.5c14.3-13.5,25.9-27.1,31.9-34.5l93.2-63.2
		C693.7,887.3,668.6,931.9,666.2,935.7z M872.3,567c-8.9,34.7-39.1,58.1-89.6,69.7c-44.3,10.1-86.8,6.8-87.2,6.8l-14.1-1.2l-41.3,28
		c-11.9-54.7,6.3-116.3,54.2-183.8c26.5-37.4,56.9-68.5,78.5-88.6c12.3,12,24.1,24.2,35.1,36.6C857.9,490.5,880.2,536.3,872.3,567z"
		/>
	<circle id="START" class="st1" cx="359.1" cy="725.7" r="3.4"/>
		<!-- <circle id="START" cx="220.3" cy="729.1" r="3.4" class="st1" /> -->
	</g>
</svg>