<?xml version="1.0" encoding="utf-8"?>
<!-- Generator: Adobe Illustrator 21.0.2, SVG Export Plug-In . SVG Version: 6.00 Build 0)  -->
<svg version="1.1" id="SCENE_3" xmlns="http://www.w3.org/2000/svg" xmlns:xlink="http://www.w3.org/1999/xlink" x="0px" y="0px"
	 viewBox="0 0 1024 1024" style="enable-background:new 0 0 1024 1024;" xml:space="preserve">
<style type="text/css">
	.st0{fill:#FFFFFF;}
	.st1{fill:#64566D;}
</style>
<polygon id="BACKGROUND_grass" points="-5.9,512 512.1,283.9 1030.1,512 512.1,740 "/>
<g id="OBSTACLES">
	<path id="_x30_1_x5F_stone1" class="st0" d="M620.6,621.7c-1.7,0.8-3.7,1.4-5.7,2v0.1l-0.1-0.1c-3.3-0.7-6.4-1.6-8.9-2.7
		c-2.3-0.9-4.3-1.9-6.6-2.9c-1.3-0.6-2.7-1.2-4.1-1.8c-13.3-5.8-26.6-11.6-39.9-17.4l-16.7-7.2l13.6-6l6.4,2.8
		c5.6,2.3,11.2,4.7,16.7,7.1c4.1,1.8,8.4,3.6,12.7,5.3c7,3,14.6,6,21.7,9.1c6,2.6,10.2,5.1,12.6,7.8c0.6,0.8,1,1.6,1.3,2.5l-0.3,0.1
		c-0.9,0.4-1.7,0.8-2.6,1.3L620.6,621.7z"/>
	<path id="_x30_2_x5F_stone1" class="st0" d="M523.4,532c-4.3-1.9-8.9-3.7-13.3-5.5c-9.2-3.9-18.6-7.8-27.9-11.8
		c-4.9-2-9.6-4-14.5-6c-4.7-2.1-9.2-3.9-13.2-5.5c-6.3-2.6-12.4-5.3-18.7-7.9c-7-3-14.3-6-21.5-9.1c-13.5-5.6-23.6-10-32.9-14
		c-4.7-2-8.6-4.3-11.4-6.9c-0.7-0.8-1.3-1.6-1.7-2.5l0.6-0.3c2.9-1.3,5.3-1.8,8.6-1.7s9.2,0.8,15,2.1c1.9,0.5,3.6,1.1,5.3,1.8
		c30.5,13.5,60.8,26.8,89.3,39.3c8.9,3.9,17.7,6.7,27,8.6c18.6,3.7,37.9,4.1,57.7,1c12.6-2,24-5.2,33.6-9.5l3.4-1.5l22.6,9.6
		l-75.8,33.4C548.6,542.6,523.4,532,523.4,532z"/>
	<path id="_x30_3_x5F_stone1" class="st0" d="M444.7,594.3c-3,1.3-6,2.5-9.4,3.6c-6.7,2-14.3,3-23,2.9c-8.7-0.1-17-0.9-27-2.6
		c-10.6-1.9-20.6-4.2-29.8-7.1c-6.7-2.1-13.2-4.3-19-6.9c-7.2-3-14.7-6-21.9-9.1c-3.6-1.4-7-2.9-10.6-4.3l-0.4-0.2
		c-11.2-4.7-22.8-9.4-34.3-14.2c-12.7-5.2-24.3-10.1-35.8-14.8c-3.9-1.6-7.7-3.2-11.6-4.8c-6.2-2.6-12.6-5.2-19-7.9
		c-9.9-4.1-20.2-8.6-33.3-14.8c-2.4-1.1-4.6-2.4-6.2-3.7c-1.6-1.3-1.6-2.6,0-4.1c1.9-1.8,4.4-3.4,7.4-4.9c2-1,4.1-2.1,6.4-3.1
		c2.3-1,4.7-1.9,7.3-2.6c4.7-1.4,10-1.9,15-1.5c5.3,0.4,10.9,1.4,17.2,3.1c5.9,1.6,11.2,3.6,15.9,5.7c4.1,1.9,8.9,3.9,14.7,6.5
		c8.9,3.8,17.7,7.5,26.5,11.3l27.5,11.8c13.3,5.7,26.6,11.3,39.9,17c6,2.6,12.2,5.2,18.3,7.8c4.7,2,9.2,4,13.9,5.9
		c17,7.2,34.2,14.6,51.2,21.9l20.7,8.8L444.7,594.3z"/>
	<path id="_x30_4_x5F_stone1" class="st0" d="M842.6,530.7c-2.9,1.3-5.6,2.4-8.3,3.4c-4.3,1.6-9.4,3.4-15.2,4.7
		c-5.2,1.2-10.9,1.4-16,0.6c-5.7-0.8-10.7-2.1-15.3-3.7c-5-1.8-9.6-3.5-13.9-5.2c-8.6-3.5-17.2-7.1-25.5-10.6
		c-2.6-1.1-5.3-2.2-8-3.4c-4.9-2-9.4-4-14.3-6l-1.7-0.8l2.1-0.9l7.7-3.5l2.3-1c5.4-2.5,11.2-4.7,17.2-6.9c7.6-2.8,15.7-5.4,24.5-7.5
		c9.3-2.3,17.3-3.7,25.3-4.3c11.9-1,21.6,0.2,29.9,3.5c12.2,4.9,21.6,10,28.9,15.7c2.9,2.1,4.7,4.5,5.7,6.9c0.9,2.6-0.6,5.2-4.6,8.2
		c-3,2.1-6.3,4-10.2,5.9C850.5,527,846.7,528.9,842.6,530.7L842.6,530.7L842.6,530.7z"/>
	<path id="_x30_5_x5F_stone1" class="st0" d="M611.3,461.4c-4-1.7-8.2-3.5-12.2-5.2c-1.7-0.7-3.3-1.3-5-1.9
		c-1.6-0.6-1.9-0.7-2.9-1.1c-12-4.7-21.2-9.5-28.3-14.7c-3.7-2.8-6.2-5.2-7.6-7.7l-0.6-1.1c-1.9-4.2,0.9-7.7,8-11l3.9-1.8
		c9.2-4,17.5-7.1,26.3-9.4c7-1.9,13.2-3.1,19.2-3.8c10.7-1.2,20.6-0.6,30,1.9c4,1,7.7,2.3,11,3.8c6.4,2.8,12.6,5.9,18.6,8.8
		c3,1.4,5.3,3.1,7,4.9c1.9,1.7,1.9,3.7-0.1,5.5c-1.7,1.9-4.4,3.9-8.4,6.2c-4,2.3-9.9,5.1-15.5,7.6l-1.9,0.8L612.3,462L611.3,461.4z"
		/>
	<path id="_x30_6_x5F_stone1" class="st0" d="M-6,512l518,228l187-82.3l-36.5-16.1c-6.2,2.6-13.2,4.9-20.6,6.7
		c-21,5.2-42.2,5.5-62.5,1.1c-8-1.8-15.3-4-21.6-6.8c-3-1.3-6-2.6-8.9-3.9c-1.9-0.8-3.7-1.7-5.6-2.5c-14.7-6.5-27.8-12.1-39.8-17.4
		c-4-1.8-8.3-3.6-12.4-5.4l-1.6-0.7l-0.6,0.3c-2.9,1.3-5.9,2.5-9,3.8c-11,4.5-23.9,7.8-37.8,10c-17.2,2.6-34.9,3.3-54.1,2.2
		c-15-1-30-3.1-45.8-6.5c-14.7-3.1-28.3-7-40.8-11.5c-6-2.2-11.9-4.5-17.2-6.7c-12.3-5.1-24.8-10.1-36.8-15.1l-5.4-2.2
		c-3.6-1.4-7-3-10.7-4.5c-2.7-1.1-5.6-2.3-8.4-3.5c-5.2-2.1-10.2-4.2-15.3-6.3c-8.7-3.6-17.5-7.1-26-10.8c-6-2.5-12-5-18-7.6
		l-5.7-2.5c-1.4-0.6-2.7-1.1-4-1.7c-3.6-1.5-7.4-3.1-11-4.7c-7.9-3.5-16-7.1-23.6-10.8c-8.4-4.1-14.6-8.3-18.2-12.9
		c-6.7-8.1-5.3-16.8,3.9-25.4c4.3-4.2,10.4-8.2,18.5-12.4c3.4-1.8,6.7-3.3,10-4.9c2.1-0.9,4.3-1.8,6.4-2.6
		c25-9.6,52.8-13.1,82.6-10.3c12.2,1.1,23.8,3.4,35.8,6.9c8.4,2.5,16.2,5.4,23.3,8.5c5.3,2.3,10.9,4.7,16.2,7
		c1.9,0.8,3.6,1.5,5.3,2.3c18.9,8,37.8,16.1,56.5,24.1c9.4,4,18.9,8,28.2,12c10.9,4.7,22,9.3,32.9,14c18.2,7.7,36.5,15.6,54.7,23.3
		l11.4,4.9c1.9,0.8,3.6,1.6,5.7,2.5l1.6,0.7l13-5.7l-7.4-3.1c-6.9-2.9-13.6-5.8-20.6-8.6c-15.9-6.7-31.8-13.5-47.6-20.2l-8.9-3.7
		c-7.6-3.2-15.2-6.4-22.8-9.6L374.8,511c-8.2-3.5-16.5-6.9-24.8-10.5c-1.7-0.7-3.3-1.4-5-2.1c-4.3-1.8-8.6-3.7-13-5.5
		c-10.6-4.7-18.2-9.6-23.3-15.1c-3.6-3.7-5.7-7.8-5.9-12c-0.4-7.1,5.6-14.2,16.5-19.9c1.9-1.1,4.1-2.1,6.4-3.1
		c9.4-4.2,20.9-7.3,33.1-9.1c12.4-1.8,24.3-2.3,38.9-1.3c14.7,1.1,28.3,3.8,41.2,7.8c1.3,0.4,2.6,0.9,3.6,1.4l0.1,0.1
		c11.2,4.9,22.2,9.8,33.3,14.7c9.7,4.3,30.9,13.6,30.9,13.6c9.4,4.2,19.2,8.4,28.8,12.6c3.6,1.6,6.6,2.6,9.7,3.3
		c5.9,1.3,10.6,1,15.9-1.1l3-1.3c-1.1-0.5-2.4-1-3.6-1.6c-3.6-1.6-7-3-10.7-4.4c-8-3-13.9-5.5-19.2-7.9
		c-12.4-5.9-22.6-11.9-29.2-17.7c-6.7-5.8-10.6-11.3-12.2-17.1c-2.9-10.7,3.6-20.9,19.2-30.1c4-2.3,8.2-4.5,12.7-6.4l5.9-2.5
		c15.3-6.4,30.2-11.3,45.9-14.9c16.7-3.8,33.2-6,49.7-6.4c19.9-0.5,38.8,1.4,56.1,5.9c8.4,2.2,16.3,4.9,23.2,8
		c8.4,3.7,14.7,6.7,20.6,9.6c7.6,3.8,13.6,8.1,17.7,13c7.4,8.8,6.4,18.1-3.1,27.6c-4.6,4.7-11.2,9.2-19.9,13.9
		C711,456,704,459.2,698,462l-18.2,8.4l-15,6.9l-8.4,3.8l23,9.8l11.2-4.9c5-2.2,10.4-4.5,15.6-6.6c5.2-2.1,10.9-4.1,17.2-6.2
		c20.6-6.9,40.4-11.6,60.5-14.2c18.3-2.5,36.1-3,52.5-1.5c12.7,1.1,24.6,3.4,34.9,6.7c10.2,3.1,18.2,7,24.6,10.4
		c5.3,2.7,9.4,5,13,7.2c10.2,6,16.7,12,20.6,18.1c7,11.3,2.9,22.7-12.6,33.7c-5.7,4-12.4,7.9-19.9,11.4c-4.1,2-7.6,3.6-11.3,5.2
		c-3.7,1.7-7.3,3.1-10.9,4.5c-13.2,5.1-25,8.6-37.2,10.9c-22.6,4.3-45.4,4.5-67.3,0.6c-8.4-1.5-17.3-3.8-25.6-6.5
		s-15.9-5.9-22.6-8.7c-10.7-4.5-21.6-8.9-31.9-13.4c-5-2.1-9.9-4.2-14.9-6.2l-75.8,33.4c4.3,1.8,8.4,3.5,12.6,5.2
		c13.7,5.8,27.9,11.8,41.9,17.6c8.4,3.4,15.7,7.2,21.6,11.6c6.6,4.8,10.4,9.5,11.7,14.3c2.6,9.2-3.6,17.7-18.3,25.1
		c-1,0.5-6.3,2.9-7.4,3.3l36.5,16.1L1030,512L512,284L-6,512z"/>
</g>
<g id="ROAD">
	<path id="TRACK_cobblestone" class="st1" d="M493.5,577.4l24.2-10.6l-180.1-76.1c0,0-16.7-8.8-21.9-14.1c-3.3-3.3-5-7.1-5.3-10.9
		c-0.3-6.2,5-12.5,14.6-17.6c9.6-5.2,21.6-8.9,35.8-11.1c11.9-1.8,23.6-2.1,35.2-1.1c14.3,1.1,26.9,3.6,38.5,7.2
		c1,0.4,85.6,37.6,95.9,42c3.3,1.5,7,2.8,11.2,3.8c8.4,1.9,16.7,1.4,24.6-1.8c2.9-1.1,8.9-4,8.9-4s-32.3-13.2-38.2-15.9
		c-10.9-5.1-20.7-10.7-28.2-17.1c-5.9-4.9-10-10.3-11.6-15.9c-2.6-9.8,3.3-19,17.5-27.6c5-3.1,11.2-5.7,17.6-8.4
		c13.3-5.5,27.6-10.5,43.8-14.2c14.7-3.4,30.2-5.5,46.4-6c19-0.5,36.2,1.5,52.1,5.5c8,2.1,15.3,4.7,21.9,7.5
		c7,3.1,13.7,6.2,20.2,9.5c7,3.6,12.7,7.6,16.6,12.1c6.9,8.1,5.7,16.5-2.9,25c-4.7,4.7-11.2,8.9-18.6,13
		c-5.9,3.2-65.5,30.6-65.5,30.6l32.6,14.4c0,0,1.4-0.5,1.7-0.6c4.3-2,8.6-3.9,13-5.9c6-2.6,12-5.2,18.3-7.7c5.3-2.1,10.9-4.2,16.7-6
		c17.7-6,36.8-10.9,57.8-13.6c16.5-2.2,32.6-2.8,48.9-1.4c11.9,1.1,22.8,3.1,32.3,6.2c9,2.8,16.5,6.2,23.5,9.9
		c4.3,2.3,8.7,4.6,12.6,6.9c8.6,5.2,15.6,10.8,19.6,17.2c6.6,10.6,2.6,20.9-11.6,31c-5.4,3.8-11.9,7.5-18.9,10.8
		c-6.7,3.3-14,6.5-21.6,9.4c-10.6,4.2-22,7.8-34.9,10.3c-21.2,4-41.8,4-61.5,0.5c-8.7-1.6-16.7-3.7-24-6.2c-7.9-2.6-73.4-30-73.4-30
		L590,564.8c0,0,40.1,16.8,59.5,24.9c7.9,3.2,14.7,6.9,20.5,11c5.4,4,9.4,8.3,10.9,13.2c2.3,8.3-3,15.7-16.3,22.4
		c-7,3.7-15.7,6.9-25.3,9.3c-19,4.7-37.6,4.9-55.4,1c-7.4-1.6-14.3-3.7-20.2-6.2c-4.9-2.1-9.4-4.2-14.3-6.3
		c-13.3-5.8-58.8-25.4-58.8-25.4s-10.6,4.5-15,6.3c-10.2,4.1-22.2,7.2-34.8,9.1c-16.9,2.6-33.6,3-50.4,2c-16.7-1.1-30-3.3-43.8-6.2
		c-14.2-3-27.5-6.7-39.5-11.1c-5.7-2.3-173.9-72.6-181.6-76.2c-7.7-3.7-13.2-7.4-16.9-11.8c-6-7.5-4.7-15.1,3.4-22.9
		c4.4-4.2,10.3-8,17.2-11.5c4.7-2.5,10-4.9,15.6-7.1c22.8-8.8,47.9-12.1,75.5-9.4c12.3,1.1,23.3,3.5,33.5,6.5
		C261.4,478.6,493.5,577.4,493.5,577.4z M456.5,593.7c-0.6-0.3-228.7-97.4-234.9-99.1c-6-1.6-12.3-3-19.6-3.5
		c-7-0.5-14.5,0.2-20.7,2.1c-6,1.8-10.9,4-15.3,6.4c-3.4,1.8-6.4,3.7-8.7,5.9c-2.6,2.3-2.7,4.9,0,7.1c1.9,1.6,4.3,3.1,7,4.3
		c10.9,5.1,179.7,75.1,186.7,77.3c9.7,3,20.2,5.4,31.2,7.4c9.4,1.6,19.2,2.8,29.6,2.8c10.4,0.1,19-1,27.6-3.6
		C445.7,598.7,450.7,596.1,456.5,593.7L456.5,593.7L456.5,593.7z M609.6,497.8l-8.2,3.6c-8.9,4-19.6,7.1-31.3,8.9
		c-18.5,3-35.5,2.4-51.9-0.8c-9.6-2-17.7-4.7-25-8c-29.8-13.1-59.2-26.1-89-39.2c-2-0.9-4.3-1.6-6.9-2.2c-5.4-1.3-11.2-2.2-17.6-2.3
		c-6.4-0.1-11.2,1-15.5,3c-2,0.9-3,2.1-2.3,3.2c0.6,1.1,1.3,2.1,2.3,3.1c3,3,7.4,5.6,12.7,7.8c10.9,4.7,178.6,75.5,178.6,75.5
		l86.9-38.3v-0.1v-0.1L609.6,497.8z M713.6,510.1c0.6,0.3,0.7,0.3,1,0.4c6.7,2.8,13.5,5.7,20.2,8.5c11.2,4.7,22.3,9.3,33.6,14
		c4.6,1.9,9.3,3.7,14.2,5.4c5,1.8,10.9,3.3,17.2,4.2c6.9,1.1,14.9,0.8,21.9-0.8c6.2-1.4,11.6-3.3,17-5.2c7-2.6,13.6-5.7,19.7-8.8
		c4.1-2.1,7.9-4.2,11.2-6.5c4.6-3.3,6.9-6.8,5.6-10.5c-1.1-2.8-3.3-5.5-6.6-8c-7.9-6.3-18.2-11.7-30.2-16.4
		c-9.9-3.9-21.9-5.3-35.9-4.2c-9.9,0.8-19,2.6-27.8,4.8c-9,2.3-17.6,4.9-25.8,7.9c-7,2.6-13.6,5.2-20,8.1l-13.3,6L713.6,510.1z
		 M612.6,466.6l46.4-21.2c6.2-2.8,12.6-5.6,17.9-8.8c3.9-2.2,7-4.5,9.4-7.1c2.6-2.7,2.6-5.7,0-8.1c-2-2.1-4.7-4-8.2-5.6
		c-6-3-12.4-5.9-18.9-8.9c-3.7-1.6-7.9-3.1-12.4-4.3c-10.6-2.8-22.5-3.6-35.3-2.2c-7.6,0.8-14.7,2.4-21.6,4.2
		c-11.9,3.2-22.2,7.2-31.8,11.7s-12.6,8.8-10.3,14.1l0.6,1.3c1.9,3.1,4.6,5.9,8.4,8.6C564.8,446.3,612,466.3,612.6,466.6
		L612.6,466.6L612.6,466.6z M527.4,591.9c0,0,68.8,30,72.4,31.6c3.1,1.3,6.7,2.5,10.9,3.3c2.3,0.5,5.2,0.4,7.4-0.3
		c4-1.1,7.6-2.5,10.6-4.2c1.6-0.8,2.3-1.8,2-2.6c-0.3-1.1-0.9-2.2-1.6-3.3c-3-3.5-8.2-6.3-14-8.8c-11.4-4.9-63-26.4-63-26.4
		L527.4,591.9z"/>
	<circle id="START" cx="579.2" cy="624" r="3"/>
	<g id="CHECK">
		<polygon id="_x31_" class="st0" points="528.7,636.2 586.5,610.7 588.8,611.7 531,637.2 		"/>
		<polygon id="_x32_" class="st0" points="705.3,548.1 763.4,522.6 770.5,525.7 712.5,551.3 		"/>
		<polygon id="_x33_" class="st0" points="446.2,491.2 504.3,465.6 510,468.1 451.9,493.7 		"/>
	</g>
</g>
<path id="drive" d="M565.1,630.7C451.9,582.4,361,534.9,248,486.5c-4.4-1.4-8.9-3.6-13.5-5c-4.9-0.8-16.7-3.1-21.6-3.9
	c-5.2-0.3-14.9-0.6-20-0.8c-5,0.4-10.9,2.4-16,2.8c-4.9,0.9-11.6,5.7-16.5,6.6c-4.3,1.3-13.5,6-17,7.8c-2.9,2.2-7.6,5-10.4,7.2
	c-1.6,2.8-4,5.9-5.6,8.7c0.6,2.3,2.9,6.6,3.3,9c2.1,2.1,6,3.7,8.2,5.8c3.4,1.8,10.6,3,14,4.8c83.3,27.3,136.1,57.4,219.4,84.7
	c4.3,1.1,16,0.2,20.3,1.3c4.1,0.4,17.3-1.7,21.3-1.3c4-0.1,6.9-1.5,10.7-1.6c3.9-0.6,8-2.1,11.9-2.6c3.9-0.9,7.2-2.3,11-3.2
	C468,599,484.4,592,505,584.4c67.4-29.9,134.5-59.8,201.9-89.7c13.7-5.3,27.5-10.5,41.2-15.7c7.6-2.2,15.2-4.3,22.8-6.5
	c7.9-1.5,16-3,23.9-4.5c8.2-0.6,16.5-1.1,24.8-1.8c8.4,0.6,16.9,1.3,25.3,1.8c8.6,2.1,17.2,4.2,25.8,6.2c5.7,3,11.6,5.9,17.2,8.8
	c3,3.6,5.7,7.2,8.6,10.9c0.3,4,0.6,8.1,0.7,12.1c-2,4.2-4,8.3-6,12.4c-4,3.9-8,7.8-11.9,11.7c-5.6,3.3-11.3,6.7-16.9,10.1
	c-6.9,2.5-13.9,5.1-20.7,7.6c-7.9,1.4-15.9,2.8-23.8,4.2c-9.6,0-19.2,0-28.9,0.1c-9.4-1.3-18.9-2.7-28.3-4.1
	c-9.2-2.5-18.3-4.9-27.5-7.2c-8.7-3.2-17.5-6.4-26.3-9.5c-53.1-24.3-106.2-48.7-159.4-73c-4.9-2.9-9.9-5.9-14.7-8.8
	c-3.4-3.1-6.9-6.2-10.4-9.3c-1.4-3.3-3-6.6-4.4-10c1-3.6,2-7.1,3-10.7c1.3-1.8,2.7-3.4,4-5.1c1.9-1.6,3.6-3.1,5.3-4.8
	c2.1-1.4,4.3-2.9,6.4-4.3c2.6-1.3,5-2.6,7.6-4c2.9-1.1,5.7-2.3,8.6-3.5c3.3-1,6.4-2,9.6-3c3.6-0.8,7-1.7,10.6-2.5
	c3.9-0.7,7.7-1.3,11.6-2c4.7-0.5,9.3-1.1,14-1.6c5.3-0.4,10.6-0.8,16-1.1c5.7-0.2,11.6-0.3,17.3-0.5c5.9,0.1,11.9,0.2,17.7,0.3
	c5.7,0.4,11.4,0.8,17.3,1.1c5.3,0.8,10.6,1.4,16,2.2c4.6,1.1,9.2,2.3,13.7,3.4c3.6,1.6,7,3.1,10.6,4.7c3.1,3.4,6.3,6.7,9.4,10.1
	c-0.4,3.7-0.9,7.4-1.1,11.1c-3.1,3.9-6.4,7.8-9.4,11.7c-5,3.9-10.2,7.8-15.3,11.7c-6.4,3.8-12.7,7.5-19,11.3
	c-29.5,13.3-58.8,26.5-88.3,39.9c-3.3,0.9-6.7,1.9-10,2.8c-3.4,0.5-7,1-10.4,1.4c-3.7-0.1-7.4-0.1-11.3-0.1c-4.1-0.6-8.4-1.3-12.6-2
	c-4.9-1.3-9.6-2.7-14.5-4c-28.6-11.6-57.1-23.2-85.7-34.8c-5.2-1.6-10.3-3.3-15.5-4.9c-5.4-1.3-10.9-2.6-16.3-4
	c-4-0.5-8-1.1-12.2-1.6c-4.1-0.1-8.4-0.1-12.6-0.1c-4.1,0.4-8.3,0.8-12.4,1.3c-3.9,0.8-7.7,1.6-11.6,2.5c-3.3,1.1-6.7,2.3-10,3.5
	c-2.6,1.4-5.2,3-7.7,4.4c-1.6,1.8-3.3,3.5-4.9,5.2c-0.6,1.9-0.9,3.8-1.3,5.8c0.9,1.8,1.6,3.7,2.6,5.5c1.9,1.8,3.7,3.5,5.6,5.2
	c2.6,1.6,5.3,3.3,8.2,4.9c3.3,1.5,6.4,3.1,9.7,4.6C452.2,527.1,544,564,635.6,600.9c1.9,1,3.7,2.1,5.6,3.1c1.6,1.1,3,2.1,4.6,3.3
	c1,1.1,2.3,2.2,3.3,3.4c0.6,1.2,1.1,2.4,1.9,3.6c0.1,1.3,0.1,2.6,0.3,3.9c-0.6,1.4-1,2.8-1.6,4.2c-1.1,1.6-2.3,3.1-3.4,4.7
	c-2.3,1.7-4.3,3.3-6.6,5c-2.7,1.1-5.6,2.1-8.3,3.2c-3.3,0.6-6.4,1.1-9.7,1.7c-3.6,0.1-7.2,0.3-10.7,0.4c-3.9-0.3-7.6-0.4-11.3-0.6
	c-3.9-0.5-7.7-0.9-11.6-1.4c-3.9-0.7-7.6-1.3-11.4-2C572.4,632.2,568.6,631.4,565.1,630.7L565.1,630.7L565.1,630.7z"/>
<g id="layout">
	<polygon points="548.2,629.7 547,629.2 546,628.6 548.5,627.5 550.9,626.4 551.9,626.9 553.2,627.5 550.8,628.5 	"/>
	<polygon points="555.5,626.4 554.3,625.9 553.3,625.4 555.8,624.2 558.2,623.2 559.3,623.7 560.5,624.2 558,625.3 	"/>
	<polygon points="563.9,622.7 562.8,622.2 561.6,621.7 564.1,620.6 566.6,619.5 567.6,620 568.8,620.6 566.3,621.7 	"/>
	<polygon points="571.2,619.5 570.2,618.9 568.9,618.5 571.4,617.4 573.9,616.3 575.1,616.8 576.1,617.4 573.6,618.4 	"/>
	<path d="M880.3,546.3c-3.6,1.6-7.4,3.2-11.2,4.7c-12.3,4.7-23,7.9-34.2,10c-20.2,3.8-39.5,4-59.2,0.5c-8.2-1.5-16-3.5-23.3-6
		c-6-2-50.7-20.5-73.3-29.9l-2.1-0.9l-91.3,40.2l2.3,0.9c0,0,40.2,16.8,59.5,24.9c7.7,3.1,14.3,6.7,19.9,10.7
		c5.9,4.2,9.2,8.4,10.4,12.6c2.1,8-2.9,14.9-15.6,21.4c-1.6,0.8-3.3,1.7-5.2,2.5c-5.7,2.5-12.3,4.7-19.3,6.5
		c-17.9,4.4-35.1,4.7-52.7,0.9c-7.3-1.6-13.7-3.6-19.3-6c-2.7-1.1-5.4-2.3-8-3.5c-2-0.9-4.3-1.9-6.4-2.8
		c-13.2-5.7-58.4-25.3-58.8-25.4l-2-0.9l-2.1,0.9c-0.1,0.1-10.6,4.5-15,6.2c-9.9,3.9-21.5,7-33.8,8.9c-15.6,2.4-31.6,3-48.9,2
		c-14.6-0.9-27.5-2.8-42.9-6.1c-14.2-3-27.3-6.7-38.9-10.9c-6.4-2.3-174.4-72.6-181.4-75.9c-7.9-3.7-13-7.2-16.3-11.4
		c-5.7-7.1-4.7-14.2,3.3-21.9c4-3.7,9.4-7.4,16.7-11.3c4.7-2.5,9.9-4.9,15.3-6.9c22.2-8.6,46.8-11.7,73-9.1
		c10.9,1.1,21.5,3.1,32.5,6.3c7.7,2.3,175.6,73.7,239.8,101l2.1,0.9l28.2-12.5l-182.4-77.1h-0.1c-1.7-0.9-16.7-8.8-21.2-13.7
		c-3.1-3.3-5-6.7-5-10.4c-0.3-5.9,4.7-11.8,13.9-16.8c1.9-0.9,3.6-1.9,5.6-2.8c8.3-3.6,17.9-6.3,28.8-7.9c10.7-1.6,22-2,33.6-1.1
		c13.2,1,25.2,3.3,37.1,6.9l0.1,0.1c2.9,1.1,36.2,15.9,60.7,26.5c15.2,6.7,30.9,13.6,34.9,15.3c3.6,1.6,7.6,3,12,4v0.1
		c9.7,2.2,19.5,1.5,28-2.1c2.9-1.1,8.9-4,8.9-4l1.9-0.9l-2.1-0.9c-0.3-0.1-32.2-13.2-37.9-15.9c-11.9-5.5-21-11.1-27.8-16.8
		c-6-5.1-9.9-10.3-11.2-15.5c-2.6-9.4,3.1-18.5,16.7-26.7c3-1.8,6.7-3.7,11.6-5.8c2-0.9,4-1.8,5.9-2.5c14.3-6,28.5-10.6,43.1-14
		c15.3-3.5,30.3-5.5,45.2-5.9c17.9-0.5,34.3,1.3,50.4,5.4c7.7,2.1,15,4.5,21.2,7.3c8.4,3.7,14.6,6.6,20.2,9.4
		c6.7,3.4,12.3,7.4,16,11.7c6.4,7.6,5.6,15.6-2.7,24c-4.1,4.2-10.2,8.3-18.2,12.7c-5.7,3.1-64.8,30.4-65.4,30.6l-2,0.9l36.5,16.1
		l2.1-0.7c0.6-0.3,1.3-0.4,1.6-0.5l0.3-0.1l0.6-0.3c4.3-2,8.4-3.8,12.9-5.7l2.6-1.1c5-2.2,10.2-4.5,15.6-6.6c5-2,10.6-4,16.5-5.9
		c19.6-6.6,38.3-11,56.8-13.5c16.7-2.2,32.3-2.6,47.4-1.4c11.4,1,21.9,3.1,31.2,6c9.2,2.8,16.5,6.3,23,9.6c4.1,2.2,8.4,4.5,12.6,6.9
		c9.3,5.6,15.5,11.1,19.2,16.8c6.2,10.1,2.4,20.2-11.2,30c-5.3,3.8-11.6,7.4-18.5,10.6C887,543.2,883.6,544.7,880.3,546.3z
		 M582.4,564.9l94.4-41.6l3.6,1.5c22.6,9.5,67.1,27.8,73,29.9c7.2,2.4,14.9,4.3,22.9,5.9c19.2,3.4,38.1,3.3,57.5-0.5
		c10.9-2.1,21.6-5.2,33.6-9.8c3.7-1.4,7.6-3,11.2-4.7c3.3-1.4,6.7-3,9.9-4.6c6.9-3.3,13-6.7,18.2-10.5c13.3-9.6,17-19.4,11-29.2
		c-3.6-5.5-9.6-10.9-18.9-16.4c-4-2.3-8.3-4.7-12.4-6.9c-6.4-3.3-13.6-6.7-22.6-9.5c-9.2-2.8-19.3-4.8-30.3-5.8
		c-14.7-1.3-29.9-0.9-46.5,1.3c-18.3,2.4-36.8,6.7-56.1,13.3c-5.9,1.9-11.3,3.9-16.3,5.9c-5.3,2.1-10.4,4.3-15.6,6.5l-2.6,1.1
		c-4.3,1.9-8.4,3.7-12.7,5.7l-0.6,0.3l-0.4,0.1c-0.1,0.1-0.9,0.3-1.3,0.5l-3.6,1.3l-39.3-17.3l3.4-1.6c0.6-0.3,59.5-27.4,65.2-30.5
		c8-4.3,13.9-8.4,17.9-12.5c8-8.1,8.9-16,2.6-23.3c-3.7-4.3-9-8.1-15.7-11.5c-5.6-2.8-11.6-5.7-20-9.4c-6.2-2.8-13.2-5.2-20.7-7.2
		c-15.7-4-31.8-5.7-49.2-5.2c-14.5,0.4-29.3,2.3-44.4,5.7c-14.5,3.3-28.3,7.9-42.6,13.9c-1.7,0.7-3.9,1.6-5.7,2.5
		c-4.7,2.1-8.4,3.9-11.2,5.7c-13.3,8.1-18.9,16.8-16.5,26c1.4,5.1,5,10.1,10.9,15.1c6.7,5.6,15.7,11,27.5,16.5
		c5.7,2.6,37.5,15.7,37.8,15.8l3.7,1.5l-3.4,1.6c-0.1,0-4.3,2.1-7.3,3.4c-0.6,0.3-1.3,0.6-1.9,0.8c-9.3,3.8-19.9,4.6-30.5,2.2
		l-0.1-0.1c-4.7-1.1-8.9-2.5-12.4-4.2c-4-1.8-19.7-8.6-34.9-15.3c-24.3-10.6-57.2-25.1-60.5-26.5c-11.6-3.6-23.3-5.8-36.1-6.7
		c-11.2-0.9-22.3-0.5-32.6,1c-10.6,1.6-19.9,4.2-27.9,7.7c-1.9,0.8-3.7,1.8-5.4,2.6c-8.9,4.7-13.6,10.4-13.3,16.1
		c0.1,3.5,1.9,6.9,5,10.1c4.4,4.7,19,12.5,20.9,13.5l184,77.6l-31.3,13.9l-3.6-1.6c-64.1-27.3-231.9-98.6-239.5-100.9
		c-10.7-3.1-21.2-5.2-31.8-6.2c-25.6-2.5-49.5,0.5-71.1,8.9c-5.3,2.1-10.3,4.3-15,6.8c-7.3,3.8-12.6,7.4-16.5,11
		c-7.7,7.4-8.9,14.4-3.3,21.2c3.3,4,8.2,7.4,15.7,11.1c7,3.3,174.9,73.4,181.4,75.8c11.6,4.2,24.5,7.8,38.5,10.8
		c15.3,3.3,27.9,5.1,42.4,6c17,1.1,32.6,0.5,47.9-1.9c12-1.8,23.5-4.9,33.1-8.7c4.3-1.7,14.7-6.2,15-6.2l3.6-1.6l3.6,1.6
		c0.4,0.2,45.6,19.8,58.8,25.4c2.1,0.9,4.3,1.9,6.4,2.8c2.6,1.1,5.3,2.3,7.9,3.5c5.3,2.3,11.7,4.3,18.7,5.9
		c16.7,3.7,33.3,3.3,50.7-0.9c9-2.3,17.2-5.2,24-8.8c12.3-6.2,17.2-13,15-20.7c-1.1-4.1-4.4-8.1-10.2-12.2
		c-5.3-3.9-12-7.4-19.6-10.5c-19.5-8.1-59.5-24.9-59.5-24.9L582.4,564.9z M851.2,534.6c-3.1,1.4-6.2,2.6-9.2,3.8
		c-4.7,1.8-10.7,3.9-17.9,5.5c-8.3,1.9-17.6,2.2-25.8,1c-6.9-1-13.2-2.5-18.7-4.6c-5.3-1.9-10-3.7-14.5-5.5
		c-7.6-3.1-15.2-6.3-22.6-9.3c-3.7-1.6-7.4-3.1-11.2-4.7l-20.2-8.5l-4.7-2.1l5.6-2.6l13.3-6c6.7-3,13.5-5.7,20.5-8.3
		c8.2-3,17-5.7,26.5-8.1c10.9-2.7,20.2-4.3,29.5-5c15.7-1.3,29.3,0.3,40.4,4.7c13,5.1,23.3,10.9,31.2,16.9c3.6,2.6,6,5.6,7.2,8.8
		v0.1c1.3,4-0.7,7.9-6.4,12c-3.3,2.4-7.3,4.7-11.6,6.8C858,531.5,854.7,533.2,851.2,534.6z M709.4,510.1l3.1,1.4l20.2,8.5
		c3.7,1.6,7.4,3.1,11.2,4.7c7.4,3.1,15,6.2,22.6,9.3c4.4,1.8,9.2,3.6,14.3,5.4c5.4,2,11.6,3.4,18.2,4.4l0,0
		c7.6,1.2,16.5,0.9,24.2-0.9c7-1.6,13-3.7,17.5-5.4c3-1.1,5.9-2.3,9-3.7c3.3-1.4,6.7-3,11-5.2c4.3-2.1,8.2-4.3,11.4-6.7
		c5.3-3.9,7.4-7.7,6-11.3v-0.1c-1.1-3-3.6-5.9-6.9-8.4c-7.7-6-18-11.7-30.8-16.8c-10.4-4.2-23.5-5.7-38.5-4.5
		c-9,0.7-18.2,2.3-28.9,4.9c-9.3,2.3-18.2,5.1-26.2,8.1c-6.4,2.3-12.4,4.8-18.6,7.5c-0.6,0.3-1,0.4-1.6,0.7l-13.3,6L709.4,510.1z
		 M629,625.5c-2.4,1.1-5.2,2.1-8,2.8c-3.9,1.1-8.6,1.3-12.4,0.4c-4.6-0.9-8.6-2.1-12.2-3.7c-3-1.3-51.1-22.3-71.7-31.2l-4.6-2
		l31.8-14l3.6,1.5c0.6,0.3,51.7,21.5,63,26.4c7.2,3.1,12.3,6.2,15.2,9.6v0.1c0.9,1.2,1.6,2.5,1.9,3.7v0.1c0.4,1.5-0.9,3.1-3,4.3
		C631.6,624.2,630.3,624.9,629,625.5z M523.3,591.9l3.1,1.3c20.6,8.9,68.4,29.9,71.7,31.2c3.3,1.4,7.2,2.6,11.6,3.5
		c3.3,0.7,7.3,0.6,10.4-0.4h0.1c4.1-1.1,8-2.6,11.2-4.5c1.9-1.1,2.9-2.4,2.6-3.7v-0.1c-0.3-1.2-1-2.3-1.9-3.5l-0.1-0.1
		c-2.9-3.3-7.6-6.3-14.7-9.3c-11.3-4.8-62.5-26.2-63-26.4l-2.1-0.9L523.3,591.9z M453.5,598.2c-3.1,1.4-6.9,3-11.2,4.3
		c-9.2,2.8-18.7,4-30.6,4c-9.9-0.1-19.9-1-31.6-3c-11.6-2.1-22.3-4.7-32.2-7.6c-6.9-2.1-175.3-71.7-187.6-77.6
		c-3.1-1.4-5.7-3.1-7.9-4.8c-3.6-2.7-3.6-6.2-0.1-9.1c2.4-2.3,5.7-4.4,9.4-6.4c2.4-1.3,4.7-2.3,7-3.3c3.1-1.4,6.3-2.5,9.4-3.5
		c7.2-2.2,16-3.1,24.3-2.4c7,0.5,13.7,1.7,21.6,3.8c7,2,233.4,98.5,235.7,99.4l3.7,1.6l-3.6,1.6c-1.1,0.4-2.1,0.9-3.1,1.4l-0.1,0.1
		C455.6,597.2,454.6,597.7,453.5,598.2z M170.4,495.3c-2.3,1-4.4,2.1-6.9,3.3c-3.7,1.9-6.9,4-9.2,6.2c-3.1,2.7-3.1,5.8,0.1,8.3l0,0
		c2,1.6,4.6,3.2,7.4,4.7c12.4,5.9,180.4,75.3,187.3,77.5c9.7,3,20.3,5.5,31.8,7.5c11.4,2,21.2,2.8,30.8,2.9
		c11.3,0.1,20.5-1.1,29.3-3.8c4.3-1.3,8-2.8,10.9-4.2c1.1-0.5,2.3-1,3.3-1.4l0.1-0.1c1.1-0.5,2.1-1,3.3-1.4l2.1-0.9l-2.1-0.9
		c-2.3-1-228.7-97.4-235.4-99.3c-7.6-2.1-14-3.3-20.9-3.7c-7.7-0.6-16,0.3-22.9,2.3C176.6,492.8,173.4,494,170.4,495.3z
		 M555.3,553.4l-4.1-1.8c-17.2-7.2-168-70.9-178.1-75.3c-5.9-2.5-10.6-5.3-14-8.4l-0.1-0.1c-1.1-1.3-1.9-2.3-2.4-3.4
		c-1-1.8,0.3-3.8,3.6-5.2l0.1-0.1l0.3-0.1c6-2.6,11.9-3.7,19.2-3.5c6.4,0.2,12.6,1,19.7,2.6l0.1,0.1c3.3,0.8,5.9,1.6,8.2,2.6
		l89,39.2c8,3.5,15.5,5.9,23.6,7.5c15.9,3.1,31.6,3.4,48.1,0.8c10.6-1.6,20.6-4.5,28.9-8.1c0.1-0.1,0.4-0.3,0.7-0.3l11.9-5.2
		l37.5,16.1v2.1l-0.3,0.1L555.3,553.4z M361.6,459.8c-2.6,1.1-3.9,2.8-3,4.3l0,0c0.6,1,1.1,2.1,2.3,3.3v0.1
		c3.3,3.1,7.7,5.9,13.5,8.3c10.2,4.3,161.1,68,178.1,75.3l2.6,1.1l89.6-39.6v-1.3l-35.3-15.2l-10.2,4.5c-0.3,0.1-0.6,0.3-0.7,0.3
		c-8.4,3.7-18.7,6.6-29.5,8.3c-17,2.7-33.3,2.5-49.8-0.8c-8.4-1.7-16-4.2-24.2-7.7l-88.9-39.2c-2-0.9-4.4-1.8-7.6-2.5l-0.1-0.1
		c-6.7-1.6-12.7-2.3-18.9-2.5c-6.6-0.2-12,0.8-17.5,3.3l-0.3,0.1L361.6,459.8z M613.6,469.3l1.1-2.3l-5,1.4l-1.1-0.5
		c-14.5-6.2-48.9-21.2-56.1-26.4c-4-2.8-7-5.9-9-9.2v-0.1l-0.7-1.4c-2.6-6.1,1-11.1,11.6-16.1c1.4-0.7,3-1.3,4.3-1.9
		c9.6-4.2,18.9-7.5,28.5-10.1c8.2-2.2,15.7-3.7,23-4.5c14-1.6,27.2-0.8,39.2,2.4c5,1.3,9.4,2.8,13.5,4.7c6.4,2.9,13,5.9,19,8.9
		c3.7,1.8,6.7,4,9,6.2c3.1,3,3.1,6.6,0,10c-2.6,2.7-6,5.2-10.2,7.6c-4.7,2.8-10.2,5.2-15.5,7.7c-1,0.4-1.9,0.8-2.9,1.3L613.6,469.3z
		 M610,467.3l8.2-2.2l-0.6,1.1l43.6-20c1-0.4,1.9-0.9,2.9-1.3c5.2-2.4,10.6-4.9,15.3-7.6c4-2.2,7.4-4.7,9.9-7.4c3-3,3-6.4,0-9.1
		c-2.1-2.2-5-4.2-8.6-6c-6.2-3-12.6-6-19-8.9c-3.9-1.8-8.3-3.3-13-4.5c-11.6-3-24.3-3.8-37.8-2.3c-7,0.8-14.3,2.2-22.3,4.4
		c-9.4,2.5-18.6,5.9-28.2,10c-1.4,0.6-2.9,1.3-4.3,1.9c-10.2,4.7-13.6,9.5-11.2,15.3l0.6,1.4c1.9,3.2,4.9,6.2,8.7,8.9
		C561.2,446.2,595.4,461.2,610,467.3z"/>
</g>
</svg>
