<?xml version="1.0" encoding="utf-8"?>
<!-- Generator: Adobe Illustrator 21.0.2, SVG Export Plug-In . SVG Version: 6.00 Build 0)  -->
<svg version="1.1" id="SCENE_4" xmlns="http://www.w3.org/2000/svg" xmlns:xlink="http://www.w3.org/1999/xlink" x="0px" y="0px"
	 viewBox="0 0 1024 1024" style="enable-background:new 0 0 1024 1024;" xml:space="preserve">
<style type="text/css">
	.st0{fill:#FFFFFF;}
	.st1{display:none;}
	.st2{fill:#64566D;}
</style>
	<rect id="BACKGROUND_grass" y="0" width="1024" height="1024"/>
	<g id="ROAD">
		<path id="TRACK_cobblestone" class="st2" d="M653.4,256.4c0,1.9,0.9,185,1,228.9c0,9.1-1.7,18.1-2.9,27.1
		c-2,14.5-5.5,28.6-10.7,42.3c-7.2,18.9-17.2,36-31.7,50.2c-17.6,17.2-38.8,27.5-63.1,31.1c-3.8,0.6-7.6,1-11.8,1.5
		c0,1.2,0,2.4,0,3.6c0.2,24.2,2.3,199.7,2.3,215c0,14.5-2,28.8-7,42.6c-9,25-26.3,42.1-50.5,52.4c-11.8,5-24.1,8-36.7,10
		c-21.1,3.3-42.4,4.4-63.7,4.4c-37.9-0.1-75.9-0.3-113.8-0.8c-17.4-0.2-34.7-1.2-52-3.1c-16.2-1.8-32.4-4.3-47.8-9.8
		c-13.7-4.9-26.1-11.8-36.4-22.3c-11.3-11.5-18.2-25.4-22.3-40.9c-2.4-9.2-3.7-18.6-4.6-28.1c-1.4-16.2-1.4-32.4-1-48.7
		c0.4-15.4,2.9-30.4,8.7-44.8c10-25,27.9-42.3,52.7-52.6c13.3-5.5,27.2-8.5,41.4-10.2c26.6-3.2,53.2-2.3,79.9-2.2
		c16.6,0.1,33.3-0.1,49.9-0.2c5.1,0,10.1-1,14.9-2.6c8-2.5,13.9-7.4,18-14.8c3.2-5.9,5.4-12.1,6.6-18.6c1.3-7.2,2.1-14.5,3.1-21.8
		c0.1-0.7,0-1.4,0-2.6c-1.2,0-2.4-0.1-3.6-0.1c-25.9,0.2-51.9,0.4-77.8,0.5c-5.5,0-11,0.1-16.4,0.1c-10.1-0.1-20.2,0.6-30.3,1
		c-19.5,0.9-38.3-2.2-56.1-10.6c-25.5-12.1-41.8-32.1-49.9-58.9c-3.3-10.9-5.1-22.2-5.1-33.6c0-11.6,0.1-23.2,0.8-34.7
		c1.1-16.7,4.2-33,10.7-48.5c11.4-27,31.3-44.6,59.1-53.5c11.2-3.6,22.7-5.4,34.4-6.3c17.7-1.4,35.3-0.7,53,0.5
		c9.3,0.7,18.6,1.2,27.8,2.1c16,1.5,31.8,4.1,47,9.2c17.5,5.9,32.8,15.2,44.6,29.6c10.1,12.3,16.2,26.5,19.8,42
		c3.2,14,6.6,94.6,6.6,94.6l28.5-0.7c0,0-0.4-242.1-0.3-270.4c0.1-19.7,3.6-38.8,11.1-57.1c5.5-13.3,13.1-25.1,23.9-34.7
		c11.4-10.2,24.7-16.4,39.8-18.6c4.8-0.7,9.7-0.8,14.5-1.2c8.8-0.7,17.5-1.4,26.3-2.1c0.7-0.1,1.4-0.3,2.3-0.5c0-1.6,0-3.1,0-4.7
		c0.4-17,2.5-33.8,8.4-49.9c12.7-34.9,37.4-56.2,73.4-64.3c20.1-4.5,40.4-4.9,60.5,0.2c32.5,8.2,54.3,28.6,66,59.9
		c4.3,11.6,6.6,23.6,7.6,36c0.9,11.2,0.7,22.3-0.4,33.4c-0.1,0.9,0,1.9,0.2,2.8c2.1,11.7,7.8,21.4,16.5,29.5
		c5.9,5.5,12.5,10.2,19.4,14.4c11.2,6.9,22.5,13.5,33.6,20.5c11.2,7,21.4,15.2,30,25.3c13.2,15.6,20.5,33.5,21.6,53.9
		c0.9,16.8,0,33.5-1.9,50.1c-1.9,17-5.3,33.7-10.6,49.9c-8.4,25.9-21.1,49.3-39.6,69.5c-14.6,15.8-31.7,28.4-51,37.9
		c-12.1,6-24.7,10.4-37.7,14c-11.5,3.2-21.8,8.9-31.5,15.7c-1.3,0.9-1.8,1.8-1.4,3.4c1,4.6,2.2,9,4.3,13.2c3.2,6.4,8,11,14.5,13.8
		c6.1,2.7,12.6,3.8,19.3,4.2c11.4,0.7,22.6,2.3,33.5,6c27.9,9.4,47.3,28,58.6,55c5.4,13,8.4,26.6,10,40.5
		c1.3,11.2,1.7,22.5,1.9,33.7c0.1,7.7,0.6,15.5,1,23.2c1.7,35.6-11.8,63.8-41,84.3c-14.2,10-30,16.6-46.5,21.5
		c-16.4,4.9-33.1,8-50,10.2c-21.9,2.8-43.8,4.3-65.9,3.5c-19.1-0.7-37.9-3.2-55.8-10.4c-19.1-7.6-34.5-19.7-44.8-37.9
		c-6.2-11-9.8-23-11.5-35.4c-2.1-14.8-2.2-29.7-1.2-44.6c0.9-13,3.9-25.7,7.6-38.2c8.8-30,21.1-58.5,36-85.8
		c11.3-20.6,23.9-40.4,38.4-58.9c7.5-9.5,15.4-18.7,24-27.2c1.4-1.4,2.1-2.8,2-4.9c-0.9-25.4-4.2-263-6.3-271.5
		c-0.8-3.2-1.9-6.4-3.2-9.3C670.2,263.5,662.9,259,653.4,256.4z M747.6,511.3c3.9-1.4,7.3-2.7,10.9-3.8c7.1-2.3,14.3-4.2,21.2-6.8
		c19.1-7,35.5-18,48.2-34.1c10.9-13.6,17.9-29.1,22.7-45.8c6.3-22.2,8.1-44.9,7.9-67.8c-0.1-8.5-3.2-15.7-9.7-21.3
		c-3.1-2.6-6.1-5.3-9.5-7.5c-6.4-4.2-12.9-8.2-19.5-12.1c-11.8-7.1-23.6-14.1-34.5-22.5c-25-19.3-41.5-44-47.4-75.3
		c-1-5.6-2.2-11.2-1.4-16.9c1.3-9.5,1.6-18.9,0.5-28.4c-0.7-6.5-2.2-12.8-4.9-18.8c-3.9-8.8-10.5-14.2-19.9-16.1
		c-11.6-2.3-23-1.7-34.3,1.5c-10,2.8-16.9,9.3-20.9,18.8c-0.7,1.7-1.4,3.5-1.9,5.2c-2.8,9.5-3.7,19.2-3.7,29.1
		c0,0.3,0.2,0.6,0.4,0.9c0.4,0.1,0.8,0.2,1.2,0.3c9,1.3,17.9,3.3,26.4,6.4c22.9,8.3,40.5,22.9,51.9,44.6
		c8.5,16.3,12.4,33.9,13.2,52.1c0.4,8.3,0.1,16.5,0.2,24.8c0.1,25.8,0.2,51.7,0.3,77.5c0,8.8,0.2,17.6,0.4,26.4
		c0.5,22.6,1,45.3,1.5,67.9C747,496.7,747.3,503.8,747.6,511.3z M699.9,637.6c-1,1.3-1.6,2.2-2.3,3.1c-8.1,11.7-15.5,23.9-22.3,36.5
		c-12,22.4-22.1,45.5-29.2,69.9c-2.4,8.3-4.9,16.7-5.3,25.4c-0.4,8.3-0.3,16.7,0.1,25.1c0.2,4.5,1.2,9,2.3,13.4
		c1.5,6.2,5.5,10.6,11.3,13.1c4,1.7,8.1,3.1,12.3,4.1c16.1,3.7,32.4,3.5,48.7,2.8c14.9-0.7,29.7-2.3,44.3-4.7
		c12.8-2.1,25.3-5.1,37.4-9.9c7.9-3.1,15.5-6.8,21.8-12.7c4.3-4,7.2-8.8,7.8-14.7c0.3-3.3,0.4-6.6,0.3-9.9c-0.2-7.8-0.6-15.7-1-23.5
		c-0.4-9.2-0.7-18.4-1.4-27.5c-0.7-8.4-2.4-16.5-5.8-24.3c-3.6-8.4-9.4-14.5-18.3-17.4c-4.8-1.6-9.8-2.5-14.9-2.7
		c-8-0.4-15.8-1.3-23.6-3.1c-18.8-4.2-35.3-12.6-49.1-26.2C708.3,649.4,704,643.9,699.9,637.6z M441.1,643.1
		c-0.8,13.7-2.4,27.4-5.7,40.8c-3.9,15.9-10.1,30.8-20,44c-14.3,18.9-33.4,30.4-56.3,35.9c-12.1,2.9-24.3,3.6-36.6,3.6
		c-25.7,0-51.5-0.3-77.2-0.4c-11.3,0-22.5,0.5-33.7,1.8c-8.8,1.1-17.5,2.7-25.8,6.3c-8.6,3.7-14.2,10-17,19
		c-1.8,6.1-2.8,12.3-3,18.6c-0.4,15.5-0.6,31,1.1,46.5c0.7,6,1.6,11.9,3.7,17.5c1.8,4.9,4.9,8.6,9.6,10.9c2.8,1.3,5.7,2.5,8.6,3.5
		c9,2.9,18.3,4.3,27.6,5.4c16.7,1.9,33.6,2.7,50.4,3.1c16,0.4,32,0.6,48.1,0.7c29.5,0.2,58.9,0.9,88.4-0.6
		c11.4-0.6,22.7-1.6,33.9-3.8c6.7-1.3,13.3-3,19.4-6.1c6-3,9.8-7.7,11.9-14c2-6.4,2.7-13,2.8-19.6c0.1-5.6-0.2-11.2-0.3-16.7
		c-0.4-26.6-0.9-53.1-1.1-79.7c-0.4-38.7-0.5-77.3-0.8-116c0-1.2,0-2.4,0-3.9c-9.4,0.2-18.4,0.5-27.7,0.7
		C441.3,641.5,441.2,642.3,441.1,643.1z M374.7,572.9c-0.4-7.8-0.9-15.7-1.1-23.5c-0.4-11.7-0.5-23.4-0.9-35
		c-0.2-6.9-1.3-13.7-2.8-20.5c-2.7-12.1-9.9-19.8-21.8-23.4c-9.6-2.9-19.5-4.7-29.5-5.7c-8.8-0.9-17.7-1.5-26.6-2.2
		c-14.6-1.1-29.3-1.7-44-0.8c-6.6,0.4-13.1,1.4-19.6,3c-11.2,2.8-18.6,9.6-21.8,20.7c-1.6,5.7-2.9,11.6-3.8,17.5
		c-1.8,12.3-1.7,24.7-1.4,37.1c0.2,5.9,1.2,11.7,3.2,17.3c3,8.4,8.7,14.1,17,17.2c7.8,2.9,15.9,3.8,24.1,3.3c7-0.4,92.5-1.4,124-1.6
		c1.5,0,3.1,0,4.8,0C374.7,574.9,374.8,573.9,374.7,572.9z M585.9,255.6c-10.8,0.8-21.6,1.6-32.5,2.5c-3.5,0.3-6.3,1.9-8.5,4.6
		c-2.6,3.1-4.5,6.7-5.9,10.5c-3.7,9.9-5.6,20.1-5.7,30.6c-0.1,10.2,0,20.5,0,30.7c0,50.6,0.1,101.1,0.2,151.7
		c0,27.5,0.2,55,0.3,82.5c0,1.1,0.1,2.1,0.2,3.3c5.5-0.6,10.3-1.8,15-3.8c11.4-4.8,19.2-13.4,25-24c5.8-10.4,9.4-21.6,11.5-33.2
		c1.5-8.5,2.6-17.1,3.5-25.8c0.5-4.9,0.2-9.9,0.2-14.9c-0.3-65.1-0.5-130.3-0.8-195.4c0-6.3-0.3-12.6-0.4-19.2
		C587.1,255.6,586.5,255.5,585.9,255.6z"/>
		<circle id="START" cx="523" cy="665.5" r="3.7" class="st1"/>
	</g>
<g id="OBSTACLES">
	<path id="1_stone" class="st0" d="M247,776.9c-11.3,0-21.6,0.6-31.6,1.8c-9.7,1.1-16.8,2.9-23,5.5
		c-5.9,2.5-9.5,6.5-11.3,12.7c-1.6,5.1-2.4,10.5-2.5,15.9c-0.4,16.1-0.5,30.6,1.1,45.2c0.7,6.4,1.7,11.1,3.2,15.2
		c1.2,3.4,5.5,7.3,7,8c24.6,10.9,61.2,8.4,127.1,9.2s111.5,1,138.1-9.6c3.5-1.8,5.6-4.3,6.8-8.1c1.5-4.6,2.2-10,2.4-16.8
		c0.1-3.3-2.3-205.9-2.3-205.9l-8.4,0.2c-1,13.5-2.8,25.1-5.5,36.1c-4.6,18.8-11.7,34.4-21.7,47.6c-15.2,20.1-36.1,33.4-62,39.6
		c-11.2,2.7-23.2,3.8-38.9,3.8L247,776.9z"/>
	<path id="2_stone" class="st0" d="M703,654.9c-5.6,8.7-11,17.7-16,27.1c-12.6,23.4-21.9,45.6-28.4,68
		c-2.2,7.6-4.5,15.5-4.9,23.1c-0.4,7.2-0.3,15.1,0.1,24.1c0.2,3.6,1.1,7.5,2,11.5c0.7,3,2.5,5,5.5,6.2c3.9,1.6,7.4,2.8,10.7,3.6
		c8.8,2,18.4,3,30.2,3c4.6,0,9.5-0.1,15.9-0.4c14.4-0.7,28.9-2.2,43.2-4.6c13.8-2.3,25.1-5.3,35.4-9.3c8.6-3.4,14.2-6.6,18.6-10.7
		c3.8-3.6,4.5-6.5,4.7-8.4c0.3-2.8,0.4-5.7,0.3-8.6c-0.2-7.1-0.5-14.3-0.9-21.3l-0.1-2.1c-0.1-2.4-0.2-4.8-0.3-7.2
		c-0.3-6.6-0.6-13.4-1.1-20c-0.6-7.9-2.3-14.8-5-21.2c-2.7-6.2-6.5-9.9-12.2-11.8c-3.8-1.3-8-2-12.3-2.3c-9.4-0.5-17.6-1.6-25.3-3.3
		c-21.3-4.8-39.5-14.5-54-28.8C706.9,659.4,704.9,657.3,703,654.9z"/>
	<path id="3_stone" class="st0" d="M265.3,471.3c-4.9,0-9.4,0.1-13.8,0.4c-6.1,0.4-12,1.3-17.7,2.7c-8,2-12.5,6.2-14.6,13.8
		c-1.5,5.3-2.7,10.7-3.5,16.2c-1.8,11.9-1.6,24.5-1.3,35.3c0.1,5,1,9.8,2.6,14.2c2,5.6,5.5,9.2,11.1,11.2c5.1,1.9,10.4,2.8,16.3,2.8
		c1.2,0,122.9-1.7,122.9-1.7c0-0.3,0-0.5,0-0.8c-0.3-5.2-0.6-10.5-0.7-15.9c-0.2-5.5-0.3-11.1-0.4-16.6c-0.1-6.1-0.2-12.3-0.5-18.4
		c-0.2-5.8-1-11.9-2.6-18.7c-1.9-8.5-6.5-13.5-15-16c-8.3-2.5-17.3-4.3-27.6-5.3c-7.5-0.8-15.3-1.3-22.8-1.9l-3.5-0.3
		C282.8,471.7,273.6,471.3,265.3,471.3z"/>
	<path id="4_stone" class="st0" d="M556.9,268c-0.3,0-0.8,0.1-1.6,1c-1.6,1.9-3,4.4-4.2,7.6c-3.2,8.6-4.6,282.7-4.6,282.7
		c0.5-0.2,0.9-0.4,1.4-0.6c8.3-3.5,14.7-9.8,20.2-19.6c4.9-8.9,8.4-19,10.4-30.1c1.4-7.8,2.5-16,3.4-25c0.3-3.2-0.7-215-0.7-218
		C577.9,266.4,556.9,268,556.9,268z"/>
	<path id="5_stone" class="st0" d="M754.7,270.5c1.3,7,2.2,14.4,2.5,22.1c0.3,6,2.6,204.9,2.6,204.9s4.2-1.3,6.3-1.9
		c4.5-1.4,8.7-2.6,12.8-4.2c18.2-6.7,32.6-16.8,43.8-30.9c9.3-11.6,16.1-25.5,20.9-42.3c5.4-18.9,7.7-39.5,7.5-65
		c-0.1-5.9-2-10.3-6.2-13.8l-0.2-0.2c-2.8-2.4-5.5-4.7-8.3-6.5c-6.5-4.3-13.3-8.4-19.1-11.9l-1.7-1c-11.3-6.7-22.9-13.7-33.8-22.1
		C771.3,289.4,762.2,280.3,754.7,270.5z"/>
	<path id="6_stone" class="st0" d="M664.4,181.2c7.5,1.4,14.5,3.3,21.2,5.7c18.7,6.8,34,17.4,45.7,31.7
		c-0.2-0.8-0.3-1.6-0.5-2.4l-0.1-0.7c-1.1-5.8-2.3-12.4-1.3-19.5c1.3-8.9,1.4-17.6,0.5-25.9c-0.7-6-2-11.2-4.1-15.9
		c-2.6-5.9-6.5-9.1-12.7-10.3c-4-0.8-8-1.2-12-1.2c-5.8,0-11.7,0.9-17.6,2.5c-6.9,2-11.5,6.1-14.4,13c-0.7,1.6-1.2,3-1.6,4.3
		C665.8,168.2,664.8,174.2,664.4,181.2z"/>
	<path id="7_stone" class="st0" d="M381.3,975.4c-38.5-0.1-76.8-0.3-113.9-0.8c-18.2-0.2-36-1.3-52.9-3.1
		c-15-1.6-32.6-4.1-50.1-10.3c-16.5-5.9-29.6-13.9-40.2-24.7c-11.9-12.1-20-26.9-24.8-45.4c-2.3-8.7-3.8-18.1-4.8-29.8
		c-1.6-17.9-1.4-35.2-1-49.8c0.5-17.9,3.6-33.6,9.4-48.2c10.9-27.1,30.4-46.6,58.2-58.1c12.8-5.3,27.2-8.8,44-10.9
		c18.1-2.2,35.7-2.5,50.5-2.5c6.3,0,12.7,0.1,18.9,0.1c3.9,0,7.8,0.1,11.8,0.1c3.5,0,7.1,0,10.6,0c13,0,26.3-0.1,39.1-0.2
		c3.7,0,7.6-0.7,12-2.1c5.5-1.7,9.4-4.9,12.2-10c2.7-4.9,4.5-10.1,5.5-15.6c0.7-4.1,1.3-8.3,1.9-12.6l-70.3,0.5c-1.5,0-3,0-4.5,0
		c-2.6,0-5.3,0.1-7.9,0.1c-1.4,0-2.8,0-4.2,0c-0.8,0-1.7,0-2.5,0c-6.6,0-13.2,0.3-20.1,0.7c-2.4,0.1-4.8,0.2-7.2,0.3
		c-2.3,0.1-4.6,0.2-6.8,0.2c-19.5,0-37.6-3.9-54-11.7c-27.5-13-46-34.9-55.2-65c-3.7-12-5.5-24.3-5.5-36.5c0-10.7,0-23.1,0.8-35.4
		c1.3-19.4,5-36.4,11.5-51.7c12.4-29.3,34.3-49.2,65.3-59.1c10.9-3.5,22.9-5.7,36.6-6.7c6.9-0.5,14-0.8,21.7-0.8
		c9.7,0,20.1,0.4,32.7,1.3l5.1,0.4c7.5,0.5,15.3,1.1,23,1.8c19.7,1.9,35.3,5,49.3,9.7c20.7,7,36.8,17.8,49.1,32.8
		c10.5,12.8,17.6,27.8,21.8,46.1c3,12.8,4.4,26.6,4.7,44.5c0.2,9.7,1.4,37.9,1.5,42.2l9.1-0.2c0-4.3-0.5-239-0.4-260.7
		c0.1-21.4,4.1-41.9,11.9-60.9c6.4-15.6,15.1-28.2,26.5-38.3c12.9-11.5,28.1-18.6,45.1-21c3.7-0.5,7.3-0.8,10.7-1
		c1.5-0.1,2.9-0.2,4.4-0.3l5.6-0.5c4.6-0.4,9.3-0.7,13.9-1.1c0.8-18.9,3.6-34.6,8.8-49.1c13.8-38,40.9-61.8,80.7-70.7
		c11.1-2.5,22.2-3.8,32.8-3.8c11,0,21.9,1.3,32.3,4c35.3,8.9,59.9,31.2,72.9,66.1c4.4,11.9,7.1,24.5,8.2,38.7
		c0.9,11.4,0.8,23.1-0.4,34.9c0,0.1,0,0.2,0,0.3c1.7,9.3,6.1,17.1,13.5,23.9c5,4.6,10.8,8.9,17.8,13.2c4.1,2.5,8.3,5,12.4,7.5
		c7,4.2,14.2,8.6,21.3,13c13.1,8.3,23.7,17.2,32.3,27.3c14.7,17.3,22.8,37.4,24,59.9c0.9,15.7,0.3,32.2-1.9,51.8
		c-2,18.1-5.7,35.5-11.1,51.9c-9.4,28.9-23.1,52.8-41.8,73.1c-15.1,16.4-33.3,29.9-53.9,40.1c-11.6,5.7-24.5,10.5-39.4,14.7
		c-8.1,2.3-16,6-24.7,11.8c0.6,2.3,1.4,4.5,2.4,6.5c2.1,4.3,5.2,7.2,9.5,9.1c4.4,1.9,9.5,3,15.8,3.4c13.6,0.8,25.4,2.9,36.1,6.5
		c30.3,10.2,52.1,30.6,64.7,60.6c5.3,12.6,8.8,26.7,10.7,43.2c1.4,11.8,1.8,23.6,2,34.7c0.1,5.8,0.4,11.7,0.7,17.4
		c0.1,1.8,0.2,3.7,0.3,5.5c1.9,39.3-13.4,70.5-45.3,92.9c-13.6,9.6-29.7,17-49.4,22.9c-15.5,4.6-32.4,8.1-51.6,10.5
		c-20,2.5-38,3.8-54.9,3.8c-4.2,0-8.5-0.1-12.6-0.2c-23.6-0.9-42.4-4.4-59.1-11.1c-22.2-8.9-38.9-23.1-49.8-42.2
		c-6.5-11.5-10.6-24.2-12.7-39c-2-14.4-2.4-29.6-1.3-46.7c0.8-12,3.3-24.5,7.9-40.4c8.6-29.2,21-58.8,36.8-87.8
		c12.3-22.5,25.1-42.2,39.3-60.3c8-10.2,15.8-19.1,23.8-27.1c-1-27.2-4.2-260.7-6-267.7c-0.7-2.7-1.6-5.3-2.6-7.6
		c-0.5-1-1-1.9-1.6-2.7c0.1,5.4,0.9,140.9,0.9,170.6c0,13.7,0,27.3,0,41c0,8-1.1,15.6-2.2,22.9c-0.3,1.8-0.5,3.7-0.8,5.5
		c-2.1,15.3-5.9,30.2-11.3,44.4c-8.3,21.9-19.5,39.5-34.1,53.8c-19,18.6-42.1,29.9-68.7,33.8c-1.1,0.2-2.1,0.3-3.2,0.4
		c0,0,2.2,200.5,2.2,209.6c0,16.9-2.5,31.9-7.6,46c-9.7,27-28.6,46.5-56,58.2c-11.4,4.8-24.1,8.3-39,10.6c-19.3,3-40.3,4.5-64.2,4.5
		L381.3,975.4z M1024,0H0v1024h1024V0z"/>
</g>
</svg>
