<?xml version="1.0" encoding="utf-8"?>
<!-- Generator: Adobe Illustrator 21.0.2, SVG Export Plug-In . SVG Version: 6.00 Build 0)  -->
<svg version="1.1" id="SCENE_1" xmlns="http://www.w3.org/2000/svg" xmlns:xlink="http://www.w3.org/1999/xlink" x="0px"
	y="0px" viewBox="0 0 1024 1024" style="enable-background:new 0 0 1024 1024;" xml:space="preserve">
	<style type="text/css">
		.st0 {
			fill: #FFFFFF;
		}

		.st1 {
			display: none;
		}

		.st2 {
			fill: #64566D;
		}
	</style>
	<rect id="BACKGROUND_grass" y="0" width="1024" height="1024" />
	<g id="ROAD">
		<path id="TRACK_asphalt" class="st2" d="M386.9,1001.9c-1.1,0-2.3,0-3.5,0c-5.4-0.1-11.2-0.3-17.3-0.6c-2.8-0.1-5.8-0.2-9-0.4
		c-11.4-0.4-20.8-0.9-29.7-1.6c-10.2-0.7-19.5-1.6-28.6-2.8c-9.8-1.2-19.2-2.7-28.9-4.5c-9.9-1.9-19.8-4.1-30.3-6.8
		c-13.1-3.3-25.4-9.1-36.5-17.1c-9.9-7.2-18.9-16.1-26.5-26.5c-6.8-9.3-12.6-19.7-17.2-31c-4.3-10.4-7.5-21.6-9.6-33.1
		c-3-16.2-5.1-31-6.5-45.4c-1.2-12.3-1.8-24.2-1.9-36.3c-0.1-11,0.3-20.6,0.7-28.8l0.2-4.3c0.3-6.5,0.6-12.7,0.7-18.8
		c0.2-13.4-0.7-25.1-2.8-35.7c-1.8-9-4.4-17.6-8.6-27.8c-3.4-8.4-7.5-17-12.2-26.9c-1-2.1-2-4.3-3-6.4c-6.4-13.6-13.2-28.6-20-46.4
		l0,0c-3.3-8.7-6.9-17.4-10.7-26.6l-1.9-4.7c-4.5-10.9-9.2-22.5-13.6-34.6c-5-14-8.8-26.6-11.6-38.6c-3.5-15-5.4-29.2-6-43.2
		c-0.6-16.4,1.3-32.9,5.6-49.2c4.4-16.5,11.1-31.9,19.9-45.7c9.8-15.4,21.8-28.2,35.6-38.1c15.9-11.4,33.7-18.4,52.7-20.8
		c10.4-1.3,20.7-1.6,30.5-0.7c11,1,21.6,3.4,31.3,7.2c10.9,4.2,20.8,10.1,29.6,17.5c9.1,7.7,16.8,17.1,22.9,27.8
		c5.3,9.3,12.3,21.8,19.2,35.8c7.1,14.5,13.2,28.7,18.5,43.4c6.2,17,11.2,34.3,15.5,52.8c4.6,20,8.2,41.7,10.8,64.4
		c0.5,4.4,1,8.9,1.5,13.5c0.3,2.9,0.6,5.7,1,8.7c0.7,6.2,1.6,14.3,2.6,22.3s2,14.9,3.1,21.2c1.2,6.9,2.4,13.1,3.7,18.5l0,0
		c0,0,0.1,0.1,0.2,0.4c0.2,0.4,0.7,1.1,1.8,2.1c1,1,2.4,2,3.8,2.9c1.6,1,3.3,1.8,5,2.4c2.2,0.8,4.7,1.4,7.3,1.9
		c2.8,0.5,5.9,0.8,9.3,1s7.1,0.2,11.2,0c3.8-0.2,8-0.5,12.7-0.9c8.8-0.9,17.2-2.3,24.8-4.1c7.9-1.9,15-4.3,21-7.2
		c5.6-2.6,10.3-5.6,13.9-8.8c3.1-2.8,5.3-5.7,6.9-9c1.3-2.7,2.1-5.8,2.6-9.3c0.5-4,0.5-8.7,0-14c-0.6-5.5-1.7-11.5-3.4-18.4
		c-1.6-6.2-3.6-12.9-6.3-21.1c-4.2-12.5-8.7-25.1-13.4-37.4c-4.7-12.3-9.8-24.7-15.1-36.7c-5.3-12.1-10.9-24.2-16.7-36
		c-5.8-11.8-12-23.7-18.3-35.2c-8.7-15.9-17.7-30.5-26.5-43.1c-9.9-14.1-20.1-26.4-30.3-36.7c-10.7-10.8-21.8-19.5-32.8-26
		c-11.4-6.7-22.8-11-34.7-13.3c-2.7-0.5-5.6-0.9-8.4-1.3l-2.8-0.4c-2.8-0.4-5.6-0.8-8.4-1.2c-5.2-0.8-9.6-1.6-13.7-2.6
		c-5.7-1.3-11-2.9-16-4.8c-6.4-2.4-12.6-5.4-18.3-9c-6.3-3.9-12-8.5-17.1-13.6c-5.9-5.9-10.8-12.6-14.5-19.7
		c-4.4-8.4-7.2-17.3-8.3-26.5c-0.9-7.7-0.7-15.6,0.8-23.4c1.2-6.4,3.2-12.8,5.9-19.1c2.2-4.9,4.9-9.9,8-14.8
		c2.5-3.9,5.2-7.6,8.4-11.6c13.1-16.2,28.9-30.6,47.1-42.6c16-10.6,34.2-19.7,54.1-26.9c17.2-6.3,36.1-11.4,56.2-15.1
		c17.1-3.2,35.8-5.6,55.3-7c11.3-0.8,22.8-1.4,34.1-1.8c11.3-0.3,22.8-0.4,34.2-0.3c11.3,0.2,22.8,0.6,34.1,1.2
		c11.3,0.6,22.8,1.6,34.1,2.7c3.3,0.3,7.8,0.8,12.4,1.5c5.2,0.7,9.8,1.6,14.3,2.6c5.7,1.3,10.9,2.8,16,4.7c6,2.2,11.8,4.9,17.1,8
		c6.3,3.7,12.3,8.1,17.6,13.2c5.6,5.3,10.4,11.3,14.3,17.6c4.5,7.2,7.7,14.9,9.8,22.8c2.4,9.2,3,18.5,1.9,27.7
		c-1.5,12.7-6,24.6-13.4,35.3c-5.9,8.5-13.5,15.9-22.6,22.2c-7,4.9-15,9-23.7,12.4c-7.3,2.8-15,5-22.9,6.6
		c-3.9,0.8-7.7,1.4-11.4,2.1c-1.5,0.3-3.1,0.5-4.6,0.8c-3.5,0.6-7.6,1.4-11,2.3c-1.2,0.3-2.1,0.6-2.8,0.8c0,0.6,0.1,1.3,0.2,2
		c0.3,1.4,0.7,2.7,1.2,3.9c0.9,2,2.1,3.9,3.6,6c1.6,2.3,3.7,4.7,6.1,7.2c2.4,2.6,5.3,5.2,8.7,8.2c3.8,3.3,7.8,6.6,10.8,9.1
		c7.9,6.4,14.5,11.5,20.7,16c7.2,5.2,13.8,9.6,20.2,13.4c6.8,4.1,13.2,7.3,19.5,10c6.4,2.7,12.7,4.8,18.7,6.2
		c5.6,1.3,11.4,1.9,17.3,1.9c5.8-0.1,11.3-0.8,16.5-2.2c4.8-1.3,9.1-3.1,12.8-5.4c3.3-2,6-4.5,8.1-7.2c1.8-2.4,3.4-5.1,4.7-8.3
		c1.5-3.5,2.7-7.6,3.6-12.1c1-4.7,1.6-10.1,2-15.9c0.4-5.5,0.5-11.6,0.4-18.6c-0.1-5.3-0.3-10.6-0.4-16.3l-0.2-5.4
		c-0.2-7.7-0.5-16-0.4-24.5c0.1-9.9,0.7-18.8,1.6-27.2c1.2-10.5,3.2-20.2,5.9-29.5c3.2-11.1,7.8-21.7,13.7-31.7
		c6.1-10.4,13.5-19.8,21.8-27.9c9.4-9.1,19.9-16.4,31.1-21.6c12.9-6,26.5-9.2,40.5-9.4c11.7-0.2,23.4,1.7,34.8,5.7
		c10,3.5,19.7,8.6,28.7,15.1c8.1,5.9,15.6,12.9,22.3,20.8c6.4,7.5,11.9,15.8,16.5,24.6c3.9,7.6,7.3,15.8,10.2,24.4
		c2.4,7.3,4.4,15,6.1,23.4c1.4,6.6,2.5,13.7,3.6,21.8c0.9,6.5,1.6,12.9,2.4,19.9l8.2,74.8c1.3,11.4,2.8,26.5,3.3,42.4
		c0.6,17.2,0,32.4-1.8,46.6c-2.3,17.9-6.6,34.4-12.9,49c-7.7,17.7-18.4,33.1-31.9,45.9c-8.5,8-18.2,15-28.9,20.9
		c-9.2,5-19.4,9.3-30.3,12.7c-9.2,2.8-19.2,5.2-29.7,6.9c-8.8,1.4-17.9,2.5-28,3.2c-8.6,0.6-16.9,1-25,1.3h-0.1
		c-7.7,0.3-15,0.6-22.2,1.1c-7.4,0.5-13.8,1.2-19.3,2.1c-6,0.9-11.4,2.1-16.2,3.6c-4.3,1.3-8.5,3.1-12.4,5.3
		c-3.8,2.1-7.1,4.5-9.9,7.1c-2.3,2.2-4.2,4.5-5.4,6.7c-0.9,1.6-1.5,3.2-1.7,4.7c-0.1,1.1-0.1,2.4,0.1,3.7c0.3,1.7,0.8,3.6,1.7,5.6
		c1,2.2,2.2,4.5,3.8,6.6c1.6,2.3,3.5,4.4,5.6,6.3c2.4,2.2,5.1,4.3,8,6.3c3,2,6.5,4,10.2,5.9s7.9,3.7,12.4,5.4
		c4.3,1.7,8.9,3.3,14.1,4.9c7.7,2.4,15.5,4.6,22.1,6.4c2.9,0.8,5.8,1.6,8.7,2.4c5.1,1.4,10.4,2.8,15.7,4.3c10.2,2.9,18.6,5.4,26.2,8
		c10.1,3.4,19.1,6.9,27.6,10.8c10,4.5,19.6,9.8,28.5,15.6c9.8,6.4,18.7,13.5,26.7,21.1c8.9,8.6,16.6,17.9,22.9,27.7
		c7,11,12.4,22.7,15.9,34.9c3.9,13.6,5.2,27.9,3.9,42.5c-1.3,14-4.9,27.5-10.8,40.1c-6.4,13.6-15,25.3-25.6,34.9
		c-12.2,11-26.3,18.5-41.9,22.3c-15,3.6-30.5,3.8-46.1,0.5c-12.1-2.6-24-7.1-36.6-13.9c-8.6-4.6-17.5-10.3-28-17.9
		c-4.7-3.4-9.1-6.7-13.5-10c-2.9-2.2-5.7-4.3-8.5-6.4c-3.7-2.7-7.3-4.5-11.5-5.7s-9.1-1.7-14.9-1.6c-6.2,0.1-13.4,0.9-22.5,2.6
		c-8.1,1.5-16.7,3.4-25.8,5.4l-3.6,0.8c-12.5,2.8-21.6,5.1-29.4,7.5c-8.6,2.6-15.8,5.4-21.9,8.5c-6,3-11,6.4-15.4,10.3
		c-4.7,4.2-8.8,9.1-12.5,15c-3.7,5.8-7.3,11.7-11.1,18c-2.5,4.1-5,8.2-7.5,12.3c-5.6,9.1-13.1,21-21.3,32.6
		c-8.9,12.5-17.6,23.2-26.5,32.7c-11,11.7-22.3,21.4-34.5,29.7c-10.6,7.2-19.5,12.4-28.1,16.4c-9.9,4.6-19.7,7.7-29.9,9.4
		C403.8,1001.3,396.2,1001.9,386.9,1001.9z M186,566.6c6,15.7,12.1,28.9,17.3,40c1,2.1,2,4.2,2.9,6.3c5.1,10.7,9.8,20.9,14.2,31.7
		c6.5,15.9,10.9,30.3,13.8,45.3c3.5,17.4,5,35.7,4.7,55.9c-0.1,7.6-0.4,14.7-0.8,21.7l-0.2,4.1c-0.3,7-0.6,15.2-0.6,24
		c0.1,9.2,0.5,18.3,1.4,27.7c1.1,11.5,2.8,23.6,5.3,37c0.9,5,2.3,9.8,4.1,14.2c1.6,4,3.6,7.5,5.7,10.4c1.7,2.3,3.5,4.2,5.3,5.5
		c1.4,1,2.6,1.6,4.1,2c8.6,2.2,16.7,4,24.6,5.5c7.6,1.4,15,2.6,22.8,3.6c7.4,0.9,15,1.7,23.5,2.3c7.8,0.6,16.3,1,26.5,1.4
		c3.3,0.1,6.5,0.3,9.4,0.4c5.6,0.2,10.5,0.4,14.6,0.5c4.8,0.1,8.1-0.1,10.4-0.5c1.3-0.2,2.9-0.6,5.5-1.8c3.7-1.7,8.4-4.5,14.4-8.6
		c6.4-4.4,12.6-9.7,18.8-16.3c5.9-6.2,11.8-13.5,18-22.3c6.6-9.3,12.8-19.1,18-27.5c2.4-3.9,4.8-7.9,7.3-11.8
		c3.8-6.2,7.7-12.7,11.8-19.1c8.5-13.5,18.6-25.5,30-35.6c10.6-9.4,22.3-17.3,35.7-24.1c11-5.6,23.2-10.4,37.2-14.7
		c10.4-3.2,21.7-6.1,36.8-9.4l3.6-0.8c9.6-2.1,19.6-4.4,29.7-6.2c14.2-2.5,26.2-3.8,37.6-4.1c15.2-0.3,29.1,1.4,42.4,5
		c15.3,4.2,29.7,11.3,42.8,20.9c3.1,2.3,6.2,4.6,9.3,7c4.1,3.1,8,6.1,11.9,8.9c7,5.1,12.6,8.7,17.4,11.3c5.4,2.9,8.9,4,10.9,4.4
		s3,0.3,3.5,0.2c0.1,0,0.2-0.2,0.4-0.3c0.5-0.4,1.7-1.7,2.9-4.3c1.2-2.5,1.9-5.3,2.2-8.1c0.2-2.6,0-5.1-0.5-7.2
		c-0.9-3.2-2.4-6.5-4.5-9.7c-2.2-3.5-5.1-6.9-8.6-10.3c-3.6-3.5-7.9-6.9-12.7-10s-10-6-15.5-8.5c-5.6-2.5-11.7-4.9-18.7-7.3
		c-6-2-12.8-4.1-21.4-6.5c-4.9-1.4-9.7-2.7-14.8-4c-3-0.8-6-1.6-9-2.4c-7.5-2.1-16.5-4.6-25.8-7.5c-7.2-2.3-13.7-4.5-19.8-6.9
		c-7.4-2.9-14.1-5.8-20.5-9c-7.3-3.7-14.3-7.7-20.7-11.9c-7.2-4.8-13.9-10.1-20-15.7c-6.8-6.3-12.9-13.2-18.3-20.7
		c-5.6-7.8-10.3-16-14-24.6c-4-9.3-6.8-18.8-8.4-28.5c-1.7-10.6-1.9-21.2-0.5-31.6c1.8-13.5,6.2-26.6,13-38.8
		c6-10.7,13.8-20.7,23.3-29.7c8.4-8,18-15,28.6-21c9.9-5.6,20.5-10.2,31.5-13.5c9.3-2.8,19-5,29.6-6.7c8.3-1.3,17.3-2.3,27.5-3
		c8.5-0.6,16.8-0.9,24.9-1.3h0.1c7.4-0.3,15.1-0.6,22.3-1.1c7.1-0.5,13.5-1.2,19.3-2.2c6.1-1,11.7-2.3,16.7-3.8
		c4.8-1.5,9.1-3.3,12.8-5.3c3.5-1.9,6.4-4,8.9-6.3c4-3.8,7.2-8.5,9.7-14.3c2.7-6.3,4.7-14,5.8-22.9c1.1-9,1.5-19.2,1.1-31.1
		c-0.5-12.7-1.7-25.6-2.8-35.3l-8.2-74.8c-0.7-6.6-1.3-12.1-2.1-17.6c-0.8-5.9-1.6-10.9-2.5-15.3c-1-4.8-2.1-9-3.3-12.8
		s-2.6-7.1-4.2-10.1c-1.3-2.4-2.8-4.8-4.6-6.9c-1.7-2-3.5-3.7-5.3-5s-3.2-1.9-4-2.2c-0.4-0.1-1-0.3-1.5-0.3c-0.4,0-1,0.2-1.6,0.5
		c-1.4,0.7-3.1,1.9-4.7,3.5c-2.1,2.1-4.2,4.7-5.9,7.7c-1.8,3.1-3.3,6.4-4.2,9.8c-1.2,4.2-2.1,8.8-2.7,14c-0.6,5-0.9,10.7-1,17.2
		c-0.1,6.7,0.1,13.7,0.3,20.3l0.2,5.2c0.2,5.8,0.4,11.9,0.5,18c0.2,9.6,0,18.3-0.6,26.5c-0.7,10.3-1.9,19.7-3.8,28.7
		c-2.2,10.7-5.3,20.9-9.2,30.2c-4.6,10.9-10.4,20.9-17.3,29.8c-9.1,11.8-20.4,21.9-33.4,30c-11.7,7.3-24.8,12.9-38.8,16.6
		c-12.9,3.4-26.5,5.2-40.3,5.4c-13.4,0.1-26.8-1.3-39.7-4.3c-11.6-2.7-23.4-6.5-34.9-11.5c-10.3-4.4-20.4-9.6-30.9-15.9
		c-8.9-5.3-17.9-11.3-27.4-18.2c-7.6-5.5-15.4-11.5-24.6-19c-3.8-3.1-8.8-7.2-13.9-11.6c-5.5-4.8-10.3-9.4-14.7-14
		c-5.5-5.7-10.2-11.4-14.4-17.2c-5-6.9-9.2-14-12.7-21.3c-4-8.5-7-17.6-8.7-26.9c-1.8-9.6-2.4-19.3-1.6-28.8
		c0.8-10.6,3.2-20.7,7.2-30.1c4.5-10.7,10.9-20.3,18.9-28.4c21.6-11.6,16.2-20.9,9-21c-9.9-0.1-20,0-30,0.3
		c-9.9,0.3-20,0.8-29.9,1.6c-16,1.2-31.1,3.1-44.8,5.7c-15,2.8-28.8,6.5-41,11c-12.8,4.7-16.5,5.6-26.3,12.1
		c-6.1,4-0.8,22.1,3.7,22.9c22.6,4.3,35.4,10.6,56.2,22.8c18.1,10.6,35.7,24.4,52.2,41c14.1,14.1,27.8,30.7,40.9,49.3
		c11.1,15.8,21.6,32.8,32.1,52.1c7,12.8,13.8,25.9,20.3,39c6.4,13.1,12.7,26.5,18.5,39.9s11.5,27.1,16.7,40.7s10.2,27.6,14.9,41.4
		c3.5,10.6,6.2,19.5,8.3,28.1c2.9,11.4,4.8,21.9,5.8,32c1.3,12.5,1.2,24.6-0.2,35.9c-1.7,13.5-5.4,26.4-11,38.2
		c-7,14.8-16.9,28-29.4,39.3c-10.6,9.6-23.2,17.8-37.4,24.5c-11.8,5.5-25,10.1-39.1,13.5c-12,2.9-24.8,5-38,6.4
		c-6.6,0.7-12.5,1.1-18.2,1.3c-7,0.3-13.5,0.3-19.8,0c-7.4-0.4-14.5-1.1-21.3-2.3c-7.8-1.4-15.3-3.3-22.4-5.8
		c-8-2.8-15.8-6.5-23-10.9c-7.6-4.6-14.6-10-20.8-16c-6.8-6.6-12.6-13.9-17.3-21.7c-5.2-8.7-9.1-18-11.4-27.7
		c-1.8-7.6-3.4-15.7-5-24.8c-1.3-7.5-2.4-15.6-3.6-24.8c-1.1-8.8-2.1-17.4-2.8-23.9c-0.3-3-0.7-5.9-1-8.8c-0.5-4.5-1-8.8-1.4-13.1
		c-2.2-19.1-5.2-37.2-9-53.7c-3.4-14.7-7.4-28.3-12.2-41.6c-4.1-11.4-8.8-22.4-14.4-33.8c-5.7-11.6-11.7-22.4-16.3-30.5
		c-0.6-1-1.1-1.7-1.7-2.2c-0.5-0.4-1.2-0.8-2.1-1.2c-1.4-0.6-3.3-1-5.4-1.1c-2.8-0.3-6.1-0.2-9.6,0.3c-3.2,0.4-6.2,1.6-9.1,3.8
		c-3.7,2.6-7.2,6.6-10.3,11.4c-3.5,5.5-6.3,12-8.1,18.9c-1.8,7-2.7,14.2-2.4,20.9c0.3,7.9,1.5,16.1,3.6,25.1
		c1.9,8.3,4.7,17.4,8.4,27.8c3.7,10.3,8,20.8,12,30.6l1.9,4.6C178.3,547,182.3,556.7,186,566.6L186,566.6z M535.5,225.6L535.5,225.6
		L535.5,225.6z"/>
		<circle id="START" cx="220.3" cy="729.1" r="3.4" class="st1" />
	</g>
	<path id="drive" class="st2" d="M120,579.9L94.6,462.7l-2.4-32.2l2-30.5l7.6-27.3l14.6-22.7l27.8-21.8l26.9-7l25.4,5.1l23.4,14.6
	l20.9,21.5l17.8,25.7l14.2,27.2l10,26.2l5.4,23.1L304.9,579l7.7,27.1l11,23.6l15.2,18.7l16.5,10.3l21.2,6.6l24.3,3.2l25.8,0l25.7-3
	l24-5.7l20.7-8.3l15.9-10.5l27.5-43.7l1.2-52.1l-19.1-57.2l-33.5-59L403,318.8l-71-76.9l-32.9-50l-5.3-43.2l16.1-34.2L341,91.3
	l40-10.1l42.6,5.1l39,22.3l29.1,41.7l8.4,24.7l18.9,95.2l8.9,21.9l13.7,20.7l20,19.3l24.7,15.9l24.5,9.3l23.8,2.9l22.6-3.2l20.9-9.1
	l18.7-14.8l15.9-20.3l12.7-25.5l7.4-27.4l12.4-92.9l8.4-27.6L768,117l22.5-15.1l32.9-5.8l29.8,4.3l22.2,12.5l15.8,18.9l10.5,23.7
	l6.4,26.9l6.4,114l-1.8,27.6l-4.8,24.2l-8.6,21.1l-13.1,18.5l-18.4,16.2l-24.5,14.3L812,430.9L718.2,453l-21.5,9.5l-17.9,13.8
	L666.1,496l-6.1,26.7l3.8,29.3l14.6,23.1l22.8,18l28.4,14L847,644.9l17.9,11l15.5,15.6l11.7,18.9l6.7,21l0.3,21.7l-7.3,21.2
	l-16.3,19.4L849,789.9l-16.3,5l-18.3,1.9l-19.7-0.5L699,780.9l-17.2-1.3l-17,0.5l-16.9,2.2l-16.6,3.8l-16.4,5.3l-16,6.6L568,814.9
	l-27.5,19.8L456.6,915l-23.5,16.6l-28.2,13.7l-34.6,10l-29.7,4.1l-28.3-0.3l-26.5-4.7l-24.2-9.1l-21.5-13.6l-18.4-18.1L207,890.9
	l-10.9-27.1L145,651.7L120,579.9L120,579.9z" />
</svg>