<?xml version="1.0" encoding="utf-8"?>
<!-- Generator: Adobe Illustrator 21.0.2, SVG Export Plug-In . SVG Version: 6.00 Build 0)  -->
<svg version="1.1" id="SCENE_4" xmlns="http://www.w3.org/2000/svg" xmlns:xlink="http://www.w3.org/1999/xlink" x="0px"
	y="0px" viewBox="0 0 1024 1024" style="enable-background:new 0 0 1024 1024;" xml:space="preserve">
	<style type="text/css">
		.st0 {
			fill: #FFFFFF;
		}

		.st1 {
			display: none;
		}

		.st2 {
			fill: #64566D;
		}
		.st3 {
			fill: rgba(255,255,255,0.8);
		}
	</style>
	<rect id="BACKGROUND_grass" y="0" width="1024" height="1024" />
<g id="OBSTACLES">
	<path id="02_stone" class="st0" d="M541.7,859.6c2.1,2.6,15.9,14,46.3,23c22,6.6,46.3,10.1,70.1,10.1c0,0,0,0,0,0
		c10.7,0,21.3-0.7,31.5-2.1C739,884,804.4,858,835.8,771.8l1-3l0.7-1.3c2.1-5.1,19.4-50.2,25.6-143.4c6-92,1.8-249.2-52.2-476.2
		c-4.3-1.7-14.1-4.4-32.3-4.4c-3,0-6.2,0.1-9.5,0.2c-5.3,0.3-18.1,0.4-39,0.4c-126.6,0-500.3-4.6-527.7-4.9
		c-6.8,2.1-21,7.2-34.3,15.7c-25.1,16.1-24.7,30.4-24.5,36.5l0,0.1c0.2,7,2.1,8.8,3.6,10.2c9.6,8.8,34.2,13.3,53.6,13.3
		c1.4,0,2.7,0,3.9-0.1l1.8-0.1h1.5l492.2-3c3.3-0.5,6.6-0.7,10-0.7c15,0,29.8,4.4,42.9,12.9c19.6,12.4,34.8,33.4,45.2,62.2
		c9.8,27.2,16,62.5,18.9,107.8c0.4,6.3,0.9,13.4,1.4,20.9l0.6,8.9c3.2,47,7.6,111.3,7.8,169.5c0.3,84.1-8.2,132-28.4,160.3
		c-25.4,35.5-65,60.5-105.8,67c-7.4,1.2-14.9,1.8-22.2,1.8c-31,0-61.4-10.5-88.1-30.4c-26.7-19.9-44.6-49.8-53-88.6
		c-5.8-26.6-6.5-53.4-7.2-79.4l0-1.9c-0.4-18.6-1-41.6-4.4-54.4c-2.3-8.7-18.2-34.4-52.7-58.4c-18.2-12.7-55.5-34.1-100.1-34.1
		c-3.6,0-7.3,0.1-10.9,0.4c-130.4,10.4-163.4,53.7-192.5,92c-21.5,28.2-29.2,53-32.8,144.6c-1.8,46-0.5,81.2,4,107.8
		c4.8,28.4,11.5,37,12.7,38.3c0.4,0,0.9,0.1,1.8,0.1c0.3,0,0.5,0,0.8,0c19.2-0.5,24.9-7.3,27.3-10.2c6.1-7.3,10.5-20.1,12.4-36.1
		c5-41,4.9-50.4,4.6-102.5c0-2.8,0-5.7,0-8.7c0-3.3-0.1-6.7-0.1-10.3c-0.3-73.8,12.1-117.5,41.7-145.9
		c32.5-31.3,74.4-31.9,108.1-32.4l14.5-0.3c1.4,0,2.9-0.1,4.4-0.1c42.1,0,69,17.6,84.2,32.3c41.6,40.4,45,103.2,45,164.2
		C490.3,766.3,498.1,797.8,541.7,859.6z"/>
	<path id="01_stone" class="st0" d="M0,0v754.6h8.1c-0.1-14.7,0.2-30.4,0.8-47.1C12.8,607.5,22,553,66.1,495
		c21.7-28.4,48.5-60.9,92.4-87.1c48-28.7,108.8-45.7,186-51.8c6.6-0.5,13.4-0.8,20.2-0.8c58.4,0,116.8,19.2,169,55.6
		c51.2,35.7,88.6,82.8,100.1,126c7,26.5,7.8,56,8.4,82.1c0.4,15.3,0.8,34.3,2.9,49.6c2.8,20.5,7.2,25.8,9,27.1
		c6.1,4.5,11.4,6.6,16.8,6.6c1.1,0,2.2-0.1,3.4-0.3c8.5-1.3,18.6-7.9,25.4-16.5c1.6-4.5,7.9-27.2,7.3-98.4
		c-0.5-53.1-4.6-112.6-7.6-156c-0.5-8.4-1.1-16.4-1.6-23.7l-0.4-5.9c-2.4-37-6.9-58.3-10.3-69.7l-477.1,2.9c-2,0.1-5.1,0.2-9.2,0.2
		c-25.6,0-90-4.3-134.2-44.5c-26.9-24.4-41.7-57.3-42.9-95.1C22,137,51.4,86.1,106.6,51.8c37-22.9,72.8-30.8,75.3-31.4l6.8-1.6
		l7,0.1c194.9,2.5,449.2,5.1,536.6,5.1c16.9,0,27.4-0.1,31.2-0.3c5.2-0.2,10.3-0.4,15.3-0.4c50.4,0,89.6,12.7,116.5,37.7
		c23,21.2,30,45.1,32.1,57.6c25.9,108.6,43.4,211.9,52,307.1c3.9,46.2,5.8,90.2,5.8,130.7c0,29.3-1,57.9-3,85
		c-7.8,103.8-28.1,158.4-34.3,173.1c-21.8,58.9-56.3,105.9-102.3,139.8c-39.9,29.5-87,48-140.1,55.2c-15.3,2.1-31.2,3.1-47.2,3.1
		c-35.6,0-71.8-5.2-104.7-15c-29-8.7-81.9-29.1-109.9-68.6c-29.5-41.6-47.7-76-59-111.6c-10.2-32.2-14.6-64.8-14.6-109.1
		c0-20.9-0.4-42.6-3.3-59.4c-1.6-9.4-3.5-14.6-4.7-17.1c-0.3,0-0.6,0-0.9,0c-0.4,0-0.8,0-1.3,0c-5.7,0.2-11.1,0.3-16.2,0.3
		c-6.8,0.1-19.3,0.3-26.6,1.1c-2,6.8-5.1,22.9-5,56.8c0,3.6,0,7,0.1,10.2c0,3,0,5.9,0,8.7c0.3,53,0.4,69-5.6,117.6
		c-4.8,39.6-18,72.6-39.2,98.2c-19.4,23.4-55.3,51.7-116,53.5c-1.4,0-2.9,0.1-4.3,0.1c-33.9,0-63.9-12.2-86.8-35.3
		c-23.3-23.5-38.4-57.3-46.2-103.3c-3.6-21.4-5.8-58.3-6.4-86.4h-8.2L0,1024h1024V0H0z"/>
</g>

	<g id="ROAD">
		<path id="TRACK_asphalt" class="st2" d="M975.3,556.6c0,29.2-1,57.3-3,84.3c-7.8,103.9-28.4,157.9-33.6,170.1
		c-21.1,57-54.3,102.6-98.9,135.4c-38.6,28.5-84.2,46.4-135.5,53.3c-48.4,6.5-100.9,2.4-147.7-11.6c-27.8-8.3-78.4-27.8-104.6-64.8
		c-29-40.9-46.7-74.5-57.6-108.8c-9.9-31.2-14.1-62.9-14.1-106.1c0-21.3-0.4-43.5-3.4-61.1c-3.2-18.7-7.8-23.7-8.3-24.2
		c-0.6-0.6-3.4-1.4-8.8-1.2c-5.6,0.2-10.9,0.3-15.9,0.3c-11.2,0.2-27.8,0.5-33.8,2.3c-1.9,3.6-7.9,18.7-7.7,65.7
		c0,6.8,0.1,13.1,0.1,18.8c0.3,54.4,0.3,69-5.5,116.4c-4.6,37.7-17.1,69-37,93c-18.1,21.8-51.7,48.2-108.6,49.9
		c-32.9,1-61.8-10.2-83.7-32.3c-21.9-22.1-36-54.1-43.4-97.9c-5.7-34.2-7.5-76.8-5.4-130.2c3.8-97.9,12.7-151,55.2-206.8
		c21-27.5,46.9-59.1,89.6-84.6c46.6-27.9,106-44.4,181.7-50.4c61.7-4.9,126.5,13.9,182.7,53c49.3,34.4,85.2,79.4,96.1,120.4
		c6.6,25,7.4,52.9,8.1,79.8c0.8,33,1.9,74.1,16,84.5c9.4,7,18.2,9.6,27.6,8.2c11.6-1.8,24.3-10.2,32.7-21.4
		c1.7-3.8,9.2-25.4,8.5-103.5c-0.5-53.3-4.6-113-7.6-156.6c-0.7-10.7-1.4-20.8-2-29.6c-2.9-45.5-9-68.4-13.1-79.1l-484.5,2.9
		c-14.3,0.7-88.4,1.9-136.4-41.7c-24.8-22.5-38.5-52.9-39.6-88c-1.8-54.5,25.9-102.4,78-134.7c34.4-21.3,68.4-29.3,72.2-30.1
		l5.7-1.3l5.8,0.1c213.5,2.7,541,6.1,568.5,4.8c55-2.6,96.9,9,124.5,34.7c21,19.4,27.2,40.8,29.1,52.3
		c25.9,108.4,43.3,211.3,51.8,306C973.3,472.1,975.3,515.4,975.3,556.6z M846.6,771.8c1.6-3.8,20.1-50.5,26.5-147
		c6.1-93,1.9-252.3-53.4-482.9l-0.2-0.7c-4.3-3.1-19.3-8.9-50.9-7.4c-38,1.8-488.1-3.6-567.6-4.6c-7.7,2.3-23.5,7.8-38.3,17.3
		c-30,19.3-29.3,38.2-29.1,45.3c0.3,10,3.5,14.2,6.8,17.3c15,13.7,50,16.6,64.8,15.9l1.6-0.1l1.2,0l492.9-3
		c15.6-2.3,32.3,1.3,46.8,10.6c17.8,11.3,31.6,30.6,41.2,57.2c9.5,26.3,15.5,60.7,18.3,105c0.5,8.5,1.2,18.5,1.9,29
		c3.2,47.1,7.6,111.5,7.8,169.8c0.3,81.8-7.6,128-26.5,154.4c-23.9,33.4-61,56.9-99.2,62.9c-36.2,5.7-71.7-3.6-102.8-26.8
		c-24.8-18.5-41.3-46.3-49.2-82.7c-5.7-26.3-6.3-53.3-7-79.4c-0.5-21.2-1.1-43.1-4.7-56.7c-3.1-11.7-21.2-39.4-56.7-64.1
		c-21.5-15-65.4-39.5-117.5-35.4c-134.9,10.8-169.3,56-199.7,95.9c-22.9,30.1-31.1,56-34.8,150.2c-1.8,46.5-0.5,82.4,4.1,109.8
		c5.1,30.5,12.7,41,15.8,44c1.3,1.3,2.9,2.9,9.7,2.7c21.3-0.6,30-8.2,34.7-13.8c7.4-8.9,12.5-23.2,14.7-41.3
		c5-41.2,5-50.7,4.7-103.8c0-5.8-0.1-12.1-0.1-18.9c-0.3-70.9,11.3-112.4,38.6-138.7c29.6-28.5,67.7-29.1,101.3-29.6
		c4.8-0.1,9.7-0.2,14.6-0.3c41-1.2,66.9,15.3,81.4,29.4c38.8,37.7,42,98.2,42,157c0,57.7,7.4,92.2,53.3,157.1
		c2.6,3.7,17.8,16.7,51.6,26.8c33.5,10,71.1,13,105.8,8.3c52.1-7,121.1-34.4,154.2-125.3l0.8-2.3L846.6,771.8z" />
		<circle id="START" cx="925.3" cy="757" r="3.4" class="st1" />
		<g id="CHECK">
			<rect id="1" x="852" y="724"  class="st0" width="110.4" height="10" transform="rotate(9, 908, 727)"/>
			<rect id="2" x="716.5" y="626.4" class="st0" width="102" height="14"/>
			<rect id="3" x="206.4" y="731" class="st0" width="102" height="14"/>
		</g>
	</g>
	<path id="drive" class="st2" d="M886.5,750.9l6.8-79.1l8.3-208.8l5.8-165l-2.6-50.1l-6.4-31.2l-10.2-26L878,173.6L866,157l-13.9-16
	l-12-11.7l-12.6-10.5l-26.7-17.9l-28.5-14.1l-30-10.7L711,68.2l-64.1-8.7l-302.2-5.2l-84.9,7.6l-44.3,9.5L194.3,78l-20.1,8
	l-18.5,9.6L139.1,107l-14.3,13.2l-11.5,15.1l-8.4,17.2L100,172l-0.8,20.6l3.8,18.1l7.9,15.7l11.6,13.5l14.8,11.5l17.5,9.6l19.8,7.8
	l21.6,6.2l46.7,8.4l94.6,4.7L593.1,276l22.9,1.7l21.5,2.1l23.9,3.8l18.1,6.7l16.2,8.9l14,11.3l11.8,13.9l9.3,16.7l12.7,48l16.5,62.3
	l12.8,71.1l5.5,72.4l-1.1,34.4l-4.3,32l-7.9,28.6l-12,24.3l-16.4,19.1l-21.3,12.9l-26.7,5.9l-32.5-2.2l-19.8-4.8l-17.1-6.6
	l-14.6-8.3l-12.3-9.7l-10.3-11l-8.5-12.1l-7-13.1l-5.7-13.9L533,551.9L520.5,520l-7.3-14.3l-7.9-13.2l-8.6-12.1l-9.3-11l-10.1-9.9
	l-10.8-8.8l-11.5-7.8l-12.3-6.7l-13.1-5.7l-13.9-4.6l-14.7-3.6l-31.8-4.1l-17.2-0.5l-39.8,2.1l-36.1,6l-32.6,9.7l-29.3,13l-26.1,16
	L165,483.3l-20.1,21l-17.4,23.1l-14.8,24.8l-12.3,26.2l-10,27.3l-7.8,28.1l-9.7,57.3l-2.6,85.5l3.5,55.8l2.3,12.7l3.1,12l4,11l5,10
	l6.2,8.8l7.5,7.4l8.9,5.9l10.4,4.3l12.1,2.5l13.9,0.6l19.6-1.5l16.7-3.3l14-4.9l11.6-6.5l9.4-7.9l7.4-9.2l5.7-10.5l4.2-11.5l3-12.5
	l12.2-185l3.9-17.3l5.7-17l7.9-16.7l4.9-8.2l5.7-7.8l6.3-7l6.9-6.3l7.4-5.4l7.8-4.6l8.1-3.8l8.4-2.9l8.5-2l8.6-1l8.5-0.1l8.4,0.9
	l8.2,1.9l7.9,2.9l7.6,4l7.1,5.1l6.6,6.2l10.4,12.7l9.1,14l7.8,15.2L429,634l10.2,34.6l13.3,74.6l19.1,75.8l12.4,36.9l7.4,17.7
	l8.4,15.6l9.3,13.6l10.3,11.7l11.2,10l12.1,8.3l12.9,6.8l13.7,5.4l14.6,4.1l15.3,3l32.9,3l74-2.3l17.4-2l15.5-3.1l14-4.3l13-5.5
	l12.6-6.8l26-17.5l33.3-26.5l7.7-7.8l6.7-7.8l5.7-7.8l4.9-7.9l4.2-8l6.5-16.7l4.6-17.9l4-26.5L886.5,750.9z"/>

	<g id="layout">
	<polygon class="st3" points="871.3,726.8 871.8,724.3 872,721.8 877.5,722.6 882.8,723.4 882.5,725.8 882,728.3 876.8,727.5 	"/>
	<polygon class="st3" points="892.8,729.9 893,727.4 893.5,724.9 898.8,725.8 904.2,726.5 903.8,729 903.5,731.4 898,730.8 	"/>
	<polygon class="st3" points="914.2,733 914.5,730.5 914.8,728.1 920.2,728.8 925.5,729.6 925.2,732.1 924.8,734.6 919.5,733.8 	"/>
	<polygon class="st3" points="935.5,736.1 935.8,733.8 936.3,731.3 941.5,732 946.8,732.8 946.5,735.3 946.2,737.8 940.8,736.9 	"/>
	<path class="st3" d="M658.4,996.2c-34,0-68.6-5-100-14.3c-27-8.1-76.1-26.9-101.2-62.3c-28.5-40.1-45.9-73.1-56.7-107
		c-9.7-30.5-13.8-61.6-13.8-104.1c0-21.7-0.4-44.2-3.5-62.2c-3.3-19.2-8.2-25.8-10.1-27.7c-1.3-1.3-4-3.1-11.8-3.1
		c-0.6,0-1.2,0-1.9,0c-5.5,0.2-10.8,0.3-15.7,0.3l-0.1,0c-15.7,0.3-29.2,0.7-35.5,2.6l-2.6,0.8l-1.3,2.4c-3.2,6.1-8.6,23.2-8.5,68.8
		c0,3.5,0,7,0.1,10.3l0,0.2c0,2.9,0,5.7,0,8.3c0.3,53.6,0.4,68-5.5,115.6c-4.4,36.4-16.4,66.5-35.6,89.6
		c-17.3,20.8-49.3,45.9-103.8,47.6c-1.3,0-2.6,0.1-3.8,0.1c-29.4,0-55.3-10.5-75-30.4c-20.8-21-34.4-51.9-41.6-94.4
		c-5.7-33.9-7.4-76.1-5.3-128.9c3.7-96.5,12.4-148.7,53.9-203.1c20.7-27.2,46.4-58.2,87.8-83c45.8-27.4,104.3-43.6,178.9-49.5
		c6.2-0.5,12.6-0.7,18.9-0.7c55,0,110.2,18.2,159.6,52.6c48,33.5,83,77.2,93.5,116.7c6.5,24.6,7.2,53.1,7.9,78.3
		c1.1,43.7,3.1,78.1,18.6,89.6c10.8,8,21.3,11.1,32.4,9.4c13.3-2.1,27.4-11.2,36.9-23.9l0.4-0.6l0.3-0.7c2.3-5.1,9.8-28,9.1-106.2
		c-0.5-53.7-4.6-113.4-7.6-157c-0.5-8.1-1.1-16-1.6-23.1l-0.4-6.5c-2.9-45.3-8.9-69.1-13.5-81l-1.6-4.2l-489.2,2.9l-0.1,0
		c-1.8,0.1-4.7,0.2-8.6,0.2c-23.7,0-83.1-3.9-123.1-40.2c-23.5-21.3-36.4-50.1-37.5-83.4c-1.7-52.1,24.9-97.9,74.9-129
		c35.1-21.7,69.8-29.2,70.1-29.3l5-1.1l5,0.1c195,2.5,449.4,5.1,536.9,5.1c17.4,0,27.8-0.1,32-0.3c4.9-0.2,9.8-0.3,14.5-0.3
		c46.1,0,81.5,11.2,105.3,33.3c19.6,18.1,25.4,38.2,27.1,48.6l0.1,0.5c25.8,107.9,43.2,210.6,51.6,305.1
		c3.8,45.7,5.8,89.2,5.8,129.2c0,28.9-1,57.1-3,83.8c-7.8,104.4-28.9,158.3-33.1,168l-0.1,0.3c-20.7,55.9-53.2,100.5-96.7,132.4
		c-37.7,27.8-82.2,45.3-132.5,52.1C688.8,995.2,673.7,996.2,658.4,996.2z M361.4,611.4c9.2,0,12.7,2.5,14.6,4.3
		c2.8,2.8,7.9,10.3,11.2,29.9c3.1,18.3,3.5,41,3.5,62.9c0,42.1,4.1,72.9,13.6,102.9c10.6,33.5,28,66.1,56.2,105.9
		c24.4,34.5,72.5,52.9,99,60.8c31,9.3,65.2,14.2,98.8,14.2c15.1,0,30.1-1,44.5-2.9c49.6-6.7,93.6-23.9,130.7-51.4
		c42.8-31.5,74.8-75.4,95.3-130.6l0.2-0.5c4.1-9.6,25-63,32.8-166.8c2-26.6,3-54.7,3-83.5c0-40-1.9-83.3-5.8-128.9
		c-8.5-94.3-25.8-196.7-51.6-304.5l-0.1-0.7c-1.6-9.9-7.2-29-25.9-46.3c-23-21.4-57.5-32.2-102.6-32.2c-4.6,0-9.4,0.1-14.3,0.3
		c-4.2,0.2-14.8,0.3-32.2,0.3c-87.5,0-342-2.6-537-5.1l-4.5-0.1l-4.6,1c-0.4,0.1-34.5,7.5-68.9,28.8c-48.8,30.2-74.7,74.8-73,125.4
		c1,32.2,13.5,60,36.2,80.6c38.9,35.4,97.2,39.2,120.4,39.2c3.8,0,6.7-0.1,8.4-0.2l0.2,0l492-2.9l2.6,6.8
		c4.7,12.2,10.9,36.3,13.8,82.2l0.4,6.5c0.5,7.2,1,15,1.6,23.1c3,43.6,7.1,103.4,7.6,157.2c0.7,79-7,102.5-9.4,107.9l-0.6,1.3
		l-0.6,0.8c-10.1,13.5-25.3,23.3-39.5,25.5c-12.3,1.8-23.8-1.5-35.4-10.1c-17-12.5-19.2-47.8-20.3-92.7c-0.6-25-1.4-53.3-7.8-77.4
		c-10.3-38.7-44.7-81.5-91.9-114.5c-48.8-33.9-103.2-51.9-157.3-51.9c-6.2,0-12.4,0.2-18.5,0.7c-74,5.9-131.9,21.9-177.1,48.9
		c-40.8,24.4-66.1,55.1-86.6,81.9C41.6,561,33.1,612.7,29.4,708.3c-2.1,52.5-0.3,94.4,5.3,128c7,41.7,20.3,71.9,40.5,92.3
		c19,19.1,43.9,29.3,72.2,29.3c1.2,0,2.5,0,3.7-0.1c53-1.6,84.1-25.9,100.8-46.1c18.7-22.5,30.3-52,34.7-87.6
		c5.8-47.4,5.7-61.7,5.4-115.1c0-2.6,0-5.4,0-8.3l0-0.2c0-3.3-0.1-6.7-0.1-10.3c-0.2-46.4,5.5-64.2,8.9-70.6l2.1-3.9l4.2-1.3
		c6.8-2.1,20.6-2.5,36.6-2.7l0.2,0c4.9,0,10.1-0.1,15.5-0.3C360.1,611.4,360.8,611.4,361.4,611.4z M658.2,913.2
		c-25.8,0-52-3.8-76-10.9c-35.6-10.6-53-24.8-57.2-30.8c-47.5-67.2-55.2-103.2-55.2-163.2c0-56.5-3-114.7-38.8-149.5
		c-12.4-12.1-34.6-26.5-69.9-26.5c-1.3,0-2.6,0-4,0.1l-14.7,0.3c-31.7,0.5-67.5,1-94.2,26.7c-25.1,24.2-35.7,63.4-35.4,131.1
		c0,3.5,0,6.9,0.1,10.1c0,3,0,6,0,8.7c0.3,53.2,0.4,62.8-4.8,105.1c-2.4,20.1-8.3,36.3-17.1,46.8c-6,7.2-17,16.8-42.4,17.6
		c-0.5,0-1,0-1.4,0c-9,0-13.1-2.9-16-5.7c-4.7-4.5-13.3-17.1-18.8-49.7c-4.7-27.9-6.1-64.5-4.2-111.9c3.8-97.1,12.6-124.1,37-156.2
		c31.7-41.6,67.7-88.8,207.2-100c4.1-0.3,8.3-0.5,12.5-0.5c50.3,0,91.6,23.6,111.9,37.7c38,26.5,57.2,56.4,60.9,70
		c4,15.1,4.6,38.5,5,59.1l0,1.9c0.7,25,1.4,50.9,6.7,75.6c7.3,33.9,22.6,59.6,45.2,76.5c23.4,17.5,49,26.3,75.8,26.3
		c6.3,0,12.7-0.5,19-1.5c35.5-5.6,70-27.5,92.3-58.6c17.5-24.4,24.8-68.8,24.5-148.2c-0.2-57.6-4.5-121.5-7.7-168.2l-0.6-9
		c-0.5-7.6-1-14.7-1.4-21c-2.7-43.3-8.5-76.7-17.7-102.1c-8.8-24.5-21.3-42-37-51.9c-9.8-6.3-20.8-9.6-31.9-9.6
		c-2.6,0-5.2,0.2-7.7,0.6l-0.9,0.1l-493.6,3h-0.9l-1.4,0.1c-1.5,0.1-3.2,0.1-4.9,0.1c-4.8,0-47.5-0.5-67.5-18.7l-0.1-0.1
		c-4.5-4.2-9.7-10.8-10.1-24.7l0-0.1c-0.2-7.9-0.9-31.9,33.9-54.3c15.9-10.2,32.5-16,41-18.5l1.5-0.5l1.6,0c3.9,0,399.2,5,529,5
		c20.3,0,33-0.1,38-0.4c3.6-0.2,7.1-0.3,10.4-0.3c31.3,0,44,7.4,47.1,9.6l3,2.1l1.3,4.6c55.5,231.5,59.8,392.1,53.7,486
		c-6.7,100.5-26.5,148.4-27.3,150.4l-0.3,0.6l-0.4,0.7l-0.6,1.6c-34.9,95.8-107.7,124.8-162.7,132.1
		C681.3,912.4,669.8,913.2,658.2,913.2z M361.1,528.3c36.6,0,59.7,15,72.7,27.6c36.9,35.9,40,94.9,40,152.3
		c0,59.1,7.6,94.5,54.5,160.9c3.9,5.6,20.5,19,55,29.3c23.5,7,49.4,10.7,74.8,10.7c11.4,0,22.8-0.8,33.7-2.2
		c53.9-7.2,125.2-35.6,159.4-129.5l0.7-2l0.5-1.1c0.8-2,20.4-49.3,27-149.1c6.1-93.7,1.8-253.8-53.6-484.8l0-0.2l-0.8-3l-1.8-1.3
		c-2.9-2.1-14.6-8.9-44.8-8.9c-3.3,0-6.7,0.1-10.2,0.3c-5,0.2-17.8,0.4-38.2,0.4c-129.9,0-525.1-4.9-529.1-5l-1,0l-1,0.3
		c-8.3,2.5-24.4,8.1-40,18.1c-32.9,21.2-32.3,43.5-32.1,50.8l0,0.1c0.4,12.4,4.9,18.2,8.8,21.9l0.1,0.1
		c18.8,17.2,60.1,17.7,64.8,17.7c1.7,0,3.3,0,4.7-0.1l1.6-0.1h0.9l493.4-3l0.5-0.1c2.7-0.4,5.5-0.6,8.3-0.6c11.8,0,23.6,3.5,34,10.2
		c16.5,10.5,29.4,28.6,38.6,53.9c9.3,25.8,15.2,59.5,17.9,103.2c0.4,6.3,0.9,13.4,1.4,21l0.6,9c3.2,46.7,7.5,110.7,7.7,168.5
		c0.3,80.4-7.3,125.4-25.3,150.6c-22.9,32-58.4,54.5-94.9,60.3c-6.5,1-13.2,1.6-19.7,1.6c-27.8,0-54.1-9.1-78.2-27.1
		c-23.4-17.5-39.2-44-46.7-78.9c-5.4-25.1-6.1-51.1-6.8-76.3l0-1.9c-0.5-20.4-1-43.5-4.9-58.2c-3.5-13.1-22.1-41.9-59.3-67.8
		c-19.8-13.8-60.4-37-109.6-37c-4.1,0-8.1,0.2-12.2,0.5c-137.8,11-173.1,57.4-204.3,98.4c-23.8,31.3-32.4,57.9-36.2,153.9
		c-1.8,47.1-0.5,83.5,4.2,111.1c5.3,31.6,13.3,43.3,17.6,47.6c2.2,2.2,5.3,4.6,13.1,4.6c0.4,0,0.9,0,1.3,0
		c23.8-0.7,34-9.5,39.5-16.1c8.2-9.9,13.8-25.4,16.2-44.7c5.1-42,5-51.6,4.7-104.6c0-2.8,0-5.7,0-8.7c0-3.2-0.1-6.6-0.1-10.1
		c-0.3-68.9,10.7-109,36.6-134c27.8-26.8,64.5-27.3,96.9-27.8l14.6-0.3C358.4,528.4,359.8,528.3,361.1,528.3z"/>
	</g>

</svg>