<?xml version="1.0" encoding="utf-8"?>
<!-- Generator: Adobe Illustrator 21.0.2, SVG Export Plug-In . SVG Version: 6.00 Build 0)  -->
<svg version="1.1" id="SCENE_1" xmlns="http://www.w3.org/2000/svg" xmlns:xlink="http://www.w3.org/1999/xlink" x="0px"
	y="0px" viewBox="0 0 1024 1024" style="enable-background:new 0 0 1024 1024;" xml:space="preserve">
	<style type="text/css">
		.st2, .st3 {
			fill: #FFFFFF;
		}

		.st1 {
			display: none;
		}

		.st0 {
			fill: #64566D;
		}
	</style>
	<rect id="BACKGROUND_grass" y="0" width="1024" height="1024" />
	<g id="OBSTACLES">
		<path class="st2" d="M160.5,664.8v-6.5c0-3.2,2.6-5.8,5.8-5.8h0.5c3.2,0,5.8,2.6,5.8,5.8v6.5c0,3.2-2.6,5.8-5.8,5.8h-0.5
		C163.1,670.5,160.5,667.9,160.5,664.8z" />
		<path class="st2" d="M160.6,644.2l0-6.5c0-3.2,2.6-5.7,5.8-5.7l0.5,0c3.2,0,5.7,2.6,5.7,5.8l0,6.5c0,3.2-2.6,5.7-5.8,5.7l-0.5,0
		C163.1,649.9,160.6,647.3,160.6,644.2z" />
		<path class="st2" d="M160.8,624.2l0.1-6.5c0-3.2,2.6-5.7,5.8-5.7l0.5,0c3.2,0,5.7,2.6,5.7,5.8l-0.1,6.5c0,3.2-2.6,5.7-5.8,5.7
		l-0.5,0C163.3,630,160.8,627.4,160.8,624.2z" />
		<path class="st2" d="M161.1,604.7l0-6.5c0-3.2,2.6-5.7,5.8-5.7l0.5,0c3.2,0,5.7,2.6,5.7,5.8l0,6.5c0,3.2-2.6,5.7-5.8,5.7l-0.5,0
		C163.6,610.5,161.1,607.9,161.1,604.7z" />
		<path class="st2" d="M154.1,596.7l-6.1-2.3c-3-1.1-4.4-4.5-3.3-7.4l0.2-0.5c1.1-3,4.5-4.4,7.4-3.3l6.1,2.3c3,1.1,4.4,4.5,3.3,7.4
		l-0.2,0.5C160.4,596.4,157.1,597.8,154.1,596.7z" />
		<path class="st2" d="M134.9,588.1l-5.6-3.2c-2.8-1.6-3.7-5.1-2.2-7.8l0.2-0.4c1.6-2.8,5.1-3.7,7.8-2.2l5.6,3.2
		c2.8,1.6,3.7,5.1,2.2,7.8l-0.2,0.4C141.2,588.7,137.7,589.7,134.9,588.1z" />
		<path class="st2" d="M117.7,576.9l-5.1-4.1c-2.5-2-2.9-5.6-0.9-8.1l0.3-0.4c2-2.5,5.6-2.9,8.1-0.9l5.1,4.1c2.5,2,2.9,5.6,0.9,8.1
		l-0.3,0.4C123.8,578.5,120.2,578.9,117.7,576.9z" />
		<path class="st2" d="M102.4,563l-4.4-4.8c-2.1-2.4-1.9-6,0.4-8.1l0.4-0.3c2.4-2.1,6-1.9,8.1,0.4l4.4,4.8c2.1,2.4,1.9,6-0.4,8.1
		l-0.4,0.3C108.2,565.5,104.6,565.3,102.4,563z" />
		<path class="st2" d="M89.7,547.7l-3.7-5.3c-1.8-2.6-1.2-6.2,1.4-8l0.4-0.3c2.6-1.8,6.2-1.2,8,1.4l3.7,5.3c1.8,2.6,1.2,6.2-1.4,8
		l-0.4,0.3C95.1,550.9,91.6,550.3,89.7,547.7z" />
		<path class="st2" d="M79.1,530.8l-3-5.8c-1.5-2.8-0.4-6.3,2.5-7.8l0.4-0.2c2.8-1.5,6.3-0.4,7.8,2.5l3,5.8c1.5,2.8,0.4,6.3-2.5,7.8
		l-0.4,0.2C84.1,534.7,80.6,533.6,79.1,530.8z" />
		<path class="st2" d="M70.7,512.4l-2.2-6.1c-1.1-3,0.4-6.3,3.4-7.4l0.5-0.2c3-1.1,6.3,0.4,7.4,3.4l2.2,6.1c1.1,3-0.4,6.3-3.4,7.4
		l-0.5,0.2C75.1,517,71.8,515.4,70.7,512.4z" />
		<path class="st2" d="M64.5,492.6l-1.5-6.3c-0.7-3.1,1.2-6.2,4.3-6.9l0.5-0.1c3.1-0.7,6.2,1.2,6.9,4.3l1.5,6.3
		c0.7,3.1-1.2,6.2-4.3,6.9l-0.5,0.1C68.3,497.7,65.2,495.7,64.5,492.6z" />
		<path class="st2" d="M60.5,471.5l-0.8-6.5c-0.4-3.2,1.9-6,5-6.4l0.5-0.1c3.2-0.4,6,1.9,6.4,5l0.8,6.5c0.4,3.2-1.9,6-5,6.4l-0.5,0.1
		C63.7,476.9,60.9,474.6,60.5,471.5z" />
		<path class="st2" d="M58.1,451.4l-0.3-6.5c-0.1-3.2,2.3-5.9,5.5-6l0.5,0c3.2-0.1,5.9,2.3,6,5.5l0.3,6.5c0.1,3.2-2.3,5.9-5.5,6
		l-0.5,0C60.9,457.1,58.3,454.6,58.1,451.4z" />
		<path class="st2" d="M57.3,431.6l-0.2-6.5c-0.1-3.2,2.4-5.8,5.6-5.9l0.5,0c3.2-0.1,5.8,2.4,5.9,5.6l0.2,6.5
		c0.1,3.2-2.4,5.8-5.6,5.9l-0.5,0C60.1,437.2,57.4,434.7,57.3,431.6z" />
		<path class="st2" d="M56.7,411.9l-0.1-6.5c-0.1-3.2,2.4-5.8,5.6-5.9l0.5,0c3.2-0.1,5.8,2.4,5.9,5.6l0.1,6.5
		c0.1,3.2-2.4,5.8-5.6,5.9l-0.5,0C59.4,417.6,56.8,415.1,56.7,411.9z" />
		<path class="st2" d="M56,391.7l-0.1-6.5c-0.1-3.2,2.5-5.8,5.6-5.8l0.5,0c3.2-0.1,5.8,2.5,5.8,5.6l0.1,6.5c0.1,3.2-2.5,5.8-5.6,5.8
		l-0.5,0C58.7,397.4,56.1,394.9,56,391.7z" />
		<path class="st2" d="M56.3,373.1l-0.7-6.5c-0.3-3.2,1.9-6,5.1-6.3l0.5-0.1c3.2-0.3,6,1.9,6.3,5.1l0.7,6.5c0.3,3.2-1.9,6-5.1,6.3
		l-0.5,0.1C59.5,378.5,56.7,376.2,56.3,373.1z" />
		<path class="st2" d="M56,353.5l-0.1-6.5c0-3.2,2.5-5.8,5.7-5.8l0.5,0c3.2,0,5.8,2.5,5.8,5.7l0.1,6.5c0,3.2-2.5,5.8-5.7,5.8l-0.5,0
		C58.6,359.2,56,356.7,56,353.5z" />
		<path class="st2" d="M56,334.5l0-6.5c0-3.2,2.5-5.8,5.7-5.8l0.5,0c3.2,0,5.8,2.5,5.8,5.7l0,6.5c0,3.2-2.5,5.8-5.7,5.8l-0.5,0
		C58.6,340.2,56,337.6,56,334.5z" />
		<path class="st2" d="M56,315.2l0-6.5c0-3.2,2.6-5.8,5.7-5.8l0.5,0c3.2,0,5.8,2.6,5.8,5.7l0,6.5c0,3.2-2.6,5.8-5.7,5.8l-0.5,0
		C58.6,320.9,56,318.3,56,315.2z" />
		<path class="st2" d="M56.1,293.8l0-6.5c0-3.2,2.6-5.7,5.8-5.7l0.5,0c3.2,0,5.7,2.6,5.7,5.8l0,6.5c0,3.2-2.6,5.7-5.8,5.7l-0.5,0
		C58.7,299.6,56.1,297,56.1,293.8z" />
		<path class="st2" d="M56.5,269.8l0.2-6.5c0.1-3.2,2.7-5.7,5.9-5.6l0.5,0c3.2,0.1,5.7,2.7,5.6,5.9l-0.2,6.5
		c-0.1,3.2-2.7,5.7-5.9,5.6l-0.5,0C59,275.6,56.5,273,56.5,269.8z" />
		<path class="st2" d="M57.7,247.9l0.5-6.5c0.3-3.2,3.1-5.5,6.2-5.2l0.5,0c3.2,0.3,5.5,3.1,5.2,6.2l-0.5,6.5
		c-0.3,3.2-3.1,5.5-6.2,5.2l-0.5,0C59.7,253.8,57.4,251.1,57.7,247.9z" />
		<path class="st2" d="M60,227l1-6.4c0.5-3.1,3.4-5.3,6.6-4.8l0.5,0.1c3.1,0.5,5.3,3.4,4.8,6.6l-1,6.4c-0.5,3.1-3.4,5.3-6.6,4.8
		l-0.5-0.1C61.7,233.1,59.5,230.2,60,227z" />
		<path class="st2" d="M63.6,207.2l1.5-6.3c0.7-3.1,3.8-5,6.9-4.3l0.5,0.1c3.1,0.7,5,3.8,4.3,6.9l-1.5,6.3c-0.7,3.1-3.8,5-6.9,4.3
		l-0.5-0.1C64.9,213.4,62.9,210.3,63.6,207.2z" />
		<path class="st2" d="M68.6,188.5l2-6.2c1-3,4.2-4.7,7.2-3.7l0.5,0.2c3,1,4.7,4.2,3.7,7.2l-2,6.2c-1,3-4.2,4.7-7.2,3.7l-0.5-0.2
		C69.3,194.7,67.6,191.5,68.6,188.5z" />
		<path class="st2" d="M75.4,169.2l2.5-6c1.2-2.9,4.6-4.3,7.5-3.1l0.5,0.2c2.9,1.2,4.3,4.6,3.1,7.5l-2.5,6c-1.2,2.9-4.6,4.3-7.5,3.1
		l-0.5-0.2C75.6,175.5,74.2,172.1,75.4,169.2z" />
		<path class="st2" d="M84.9,149.4l3.3-5.6c1.6-2.7,5.1-3.7,7.9-2.1l0.4,0.3c2.7,1.6,3.7,5.1,2.1,7.9l-3.3,5.6
		c-1.6,2.7-5.1,3.7-7.9,2.1l-0.4-0.3C84.3,155.6,83.3,152.1,84.9,149.4z" />
		<path class="st2" d="M96.3,131.9l4-5.1c2-2.5,5.6-2.9,8.1-0.9l0.4,0.3c2.5,2,2.9,5.6,0.9,8.1l-4,5.1c-2,2.5-5.6,2.9-8.1,0.9
		l-0.4-0.3C94.8,138,94.4,134.4,96.3,131.9z" />
		<path class="st2" d="M109.7,116.8l4.8-4.4c2.3-2.2,6-2,8.1,0.3l0.3,0.4c2.2,2.3,2,6-0.3,8.1l-4.8,4.4c-2.3,2.2-6,2-8.1-0.3
		l-0.3-0.4C107.3,122.6,107.4,118.9,109.7,116.8z" />
		<path class="st2" d="M125.2,104.1l5.4-3.6c2.6-1.8,6.2-1,8,1.6l0.3,0.4c1.8,2.6,1,6.2-1.6,8l-5.4,3.6c-2.6,1.8-6.2,1-8-1.6
		l-0.3-0.4C121.8,109.4,122.5,105.9,125.2,104.1z" />
		<path class="st2" d="M142.6,93.9l5.9-2.7c2.9-1.3,6.3-0.1,7.6,2.8l0.2,0.5c1.3,2.9,0.1,6.3-2.8,7.6l-5.9,2.7
		c-2.9,1.3-6.3,0.1-7.6-2.8l-0.2-0.5C138.5,98.6,139.8,95.2,142.6,93.9z" />
		<path class="st2" d="M161.9,86.2l6.2-1.9c3-0.9,6.2,0.8,7.2,3.8l0.1,0.5c0.9,3-0.8,6.2-3.8,7.2l-6.2,1.9c-3,0.9-6.2-0.8-7.2-3.8
		l-0.1-0.5C157.1,90.3,158.9,87.1,161.9,86.2z" />
		<path class="st2" d="M180.3,81.5l6.4-1.1c3.1-0.6,6.1,1.5,6.7,4.7l0.1,0.5c0.6,3.1-1.5,6.1-4.7,6.7l-6.4,1.1
		c-3.1,0.6-6.1-1.5-6.7-4.7l-0.1-0.5C175.1,85.1,177.2,82.1,180.3,81.5z" />
		<path class="st2" d="M200.7,78.8l6.5-0.5c3.2-0.2,5.9,2.2,6.1,5.3l0,0.5c0.2,3.2-2.2,5.9-5.3,6.1l-6.5,0.5
		c-3.2,0.2-5.9-2.2-6.1-5.3l0-0.5C195.2,81.8,197.6,79,200.7,78.8z" />
		<path class="st2" d="M223,78l6.5,0c3.2,0,5.7,2.6,5.7,5.8l0,0.5c0,3.2-2.6,5.7-5.8,5.7l-6.5,0c-3.2,0-5.7-2.6-5.7-5.8l0-0.5
		C217.2,80.5,219.8,78,223,78z" />
		<path class="st2" d="M242.5,78.5l6.5,0.2c3.2,0.1,5.7,2.8,5.6,5.9l0,0.5c-0.1,3.2-2.8,5.7-5.9,5.6l-6.5-0.2
		c-3.2-0.1-5.7-2.8-5.6-5.9l0-0.5C236.7,80.8,239.4,78.4,242.5,78.5z" />
		<path class="st2" d="M262.4,79.4l6.5,0.4c3.2,0.2,5.6,3,5.4,6.1l0,0.5c-0.2,3.2-3,5.6-6.1,5.4l-6.5-0.4c-3.2-0.2-5.6-3-5.4-6.1
		l0-0.5C256.5,81.6,259.2,79.2,262.4,79.4z" />
		<path class="st2" d="M282.7,81.2l6.5,0.8c3.2,0.4,5.4,3.2,5,6.4l-0.1,0.5c-0.4,3.2-3.2,5.4-6.4,5l-6.5-0.8c-3.2-0.4-5.4-3.2-5-6.4
		l0.1-0.5C276.7,83.1,279.5,80.9,282.7,81.2z" />
		<path class="st2" d="M303.2,84.1l6.4,1.2c3.1,0.6,5.2,3.6,4.6,6.7l-0.1,0.5c-0.6,3.1-3.6,5.2-6.7,4.6l-6.4-1.2
		c-3.1-0.6-5.2-3.6-4.6-6.7l0.1-0.5C297.1,85.6,300.1,83.6,303.2,84.1z" />
		<path class="st2" d="M324.2,88.6l6.3,1.7c3.1,0.8,4.9,4,4.1,7l-0.1,0.5c-0.8,3.1-4,4.9-7,4.1l-6.3-1.7c-3.1-0.8-4.9-4-4.1-7
		l0.1-0.5C318,89.6,321.1,87.8,324.2,88.6z" />
		<path class="st2" d="M344.5,95l6,2.4c2.9,1.2,4.4,4.5,3.2,7.5l-0.2,0.5c-1.2,2.9-4.5,4.4-7.5,3.2l-6-2.4c-2.9-1.2-4.4-4.5-3.2-7.5
		l0.2-0.5C338.2,95.3,341.5,93.9,344.5,95z" />
		<path class="st2" d="M362.7,103.4l5.7,3.2c2.8,1.6,3.8,5.1,2.2,7.8l-0.2,0.4c-1.6,2.8-5.1,3.8-7.8,2.2l-5.7-3.2
		c-2.8-1.6-3.8-5.1-2.2-7.8l0.2-0.4C356.5,102.8,360,101.8,362.7,103.4z" />
		<path class="st2" d="M379.5,114.1l5.1,4c2.5,2,2.9,5.6,0.9,8.1l-0.3,0.4c-2,2.5-5.6,2.9-8.1,0.9l-5.1-4c-2.5-2-2.9-5.6-0.9-8.1
		l0.3-0.4C373.4,112.5,377.1,112.1,379.5,114.1z" />
		<path class="st2" d="M394.3,127.3l4.3,4.8c2.1,2.4,1.9,6-0.5,8.1l-0.4,0.3c-2.4,2.1-6,1.9-8.1-0.5l-4.3-4.8c-2.1-2.4-1.9-6,0.5-8.1
		l0.4-0.3C388.6,124.8,392.2,125,394.3,127.3z" />
		<path class="st2" d="M406.6,143l3.5,5.5c1.7,2.7,0.9,6.2-1.8,7.9l-0.4,0.3c-2.7,1.7-6.2,0.9-7.9-1.8l-3.5-5.5
		c-1.7-2.7-0.9-6.2,1.8-7.9l0.4-0.3C401.4,139.5,404.9,140.3,406.6,143z" />
		<path class="st2" d="M416.4,160.9l2.5,6c1.2,2.9-0.1,6.3-3.1,7.5l-0.5,0.2c-2.9,1.2-6.3-0.1-7.5-3.1l-2.5-6
		c-1.2-2.9,0.1-6.3,3.1-7.5l0.5-0.2C411.8,156.6,415.2,158,416.4,160.9z" />
		<path class="st2" d="M423.6,181l1.6,6.3c0.8,3.1-1,6.2-4.1,7l-0.5,0.1c-3.1,0.8-6.2-1-7-4.1L412,184c-0.8-3.1,1-6.2,4.1-7l0.5-0.1
		C419.6,176.1,422.8,177.9,423.6,181z" />
		<path class="st2" d="M428.2,203.1l0.8,6.4c0.4,3.1-1.8,6-5,6.4l-0.5,0.1c-3.1,0.4-6-1.8-6.4-5l-0.8-6.4c-0.4-3.1,1.8-6,5-6.4
		l0.5-0.1C424.9,197.8,427.7,200,428.2,203.1z" />
		<path class="st2" d="M430.1,224.1l0.5,6.5c0.3,3.2-2.1,5.9-5.3,6.2l-0.5,0c-3.2,0.3-5.9-2.1-6.2-5.3l-0.5-6.5
		c-0.3-3.2,2.1-5.9,5.3-6.2l0.5,0C427.1,218.6,429.9,221,430.1,224.1z" />
		<path class="st2" d="M431.3,244.4l0.2,6.5c0.1,3.2-2.4,5.8-5.5,6l-0.5,0c-3.2,0.1-5.8-2.4-6-5.5l-0.2-6.5c-0.1-3.2,2.4-5.8,5.5-6
		l0.5,0C428.5,238.7,431.2,241.2,431.3,244.4z" />
		<path class="st2" d="M431.9,264l0.3,6.5c0.1,3.2-2.4,5.8-5.5,6l-0.5,0c-3.2,0.1-5.8-2.4-6-5.5l-0.3-6.5c-0.1-3.2,2.4-5.8,5.5-6
		l0.5,0C429.1,258.4,431.8,260.8,431.9,264z" />
		<path class="st2" d="M435.9,268.9l6.5-0.1c3.2-0.1,5.8,2.5,5.9,5.6l0,0.5c0.1,3.2-2.5,5.8-5.6,5.9l-6.5,0.1
		c-3.2,0.1-5.8-2.5-5.9-5.6l0-0.5C430.2,271.6,432.8,269,435.9,268.9z" />
		<path class="st2" d="M458.6,268.6l6.5-0.1c3.2-0.1,5.8,2.5,5.9,5.6l0,0.5c0.1,3.2-2.5,5.8-5.6,5.9l-6.5,0.1
		c-3.2,0.1-5.8-2.5-5.9-5.6l0-0.5C452.9,271.3,455.4,268.7,458.6,268.6z" />
		<path class="st2" d="M483.2,268.3l6.5-0.1c3.2-0.1,5.8,2.5,5.9,5.6l0,0.5c0.1,3.2-2.5,5.8-5.6,5.9l-6.5,0.1
		c-3.2,0.1-5.8-2.5-5.9-5.6l0-0.5C477.5,271,480,268.3,483.2,268.3z" />
		<path class="st2" d="M509,267.9l6.5-0.1c3.2-0.1,5.8,2.5,5.9,5.6l0,0.5c0.1,3.2-2.5,5.8-5.6,5.9l-6.5,0.1c-3.2,0.1-5.8-2.5-5.9-5.6
		l0-0.5C503.3,270.6,505.9,268,509,267.9z" />
		<path class="st2" d="M535.6,267.5l6.5-0.1c3.2-0.1,5.8,2.5,5.9,5.6l0,0.5c0.1,3.2-2.5,5.8-5.6,5.9l-6.5,0.1
		c-3.2,0.1-5.8-2.5-5.9-5.6l0-0.5C529.9,270.2,532.4,267.6,535.6,267.5z" />
		<path class="st2" d="M562.1,267.1l6.5-0.1c3.2-0.1,5.8,2.5,5.9,5.6l0,0.5c0.1,3.2-2.5,5.8-5.6,5.9l-6.5,0.1
		c-3.2,0.1-5.8-2.5-5.9-5.6l0-0.5C556.4,269.8,558.9,267.2,562.1,267.1z" />
		<path class="st2" d="M587.9,266.7l6.5-0.1c3.2-0.1,5.8,2.5,5.9,5.6l0,0.5c0.1,3.2-2.5,5.8-5.6,5.9l-6.5,0.1
		c-3.2,0.1-5.8-2.5-5.9-5.6l0-0.5C582.2,269.4,584.8,266.8,587.9,266.7z" />
		<path class="st2" d="M612.5,266.4l6.5-0.1c3.2-0.1,5.8,2.5,5.9,5.6l0,0.5c0.1,3.2-2.5,5.8-5.6,5.9l-6.5,0.1
		c-3.2,0.1-5.8-2.5-5.9-5.6l0-0.5C606.8,269.1,609.3,266.4,612.5,266.4z" />
		<path class="st2" d="M635.1,266l6.5-0.1c3.2-0.1,5.8,2.5,5.9,5.6l0,0.5c0.1,3.2-2.5,5.8-5.6,5.9l-6.5,0.1c-3.2,0.1-5.8-2.5-5.9-5.6
		l0-0.5C629.4,268.7,631.9,266.1,635.1,266z" />
		<path class="st2" d="M655.1,265.7l6.5-0.1c3.2-0.1,5.8,2.5,5.9,5.6l0,0.5c0.1,3.2-2.5,5.8-5.6,5.9l-6.5,0.1
		c-3.2,0.1-5.8-2.5-5.9-5.6l0-0.5C649.4,268.4,651.9,265.8,655.1,265.7z" />
		<path class="st2" d="M676.3,265.5l6.5-0.1c3.2-0.1,5.8,2.5,5.9,5.6l0,0.5c0.1,3.2-2.5,5.8-5.6,5.9l-6.5,0.1
		c-3.2,0.1-5.8-2.5-5.9-5.6l0-0.5C670.6,268.1,673.1,265.5,676.3,265.5z" />
		<path class="st2" d="M696.1,265.1l6.5-0.1c3.2-0.1,5.8,2.5,5.9,5.6l0,0.5c0.1,3.2-2.5,5.8-5.6,5.9l-6.5,0.1
		c-3.2,0.1-5.8-2.5-5.9-5.6l0-0.5C690.4,267.8,692.9,265.1,696.1,265.1z" />
		<path class="st2" d="M695.1,255.3l0.5-6.5c0.2-3.2,3-5.6,6.1-5.3l0.5,0c3.2,0.2,5.6,3,5.3,6.1l-0.5,6.5c-0.2,3.2-3,5.6-6.1,5.3
		l-0.5,0C697.2,261.2,694.8,258.5,695.1,255.3z" />
		<path class="st2" d="M696.8,235.1l0.7-6.5c0.3-3.2,3.1-5.5,6.3-5.1l0.5,0.1c3.2,0.3,5.5,3.1,5.1,6.3l-0.7,6.5
		c-0.3,3.2-3.1,5.5-6.3,5.1l-0.5-0.1C698.7,241.1,696.4,238.3,696.8,235.1z" />
		<path class="st2" d="M699.8,212.1l1.1-6.4c0.6-3.1,3.5-5.2,6.7-4.7l0.5,0.1c3.1,0.6,5.2,3.5,4.7,6.7l-1.1,6.4
		c-0.6,3.1-3.5,5.2-6.7,4.7l-0.5-0.1C701.4,218.2,699.3,215.2,699.8,212.1z" />
		<path class="st2" d="M704.4,190.4l1.7-6.3c0.8-3.1,4-4.9,7-4.1l0.5,0.1c3.1,0.8,4.9,4,4.1,7l-1.7,6.3c-0.8,3.1-4,4.9-7,4.1
		l-0.5-0.1C705.4,196.7,703.6,193.5,704.4,190.4z" />
		<path class="st2" d="M710.5,170.2l2.2-6.1c1.1-3,4.4-4.5,7.4-3.5l0.5,0.2c3,1.1,4.5,4.4,3.5,7.4l-2.2,6.1c-1.1,3-4.4,4.5-7.4,3.5
		l-0.5-0.2C710.9,176.5,709.4,173.2,710.5,170.2z" />
		<path class="st2" d="M718.1,151.5l2.8-5.9c1.4-2.9,4.8-4.1,7.7-2.7l0.5,0.2c2.9,1.4,4.1,4.8,2.7,7.7l-2.8,5.9
		c-1.4,2.9-4.8,4.1-7.7,2.7l-0.5-0.2C717.9,157.8,716.7,154.3,718.1,151.5z" />
		<path class="st2" d="M727.3,134.1l3.4-5.5c1.7-2.7,5.2-3.5,7.9-1.9l0.4,0.3c2.7,1.7,3.5,5.2,1.9,7.9l-3.4,5.5
		c-1.7,2.7-5.2,3.5-7.9,1.9l-0.4-0.3C726.4,140.3,725.6,136.8,727.3,134.1z" />
		<path class="st2" d="M738,118.1l4-5.1c2-2.5,5.6-3,8.1-1l0.4,0.3c2.5,2,3,5.6,1,8.1l-4,5.1c-2,2.5-5.6,3-8.1,1l-0.4-0.3
		C736.5,124.2,736.1,120.6,738,118.1z" />
		<path class="st2" d="M750.4,103.5l4.5-4.7c2.2-2.3,5.9-2.3,8.1-0.1l0.4,0.3c2.3,2.2,2.3,5.9,0.1,8.1l-4.5,4.7
		c-2.2,2.3-5.9,2.3-8.1,0.1l-0.4-0.3C748.2,109.4,748.2,105.8,750.4,103.5z" />
		<path class="st2" d="M764.9,89.9l5.1-4.1c2.5-2,6.1-1.6,8.1,0.9l0.3,0.4c2,2.5,1.6,6.1-0.9,8.1l-5.1,4.1c-2.5,2-6.1,1.6-8.1-0.9
		l-0.3-0.4C762,95.5,762.4,91.9,764.9,89.9z" />
		<path class="st2" d="M781.9,77.6l5.6-3.3c2.7-1.6,6.3-0.7,7.9,2.1l0.3,0.4c1.6,2.7,0.7,6.3-2.1,7.9L788,88
		c-2.7,1.6-6.3,0.7-7.9-2.1l-0.3-0.4C778.3,82.7,779.2,79.2,781.9,77.6z" />
		<path class="st2" d="M800.3,68.4l6.1-2.3c3-1.1,6.3,0.4,7.4,3.3l0.2,0.5c1.1,3-0.4,6.3-3.3,7.4l-6.1,2.3c-3,1.1-6.3-0.4-7.4-3.3
		l-0.2-0.5C795.8,72.8,797.3,69.5,800.3,68.4z" />
		<path class="st2" d="M820,62.2l6.4-1.3c3.1-0.6,6.2,1.4,6.8,4.5l0.1,0.5c0.6,3.1-1.4,6.2-4.5,6.8l-6.4,1.3
		c-3.1,0.6-6.2-1.4-6.8-4.5l-0.1-0.5C814.9,65.9,816.9,62.8,820,62.2z" />
		<path class="st2" d="M841.7,59.1l6.5-0.4c3.2-0.2,5.9,2.2,6.1,5.4l0,0.5c0.2,3.2-2.2,5.9-5.4,6.1l-6.5,0.4
		c-3.2,0.2-5.9-2.2-6.1-5.4l0-0.5C836.1,62,838.5,59.3,841.7,59.1z" />
		<path class="st2" d="M862.4,58.9l6.5,0.6c3.2,0.3,5.5,3.1,5.2,6.3l0,0.5c-0.3,3.2-3.1,5.5-6.3,5.2l-6.5-0.6
		c-3.2-0.3-5.5-3.1-5.2-6.3l0-0.5C856.4,61,859.2,58.6,862.4,58.9z" />
		<path class="st2" d="M883.2,62.2l6.3,1.8c3.1,0.9,4.8,4,4,7.1l-0.1,0.5c-0.9,3.1-4,4.8-7.1,4l-6.3-1.8c-3.1-0.9-4.8-4-4-7.1
		l0.1-0.5C877,63.1,880.1,61.4,883.2,62.2z" />
		<path class="st2" d="M902.6,69.2l5.8,2.9c2.8,1.4,4,4.9,2.5,7.7l-0.2,0.4c-1.4,2.8-4.9,4-7.7,2.5l-5.8-2.9c-2.8-1.4-4-4.9-2.5-7.7
		l0.2-0.4C896.3,68.9,899.8,67.8,902.6,69.2z" />
		<path class="st2" d="M920.5,79.9l5.2,3.9c2.5,1.9,3,5.5,1.1,8.1l-0.3,0.4c-1.9,2.5-5.5,3-8.1,1.1l-5.2-3.9c-2.5-1.9-3-5.5-1.1-8.1
		l0.3-0.4C914.3,78.5,917.9,78,920.5,79.9z" />
		<path class="st2" d="M935.5,92.6l4.6,4.6c2.2,2.3,2.2,5.9-0.1,8.1l-0.4,0.4c-2.3,2.2-5.9,2.2-8.1-0.1l-4.6-4.6
		c-2.2-2.3-2.2-5.9,0.1-8.1l0.4-0.4C929.6,90.3,933.2,90.4,935.5,92.6z" />
		<path class="st2" d="M948.5,107.3l3.9,5.2c1.9,2.6,1.3,6.2-1.2,8l-0.4,0.3c-2.6,1.9-6.2,1.3-8-1.2l-3.9-5.2c-1.9-2.6-1.3-6.2,1.2-8
		l0.4-0.3C943,104.2,946.6,104.7,948.5,107.3z" />
		<path class="st2" d="M959.5,123.8l3.1,5.7c1.5,2.8,0.5,6.3-2.3,7.8l-0.4,0.2c-2.8,1.5-6.3,0.5-7.8-2.3l-3.1-5.7
		c-1.5-2.8-0.5-6.3,2.3-7.8l0.4-0.2C954.4,120,957.9,121.1,959.5,123.8z" />
		<path class="st2" d="M968.3,142.2l2.4,6.1c1.1,3-0.3,6.3-3.3,7.4l-0.5,0.2c-3,1.1-6.3-0.3-7.4-3.3l-2.4-6.1c-1.1-3,0.3-6.3,3.3-7.4
		l0.5-0.2C963.8,137.8,967.2,139.3,968.3,142.2z" />
		<path class="st2" d="M975.1,162.4l1.6,6.3c0.8,3.1-1.1,6.2-4.1,7l-0.5,0.1c-3.1,0.8-6.2-1.1-7-4.1l-1.6-6.3c-0.8-3.1,1.1-6.2,4.1-7
		l0.5-0.1C971.1,157.5,974.3,159.3,975.1,162.4z" />
		<path class="st2" d="M979.7,184.3l0.9,6.4c0.5,3.1-1.7,6.1-4.9,6.5l-0.5,0.1c-3.1,0.5-6.1-1.7-6.5-4.9l-0.9-6.4
		c-0.5-3.1,1.7-6.1,4.9-6.5l0.5-0.1C976.3,179,979.2,181.1,979.7,184.3z" />
		<path class="st2" d="M982.1,207.1l0.3,6.5c0.1,3.2-2.3,5.9-5.5,6l-0.5,0c-3.2,0.1-5.9-2.3-6-5.5l-0.3-6.5c-0.1-3.2,2.3-5.9,5.5-6
		l0.5,0C979.3,201.4,981.9,203.9,982.1,207.1z" />
		<path class="st2" d="M982.1,228.8l-0.5,6.5c-0.2,3.2-3,5.5-6.2,5.3l-0.5,0c-3.2-0.2-5.5-3-5.3-6.2l0.5-6.5c0.2-3.2,3-5.5,6.2-5.3
		l0.5,0C979.9,222.9,982.3,225.6,982.1,228.8z" />
		<path class="st2" d="M979.6,249.5l-1.3,6.4c-0.6,3.1-3.7,5.1-6.8,4.5l-0.5-0.1c-3.1-0.6-5.1-3.7-4.5-6.8l1.3-6.4
		c0.6-3.1,3.7-5.1,6.8-4.5l0.5,0.1C978.2,243.3,980.2,246.4,979.6,249.5z" />
		<path class="st2" d="M974.6,269l-2.1,6.1c-1,3-4.3,4.6-7.3,3.5l-0.5-0.2c-3-1-4.6-4.3-3.5-7.3l2.1-6.1c1-3,4.3-4.6,7.3-3.5l0.5,0.2
		C974,262.8,975.6,266,974.6,269z" />
		<path class="st2" d="M967,287.5l-3,5.8c-1.5,2.8-4.9,3.9-7.7,2.5l-0.4-0.2c-2.8-1.5-3.9-4.9-2.5-7.7l3-5.8c1.5-2.8,4.9-3.9,7.7-2.5
		l0.4,0.2C967.4,281.2,968.5,284.6,967,287.5z" />
		<path class="st2" d="M956.8,304.8l-3.8,5.3c-1.8,2.6-5.4,3.2-8,1.3l-0.4-0.3c-2.6-1.8-3.2-5.4-1.3-8l3.8-5.3c1.8-2.6,5.4-3.2,8-1.3
		l0.4,0.3C958.1,298.7,958.7,302.2,956.8,304.8z" />
		<path class="st2" d="M944,320.7l-4.6,4.6c-2.3,2.2-5.9,2.2-8.1,0l-0.4-0.4c-2.2-2.3-2.2-5.9,0-8.1l4.6-4.6c2.3-2.2,5.9-2.2,8.1,0
		l0.4,0.4C946.2,314.8,946.2,318.4,944,320.7z" />
		<path class="st2" d="M928.7,334l-5.3,3.7c-2.6,1.8-6.2,1.2-8-1.4l-0.3-0.4c-1.8-2.6-1.2-6.2,1.4-8l5.3-3.7c2.6-1.8,6.2-1.2,8,1.4
		l0.3,0.4C931.9,328.6,931.3,332.2,928.7,334z" />
		<path class="st2" d="M910.8,344.9l-5.9,2.8c-2.9,1.4-6.3,0.2-7.7-2.7l-0.2-0.5c-1.4-2.9-0.2-6.3,2.7-7.7l5.9-2.8
		c2.9-1.4,6.3-0.2,7.7,2.7l0.2,0.5C914.8,340.1,913.6,343.5,910.8,344.9z" />
		<path class="st2" d="M890.4,353.4l-6.2,1.9c-3,1-6.3-0.7-7.2-3.8l-0.1-0.5c-1-3,0.7-6.3,3.8-7.2l6.2-1.9c3-1,6.3,0.7,7.2,3.8
		l0.1,0.5C895.1,349.2,893.4,352.4,890.4,353.4z" />
		<path class="st2" d="M870.5,358.4l-6.4,1c-3.1,0.5-6.1-1.6-6.6-4.8l-0.1-0.5c-0.5-3.1,1.6-6.1,4.8-6.6l6.4-1
		c3.1-0.5,6.1,1.6,6.6,4.8l0.1,0.5C875.8,354.9,873.7,357.9,870.5,358.4z" />
		<path class="st2" d="M850.4,360.8l-6.5,0.4c-3.2,0.2-5.9-2.2-6.1-5.4l0-0.5c-0.2-3.2,2.2-5.9,5.4-6.1l6.5-0.4
		c3.2-0.2,5.9,2.2,6.1,5.4l0,0.5C856,357.9,853.6,360.6,850.4,360.8z" />
		<path class="st2" d="M829.7,361.6l-6.5,0.1c-3.2,0.1-5.8-2.5-5.9-5.6l0-0.5c-0.1-3.2,2.5-5.8,5.6-5.9l6.5-0.1
		c3.2-0.1,5.8,2.5,5.9,5.6l0,0.5C835.4,358.9,832.9,361.5,829.7,361.6z" />
		<path class="st2" d="M809.6,361.9l-6.5,0.1c-3.2,0.1-5.8-2.5-5.8-5.7l0-0.5c-0.1-3.2,2.5-5.8,5.7-5.8l6.5-0.1
		c3.2-0.1,5.8,2.5,5.8,5.7l0,0.5C815.3,359.2,812.8,361.8,809.6,361.9z" />
		<path class="st2" d="M789.7,361.8l-6.5,0.1c-3.2,0.1-5.8-2.5-5.9-5.6l0-0.5c-0.1-3.2,2.5-5.8,5.6-5.9l6.5-0.1
		c3.2-0.1,5.8,2.5,5.9,5.6l0,0.5C795.4,359.1,792.8,361.8,789.7,361.8z" />
		<path class="st2" d="M773,352.3l0,6.5c0,3.2-2.5,5.8-5.7,5.8l-0.5,0c-3.2,0-5.8-2.5-5.8-5.7l0-6.5c0-3.2,2.5-5.8,5.7-5.8l0.5,0
		C770.4,346.6,773,349.2,773,352.3z" />
		<path class="st2" d="M773,372.3l0,6.5c0,3.2-2.5,5.8-5.7,5.8l-0.5,0c-3.2,0-5.8-2.5-5.8-5.7l0-6.5c0-3.2,2.5-5.8,5.7-5.8l0.5,0
		C770.4,366.6,773,369.1,773,372.3z" />
		<path class="st2" d="M770.3,383l6.5,0c3.2,0,5.8,2.5,5.8,5.7l0,0.5c0,3.2-2.5,5.8-5.7,5.8l-6.5,0c-3.2,0-5.8-2.5-5.8-5.7l0-0.5
		C764.5,385.6,767.1,383,770.3,383z" />
		<path class="st2" d="M790.5,382.8l6.5-0.1c3.2-0.1,5.8,2.5,5.8,5.7l0,0.5c0.1,3.2-2.5,5.8-5.7,5.8l-6.5,0.1
		c-3.2,0.1-5.8-2.5-5.8-5.7l0-0.5C784.8,385.5,787.3,382.8,790.5,382.8z" />
		<path class="st2" d="M812,382.8l6.5,0.2c3.2,0.1,5.7,2.7,5.6,5.9l0,0.5c-0.1,3.2-2.7,5.7-5.9,5.6l-6.5-0.2
		c-3.2-0.1-5.7-2.7-5.6-5.9l0-0.5C806.2,385.3,808.8,382.8,812,382.8z" />
		<path class="st2" d="M833.2,383.8l6.5,0.5c3.2,0.2,5.5,3,5.3,6.2l0,0.5c-0.2,3.2-3,5.5-6.2,5.3l-6.5-0.5c-3.2-0.2-5.5-3-5.3-6.2
		l0-0.5C827.2,385.9,830,383.6,833.2,383.8z" />
		<path class="st2" d="M852.9,385.8l6.4,0.9c3.1,0.4,5.4,3.3,4.9,6.5l-0.1,0.5c-0.4,3.1-3.3,5.4-6.5,4.9l-6.4-0.9
		c-3.1-0.4-5.4-3.3-4.9-6.5l0.1-0.5C846.8,387.6,849.7,385.3,852.9,385.8z" />
		<path class="st2" d="M871.5,388.8l6.4,1.3c3.1,0.6,5.1,3.7,4.5,6.8l-0.1,0.5c-0.6,3.1-3.7,5.1-6.8,4.5l-6.4-1.3
		c-3.1-0.6-5.1-3.7-4.5-6.8l0.1-0.5C865.3,390.1,868.3,388.1,871.5,388.8z" />
		<path class="st2" d="M891.1,393.6l6.2,2c3,1,4.7,4.2,3.8,7.2l-0.2,0.5c-1,3-4.2,4.7-7.2,3.8l-6.2-2c-3-1-4.7-4.2-3.8-7.2l0.2-0.5
		C884.9,394.3,888.1,392.6,891.1,393.6z" />
		<path class="st2" d="M910.3,400.3l5.9,2.8c2.9,1.4,4.1,4.8,2.7,7.7l-0.2,0.5c-1.4,2.9-4.8,4.1-7.7,2.7l-5.9-2.8
		c-2.9-1.4-4.1-4.8-2.7-7.7l0.2-0.5C904,400.1,907.5,398.9,910.3,400.3z" />
		<path class="st2" d="M927.5,410.6l4.9,4.3c2.4,2.1,2.7,5.7,0.6,8.1l-0.3,0.4c-2.1,2.4-5.7,2.7-8.1,0.6l-4.9-4.3
		c-2.4-2.1-2.7-5.7-0.6-8.1l0.3-0.4C921.4,408.8,925.1,408.5,927.5,410.6z" />
		<path class="st2" d="M941.4,425.1l3.7,5.4c1.8,2.6,1.1,6.2-1.5,8l-0.4,0.3c-2.6,1.8-6.2,1.1-8-1.5l-3.7-5.4c-1.8-2.6-1.1-6.2,1.5-8
		l0.4-0.3C936,421.8,939.6,422.5,941.4,425.1z" />
		<path class="st2" d="M951.9,443.8l2.4,6c1.2,3-0.3,6.3-3.2,7.5l-0.5,0.2c-3,1.2-6.3-0.3-7.5-3.2l-2.4-6c-1.2-3,0.3-6.3,3.2-7.5
		l0.5-0.2C947.4,439.4,950.7,440.9,951.9,443.8z" />
		<path class="st2" d="M959,466.5l1.3,6.4c0.6,3.1-1.3,6.2-4.5,6.8l-0.5,0.1c-3.1,0.6-6.2-1.3-6.8-4.5l-1.3-6.4
		c-0.6-3.1,1.3-6.2,4.5-6.8l0.5-0.1C955.3,461.4,958.4,463.4,959,466.5z" />
		<path class="st2" d="M962.4,488.7l0.4,6.5c0.2,3.2-2.2,5.9-5.4,6.1l-0.5,0c-3.2,0.2-5.9-2.2-6.1-5.4l-0.4-6.5
		c-0.2-3.2,2.2-5.9,5.4-6.1l0.5,0C959.5,483.2,962.2,485.6,962.4,488.7z" />
		<path class="st2" d="M962.7,510.7l-0.4,6.5c-0.2,3.2-3,5.6-6.1,5.4l-0.5,0c-3.2-0.2-5.6-3-5.4-6.1l0.4-6.5c0.2-3.2,3-5.6,6.1-5.4
		l0.5,0C960.5,504.8,962.9,507.5,962.7,510.7z" />
		<path class="st2" d="M960.2,532.1l-1.3,6.4c-0.6,3.1-3.7,5.1-6.8,4.5l-0.5-0.1c-3.1-0.6-5.1-3.7-4.5-6.8l1.3-6.4
		c0.6-3.1,3.7-5.1,6.8-4.5l0.5,0.1C958.8,526,960.8,529,960.2,532.1z" />
		<path class="st2" d="M955,552.7l-2.1,6.1c-1,3-4.3,4.6-7.3,3.6l-0.5-0.2c-3-1-4.6-4.3-3.6-7.3l2.1-6.1c1-3,4.3-4.6,7.3-3.6l0.5,0.2
		C954.4,546.4,956,549.7,955,552.7z" />
		<path class="st2" d="M947.2,571.9l-3,5.8c-1.4,2.8-4.9,3.9-7.7,2.5l-0.4-0.2c-2.8-1.4-3.9-4.9-2.5-7.7l3-5.8
		c1.4-2.8,4.9-3.9,7.7-2.5l0.4,0.2C947.5,565.6,948.7,569,947.2,571.9z" />
		<path class="st2" d="M937,589.3l-3.8,5.3c-1.9,2.6-5.5,3.2-8,1.3l-0.4-0.3c-2.6-1.9-3.2-5.5-1.3-8l3.8-5.3c1.9-2.6,5.5-3.2,8-1.3
		l0.4,0.3C938.3,583.2,938.9,586.7,937,589.3z" />
		<path class="st2" d="M924.5,604.6l-4.6,4.6c-2.3,2.2-5.9,2.2-8.1-0.1l-0.4-0.4c-2.2-2.3-2.2-5.9,0.1-8.1l4.6-4.6
		c2.3-2.2,5.9-2.2,8.1,0.1l0.4,0.4C926.8,598.8,926.8,602.4,924.5,604.6z" />
		<path class="st2" d="M909.9,617.3l-5.4,3.6c-2.6,1.8-6.2,1.1-8-1.6l-0.3-0.4c-1.8-2.6-1.1-6.2,1.6-8l5.4-3.6c2.6-1.8,6.2-1.1,8,1.6
		l0.3,0.4C913.2,612,912.5,615.6,909.9,617.3z" />
		<path class="st2" d="M891.8,627.5l-6.1,2.3c-3,1.1-6.3-0.3-7.4-3.3l-0.2-0.5c-1.1-3,0.3-6.3,3.3-7.4l6.1-2.3c3-1.1,6.3,0.3,7.4,3.3
		l0.2,0.5C896.2,623,894.7,626.4,891.8,627.5z" />
		<path class="st2" d="M871.4,633.5l-6.4,0.9c-3.1,0.5-6.1-1.7-6.5-4.9l-0.1-0.5c-0.5-3.1,1.7-6.1,4.9-6.5l6.4-0.9
		c3.1-0.5,6.1,1.7,6.5,4.9l0.1,0.5C876.7,630.1,874.5,633,871.4,633.5z" />
		<path class="st2" d="M855.6,634.2l-4.5,4.7c-2.2,2.3-5.8,2.3-8.1,0.1l-0.4-0.3c-2.3-2.2-2.3-5.8-0.1-8.1l4.5-4.7
		c2.2-2.3,5.8-2.3,8.1-0.1l0.4,0.3C857.8,628.3,857.8,631.9,855.6,634.2z" />
		<path class="st2" d="M849,649.8l-1.1,6.4c-0.5,3.1-3.5,5.2-6.6,4.7l-0.5-0.1c-3.1-0.5-5.2-3.5-4.7-6.6l1.1-6.4
		c0.5-3.1,3.5-5.2,6.6-4.7l0.5,0.1C847.5,643.7,849.6,646.7,849,649.8z" />
		<path class="st2" d="M846.1,669.5l-0.9,6.4c-0.4,3.1-3.3,5.3-6.5,4.9l-0.5-0.1c-3.1-0.4-5.3-3.3-4.9-6.5l0.9-6.4
		c0.4-3.1,3.3-5.3,6.5-4.9l0.5,0.1C844.3,663.4,846.5,666.3,846.1,669.5z" />
		<path class="st2" d="M848.6,671.7l6.5-0.4c3.2-0.2,5.9,2.2,6.1,5.4l0,0.5c0.2,3.2-2.2,5.9-5.4,6.1l-6.5,0.4
		c-3.2,0.2-5.9-2.2-6.1-5.4l0-0.5C843,674.6,845.4,671.9,848.6,671.7z" />
		<path class="st2" d="M869.9,670.9l6.5,0.1c3.2,0,5.7,2.6,5.7,5.8l0,0.5c0,3.2-2.6,5.7-5.8,5.7l-6.5-0.1c-3.2,0-5.7-2.6-5.7-5.8
		l0-0.5C864.1,673.4,866.7,670.9,869.9,670.9z" />
		<path class="st2" d="M891.8,672.3l6.4,1c3.1,0.5,5.3,3.5,4.8,6.6l-0.1,0.5c-0.5,3.1-3.5,5.3-6.6,4.8l-6.4-1
		c-3.1-0.5-5.3-3.5-4.8-6.6l0.1-0.5C885.7,673.9,888.7,671.8,891.8,672.3z" />
		<path class="st2" d="M911.1,676.8l6.1,2.2c3,1.1,4.5,4.4,3.4,7.4l-0.2,0.5c-1.1,3-4.4,4.5-7.4,3.4L907,688c-3-1.1-4.5-4.4-3.4-7.4
		l0.2-0.5C904.9,677.2,908.2,675.7,911.1,676.8z" />
		<path class="st2" d="M929.5,685.1l5.5,3.5c2.7,1.7,3.4,5.3,1.7,8l-0.3,0.4c-1.7,2.7-5.3,3.4-8,1.7l-5.5-3.5c-2.7-1.7-3.4-5.3-1.7-8
		l0.3-0.4C923.3,684.1,926.8,683.4,929.5,685.1z" />
		<path class="st2" d="M945.4,697.5l4.4,4.7c2.2,2.3,2.1,6-0.3,8.1l-0.4,0.3c-2.3,2.2-6,2.1-8.1-0.3l-4.4-4.7c-2.2-2.3-2.1-6,0.3-8.1
		l0.4-0.3C939.6,695,943.2,695.2,945.4,697.5z" />
		<path class="st2" d="M958,713.5l3.3,5.6c1.6,2.8,0.6,6.3-2.1,7.9l-0.4,0.3c-2.8,1.6-6.3,0.6-7.9-2.1l-3.3-5.6
		c-1.6-2.8-0.6-6.3,2.1-7.9l0.4-0.3C952.9,709.8,956.4,710.7,958,713.5z" />
		<path class="st2" d="M967.1,732.7l2,6.2c1,3-0.7,6.3-3.7,7.2l-0.5,0.2c-3,1-6.3-0.7-7.2-3.7l-2-6.2c-1-3,0.7-6.3,3.7-7.2l0.5-0.2
		C962.9,728,966.1,729.7,967.1,732.7z" />
		<path class="st2" d="M972.5,754.6l0.8,6.4c0.4,3.1-1.8,6-5,6.4l-0.5,0.1c-3.1,0.4-6-1.8-6.4-5l-0.8-6.4c-0.4-3.1,1.8-6,5-6.4
		l0.5-0.1C969.2,749.2,972.1,751.4,972.5,754.6z" />
		<path class="st2" d="M974.2,777.9l0.2,6.5c0.1,3.2-2.4,5.8-5.6,5.9l-0.5,0c-3.2,0.1-5.8-2.4-5.9-5.6l-0.2-6.5
		c-0.1-3.2,2.4-5.8,5.6-5.9l0.5,0C971.5,772.2,974.1,774.7,974.2,777.9z" />
		<path class="st2" d="M974.2,800l-0.2,6.5c-0.1,3.2-2.7,5.7-5.9,5.6l-0.5,0c-3.2-0.1-5.7-2.7-5.6-5.9l0.2-6.5
		c0.1-3.2,2.7-5.7,5.9-5.6l0.5,0C971.8,794.2,974.3,796.8,974.2,800z" />
		<path class="st2" d="M973.2,821.1l-0.5,6.5c-0.3,3.2-3,5.5-6.2,5.3l-0.5,0c-3.2-0.3-5.5-3-5.3-6.2l0.5-6.5c0.3-3.2,3-5.5,6.2-5.3
		l0.5,0C971.1,815.2,973.4,817.9,973.2,821.1z" />
		<path class="st2" d="M971,841.2l-0.9,6.4c-0.4,3.1-3.4,5.3-6.5,4.9l-0.5-0.1c-3.1-0.4-5.3-3.4-4.9-6.5l0.9-6.4
		c0.4-3.1,3.4-5.3,6.5-4.9l0.5,0.1C969.3,835.2,971.5,838.1,971,841.2z" />
		<path class="st2" d="M967.8,860.4l-1.3,6.4c-0.7,3.1-3.7,5.1-6.8,4.5l-0.5-0.1c-3.1-0.7-5.1-3.7-4.5-6.8l1.3-6.4
		c0.7-3.1,3.7-5.1,6.8-4.5l0.5,0.1C966.5,854.3,968.5,857.3,967.8,860.4z" />
		<path class="st2" d="M963.4,878.8l-1.8,6.3c-0.9,3.1-4,4.8-7.1,4l-0.5-0.1c-3.1-0.9-4.8-4-4-7.1l1.8-6.3c0.9-3.1,4-4.8,7.1-4
		l0.5,0.1C962.5,872.5,964.3,875.7,963.4,878.8z" />
		<path class="st2" d="M957.4,897.7l-2.3,6.1c-1.1,3-4.4,4.5-7.4,3.3l-0.5-0.2c-3-1.1-4.5-4.4-3.3-7.4l2.3-6.1c1.1-3,4.4-4.5,7.4-3.3
		l0.5,0.2C957,891.5,958.5,894.8,957.4,897.7z" />
		<path class="st2" d="M948,919.1l-3.2,5.7c-1.5,2.8-5,3.8-7.8,2.2l-0.4-0.2c-2.8-1.5-3.8-5-2.2-7.8l3.2-5.7c1.5-2.8,5-3.8,7.8-2.2
		l0.4,0.2C948.5,912.9,949.5,916.4,948,919.1z" />
		<path class="st2" d="M936.5,937l-4.1,5c-2,2.5-5.6,2.8-8.1,0.8l-0.4-0.3c-2.5-2-2.8-5.6-0.8-8.1l4.1-5c2-2.5,5.6-2.8,8.1-0.8
		l0.4,0.3C938.2,931,938.5,934.6,936.5,937z" />
		<path class="st2" d="M922.8,951.4l-5.1,4c-2.5,2-6.1,1.5-8.1-0.9l-0.3-0.4c-2-2.5-1.5-6.1,0.9-8.1l5.1-4c2.5-2,6.1-1.5,8.1,0.9
		l0.3,0.4C925.7,945.8,925.3,949.4,922.8,951.4z" />
		<path class="st2" d="M906.8,962.1l-5.9,2.8c-2.9,1.4-6.3,0.1-7.7-2.7l-0.2-0.5c-1.4-2.9-0.1-6.3,2.7-7.7l5.9-2.8
		c2.9-1.4,6.3-0.1,7.7,2.7l0.2,0.5C910.9,957.3,909.6,960.7,906.8,962.1z" />
		<path class="st2" d="M887,969.4l-6.4,1.2c-3.1,0.6-6.1-1.4-6.7-4.6l-0.1-0.5c-0.6-3.1,1.4-6.1,4.6-6.7l6.4-1.2
		c3.1-0.6,6.1,1.4,6.7,4.6l0.1,0.5C892.2,965.8,890.1,968.8,887,969.4z" />
		<path class="st2" d="M865.9,971.4l-6.5-0.5c-3.2-0.2-5.6-3-5.3-6.1l0-0.5c0.2-3.2,3-5.6,6.1-5.3l6.5,0.5c3.2,0.2,5.6,3,5.3,6.1
		l0,0.5C871.8,969.2,869.1,971.6,865.9,971.4z" />
		<path class="st2" d="M846.2,968.2l-6.2-2.1c-3-1-4.6-4.3-3.6-7.3l0.2-0.5c1-3,4.3-4.6,7.3-3.6l6.2,2.1c3,1,4.6,4.3,3.6,7.3
		l-0.2,0.5C852.5,967.6,849.2,969.2,846.2,968.2z" />
		<path class="st2" d="M828,960.1l-5.4-3.6c-2.7-1.7-3.4-5.3-1.7-8l0.3-0.4c1.7-2.7,5.3-3.4,8-1.7l5.4,3.6c2.7,1.7,3.4,5.3,1.7,8
		l-0.3,0.4C834.3,961.1,830.7,961.9,828,960.1z" />
		<path class="st2" d="M811.9,947.5l-4.5-4.7c-2.2-2.3-2.1-5.9,0.2-8.1l0.4-0.3c2.3-2.2,5.9-2.1,8.1,0.2l4.5,4.7
		c2.2,2.3,2.1,5.9-0.2,8.1l-0.4,0.3C817.7,949.8,814.1,949.8,811.9,947.5z" />
		<path class="st2" d="M798.1,930.6l-3.5-5.5c-1.7-2.7-0.9-6.2,1.8-7.9l0.4-0.3c2.7-1.7,6.2-0.9,7.9,1.8l3.5,5.5
		c1.7,2.7,0.9,6.2-1.8,7.9l-0.4,0.3C803.4,934.1,799.8,933.3,798.1,930.6z" />
		<path class="st2" d="M787,909.8l-2.5-6c-1.2-2.9,0.2-6.3,3.1-7.5l0.5-0.2c2.9-1.2,6.3,0.2,7.5,3.1l2.5,6c1.2,2.9-0.2,6.3-3.1,7.5
		l-0.5,0.2C791.6,914.1,788.2,912.7,787,909.8z" />
		<path class="st2" d="M780.2,890.6l-1.8-6.2c-0.9-3,0.9-6.2,3.9-7.1l0.5-0.1c3-0.9,6.2,0.9,7.1,3.9l1.8,6.2c0.9,3-0.9,6.2-3.9,7.1
		l-0.5,0.1C784.2,895.4,781,893.7,780.2,890.6z" />
		<path class="st2" d="M775.3,871.6l-1.3-6.4c-0.6-3.1,1.4-6.2,4.5-6.8l0.5-0.1c3.1-0.6,6.2,1.4,6.8,4.5l1.3,6.4
		c0.6,3.1-1.4,6.2-4.5,6.8l-0.5,0.1C779,876.7,775.9,874.7,775.3,871.6z" />
		<path class="st2" d="M771.7,851.1l-0.9-6.4c-0.4-3.1,1.8-6,4.9-6.5l0.5-0.1c3.1-0.4,6,1.8,6.5,4.9l0.9,6.4c0.4,3.1-1.8,6-4.9,6.5
		l-0.5,0.1C775,856.5,772.1,854.2,771.7,851.1z" />
		<path class="st2" d="M769.4,829.2l-0.5-6.5c-0.2-3.2,2.1-5.9,5.3-6.2l0.5,0c3.2-0.2,5.9,2.1,6.2,5.3l0.5,6.5
		c0.2,3.2-2.1,5.9-5.3,6.2l-0.5,0C772.4,834.8,769.6,832.4,769.4,829.2z" />
		<path class="st2" d="M768,809.1l-0.4-6.5c-0.2-3.2,2.2-5.9,5.4-6.1l0.5,0c3.2-0.2,5.9,2.2,6.1,5.4l0.4,6.5c0.2,3.2-2.2,5.9-5.4,6.1
		l-0.5,0C771,814.7,768.2,812.3,768,809.1z" />
		<path class="st2" d="M766.9,789.4l-0.4-6.5c-0.2-3.2,2.2-5.9,5.4-6.1l0.5,0c3.2-0.2,5.9,2.2,6.1,5.4l0.4,6.5
		c0.2,3.2-2.2,5.9-5.4,6.1l-0.5,0C769.9,795,767.1,792.6,766.9,789.4z" />
		<path class="st2" d="M766.8,782l-6.4,0.9c-3.1,0.5-6.1-1.7-6.5-4.9l-0.1-0.5c-0.5-3.1,1.7-6.1,4.9-6.5l6.4-0.9
		c3.1-0.5,6.1,1.7,6.5,4.9l0.1,0.5C772.2,778.6,770,781.5,766.8,782z" />
		<path class="st2" d="M747.1,784.8l-6.4,1c-3.1,0.5-6.1-1.7-6.6-4.8l-0.1-0.5c-0.5-3.1,1.7-6.1,4.8-6.6l6.4-1
		c3.1-0.5,6.1,1.7,6.6,4.8l0.1,0.5C752.3,781.3,750.2,784.3,747.1,784.8z" />
		<path class="st2" d="M727.3,787.7l-6.4,1c-3.1,0.5-6.1-1.7-6.6-4.8l-0.1-0.5c-0.5-3.1,1.7-6.1,4.8-6.6l6.4-1
		c3.1-0.5,6.1,1.7,6.6,4.8l0.1,0.5C732.6,784.3,730.4,787.2,727.3,787.7z" />
		<path class="st2" d="M707.7,790.7l-6.4,1c-3.1,0.5-6.1-1.7-6.6-4.8l-0.1-0.5c-0.5-3.1,1.7-6.1,4.8-6.6l6.4-1
		c3.1-0.5,6.1,1.7,6.6,4.8l0.1,0.5C713,787.3,710.8,790.2,707.7,790.7z" />
		<path class="st2" d="M687.9,793.7l-6.4,1c-3.1,0.5-6.1-1.7-6.6-4.8l-0.1-0.5c-0.5-3.1,1.7-6.1,4.8-6.6l6.4-1
		c3.1-0.5,6.1,1.7,6.6,4.8l0.1,0.5C693.2,790.3,691,793.2,687.9,793.7z" />
		<path class="st2" d="M668,796.6l-6.4,1c-3.1,0.5-6.1-1.7-6.5-4.8l-0.1-0.5c-0.5-3.1,1.7-6.1,4.8-6.5l6.4-1c3.1-0.5,6.1,1.7,6.5,4.8
		l0.1,0.5C673.3,793.2,671.1,796.1,668,796.6z" />
		<path class="st2" d="M648.4,799.4l-6.4,1c-3.1,0.5-6.1-1.7-6.5-4.8l-0.1-0.5c-0.5-3.1,1.7-6.1,4.8-6.5l6.4-1
		c3.1-0.5,6.1,1.7,6.5,4.8l0.1,0.5C653.7,796,651.6,798.9,648.4,799.4z" />
		<path class="st2" d="M628.7,802.2l-6.4,0.9c-3.1,0.5-6.1-1.7-6.5-4.8l-0.1-0.5c-0.5-3.1,1.7-6.1,4.8-6.5l6.4-0.9
		c3.1-0.5,6.1,1.7,6.5,4.8l0.1,0.5C634,798.8,631.8,801.7,628.7,802.2z" />
		<path class="st2" d="M608.8,805l-6.4,0.9c-3.1,0.5-6.1-1.7-6.5-4.9l-0.1-0.5c-0.5-3.1,1.7-6.1,4.9-6.5l6.4-0.9
		c3.1-0.5,6.1,1.7,6.5,4.9l0.1,0.5C614.2,801.6,612,804.6,608.8,805z" />
		<path class="st2" d="M588.9,807.8l-6.4,0.9c-3.1,0.5-6.1-1.7-6.5-4.9l-0.1-0.5c-0.5-3.1,1.7-6.1,4.9-6.5l6.4-0.9
		c3.1-0.5,6.1,1.7,6.5,4.9l0.1,0.5C594.3,804.4,592.1,807.3,588.9,807.8z" />
		<path class="st2" d="M569.1,810.5l-6.4,0.9c-3.1,0.4-6.1-1.8-6.5-4.9l-0.1-0.5c-0.4-3.1,1.8-6.1,4.9-6.5l6.4-0.9
		c3.1-0.4,6.1,1.8,6.5,4.9l0.1,0.5C574.4,807.2,572.2,810.1,569.1,810.5z" />
		<path class="st2" d="M549.1,813.1l-6.5,0.6c-3.2,0.3-6-2.1-6.2-5.2l0-0.5c-0.3-3.2,2.1-6,5.2-6.2l6.5-0.6c3.2-0.3,6,2.1,6.2,5.2
		l0,0.5C554.6,810,552.2,812.8,549.1,813.1z" />
		<path class="st2" d="M527.4,813.7L521,813c-3.2-0.3-5.4-3.2-5.1-6.3l0.1-0.5c0.3-3.2,3.2-5.4,6.3-5.1l6.5,0.7
		c3.2,0.3,5.4,3.2,5.1,6.3l-0.1,0.5C533.4,811.7,530.6,814,527.4,813.7z" />
		<path class="st2" d="M507.2,809.5l-6.1-2.4c-3-1.2-4.4-4.5-3.3-7.4l0.2-0.5c1.2-3,4.5-4.4,7.4-3.3l6.1,2.4c3,1.2,4.4,4.5,3.3,7.4
		l-0.2,0.5C513.5,809.2,510.2,810.7,507.2,809.5z" />
		<path class="st2" d="M489.3,800.6l-5.3-3.8c-2.6-1.9-3.2-5.4-1.3-8l0.3-0.4c1.9-2.6,5.4-3.2,8-1.3l5.3,3.8c2.6,1.9,3.2,5.4,1.3,8
		l-0.3,0.4C495.5,801.9,491.9,802.5,489.3,800.6z" />
		<path class="st2" d="M473.8,787.3l-4.2-4.9c-2.1-2.4-1.8-6,0.6-8.1l0.4-0.3c2.4-2.1,6-1.8,8.1,0.6l4.2,4.9c2.1,2.4,1.8,6-0.6,8.1
		l-0.4,0.3C479.5,789.9,475.9,789.7,473.8,787.3z" />
		<path class="st2" d="M460.9,769.5l-3.2-5.7c-1.6-2.8-0.6-6.3,2.2-7.8l0.4-0.2c2.8-1.6,6.3-0.6,7.8,2.2l3.2,5.7
		c1.6,2.8,0.6,6.3-2.2,7.8l-0.4,0.2C466,773.3,462.4,772.3,460.9,769.5z" />
		<path class="st2" d="M451.3,749.8l-2.4-6.1c-1.1-3,0.3-6.3,3.3-7.4l0.5-0.2c3-1.1,6.3,0.3,7.4,3.3l2.4,6.1c1.1,3-0.3,6.3-3.3,7.4
		l-0.5,0.2C455.8,754.2,452.5,752.8,451.3,749.8z" />
		<path class="st2" d="M445.3,732.5l-1.8-6.3c-0.9-3.1,0.9-6.2,3.9-7.1l0.5-0.1c3.1-0.9,6.2,0.9,7.1,4l1.8,6.3
		c0.9,3.1-0.9,6.2-3.9,7.1l-0.5,0.1C449.4,737.3,446.2,735.6,445.3,732.5z" />
		<path class="st2" d="M440.6,713.6l-1.3-6.4c-0.6-3.1,1.4-6.1,4.5-6.8l0.5-0.1c3.1-0.6,6.1,1.4,6.8,4.5l1.3,6.4
		c0.6,3.1-1.4,6.1-4.5,6.8l-0.5,0.1C444.2,718.7,441.2,716.7,440.6,713.6z" />
		<path class="st2" d="M437.1,692.6l-0.8-6.4c-0.4-3.1,1.8-6,5-6.4l0.5-0.1c3.1-0.4,6,1.8,6.4,5l0.8,6.4c0.4,3.1-1.8,6-5,6.4
		l-0.5,0.1C440.4,698,437.5,695.8,437.1,692.6z" />
		<path class="st2" d="M434.7,669.3l-0.5-6.5c-0.2-3.2,2.1-5.9,5.3-6.2l0.5,0c3.2-0.2,5.9,2.1,6.2,5.3l0.5,6.5
		c0.2,3.2-2.1,5.9-5.3,6.2l-0.5,0C437.7,674.8,435,672.4,434.7,669.3z" />
		<path class="st2" d="M433.6,648.6l-0.2-6.5c-0.1-3.2,2.4-5.8,5.6-5.9l0.5,0c3.2-0.1,5.8,2.4,5.9,5.6l0.2,6.5
		c0.1,3.2-2.4,5.8-5.6,5.9l-0.5,0C436.4,654.3,433.7,651.8,433.6,648.6z" />
		<path class="st2" d="M433.3,628l0-6.5c0-3.2,2.6-5.8,5.7-5.8l0.5,0c3.2,0,5.8,2.6,5.8,5.7l0,6.5c0,3.2-2.6,5.8-5.7,5.8l-0.5,0
		C435.8,633.8,433.3,631.2,433.3,628z" />
		<path class="st2" d="M433.5,607.6l0.2-6.5c0.1-3.2,2.7-5.7,5.9-5.6l0.5,0c3.2,0.1,5.7,2.7,5.6,5.9l-0.2,6.5
		c-0.1,3.2-2.7,5.7-5.9,5.6l-0.5,0C436,613.4,433.5,610.8,433.5,607.6z" />
		<path class="st2" d="M434.2,587.6l0.3-6.5c0.1-3.2,2.8-5.6,6-5.5l0.5,0c3.2,0.1,5.6,2.8,5.5,6l-0.3,6.5c-0.1,3.2-2.8,5.6-6,5.5
		l-0.5,0C436.6,593.5,434.1,590.8,434.2,587.6z" />
		<path class="st2" d="M435.2,568.4l0.3-6.5c0.1-3.2,2.8-5.6,6-5.5l0.5,0c3.2,0.1,5.6,2.8,5.5,6l-0.3,6.5c-0.1,3.2-2.8,5.6-6,5.5
		l-0.5,0C437.5,574.2,435,571.5,435.2,568.4z" />
		<path class="st2" d="M436.1,549l-0.1-6.5c0-3.2,2.5-5.8,5.7-5.8l0.5,0c3.2,0,5.8,2.5,5.8,5.7l0.1,6.5c0,3.2-2.5,5.8-5.7,5.8l-0.5,0
		C438.8,554.7,436.2,552.2,436.1,549z" />
		<path class="st2" d="M435,529.5l-0.8-6.4c-0.4-3.1,1.8-6,5-6.4l0.5-0.1c3.1-0.4,6,1.8,6.4,5l0.8,6.4c0.4,3.1-1.8,6-5,6.4l-0.5,0.1
		C438.3,534.9,435.4,532.7,435,529.5z" />
		<path class="st2" d="M434.6,513.4l-5.5-3.5c-2.7-1.7-3.5-5.3-1.8-7.9l0.3-0.4c1.7-2.7,5.3-3.5,7.9-1.8l5.5,3.5
		c2.7,1.7,3.5,5.3,1.8,7.9l-0.3,0.4C440.9,514.3,437.3,515.1,434.6,513.4z" />
		<path class="st2" d="M434,513.8l0,6.5c0,3.2-2.5,5.8-5.7,5.8l-0.5,0c-3.2,0-5.8-2.5-5.8-5.7l0-6.5c0-3.2,2.5-5.8,5.7-5.8l0.5,0
		C431.4,508,434,510.6,434,513.8z" />
		<path class="st2" d="M434,533.7l0,6.5c0,3.2-2.5,5.8-5.7,5.8l-0.5,0c-3.2,0-5.8-2.5-5.8-5.7l0-6.5c0-3.2,2.5-5.8,5.7-5.8l0.5,0
		C431.4,528,434,530.6,434,533.7z" />
		<path class="st2" d="M434,553.7l0,6.5c0,3.2-2.5,5.8-5.7,5.8l-0.5,0c-3.2,0-5.8-2.5-5.8-5.7l0-6.5c0-3.2,2.5-5.8,5.7-5.8l0.5,0
		C431.4,548,434,550.5,434,553.7z" />
		<path class="st2" d="M434.2,573.6l0.1,6.5c0.1,3.2-2.5,5.8-5.6,5.9l-0.5,0c-3.2,0.1-5.8-2.5-5.9-5.6l-0.1-6.5
		c-0.1-3.2,2.5-5.8,5.6-5.9l0.5,0C431.5,567.9,434.1,570.4,434.2,573.6z" />
		<path class="st2" d="M434.4,593.6l0.1,6.5c0.1,3.2-2.5,5.8-5.6,5.9l-0.5,0c-3.2,0.1-5.8-2.5-5.9-5.6l-0.1-6.5
		c-0.1-3.2,2.5-5.8,5.6-5.9l0.5,0C431.7,587.9,434.4,590.4,434.4,593.6z" />
		<path class="st2" d="M434.7,613.6l0.1,6.5c0.1,3.2-2.5,5.8-5.6,5.9l-0.5,0c-3.2,0.1-5.8-2.5-5.9-5.6l-0.1-6.5
		c-0.1-3.2,2.5-5.8,5.6-5.9l0.5,0C432,607.9,434.6,610.4,434.7,613.6z" />
		<path class="st2" d="M435,633.5l0.1,6.5c0.1,3.2-2.5,5.8-5.6,5.9l-0.5,0c-3.2,0.1-5.8-2.5-5.9-5.6l-0.1-6.5
		c-0.1-3.2,2.5-5.8,5.6-5.9l0.5,0C432.3,627.8,434.9,630.4,435,633.5z" />
		<path class="st2" d="M435.2,653.5l0.1,6.5c0.1,3.2-2.5,5.8-5.6,5.9l-0.5,0c-3.2,0.1-5.8-2.5-5.9-5.6l-0.1-6.5
		c-0.1-3.2,2.5-5.8,5.6-5.9l0.5,0C432.5,647.8,435.2,650.3,435.2,653.5z" />
		<path class="st2" d="M435.5,673.5l0.1,6.5c0.1,3.2-2.5,5.8-5.6,5.9l-0.5,0c-3.2,0.1-5.8-2.5-5.9-5.6l-0.1-6.5
		c-0.1-3.2,2.5-5.8,5.6-5.9l0.5,0C432.8,667.8,435.4,670.3,435.5,673.5z" />
		<path class="st2" d="M435.8,693.4l0.1,6.5c0.1,3.2-2.5,5.8-5.6,5.9l-0.5,0c-3.2,0.1-5.8-2.5-5.9-5.6l-0.1-6.5
		c-0.1-3.2,2.5-5.8,5.6-5.9l0.5,0C433.1,687.7,435.7,690.3,435.8,693.4z" />
		<path class="st2" d="M436,713.5l0,6.5c0,3.2-2.5,5.8-5.7,5.8l-0.5,0c-3.2,0-5.8-2.5-5.8-5.7l0-6.5c0-3.2,2.5-5.8,5.7-5.8l0.5,0
		C433.4,707.8,436,710.3,436,713.5z" />
		<path class="st2" d="M436,733.5l0,6.5c0,3.2-2.5,5.8-5.7,5.8l-0.5,0c-3.2,0-5.8-2.5-5.8-5.7l0-6.5c0-3.2,2.5-5.8,5.7-5.8l0.5,0
		C433.4,727.7,436,730.3,436,733.5z" />
		<path class="st2" d="M436,753.4l0,6.5c0,3.2-2.5,5.8-5.7,5.8l-0.5,0c-3.2,0-5.8-2.5-5.8-5.7l0-6.5c0-3.2,2.5-5.8,5.7-5.8l0.5,0
		C433.4,747.7,436,750.3,436,753.4z" />
		<path class="st2" d="M436,773.4l0,6.5c0,3.2-2.5,5.8-5.7,5.8l-0.5,0c-3.2,0-5.8-2.5-5.8-5.7l0-6.5c0-3.2,2.5-5.8,5.7-5.8l0.5,0
		C433.4,767.7,436,770.2,436,773.4z" />
		<path class="st2" d="M436,793.4l0,6.5c0,3.2-2.5,5.8-5.7,5.8l-0.5,0c-3.2,0-5.8-2.5-5.8-5.7l0-6.5c0-3.2,2.5-5.8,5.7-5.8l0.5,0
		C433.4,787.7,436,790.2,436,793.4z" />
		<path class="st2" d="M435.5,816.9l-0.5,6.5c-0.3,3.2-3,5.5-6.2,5.3l-0.5,0c-3.2-0.3-5.5-3-5.3-6.2l0.5-6.5c0.3-3.2,3-5.5,6.2-5.3
		l0.5,0C433.4,811,435.8,813.8,435.5,816.9z" />
		<path class="st2" d="M432.6,839.7l-1.3,6.4c-0.6,3.1-3.7,5.1-6.8,4.5l-0.5-0.1c-3.1-0.6-5.1-3.7-4.5-6.8l1.3-6.4
		c0.6-3.1,3.7-5.1,6.8-4.5l0.5,0.1C431.3,833.5,433.3,836.6,432.6,839.7z" />
		<path class="st2" d="M427.3,860.8l-2.1,6.1c-1,3-4.3,4.6-7.3,3.5l-0.5-0.2c-3-1-4.6-4.3-3.5-7.3l2.1-6.1c1-3,4.3-4.6,7.3-3.5
		l0.5,0.2C426.7,854.5,428.3,857.8,427.3,860.8z" />
		<path class="st2" d="M419.4,880l-3,5.8c-1.5,2.8-4.9,3.9-7.8,2.4l-0.4-0.2c-2.8-1.5-3.9-4.9-2.4-7.8l3-5.8c1.5-2.8,4.9-3.9,7.8-2.4
		l0.4,0.2C419.8,873.7,420.9,877.1,419.4,880z" />
		<path class="st2" d="M409.2,897.1l-3.9,5.2c-1.9,2.5-5.5,3.1-8,1.2l-0.4-0.3c-2.5-1.9-3.1-5.5-1.2-8l3.9-5.2c1.9-2.5,5.5-3.1,8-1.2
		l0.4,0.3C410.5,891,411.1,894.6,409.2,897.1z" />
		<path class="st2" d="M396.6,912l-4.7,4.5c-2.3,2.2-5.9,2.1-8.1-0.2l-0.3-0.4c-2.2-2.3-2.1-5.9,0.2-8.1l4.7-4.5
		c2.3-2.2,5.9-2.1,8.1,0.2l0.3,0.4C399,906.2,398.9,909.8,396.6,912z" />
		<path class="st2" d="M381.8,924.5l-5.4,3.6c-2.6,1.8-6.2,1-8-1.6l-0.3-0.4c-1.8-2.6-1-6.2,1.6-8l5.4-3.6c2.6-1.8,6.2-1,8,1.6
		l0.3,0.4C385.1,919.2,384.4,922.7,381.8,924.5z" />
		<path class="st2" d="M364.8,934.3l-6,2.6c-2.9,1.3-6.3-0.1-7.6-3l-0.2-0.5c-1.3-2.9,0.1-6.3,3-7.6l6-2.6c2.9-1.3,6.3,0.1,7.6,3
		l0.2,0.5C369.1,929.6,367.7,933,364.8,934.3z" />
		<path class="st2" d="M345.8,941.2l-6.3,1.6c-3.1,0.8-6.2-1.1-7-4.1l-0.1-0.5c-0.8-3.1,1.1-6.2,4.1-7l6.3-1.6c3.1-0.8,6.2,1.1,7,4.1
		l0.1,0.5C350.7,937.2,348.8,940.4,345.8,941.2z" />
		<path class="st2" d="M325.3,945.4l-6.5,0.8c-3.2,0.4-6-1.9-6.4-5l-0.1-0.5c-0.4-3.2,1.9-6,5-6.4l6.5-0.8c3.2-0.4,6,1.9,6.4,5
		l0.1,0.5C330.7,942.1,328.5,945,325.3,945.4z" />
		<path class="st2" d="M304.8,946.8l-6.5-0.1c-3.2,0-5.7-2.6-5.7-5.8l0-0.5c0-3.2,2.6-5.7,5.8-5.7l6.5,0.1c3.2,0,5.7,2.6,5.7,5.8
		l0,0.5C310.6,944.3,308,946.9,304.8,946.8z" />
		<path class="st2" d="M284.3,945.5l-6.4-1c-3.1-0.5-5.3-3.4-4.8-6.6l0.1-0.5c0.5-3.1,3.4-5.3,6.6-4.8l6.4,1c3.1,0.5,5.3,3.4,4.8,6.6
		l-0.1,0.5C290.3,943.8,287.4,946,284.3,945.5z" />
		<path class="st2" d="M263.9,941.3l-6.2-1.8c-3-0.9-4.8-4.1-3.9-7.1l0.1-0.5c0.9-3,4.1-4.8,7.1-3.9l6.2,1.8c3,0.9,4.8,4.1,3.9,7.1
		l-0.1,0.5C270.1,940.4,266.9,942.2,263.9,941.3z" />
		<path class="st2" d="M244,934.2l-5.9-2.8c-2.9-1.3-4.1-4.8-2.8-7.6l0.2-0.5c1.3-2.9,4.8-4.1,7.6-2.8l5.9,2.8
		c2.9,1.3,4.1,4.8,2.8,7.6l-0.2,0.5C250.3,934.3,246.8,935.5,244,934.2z" />
		<path class="st2" d="M225.6,924.1l-5.3-3.7c-2.6-1.8-3.2-5.4-1.4-8l0.3-0.4c1.8-2.6,5.4-3.2,8-1.4l5.3,3.7c2.6,1.8,3.2,5.4,1.4,8
		l-0.3,0.4C231.8,925.3,228.2,926,225.6,924.1z" />
		<path class="st2" d="M209.4,911.2l-4.6-4.6c-2.2-2.2-2.3-5.9,0-8.1l0.4-0.4c2.2-2.2,5.9-2.3,8.1,0l4.6,4.6c2.2,2.2,2.3,5.9,0,8.1
		l-0.4,0.4C215.3,913.4,211.7,913.4,209.4,911.2z" />
		<path class="st2" d="M195.5,895.3l-3.8-5.3c-1.8-2.6-1.2-6.2,1.3-8l0.4-0.3c2.6-1.8,6.2-1.2,8,1.3l3.8,5.3c1.8,2.6,1.2,6.2-1.3,8
		l-0.4,0.3C200.9,898.5,197.3,897.9,195.5,895.3z" />
		<path class="st2" d="M185.2,879.2l-3-5.8c-1.5-2.8-0.4-6.3,2.4-7.8l0.4-0.2c2.8-1.5,6.3-0.4,7.8,2.4l3,5.8c1.5,2.8,0.4,6.3-2.4,7.8
		l-0.4,0.2C190.2,883.1,186.7,882,185.2,879.2z" />
		<path class="st2" d="M176.8,861.2l-2.3-6.1c-1.1-3,0.3-6.3,3.3-7.4l0.5-0.2c3-1.1,6.3,0.3,7.4,3.3l2.3,6.1c1.1,3-0.3,6.3-3.3,7.4
		l-0.5,0.2C181.2,865.7,177.9,864.2,176.8,861.2z" />
		<path class="st2" d="M170.1,841.2l-1.7-6.3c-0.8-3.1,1-6.2,4-7.1l0.5-0.1c3.1-0.8,6.2,1,7.1,4l1.7,6.3c0.8,3.1-1,6.2-4,7.1
		l-0.5,0.1C174,846.1,170.9,844.3,170.1,841.2z" />
		<path class="st2" d="M165,819.3l-1.1-6.4c-0.6-3.1,1.5-6.1,4.7-6.7l0.5-0.1c3.1-0.6,6.1,1.5,6.7,4.7l1.1,6.4
		c0.6,3.1-1.5,6.1-4.7,6.7l-0.5,0.1C168.5,824.5,165.6,822.5,165,819.3z" />
		<path class="st2" d="M162.1,799.2l-0.7-6.5c-0.3-3.2,2-6,5.1-6.3l0.5-0.1c3.2-0.3,6,2,6.3,5.1l0.7,6.5c0.3,3.2-2,6-5.1,6.3
		l-0.5,0.1C165.2,804.7,162.4,802.4,162.1,799.2z" />
		<path class="st2" d="M160.5,779.2l-0.3-6.5c-0.2-3.2,2.3-5.9,5.5-6l0.5,0c3.2-0.2,5.9,2.3,6,5.5l0.3,6.5c0.2,3.2-2.3,5.9-5.5,6
		l-0.5,0C163.4,784.8,160.7,782.4,160.5,779.2z" />
		<path class="st2" d="M159.9,759.1l-0.1-6.5c0-3.2,2.5-5.8,5.7-5.8l0.5,0c3.2,0,5.8,2.5,5.8,5.7l0.1,6.5c0,3.2-2.5,5.8-5.7,5.8
		l-0.5,0C162.6,764.8,160,762.3,159.9,759.1z" />
		<path class="st2" d="M159.9,738.8l0-6.5c0-3.2,2.6-5.7,5.8-5.7l0.5,0c3.2,0,5.7,2.6,5.7,5.8l0,6.5c0,3.2-2.6,5.7-5.8,5.7l-0.5,0
		C162.5,744.6,159.9,742,159.9,738.8z" />
		<path class="st2" d="M160.1,718l-0.1-6.5c0-3.2,2.5-5.8,5.7-5.8l0.5,0c3.2,0,5.8,2.5,5.8,5.7l0.1,6.5c0,3.2-2.5,5.8-5.7,5.8l-0.5,0
		C162.7,723.7,160.1,721.2,160.1,718z" />
		<path class="st2" d="M159.8,699.8l-0.2-6.5c-0.1-3.2,2.4-5.8,5.6-5.9l0.5,0c3.2-0.1,5.8,2.4,5.9,5.6l0.2,6.5
		c0.1,3.2-2.4,5.8-5.6,5.9l-0.5,0C162.5,705.5,159.9,703,159.8,699.8z" />
		<path class="st2" d="M161.8,681.6v-5.2c0-2.6,2.1-4.6,4.6-4.6h0.4c2.6,0,4.6,2.1,4.6,4.6v5.2c0,2.6-2.1,4.6-4.6,4.6h-0.4
		C163.8,686.2,161.8,684.1,161.8,681.6z" />

		<ellipse transform="matrix(5.012938e-02 -0.9987 0.9987 5.012938e-02 -209.4933 1221.9615)" class="st3" cx="537.7"
			cy="721.1" rx="7.3" ry="7.3" />

		<ellipse transform="matrix(2.243999e-02 -0.9997 0.9997 2.243999e-02 -172.2513 1261.2097)" class="st3" cx="558.8"
			cy="718.7" rx="7.3" ry="7.3" />

		<ellipse transform="matrix(9.789549e-03 -1 1 9.789549e-03 -142.3916 1288.9175)" class="st3" cx="579.6"
			cy="716.4" rx="7.3" ry="7.3" />
		<ellipse transform="matrix(1 -8.384822e-03 8.384822e-03 1 -5.9605 5.0644)" class="st3" cx="601" cy="713.4"
			rx="7.3" ry="7.3" />

		<ellipse transform="matrix(0.9999 -1.112368e-02 1.112368e-02 0.9999 -7.863 6.9645)" class="st3" cx="622.1"
			cy="710.3" rx="7.3" ry="7.3" />

		<ellipse transform="matrix(0.9999 -1.310116e-02 1.310116e-02 0.9999 -9.2102 8.4884)" class="st3" cx="643.3"
			cy="707.2" rx="7.3" ry="7.3" />

		<ellipse transform="matrix(0.9999 -1.433908e-02 1.433908e-02 0.9999 -10.0277 9.5981)" class="st3" cx="664.3"
			cy="704.1" rx="7.3" ry="7.3" />

		<ellipse transform="matrix(0.9999 -1.483952e-02 1.483952e-02 0.9999 -10.3266 10.2448)" class="st3" cx="685.2"
			cy="701" rx="7.3" ry="7.3" />

		<ellipse transform="matrix(0.9999 -1.509561e-02 1.509561e-02 0.9999 -10.4538 10.7395)" class="st3" cx="706.2"
			cy="697.8" rx="7.3" ry="7.3" />

		<ellipse transform="matrix(0.9999 -1.538073e-02 1.538073e-02 0.9999 -10.5984 11.2668)" class="st3" cx="727.2"
			cy="694.7" rx="7.3" ry="7.3" />

		<ellipse transform="matrix(0.9999 -1.545207e-02 1.545207e-02 0.9999 -10.5963 11.6423)" class="st3" cx="748.1"
			cy="691.5" rx="7.3" ry="7.3" />

		<ellipse transform="matrix(0.9998 -2.037689e-02 2.037689e-02 0.9998 -13.866 15.8166)" class="st3" cx="769.2"
			cy="688.3" rx="7.3" ry="7.3" />

		<ellipse transform="matrix(0.1911 -0.9816 0.9816 0.1911 -32.8832 1300.0249)" class="st3" cx="772.3" cy="670"
			rx="7.3" ry="7.3" />

		<ellipse transform="matrix(0.2487 -0.9686 0.9686 0.2487 -46.8666 1237.3738)" class="st3" cx="774.2" cy="648.9"
			rx="7.3" ry="7.3" />

		<ellipse transform="matrix(0.3365 -0.9417 0.9417 0.3365 -74.5038 1148.4358)" class="st3" cx="777.7" cy="627.1"
			rx="7.3" ry="7.3" />

		<ellipse transform="matrix(0.4621 -0.8868 0.8868 0.4621 -113.1158 1020.1723)" class="st3" cx="784.4" cy="603.3"
			rx="7.3" ry="7.3" />

		<ellipse transform="matrix(0.6129 -0.7901 0.7901 0.6129 -153.2309 852.8175)" class="st3" cx="793.8" cy="582.8"
			rx="7.3" ry="7.3" />

		<ellipse transform="matrix(0.7727 -0.6348 0.6348 0.7727 -176.4258 640.3195)" class="st3" cx="805.8" cy="566.5"
			rx="7.3" ry="7.3" />

		<ellipse transform="matrix(0.9062 -0.4228 0.4228 0.9062 -157.4167 398.8689)" class="st3" cx="820.4" cy="554.3"
			rx="7.3" ry="7.3" />

		<ellipse transform="matrix(0.9887 -0.1499 0.1499 0.9887 -72.3443 131.8331)" class="st3" cx="838.5" cy="545.9"
			rx="7.3" ry="7.3" />

		<ellipse transform="matrix(0.9995 -3.115435e-02 3.115435e-02 0.9995 -16.463 27.0308)" class="st3" cx="859.2"
			cy="541.8" rx="7.3" ry="7.3" />

		<ellipse transform="matrix(0.8275 -0.5614 0.5614 0.8275 -148.4419 584.6005)" class="st3" cx="877.3" cy="533.9"
			rx="7.3" ry="7.3" />

		<ellipse transform="matrix(0.4038 -0.9148 0.9148 0.4038 56.5177 1120.1891)" class="st3" cx="887.7" cy="516.7"
			rx="7.3" ry="7.3" />
		<ellipse transform="matrix(0.994 -0.1098 0.1098 0.994 -48.7554 100.5345)" class="st3" cx="888.6" cy="493"
			rx="7.3" ry="7.3" />

		<ellipse transform="matrix(0.3889 -0.9213 0.9213 0.3889 86.182 1098.2031)" class="st3" cx="870.9" cy="484.1"
			rx="7.3" ry="7.3" />

		<ellipse transform="matrix(0.262 -0.9651 0.9651 0.262 163.1124 1173.5052)" class="st3" cx="848.8" cy="480.1"
			rx="7.3" ry="7.3" />

		<ellipse transform="matrix(0.1906 -0.9817 0.9817 0.1906 199.9191 1198.5776)" class="st3" cx="826.8" cy="478.1"
			rx="7.3" ry="7.3" />

		<ellipse transform="matrix(0.1445 -0.9895 0.9895 0.1445 217.5907 1206.4635)" class="st3" cx="806.5" cy="477.4"
			rx="7.3" ry="7.3" />

		<ellipse transform="matrix(0.1169 -0.9931 0.9931 0.1169 220.4204 1202.759)" class="st3" cx="786.6" cy="477.4"
			rx="7.3" ry="7.3" />
		<ellipse transform="matrix(0.1335 -0.991 0.991 0.1335 189.1538 1182.339)" class="st3" cx="770.7" cy="483"
			rx="7.3" ry="7.3" />

		<ellipse transform="matrix(0.1215 -0.9926 0.9926 0.1215 176.9116 1207.9081)" class="st3" cx="770.9" cy="504"
			rx="7.3" ry="7.3" />

		<ellipse transform="matrix(0.1289 -0.9917 0.9917 0.1289 150.7165 1222.2339)" class="st3" cx="771.1" cy="525.3"
			rx="7.3" ry="7.3" />

		<ellipse transform="matrix(0.1508 -0.9886 0.9886 0.1508 114.1689 1226.4152)" class="st3" cx="771" cy="546.8"
			rx="7.3" ry="7.3" />
		<ellipse transform="matrix(0.2183 -0.9759 0.9759 0.2183 46.7251 1196.2062)" class="st3" cx="770" cy="568.9"
			rx="7.3" ry="7.3" />

		<ellipse transform="matrix(0.3327 -0.943 0.943 0.3327 -45.8531 1117.5874)" class="st3" cx="766.8" cy="591.2"
			rx="7.3" ry="7.3" />

		<ellipse transform="matrix(0.4538 -0.8911 0.8911 0.4538 -129.457 1012.314)" class="st3" cx="761.1" cy="611.8"
			rx="7.3" ry="7.3" />
		<ellipse transform="matrix(0.576 -0.8175 0.8175 0.576 -196.216 882.9179)" class="st3" cx="753" cy="630.6"
			rx="7.3" ry="7.3" />

		<ellipse transform="matrix(0.6915 -0.7224 0.7224 0.6915 -238.8081 736.0763)" class="st3" cx="742.4" cy="647.6"
			rx="7.3" ry="7.3" />

		<ellipse transform="matrix(0.813 -0.5822 0.5822 0.813 -250.0233 548.2386)" class="st3" cx="728.6" cy="663.4"
			rx="7.3" ry="7.3" />

		<ellipse transform="matrix(0.9102 -0.4142 0.4142 0.9102 -216.2136 355.5971)" class="st3" cx="711.9" cy="676.4"
			rx="7.3" ry="7.3" />

		<ellipse transform="matrix(0.9724 -0.2335 0.2335 0.9724 -140.9836 180.7548)" class="st3" cx="693" cy="685.9"
			rx="7.3" ry="7.3" />

		<ellipse transform="matrix(0.9991 -4.253723e-02 4.253723e-02 0.9991 -28.8089 29.2344)" class="st3" cx="672.6"
			cy="691.6" rx="7.3" ry="7.3" />

		<ellipse transform="matrix(0.1564 -0.9877 0.9877 0.1564 -135.3292 1228.0002)" class="st3" cx="651.2" cy="693.2"
			rx="7.3" ry="7.3" />
		<ellipse transform="matrix(0.3598 -0.933 0.933 0.3598 -240.9082 1029.892)" class="st3" cx="630" cy="690.5"
			rx="7.3" ry="7.3" />

		<ellipse transform="matrix(0.5513 -0.8343 0.8343 0.5513 -296.4103 815.7463)" class="st3" cx="610.2" cy="683.4"
			rx="7.3" ry="7.3" />

		<ellipse transform="matrix(0.7014 -0.7128 0.7128 0.7014 -302.4673 623.3841)" class="st3" cx="592.8" cy="672.7"
			rx="7.3" ry="7.3" />

		<ellipse transform="matrix(0.8036 -0.5952 0.5952 0.8036 -279.0964 473.5432)" class="st3" cx="578" cy="659.7"
			rx="7.3" ry="7.3" />

		<ellipse transform="matrix(0.8849 -0.4657 0.4657 0.8849 -235.0593 337.4056)" class="st3" cx="565.2" cy="644.4"
			rx="7.3" ry="7.3" />

		<ellipse transform="matrix(0.9426 -0.3339 0.3339 0.9426 -177.4671 221.1569)" class="st3" cx="554.6" cy="626.8"
			rx="7.3" ry="7.3" />

		<ellipse transform="matrix(0.9782 -0.2079 0.2079 0.9782 -114.2533 126.7626)" class="st3" cx="546.1" cy="607.1"
			rx="7.3" ry="7.3" />

		<ellipse transform="matrix(0.9957 -9.286261e-02 9.286261e-02 0.9957 -52.0032 52.6456)" class="st3" cx="539.7"
			cy="585.1" rx="7.3" ry="7.3" />

		<ellipse transform="matrix(1.793132e-02 -0.9998 0.9998 1.793132e-02 -35.3418 1086.7167)" class="st3" cx="535.5"
			cy="561.3" rx="7.3" ry="7.3" />
		<ellipse transform="matrix(0.1542 -0.988 0.988 0.1542 -79.9209 983.3616)" class="st3" cx="534.4" cy="538.4"
			rx="7.3" ry="7.3" />

		<ellipse transform="matrix(0.2888 -0.9574 0.9574 0.2888 -112.5821 880.6327)" class="st3" cx="536.4" cy="516.1"
			rx="7.3" ry="7.3" />

		<ellipse transform="matrix(0.4209 -0.9071 0.9071 0.4209 -135.4328 777.688)" class="st3" cx="541.4" cy="494.9"
			rx="7.3" ry="7.3" />

		<ellipse transform="matrix(0.5496 -0.8354 0.8354 0.5496 -149.7177 672.7007)" class="st3" cx="549.1" cy="475.2"
			rx="7.3" ry="7.3" />

		<ellipse transform="matrix(0.673 -0.7396 0.7396 0.673 -155.3748 563.2756)" class="st3" cx="559.4" cy="457.4"
			rx="7.3" ry="7.3" />
		<ellipse transform="matrix(0.787 -0.617 0.617 0.787 -150.6776 447.1642)" class="st3" cx="572.2" cy="441.8"
			rx="7.3" ry="7.3" />

		<ellipse transform="matrix(0.8846 -0.4664 0.4664 0.8846 -132.2046 323.3939)" class="st3" cx="587.3" cy="428.8"
			rx="7.3" ry="7.3" />
		<ellipse transform="matrix(0.956 -0.2935 0.2935 0.956 -96.1401 196.0983)" class="st3" cx="605.3" cy="418.4"
			rx="7.3" ry="7.3" />

		<ellipse transform="matrix(0.9876 -0.1569 0.1569 0.9876 -56.7217 103.1975)" class="st3" cx="625.4" cy="410.9"
			rx="7.3" ry="7.3" />

		<ellipse transform="matrix(0.9958 -9.109874e-02 9.109874e-02 0.9958 -34.2742 60.5106)" class="st3" cx="645.7"
			cy="405.7" rx="7.3" ry="7.3" />

		<ellipse transform="matrix(0.9979 -6.459623e-02 6.459623e-02 0.9979 -24.5234 43.8705)" class="st3" cx="666.2"
			cy="401.2" rx="7.3" ry="7.3" />

		<ellipse transform="matrix(0.9986 -5.280833e-02 5.280833e-02 0.9986 -20.0164 36.8415)" class="st3" cx="687.2"
			cy="397.2" rx="7.3" ry="7.3" />

		<ellipse transform="matrix(0.1335 -0.991 0.991 0.1335 223.4124 1026.6605)" class="st3" cx="698.8" cy="385.6"
			rx="7.3" ry="7.3" />

		<ellipse transform="matrix(0.1335 -0.991 0.991 0.1335 244.4841 1008.2374)" class="st3" cx="698.8" cy="364.3"
			rx="7.3" ry="7.3" />

		<ellipse transform="matrix(0.1191 -0.9929 0.9929 0.1191 242.442 994.3531)" class="st3" cx="681.6" cy="360.6"
			rx="7.3" ry="7.3" />
		<ellipse transform="matrix(0.156 -0.9877 0.9877 0.156 389.6025 994.6874)" class="st3" cx="776.9" cy="269.4"
			rx="7.3" ry="7.3" />

		<ellipse transform="matrix(0.2199 -0.9755 0.9755 0.2199 354.6694 956.184)" class="st3" cx="775.2" cy="256.3"
			rx="7.3" ry="7.3" />

		<ellipse transform="matrix(0.2762 -0.9611 0.9611 0.2762 330.3748 921.061)" class="st3" cx="776.7" cy="241.2"
			rx="7.3" ry="7.3" />

		<ellipse transform="matrix(0.3559 -0.9345 0.9345 0.3559 290.5934 873.9964)" class="st3" cx="779.3" cy="226.2"
			rx="7.3" ry="7.3" />

		<ellipse transform="matrix(0.4576 -0.8891 0.8891 0.4576 236.7466 811.2978)" class="st3" cx="783.4" cy="211.6"
			rx="7.3" ry="7.3" />

		<ellipse transform="matrix(0.5763 -0.8173 0.8173 0.5763 172.8972 728.7187)" class="st3" cx="789.2" cy="197.6"
			rx="7.3" ry="7.3" />

		<ellipse transform="matrix(0.7041 -0.7101 0.7101 0.7041 105.2308 620.786)" class="st3" cx="797.5" cy="184.1"
			rx="7.3" ry="7.3" />
		<ellipse transform="matrix(0.8285 -0.5599 0.5599 0.8285 42.0198 481.957)" class="st3" cx="807.9" cy="172.4"
			rx="7.3" ry="7.3" />

		<ellipse transform="matrix(0.9327 -0.3606 0.3606 0.9327 -3.8712 306.6669)" class="st3" cx="819.8" cy="163.7"
			rx="7.3" ry="7.3" />

		<ellipse transform="matrix(0.9908 -0.1353 0.1353 0.9908 -13.7309 114.159)" class="st3" cx="833.1" cy="158.1"
			rx="7.3" ry="7.3" />

		<ellipse transform="matrix(7.868475e-02 -0.9969 0.9969 7.868475e-02 626.1187 988.5686)" class="st3" cx="847.9"
			cy="155.5" rx="7.3" ry="7.3" />

		<ellipse transform="matrix(0.2752 -0.9614 0.9614 0.2752 475.8322 943.3303)" class="st3" cx="863.6" cy="156.1"
			rx="7.3" ry="7.3" />

		<ellipse transform="matrix(0.5633 -0.8263 0.8263 0.5633 251.0164 795.5747)" class="st3" cx="878.1" cy="160.3"
			rx="7.3" ry="7.3" />

		<ellipse transform="matrix(0.8127 -0.5827 0.5827 0.8127 68.3113 550.1786)" class="st3" cx="889.9" cy="168.8"
			rx="7.3" ry="7.3" />

		<ellipse transform="matrix(0.9444 -0.3287 0.3287 0.9444 -9.7215 305.5487)" class="st3" cx="898.8" cy="181.5"
			rx="7.3" ry="7.3" />

		<ellipse transform="matrix(0.9905 -0.1378 0.1378 0.9905 -18.3121 126.4742)" class="st3" cx="904.4" cy="195.5"
			rx="7.3" ry="7.3" />

		<ellipse transform="matrix(6.269320e-02 -0.998 0.998 6.269320e-02 640.538 1102.4072)" class="st3" cx="907.2"
			cy="210.2" rx="7.3" ry="7.3" />

		<ellipse transform="matrix(0.2524 -0.9676 0.9676 0.2524 459.8671 1046.1429)" class="st3" cx="907" cy="225.5"
			rx="7.3" ry="7.3" />
		<ellipse transform="matrix(0.554 -0.8325 0.8325 0.554 202.7415 859.1434)" class="st3" cx="903.2" cy="240.4"
			rx="7.3" ry="7.3" />
		<ellipse transform="matrix(0.8459 -0.5333 0.5333 0.8459 3.3783 515.7484)" class="st3" cx="894.2" cy="252"
			rx="7.3" ry="7.3" />
		<ellipse transform="matrix(0.955 -0.2966 0.2966 0.955 -37.4736 273.1364)" class="st3" cx="881.4" cy="260.1"
			rx="7.3" ry="7.3" />

		<ellipse transform="matrix(0.9942 -0.1073 0.1073 0.9942 -23.4366 94.6147)" class="st3" cx="867.6" cy="265.1"
			rx="7.3" ry="7.3" />

		<ellipse transform="matrix(6.565014e-02 -0.9978 0.9978 6.565014e-02 529.1942 1100.4858)" class="st3" cx="852.2"
			cy="267.7" rx="7.3" ry="7.3" />

		<ellipse transform="matrix(0.1203 -0.9927 0.9927 0.1203 469.7011 1066.5544)" class="st3" cx="836.6" cy="268.3"
			rx="7.3" ry="7.3" />
		<ellipse transform="matrix(0.126 -0.992 0.992 0.126 451.3518 1049.5608)" class="st3" cx="821.3" cy="268.6"
			rx="7.3" ry="7.3" />

		<ellipse transform="matrix(0.1294 -0.9916 0.9916 0.1294 435.1893 1033.4653)" class="st3" cx="806.1" cy="268.9"
			rx="7.3" ry="7.3" />

		<ellipse transform="matrix(0.1381 -0.9904 0.9904 0.1381 415.2193 1015.4477)" class="st3" cx="791.1" cy="269.2"
			rx="7.3" ry="7.3" />

		<ellipse transform="matrix(0.1191 -0.9929 0.9929 0.1191 223.4056 973.5175)" class="st3" cx="660.3" cy="360.9"
			rx="7.3" ry="7.3" />

		<ellipse transform="matrix(0.1191 -0.9929 0.9929 0.1191 204.3692 952.6819)" class="st3" cx="639.1" cy="361.2"
			rx="7.3" ry="7.3" />

		<ellipse transform="matrix(0.1191 -0.9929 0.9929 0.1191 185.3328 931.8463)" class="st3" cx="617.8" cy="361.5"
			rx="7.3" ry="7.3" />

		<ellipse transform="matrix(0.1191 -0.9929 0.9929 0.1191 166.2964 911.0107)" class="st3" cx="596.5" cy="361.8"
			rx="7.3" ry="7.3" />
		<ellipse transform="matrix(0.1191 -0.9929 0.9929 0.1191 147.26 890.175)" class="st3" cx="575.3" cy="362.1"
			rx="7.3" ry="7.3" />
		<ellipse transform="matrix(0.1191 -0.9929 0.9929 0.1191 128.2236 869.3395)" class="st3" cx="554" cy="362.4"
			rx="7.3" ry="7.3" />

		<ellipse transform="matrix(0.1191 -0.9929 0.9929 0.1191 109.1872 848.5038)" class="st3" cx="532.8" cy="362.7"
			rx="7.3" ry="7.3" />
		<ellipse transform="matrix(0.1191 -0.9929 0.9929 0.1191 90.1508 827.6683)" class="st3" cx="511.5" cy="363"
			rx="7.3" ry="7.3" />

		<ellipse transform="matrix(0.1191 -0.9929 0.9929 0.1191 71.1144 806.8326)" class="st3" cx="490.2" cy="363.3"
			rx="7.3" ry="7.3" />
		<ellipse transform="matrix(0.1191 -0.9929 0.9929 0.1191 52.078 785.997)" class="st3" cx="469" cy="363.7"
			rx="7.3" ry="7.3" />
		<ellipse transform="matrix(0.1191 -0.9929 0.9929 0.1191 33.0416 765.1614)" class="st3" cx="447.7" cy="364"
			rx="7.3" ry="7.3" />

		<ellipse transform="matrix(7.549957e-02 -0.9971 0.9971 7.549957e-02 -346.1565 633.3347)" class="st3" cx="168.5"
			cy="503.3" rx="7.3" ry="7.3" />
		<ellipse transform="matrix(0.496 -0.8683 0.8683 0.496 -336.1247 391.448)" class="st3" cx="169.2" cy="485.3"
			rx="7.3" ry="7.3" />

		<ellipse transform="matrix(0.4977 -0.8674 0.8674 0.4977 -320.2281 381.7091)" class="st3" cx="169.4" cy="467.3"
			rx="7.3" ry="7.3" />

		<ellipse transform="matrix(0.4869 -0.8734 0.8734 0.4869 -305.3336 378.6104)" class="st3" cx="169.6" cy="449.2"
			rx="7.3" ry="7.3" />

		<ellipse transform="matrix(0.4667 -0.8844 0.8844 0.4667 -290.7305 379.6572)" class="st3" cx="169.5" cy="430.9"
			rx="7.3" ry="7.3" />

		<ellipse transform="matrix(0.5174 -0.8557 0.8557 0.5174 -270.035 343.3225)" class="st3" cx="169.4" cy="411.1"
			rx="7.3" ry="7.3" />

		<ellipse transform="matrix(0.6036 -0.7973 0.7973 0.6036 -244.6455 291.743)" class="st3" cx="171.1" cy="391.9"
			rx="7.3" ry="7.3" />

		<ellipse transform="matrix(0.6922 -0.7217 0.7217 0.6922 -216.1713 241.1743)" class="st3" cx="174.7" cy="374"
			rx="7.3" ry="7.3" />

		<ellipse transform="matrix(0.7777 -0.6287 0.6287 0.7777 -184.6417 192.7667)" class="st3" cx="180.2" cy="357.4"
			rx="7.3" ry="7.3" />

		<ellipse transform="matrix(0.8535 -0.5212 0.5212 0.8535 -150.7392 147.9233)" class="st3" cx="187.7" cy="342"
			rx="7.3" ry="7.3" />

		<ellipse transform="matrix(0.9144 -0.4049 0.4049 0.9144 -115.8109 107.85)" class="st3" cx="197.1" cy="327.7"
			rx="7.3" ry="7.3" />

		<ellipse transform="matrix(0.9611 -0.2761 0.2761 0.9611 -78.7018 69.8228)" class="st3" cx="208.6" cy="314.4"
			rx="7.3" ry="7.3" />

		<ellipse transform="matrix(0.9914 -0.1308 0.1308 0.9914 -37.7468 31.6168)" class="st3" cx="221.8" cy="303.1"
			rx="7.3" ry="7.3" />

		<ellipse transform="matrix(1.690236e-02 -0.9999 0.9999 1.690236e-02 -61.2402 525.3027)" class="st3" cx="236.5"
			cy="293.8" rx="7.3" ry="7.3" />

		<ellipse transform="matrix(0.1534 -0.9882 0.9882 0.1534 -68.7998 492.562)" class="st3" cx="253.1" cy="286.4"
			rx="7.3" ry="7.3" />
		<ellipse transform="matrix(0.2696 -0.963 0.963 0.2696 -72.1651 466.6722)" class="st3" cx="271.6" cy="280.9"
			rx="7.3" ry="7.3" />

		<ellipse transform="matrix(0.3694 -0.9293 0.9293 0.3694 -74.8531 444.6886)" class="st3" cx="290.2" cy="277.5"
			rx="7.3" ry="7.3" />

		<ellipse transform="matrix(0.4409 -0.8975 0.8975 0.4409 -75.2608 431.0483)" class="st3" cx="308.4" cy="275.9"
			rx="7.3" ry="7.3" />

		<ellipse transform="matrix(0.4782 -0.8783 0.8783 0.4782 -71.614 430.4317)" class="st3" cx="326.4" cy="275.5"
			rx="7.3" ry="7.3" />

		<ellipse transform="matrix(0.4846 -0.8747 0.8747 0.4846 -63.4741 443.1743)" class="st3" cx="344.4" cy="275.5"
			rx="7.3" ry="7.3" />

		<ellipse transform="matrix(0.4557 -0.8902 0.8902 0.4557 -46.4873 466.5263)" class="st3" cx="358.2" cy="271.3"
			rx="7.3" ry="7.3" />

		<ellipse transform="matrix(0.4546 -0.8907 0.8907 0.4546 -30.4658 456.5925)" class="st3" cx="357.6" cy="253.2"
			rx="7.3" ry="7.3" />
		<ellipse transform="matrix(0.445 -0.8955 0.8955 0.445 -12.304 450.0133)" class="st3" cx="356.9" cy="234.9"
			rx="7.3" ry="7.3" />

		<ellipse transform="matrix(0.2872 -0.9579 0.9579 0.2872 46.1902 494.3598)" class="st3" cx="355.3" cy="216.1"
			rx="7.3" ry="7.3" />

		<ellipse transform="matrix(0.9811 -0.1937 0.1937 0.9811 -32.1944 71.1538)" class="st3" cx="347.7" cy="200.2"
			rx="7.3" ry="7.3" />

		<ellipse transform="matrix(0.8093 -0.5873 0.5873 0.8093 -48.1367 232.2159)" class="st3" cx="333.6" cy="190.3"
			rx="7.3" ry="7.3" />

		<ellipse transform="matrix(0.7163 -0.6978 0.6978 0.7163 -38.1998 272.9672)" class="st3" cx="316.6" cy="183.5"
			rx="7.3" ry="7.3" />
		<ellipse transform="matrix(0.646 -0.7633 0.7633 0.646 -30.9582 291.275)" class="st3" cx="298.6" cy="179"
			rx="7.3" ry="7.3" />

		<ellipse transform="matrix(0.5866 -0.8099 0.8099 0.5866 -26.728 299.9139)" class="st3" cx="280.4" cy="176.1"
			rx="7.3" ry="7.3" />

		<ellipse transform="matrix(0.5392 -0.8422 0.8422 0.5392 -26.0636 301.3518)" class="st3" cx="262.3" cy="174.5"
			rx="7.3" ry="7.3" />

		<ellipse transform="matrix(0.5055 -0.8628 0.8628 0.5055 -29.0101 296.8517)" class="st3" cx="244.5" cy="173.7"
			rx="7.3" ry="7.3" />
		<ellipse transform="matrix(0.4731 -0.881 0.881 0.4731 -33.4875 290.9553)" class="st3" cx="226.5" cy="173.5"
			rx="7.3" ry="7.3" />

		<ellipse transform="matrix(0.4017 -0.9158 0.9158 0.4017 -35.3963 294.6948)" class="st3" cx="207.8" cy="174.4"
			rx="7.3" ry="7.3" />

		<ellipse transform="matrix(0.3187 -0.9479 0.9479 0.3187 -37.6868 301.1916)" class="st3" cx="190.7" cy="176.8"
			rx="7.3" ry="7.3" />

		<ellipse transform="matrix(4.807320e-02 -0.9988 0.9988 4.807320e-02 -16.6894 347.0551)" class="st3" cx="173.7"
			cy="182.3" rx="7.3" ry="7.3" />
		<ellipse transform="matrix(0.9653 -0.2612 0.2612 0.9653 -44.5594 48.482)" class="st3" cx="160.1" cy="191.9"
			rx="7.3" ry="7.3" />
		<ellipse transform="matrix(0.8468 -0.532 0.532 0.8468 -86.375 111.1675)" class="st3" cx="149.8" cy="205.5"
			rx="7.3" ry="7.3" />

		<ellipse transform="matrix(0.6946 -0.7194 0.7194 0.6946 -116.9611 170.9046)" class="st3" cx="142.8" cy="223.2"
			rx="7.3" ry="7.3" />

		<ellipse transform="matrix(0.6061 -0.7954 0.7954 0.6061 -137.6442 206.1502)" class="st3" cx="139.3" cy="242"
			rx="7.3" ry="7.3" />

		<ellipse transform="matrix(0.5739 -0.8189 0.8189 0.5739 -154.2015 222.8499)" class="st3" cx="137.1" cy="259.6"
			rx="7.3" ry="7.3" />

		<ellipse transform="matrix(0.5209 -0.8536 0.8536 0.5209 -172.6135 249.1443)" class="st3" cx="135.6" cy="278.3"
			rx="7.3" ry="7.3" />

		<ellipse transform="matrix(0.4879 -0.8729 0.8729 0.4879 -190.1052 270.3558)" class="st3" cx="135.4" cy="297.2"
			rx="7.3" ry="7.3" />

		<ellipse transform="matrix(0.4773 -0.8787 0.8787 0.4773 -206.7169 284.0417)" class="st3" cx="135.4" cy="315.8"
			rx="7.3" ry="7.3" />

		<ellipse transform="matrix(0.4703 -0.8825 0.8825 0.4703 -223.0254 296.6866)" class="st3" cx="135.6" cy="334.1"
			rx="7.3" ry="7.3" />

		<ellipse transform="matrix(0.4667 -0.8844 0.8844 0.4667 -238.6944 307.8948)" class="st3" cx="136" cy="351.9"
			rx="7.3" ry="7.3" />

		<ellipse transform="matrix(0.4681 -0.8837 0.8837 0.4681 -254.0367 317.0177)" class="st3" cx="136.3" cy="369.5"
			rx="7.3" ry="7.3" />

		<ellipse transform="matrix(0.4681 -0.8837 0.8837 0.4681 -269.8844 326.968)" class="st3" cx="136.7" cy="387.7"
			rx="7.3" ry="7.3" />

		<ellipse transform="matrix(0.4841 -0.875 0.875 0.4841 -284.5374 329.1128)" class="st3" cx="136.8" cy="405.9"
			rx="7.3" ry="7.3" />
		<ellipse transform="matrix(0.4723 -0.8814 0.8814 0.4723 -301.3463 344.402)" class="st3" cx="137" cy="423.9"
			rx="7.3" ry="7.3" />

		<ellipse transform="matrix(0.4476 -0.8942 0.8942 0.4476 -319.4106 367.1138)" class="st3" cx="137.4" cy="442.1"
			rx="7.3" ry="7.3" />
		<ellipse transform="matrix(0.3327 -0.943 0.943 0.3327 -342.033 438.7314)" class="st3" cx="139" cy="461.1"
			rx="7.3" ry="7.3" />

		<ellipse transform="matrix(5.726807e-02 -0.9984 0.9984 5.726807e-02 -341.7323 595.5222)" class="st3" cx="144.5"
			cy="478.7" rx="7.3" ry="7.3" />
		<ellipse transform="matrix(0.9648 -0.263 0.263 0.9648 -124.1759 57.9253)" class="st3" cx="154.3" cy="492.8"
			rx="7.3" ry="7.3" />

		<ellipse transform="matrix(0.8387 -0.5445 0.5445 0.8387 -246.9145 172.8903)" class="st3" cx="168.4" cy="503.3"
			rx="7.3" ry="7.3" />
		<ellipse transform="matrix(0.1335 -0.991 0.991 0.1335 8.0374 746.1619)" class="st3" cx="430.7" cy="368.5"
			rx="7.3" ry="7.3" />
		<ellipse transform="matrix(0.1335 -0.991 0.991 0.1335 -13.0343 764.5851)" class="st3" cx="430.7" cy="389.7"
			rx="7.3" ry="7.3" />
		<ellipse transform="matrix(0.1335 -0.991 0.991 0.1335 -34.1061 783.0082)" class="st3" cx="430.7" cy="411"
			rx="7.3" ry="7.3" />

		<ellipse transform="matrix(0.3571 -0.9341 0.9341 0.3571 -104.723 686.1162)" class="st3" cx="446.1" cy="419.1"
			rx="7.3" ry="7.3" />

		<ellipse transform="matrix(0.593 -0.8052 0.8052 0.593 -154.0281 547.8722)" class="st3" cx="464.9" cy="426.3"
			rx="7.3" ry="7.3" />

		<ellipse transform="matrix(0.7886 -0.6149 0.6149 0.7886 -167.7922 388.3953)" class="st3" cx="481" cy="438.2"
			rx="7.3" ry="7.3" />

		<ellipse transform="matrix(0.9135 -0.4068 0.4068 0.9135 -142.3067 240.3416)" class="st3" cx="494.1" cy="454.9"
			rx="7.3" ry="7.3" />
		<ellipse transform="matrix(0.9755 -0.22 0.22 0.9755 -92.3377 122.5847)" class="st3" cx="504.3" cy="475.9"
			rx="7.3" ry="7.3" />

		<ellipse transform="matrix(0.9952 -9.762526e-02 9.762526e-02 0.9952 -45.7951 52.1241)" class="st3" cx="509.7"
			cy="494" rx="7.3" ry="7.3" />

		<ellipse transform="matrix(1.429198e-02 -0.9999 0.9999 1.429198e-02 -7.8655 1019.6196)" class="st3" cx="513.2"
			cy="513.8" rx="7.3" ry="7.3" />

		<ellipse transform="matrix(0.1088 -0.9941 0.9941 0.1088 -73.6873 988.9785)" class="st3" cx="514.7" cy="535.6"
			rx="7.3" ry="7.3" />

		<ellipse transform="matrix(0.1842 -0.9829 0.9829 0.1842 -130.5432 962.2233)" class="st3" cx="514.4" cy="559.8"
			rx="7.3" ry="7.3" />

		<ellipse transform="matrix(0.1859 -0.9826 0.9826 0.1859 -152.4785 976.8416)" class="st3" cx="513.2" cy="580.4"
			rx="7.3" ry="7.3" />

		<ellipse transform="matrix(0.1706 -0.9853 0.9853 0.1706 -167.5658 1003.4726)" class="st3" cx="512.3" cy="601.3"
			rx="7.3" ry="7.3" />

		<ellipse transform="matrix(0.1423 -0.9898 0.9898 0.1423 -177.4732 1040.6127)" class="st3" cx="511.7" cy="622.7"
			rx="7.3" ry="7.3" />

		<ellipse transform="matrix(0.1006 -0.9949 0.9949 0.1006 -180.6864 1089.0271)" class="st3" cx="512" cy="644.4"
			rx="7.3" ry="7.3" />

		<ellipse transform="matrix(4.555505e-02 -0.999 0.999 4.555505e-02 -175.4852 1148.4877)" class="st3" cx="513.3"
			cy="666.1" rx="7.3" ry="7.3" />

		<ellipse transform="matrix(0.9992 -4.053521e-02 4.053521e-02 0.9992 -27.42 21.4762)" class="st3" cx="515.9"
			cy="686.9" rx="7.3" ry="7.3" />

		<ellipse transform="matrix(0.9769 -0.2138 0.2138 0.9769 -139.2724 127.8378)" class="st3" cx="521.3" cy="707.7"
			rx="7.3" ry="7.3" />
		<ellipse transform="matrix(0.3384 -0.941 0.941 0.3384 -578.0301 877.4902)" class="st3" cx="335" cy="849.8"
			rx="7.3" ry="7.3" />
		<ellipse transform="matrix(0.3384 -0.941 0.941 0.3384 -589.936 866.8774)" class="st3" cx="321.5" cy="853"
			rx="7.3" ry="7.3" />

		<ellipse transform="matrix(0.9964 -8.495234e-02 8.495234e-02 0.9964 -70.2749 32.698)" class="st3" cx="349.1"
			cy="842.1" rx="7.3" ry="7.3" />

		<ellipse transform="matrix(0.864 -0.5035 0.5035 0.864 -368.7932 293.0926)" class="st3" cx="358.1" cy="829.2"
			rx="7.3" ry="7.3" />

		<ellipse transform="matrix(0.6548 -0.7558 0.7558 0.6548 -488.0991 553.7219)" class="st3" cx="362.1" cy="811.2"
			rx="7.3" ry="7.3" />

		<ellipse transform="matrix(0.5926 -0.8055 0.8055 0.5926 -490.8605 614.6489)" class="st3" cx="362.2" cy="792.6"
			rx="7.3" ry="7.3" />

		<ellipse transform="matrix(0.5926 -0.8055 0.8055 0.5926 -476.9911 607.4865)" class="st3" cx="362.1" cy="775.3"
			rx="7.3" ry="7.3" />
		<ellipse transform="matrix(0.5926 -0.8055 0.8055 0.5926 -463.1218 600.324)" class="st3" cx="361.9" cy="758"
			rx="7.3" ry="7.3" />

		<ellipse transform="matrix(0.5926 -0.8055 0.8055 0.5926 -449.2524 593.1616)" class="st3" cx="361.8" cy="740.7"
			rx="7.3" ry="7.3" />

		<ellipse transform="matrix(0.5926 -0.8055 0.8055 0.5926 -435.383 585.9991)" class="st3" cx="361.7" cy="723.4"
			rx="7.3" ry="7.3" />

		<ellipse transform="matrix(0.5926 -0.8055 0.8055 0.5926 -421.5137 578.8367)" class="st3" cx="361.5" cy="706.1"
			rx="7.3" ry="7.3" />

		<ellipse transform="matrix(0.5926 -0.8055 0.8055 0.5926 -407.6443 571.6743)" class="st3" cx="361.4" cy="688.9"
			rx="7.3" ry="7.3" />

		<ellipse transform="matrix(0.5926 -0.8055 0.8055 0.5926 -393.7749 564.5118)" class="st3" cx="361.2" cy="671.6"
			rx="7.3" ry="7.3" />

		<ellipse transform="matrix(0.5926 -0.8055 0.8055 0.5926 -379.9056 557.3494)" class="st3" cx="361.1" cy="654.3"
			rx="7.3" ry="7.3" />
		<ellipse transform="matrix(0.5926 -0.8055 0.8055 0.5926 -366.0362 550.187)" class="st3" cx="360.9" cy="637"
			rx="7.3" ry="7.3" />

		<ellipse transform="matrix(0.5926 -0.8055 0.8055 0.5926 -352.1668 543.0245)" class="st3" cx="360.8" cy="619.7"
			rx="7.3" ry="7.3" />

		<ellipse transform="matrix(0.5926 -0.8055 0.8055 0.5926 -338.2975 535.8621)" class="st3" cx="360.6" cy="602.4"
			rx="7.3" ry="7.3" />

		<ellipse transform="matrix(0.5926 -0.8055 0.8055 0.5926 -324.4281 528.6997)" class="st3" cx="360.5" cy="585.1"
			rx="7.3" ry="7.3" />

		<ellipse transform="matrix(0.5926 -0.8055 0.8055 0.5926 -310.5587 521.5372)" class="st3" cx="360.3" cy="567.8"
			rx="7.3" ry="7.3" />

		<ellipse transform="matrix(0.6026 -0.7981 0.7981 0.6026 -296.2087 506.2549)" class="st3" cx="360.2" cy="550.5"
			rx="7.3" ry="7.3" />

		<ellipse transform="matrix(0.9998 -1.822780e-02 1.822780e-02 0.9998 -9.6863 6.6421)" class="st3" cx="359.5"
			cy="534.7" rx="7.3" ry="7.3" />

		<ellipse transform="matrix(1 -7.566762e-03 7.566762e-03 1 -4.1159 2.6313)" class="st3" cx="345.7" cy="545.3"
			rx="7.3" ry="7.3" />

		<ellipse transform="matrix(0.9992 -3.987218e-02 3.987218e-02 0.9992 -21.9006 13.6816)" class="st3" cx="332"
			cy="555.9" rx="7.3" ry="7.3" />

		<ellipse transform="matrix(0.9998 -2.084780e-02 2.084780e-02 0.9998 -11.7505 6.7684)" class="st3" cx="318.7"
			cy="567" rx="7.3" ry="7.3" />

		<ellipse transform="matrix(8.322559e-02 -0.9965 0.9965 8.322559e-02 -295.7494 832.39)" class="st3" cx="304.5"
			cy="576.9" rx="7.3" ry="7.3" />

		<ellipse transform="matrix(0.1883 -0.9821 0.9821 0.1883 -339.8388 759.3712)" class="st3" cx="289.5" cy="585.3"
			rx="7.3" ry="7.3" />

		<ellipse transform="matrix(0.2918 -0.9565 0.9565 0.2918 -372.3995 680.9614)" class="st3" cx="273.7" cy="592"
			rx="7.3" ry="7.3" />
		<ellipse transform="matrix(0.3866 -0.9223 0.9223 0.3866 -392.9024 603.2592)" class="st3" cx="257" cy="597"
			rx="7.3" ry="7.3" />

		<ellipse transform="matrix(0.3666 -0.9304 0.9304 0.3666 -406.981 604.2917)" class="st3" cx="240.3" cy="601.1"
			rx="7.3" ry="7.3" />

		<ellipse transform="matrix(0.6063 -0.7953 0.7953 0.6063 -397.2272 433.9358)" class="st3" cx="239.6" cy="618.1"
			rx="7.3" ry="7.3" />

		<ellipse transform="matrix(0.6063 -0.7953 0.7953 0.6063 -411.038 440.627)" class="st3" cx="239.5" cy="635.4"
			rx="7.3" ry="7.3" />

		<ellipse transform="matrix(0.6055 -0.7958 0.7958 0.6055 -425.0414 447.969)" class="st3" cx="239.3" cy="652.7"
			rx="7.3" ry="7.3" />

		<ellipse transform="matrix(0.6055 -0.7959 0.7959 0.6055 -438.7427 454.6372)" class="st3" cx="239.2" cy="669.9"
			rx="7.3" ry="7.3" />

		<ellipse transform="matrix(0.605 -0.7963 0.7963 0.605 -452.6388 461.7802)" class="st3" cx="239.1" cy="687.1"
			rx="7.3" ry="7.3" />
		<ellipse transform="matrix(0.604 -0.797 0.797 0.604 -466.7535 469.3763)" class="st3" cx="239" cy="704.4"
			rx="7.3" ry="7.3" />

		<ellipse transform="matrix(0.6026 -0.798 0.798 0.6026 -481.0595 477.4387)" class="st3" cx="238.9" cy="721.8"
			rx="7.3" ry="7.3" />

		<ellipse transform="matrix(0.6008 -0.7994 0.7994 0.6008 -495.5309 485.9875)" class="st3" cx="238.8" cy="739.1"
			rx="7.3" ry="7.3" />

		<ellipse transform="matrix(0.5985 -0.8011 0.8011 0.5985 -510.1435 495.0515)" class="st3" cx="238.8" cy="756.5"
			rx="7.3" ry="7.3" />

		<ellipse transform="matrix(0.5567 -0.8307 0.8307 0.5567 -535.8328 541.1527)" class="st3" cx="239.1" cy="772.6"
			rx="7.3" ry="7.3" />

		<ellipse transform="matrix(0.4954 -0.8687 0.8687 0.4954 -564.4075 607.4467)" class="st3" cx="240.6" cy="789.5"
			rx="7.3" ry="7.3" />

		<ellipse transform="matrix(0.4011 -0.916 0.916 0.4011 -595.3779 708.1142)" class="st3" cx="243.9" cy="809.4"
			rx="7.3" ry="7.3" />

		<ellipse transform="matrix(0.1497 -0.9887 0.9887 0.1497 -604.7598 950.4741)" class="st3" cx="250.2" cy="826.8"
			rx="7.3" ry="7.3" />

		<ellipse transform="matrix(0.9803 -0.1975 0.1975 0.9803 -160.6979 67.9038)" class="st3" cx="260.1" cy="839.5"
			rx="7.3" ry="7.3" />

		<ellipse transform="matrix(0.8483 -0.5295 0.5295 0.8483 -407.3379 273.3817)" class="st3" cx="273.5" cy="847.6"
			rx="7.3" ry="7.3" />
		<ellipse transform="matrix(0.7388 -0.674 0.674 0.7388 -498.692 418.265)" class="st3" cx="290.2" cy="852.4"
			rx="7.3" ry="7.3" />

		<ellipse transform="matrix(0.5994 -0.8004 0.8004 0.5994 -560.5356 588.0215)" class="st3" cx="307.2" cy="854.1"
			rx="7.3" ry="7.3" />

		<ellipse transform="matrix(0.2928 -0.9562 0.9562 0.2928 -115.9751 1050.0939)" class="st3" cx="651.9" cy="603.5"
			rx="5.6" ry="5.6" />

		<ellipse transform="matrix(0.6473 -0.7623 0.7623 0.6473 -232.9416 697.6671)" class="st3" cx="637.4" cy="600.5"
			rx="5.6" ry="5.6" />

		<ellipse transform="matrix(0.884 -0.4674 0.4674 0.884 -204.2616 360.8882)" class="st3" cx="625.2" cy="592.1"
			rx="5.6" ry="5.6" />

		<ellipse transform="matrix(0.9735 -0.2285 0.2285 0.9735 -116.3878 156.2569)" class="st3" cx="616.6" cy="580.7"
			rx="5.6" ry="5.6" />

		<ellipse transform="matrix(0.9998 -2.059489e-02 2.059489e-02 0.9998 -11.5457 12.6915)" class="st3" cx="610.4"
			cy="566.9" rx="5.6" ry="5.6" />

		<ellipse transform="matrix(0.1764 -0.9843 0.9843 0.1764 -43.1358 1051.9025)" class="st3" cx="607" cy="551.7"
			rx="5.6" ry="5.6" />

		<ellipse transform="matrix(0.3831 -0.9237 0.9237 0.3831 -121.1029 891.3868)" class="st3" cx="606.8" cy="536.4"
			rx="5.6" ry="5.6" />

		<ellipse transform="matrix(0.6138 -0.7894 0.7894 0.6138 -176.9422 683.2773)" class="st3" cx="609.9" cy="522.5"
			rx="5.6" ry="5.6" />

		<ellipse transform="matrix(0.5896 -0.8077 0.8077 0.5896 -312.9224 403.5359)" class="st3" cx="240.6" cy="509.7"
			rx="5.6" ry="5.6" />

		<ellipse transform="matrix(0.9361 -0.3518 0.3518 0.9361 -162.0048 120.9189)" class="st3" cx="251.8" cy="506.3"
			rx="5.6" ry="5.6" />

		<ellipse transform="matrix(0.8881 -0.4596 0.4596 0.8881 -200.8508 177.3622)" class="st3" cx="263.9" cy="501.3"
			rx="5.6" ry="5.6" />

		<ellipse transform="matrix(0.8049 -0.5934 0.5934 0.8049 -239.1976 260.3299)" class="st3" cx="276.3" cy="493.9"
			rx="5.6" ry="5.6" />

		<ellipse transform="matrix(0.7578 -0.6525 0.6525 0.7578 -246.9485 304.9785)" class="st3" cx="287.3" cy="485.1"
			rx="5.6" ry="5.6" />

		<ellipse transform="matrix(0.7719 -0.6358 0.6358 0.7719 -235.3736 297.9497)" class="st3" cx="297.5" cy="477"
			rx="5.6" ry="5.6" />
		<ellipse transform="matrix(0.7846 -0.62 0.62 0.7846 -224.2047 292.0602)" class="st3" cx="308.2" cy="468.7"
			rx="5.6" ry="5.6" />

		<ellipse transform="matrix(0.7963 -0.605 0.605 0.7963 -213.4193 287.0714)" class="st3" cx="319.5" cy="460.4"
			rx="5.6" ry="5.6" />

		<ellipse transform="matrix(0.8275 -0.5615 0.5615 0.8275 -197.13 263.8566)" class="st3" cx="330.8" cy="452.7"
			rx="5.6" ry="5.6" />

		<ellipse transform="matrix(0.8405 -0.5419 0.5419 0.8405 -186.8963 256.4741)" class="st3" cx="342.1" cy="445.6"
			rx="5.6" ry="5.6" />

		<ellipse transform="matrix(0.8363 -0.5483 0.5483 0.8363 -182.631 265.563)" class="st3" cx="353.4" cy="438.6"
			rx="5.6" ry="5.6" />

		<ellipse transform="matrix(0.9998 -1.919408e-02 1.919408e-02 0.9998 -8.1498 6.9535)" class="st3" cx="358.2"
			cy="428" rx="5.6" ry="5.6" />

		<ellipse transform="matrix(0.9998 -2.050279e-02 2.050279e-02 0.9998 -8.4316 7.4313)" class="st3" cx="358.2"
			cy="414.9" rx="5.6" ry="5.6" />

		<ellipse transform="matrix(0.9998 -2.149101e-02 2.149101e-02 0.9998 -8.5489 7.7913)" class="st3" cx="358.2"
			cy="401.6" rx="5.6" ry="5.6" />

		<ellipse transform="matrix(0.9998 -2.216233e-02 2.216233e-02 0.9998 -8.5149 8.0346)" class="st3" cx="358.2"
			cy="388.2" rx="5.6" ry="5.6" />

		<ellipse transform="matrix(0.9997 -2.252541e-02 2.252541e-02 0.9997 -8.3446 8.1644)" class="st3" cx="358.2"
			cy="374.5" rx="5.6" ry="5.6" />

		<ellipse transform="matrix(0.998 -6.246723e-02 6.246723e-02 0.998 -22.0635 22.8741)" class="st3" cx="354.8"
			cy="364.3" rx="5.6" ry="5.6" />

		<ellipse transform="matrix(0.998 -6.350066e-02 6.350066e-02 0.998 -22.4763 22.4149)" class="st3" cx="341.4"
			cy="364.8" rx="5.6" ry="5.6" />

		<ellipse transform="matrix(0.9982 -6.020713e-02 6.020713e-02 0.9982 -21.3994 20.4125)" class="st3" cx="328"
			cy="365.3" rx="5.6" ry="5.6" />

		<ellipse transform="matrix(0.9976 -6.902327e-02 6.902327e-02 0.9976 -24.5033 22.5858)" class="st3" cx="314.6"
			cy="365.9" rx="5.6" ry="5.6" />

		<ellipse transform="matrix(0.9963 -8.558627e-02 8.558627e-02 0.9963 -30.2708 27.1185)" class="st3" cx="301.1"
			cy="366.6" rx="5.6" ry="5.6" />
		<ellipse transform="matrix(0.98 -0.1991 0.1991 0.98 -67.525 64.6454)" class="st3" cx="287.6" cy="368" rx="5.6"
			ry="5.6" />
		<ellipse transform="matrix(0.929 -0.37 0.37 0.929 -117.9744 128.0088)" class="st3" cx="274.7" cy="371.5"
			rx="5.6" ry="5.6" />

		<ellipse transform="matrix(0.8463 -0.5327 0.5327 0.8463 -160.5719 197.9453)" class="st3" cx="262.8" cy="377.2"
			rx="5.6" ry="5.6" />
		<ellipse transform="matrix(0.6748 -0.738 0.738 0.6748 -202.5663 311.3446)" class="st3" cx="252" cy="385.5"
			rx="5.6" ry="5.6" />

		<ellipse transform="matrix(0.3835 -0.9235 0.9235 0.3835 -215.0818 470.3938)" class="st3" cx="244.8" cy="396.3"
			rx="5.6" ry="5.6" />

		<ellipse transform="matrix(6.079375e-02 -0.9982 0.9982 6.079375e-02 -181.8777 625.5255)" class="st3" cx="241.5"
			cy="409.4" rx="5.6" ry="5.6" />

		<ellipse transform="matrix(0.9988 -4.819176e-02 4.819176e-02 0.9988 -20.0965 12.124)" class="st3" cx="241.4"
			cy="422.8" rx="5.6" ry="5.6" />

		<ellipse transform="matrix(0.9999 -1.438948e-02 1.438948e-02 0.9999 -6.2506 3.5181)" class="st3" cx="241.4"
			cy="436.1" rx="5.6" ry="5.6" />

		<ellipse transform="matrix(0.9999 -1.198143e-02 1.198143e-02 0.9999 -5.3691 2.9226)" class="st3" cx="241.2"
			cy="449.6" rx="5.6" ry="5.6" />

		<ellipse transform="matrix(1 -7.701531e-03 7.701531e-03 1 -3.5593 1.8703)" class="st3" cx="241.1" cy="463.1"
			rx="5.6" ry="5.6" />

		<ellipse transform="matrix(0.9999 -1.157338e-02 1.157338e-02 0.9999 -5.4987 2.8202)" class="st3" cx="240.9"
			cy="476.5" rx="5.6" ry="5.6" />

		<ellipse transform="matrix(0.9999 -1.134244e-02 1.134244e-02 0.9999 -5.5418 2.7624)" class="st3" cx="240.8"
			cy="490" rx="5.6" ry="5.6" />

		<ellipse transform="matrix(0.9998 -1.868891e-02 1.868891e-02 0.9998 -9.3651 4.5851)" class="st3" cx="240.6"
			cy="503.4" rx="5.6" ry="5.6" />

		<ellipse transform="matrix(0.8999 -0.4361 0.4361 0.8999 -160.4816 320.5975)" class="st3" cx="618.1" cy="509.9"
			rx="5.6" ry="5.6" />

		<ellipse transform="matrix(0.9967 -8.155596e-02 8.155596e-02 0.9967 -38.8921 53.1584)" class="st3" cx="631.3"
			cy="502.7" rx="5.6" ry="5.6" />

		<ellipse transform="matrix(0.9999 -1.299339e-02 1.299339e-02 0.9999 -6.413 8.4229)" class="st3" cx="645"
			cy="497.8" rx="5.6" ry="5.6" />

		<ellipse transform="matrix(4.089984e-02 -0.9992 0.9992 4.089984e-02 140.5633 1133.019)" class="st3" cx="660.5"
			cy="493.3" rx="5.6" ry="5.6" />

		<ellipse transform="matrix(9.214739e-02 -0.9957 0.9957 9.214739e-02 124.9938 1116.9321)" class="st3" cx="675"
			cy="489.9" rx="5.6" ry="5.6" />

		<ellipse transform="matrix(9.957946e-02 -0.995 0.995 9.957946e-02 136.618 1124.8896)" class="st3" cx="689.9"
			cy="487" rx="5.6" ry="5.6" />
		<ellipse transform="matrix(0.2875 -0.9578 0.9578 0.2875 26.0764 1019.0638)" class="st3" cx="698" cy="492"
			rx="5.6" ry="5.6" />

		<ellipse transform="matrix(0.2811 -0.9597 0.9597 0.2811 15.2282 1034.5103)" class="st3" cx="698.1" cy="507.1"
			rx="5.6" ry="5.6" />

		<ellipse transform="matrix(0.2827 -0.9592 0.9592 0.2827 -0.5904 1044.8009)" class="st3" cx="698.3" cy="522.8"
			rx="5.6" ry="5.6" />

		<ellipse transform="matrix(0.298 -0.9546 0.9546 0.298 -23.1817 1044.2607)" class="st3" cx="698.4" cy="537.9"
			rx="5.6" ry="5.6" />

		<ellipse transform="matrix(0.3225 -0.9466 0.9466 0.3225 -50.1504 1035.209)" class="st3" cx="698.1" cy="552.6"
			rx="5.6" ry="5.6" />

		<ellipse transform="matrix(0.4191 -0.9079 0.9079 0.4191 -110.5966 962.9216)" class="st3" cx="697.2" cy="567.9"
			rx="5.6" ry="5.6" />

		<ellipse transform="matrix(0.7085 -0.7057 0.7057 0.7085 -209.1725 658.5891)" class="st3" cx="692.7" cy="582.5"
			rx="5.6" ry="5.6" />

		<ellipse transform="matrix(0.9292 -0.3695 0.3695 0.9292 -170.8867 294.562)" class="st3" cx="683.6" cy="593.4"
			rx="5.6" ry="5.6" />
		<ellipse transform="matrix(0.2997 -0.954 0.954 0.2997 -203.8931 1454.2266)" class="st3" cx="888.6" cy="866"
			rx="5.6" ry="5.6" />

		<ellipse transform="matrix(0.2997 -0.954 0.954 0.2997 -217.1078 1453.4667)" class="st3" cx="881.5" cy="874.6"
			rx="5.6" ry="5.6" />

		<ellipse transform="matrix(0.1375 -0.9905 0.9905 0.1375 -74.5936 1620.6566)" class="st3" cx="893.3" cy="853.2"
			rx="5.6" ry="5.6" />

		<ellipse transform="matrix(5.499731e-02 -0.9985 0.9985 5.499731e-02 9.739 1688.1171)" class="st3" cx="896.7"
			cy="838.9" rx="5.6" ry="5.6" />

		<ellipse transform="matrix(0.9999 -1.266421e-02 1.266421e-02 0.9999 -10.3716 11.451)" class="st3" cx="899"
			cy="824.7" rx="5.6" ry="5.6" />

		<ellipse transform="matrix(0.9978 -6.693051e-02 6.693051e-02 0.9978 -52.2402 62.079)" class="st3" cx="900.4"
			cy="810.7" rx="5.6" ry="5.6" />
		<ellipse transform="matrix(0.994 -0.109 0.109 0.994 -81.5346 102.9669)" class="st3" cx="901" cy="797.2" rx="5.6"
			ry="5.6" />

		<ellipse transform="matrix(0.9902 -0.1394 0.1394 0.9902 -100.5663 133.2687)" class="st3" cx="901.2" cy="784.6"
			rx="5.6" ry="5.6" />

		<ellipse transform="matrix(0.6673 -0.7448 0.7448 0.6673 -275.4731 926.4161)" class="st3" cx="899.2" cy="771.6"
			rx="5.6" ry="5.6" />

		<ellipse transform="matrix(4.487089e-02 -0.999 0.999 4.487089e-02 81.5653 1619.9821)" class="st3" cx="888"
			cy="767.3" rx="5.6" ry="5.6" />
		<ellipse transform="matrix(0.9933 -0.1158 0.1158 0.9933 -82.8344 106.4075)" class="st3" cx="874.2" cy="766"
			rx="5.6" ry="5.6" />

		<ellipse transform="matrix(0.9784 -0.2065 0.2065 0.9784 -139.7397 194.2161)" class="st3" cx="860.3" cy="766.4"
			rx="5.6" ry="5.6" />

		<ellipse transform="matrix(0.9733 -0.2293 0.2293 0.9733 -153.4538 214.6427)" class="st3" cx="846.7" cy="767.5"
			rx="5.6" ry="5.6" />

		<ellipse transform="matrix(0.9803 -0.1974 0.1974 0.9803 -137.3492 182.3259)" class="st3" cx="846" cy="780.2"
			rx="5.6" ry="5.6" />

		<ellipse transform="matrix(0.9817 -0.1905 0.1905 0.9817 -135.6849 175.8339)" class="st3" cx="846.7" cy="793.6"
			rx="5.6" ry="5.6" />

		<ellipse transform="matrix(0.9798 -0.1999 0.1999 0.9798 -144.2735 185.7445)" class="st3" cx="847.5" cy="807.2"
			rx="5.6" ry="5.6" />

		<ellipse transform="matrix(0.9762 -0.2167 0.2167 0.9762 -157.7264 203.3701)" class="st3" cx="848.5" cy="820.9"
			rx="5.6" ry="5.6" />

		<ellipse transform="matrix(0.9705 -0.2413 0.2413 0.9705 -176.2555 229.6705)" class="st3" cx="849.7" cy="834.6"
			rx="5.6" ry="5.6" />
		<ellipse transform="matrix(0.9306 -0.366 0.366 0.9306 -251.2417 370.6474)" class="st3" cx="852.1" cy="848"
			rx="5.6" ry="5.6" />

		<ellipse transform="matrix(0.9087 -0.4175 0.4175 0.9087 -281.3746 435.8766)" class="st3" cx="855.7" cy="861.2"
			rx="5.6" ry="5.6" />

		<ellipse transform="matrix(0.7272 -0.6864 0.6864 0.7272 -364.7205 828.7054)" class="st3" cx="860.2" cy="873.2"
			rx="5.6" ry="5.6" />

		<ellipse transform="matrix(0.9904 -0.1382 0.1382 0.9904 -113.0769 129.0544)" class="st3" cx="872.7" cy="878.8"
			rx="5.6" ry="5.6" />
		<circle class="st3" cx="670.4" cy="600.3" r="5.6" />

	</g>
	<g id="ROAD">
		<path id="TRACK_asphalt" class="st0" d="M868.8,956.8c-31.6,0-57.7-22.1-71.7-60.7c-7-19.6-11.5-42.1-13.5-69
		c-0.8-10.9-1.5-21.7-2.1-33c-0.3-6-0.7-12.1-1.1-18.2l-0.7-10.8l-10.7,1.6c-4.8,0.7-9.5,1.4-14.3,2c-4.1,0.6-8.3,1.2-12.5,1.8
		c-8,1.2-16,2.4-23.9,3.6c-15.7,2.4-32,4.9-48.1,7.2l-3.6,0.5c-34.2,4.9-69.6,10-104.5,14.7l-1.8,0.2c-9.2,1.3-17.9,2.4-26.6,2.4
		c-6.9,0-13-0.8-18.5-2.4c-22.1-6.4-38.5-22.8-50.1-50.3c-9.2-21.9-14.4-47.1-16.8-81.4c-2.5-34.9-0.7-70.6,1.1-105.1l0.4-8.6
		c0.6-12.1-1-24.2-2.6-35.8l-0.3-2.1c-1.4-11-7.2-16.7-17.5-17.3l-10.6-0.6V506c0,6.1,0,12.2,0,18.3c0,12,0,24.4,0,36.7
		c0.4,49.7,0.9,100.4,1.4,149.3c0.1,9.8,0.2,19.7,0.3,29.5c0.2,19.6,0.4,39.8,0.6,59.7c0.7,65.7-28.7,113.4-78.8,127.3
		c-12.9,3.6-25.9,5.4-38.6,5.4c-16.8,0-33.6-3.2-49.8-9.5c-20.6-8.1-37.4-21.5-50-39.9c-12.3-18-21-41.4-25.8-69.6
		c-4.8-28.1-4.5-56.2-4.2-85.8l0-4.6c0.2-20.5,0.4-41.3,0.5-61.4c0.1-20.2,0.3-41,0.5-61.5c0-7.8-3.6-12.9-10.8-15.1
		c-22.1-7-40.1-18.5-54.7-35.2c-22.6-25.3-34.9-58-36.7-97.2c-1.3-28.5-1.6-57.6-1.9-85.7c-0.1-5.7-0.1-11.5-0.2-17.2
		C70.3,321,70,293.1,71,265.4c1.1-32.6,6.2-60.9,15.9-86.4c15.8-41.8,42.2-67.8,80.9-79.7c15.6-4.8,33-7,54.6-7c2.2,0,4.5,0,6.7,0.1
		c28.1,0.6,58.2,2.1,87.8,9.2c18.7,4.5,34.2,10.9,47.5,19.5c29.3,19.1,46.2,50.2,50.2,92.4l0,0.2c1.5,13.8,2,27.7,2.4,42.5
		c0.2,5.7,0.4,11.7,0.6,17.7l0.4,9.7l9.7-0.1c90.3-1.3,180.9-2.6,271.7-3.9l9-0.1l0.8-9c0.4-4.8,0.8-9.6,1.1-14.3
		c0.6-7.9,1.2-15.4,2-22.8c6.3-57.3,26-99.7,60.2-129.4c19.4-16.9,41.2-26.3,66.7-28.7c4.6-0.4,9.1-0.7,13.3-0.7
		c22.8,0,42.3,6.2,59.5,19c31.2,23.3,49.4,59.3,53.9,107c3.4,36.1-3.4,67.6-20.4,93.5c-14,21.5-33.1,35.8-60.1,45
		c-19.2,6.5-38.9,7.3-60.8,7.6c-8.5,0.1-17.1,0.2-25.7,0.3c-8.7,0.1-17.4,0.3-26,0.4h-14.6v49.4h10c1.4,0,2.9,0,4.3,0
		c1.5,0,2.9,0,4.4,0c1.5,0,3,0,4.5,0c6.5-0.2,12.4-0.3,18.2-0.3c29.5,0,53.7,2.3,76.2,7.3c8.5,1.9,17.2,4.9,24.6,7.5
		c24.1,8.9,38.9,29.2,45.3,61.9c10.5,53.9-10,110.6-48.7,134.7c-11.2,7-23.5,10.9-37.5,11.9c-14.5,1.1-20.3,6.4-23.8,21.9
		c-1.8,7.9-2.9,15.7-4,23.9c-0.4,3-0.8,6-1.3,9l-1.7,11.5h11.6c0.7,0,1.3,0,1.8,0c0.5,0,0.9,0,1.3,0c0.7,0,1.3,0,1.8-0.1
		c7.4-0.5,15.9-1,24.1-1c17.6,0,31,2.3,43.4,7.5c28.1,11.7,45.1,39.8,46.7,77.1c2,47.2-2.9,86.7-14.9,120.9
		c-11.2,31.7-27.4,51.6-49.5,60.9C886.7,955,877.8,956.8,868.8,956.8z M832.9,770c0.3,5.8,0.7,11.7,1,17.4
		c0.8,15.6,1.7,31.7,3.4,47.6c1.1,10.5,4.1,20.5,7,30.1c0.5,1.6,0.9,3.1,1.4,4.7c2.7,9,9.1,15.2,17.7,17c2.4,0.5,4.7,0.7,6.8,0.7
		c16.5,0,22.9-14,25-18.6l0.1-0.2c1.5-3.5,3.5-8.2,4.9-13.4c8.1-28.1,8.7-57,8.4-79.1c-0.2-8.9-4.7-15.2-12.7-17.8l-0.2-0.1
		c-7.9-2.4-16.6-3.6-26.5-3.6c-7.6,0-15.1,0.7-22.4,1.3c-1.5,0.1-3,0.3-4.4,0.4l-7.6,0.6l-1.4,7.5l-0.1,0.5
		C833.1,766.4,832.7,768,832.9,770z M351.4,525.1c-3.6,2.8-7.2,5.6-10.7,8.2c-8.7,6.6-17,12.9-25,19.9c-16.8,14.4-36,24.9-56.8,31
		c-4.9,1.4-9.9,2.6-15.1,3.8c-2.9,0.7-5.9,1.4-8.8,2.2l-6.2,1.6l-1.1,6.3c-0.3,1.7-0.5,3.2-0.5,4.7c-0.1,11.6-0.2,23.3-0.3,35.1
		c-0.3,40.6-0.7,82.6-0.6,123.9c0,11.6,1.1,24.1,3.7,40.4c4.4,27.7,16.9,45.6,37.1,53.4c12.3,4.8,24.9,7.2,37.6,7.2c0,0,0,0,0,0
		c10.2,0,20.5-1.6,30.7-4.7c15.9-4.9,34.7-18.4,34.4-55.1l-2.1-248.1c-0.1-4.3,0-8.5,0-13.3c0-2.7,0-5.5,0-8.6v-20.4L351.4,525.1z
		 M418.2,353.1V424l8.5,1.3c2.8,0.4,5,0.7,7.4,1c27.3,3.7,46.3,20.4,58,51.1c8.4,22.2,11.5,48.1,9.7,81.5l-0.4,7.1
		c-1.8,32.2-3.6,65.5-0.7,98.7c1.3,15,3.3,31.1,9.2,46.6c5.8,15.4,15.9,18.7,23.3,18.7c1,0,2-0.1,3.1-0.2c7.2-0.9,14.6-1.7,21.7-2.5
		c9.7-1,19.7-2.1,29.5-3.5c35.4-5,71.3-10.4,106-15.6c14.3-2.1,28.5-4.3,42.7-6.4c11.3-1.7,22.7-3.4,34.2-5.2l8.1-1.2l0.4-8.2
		c0.1-1.8,0.2-3.2,0.3-4.6l0-0.5c0.7-19,2.1-39.3,6.8-58.9c8.4-34.7,23.5-56.5,46-66.5c7.7-3.4,16.6-4.8,25.9-6.2l2.4-0.4
		c25.4-4.1,40.5-28.7,35.9-58.4c-1.4-9.4-7-13-11.3-14.2c-2.1-0.6-4.1-1.2-6.2-1.9c-4.3-1.4-8.7-2.8-13.5-3.7
		c-24.9-5.2-49.7-5.8-68.5-5.8c-4.2,0-8.8,0-14,0.1c-1.6,0-3.1,0-4.6,0c-1.5,0-3.1,0-4.7,0c-1.7,0-3.4,0-5.2,0h-10v19.3
		c0,7.8,0.1,15.7,0.2,23.3c0.2,16,0.3,32.6-0.3,48.7c-1.4,34.8-11.2,64-29.1,86.7c-18.6,23.7-47.7,37.8-77.9,37.8
		c-16.8,0-32.9-4.5-46.6-12.9c-33.2-20.8-53.8-56.3-61-105.7c-8.1-55.9,14-109.3,55-132.8c16.7-9.6,34.8-13.7,54-18l3-0.7
		c8.7-2,17.4-3.6,26.6-5.3c5.2-1,10.7-2,16.1-3.1l8.1-1.6v-53L418.2,353.1z M693.4,474.3c-4,0.8-8.1,1.6-12,2.4
		c-8.8,1.7-17.9,3.5-26.9,5.9c-14.4,3.8-25.9,7.8-36.1,12.3c-11.8,5.2-19.7,16.3-23,31.9c-5.3,26.1,4.2,57,22.6,73.4
		c9,8,19.6,12,31.4,12c6.5,0,13.5-1.2,21.4-3.6c20.5-6.3,33.1-23,34.3-46c1-18,0.8-35.5,0.5-54c-0.1-8-0.2-16.3-0.2-24.5v-12.3
		L693.4,474.3z M355.4,352.9c-6.8,0.3-13.6,0.5-20.2,0.8c-13.9,0.5-28.2,1-42.2,2c-15.6,1.1-29.9,6-42.4,14.6
		c-12.4,8.6-19.6,20.5-21.5,35.5c-0.5,4.5-0.4,8.8-0.3,13c0,2,0.1,4,0.1,5.8c-0.1,13-0.2,25.9-0.4,38.8c-0.1,12.9-0.3,25.8-0.4,38.7
		v19.4l12.6-3.4c13.3-3.6,30.5-9.5,46-22.8c11.3-9.5,23.7-19.1,36.7-28.5c7.9-5.6,16.3-10.8,24.5-15.8c4.3-2.7,8.8-5.4,13.1-8.2
		l4.6-2.9l0-5.4c0.1-23.1,0.1-46.6,0.1-71.5v-10.4L355.4,352.9z M227.5,162.2c-14.4,0-28.1,1.1-40.5,3.4c-22.8,4-51.6,18.8-59,66.3
		c-2.3,14.7-5,34.1-5.1,53.7c-0.3,24.4,0.2,49.3,0.7,73.3c0.2,10.5,0.4,21.3,0.6,31.9c0.1,5.6,0.1,11.3,0.1,16.9
		c0.1,14.5,0.2,29.5,1.2,44.2c1.8,27.1,14.1,47.5,35.7,59l11.6,6.2l2.8-12.4c0.3-0.8,0.8-2.3,0.8-4.1c0.1-7.6,0.2-15.4,0.3-22.9
		c0.3-17.4,0.6-35.3,0.1-53.1c-1.2-39,7.9-70,27.9-94.9c17.5-21.8,40.4-35,72-41.5c19.2-4,39-4,58.3-4h0.7c4,0,7.9,0,11.9,0l18.6,0
		l-0.4-10.4c-0.2-6.1-0.4-12.2-0.6-18.1c-0.4-11.5-0.7-22.3-1.4-33.3c-1.5-24.4-14.6-35.7-25.3-41l-0.1,0
		c-6.5-3.1-14.1-6.6-21.9-8.9c-29.1-8.6-58.9-10-86.8-10.2C228.9,162.2,228.2,162.2,227.5,162.2z M851,144.1
		c-28.6,0-51.4,12.9-67.8,38.2c-16.5,25.7-20,56-21.3,85l-0.4,9.5l9.5,0.9c0.2,0,0.4,0.1,0.6,0.1c0.6,0.1,1.6,0.3,2.8,0.3
		c0,0,9.5-0.2,14.2-0.2c18.4-0.3,37.5-0.6,56.3-1.2c17.9-0.6,33.2-5,46.7-13.5c12.2-7.6,19.6-18.5,22-32.3
		c3.5-20.8,0.1-40.3-10.1-58.2c-9.9-17.2-25.1-26.7-45.2-28.2C855.9,144.1,853.4,144.1,851,144.1z" />
		<circle id="START" cx="220.3" cy="729.1" r="3.4" class="st1" />
	</g>
</svg>