<?xml version="1.0" encoding="utf-8"?>
<!-- Generator: Adobe Illustrator 21.0.2, SVG Export Plug-In . SVG Version: 6.00 Build 0)  -->
<svg version="1.1" id="SCENE_3" xmlns="http://www.w3.org/2000/svg" xmlns:xlink="http://www.w3.org/1999/xlink" x="0px" y="0px"
	 viewBox="0 0 1024 1024" style="enable-background:new 0 0 1024 1024;" xml:space="preserve">
<style type="text/css">
	.st0{fill:#FFFFFF;}
	.st1{fill:#64566D;}
</style>
<rect id="BACKGROUND_grass" x="256.1" y="256" transform="matrix(0.7071 -0.7071 0.7071 0.7071 -212.0605 512.0397)" width="512" height="512"/>
<g id="OBSTACLES">
	<path id="_x30_1_x5F_stone1" class="st0" d="M587.9,686.2c-1.2,1.2-2.6,2.3-4,3.2v0.1l-0.1-0.1c-2.3-1.1-4.5-2.5-6.2-4.3
		c-1.6-1.5-3-3-4.6-4.6c-0.9-1-1.9-1.9-2.9-2.9c-9.3-9.2-18.6-18.4-27.9-27.6l-11.7-11.5l9.5-9.5l4.5,4.5c3.9,3.7,7.8,7.5,11.7,11.2
		c2.9,2.8,5.9,5.7,8.9,8.4c4.9,4.8,10.2,9.6,15.2,14.5c4.2,4.1,7.1,8.1,8.8,12.4c0.4,1.3,0.7,2.6,0.9,3.9l-0.2,0.2
		c-0.6,0.7-1.2,1.3-1.8,2L587.9,686.2z"/>
	<path id="_x30_2_x5F_stone1" class="st0" d="M520,543.7c-3-3-6.2-5.9-9.3-8.8c-6.4-6.2-13-12.4-19.5-18.7
		c-3.4-3.2-6.7-6.4-10.1-9.6c-3.3-3.3-6.4-6.2-9.2-8.8c-4.4-4.2-8.7-8.4-13.1-12.5c-4.9-4.8-10-9.5-15-14.4
		c-9.4-8.9-16.5-15.8-23-22.3c-3.3-3.1-6-6.8-8-11c-0.5-1.3-0.9-2.5-1.2-3.9l0.4-0.4c2-2.1,3.7-2.8,6-2.7c2.3,0.1,6.4,1.2,10.5,3.3
		c1.3,0.8,2.5,1.7,3.7,2.8c21.3,21.4,42.5,42.5,62.4,62.4c6.2,6.2,12.4,10.7,18.9,13.6c13,5.9,26.5,6.5,40.3,1.6
		c8.8-3.2,16.8-8.3,23.5-15.1l2.4-2.4l15.8,15.3l-53,53C537.6,560.6,520,543.7,520,543.7z"/>
	<path id="_x30_3_x5F_stone1" class="st0" d="M465,642.7c-2.1,2.1-4.2,4-6.6,5.7c-4.7,3.2-10,4.7-16.1,4.6
		c-6.1-0.1-11.9-1.4-18.9-4.1c-7.4-3-14.4-6.7-20.8-11.3c-4.7-3.3-9.2-6.9-13.3-10.9c-5-4.8-10.3-9.6-15.3-14.4
		c-2.5-2.3-4.9-4.6-7.4-6.9l-0.3-0.3c-7.8-7.4-15.9-14.9-24-22.5c-8.9-8.3-17-16.1-25-23.5c-2.7-2.5-5.4-5.1-8.1-7.6
		c-4.3-4.2-8.8-8.3-13.3-12.6c-6.9-6.5-14.1-13.7-23.3-23.5c-1.7-1.8-3.2-3.8-4.3-5.9c-1.1-2.1-1.1-4.1,0-6.5
		c1.3-2.8,3.1-5.4,5.2-7.8c1.4-1.6,2.9-3.4,4.5-4.9c1.6-1.6,3.3-3,5.1-4.2c3.3-2.2,7-3,10.5-2.4c3.7,0.6,7.6,2.2,12,4.9
		c4.1,2.5,7.8,5.7,11.1,9.1c2.9,3,6.2,6.2,10.3,10.3c6.2,6,12.4,11.9,18.5,17.9l19.2,18.7c9.3,9.1,18.6,18,27.9,27
		c4.2,4.1,8.5,8.2,12.8,12.4c3.3,3.1,6.4,6.3,9.7,9.4c11.9,11.5,23.9,23.2,35.8,34.7l14.5,14L465,642.7z"/>
	<path id="_x30_4_x5F_stone1" class="st0" d="M743.1,541.7c-2,2.1-3.9,3.8-5.8,5.4c-3,2.5-6.6,5.4-10.6,7.4
		c-3.6,1.9-7.6,2.3-11.2,0.9c-4-1.3-7.5-3.3-10.7-5.9c-3.5-2.8-6.7-5.5-9.7-8.3c-6-5.6-12-11.3-17.8-16.9c-1.8-1.8-3.7-3.5-5.6-5.4
		c-3.4-3.2-6.6-6.4-10-9.5l-1.2-1.2l1.5-1.5l5.4-5.6l1.6-1.6c3.8-3.9,7.8-7.5,12-10.9c5.3-4.5,11-8.5,17.1-11.9
		c6.5-3.7,12.1-5.9,17.7-6.9c8.3-1.6,15.1,0.3,20.9,5.5c8.5,7.8,15.1,15.8,20.2,25c2,3.4,3.3,7.1,4,11c0.6,4.2-0.4,8.3-3.2,13
		c-2.1,3.3-4.4,6.4-7.1,9.4c-2,2.2-4.7,5.2-7.5,8L743.1,541.7L743.1,541.7z"/>
	<path id="_x30_5_x5F_stone1" class="st0" d="M581.4,431.7c-2.8-2.7-5.7-5.5-8.5-8.2c-1.2-1.1-2.3-2.1-3.5-3c-1.1-1-1.3-1.1-2-1.7
		c-8.4-7.4-14.8-15.1-19.8-23.3c-2.6-4.5-4.3-8.3-5.3-12.3l-0.4-1.8c-1.3-6.6,0.6-12.2,5.6-17.4l2.7-2.8
		c6.4-6.4,12.2-11.2,18.4-14.9c4.9-3,9.2-4.9,13.4-6c7.5-1.9,14.4-1,21,3c2.8,1.6,5.4,3.7,7.7,6.1c4.5,4.5,8.8,9.3,13,13.9
		c2.1,2.3,3.7,4.9,4.9,7.7c1.3,2.7,1.3,5.9-0.1,8.8c-1.2,3-3.1,6.2-5.9,9.8c-2.8,3.6-6.9,8.1-10.8,12.1l-1.3,1.3l-28.4,29.6
		L581.4,431.7z"/>
	<path id="_x30_6_x5F_stone1" class="st0" d="M150,512l362,362l130.7-130.7l-25.5-25.5c-4.3,4.2-9.2,7.8-14.4,10.7
		c-14.7,8.2-29.5,8.8-43.7,1.8c-5.6-2.8-10.7-6.4-15.1-10.8c-2.1-2.1-4.2-4.1-6.2-6.2c-1.3-1.3-2.6-2.7-3.9-4
		c-10.3-10.3-19.4-19.2-27.8-27.6c-2.8-2.8-5.8-5.7-8.7-8.5l-1.1-1.1l-0.4,0.4c-2,2-4.1,4-6.3,6c-7.7,7.1-16.7,12.4-26.4,15.8
		c-12,4.2-24.4,5.3-37.8,3.5c-10.5-1.6-21-4.9-32-10.3c-10.3-5-19.8-11.1-28.5-18.2c-4.2-3.5-8.3-7.1-12-10.7
		c-8.6-8.1-17.3-16.1-25.7-24l-3.8-3.5c-2.5-2.3-4.9-4.7-7.5-7.1c-1.9-1.8-3.9-3.7-5.9-5.5c-3.6-3.4-7.1-6.7-10.7-10
		c-6.1-5.7-12.2-11.3-18.2-17.1c-4.2-4-8.4-8-12.6-12l-4-3.9c-1-0.9-1.9-1.8-2.8-2.7c-2.5-2.4-5.2-4.9-7.7-7.4
		c-5.5-5.5-11.2-11.2-16.5-17.2c-5.9-6.5-10.2-13.2-12.7-20.4c-4.7-12.9-3.7-26.6,2.7-40.4c3-6.6,7.3-13,12.9-19.7
		c2.4-2.8,4.7-5.3,7-7.7c1.5-1.5,3-2.9,4.5-4.2c17.5-15.3,36.9-20.8,57.7-16.3c8.5,1.8,16.6,5.4,25,11c5.9,3.9,11.3,8.5,16.3,13.5
		c3.7,3.7,7.6,7.5,11.3,11.1c1.3,1.2,2.5,2.4,3.7,3.6c13.2,12.7,26.4,25.5,39.5,38.3c6.6,6.4,13.2,12.7,19.7,19.1
		c7.6,7.5,15.4,14.8,23,22.3c12.7,12.3,25.5,24.7,38.2,37l8,7.8c1.3,1.3,2.5,2.6,4,3.9l1.1,1.1l9.1-9.1l-5.2-5
		c-4.8-4.6-9.5-9.2-14.4-13.7c-11.1-10.6-22.2-21.4-33.3-32l-6.2-5.9c-5.3-5.1-10.6-10.2-15.9-15.3l-17.4-16.7
		c-5.7-5.5-11.5-11-17.3-16.6c-1.2-1.1-2.3-2.2-3.5-3.3c-3-2.8-6-5.9-9.1-8.8c-7.4-7.4-12.7-15.2-16.3-23.9
		c-2.5-5.9-4-12.4-4.1-19.1c-0.3-11.2,3.9-22.6,11.5-31.6c1.3-1.7,2.9-3.4,4.5-4.9c6.6-6.6,14.6-11.6,23.1-14.4
		c8.7-2.9,17-3.7,27.2-2c10.3,1.8,19.8,6,28.8,12.4c0.9,0.7,1.8,1.4,2.5,2.3l0.1,0.1c7.8,7.8,15.5,15.5,23.3,23.3
		c6.8,6.8,21.6,21.6,21.6,21.6c6.6,6.6,13.4,13.4,20.1,20c2.5,2.5,4.6,4.1,6.8,5.2c4.1,2.1,7.4,1.6,11.1-1.8l2.1-2.1
		c-0.8-0.8-1.7-1.6-2.5-2.5c-2.5-2.5-4.9-4.8-7.5-7c-5.6-4.8-9.7-8.7-13.4-12.6c-8.7-9.3-15.8-18.9-20.4-28.1
		c-4.7-9.2-7.4-18-8.5-27.1c-2-17,2.5-33.1,13.4-47.8c2.8-3.6,5.7-7.1,8.9-10.2l4.1-4c10.7-10.2,21.1-17.9,32.1-23.6
		c11.7-6.1,23.2-9.5,34.7-10.2c13.9-0.8,27.1,2.3,39.2,9.4c5.9,3.5,11.4,7.7,16.2,12.7c5.9,5.9,10.3,10.7,14.4,15.3
		c5.3,6,9.5,12.9,12.4,20.6c5.2,14,4.5,28.7-2.2,43.8c-3.2,7.4-7.8,14.6-13.9,22.1c-4.4,5.4-9.3,10.5-13.5,14.9l-12.7,13.3l-10.5,11
		l-5.9,6l16.1,15.6l7.8-7.8c3.5-3.5,7.3-7.2,10.9-10.5c3.6-3.3,7.6-6.5,12-9.9c14.4-11,28.2-18.4,42.3-22.6
		c12.8-4,25.2-4.7,36.7-2.4c8.9,1.8,17.2,5.4,24.4,10.6c7.1,4.9,12.7,11.1,17.2,16.5c3.7,4.3,6.6,7.9,9.1,11.4
		c7.1,9.6,11.7,19,14.4,28.8c4.9,18,2,36.1-8.8,53.5c-4,6.4-8.7,12.5-13.9,18.1c-2.9,3.2-5.3,5.7-7.9,8.3c-2.6,2.7-5.1,4.9-7.6,7.1
		c-9.2,8.1-17.5,13.6-26,17.3c-15.8,6.8-31.7,7.1-47,0.9c-5.9-2.4-12.1-6-17.9-10.3c-5.8-4.3-11.1-9.3-15.8-13.8
		c-7.5-7.1-15.1-14.2-22.3-21.2c-3.5-3.3-6.9-6.6-10.4-9.9l-53,53c3,2.8,5.9,5.5,8.8,8.3c9.6,9.2,19.5,18.7,29.3,27.9
		c5.9,5.4,11,11.5,15.1,18.4c4.6,7.6,7.3,15.1,8.2,22.7c1.8,14.6-2.5,28.1-12.8,39.9c-0.7,0.8-4.4,4.6-5.2,5.3l25.5,25.5L874,512
		L512,150L150,512z"/>
</g>
<g id="ROAD">
	<path id="TRACK_cobblestone" class="st1" d="M499.1,615.9L516,599L390.1,478.2c0,0-11.7-13.9-15.3-22.4c-2.3-5.3-3.5-11.2-3.7-17.3
		c-0.2-9.9,3.5-19.9,10.2-27.9c6.7-8.2,15.1-14.1,25-17.6c8.3-2.8,16.5-3.3,24.6-1.8c10,1.8,18.8,5.7,26.9,11.5
		c0.7,0.6,59.8,59.7,67,66.7c2.3,2.4,4.9,4.4,7.8,6c5.9,3,11.7,2.2,17.2-2.9c2-1.8,6.2-6.4,6.2-6.4s-22.6-20.9-26.7-25.3
		c-7.6-8.1-14.5-17-19.7-27.1c-4.1-7.8-7-16.3-8.1-25.3c-1.8-15.6,2.3-30.2,12.2-43.8c3.5-4.9,7.8-9.1,12.3-13.4
		c9.3-8.8,19.3-16.6,30.6-22.6c10.3-5.4,21.1-8.8,32.4-9.5c13.3-0.8,25.3,2.4,36.4,8.8c5.6,3.3,10.7,7.4,15.3,11.9
		c4.9,4.9,9.6,9.9,14.1,15.1c4.9,5.7,8.9,12.1,11.6,19.2c4.8,12.9,4,26.2-2,39.7c-3.3,7.5-7.8,14.2-13,20.6
		c-4.1,5.1-45.8,48.6-45.8,48.6l22.8,22.8c0,0,1-0.8,1.2-0.9c3-3.1,6-6.2,9.1-9.3c4.2-4.2,8.4-8.3,12.8-12.3
		c3.7-3.4,7.6-6.6,11.7-9.5c12.4-9.5,25.7-17.3,40.4-21.6c11.5-3.5,22.8-4.5,34.2-2.2c8.3,1.7,15.9,5,22.6,9.8
		c6.3,4.4,11.5,9.9,16.4,15.7c3,3.6,6.1,7.3,8.8,11c6,8.2,10.9,17.1,13.7,27.3c4.6,16.8,1.8,33.2-8.1,49.2
		c-3.8,6.1-8.3,11.9-13.2,17.2c-4.7,5.2-9.8,10.3-15.1,15c-7.4,6.6-15.4,12.4-24.4,16.3c-14.8,6.4-29.2,6.4-43,0.8
		c-6.1-2.5-11.7-5.9-16.8-9.8c-5.5-4.1-51.3-47.6-51.3-47.6l-60.9,60.9c0,0,28,26.7,41.6,39.5c5.5,5.1,10.3,11,14.3,17.4
		c3.8,6.4,6.6,13.2,7.6,20.9c1.6,13.1-2.1,25-11.4,35.6c-4.9,5.9-11,10.9-17.7,14.7c-13.3,7.4-26.3,7.7-38.7,1.6
		c-5.2-2.5-10-5.9-14.1-9.9c-3.4-3.3-6.6-6.7-10-10c-9.3-9.2-41.1-40.4-41.1-40.4s-7.4,7.2-10.5,10c-7.1,6.5-15.5,11.5-24.3,14.5
		c-11.8,4.2-23.5,4.8-35.2,3.2c-11.7-1.7-21-5.2-30.6-9.8c-9.9-4.8-19.2-10.7-27.6-17.6c-4-3.6-121.5-115.2-126.9-121
		c-5.4-5.8-9.2-11.7-11.8-18.8c-4.2-11.9-3.3-24,2.4-36.3c3.1-6.7,7.2-12.7,12-18.3c3.3-4,7-7.8,10.9-11.2
		c15.9-14,33.5-19.2,52.8-14.9c8.6,1.8,16.3,5.6,23.4,10.3C336.9,459,499.1,615.9,499.1,615.9z M473.2,641.7
		C472.8,641.2,313.4,487,309,484.3c-4.2-2.6-8.6-4.8-13.7-5.6c-4.9-0.8-10.1,0.3-14.5,3.3c-4.2,2.8-7.6,6.4-10.7,10.2
		c-2.4,2.8-4.5,5.9-6.1,9.3c-1.8,3.7-1.9,7.8,0,11.2c1.3,2.5,3,4.9,4.9,6.9c7.6,8.1,125.6,119.3,130.5,122.7
		c6.8,4.7,14.1,8.6,21.8,11.7c6.6,2.5,13.4,4.4,20.7,4.5s13.3-1.6,19.3-5.7C465.7,649.7,469.2,645.6,473.2,641.7L473.2,641.7
		L473.2,641.7z M580.2,489.5l-5.7,5.7c-6.2,6.4-13.7,11.2-21.9,14.1c-12.9,4.7-24.8,3.8-36.3-1.3c-6.7-3.1-12.4-7.5-17.5-12.7
		c-20.8-20.8-41.4-41.4-62.2-62.2c-1.4-1.4-3-2.5-4.8-3.5c-3.8-2.1-7.8-3.5-12.3-3.7s-7.8,1.6-10.8,4.7c-1.4,1.4-2.1,3.4-1.6,5.1
		c0.4,1.7,0.9,3.3,1.6,4.9c2.1,4.7,5.2,8.9,8.9,12.4c7.6,7.4,124.8,119.8,124.8,119.8l60.7-60.8v-0.1v-0.2L580.2,489.5z M652.9,509
		c0.4,0.4,0.5,0.5,0.7,0.7c4.7,4.5,9.4,9.1,14.1,13.5c7.8,7.4,15.6,14.8,23.5,22.3c3.2,3,6.5,5.8,9.9,8.5c3.5,2.9,7.6,5.2,12,6.7
		c4.8,1.8,10.4,1.3,15.3-1.3c4.3-2.2,8.1-5.2,11.9-8.3c4.9-4.2,9.5-9.1,13.8-13.9c2.9-3.3,5.5-6.6,7.8-10.3
		c3.2-5.3,4.8-10.8,3.9-16.6c-0.8-4.5-2.3-8.8-4.6-12.7c-5.5-10-12.7-18.5-21.1-26.1c-6.9-6.2-15.3-8.4-25.1-6.6
		c-6.9,1.3-13.3,4.1-19.4,7.6c-6.3,3.6-12.3,7.8-18,12.6c-4.9,4.1-9.5,8.3-14,12.9l-9.3,9.5L652.9,509z M582.3,440l32.4-33.7
		c4.3-4.5,8.8-8.9,12.5-13.9c2.7-3.5,4.9-7.2,6.6-11.2c1.8-4.3,1.8-9,0-12.9c-1.4-3.3-3.3-6.3-5.7-8.9c-4.2-4.8-8.7-9.4-13.2-14.1
		c-2.6-2.6-5.5-4.9-8.7-6.8c-7.4-4.5-15.7-5.7-24.7-3.5c-5.3,1.3-10.3,3.8-15.1,6.7c-8.3,5.1-15.5,11.5-22.2,18.6
		c-6.7,7.1-8.8,14-7.2,22.4l0.4,2.1c1.3,4.9,3.2,9.4,5.9,13.6C548.9,407.7,581.9,439.5,582.3,440L582.3,440L582.3,440z M522.8,638.8
		c0,0,48.1,47.7,50.6,50.1c2.2,2.1,4.7,4,7.6,5.2c1.6,0.8,3.6,0.6,5.2-0.5c2.8-1.8,5.3-4,7.4-6.6c1.1-1.3,1.6-2.8,1.4-4.2
		c-0.2-1.8-0.6-3.5-1.1-5.2c-2.1-5.5-5.7-10-9.8-14c-8-7.8-44-41.9-44-41.9L522.8,638.8z"/>
	<circle id="START" cx="559" cy="689.8" r="2.7"/>
	<g id="CHECK">
		
			<rect id="_x31_" x="516.2" y="688.6" transform="matrix(0.7071 -0.7071 0.7071 0.7071 -328.2126 587.2141)" class="st0" width="57.1" height="2.3"/>
		
			<rect id="_x32_" x="641.2" y="548" transform="matrix(0.7071 -0.7071 0.7071 0.7071 -193.7847 635.2675)" class="st0" width="57.4" height="7.1"/>
		
			<rect id="_x33_" x="459.6" y="457.8" transform="matrix(0.7071 -0.7071 0.7071 0.7071 -182.6757 480.2254)" class="st0" width="57.4" height="5.7"/>
	</g>
</g>
<path id="drive" d="M549.1,700.4C470,623.8,406.5,548.3,327.5,471.6c-3.1-2.3-6.2-5.7-9.4-8c-3.4-1.3-11.7-4.9-15.1-6.2
	c-3.6-0.4-10.4-0.9-14-1.3c-3.5,0.6-7.6,3.8-11.2,4.5c-3.4,1.4-8.1,9-11.5,10.4c-3,2.1-9.4,9.5-11.9,12.4c-2,3.5-5.3,7.9-7.3,11.5
	c-1.1,4.4-2.8,9.4-3.9,13.8c0.4,3.7,2,10.5,2.3,14.3c1.5,3.3,4.2,5.9,5.7,9.2c2.4,2.8,7.4,4.8,9.8,7.6
	c58.2,43.4,95.1,91.1,153.3,134.4c3,1.7,11.2,0.3,14.2,2c2.9,0.7,12.1-2.7,14.9-2.1c2.8-0.1,4.8-2.4,7.5-2.5
	c2.7-0.9,5.6-3.4,8.3-4.2c2.7-1.4,5-3.6,7.7-5.1c14.4-12.2,25.8-23.2,40.2-35.4c47.1-47.4,94-95,141.1-142.4
	c9.6-8.4,19.2-16.7,28.8-25c5.3-3.5,10.6-6.9,15.9-10.3c5.5-2.4,11.2-4.8,16.7-7.1c5.7-0.9,11.5-1.8,17.3-2.8c5.9,1,11.8,2,17.7,2.9
	c6,3.3,12,6.6,18,9.9c4,4.7,8.1,9.3,12,13.9c2.1,5.7,4,11.5,6,17.3c0.2,6.4,0.4,12.8,0.5,19.2c-1.4,6.6-2.8,13.1-4.2,19.7
	c-2.8,6.2-5.6,12.4-8.3,18.6c-3.9,5.3-7.9,10.7-11.8,16.1c-4.8,4-9.7,8.1-14.5,12c-5.5,2.2-11.1,4.4-16.6,6.6
	c-6.7,0-13.4,0-20.2,0.1c-6.6-2.1-13.2-4.3-19.8-6.5c-6.4-3.9-12.8-7.7-19.2-11.5c-6.1-5.1-12.2-10.1-18.4-15.1
	c-37.1-38.6-74.2-77.3-111.4-115.9c-3.4-4.6-6.9-9.3-10.3-14c-2.4-4.9-4.8-9.9-7.3-14.8c-1-5.2-2.1-10.5-3.1-15.8
	c0.7-5.7,1.4-11.3,2.1-17c0.9-2.8,1.9-5.4,2.8-8.1c1.3-2.5,2.5-5,3.7-7.6c1.5-2.3,3-4.6,4.5-6.9c1.8-2.1,3.5-4.2,5.3-6.3
	c2-1.8,4-3.7,6-5.5c2.3-1.6,4.5-3.2,6.7-4.8c2.5-1.3,4.9-2.7,7.4-4c2.7-1.1,5.4-2.1,8.1-3.2c3.3-0.8,6.5-1.7,9.8-2.5
	c3.7-0.6,7.4-1.2,11.2-1.8c4-0.3,8.1-0.5,12.1-0.8c4.1,0.1,8.3,0.3,12.4,0.4c4,0.6,8,1.3,12.1,1.8c3.7,1.2,7.4,2.3,11.2,3.5
	c3.2,1.8,6.4,3.6,9.6,5.4c2.5,2.5,4.9,5,7.4,7.4c2.2,5.4,4.4,10.7,6.6,16.1c-0.3,5.9-0.6,11.8-0.8,17.7c-2.2,6.2-4.5,12.4-6.6,18.6
	c-3.5,6.2-7.1,12.4-10.7,18.6c-4.5,6-8.9,11.9-13.3,17.9c-20.6,21.1-41.1,42.1-61.7,63.3c-2.3,1.5-4.7,3-7,4.5
	c-2.4,0.8-4.9,1.6-7.3,2.3c-2.6-0.1-5.2-0.1-7.9-0.2c-2.9-1-5.9-2.1-8.8-3.2c-3.4-2.1-6.7-4.3-10.1-6.4
	c-20-18.4-39.9-36.8-59.9-55.2c-3.6-2.5-7.2-5.2-10.8-7.7c-3.8-2.1-7.6-4.2-11.4-6.3c-2.8-0.8-5.6-1.7-8.5-2.5
	c-2.9-0.1-5.9-0.1-8.8-0.1c-2.9,0.7-5.8,1.3-8.7,2.1c-2.7,1.3-5.4,2.6-8.1,3.9c-2.3,1.8-4.7,3.7-7,5.6c-1.8,2.3-3.6,4.7-5.4,7
	c-1.1,2.8-2.3,5.5-3.4,8.2c-0.4,3-0.6,6.1-0.9,9.2c0.6,2.9,1.1,5.9,1.8,8.8c1.3,2.8,2.6,5.5,3.9,8.3c1.8,2.5,3.7,5.2,5.7,7.7
	c2.3,2.4,4.5,4.9,6.8,7.3c64.1,58.5,128.3,117.1,192.3,175.6c1.3,1.6,2.6,3.3,3.9,4.9c1.1,1.7,2.1,3.4,3.2,5.2
	c0.7,1.8,1.6,3.5,2.3,5.4c0.4,1.9,0.8,3.8,1.3,5.7c0.1,2.1,0.1,4.2,0.2,6.2c-0.4,2.3-0.7,4.5-1.1,6.7c-0.8,2.5-1.6,4.9-2.4,7.4
	c-1.6,2.7-3,5.3-4.6,7.9c-1.9,1.7-3.9,3.4-5.8,5.1c-2.3,0.9-4.5,1.8-6.8,2.7c-2.5,0.2-5,0.4-7.5,0.6c-2.7-0.4-5.3-0.7-7.9-1
	c-2.7-0.8-5.4-1.5-8.1-2.3c-2.7-1.1-5.3-2.1-8-3.2C554.2,702.8,551.6,701.6,549.1,700.4L549.1,700.4L549.1,700.4z"/>
<g id="layout">
	<polygon points="537.3,698.8 536.5,698 535.8,697.1 537.5,695.4 539.2,693.7 539.9,694.5 540.8,695.3 539.1,697 	"/>
	<polygon points="542.4,693.6 541.6,692.9 540.9,692 542.6,690.2 544.3,688.6 545.1,689.4 545.9,690.2 544.2,691.9 	"/>
	<polygon points="548.3,687.8 547.5,687 546.7,686.2 548.4,684.5 550.2,682.7 550.9,683.5 551.7,684.4 550,686.1 	"/>
	<polygon points="553.4,682.7 552.7,681.8 551.8,681.1 553.5,679.4 555.3,677.6 556.1,678.4 556.8,679.3 555.1,681 	"/>
	<path d="M769.4,566.4c-2.5,2.5-5.2,5.1-7.8,7.4c-8.6,7.5-16.1,12.6-23.9,15.9c-14.1,6.1-27.6,6.4-41.4,0.8
		c-5.7-2.4-11.2-5.6-16.3-9.5c-4.2-3.2-35.4-32.5-51.2-47.5l-1.5-1.4l-63.8,63.8l1.6,1.5c0,0,28.1,26.6,41.6,39.5
		c5.4,4.9,10,10.7,13.9,17c4.1,6.7,6.4,13.3,7.3,20c1.5,12.7-2,23.7-10.9,33.9c-1.1,1.3-2.3,2.7-3.6,3.9c-4,4-8.6,7.5-13.5,10.3
		c-12.5,7-24.5,7.5-36.8,1.5c-5.1-2.5-9.6-5.7-13.5-9.5c-1.9-1.8-3.8-3.7-5.6-5.5c-1.4-1.4-3-3-4.5-4.5
		c-9.2-9.1-40.8-40.2-41.1-40.4l-1.4-1.4l-1.5,1.4c-0.1,0.1-7.4,7.2-10.5,9.9c-6.9,6.2-15,11.1-23.6,14.1
		c-10.9,3.8-22.1,4.8-34.2,3.1c-10.2-1.5-19.2-4.4-30-9.7c-9.9-4.8-19.1-10.6-27.2-17.3c-4.5-3.7-121.9-115.2-126.8-120.5
		c-5.5-5.9-9.1-11.5-11.4-18.1c-4-11.2-3.3-22.6,2.3-34.7c2.8-5.9,6.6-11.8,11.7-17.9c3.3-4,6.9-7.7,10.7-11
		c15.5-13.6,32.7-18.5,51-14.4c7.6,1.7,15,4.9,22.7,10c5.4,3.7,122.7,117,167.6,160.4l1.5,1.4L519,599L391.5,476.6h-0.1
		c-1.2-1.4-11.7-14-14.8-21.8c-2.2-5.2-3.5-10.7-3.5-16.5c-0.2-9.4,3.3-18.8,9.7-26.6c1.3-1.5,2.5-3,3.9-4.4
		c5.8-5.7,12.5-10,20.1-12.6c7.5-2.5,15.4-3.1,23.5-1.7c9.2,1.6,17.6,5.2,25.9,11l0.1,0.1c2,1.8,25.3,25.2,42.4,42.1
		c10.6,10.6,21.6,21.6,24.4,24.3c2.5,2.5,5.3,4.7,8.4,6.3v0.1c6.8,3.5,13.6,2.4,19.6-3.3c2-1.8,6.2-6.4,6.2-6.4l1.3-1.5l-1.5-1.4
		c-0.2-0.2-22.5-20.9-26.5-25.2c-8.3-8.8-14.7-17.6-19.4-26.7c-4.2-8.1-6.9-16.3-7.8-24.6c-1.8-15,2.2-29.3,11.7-42.4
		c2.1-2.9,4.7-5.8,8.1-9.2c1.4-1.4,2.8-2.8,4.1-3.9c10-9.6,19.9-16.8,30.1-22.2c10.7-5.6,21.2-8.7,31.6-9.3c12.5-0.8,24,2,35.2,8.6
		c5.4,3.3,10.5,7.1,14.8,11.6c5.9,5.9,10.2,10.5,14.1,15c4.7,5.4,8.6,11.7,11.2,18.6c4.5,12,3.9,24.8-1.9,38.1
		c-2.9,6.6-7.1,13.2-12.7,20.2c-4,5-45.3,48.2-45.7,48.5l-1.4,1.5l25.5,25.5l1.5-1.1c0.4-0.4,0.9-0.7,1.1-0.8l0.2-0.1l0.4-0.4
		c3-3.1,5.9-6.1,9-9.1l1.8-1.8c3.5-3.5,7.1-7.1,10.9-10.4c3.5-3.2,7.4-6.4,11.5-9.4c13.7-10.5,26.8-17.4,39.7-21.4
		c11.7-3.5,22.6-4.2,33.1-2.2c8,1.6,15.3,4.9,21.8,9.5c6.4,4.5,11.5,10,16.1,15.3c2.9,3.5,5.9,7.1,8.8,11
		c6.5,8.9,10.8,17.6,13.4,26.6c4.3,16,1.7,32-7.8,47.6c-3.7,6-8.1,11.7-12.9,16.8C774.1,561.6,771.7,564,769.4,566.4z M561.2,596
		l66-66l2.5,2.4c15.8,15.1,46.9,44.2,51,47.4c5,3.8,10.4,6.9,16,9.3c13.4,5.4,26.6,5.2,40.2-0.8c7.6-3.3,15.1-8.3,23.5-15.6
		c2.6-2.3,5.3-4.8,7.8-7.4c2.3-2.3,4.7-4.8,6.9-7.3c4.8-5.2,9.1-10.7,12.7-16.6c9.3-15.2,11.9-30.8,7.7-46.4
		c-2.5-8.8-6.7-17.3-13.2-26.1c-2.8-3.7-5.8-7.4-8.7-10.9c-4.5-5.3-9.5-10.7-15.8-15.1c-6.4-4.5-13.5-7.6-21.2-9.2
		c-10.3-2.1-20.9-1.4-32.5,2.1c-12.8,3.8-25.7,10.7-39.2,21.1c-4.1,3-7.9,6.2-11.4,9.4c-3.7,3.3-7.3,6.9-10.9,10.3l-1.8,1.8
		c-3,3-5.9,5.9-8.9,9.1l-0.4,0.4l-0.3,0.2c-0.1,0.1-0.6,0.4-0.9,0.8l-2.5,2l-27.5-27.5l2.4-2.5c0.4-0.4,41.6-43.5,45.6-48.4
		c5.6-6.8,9.7-13.4,12.5-19.8c5.6-12.9,6.2-25.4,1.8-37c-2.6-6.8-6.3-12.9-11-18.2c-3.9-4.5-8.1-9-14-14.9
		c-4.3-4.4-9.2-8.2-14.5-11.4c-11-6.3-22.2-9.1-34.4-8.3c-10.1,0.6-20.5,3.7-31,9.1c-10.1,5.3-19.8,12.5-29.8,22
		c-1.2,1.1-2.7,2.5-4,3.9c-3.3,3.3-5.9,6.2-7.8,9c-9.3,12.8-13.2,26.6-11.5,41.3c1,8.1,3.5,16.1,7.6,24c4.7,8.9,11,17.5,19.2,26.2
		c4,4.2,26.2,24.9,26.4,25.1l2.6,2.4l-2.4,2.6c-0.1,0-3,3.3-5.1,5.4c-0.4,0.4-0.9,0.9-1.3,1.2c-6.5,6.1-13.9,7.3-21.3,3.5l-0.1-0.1
		c-3.3-1.8-6.2-4-8.7-6.6c-2.8-2.8-13.8-13.7-24.4-24.3c-17-16.9-40-39.9-42.3-42.1c-8.1-5.7-16.3-9.2-25.2-10.7
		c-7.8-1.4-15.6-0.8-22.8,1.6c-7.4,2.5-13.9,6.6-19.5,12.2c-1.3,1.3-2.6,2.8-3.8,4.2c-6.2,7.4-9.5,16.5-9.3,25.6
		c0.1,5.6,1.3,11,3.5,16c3.1,7.5,13.3,19.8,14.6,21.4L520.9,599L499,621l-2.5-2.5C451.7,575.2,334.4,462,329.1,458.3
		c-7.5-4.9-14.8-8.2-22.2-9.8c-17.9-3.9-34.6,0.8-49.7,14.1c-3.7,3.3-7.2,6.9-10.5,10.8c-5.1,6-8.8,11.7-11.5,17.5
		c-5.4,11.8-6.2,22.8-2.3,33.6c2.3,6.4,5.7,11.8,11,17.6c4.9,5.2,122.2,116.6,126.8,120.3c8.1,6.6,17.1,12.4,26.9,17.2
		c10.7,5.2,19.5,8.1,29.6,9.5c11.9,1.8,22.8,0.8,33.5-3c8.4-2.9,16.4-7.7,23.1-13.8c3-2.7,10.3-9.8,10.5-9.9l2.5-2.5l2.5,2.5
		c0.3,0.3,31.9,31.4,41.1,40.4c1.5,1.5,3,3,4.5,4.5c1.8,1.8,3.7,3.7,5.5,5.5c3.7,3.7,8.2,6.9,13.1,9.3c11.7,5.8,23.3,5.3,35.4-1.4
		c6.3-3.6,12-8.3,16.8-13.9c8.6-9.9,12-20.6,10.5-32.8c-0.8-6.5-3.1-12.9-7.1-19.4c-3.7-6.2-8.4-11.8-13.7-16.7
		c-13.6-12.9-41.6-39.5-41.6-39.5L561.2,596z M749.1,547.9c-2.2,2.3-4.3,4.2-6.4,6c-3.3,2.8-7.5,6.2-12.5,8.7
		c-5.8,3-12.3,3.5-18,1.6c-4.8-1.6-9.2-4-13.1-7.3c-3.7-3-7-5.8-10.1-8.7c-5.3-4.9-10.6-10-15.8-14.8c-2.6-2.5-5.2-4.9-7.8-7.4
		l-14.1-13.5l-3.3-3.3l3.9-4.1l9.3-9.5c4.7-4.8,9.4-9.1,14.3-13.2c5.7-4.8,11.9-9.1,18.5-12.9c7.6-4.3,14.1-6.8,20.6-8
		c11-2.1,20.5,0.4,28.2,7.5c9.1,8.1,16.3,17.3,21.8,26.9c2.5,4.2,4.2,8.9,5,13.9v0.1c0.9,6.3-0.5,12.5-4.5,19.1
		c-2.3,3.8-5.1,7.4-8.1,10.8C753.8,543,751.5,545.6,749.1,547.9z M650,509l2.2,2.2l14.1,13.5c2.6,2.5,5.2,4.9,7.8,7.4
		c5.2,4.9,10.5,9.9,15.8,14.8c3.1,2.9,6.4,5.7,10,8.6c3.8,3.1,8.1,5.4,12.7,7l0,0c5.3,1.9,11.5,1.4,16.9-1.4
		c4.9-2.5,9.1-5.9,12.2-8.5c2.1-1.8,4.1-3.7,6.3-5.9c2.3-2.3,4.7-4.8,7.7-8.2c3-3.3,5.7-6.9,8-10.6c3.7-6.2,5.2-12.2,4.2-18v-0.1
		c-0.8-4.8-2.5-9.3-4.8-13.4c-5.4-9.5-12.6-18.5-21.5-26.6c-7.3-6.6-16.4-9.1-26.9-7.1c-6.3,1.1-12.7,3.6-20.2,7.8
		c-6.5,3.7-12.7,8.1-18.3,12.8c-4.5,3.7-8.7,7.6-13,11.9c-0.4,0.4-0.7,0.7-1.1,1.1l-9.3,9.5L650,509z M593.8,692.2
		c-1.7,1.7-3.6,3.3-5.6,4.5c-2.7,1.8-6,2.1-8.7,0.7c-3.2-1.4-6-3.4-8.5-5.9c-2.1-2.1-35.7-35.4-50.1-49.5l-3.2-3.2l22.2-22.2
		l2.5,2.4c0.4,0.4,36.1,34.2,44,41.9c5,4.9,8.6,9.9,10.6,15.3v0.2c0.6,1.9,1.1,3.9,1.3,5.9v0.1c0.3,2.4-0.6,4.9-2.1,6.9
		C595.6,690.2,594.7,691.2,593.8,692.2z M519.9,638.8l2.2,2.1c14.4,14.1,47.8,47.4,50.1,49.5c2.3,2.3,5,4.2,8.1,5.6
		c2.3,1.1,5.1,0.9,7.3-0.6h0.1c2.9-1.8,5.6-4.2,7.8-7.1c1.3-1.7,2-3.8,1.8-5.8v-0.1c-0.2-1.9-0.7-3.7-1.3-5.6l-0.1-0.1
		c-2-5.2-5.3-10-10.3-14.8c-7.9-7.6-43.7-41.6-44-41.9l-1.5-1.4L519.9,638.8z M471.1,648.9c-2.2,2.2-4.8,4.7-7.8,6.8
		c-6.4,4.5-13.1,6.4-21.4,6.3c-6.9-0.1-13.9-1.6-22.1-4.7c-8.1-3.3-15.6-7.4-22.5-12.1c-4.8-3.3-122.5-113.8-131.1-123.2
		c-2.2-2.3-4-4.9-5.5-7.6c-2.5-4.3-2.5-9.8-0.1-14.5c1.7-3.6,4-7,6.6-10.1c1.7-2.1,3.3-3.7,4.9-5.3c2.2-2.2,4.4-4,6.6-5.5
		c5-3.5,11.2-4.9,17-3.8c4.9,0.8,9.6,2.7,15.1,6.1c4.9,3.1,163.1,156.3,164.7,157.8l2.6,2.5l-2.5,2.5c-0.8,0.7-1.5,1.5-2.2,2.3
		l-0.1,0.1C472.6,647.3,471.9,648.1,471.1,648.9z M273.3,485.5c-1.6,1.6-3.1,3.3-4.8,5.2c-2.6,3-4.8,6.3-6.4,9.8
		c-2.2,4.3-2.2,9.2,0.1,13.1l0,0c1.4,2.6,3.2,5.1,5.2,7.4c8.7,9.3,126.1,119.6,130.9,123c6.8,4.7,14.2,8.7,22.2,11.9
		c8,3.1,14.8,4.5,21.5,4.6c7.9,0.1,14.3-1.8,20.5-6c3-2.1,5.6-4.5,7.6-6.6c0.8-0.8,1.6-1.6,2.3-2.3l0.1-0.1c0.8-0.8,1.5-1.6,2.3-2.3
		l1.5-1.5l-1.5-1.4c-1.6-1.6-159.8-154.7-164.5-157.7c-5.3-3.3-9.8-5.2-14.6-5.9c-5.4-1-11.2,0.4-16,3.6
		C277.6,481.6,275.4,483.4,273.3,485.5z M542.3,577.7l-2.9-2.8C527.4,563.4,422,462.4,414.9,455.4c-4.1-3.9-7.4-8.4-9.8-13.4
		l-0.1-0.2c-0.8-2.1-1.3-3.7-1.7-5.4c-0.7-2.9,0.2-6.1,2.5-8.3l0.1-0.1l0.2-0.2c4.2-4.2,8.3-5.9,13.4-5.6c4.5,0.3,8.8,1.6,13.8,4.2
		l0.1,0.1c2.3,1.3,4.1,2.6,5.7,4.2l62.2,62.2c5.6,5.6,10.8,9.4,16.5,11.9c11.1,5,22.1,5.4,33.6,1.3c7.4-2.6,14.4-7.1,20.2-12.8
		c0.1-0.1,0.3-0.4,0.5-0.5l8.3-8.2l26.2,25.6v3.3l-0.2,0.2L542.3,577.7z M406.9,429.1c-1.8,1.8-2.7,4.5-2.1,6.9l0,0
		c0.4,1.6,0.8,3.3,1.6,5.2v0.1c2.3,4.9,5.4,9.3,9.4,13.1c7.1,6.9,112.6,108,124.5,119.5l1.8,1.7l62.6-62.9v-2.1l-24.7-24.1l-7.1,7.1
		c-0.2,0.2-0.4,0.4-0.5,0.5c-5.9,5.9-13.1,10.5-20.6,13.2c-11.9,4.3-23.3,3.9-34.8-1.3c-5.9-2.7-11.2-6.6-16.9-12.3L438,431.5
		c-1.4-1.5-3.1-2.8-5.3-3.9l-0.1-0.1c-4.7-2.5-8.9-3.7-13.2-4c-4.6-0.3-8.4,1.3-12.2,5.2l-0.2,0.2L406.9,429.1z M583,444.3l0.8-3.6
		l-3.5,2.2l-0.8-0.8c-10.1-9.8-34.2-33.7-39.2-41.9c-2.8-4.5-4.9-9.3-6.3-14.6v-0.1l-0.5-2.2c-1.8-9.7,0.7-17.7,8.1-25.6
		c1-1.1,2.1-2.1,3-3c6.7-6.7,13.2-11.9,19.9-16.1c5.7-3.5,11-5.9,16.1-7.1c9.8-2.5,19-1.2,27.4,3.8c3.5,2.1,6.6,4.5,9.4,7.4
		c4.5,4.6,9.1,9.4,13.3,14.1c2.6,2.9,4.7,6.3,6.3,9.9c2.2,4.8,2.2,10.5,0,15.8c-1.8,4.3-4.2,8.3-7.1,12c-3.3,4.4-7.1,8.3-10.8,12.2
		c-0.7,0.7-1.3,1.3-2,2L583,444.3z M580.5,441.1l5.7-3.5l-0.4,1.8l30.5-31.7c0.7-0.7,1.3-1.4,2-2.1c3.6-3.8,7.4-7.7,10.7-12
		c2.8-3.5,5.2-7.4,6.9-11.7c2.1-4.8,2.1-10.1,0-14.5c-1.5-3.5-3.5-6.7-6-9.5c-4.3-4.8-8.8-9.5-13.3-14.1c-2.7-2.8-5.8-5.2-9.1-7.1
		c-8.1-4.8-17-6-26.4-3.7c-4.9,1.3-10,3.5-15.6,7c-6.6,4-13,9.3-19.7,15.9c-1,1-2,2-3,3c-7.1,7.4-9.5,15.1-7.8,24.3l0.4,2.2
		c1.3,5.1,3.4,9.9,6.1,14.2C546.4,407.6,570.3,431.3,580.5,441.1z"/>
</g>
</svg>
