<?xml version="1.0" encoding="utf-8"?>
<!-- Generator: Adobe Illustrator 21.0.2, SVG Export Plug-In . SVG Version: 6.00 Build 0)  -->
<svg version="1.1" id="SCENE_3" xmlns="http://www.w3.org/2000/svg" xmlns:xlink="http://www.w3.org/1999/xlink" x="0px" y="0px"
	 viewBox="0 0 1024 1024" style="enable-background:new 0 0 1024 1024;" xml:space="preserve">
<style type="text/css">
	.st0{fill:#FFFFFF;}
	.st1{fill:#64566D;}
	.st2{display:none;}
	.st3 {fill: rgba(255,255,255,0.8);}
</style>
<rect id="BACKGROUND_grass" y="0" width="1024" height="1024"/>
<g id="OBSTACLES">
	<path id="01_stone3" class="st0" d="M373,865.8c-3.4,0-6.9-0.4-10.2-1.2h-0.1v-0.3c-1.8-4.8-2.7-9.8-2.7-14.9
		c-0.1-4.2-0.1-8.6,0-12.9c0-2.7,0-5.4,0-8.2c-0.1-26.1-0.3-52.3-0.4-78.6l-0.2-32.7h26.8l0.2,12.7c0.2,10.7,0.4,21.5,0.7,32.2
		c0.2,8.1,0.4,16.3,0.7,24.5c0.3,13.8,0.8,28.1,1,42.1c0.2,11.7-1.6,21.5-5.2,29.9c-1.2,2.4-2.7,4.7-4.3,6.8h-0.6
		c-1.8,0.2-3.6,0.3-5.3,0.3L373,865.8z"/>
	<path id="02_stone3" class="st0" d="M478.3,568.2c-0.2-8.5-0.4-17.1-0.6-25.7c-0.4-17.9-0.9-35.9-1.2-54
		c-0.2-9.3-0.4-18.6-0.6-27.9c-0.1-9.3-0.3-17.8-0.4-25.5c-0.2-12.1-0.4-24.1-0.8-36.2c-0.3-13.8-0.6-27.6-0.9-41.5
		c-0.6-25.9-0.9-45.7-1.1-64.1c-0.3-9.1,1.1-18.1,4.2-26.8c1.1-2.5,2.3-4.9,3.9-7.2h0.9c5.7,0,9.3,1.4,12.3,4.8s7.4,10.8,10.1,19.4
		c0.9,3,1.3,6,1.3,9.1c-0.1,60.3,0,120.2,0,176.5c0,17.5,2.4,32.6,7.4,46.1c10,26.8,28.4,46.7,54.9,59.2c16.9,8,35.6,12.1,54.6,12.1
		h6.7l0.8,44.1H479.8C479.4,617,478.3,568.2,478.3,568.2z"/>
	<path id="03_stone3" class="st0" d="M260.6,630.5c-5.9,0.1-11.7-0.3-17.4-1.3c-11.2-2.2-20.8-7.4-29.3-16.2
		s-14.9-18.8-21-32.6c-6.2-14.7-10.8-29.9-13.4-45.4c-2-11.3-3.2-22.7-3.4-34.1c-0.3-14-0.9-28.2-1.3-42c-0.2-6.7-0.4-13.5-0.7-20.3
		v-0.7c-0.7-21.5-1.4-43.7-2.1-65.7c-0.8-24.4-1.4-46.8-2-68.6c-0.2-7.4-0.4-14.8-0.6-22.2c-0.2-12-0.6-24.3-1-36.5
		c-0.7-19-0.6-39.4,0.3-66.1c0.1-4.9,0.9-9.8,2.3-14.5c1.4-4.6,4.1-7.4,9.2-9.2c5.9-2.1,12.1-3.3,18.4-3.7c4.3-0.3,8.9-0.6,13.2-0.6
		c4.4,0,8.8,0.4,13.1,1.2c7.7,1.5,14.2,5.6,18.3,11.6c4.4,6.2,7.7,13.8,10,23.9c2.1,9.4,3,19,2.8,28.6c-0.1,8.4,0,17.6,0.1,29
		c0.3,17.2,0.6,34.4,0.9,51.6l1,53.4c0.4,25.9,0.9,51.7,1.3,77.6c0.2,11.9,0.4,23.7,0.6,35.6c0.1,9,0.2,18,0.3,27
		c0.6,33.2,1,66.5,1.6,99.8l0.7,40.3L260.6,630.5z"/>
	<path id="04_stone3" class="st0" d="M796.8,880.9c-5.7,0-10.9-0.2-15.8-0.6c-7.8-0.6-16.9-1.6-25.5-4.5
		c-7.8-2.4-14-7.6-17.1-14.4c-3.7-7.4-5.9-15.3-6.7-23.4c-1-8.8-1.7-17.3-1.9-25.4c-0.6-16.4-1-33-1.3-49.1
		c-0.1-5.1-0.2-10.3-0.3-15.5c-0.2-9.3-0.4-18.5-0.7-27.7v-3.4h4.2l15.5-0.2h4.4c10.9,0,21.7,0.6,32.4,1.6
		c13.9,1.2,27.6,3.6,41.1,7.3c14.4,4,25.4,8.8,34.8,15.2c13.9,9.6,21.1,21.8,21.8,37.3c1.1,23-1.1,43.8-6.8,63.8
		c-2,7.5-5.3,14.7-10,21.2c-5,6.8-12.2,11.2-22.8,13.9c-7.6,1.8-15.3,2.9-23.2,3.3c-6,0.3-14,0.7-21.9,0.7H796.8z"/>
	<path id="05_stone3" class="st0" d="M723.7,496.7c-0.1-7.7-0.2-15.7-0.4-23.6c-0.1-3.2-0.3-6.2-0.6-9.2
		c-0.2-3-0.3-3.5-0.4-5.3c-1.3-22.4,0.2-42.3,4.9-61c2.6-10,5.7-17.9,9.9-24.9l2-3.2c7.6-11.1,17.9-16.4,32.6-16.7h7.7
		c18.1,0,33.1,1.5,47,4.9c11.3,2.7,20.1,6,27.5,10.5c13.3,7.9,21.7,19,25.5,33.9c1.7,6.4,2.4,12.9,2.3,19.5
		c-0.1,12.7-0.6,25.6-1.2,38.1c-0.3,6.1-1.7,12.1-4,17.8c-2,5.6-6.6,10.1-12.5,12.4c-6.1,2.6-13.1,4.3-22.1,5.5
		c-9,1.2-21.2,1.6-32.4,1.8h-3.6l-82.1,1.7L723.7,496.7z"/>
	<path id="06_stone3" class="st0" d="M0,0v1024h369.8v-72.1c-12-0.2-24.1-1.9-35.5-5.1c-32.4-9.2-54.1-29.2-64.3-59.3
		c-4-11.9-6.1-24.3-6.2-36.7c-0.1-5.9,0-11.7,0-17.4c0.1-3.7,0.1-7.5,0.1-11.2c-0.1-29-0.2-54.6-0.3-78.4c0-8.1-0.1-16.3-0.2-24.3
		v-3h-1.2c-5.6,0-11.5-0.1-17.4-0.4c-20.9-1-41.1-6.1-59.5-15c-23-11-42-26.9-58.2-48.5c-12.7-17.1-22.8-36.6-30.8-59.8
		c-7.4-21.6-12.3-43.7-14.5-66.1c-1-10.9-1.6-21.8-1.9-32.1c-0.8-23.5-1.6-47.2-2.4-70.2L77.1,414c-0.2-6.8-0.4-13.6-0.6-20.5
		c-0.1-5.3-0.3-10.7-0.4-16.1c-0.3-9.8-0.6-19.6-0.9-29.3c-0.6-16.7-1.2-33.3-1.6-50c-0.4-11.6-0.6-23.3-0.8-34.7l-0.2-11.2
		c-0.1-2.7-0.1-5.3-0.2-7.9c-0.2-7-0.3-14.2-0.3-21.4c0-15.6,0.1-31.6,0.8-47.7c0.7-17.6,4.2-33,10.8-46.9
		c11.8-24.9,32.3-42.9,60.9-53.4c13.6-5,28.7-8.1,46-9.6c7.5-0.6,14.2-0.9,20.8-0.9c4.2,0,8.3,0.1,12.3,0.4
		c46.4,3,81.6,22.7,104.6,58.5c9.5,14.5,15.9,31.2,19.9,50.9c2.8,13.9,4,28,3.8,42.1c0,10.6,0.1,21.3,0.3,31.7
		c0.1,3.5,0.1,6.9,0.2,10.4c0.6,36.7,1.2,73.4,1.8,110c0.3,18.4,0.6,36.6,0.9,54.9c0.3,21.4,0.8,42.8,1.1,64.1
		c0.6,35.4,1.1,70.9,1.7,106.3l0.3,22.3c0,3.7,0,7.3,0.1,11v3.1h25.5l-0.3-14.5c-0.3-13.3-0.6-26.5-0.9-39.7
		c-0.6-30.7-1.2-61.6-1.9-92.3l-0.3-17.1c-0.3-14.7-0.6-29.5-0.9-44.2l-1-48.1c-0.3-15.9-0.7-31.9-1-47.9c-0.1-3.2-0.1-6.4-0.2-9.6
		c-0.2-8.3-0.3-16.8-0.3-25.3c0.1-20.9,3.6-39.4,10.8-56.8c4.8-12,11.9-23.1,21.2-32.7c15.5-16.2,37.4-26.4,60.9-28.5
		c4.4-0.5,9-0.7,13.4-0.7c18.6,0,36.9,4.2,53.1,12.3c16.5,8.2,29.4,18.8,41.3,35.7c11.9,17,19.6,36.5,23.3,58.2
		c0.3,2.3,0.4,4.5,0.4,6.8v0.3c0,22,0,43.9,0,65.8c0,19.3,0,61.3,0,61.3c0,18.6,0,37.8,0.1,56.7c0.1,7.1,0.8,12.3,2.2,17
		c2.8,8.8,8.3,12.7,18.3,13.1h6.1c0-2.3-0.1-4.7-0.1-7c-0.1-7.1-0.3-13.8-0.7-20.6c-1.1-14.6-1.4-25.9-1.1-36.6
		c0.8-25.5,4.6-49.1,10.9-68.7s14.9-36,26.2-50.3c21.3-26.8,50.4-43.2,86.4-48.7c9-1.3,18-1.9,27.1-1.8l11.4,0.2
		c29.4,0.7,55.2,4.6,78.7,12c25.3,8,46.2,19.3,63.6,34.7c20.8,18.5,35,41.6,42.2,68.7c3.4,13.4,5.2,27.1,5,40.9
		c-0.1,16.8-0.5,29.7-1.3,41.9c-1,16.1-4.8,31.9-11.5,46.8c-12.4,27.2-34.2,46.9-65,58.8c-14.9,5.8-31.6,9.6-50.9,11.6
		c-13.9,1.5-27.9,1.7-40.2,2l-36.8,0.8l-30.2,0.7l-16.8,0.2l0.8,44.8h22c9.9,0,20.5,0.1,30.2,0.6s19.9,1.5,31,3
		c36.1,4.8,66,13.9,91.8,27.7c23.7,12.6,42.3,29,55.3,48.6c10,15.2,16.6,32,19.5,49.4c3,17.1,2.2,33.6,1.1,47.6
		c-0.9,11.3-1.9,20.5-3.2,28.9c-3.6,23.6-10.3,43.5-20.3,61.1c-18.6,32.5-48.2,53.8-88.1,63.3c-14.8,3.4-30,5.4-45.2,6
		c-8.6,0.4-15.5,0.6-23,0.6s-14.2-0.2-20.8-0.6c-24.3-1.6-43.8-5.5-61.2-12.4c-32-12.7-54.8-34.7-67.8-65.3
		c-5-11.7-8.6-25.6-10.7-39.9s-2.5-28.9-2.8-41.7c-0.6-20.6-1.2-41.4-1.6-61.5c-0.3-9.5-0.5-19.1-0.7-28.7l-149.9,0
		c0.3,8.1,0.5,16.1,0.6,24.2c0.6,26.5,1.1,54,1.9,80.9c0.6,15.9-0.9,31.8-4.7,47.3c-4.3,17.2-11,31.5-20.5,43.7
		c-18.2,23.2-43.3,36.2-74.6,38.4c-2.2,0.2-12.6,0.3-14.8,0.3v72.2l654.6,0V0H0z"/>

</g>
<g id="ROAD">
	<path id="TRACK_cobblestone" class="st1" d="M346.8,640.7l47.7-0.1l-7.2-348.8c0,0,3-36.1,10.1-53.3c4.3-10.8,10.8-20.9,19.1-29.6
		c13.7-14.3,33-23.3,53.9-25.2c21.1-2.1,41.3,1.2,60.1,10.4c15.7,7.7,27.9,18.8,37.3,32.3c11.7,16.6,18.5,34.8,21.8,54.3
		c0.2,1.9,0.3,169,0.4,189c-0.1,6.6,0.8,13.2,2.7,19.6c4.1,12.7,13.5,19.7,28.4,20.2c5.3,0.2,17.7-0.3,17.7-0.3s-2.2-61.5-1.9-73.4
		c0.7-22.4,3.6-44.5,10.4-66.2c5.3-16.9,13.1-32.9,24.4-47.2c19.5-24.6,45.9-39.5,79.1-44.7c12-1.9,24.1-1.8,36.3-1.5
		c25.7,0.6,50.9,3.8,75.2,11.4c22.2,7,42.4,17.4,59.3,32.4c20,17.7,32.5,39.2,39.1,63.9c3.2,12.6,4.8,25.5,4.7,38.5
		c-0.1,13.8-0.4,27.6-1.3,41.3c-0.9,15-4.6,29.7-10.8,43.6c-11.4,25.1-31.4,42.6-58.9,53.4c-15.2,5.9-31.2,9.1-47.6,10.8
		c-13,1.4-133.6,4-133.6,4V640c0,0,2.4,0.3,2.9,0.4c8.7-0.1,17.3-0.2,26-0.2c11.8,0.1,23.7,0.1,35.4,0.7c10,0.5,20,1.5,30,2.9
		c31,4.2,60.7,11.9,87.8,26.5c21.1,11.3,38.6,26,51.4,45.2c9.3,14.1,15.4,29.6,18.1,45.8c2.7,15.1,2.2,30.2,1,45.4
		c-0.8,9.4-1.7,18.9-3.1,28.2c-3.1,20.1-8.8,39.6-19.2,57.9c-17.3,30.3-44.5,49.5-81.1,58.2c-14,3.2-28.4,5.1-42.9,5.6
		c-14.1,0.7-28.3,0.7-42.4-0.1c-19.8-1.3-39.2-4.3-57.5-11.6c-30.1-11.9-50.3-32.2-62-59.7c-5-12.1-8.3-24.8-10-37.6
		c-2-13.5-5.3-140-5.3-140H470.1c0,0,2,77.3,3,114.8c0.6,15-0.9,30.1-4.4,44.8c-3.6,14.4-9.3,28-18.8,40.2
		c-16.2,20.7-38.3,32.2-66.4,34.2c-15.4,1.3-31-0.2-45.7-4.2c-29.4-8.3-48-26.3-57-52.6c-3.7-11-5.7-22.4-5.8-33.9
		c-0.2-9.5,0.1-18.9,0-28.4c-0.1-26.1-0.9-115.3-0.9-115.3s-20.7-0.3-29-0.8c-19.2-0.9-38-5.7-54.9-13.9
		c-22.5-10.8-40.1-26.4-54.2-45.3s-22.4-36.9-29.4-57.2c-7.2-20.8-12-42.2-14.1-64c-1-10.5-9.5-334.6-9-350.4
		c0.6-15.8,3.4-29.5,9.9-43.3c10.8-22.9,29.3-38.6,54.7-48c13.8-5.1,28.1-7.7,42.9-8.9c10.3-0.9,20.8-1.1,31.2-0.5
		c42.3,2.7,74.5,20.3,95.8,53.6c9.5,14.8,15.1,31,18.5,47.7C339.3,189.5,346.8,640.7,346.8,640.7z M273.6,640.6
		c0-1.3-7.3-444.8-9.5-454.9c-2.2-9.6-5.4-18.9-11.5-27.3c-5.7-8.1-14.7-13.9-25.1-15.9c-9.9-2-19.8-1.5-29.6-0.8
		c-7.4,0.5-14.8,2-21.8,4.5c-7.8,2.6-13.8,8.5-15.8,15.8c-1.7,5.5-2.6,11.1-2.8,16.8c-0.8,22.2,9,346.4,11.1,358.1
		c2.9,16.2,7.7,32,14.2,47.3c5.7,12.9,12.7,25.1,23,35.6c10.3,10.5,21.1,16.6,35.3,19.3c10.7,2.1,21.4,1.4,32.6,1.4H273.6z
		 M640.2,576.6H624c-17.8,0.2-35.3-3.5-51-11c-24.8-11.6-40.6-29.7-49.4-53.3c-5.2-13.9-6.9-28.2-6.9-42.8c0-58.7,0-117.2,0-175.9
		c0.1-4-0.6-7.9-1.7-11.8c-2.6-8.3-6.1-16-12.1-22.8c-6-6.8-13.2-8.7-22-8.6c-4-0.1-7.7,1.8-9.5,4.9c-1.9,2.9-3.4,5.9-4.8,9.1
		c-3.6,9.7-5.2,19.9-4.9,30.1c0.3,21.3,7.1,346,7.1,346l171.7-0.2l0.2-0.2l0.3-0.3L640.2,576.6z M715.5,707.1c0,0.9,0,1.4,0,2
		c0.3,13.1,0.6,26.1,0.9,39.1c0.6,21.6,1,43.1,1.8,64.8c0.3,8.7,1,17.4,2,26.1c0.9,9.1,3.4,18.1,7.6,26.5
		c4.3,9.2,12.9,16.4,23.4,19.7c9.2,3,18.8,4.3,28.4,5.1c13.1,1,26.2,0.6,39.2-0.1c8.7-0.4,17.2-1.6,25.5-3.6c12-3,22.1-8.5,29.1-18
		c5.3-7.5,9.2-15.7,11.5-24.4c6.2-21.9,8.2-44.2,7.1-66.7c-0.9-18.5-9.8-33.5-26.2-44.8c-11.4-7.9-24.5-13-38.2-16.8
		c-14.1-3.8-28.5-6.4-43.2-7.7c-12.7-1.2-25.3-1.7-38.1-1.6l-26.7,0.3L715.5,707.1z M713.3,509.5l93.4-1.8c12.5-0.3,25-0.3,37.4-2
		c8.7-1,17.2-3.2,25.2-6.4c8.7-3.5,15.3-10.1,18.3-18.2c2.7-6.7,4.2-13.6,4.6-20.7c0.7-12.8,1.1-25.6,1.2-38.5
		c0.1-7.4-0.8-14.7-2.7-21.9c-4.3-16.8-14.1-30.3-30.2-39.9c-9.4-5.6-19.9-9.2-30.8-11.8c-18.9-4.5-38.2-5.6-57.7-5.1
		c-19.5,0.5-32.3,7.4-41.9,21.5l-2.3,3.5c-5.1,8.7-8.8,17.9-11,27.5c-5.2,21-3.6,112.6-3.6,114L713.3,509.5L713.3,509.5z M348,706.6
		c0,0,0.6,135.5,0.7,142.6c0,6.1,1.1,12.2,3.3,18c1.1,3.4,4.2,6,8.1,6.7c6.4,1.5,13.2,1.8,19.8,1c3.2-0.3,6.1-1.8,8-4.1
		c2.2-2.8,4.1-5.8,5.7-9c4.8-10.8,6.2-22.2,6-33.7c-0.3-22.2-3-121.4-3-121.4L348,706.6z"/>
	<circle id="START" class="st2" cx="327" cy="830" r="3.8"/>
	<g id="CHECK">
		<rect id="1" x="249.8" y="807.4" class="st0" width="114.1" height="4.6"/>
		<rect id="2" x="622" y="784.2" class="st0" width="114.8" height="14.3"/>
		<rect id="3" x="493.8" y="400.1" class="st0" width="114.8" height="11.4"/>

	</g>
</g>
<path id="drive" class="st2" d="M298,830.9c-3.5-220.2,13.4-416.8,10-637c-1.2-7.6-0.8-16.9-2-24.5c-3-6.6-9.5-23.5-12.5-30
	c-4.6-5.5-13.4-16-18-21.5c-5.9-4.2-16.1-5.3-22-9.5c-6.8-2.8-24.2,1.2-31-1.6c-7.4-1.3-26.7,0.2-34.5,0.6c-7.8,2.3-18.7,3.7-26.5,6
	c-7.8,4.6-17.2,9.3-25,14c-4.9,5.8-12.1,17.6-17,23.4c-2.5,6.7-2.5,14.4-5,21.1c-0.6,7.4,3.6,17.1,3,24.5
	c20.9,143.7,5.7,263.2,26.7,406.9c1.9,6.7,15.4,16.3,17.3,23c3.1,5.1,20.9,13.3,24,18.3c4.1,3.7,10.2,3.3,14.3,7
	c5,2.5,12.6,3.1,17.7,5.7c5.8,1.7,12.2,2,18,3.7c37.6,3.1,69.2,3.7,106.8,6.8c133.7-0.6,267.3-1.2,401-1.9
	c25.4,1.7,50.7,3.5,76.1,5.2c12.4,2.6,24.7,5.2,37.1,7.9c11.2,4.5,22.5,9,33.7,13.4c9.4,6.8,18.9,13.7,28.3,20.5
	c7,9.7,13.9,19.5,20.9,29.2c3.8,13.1,7.7,26.3,11.5,39.4c-0.9,12.2-1.7,24.5-2.6,36.7c-5.3,11-10.7,21.9-16,32.9
	c-8.8,9.3-17.6,18.6-26.5,27.9c-11.3,7.3-22.5,14.5-33.8,21.8c-12.7,4.8-25.4,9.7-38.1,14.5c-13.1,2-26.3,4-39.4,6.1
	c-12.5-1.2-25.1-2.3-37.6-3.5c-10.9-4.7-21.9-9.5-32.8-14.2c-9.6-9.5-19.1-19-28.7-28.5c-6.3-12.4-12.6-24.8-18.8-37.2
	c-3.6-14.5-7.2-29-10.8-43.5c-1.5-15.8-3-31.6-4.6-47.4c2.1-107.1,4.2-214.3,6.4-321.4c1.7-11.4,3.5-22.9,5.2-34.3
	c3.6-10.4,7.2-20.8,10.8-31.3c6-8.9,12-17.9,18-26.8c9-7,18-14.1,27-21.1c5.2-2.5,10.4-5,15.6-7.5c5.3-1.8,10.6-3.7,15.9-5.5
	c5.4-1.2,10.8-2.3,16.1-3.5c5.4-0.5,10.9-1,16.3-1.4c5.4,0.2,10.9,0.4,16.3,0.6c5.4,0.9,10.8,1.8,16.3,2.7
	c5.4,1.6,10.8,3.2,16.1,4.8c5.3,2.3,10.6,4.7,15.9,7c5.8,3.4,11.6,6.8,17.3,10.2c6.1,4.5,12.2,8.9,18.4,13.4
	c6.1,5.3,12.1,10.7,18.2,16c5.6,6,11.3,12.1,16.9,18.1c4.8,6.6,9.6,13.1,14.4,19.7c3.6,6.9,7.2,13.8,10.8,20.7c2,7.1,4,14.1,6,21.2
	c0,7,0,14.1,0,21.1c-4.5,10.7-8.9,21.3-13.4,32c-8.7,7.9-17.5,15.9-26.2,23.8c-11.9,5.6-23.7,11.2-35.6,16.9
	c-13.8,3.7-27.7,7.4-41.5,11.1c-14.7,2.2-29.4,4.3-44.1,6.5c-58.9,0.7-117.8,1.5-176.7,2.2c-5.4-1.2-10.8-2.4-16.2-3.6
	c-4.5-2.3-9.1-4.7-13.6-7c-3.6-3.8-7.2-7.6-10.9-11.4c-2.7-5.6-5.3-11.2-8-16.9c-1.7-7.8-3.4-15.6-5.1-23.4
	c-2.2-54.3-4.4-108.5-6.6-162.8c-1.5-8.7-2.9-17.5-4.4-26.2c-2.4-8.3-4.8-16.7-7.3-25c-2.8-5.2-5.6-10.3-8.4-15.5
	c-4.1-4.2-8.2-8.4-12.3-12.6c-5-3.1-10.1-6.3-15.1-9.4c-5.6-2-11.3-3.9-16.9-5.9c-5.9-0.7-11.9-1.3-17.8-2
	c-5.9,0.7-11.7,1.5-17.6,2.2c-5.5,2.3-11,4.5-16.4,6.8c-4.8,3.9-9.5,7.8-14.3,11.7c-3.3,5-6.7,9.9-10,14.9c-2,5.7-4.1,11.5-6.1,17.2
	c-1,6.3-2,12.6-3,18.9c-0.2,6.6-0.4,13.3-0.6,19.9c7.9,173.4,15.8,346.9,23.7,520.3c-0.5,4.2-1,8.4-1.5,12.6
	c-0.9,3.9-1.9,7.8-2.8,11.7c-1.5,3.6-2.9,7.2-4.4,10.8c-2.1,3.3-4.2,6.6-6.3,9.9c-2.8,3-5.7,6-8.5,9c-3.7,2.7-7.3,5.3-11,8
	c-4.6,2.3-9.2,4.7-13.8,7c-5.9,1.6-11.7,3.2-17.6,4.7c-5.1-0.3-10.3-0.7-15.4-1c-4.5-1.9-8.9-3.9-13.4-5.8
	c-3.8-3.2-7.7-6.5-11.5-9.7c-3.3-4.2-6.5-8.4-9.8-12.6c-2.7-4.9-5.5-9.7-8.2-14.6c-2.3-5.2-4.5-10.4-6.8-15.7
	C301.7,841.4,299.8,836.2,298,830.9L298,830.9L298,830.9z"/>
	<g id="layout">
	<polygon class="st3" points="283.6,812 283.6,809.7 283.7,807.4 288.5,807.4 293.4,807.4 293.4,809.7 293.3,812 288.5,812 	"/>
	<polygon class="st3" points="298.1,812 298.1,809.7 298.2,807.4 303.1,807.4 307.9,807.4 307.8,809.7 307.8,812 303,812 	"/>
	<polygon class="st3" points="314.6,812 314.7,809.7 314.6,807.4 319.6,807.4 324.5,807.4 324.4,809.7 324.4,812 319.4,812 	"/>
	<polygon class="st3" points="329.1,812 329.2,809.7 329.2,807.4 334,807.4 338.9,807.4 338.9,809.7 338.8,812 334,812 	"/>
	<path class="st3" d="M799,952.9c-7.3,0-14.6-0.2-21.7-0.6c-22.7-1.5-40.6-5.1-56.2-11.3c-28.5-11.3-48.1-30.1-59.7-57.5
		c-4.7-11.5-8-23.8-9.7-36.5c-1.6-10.5-4.1-95.9-5.3-139.6l-0.1-4.1H465.8l0.1,4.3c0,0,2,77.3,3,114.8c0.6,14.6-0.9,29.3-4.3,43.7
		c-3.8,15.3-9.7,27.9-18,38.6c-15.7,20-36.4,30.7-63.4,32.6c-3.5,0.3-7.1,0.4-10.6,0.4c-11.4,0-22.7-1.5-33.7-4.5
		c-27.6-7.8-45.3-24.1-54.1-49.9c-3.6-10.7-5.5-21.7-5.6-32.6c-0.1-5.3-0.1-10.6,0-15.7c0-4.1,0.1-8.4,0-12.7
		c-0.1-25.8-0.9-114.5-0.9-115.3l0-4.1l-4.1-0.1c-0.2,0-20.7-0.3-28.8-0.8c-18.5-0.9-36.9-5.5-53.3-13.5c-20.8-10-38-24.4-52.7-44
		c-12.3-16.5-21-33.3-28.8-56.1c-7.2-20.8-11.9-42-13.9-63c-1.1-11.8-9.4-335.5-9-349.9c0.6-16.2,3.5-29,9.5-41.7
		c10.2-21.6,27.3-36.6,52.4-45.9c12.3-4.5,26-7.4,41.8-8.7c10.3-0.9,20.7-1.1,30.6-0.5c41.1,2.6,72.3,20,92.5,51.7
		c8.4,13.1,14.2,28.2,17.9,46.3c2.3,12.9,8.1,339.1,10.2,463.7l0.1,4.1l56.1-0.1l-7.3-352.8l0-0.1c0.3-3.7,3.3-36.2,9.8-51.8
		c4.2-10.4,10.3-20,18.3-28.3c13-13.6,31.2-22.1,51.3-23.9c3.9-0.4,7.9-0.6,11.7-0.6c16.3,0,31.8,3.6,46.2,10.6
		c14.3,7,26.3,17.4,35.7,30.9c10.7,15.2,17.6,32.3,21,52.2l0,0.2c0.1,5.4,0.2,71.4,0.3,119.5c0,30,0.1,61,0.1,68.9
		c-0.1,7.1,0.9,14.1,2.9,20.8l0,0.1c4.7,14.5,15.8,22.5,32.2,23.1c5.3,0.2,17.9-0.3,18-0.3l4.1-0.2l-0.1-4.1
		c0-0.6-2.2-61.5-1.9-73.1c0.8-24.3,4.1-45.6,10.2-65.1c5.5-17.5,13.4-32.9,23.7-45.9c18.7-23.6,44.5-38.2,76.5-43.2
		c7-1.1,14.7-1.6,24.3-1.6c4,0,7.9,0.1,11.3,0.2c27.8,0.6,52,4.3,74.1,11.2c22.9,7.2,42.3,17.8,57.8,31.5
		c18.8,16.6,31.2,36.9,37.8,61.9c3.1,12.3,4.7,24.9,4.6,37.4c-0.1,16.6-0.5,29.3-1.3,41.1c-0.9,14.4-4.4,28.6-10.4,42.2
		c-10.6,23.4-29.7,40.6-56.6,51.2c-13.5,5.2-28.7,8.7-46.5,10.5c-12.7,1.4-132.1,4-133.3,4l-4.1,0.1v72.3l3.7,0.5
		c1,0.1,2.3,0.3,2.6,0.4l0.4,0.1l0.9,0c8.7-0.1,17-0.2,25.5-0.2l5,0c9.9,0.1,20.2,0.1,30.1,0.7c9.5,0.5,19.4,1.4,29.6,2.9
		c34.2,4.6,62.5,13.2,86.4,26c21.6,11.6,38,25.9,49.9,43.8c9,13.6,14.8,28.5,17.5,44.2c2.7,15.2,2.1,30.3,1,44.4
		c-0.8,9-1.7,18.6-3.1,27.9c-3.4,21.8-9.5,40.2-18.7,56.5c-16.5,28.8-42.9,47.7-78.4,56.2c-13.8,3.2-28,5-42.1,5.5
		C812.5,952.8,805.7,952.9,799,952.9z M462.7,700.4h186.5l0.2,7c1.1,43.6,3.7,128.8,5.2,139.2c1.7,12.5,4.9,24.5,9.5,35.8
		c11.3,26.6,30.3,44.9,58,55.8c15.3,6.1,32.9,9.6,55.3,11.1c7,0.4,14.3,0.6,21.5,0.6c6.6,0,13.4-0.2,20.2-0.5
		c14-0.5,27.9-2.3,41.5-5.4c34.7-8.3,60.5-26.7,76.5-54.8c9-15.9,15-34,18.3-55.4c1.4-9.2,2.3-18.7,3-27.7
		c1.1-13.9,1.7-28.7-0.9-43.6c-2.6-15.3-8.3-29.8-17-43c-11.7-17.5-27.6-31.5-48.8-42.9c-23.6-12.7-51.5-21.1-85.4-25.7
		c-10.1-1.4-20-2.4-29.4-2.8c-9.9-0.5-20.1-0.6-30-0.7l-5,0c-8.5,0-16.7,0.1-25.4,0.2l-1.2,0l-0.7-0.1c-0.3,0-1.5-0.2-2.4-0.3
		l-6.3-0.8v-77.8l7-0.2c1.2,0,120.4-2.6,133-4c17.5-1.8,32.5-5.2,45.7-10.3c26.2-10.3,44.7-27,55-49.7c5.9-13.3,9.3-27.1,10.2-41.1
		c0.8-11.7,1.2-24.3,1.3-40.9c0.1-12.3-1.4-24.6-4.5-36.6c-6.5-24.4-18.6-44.2-36.9-60.4c-15.1-13.4-34.2-23.8-56.7-30.9
		c-21.8-6.8-45.7-10.4-73.2-11.1c-3.3-0.1-7.3-0.2-11.2-0.2c-9.4,0-17,0.5-23.8,1.6c-31.2,4.9-56.3,19-74.6,42.1
		c-10,12.7-17.8,27.8-23.2,44.9c-6,19.2-9.3,40.3-10.1,64.2c-0.3,11.6,1.9,72.3,1.9,73l0.3,7.1l-7.1,0.3c-0.1,0-8.7,0.4-14.8,0.4
		c-1.3,0-2.5,0-3.4-0.1c-17.8-0.6-29.9-9.3-35-25.2l0-0.2c-2.1-7.1-3.1-14.4-3-21.7c0-7.9-0.1-38.9-0.1-68.9
		c-0.1-47.8-0.1-113.2-0.3-119.3c-3.3-19.4-10.1-36.1-20.5-50.9c-9.1-13.1-20.8-23.2-34.6-30c-13.9-6.8-29-10.3-44.9-10.3
		c-3.7,0-7.6,0.2-11.4,0.6c-19.3,1.8-36.8,9.9-49.4,23c-7.7,8.1-13.6,17.3-17.7,27.4c-6.2,15.1-9.2,46.8-9.6,50.8l7.3,355.7
		l-62.1,0.1l-0.1-7.1c-2.1-124.5-7.9-450.5-10.2-463.2c-3.6-17.7-9.3-32.5-17.5-45.2c-19.7-30.8-50.1-47.7-90.2-50.3
		c-9.8-0.6-20-0.4-30.2,0.5c-15.6,1.3-29,4-41,8.5c-24.3,9-40.9,23.5-50.7,44.3c-5.8,12.3-8.6,24.8-9.2,40.5
		c-0.5,14.3,7.8,337.7,9,349.5c2,20.8,6.6,41.8,13.7,62.3c7.7,22.5,16.2,39,28.4,55.3c14.4,19.3,31.2,33.4,51.6,43.1
		c16,7.8,34.1,12.3,52.2,13.2c8.1,0.5,28.5,0.8,28.7,0.8l7,0.1l0.1,7c0,0.8,0.8,89.5,0.9,115.3c0,4.3,0,8.6,0,12.8
		c0,5.1-0.1,10.4,0,15.6c0.1,10.6,1.9,21.3,5.4,31.7c8.5,24.8,25.5,40.5,52.1,48c14,3.8,28.7,5.2,43.3,4
		c26.1-1.9,46.2-12.1,61.3-31.5c8-10.3,13.8-22.6,17.5-37.5c3.4-14.1,4.8-28.6,4.2-42.9c-1-37.5-3-114.8-3-114.8L462.7,700.4z
		 M796.5,898.2c-6.3,0-12-0.2-17.5-0.6c-8.4-0.7-19.3-1.9-30-5.4c-12.4-3.9-22.5-12.4-27.7-23.4c-4.5-9-7.3-18.7-8.3-28.8
		c-1.1-9.4-1.7-18.1-2-26.6c-0.5-14.5-0.9-29.1-1.2-43.3c-0.2-7.2-0.4-14.4-0.6-21.6l-0.9-39.1l0-9.2l11.2-0.3l26.7-0.3
		c13.4-0.1,26.1,0.4,38.8,1.6c14.9,1.3,29.8,4,44.5,7.9c16.7,4.6,29.5,10.3,40.4,17.8c18.4,12.7,28.3,29.6,29.3,50.4
		c1.2,24.3-1.3,47.5-7.3,68.9c-2.5,9.4-6.7,18.4-12.6,26.7l-0.1,0.1c-7.6,10.3-18.4,17-33.2,20.7c-8.7,2.1-17.7,3.4-26.8,3.8
		C810.1,898,803.1,898.2,796.5,898.2z M711.3,703l0,6.2l0.9,39.1c0.2,7.2,0.4,14.4,0.6,21.6c0.4,14.2,0.7,28.8,1.2,43.3
		c0.3,8.5,1,17.1,2,26.4c1,9.8,3.7,19.1,8,27.8l0,0c4.8,10.2,14.2,18.2,25.9,21.8c10.4,3.4,21.1,4.6,29.3,5.3
		c5.4,0.4,11.1,0.6,17.2,0.6c6.5,0,13.5-0.2,22.5-0.7c8.9-0.4,17.7-1.7,26.3-3.7c14.1-3.5,24.4-9.9,31.5-19.6l0.1-0.1
		c5.6-8,9.7-16.6,12.1-25.7c6-21.1,8.4-44,7.2-68c-1-19.7-10.4-35.9-28-48c-10.6-7.3-23.1-12.9-39.5-17.4
		c-14.5-3.9-29.3-6.5-43.9-7.8c-11.6-1.1-23.1-1.6-35.3-1.6c-1.1,0-2.1,0-3.2,0l-26.7,0.3L711.3,703z M372.8,882.5
		c-4.8,0-9.6-0.5-14.1-1.6c-6.3-1.2-11.5-5.6-13.4-11.3c-2.5-6.5-3.7-13.3-3.7-20.3c-0.1-6-0.5-100.5-0.7-140.8l0-9.1l62.8,0.1
		l0.2,7c0,1,2.7,99.4,3,121.5c0.2,14.1-1.9,26.2-6.6,36.7L400,865c-1.8,3.6-4,7.1-6.5,10.3l-0.1,0.1c-3.1,3.8-7.8,6.2-12.8,6.7
		C378.1,882.3,375.4,882.5,372.8,882.5z M343.8,702.4l0,6.1c0.2,40.3,0.6,134.7,0.7,140.8c0,6.6,1.2,13.1,3.5,19.3
		c1.6,4.8,5.9,8.4,11.2,9.4l0.1,0c6.7,1.5,13.9,1.9,21.1,1.1c4.3-0.4,8.2-2.5,10.8-5.6l0.1-0.1c2.4-3,4.4-6.3,6.1-9.7l0.1-0.2
		c4.5-10.1,6.6-21.7,6.3-35.4c-0.3-22-3-120.5-3-121.4l-0.1-4L343.8,702.4z M260.5,647.8c-6.1,0-13.4-0.2-20.7-1.6
		c-15.4-2.9-27.5-9.5-39.1-21.3C191,615,183.3,603,176.2,587c-6.8-16-11.7-32.4-14.7-48.9c-2.1-11.5-12.1-334.2-11.2-359.6
		c0.2-6.4,1.3-12.6,3.1-18.6c2.6-9.5,10.3-17.2,20.4-20.6c7.5-2.7,15.5-4.3,23.6-4.9c5.3-0.4,9.8-0.6,14.4-0.6
		c6.3,0,11.9,0.5,17,1.5c12,2.3,22.8,9.1,29.5,18.7c5.9,8.1,9.8,17.3,12.7,30c2.5,11.3,9.6,451.8,9.7,456.2l0.1,7.3l-7.3,0
		c-2.1,0-4.2,0-6.3,0.1l-0.2,0C264.9,647.8,262.7,647.8,260.5,647.8z M211.8,136.9c-4.5,0-9,0.3-14.2,0.6
		c-7.9,0.5-15.6,2.1-22.9,4.7c-9.2,3.1-16.1,10-18.4,18.6l0,0c-1.7,5.7-2.7,11.7-3,17.8c-0.9,25.4,9.1,347.5,11.2,359
		c2.9,16.2,7.8,32.4,14.5,48.2c6.9,15.6,14.5,27.3,23.9,36.9c11.1,11.3,22.7,17.7,37.5,20.5c7.1,1.4,14.2,1.6,20.1,1.6
		c2.2,0,4.4,0,6.6-0.1l0.2,0c2.1,0,4.2-0.1,6.4-0.1l4.2,0l-0.1-4.2c-0.1-4.4-7.2-444.8-9.6-455.6c-2.8-12.2-6.6-21.1-12.2-28.9
		c-6.3-9-16.4-15.4-27.7-17.5C223.3,137.4,217.9,136.9,211.8,136.9z M461.8,647.7l-0.2-7.9c-0.7-33.2-6.8-325.2-7.1-345.1
		c-0.3-11.3,1.5-22.3,5.3-32.8l0.2-0.4c1.7-4,3.4-7.1,5.3-10c3.1-5.1,8.9-8.3,15.3-8.3l0.4,0l0.6,0c11.8,0,20,3.4,26.7,11
		c5.9,6.7,10.2,14.8,13.6,25.4l0.1,0.2c1.4,5.1,2.1,9.5,2,13.9v175.8c0,15.7,2,28.5,6.4,40.3c8.5,22.8,23.5,38.9,45.8,49.3
		c14.1,6.7,30.2,10.3,46.6,10.3c0.4,0,0.9,0,1.4,0h23.3l0.9,73.3l-4.7,4.7l-0.6,0L461.8,647.7z M480.6,246.2
		c-5.3,0-10.2,2.6-12.7,6.9l0,0.1c-1.8,2.7-3.4,5.8-5.1,9.6l-0.1,0.2c-3.7,10.1-5.5,20.7-5.2,31.7c0.3,19.9,6.4,311.9,7.1,345.1
		l0.1,4.9l177.5-0.2l3-3l-0.9-69.1H624c-0.5,0-0.9,0-1.4,0c-16.8,0-33.3-3.7-47.8-10.6c-23-10.8-38.5-27.5-47.3-51
		c-4.5-12.1-6.6-25.2-6.6-41.3V293.7c0.1-4.1-0.5-8.2-1.9-13l0-0.1c-3.2-10.2-7.3-17.9-12.9-24.3c-6.1-6.9-13.7-10-24.5-10l-0.6,0
		L480.6,246.2z M708.1,516.8l6.2-3.9l-8.2-1.9l0-2.2c-0.4-28.3-0.8-96.1,3.8-114.7c2.3-10.2,6.3-20.1,11.8-29.5l0.1-0.1l2.5-3.8
		c11.1-16.3,26.2-24.1,47.7-24.7c2.9-0.1,5.8-0.1,8.6-0.1c19,0,35.6,1.8,50.9,5.4c13.1,3.1,23.8,7.2,32.8,12.6
		c17.3,10.3,28.6,25.2,33.5,44.2c2.1,7.8,3,15.8,2.9,23.8c-0.1,12.9-0.5,26-1.2,38.8c-0.4,7.9-2.2,15.6-5.1,22.9
		c-3.7,9.9-11.8,18-22.3,22.2c-8.7,3.5-17.8,5.8-27,6.9c-10.9,1.5-21.9,1.7-32.5,1.9c-1.9,0-3.7,0.1-5.6,0.1L708.1,516.8z
		 M709,508.5l12.9,3l-3.2,2l88-1.7c1.9,0,3.8-0.1,5.6-0.1c10.5-0.2,21.4-0.4,32.2-1.9c8.9-1,17.8-3.3,26.2-6.7
		c9.7-3.9,17.2-11.4,20.6-20.5c2.8-7,4.5-14.4,4.9-22c0.7-12.8,1.1-25.8,1.2-38.7c0.1-7.7-0.9-15.5-2.8-23
		c-4.7-18.2-15.5-32.5-32.1-42.4c-8.8-5.2-19.2-9.2-32-12.3c-15-3.6-31.5-5.3-50.2-5.3c-2.8,0-5.6,0-8.5,0.1
		c-20.4,0.5-34.8,7.9-45.2,23.3l-2.4,3.7c-5.3,9.1-9.2,18.7-11.5,28.7C708.2,413,708.6,480.3,709,508.5z"/>

</g>

</svg>
