<?xml version="1.0" encoding="utf-8"?>
<!-- Generator: Adobe Illustrator 21.0.2, SVG Export Plug-In . SVG Version: 6.00 Build 0)  -->
<svg version="1.1" id="SCENE_6" xmlns="http://www.w3.org/2000/svg" xmlns:xlink="http://www.w3.org/1999/xlink" x="0px"
	y="0px" viewBox="0 0 1024 1024" style="enable-background:new 0 0 1024 1024;" xml:space="preserve">
	<style type="text/css">
		.st0 {
			fill: #FFFFFF;
		}

		.st2 {
			display: none;
		}

		.st1 {
			fill: #64566D;
		}
	</style>
	<rect id="BACKGROUND_grass" y="0" width="1024" height="1024" />
	<g id="OBSTACLES">
		<path class="st0" d="M293.4,195.7c0,10.6-4.3,20.2-11.2,27.1c-6.9,6.9-16.5,11.2-27.1,11.2s-20.2-4.3-27.1-11.2
		c-6.9-6.9-11.2-16.5-11.2-27.1s4.3-20.2,11.2-27.1c6.9-6.9,16.5-11.2,27.1-11.2s20.2,4.3,27.1,11.2
		C289,175.5,293.4,185.1,293.4,195.7z" />
		<path class="st0" d="M892.3,573c0,10.6-4.3,20.2-11.2,27.1c-6.9,6.9-16.5,11.2-27.1,11.2s-20.2-4.3-27.1-11.2
		c-6.9-6.9-11.2-16.5-11.2-27.1s4.3-20.2,11.2-27.1c6.9-6.9,16.5-11.2,27.1-11.2s20.2,4.3,27.1,11.2
		C888,552.8,892.3,562.4,892.3,573z" />
		<path class="st0" d="M170,631.3c0,10.6-4.3,20.2-11.2,27.1s-16.5,11.2-27.1,11.2s-20.2-4.3-27.1-11.2s-11.2-16.5-11.2-27.1
		s4.3-20.2,11.2-27.1c6.9-6.9,16.5-11.2,27.1-11.2s20.2,4.3,27.1,11.2S170,620.7,170,631.3z" />
		<path class="st0" d="M924.6,708.2c0,10.6-4.3,20.2-11.2,27.1c-6.9,6.9-16.5,11.2-27.1,11.2s-20.2-4.3-27.1-11.2
		c-6.9-6.9-11.2-16.5-11.2-27.1s4.3-20.2,11.2-27.1c6.9-6.9,16.5-11.2,27.1-11.2s20.2,4.3,27.1,11.2
		C920.3,688,924.6,697.6,924.6,708.2z" />
		<path class="st0" d="M463.7,768.6c0,10.6-4.3,20.2-11.2,27.1s-16.5,11.2-27.1,11.2s-20.2-4.3-27.1-11.2s-11.2-16.5-11.2-27.1
		s4.3-20.2,11.2-27.1s16.5-11.2,27.1-11.2s20.2,4.3,27.1,11.2S463.7,758,463.7,768.6z" />
		<path class="st0" d="M208.3,837c0,10.6-4.3,20.2-11.2,27.1s-16.5,11.2-27.1,11.2s-20.2-4.3-27.1-11.2s-11.2-16.5-11.2-27.1
		s4.3-20.2,11.2-27.1s16.5-11.2,27.1-11.2s20.2,4.3,27.1,11.2S208.3,826.4,208.3,837z" />
		<path class="st0" d="M912.2,837c0,10.6-4.3,20.2-11.2,27.1c-6.9,6.9-16.5,11.2-27.1,11.2s-20.2-4.3-27.1-11.2
		c-6.9-6.9-11.2-16.5-11.2-27.1s4.3-20.2,11.2-27.1c6.9-6.9,16.5-11.2,27.1-11.2s20.2,4.3,27.1,11.2
		C907.9,816.8,912.2,826.4,912.2,837z" />
		<path class="st0" d="M726.3,631.6c0,10.6-4.3,20.2-11.2,27.1s-16.5,11.2-27.1,11.2s-20.2-4.3-27.1-11.2s-11.2-16.5-11.2-27.1
		s4.3-20.2,11.2-27.1s16.5-11.2,27.1-11.2s20.2,4.3,27.1,11.2S726.3,621,726.3,631.6z" />
		<path class="st0" d="M912.2,218.6c0,10.6-4.3,20.2-11.2,27.1s-16.5,11.2-27.1,11.2s-20.2-4.3-27.1-11.2
		c-6.9-6.9-11.2-16.5-11.2-27.1s4.3-20.2,11.2-27.1s16.5-11.2,27.1-11.2s20.2,4.3,27.1,11.2S912.2,208,912.2,218.6z" />
		<path class="st0" d="M530.5,175.6c0,10.6-4.3,20.2-11.2,27.1c-6.9,6.9-16.5,11.2-27.1,11.2s-20.2-4.3-27.1-11.2
		s-11.2-16.5-11.2-27.1s4.3-20.2,11.2-27.1s16.5-11.2,27.1-11.2s20.2,4.3,27.1,11.2S530.5,165,530.5,175.6z" />
		<path class="st0"
			d="M641.1,167.6c0,10.6-4.3,20.2-11.2,27.1s-16.5,11.2-27.1,11.2s-20.2-4.3-27.1-11.2
		c-6.9-6.9-11.2-16.5-11.2-27.1s4.3-20.2,11.2-27.1c6.9-6.9,16.5-11.2,27.1-11.2s20.2,4.3,27.1,11.2S641.1,157,641.1,167.6z" />
		<path class="st0" d="M224.7,452.4c0,10.6-4.3,20.2-11.2,27.1s-16.5,11.2-27.1,11.2s-20.2-4.3-27.1-11.2s-11.2-16.5-11.2-27.1
		s4.3-20.2,11.2-27.1s16.4-11.3,27-11.3s20.2,4.3,27.1,11.2S224.7,441.8,224.7,452.4z" />
	</g>
	<g id="ROAD">
		<g>
			<path id="TRACK_asphalt" class="st1" d="M435.2,956.6c-11.8-0.1-24.1-0.2-37.5-0.5c-25.5-0.6-50.7-1.6-74.8-2.9c-27.1-1.5-51.6-3.4-75-5.8
		c-29.3-3-53.3-6.3-75.5-10.4c-14.7-2.7-26.9-5.5-38.4-8.7c-7.1-2-13.5-4-19.7-6.3c-7.9-2.9-14.4-5.8-20.5-9
		c-4-2.1-7.5-4.3-10.8-6.7c-2.9-2-7.1-5.3-11.3-9.9c-1.9-2.1-3.8-4.5-5.5-7l-0.1-0.1c-2-3-3.5-6-4.8-9l-0.1-0.2
		c-0.6-1.7-1.2-3.3-1.7-5.2c-0.4-1.6-0.7-2.7-0.8-3.6l-0.1-0.6c-0.5-2.5-0.8-5-1-7.4l0-0.3c-0.4-5.2-0.2-10.2,0.3-14.7
		c0.6-4.8,1.5-9.4,2.8-13.5c2.1-7.3,5.2-14.5,9.7-22.7c3.4-6,7.3-11.9,12.3-18.6c4-5.3,8.3-10.5,13.2-16c9.3-10.4,19-20,27.3-28
		c3.4-3.3,6.8-6.5,10.2-9.7c3.1-2.9,6-5.7,8.9-8.5c-4.2,1.1-9.1,2.3-14.3,3.3c-8.4,1.6-15.7,2.4-22.8,2.4c-0.4,0-0.8,0-1.2,0
		c-4.9-0.1-9.5-0.5-14-1.4c-5.3-1-10.3-2.6-15-4.7c-5.1-2.3-10-5.3-14.2-8.9c-4.1-3.4-7.8-7.4-11-11.9l-0.6-0.8
		c-0.5-0.7-1.1-1.6-1.7-2.5l-1.8-3l-0.1-0.2c-1.1-2.1-2.2-4.1-3.2-6.3c-1.8-4-3.3-8.1-4.6-12.3c-0.6-2.1-1.1-4-1.5-5.9
		c-0.4-1.6-0.7-3.2-1-4.6l-0.3-1.5l0-0.1c-0.7-4.5-1.2-8.3-1.5-11.8c-1-13.2-0.2-27.1,2.5-43.5c2-12,4.8-24.4,9-39.1
		c3.1-10.8,6.6-22.1,11.5-36.6c3.1-9.1,6.3-18.2,9.4-27c5.1-14.6,10-28.4,14.4-42.4c4.1-13.1,6.9-23.5,8.8-32.9
		c1.1-5.4,1.9-10.5,2.3-15.1c0.4-4.5,0.4-8.8-0.1-12.4l-0.1-0.6c-0.1-0.6-0.2-1.2-0.3-1.5l0-0.2l-0.1-0.6l-0.4-1.6l-2.7-8.5
		c-0.5-1.7-1.1-3.5-1.7-5.3c-0.4-1-0.7-2.1-1-3.1c-0.9-2.7-1.9-5.5-2.9-8.3c-3.9-11.1-8.2-22.3-12.8-33.4c-4-9.8-8.5-20.4-14.2-33.4
		c-1.6-3.7-3.3-7.4-4.9-11.1c-3.3-7.5-6.7-15.2-10.1-23.1l-0.9-2.3c-0.9-2.2-1.9-4.5-2.8-6.9l-1.4-3.5l-0.8-2.1
		c-0.3-0.9-0.6-1.7-0.8-2.4l-0.5-2l-0.2-0.9c-0.2-1-0.5-2-0.6-2.9c-0.8-4-1.2-7.9-1.6-12.7c-0.2-3.6-0.3-7.4-0.2-11.5
		c0.1-7.1,0.7-14.3,1.8-21.8c1-6.8,2.3-13.9,4.1-21.1c3.7-14.5,8.8-28.2,15.4-40.7c7.3-14,16.3-26.3,26.7-36.7
		c11.2-11.2,24.6-20.3,38.8-26.6c13.7-6.1,28.8-9.8,44.7-11.1c4.7-0.4,9.4-0.6,14.1-0.6c2.7,0,5.4,0.1,8,0.2
		c1.3,0.1,2.5,0.1,3.7,0.2l4.4,0.3l4.3,0.5c1.2,0.1,2.4,0.3,3.6,0.4l5.2,0.8c1.8,0.2,3.6,0.6,5.3,0.9l5.1,0.9l5.1,1.1
		c1.6,0.3,3.4,0.7,5.2,1.2l1,0.3c2.9,0.7,5.9,1.5,8.9,2.4l4.8,1.4l4.8,1.6c2.9,0.9,5.8,1.9,8.5,2.9l0.9,0.3c2.1,0.7,4.3,1.5,6.4,2.3
		c0.9,0.3,1.8,0.7,2.8,1c2.2,0.8,4.3,1.6,6.4,2.4c0.9,0.4,3,1.2,3,1.2c1,0.4,2,0.8,3,1.2c2,0.8,4,1.6,6,2.5
		c5.5,2.3,11.5,5.1,18.2,8.3c6.6,3.3,12.5,6.5,18.1,9.7c14.3,8.5,25.4,16.7,35,25.9c6.4,6.2,11.5,12.2,15.8,18.5
		c5.4,7.9,9.3,16.2,11.8,24.6c1.4,5,2.3,9.9,2.7,14.7c0.4,5.2,0.2,10.4-0.5,15.4c-1.4,9.9-5.1,19.7-10.7,28.4
		c-5.2,8.1-11.9,15.1-19.8,20.9c-8.6,6.1-17.4,10.2-27.1,12.4l-0.2,0c-2.1,0.4-5,1-8.3,1.2l-2.7,0.2l-0.1,0c-0.2,0-0.4,0-0.5,0.1
		c-0.2,0-0.5,0-0.7,0.1c-2,0.2-4.2,0.5-6.6,1c-4.8,0.9-9.6,2.2-14.5,3.8c-10,3.3-19.1,7.5-26.9,12.6c-8,5.1-14.5,11.1-19,17.4
		c-4.3,6.3-6.7,12.9-7.1,20.1c-0.5,7.4,1,15.9,4.2,24.8c1.6,4.5,3.7,9,6,13.5c2.5,4.7,5.2,9.3,8,13.5c5.5,8.4,12.1,17,20.1,26.4
		l12.3,14.4l9.1,11l3,3.7l6,7.5l5.8,7.5l3,3.9l2.8,3.8l5.7,7.7c7.6,10.5,15,21.2,21.8,31.9c6.6,10.3,13.3,21.4,19.9,33.1
		c2.7,4.9,5.4,9.8,8,14.5l1.3,2.3c2.9,5.2,5.6,10.1,8.2,14.2l1.3,2.1c0.1,0.2,0.2,0.4,0.4,0.6l0.1,0.2l1.3,1.9l0.4,0.5l0.8,1
		l0.1,0.1c0.2,0.2,0.4,0.4,0.6,0.7l0.1,0.2c0,0,0.4,0.4,0.6,0.5c0.1,0.1,0.2,0.1,0.3,0.2c0,0,0.1,0,0.1,0.1c0.1,0,0.1,0.1,0.2,0.1
		c0.2,0.1,0.3,0.1,0.5,0.2c0.2,0,0.5,0.1,0.7,0.2l0.3,0.1c0.4,0,0.8,0.1,1.2,0.1c0.4,0.1,0.7,0.1,0.9,0.1h0.2l2,0.1
		c0.1,0,0.2,0,0.3,0c0.3,0,0.6,0,0.9,0c0,0,0,0,0,0c1.8,0,4.2-0.1,7.3-0.4c5.8-0.5,12.1-1.1,17.5-1.7c4.6-0.5,9.3-1,13.9-1.5
		c7.5-0.8,15.2-1.7,22.9-2.5c15-1.5,26.7-2.6,37.9-3.3c12.1-0.8,22.1-1.1,31.4-1.1c2.7,0,5.4,0,8.1,0.1c7.9,0.2,14.7,0.7,21.3,1.5
		c4,0.5,7.9,1.2,11.7,2c5.1,1.1,9.2,2.4,13.3,4.1l1.8,0.8c0.5,0.2,1,0.5,1.5,0.7l0.9,0.4c0.5,0.2,1,0.5,1.5,0.7l1.9,1.1
		c1.4,0.8,2.8,1.7,4.1,2.6l0.1,0.1c0.7,0.5,1.4,1,2,1.5l0.5,0.4l0.4,0.3c0.5,0.4,1.1,0.9,1.8,1.6c1.3,1.3,2.8,2.7,4.3,4.6
		c1.3,1.6,2.6,3.4,4,5.8c0.6,1.1,1.1,2.2,1.6,3.1l0.1,0.3c0.6,1.3,1.1,2.6,1.5,3.8c0.4,1.3,0.7,2.4,1,3.4l0.1,0.3
		c0.2,1.1,0.4,2.2,0.6,3.3c0.2,1.4,0.3,2.6,0.4,3.8l0,0.5c0,0.8,0.1,1.8,0,3l0,0.2c-0.1,1.9-0.2,3.4-0.5,4.8c-0.2,1.4-0.6,2.9-1,4.3
		c-0.4,1.4-0.8,2.5-1.2,3.5l-0.2,0.5c-0.5,1.3-1,2.3-1.5,3.2l-0.1,0.3c-0.5,0.8-1,1.8-1.6,2.8l-0.2,0.2c-0.5,0.7-1,1.5-1.6,2.3
		c-1.8,2.5-3.9,4.9-6.3,7.2c-1.8,1.7-3.6,3.3-5.7,4.9c-3.2,2.5-6.5,4.7-10.4,7.1c-3,1.8-6.2,3.6-9.6,5.4c-5.5,2.9-11.4,5.6-18.4,8.7
		c-12.7,5.5-25.1,10.3-35.7,14.3c-11.7,4.4-23.3,8.6-35.1,12.9l-7.4,2.7c-20.3,7.3-41.2,14.8-61.4,22.6
		c-18.6,7.2-42.8,16.9-65.1,28.3c-11.4,5.8-20.7,11.3-28.5,16.8c-4.5,3.1-8.3,6.2-11.5,9.1c-2.2,2-4.1,4-5.6,5.9
		c1.8,1.1,3.9,2.2,6.2,3.2c5.7,2.6,12.8,4.9,21,7c7.2,1.8,15.1,3.4,24,4.8c15.4,2.4,32.1,3.9,50.8,4.7c8.1,0.3,16.5,0.5,24.9,0.5
		c8.8,0,18-0.2,27.1-0.5c17.4-0.7,34.9-2,52-4c17.7-2,34.9-4.7,51.2-8c18.1-3.7,34.2-7.9,49.3-12.8c8.5-2.8,16.1-5.6,23.1-8.7
		c7.8-3.3,14.9-6.8,21.2-10.5c6.9-4,12.9-8.2,17.8-12.5c2.5-2.2,4.8-4.5,6.8-6.8l0.1-0.1c0.4-0.5,0.9-1,1.3-1.6l0.2-0.2
		c0.3-0.4,0.7-0.9,1.1-1.4l0.5-0.7c1.3-1.7,2.6-3.4,3.8-5.1c11.3-15.3,20.2-29.1,27.2-42.1c8.2-15.4,13.5-29.6,15.6-42.2
		c1.1-7.1,1.3-13.3,0.5-18.9c-0.8-6-2.5-11.6-5.1-16.8c-2.6-5.2-6.4-10.4-11.1-15.4c-2.6-2.7-5.1-5-7.6-7.1l-0.1-0.1
		c-2.9-2.5-6.2-4.9-8.8-6.7c-11.6-8-25.4-15.3-42.4-22.1c-14.7-5.9-30.5-11.1-48.4-15.9l-4.9-1.3l-1.8-0.5l-7.4-2.1l-2.7-0.9
		c-3.9-1.3-8-2.7-12-4.4c-4.3-1.6-8.3-3.5-12.2-5.3l-2.1-1l-6.8-3.5c-1.3-0.7-2.6-1.4-3.7-2l-3.2-1.8l-3.4-2l-6.5-4.1l-1.7-1.1
		l-1.7-1.2l-6.3-4.4l-6.1-4.7c-7.9-6.2-15.5-13.1-22.7-20.4c-6.9-7.1-13.5-14.7-19.8-22.7c-5.6-7.1-11.2-15-17.1-24.3
		c-4.8-7.5-9.6-15.8-14.7-25.5c-4.3-8.2-8.4-16.8-12.5-26.3c-1.6-3.5-3.1-7.2-4.5-10.7l-1.1-2.7l-0.8-2.2c-1.4-3.7-2.9-7.4-4.2-11.3
		c-3.3-9.2-6.3-18.4-8.9-27.2c-10.6-36-17.6-73.7-20.9-111.9c-1.8-21.7-2.1-40.2-0.9-58.1c0.1-1.8,0.3-3.6,0.4-5.4
		c0.1-0.7,0.2-2.3,0.2-2.3l0.2-1.7c0.2-2,0.4-4,0.7-6.1c0.6-4.7,1.5-10.4,3.3-16.7l0.4-1.2c0.3-1.2,0.7-2.4,1.1-3.6l0.1-0.2l0.9-2.3
		l0.6-1.5l0.8-1.8c0.4-0.9,0.8-1.8,1.3-2.8l0.1-0.2l0.1-0.2c0.7-1.1,1.3-2.3,2-3.4l0.1-0.2c0.2-0.3,0.3-0.5,0.6-0.8l0.1-0.2l0.9-1.2
		c0.6-0.7,1.2-1.4,1.7-2.1c1.1-1.3,1.8-1.9,2.5-2.6c0.1-0.1,0.2-0.2,0.3-0.3l0.1-0.1c6.3-5.8,12.3-9.4,16.8-11.8l0.5-0.3
		c0.5-0.3,1-0.5,1.5-0.8l3.1-1.5c0.9-0.4,1.8-0.9,2.8-1.3l0.2-0.1c0.6-0.3,1.3-0.5,1.9-0.8c1.8-0.8,3.7-1.6,5.6-2.3l3.6-1.4l3.7-1.3
		c2.1-0.7,4.2-1.4,6.3-2l1.1-0.3c9-2.7,18.5-5,29-7.1c18.1-3.5,36.8-5.8,57.3-7c9.8-0.6,19.5-0.8,28.8-0.8c9.8,0,19.4,0.3,28.8,0.9
		c10.2,0.7,19.7,1.7,29.1,3l0.1,0c0.8,0.1,1.6,0.2,2.4,0.4c1.6,0.2,3.3,0.5,5,0.8l5.3,0.9l1.1,0.2l1.3,0.3c7.9,1.6,15.4,4.8,21.7,9
		c6.6,4.3,12.5,10.2,17,17c3.8,5.7,6.8,11.9,9.1,19.1c1.8,5.6,3.1,11.4,3.9,17.9c0.7,5.3,1.1,10.8,1.2,16.7c0.1,9.6-0.5,19.4-2,30.8
		c-1.2,9.2-2.8,18.6-5.1,29c-3.7,17.1-8.6,35-15.1,54.9c-2.9,8.9-6,17.8-9.2,26.6c-1.7,4.5-3.4,9-5,13.2l-2.6,6.5l-1.4,3.3l-3.4,8
		l-3.6,3.7l-1.3,1.4l-1.4,1.5l-2.9,3.2c-1.9,2.1-3.7,4.2-5.5,6.3c-3.7,4.4-7.2,8.8-10.3,13.1c-3.4,4.6-6.4,9.1-8.8,13.1
		c-2.7,4.5-4.7,8.7-5.9,12c-0.2,0.6-0.4,1.1-0.5,1.6c4,2.4,7.7,4.7,11.3,7l2.5,1.6c5.2,3.3,10,6.3,15,9.3
		c11.9,7.3,21.1,12.2,29.6,16.1c4.9,2.2,9.6,4,13.9,5.3c4.4,1.3,8.3,2.1,11.3,2.2c0.3,0,0.6,0,0.9,0c1,0,1.9-0.1,2.7-0.2
		c0.7-0.1,1.2-0.3,1.6-0.5c0.3-0.1,0.5-0.3,0.9-0.7c0.3-0.3,0.9-0.9,1.5-1.9c0.5-0.8,1.2-2.1,1.8-3.7l0.2-0.6
		c0.2-0.7,0.5-1.2,0.6-1.8l0.1-0.2l0.1-0.2c0.2-0.5,0.4-1.3,0.6-2l0.2-0.8c0.2-0.6,0.3-1.1,0.4-1.7c0.1-0.4,0.2-0.9,0.3-1.3
		c0.1-0.5,0.2-0.9,0.2-1.4c0.1-0.6,0.2-1.3,0.3-1.9l1.3-8.9c1.7-11.6,4-23.7,7.2-38.3c2.6-11.6,5.5-23.7,9-37
		c6.1-23.2,13-46.9,21.1-72.4c8.1-25.4,16.1-48.7,24.6-71.2c4.9-13.1,9.5-24.7,14-35.4c2.7-6.5,5.3-12.3,7.8-17.8
		c3.3-7,6.1-12.8,9-18.1c2-3.7,3.8-6.7,5.6-9.6c1.3-2,2.4-3.7,3.7-5.3c1.4-1.9,3.1-4,5.4-6.4c1.1-1.2,2.7-2.6,4.8-4.3l0.1-0.1
		c1-0.7,2.3-1.6,4-2.6c2.2-1.2,4.4-2.1,6.7-2.8c2.8-0.8,5.6-1.2,8.4-1.2l0.6,0c2.1,0,3.5,0.2,4.7,0.4l0.3,0c1.7,0.2,2.8,0.5,3.7,0.8
		l0.4,0.1c1.4,0.4,2.4,0.7,3.3,1c1.7,0.6,3,1.2,4.1,1.7l0.6,0.3c0.5,0.2,1,0.5,1.4,0.7l0.4,0.2c0.7,0.4,1.4,0.7,1.9,1l0.1,0.1
		c0.9,0.5,1.9,1.1,2.8,1.7c1.1,0.7,2,1.3,2.7,1.8c6.9,4.8,12.5,9.5,17.1,13.6c4.6,4.1,9.4,8.6,14.5,13.7
		c8.5,8.5,17.2,17.7,26.6,28.1c8.9,10,17,19.7,24.8,29.4c6.6,8.3,15.2,19.5,23.4,31.9c2.2,3.4,4,6.3,5.6,9.1
		c1.8,3.2,3.7,6.7,5.6,10.9l0.4,0.9c0.3,0.8,0.7,1.7,1.1,2.8l0.1,0.3c0.2,0.5,0.4,1,0.5,1.5l0.6,2.1c0.3,0.8,0.5,1.7,0.6,2.5
		l0.1,0.3c0.2,1,0.5,2.3,0.6,3.6c0.2,1.5,0.3,3,0.3,4.7c0,2-0.2,4.5-0.7,6.9c-0.4,2.1-0.8,3.2-1.3,4.5c-0.1,0.2-0.2,0.5-0.3,0.7
		l-0.1,0.3l-0.1,0.2c-0.4,0.9-1,2.3-1.8,3.7l-0.1,0.1c-0.5,0.8-1.1,1.9-1.7,2.9l-0.1,0.2c-0.4,0.7-0.9,1.4-1.5,2.1
		c-2,2.7-3.9,4.6-5.6,6.3c-1.5,1.5-3,2.8-4.8,4.5c-1.5,1.3-3,2.5-4.4,3.6c-3.1,2.5-6,4.7-8.3,6.3c-4.4,3.2-8.8,6.3-13,9.3l-2.5,1.8
		c-9.4,6.6-19.3,13.7-28.4,21c-9.9,7.9-17.6,15.1-23.4,21.8c-3.3,3.8-6,7.5-8,10.9c-1,1.7-1.9,3.4-2.6,5l-0.1,0.2
		c-0.1,0.3-0.2,0.6-0.3,0.8l-0.1,0.2c-0.1,0.3-0.2,0.5-0.3,0.8l-0.2,0.6c0,0.1-0.1,0.3-0.1,0.4l0,0.2c-0.1,0.2-0.1,0.4-0.2,0.7
		c-0.1,0.2-0.1,0.5-0.3,1c-1.5,5.9-3.4,12.2-5.7,19.4c-0.8,2.4-1.6,4.8-2.4,7.2c-1.2,3.5-2.3,6.8-3.3,10c-0.8,2.6-1.5,5-2,7.1
		c-0.5,2-0.9,4.1-1.1,5.9l0,0.2l0,0.2c0,0.2-0.1,0.5-0.1,0.8c0,0.4,0,0.7-0.1,1c0,0.2,0,0.3,0,0.4c0,0.4,0,0.7,0,1.1
		c0,0.5,0,1,0,1.2l0,0.3l0,0.3c0,1.5,0.3,3.2,0.5,4.9c1.3,6.7,4.9,15,10.8,24.8c2.4,4,5.3,8.4,9,13.8l5.2,7.2l5.6,7.9
		c14.3,20.4,27.5,43.3,39.2,68.2c11,23.4,20.1,48.3,27,74c0.6,2.2,1.1,4.3,1.6,6.4c0.3,1.1,0.5,2.1,0.8,3.2l1.2,4.9l1,5
		c0.2,1.2,0.4,2.2,0.7,3.3c0.4,2.1,0.9,4.3,1.3,6.6l1.5,9.8c0.3,1.8,0.5,3.6,0.7,5.3l0.6,5c0.1,0.6,0.1,1.2,0.2,1.7
		c0.1,1.1,0.3,2.3,0.4,3.4l0.4,7.1c0.2,2.8,0.3,5.6,0.4,7.9c0.1,3,0.3,6,0.5,8.6c0.4,6.2,0.9,12.6,1.4,18.9
		c0.5,5.9,0.9,11.9,1.4,17.9c1,14.7,1.6,26.8,1.9,38.2c0.4,14.4,0.2,27.3-0.6,39.3c-0.9,15.1-2.7,28.4-5.4,40.8
		c-1.6,7.3-3.6,14.4-6,21.1c-2.9,8-6,14.9-9.6,21.3c-4.5,7.9-9.4,14.5-14.9,20.3c-6.4,6.7-13.5,12.2-20.9,16.4
		c-7.6,4.3-15.8,7.5-24.4,9.5l-3.3,0.7c-1,0.2-1.9,0.4-2.9,0.5l-4.7,0.7l-9.6,1.5c-1.4,0.2-2.6,0.4-3.8,0.5l-15.4,1.8
		c-4.2,0.5-8.4,0.9-12.4,1.2c-2.2,0.2-4.4,0.4-6.5,0.6c-4.4,0.5-8.9,0.8-13.2,1.1c-1.9,0.1-3.8,0.3-5.6,0.4l-1.6,0.1
		c-5.6,0.4-11.5,0.9-17.2,1.2l-18.6,1.2l-18.7,1c-8.3,0.5-16.8,0.9-25,1.3c-4.1,0.2-8.1,0.4-12.2,0.6l-37.1,1.6
		c-51.8,2-103.7,3.5-148.2,4.7l-73.9,2l-18.5,0.5c-4.4,0.1-8.5,0.2-11.9,0.2C441.2,956.6,435.2,956.6,435.2,956.6z M113.1,859.4
		c0.4,0.4,1.1,0.9,2,1.6c1.3,1,3,2,4.9,3c3.6,1.9,8.1,3.9,13.4,5.8c4.7,1.7,9.9,3.4,15.5,4.9c9.8,2.8,20.8,5.3,33.7,7.7
		c20.7,3.9,43.3,7,71,9.8c22.5,2.3,46.2,4.1,72.5,5.6c23.5,1.3,48.1,2.3,73,2.9c13.1,0.3,25,0.5,36.5,0.6l2.8,0c1.6,0,3.2,0,4.9,0
		c2.8,0,6.4,0,9.9-0.1l18.5-0.5l74-2c55.1-1.5,101.2-2.8,147.5-4.6l36.8-1.5c4-0.2,8-0.4,12.1-0.6c8.1-0.4,16.4-0.8,24.5-1.2l18.4-1
		l18.2-1.2c5.5-0.3,11.1-0.8,16.6-1.2l1.6-0.1c1.8-0.1,3.7-0.3,5.6-0.4c4.1-0.3,8.3-0.6,12.4-1c2.2-0.2,4.4-0.4,6.5-0.6
		c3.8-0.3,7.7-0.7,11.4-1.1c0,0,14.1-1.7,14.6-1.7c1-0.1,1.9-0.2,2.7-0.4l13.3-2.1c0.4,0,0.6-0.1,0.8-0.2l2-0.4
		c3.5-0.8,6.7-2.1,9.9-3.8c2.8-1.5,5.4-3.6,8.1-6.4c2.3-2.4,4.7-5.6,6.9-9.5c4-7.1,7.3-16.1,9.6-26.9c2.1-9.6,3.5-20.2,4.3-32.4
		c0.7-10.5,0.8-21.8,0.5-34.6c-0.3-10.5-0.8-21.9-1.8-35.7c-0.4-5.7-0.9-11.6-1.3-17.3c-0.5-6.4-1-13-1.5-19.7
		c-0.2-3.1-0.4-6.4-0.6-9.8l0-0.1c-0.1-2.4-0.2-4.3-0.3-6.4c0-0.8-0.1-1.5-0.1-2.3l-0.2-4.1c-0.1-0.8-0.2-1.6-0.2-2.3
		c-0.1-0.5-0.1-1.1-0.2-1.6l-0.5-4.5c-0.1-1.2-0.2-2.3-0.4-3.4l-1.3-8.6c-0.3-1.7-0.6-3.3-1-5.1c-0.2-1.1-0.4-2.1-0.6-3.2l-0.8-4
		l-1-4.1c-0.3-1-0.5-2.1-0.8-3.2c-0.4-1.8-0.8-3.5-1.3-5.1c-6.1-22.5-14-44.3-23.6-64.8c-10.3-22-21.9-42.2-34.4-60l-5.1-7.2
		l-5.6-7.8c-4.6-6.6-8.1-11.9-11.2-17.1c-4.2-7.1-7.5-13.3-10.2-19.5c-3.5-8.1-6-15.8-7.5-23.5c-1.7-8.9-1.9-18.1-0.8-26.7
		c0.5-4.4,1.4-8.4,2.2-12.1c0.8-3.4,1.8-6.9,3-10.7c1.3-4,2.5-7.7,3.7-11.4c0.8-2.2,1.5-4.4,2.2-6.6c2-6.1,3.5-11.2,4.8-16.1
		l0.8-2.9c0.3-1.1,0.6-2.2,1-3.1l0.1-0.3c0.4-1.2,0.8-2.3,1.2-3.3c0.4-1.1,0.8-2.2,1.3-3.2c1.6-3.7,3.5-7.6,5.8-11.4
		c3.7-6.3,8.2-12.5,13.8-18.9c10.6-12.2,21.9-21.7,30.6-28.6c10.3-8.2,20.6-15.6,31.1-22.9l2.3-1.6c4.3-3.1,8.4-5.9,12.4-8.8
		c1.6-1.2,3-2.2,4.2-3.2c-0.8-1.3-1.7-2.7-2.6-4.1c-5.3-8.1-11.8-16.9-20.4-27.7c-7-8.8-14.7-18-22.9-27.1
		c-8.6-9.6-16.5-18-24.2-25.7c-4.5-4.4-8.5-8.3-12.4-11.7c-0.5-0.4-1-0.9-1.5-1.3c-1.6,3.1-3.2,6.5-5,10.3
		c-2.3,4.9-4.6,10.2-7.1,16.1c-4.2,10-8.6,20.9-13.2,33.4c-8,21.3-16,44.4-23.7,68.6c-7.8,24.6-14.5,47.4-20.3,69.6
		c-3.3,12.6-6.1,24-8.5,34.9c-2.9,13.1-5,24.4-6.5,34.4l-1.3,9.5c-0.2,1.3-0.5,2.7-0.7,4l-0.3,1.7l0,0.2c-0.1,0.5-0.2,1.1-0.4,1.6
		c-0.3,1.3-0.6,2.7-1,4.1l-0.2,0.6c-0.5,1.7-0.9,3.4-1.6,5.3c-0.6,2.1-1.4,4.1-2.2,6l-0.1,0.2c-2,4.8-4,8.8-6.4,12.6
		c-3,4.7-6.4,8.8-10.2,12.4c-4.2,3.9-9.1,7.3-14.3,9.8c-4.9,2.4-10.3,4.1-15.9,5.1c-3.8,0.7-7.9,1-12,1c-1,0-2,0-2.9-0.1
		c-10.1-0.4-18.6-2.6-24.9-4.4c-6.7-2-13.5-4.6-20.7-7.9c-13.4-6.1-25.4-13.1-35.4-19.2c-5.3-3.2-10.5-6.5-15.5-9.7l-1.6-1
		c-4.8-3-9.4-5.9-13.6-8.3l-1.2-0.7l-1.7-1c-0.7-0.4-1.5-1-2.4-1.6l-1.9-1.4l-0.2-0.1c-3.3-2.6-5.7-5.2-7.9-7.9
		c-2.5-3.3-4.5-6.7-5.9-10.2c-1.4-3.4-2.4-7-2.9-10.5c-0.2-0.9-0.3-1.8-0.3-2.7l0-0.1c-0.1-0.7-0.1-1.5-0.2-2.2l0-0.6
		c0-1.3-0.1-2.7,0-4.2c0.1-3.1,0.5-5.9,0.8-8.2l0-0.1c0.8-4.4,2-8.9,3.7-13.6c3.2-8.8,7.2-15.9,10.3-21.1
		c3.4-5.7,7.2-11.5,11.8-17.6c3.9-5.3,8.1-10.6,12.6-15.9c2.1-2.5,4.3-5.1,6.6-7.6l3.3-3.7l0.6-1.4l2.4-6c1.5-3.8,3-7.9,4.6-12.1
		c3-8.1,5.9-16.4,8.5-24.6c5.9-18.1,10.3-34.3,13.6-49.6c1.9-8.8,3.3-16.8,4.3-24.4c1.1-8.7,1.6-16.3,1.5-23.2
		c0-3.8-0.3-7.2-0.7-10.3c-0.4-3.3-1-6.1-1.8-8.5c-0.7-2.1-1.5-4-2.4-5.3c-0.8-1.2-1.5-1.7-2-2.1c-0.8-0.5-1.8-0.9-3.1-1.2l-0.2,0
		l-0.3-0.1l-5.1-0.9c-1.2-0.2-2.5-0.4-3.7-0.6c-0.8-0.1-1.6-0.2-2.3-0.3c-7.8-1.1-16.2-2-24.8-2.5c-8-0.5-16.3-0.8-24.8-0.8
		c-8.4,0-17.2,0.3-26.1,0.8c-17.8,1.1-34.7,3.2-50.2,6.2c-8.6,1.7-16.6,3.6-23.7,5.8l-1.1,0.4c-1.5,0.5-2.9,0.9-4.3,1.4l-2.8,1
		l-2.8,1.1c-1,0.3-2,0.8-3,1.2c-0.6,0.3-1.2,0.5-1.8,0.8c-0.4,0.2-0.8,0.4-1.1,0.5c-0.4,0.2-0.7,0.4-1.1,0.5l-1,0.5
		c-0.1,0.1-1,0.6-1,0.6c-1.4,0.7-2.6,1.5-3.5,2.1l-0.2,0.7c-0.7,2.5-1.3,5.7-1.8,9.6l0,0.1c-0.2,1.2-0.3,2.6-0.5,4
		c-0.1,0.5-0.1,1.1-0.2,1.6c-0.1,0.6-0.1,1.3-0.2,1.9c-0.1,1.4-0.2,2.6-0.3,3.9c-0.9,15.1-0.6,31.6,0.9,50.3
		c2.9,34.5,9.3,68.4,18.9,100.9c10.5,35.1,24.1,66,40.6,91.9c5,7.7,9.6,14.3,14.1,19.9c5.1,6.4,10.4,12.5,15.9,18.1
		c5.5,5.6,11.4,10.9,17.5,15.7l4.7,3.6l6,4.2l6.1,3.9l5.1,2.9c0.9,0.5,1.5,0.9,2.1,1.2l5.4,2.8c0.7,0.3,1.5,0.7,2.2,1
		c2.8,1.3,5.5,2.5,8.2,3.5l0.2,0.1l0.2,0.1c2.5,1.1,5.2,2,8,2.9c0.9,0.3,1.8,0.6,2.6,0.9l7,2l5,1.3c20,5.4,37.8,11.2,54.6,17.9
		c21.2,8.5,38.1,17.4,53.4,28c5.2,3.7,9.2,6.7,12.8,9.8c4,3.3,8.1,7.2,12.1,11.3c8.5,9,15.4,18.6,20.4,28.5
		c2.9,5.6,5.2,11.3,6.9,16.9c1.8,5.8,3.1,11.8,3.8,17.8c1.4,10.8,1.2,22.6-0.8,35c-0.9,5.3-2.1,10.6-3.6,16.2
		c-1.3,4.6-2.8,9.4-5,15.2c-1.6,4.4-3.5,8.9-6,14.3l0,0.1c-2.6,5.5-4.7,9.7-6.7,13.6c-8.3,15.7-18.3,31.2-31.4,49
		c-1.4,1.9-2.8,3.8-4.3,5.7c-1.6,2.1-3.5,4.5-5.3,6.7c-3.6,4.2-7.7,8.4-12.3,12.3c-7.7,6.7-16.3,12.8-26.4,18.8
		c-8.4,4.9-17.3,9.3-27.3,13.6c-8.5,3.6-17.5,7-27.6,10.4c-17.1,5.6-35.3,10.4-55.6,14.5c-17.8,3.6-36.6,6.6-55.9,8.8
		c-18.4,2.1-37.3,3.6-56.1,4.4c-10.2,0.4-20.3,0.6-30.2,0.6c-8.8,0-17.7-0.2-26.3-0.5c-20.9-0.8-39.6-2.5-57.1-5.2
		c-10.7-1.6-20.2-3.5-29.2-5.8c-11.8-3-21.4-6.2-30.4-10.2c-3-1.4-5.6-2.7-8.1-4c-2.7-1.4-5.5-3.2-8.2-5.1c-3-2.1-5.9-4.4-8.6-6.9
		c-3.3-3.2-6.1-6.4-8.5-10c-3-4.5-5.2-9.3-6.5-14.3c-1.5-5.3-2-11.1-1.4-16.6c0.4-4.8,1.6-9.7,3.5-14.4c1.5-3.6,3.3-7.2,5.6-10.8
		c4.5-6.8,9.7-12.9,16.6-19.3c5.1-4.7,10.8-9.2,17.4-13.9c10.1-7.1,21.3-13.7,35.1-20.8c24.5-12.5,49.3-22.6,70.4-30.8
		c20.8-8.1,41.9-15.7,62.2-23l7.8-2.8c11.1-4,22.9-8.3,34.3-12.6c7.4-2.8,16.5-6.3,25.7-10.2c-7.1,0.1-14.9,0.4-23.9,1
		c-10.3,0.7-21.7,1.7-35.8,3.1c-7.5,0.8-15.1,1.6-22.6,2.4c-4.7,0.5-9.4,1-14.1,1.5c-6.4,0.7-12.7,1.3-19.3,1.8
		c-3.2,0.2-6.9,0.5-11.2,0.5c-0.3,0-0.6,0-0.8,0c-0.4,0-0.8,0-1.2,0c-0.4,0-0.9,0-1.4,0l-2.8-0.1c-2.1,0-4.1-0.3-6.1-0.5l-0.8-0.1
		c-1.4-0.1-2.7-0.4-4.1-0.7l-3.8-0.8l-0.3-0.1c-1.3-0.4-2.5-0.7-3.7-1.1l-2.1-0.7l-2.2-0.9c-1.2-0.5-2.5-1.1-3.8-1.7l-0.2-0.1
		l-0.2-0.1c-1.2-0.6-2.3-1.3-3.5-2c-1.5-0.9-2.8-1.8-4-2.6l-0.8-0.6c-0.8-0.6-1.8-1.3-2.7-2.1l-0.4-0.3c-1.7-1.5-3.7-3.3-5.4-5.2
		l-0.5-0.5c-0.6-0.7-1.3-1.4-1.9-2.1l-2.1-2.6l-1.1-1.4c-0.3-0.3-0.5-0.7-0.7-1l-1.9-2.7c-0.6-0.8-1-1.4-1.4-2.1l-1.9-3
		c-3.5-5.6-6.3-10.7-9.1-15.7l-1.9-3.5c-2.7-4.9-5.2-9.4-7.8-14c-6.1-10.9-12.1-20.8-18.2-30.3c-6.3-9.8-13-19.6-20-29.2l-5.3-7.2
		l-2.6-3.5l-8.2-10.6l-8.4-10.5l-8.6-10.3l-11.8-13.8c-9.7-11.3-17.7-21.9-24.6-32.4c-3.8-5.8-7.4-11.9-10.7-18.3
		c-3.5-6.7-6.5-13.5-9-20.3c-2.8-7.7-4.8-15.3-6.1-22.7c-1.4-8.4-1.9-16.9-1.4-25c0.5-8.6,2.3-17.2,5.2-25.6
		c2.7-7.7,6.7-15.5,11.8-23.1c4.8-6.8,10.3-13,16.4-18.6c5.6-5.1,11.8-9.9,18.5-14.2c12.1-7.7,25.1-13.8,39.9-18.7
		c7.2-2.3,14.1-4.2,21.3-5.6c4.1-0.8,7.9-1.4,11.6-1.8l1-0.1c0.8-0.1,1.5-0.1,2.3-0.2l1.3-0.1l0.7-0.1c0.2,0,0.4-0.1,0.6-0.1l0.1,0
		c1.5-0.4,3.8-1.3,6.1-3c2.2-1.6,4.1-3.6,5.5-5.7c1.3-1.9,2-4,2.3-6c0.3-2.1,0.1-4.1-0.5-6.4l0-0.1c-1.5-5.4-6.1-12-12.4-18
		c-6.2-6-14.4-12-24.5-18c-4.4-2.6-9.1-5.1-14.5-7.8c-5.8-2.8-10.7-5-15.3-7l-0.1,0c-1.6-0.7-3.2-1.4-4.9-2.1c-1-0.4-2-0.8-2.9-1.2
		c-0.9-0.3-1.8-0.7-2.7-1.1c-1.8-0.7-3.5-1.4-5.3-2c-0.9-0.3-1.8-0.7-2.7-1c-1.9-0.7-3.6-1.3-5.4-1.9l-0.9-0.3
		c-2.5-0.9-4.9-1.7-7.2-2.4l-4.1-1.3l-4.1-1.2c-2.1-0.6-4.2-1.2-6.5-1.7l-1.5-0.4c-1.2-0.3-2.4-0.6-3.7-0.9l-4-0.9l-4-0.7
		c-1.4-0.3-2.5-0.5-3.7-0.6l-4.1-0.6c-0.8-0.1-1.5-0.2-2.3-0.3c-0.5-0.1-1.1-0.1-1.6-0.2l-1.8-0.2c0,0-2.9-0.2-3.4-0.2
		c-0.8-0.1-1.5-0.1-2.3-0.2c-1.8-0.1-3.7-0.1-5.5-0.1c-3.1,0-6.3,0.1-9.3,0.4c-9.7,0.8-18.7,3-26.7,6.5c-8.1,3.5-15.4,8.6-21.9,15
		c-12.4,12.3-22.1,30.5-27.3,51.3c-1.3,5.2-2.3,10.3-3,15.2c-0.7,5.2-1.2,10.3-1.3,15.1c0,2.6,0,4.9,0.1,7c0.1,2.1,0.4,4.1,0.6,5.5
		l0,0.1c0,0.1,0,0.2,0.1,0.2c0,0.1,0.1,0.3,0.1,0.4c0,0,0.1,0.3,0.1,0.3l1.1,2.6c0.8,1.9,1.6,3.8,2.4,5.9l0.9,2.2
		c3.1,7.3,6.4,14.9,9.7,22.2c1.7,3.8,3.3,7.5,5,11.3c5.9,13.4,10.6,24.4,14.7,34.7c4.8,11.9,9.4,23.9,13.7,35.7
		c1.1,3,2.2,6.1,3.2,9.2c0.3,1,0.7,2.1,1,3.1c0.7,2,1.4,4,2,6.1l2.9,9c0.1,0.4,0.3,1.1,0.5,1.8l0.4,1.6l0.5,1.8l0.4,1.7
		c0.5,2.4,0.9,4.6,1.2,6.7l0,0.2c1,7.7,1.1,15.7,0.3,24.4c-0.6,6.8-1.6,13.8-3.2,21.5c-3,14.6-7.1,28.3-10.3,38.5
		c-4.8,15.2-10.1,30.1-15.1,44.4c-3,8.6-6.1,17.5-9.1,26.1c-4.6,13.6-7.9,24.1-10.7,33.9c-3.5,12.4-6,23.2-7.6,33
		c-1.9,11.5-2.6,21.6-1.9,30.1l0,0.1c0.1,2,0.4,4,0.8,6.3c0.1,0.4,0.2,0.8,0.2,1.2c0.1,0.6,0.2,1.1,0.4,1.7l0.1,0.6
		c0.2,0.9,0.4,1.7,0.6,2.3l0.1,0.3c0.5,1.7,1.1,3.3,1.8,4.8l0.1,0.2c0.1,0.3,0.3,0.7,0.6,1.2c0.1,0.2,0.2,0.3,0.2,0.5
		c0.2,0.3,0.4,0.6,0.6,0.9l0,0c0.1,0.2,0.3,0.4,0.4,0.6c1.1,1.5,1.9,2,2.9,2.5c0.7,0.3,2.8,1.1,6.9,1.1l0.6,0
		c3.4,0,7.5-0.5,12.1-1.3c4.4-0.9,9.4-2.1,15.5-3.8c3.1-0.9,6.3-1.9,9.7-2.9c2.6-0.8,5.2-1.6,7.9-2.4c2.9-0.8,6.3-1.8,10-2.7
		c3.6-0.9,7.5-1.8,12.1-2.4l0.8-0.1c0.9-0.1,1.9-0.2,3-0.3l0.4,0c0.5,0,1-0.1,1.6-0.1l2.2-0.1l0.4,0c2.5,0,5.9,0.1,10,0.9
		c1.2,0.3,2.3,0.6,3.2,0.8c1.2,0.3,2.4,0.8,3.4,1.2l0.1,0c1.3,0.5,2.6,1.1,3.8,1.7c1.2,0.6,2.5,1.4,3.9,2.4c1.4,0.9,2.2,1.7,3,2.3
		c0.6,0.5,1.3,1.1,1.9,1.7c0.8,0.7,1.4,1.4,2,2.1l0.5,0.5l0.3,0.4c0.5,0.6,1.2,1.3,1.9,2.2l0.2,0.3c1.2,1.7,2.6,3.6,3.8,6.1l0.1,0.1
		c0.5,1,1,2.1,1.5,3.4l0,0.1c0.4,1.1,0.8,2.3,1.1,3.4c0.5,1.5,0.7,2.8,0.9,3.9l0.1,0.7c0.2,1,0.4,2.2,0.4,3.5
		c0.1,2.8,0.1,4.9-0.1,6.8l0,0.2c-0.1,0.9-0.2,1.9-0.4,2.9l0,0.1c-0.2,0.8-0.3,1.7-0.5,2.5c-0.2,1.1-0.5,2.1-0.8,3l-0.7,2.1
		c-0.4,1.3-0.9,2.4-1.3,3.4l-0.4,0.9l-0.1,0.1c-0.5,1.1-1,2.2-1.6,3.3l-0.2,0.4c-2.5,4.8-5.1,8.5-7.3,11.4c-2.3,3.1-4.7,6-7.3,8.9
		c-4.9,5.6-9.8,10.6-14.1,14.8c-5.8,5.7-11.6,11.2-17.2,16.5c-3.3,3.1-6.6,6.2-9.8,9.4c-7.5,7.2-16.3,15.8-24.4,24.9
		c-8.2,9.2-14.3,17.3-18.5,24.8c-2.3,4.2-4,7.9-4.8,11l0,0.1c-0.8,2.6-1.2,5.2-1.1,7.5l0.2,0.2L113.1,859.4z" />
		</g>
		<circle id="START" cx="962.6" cy="768.6" r="3.4" class="st2" />
	</g>
</svg>