<?xml version="1.0" encoding="utf-8"?>
<!-- Generator: Adobe Illustrator 21.0.2, SVG Export Plug-In . SVG Version: 6.00 Build 0)  -->
<svg version="1.1" id="SCENE_x5F_1" xmlns="http://www.w3.org/2000/svg" xmlns:xlink="http://www.w3.org/1999/xlink" x="0px"
	 y="0px" viewBox="0 0 1024 1024" style="enable-background:new 0 0 1024 1024;" xml:space="preserve">
<style type="text/css">
	.st0{fill:#FFFFFF;}
	.st1{display:none;}
	.st2{fill:#64566D;}
</style>
<rect id="BACKGROUND_grass" y="0" width="1024" height="1024"/>
<g id="OBSTACLES">
	<path id="06_stone" class="st0" d="M361.6,865.9a38.8,38.8,0,0,1-9.2-1.2h-.1v-.3a47.4,47.4,0,0,1-2.4-14.9c-.1-4.2-.1-8.6,0-12.9,0-2.7,0-5.4,0-8.2q-.2-39.2-.4-78.5l-.2-32.7h24.1l.2,12.7q.3,16.1.6,32.2.3,12.2.6,24.5c.3,13.8.7,28.1.9,42.1.2,11.7-1.4,21.5-4.7,29.9a37.9,37.9,0,0,1-3.9,6.8h-.5a35.6,35.6,0,0,1-4.8.3Z" />
    <path id="05_stone" class="st0" d="M456.4,568.6q-.3-12.8-.5-25.7-.6-26.9-1.1-53.9-.3-13.9-.5-27.9t-.4-25.5q-.3-18.1-.7-36.2-.4-20.7-.8-41.5c-.5-25.9-.8-45.7-1-64a79.8,79.8,0,0,1,3.8-26.8,46.2,46.2,0,0,1,3.5-7.2h.8c5.1,0,8.4,1.4,11.1,4.8s6.7,10.8,9.1,19.4a32.7,32.7,0,0,1,1.2,9.1c-.1,60.2,0,120.1,0,176.3,0,17.5,2.2,32.6,6.7,46.1,9,26.8,25.6,46.7,49.4,59.1a105.8,105.8,0,0,0,49.2,12.1h6l.7,44.1H457.7C457.4,617.4,456.4,568.6,456.4,568.6Z" />
    <path id="04_stone" class="st0" d="M260.3,630.9a75.5,75.5,0,0,1-15.7-1.3c-10.1-2.2-18.7-7.4-26.4-16.2s-13.4-18.8-18.9-32.6a220.1,220.1,0,0,1-12.1-45.4,243.9,243.9,0,0,1-3.1-34.1c-.3-14-.8-28.2-1.2-42q-.3-10.1-.6-20.3v-.7c-.6-21.5-1.3-43.7-1.9-65.6-.7-24.4-1.3-46.8-1.8-68.5q-.3-11.1-.5-22.2c-.2-12-.5-24.3-.9-36.5-.6-19-.5-39.4.3-66a62.3,62.3,0,0,1,2.1-14.5c1.3-4.6,3.7-7.4,8.3-9.2a54.2,54.2,0,0,1,16.6-3.7c3.9-.3,8-.6,11.9-.6a52.3,52.3,0,0,1,11.8,1.2,25.7,25.7,0,0,1,16.5,11.6c4,6.2,6.9,13.8,9,23.9a133.9,133.9,0,0,1,2.5,28.6c-.1,8.4,0,17.6.1,29q.4,25.8.8,51.6l.9,53.3q.6,38.8,1.2,77.5.3,17.8.5,35.6.2,13.5.3,27,.7,49.8,1.4,99.7l.6,40.3Z" />
    <path id="03_stone" class="st0" d="M743.2,881c-5.1,0-9.8-.2-14.2-.6-7-.6-15.2-1.6-23-4.5a25.6,25.6,0,0,1-15.4-14.4,74.5,74.5,0,0,1-6-23.4c-.9-8.8-1.5-17.3-1.7-25.4-.5-16.4-.9-33-1.2-49.1q-.2-7.7-.3-15.5-.3-13.9-.6-27.7v-3.4h3.8l14-.2h4a282.4,282.4,0,0,1,29.2,1.6,190,190,0,0,1,37,7.3c13,4,22.9,8.8,31.3,15.2,12.5,9.6,19,21.8,19.6,37.3,1,23-1,43.8-6.1,63.7a69.5,69.5,0,0,1-9,21.2c-4.5,6.8-11,11.2-20.5,13.9a99.7,99.7,0,0,1-20.9,3.3c-5.4.3-12.6.7-19.7.7Z" />
    <path id="02_stone" class="st0" d="M10,1014V10H1014V1014ZM594.3,717.3q.3,14.4.6,28.7c.4,20.1.9,40.9,1.4,61.4.3,12.8.6,27.4,2.5,41.7s5.1,28.2,9.6,39.9c11.7,30.6,32.2,52.6,61.1,65.2,15.7,6.9,33.2,10.8,55.1,12.4,5.9.4,12,.6,18.7.6s13-.2,20.7-.6a196,196,0,0,0,40.7-6c35.9-9.5,62.6-30.8,79.3-63.2,9-17.6,15-37.5,18.3-61,1.2-8.4,2.1-17.6,2.9-28.9,1-14,1.7-30.5-1-47.6a136.7,136.7,0,0,0-17.6-49.4c-11.7-19.6-28.5-36-49.8-48.6-23.2-13.8-50.2-22.9-82.7-27.7-10-1.5-19.2-2.5-27.9-3s-18.3-.6-27.2-.6H679.2l-.7-44.8,15.1-.2,27.2-.7,33.1-.8c11.1-.3,23.7-.5,36.2-2,17.4-2,32.4-5.8,45.8-11.6,27.7-11.9,47.4-31.6,58.5-58.7a145.7,145.7,0,0,0,10.4-46.8c.7-12.2,1.1-25.1,1.2-41.9a170.9,170.9,0,0,0-4.5-40.9c-6.5-27.1-19.3-50.2-38-68.6-15.7-15.4-34.5-26.7-57.3-34.7-21.2-7.4-44.4-11.3-70.9-12l-10.3-.2a143.1,143.1,0,0,0-24.4,1.8c-32.4,5.5-58.6,21.9-77.8,48.7-10.2,14.3-17.9,30.7-23.6,50.3s-9.1,43.2-9.8,68.6c-.3,10.7,0,22,1,36.6.4,6.8.5,13.5.6,20.6,0,2.3.1,4.7.1,7h-5.5c-9-.4-14-4.3-16.5-13.1-1.3-4.7-1.9-9.9-2-17-.1-18.9-.1-38.1-.1-56.6,0,0,0-42,0-61.2q0-32.8,0-65.7v-.3a44.4,44.4,0,0,0-.4-6.8c-3.3-21.7-10.3-41.2-21-58.1s-22.3-27.5-37.2-35.7a98.1,98.1,0,0,0-47.8-12.3,110.1,110.1,0,0,0-12.1.7,83.2,83.2,0,0,0-54.8,28.5,102.1,102.1,0,0,0-19.1,32.7c-6.5,17.4-9.6,35.9-9.7,56.7,0,8.5.1,17,.3,25.3q.1,4.8.2,9.6.4,24,.9,47.9l.9,48.1q.4,22.1.8,44.2l.3,17.1q.9,46.1,1.7,92.2.4,19.8.8,39.7l.3,14.5H348.1v-3.3q-.1-5.5-.1-11l-.3-22.3q-.8-53.1-1.5-106.2-.5-32-1-64-.4-27.4-.8-54.8-.8-54.9-1.6-109.9-.1-5.2-.2-10.4c-.2-10.4-.3-21.1-.3-31.7a224.2,224.2,0,0,0-3.4-42.1c-3.6-19.7-9.4-36.4-17.9-50.9-20.7-35.8-52.4-55.4-94.2-58.4-3.6-.3-7.3-.4-11.1-.4h0c-5.9,0-12,.3-18.7.9-15.6,1.5-29.2,4.6-41.4,9.6-25.8,10.5-44.2,28.5-54.8,53.3-5.9,13.9-9.1,29.3-9.7,46.9-.6,16.1-.7,32.1-.7,47.7,0,7.2.1,14.4.3,21.4q.1,3.9.2,7.9l.2,11.2c.2,11.4.4,23.1.7,34.7q.6,25,1.4,50,.4,14.6.8,29.3.2,8.1.4,16.1.3,10.3.5,20.5l.3,10.4c.7,23,1.4,46.7,2.2,70.1.3,10.3.8,21.2,1.7,32.1a316.2,316.2,0,0,0,13.1,66c7.2,23.2,16.3,42.7,27.7,59.7,14.6,21.6,31.7,37.5,52.4,48.5a128,128,0,0,0,53.6,15c5.3.3,10.6.4,15.7.4h1.1v3c.1,8,.2,16.2.2,24.3.1,23.8.2,49.4.3,78.3,0,3.7,0,7.5-.1,11.2,0,5.7-.1,11.5,0,17.4a132.8,132.8,0,0,0,5.6,36.7c9.2,30.1,28.7,50.1,57.9,59.2a114.8,114.8,0,0,0,34.3,5.1c3.5,0,7.1-.1,10.7-.4,28.2-2.2,50.8-15.2,67.2-38.4,8.6-12.2,14.6-26.5,18.5-43.7a191.5,191.5,0,0,0,4.2-47.3c-.7-26.9-1.2-54.3-1.7-80.8q-.2-12.1-.5-24.2Z" />
    <path id="01_stone" class="st0" d="M677.4,497.2c-.1-7.7-.2-15.7-.4-23.6-.1-3.2-.3-6.2-.5-9.2s-.3-3.5-.4-5.3c-1.2-22.4.2-42.3,4.4-60.9,2.3-10,5.1-17.9,8.9-24.9l1.8-3.2c6.8-11.1,16.1-16.4,29.4-16.7h6.9c16.3,0,29.8,1.5,42.3,4.9,10.2,2.7,18.1,6,24.8,10.5,12,7.9,19.5,19,23,33.9a81.7,81.7,0,0,1,2.1,19.5c-.1,12.7-.5,25.6-1.1,38.1a62.6,62.6,0,0,1-3.6,17.8,20.5,20.5,0,0,1-11.3,12.4c-5.5,2.6-11.8,4.3-19.9,5.5s-19.1,1.6-29.2,1.8h-3.2l-73.9,1.7Z" />
  
</g>
<g id="ROAD">
	<path id="TRACK_asphalt" class="st2" d="M338.3,640.7h43.1c0-1.3,0-2.5,0-3.7q-.6-30.3-1.3-60.6-1.1-54.6-2.1-109.3-.6-34.4-1.3-68.8t-1.3-71.4c-.2-11.6-.6-23.2-.5-34.7.1-18.2,2.7-36.1,9.1-53.2a93,93,0,0,1,17.2-29.6,73.3,73.3,0,0,1,48.4-25.2c19-2.1,37.1,1.2,54,10.4,14.1,7.7,25,18.8,33.5,32.3,10.5,16.6,16.7,34.8,19.6,54.2a38.3,38.3,0,0,1,.3,5.7q0,61.6,0,123.2,0,30.2.1,60.3a72,72,0,0,0,2.4,19.7c3.7,12.8,12.3,19.8,25.7,20.3,4.8.2,9.7,0,14.5,0l1.5-.3c0-2.8,0-5.5,0-8.2-.2-9.9-.1-19.8-.7-29.7-.8-11.9-1.3-23.8-1-35.7.6-22.4,3.2-44.5,9.4-66.1,4.8-16.9,11.8-32.9,22.1-47.2q26.5-36.9,71.4-44.7c10.8-1.9,21.8-1.8,32.8-1.5,23.2.6,45.9,3.8,67.9,11.4,20.1,7,38.3,17.4,53.6,32.4,18.1,17.7,29.4,39.2,35.3,63.8a160.2,160.2,0,0,1,4.2,38.5c-.1,13.8-.4,27.6-1.2,41.3a135.2,135.2,0,0,1-9.7,43.6c-10.3,25.1-28.4,42.6-53.2,53.3-13.7,5.9-28.2,9.1-43,10.8-11.7,1.4-23.5,1.7-35.3,1.9l-60.3,1.5L672,576h-3.6l1,64.4a4.5,4.5,0,0,0,1.2.4c7.8-.1,15.6-.2,23.4-.2,10.6.1,21.3.1,31.9.7,9,.5,18,1.5,27,2.9,27.9,4.2,54.7,11.9,79.1,26.5,19,11.3,34.8,26,46.3,45.2a126.1,126.1,0,0,1,16.3,45.8c2.4,15.1,2,30.2.9,45.4-.7,9.4-1.5,18.9-2.8,28.2-2.8,20.1-7.9,39.6-17.3,57.8-15.6,30.3-40.1,49.5-73,58.1a186.8,186.8,0,0,1-38.6,5.6,315.1,315.1,0,0,1-38.2-.1c-17.8-1.3-35.3-4.3-51.8-11.6-27.1-11.9-45.3-32.2-55.8-59.6a166.2,166.2,0,0,1-9-37.6c-1.8-13.5-2.1-27.1-2.5-40.6-.7-31-1.4-62.1-2-93.1,0-2.2-.2-4.4-.3-6.8H449.4c0,.9,0,1.8,0,2.6.8,37.6,1.4,75.2,2.3,112.7a182.3,182.3,0,0,1-4,44.8c-3.2,14.4-8.4,28-16.9,40.2-14.6,20.7-34.5,32.2-59.8,34.2a108.1,108.1,0,0,1-41.2-4.2c-26.5-8.3-43.2-26.3-51.3-52.6a122.3,122.3,0,0,1-5.2-33.9c-.2-9.5.1-18.9,0-28.4q-.1-39.2-.3-78.3c-.1-11.5-.2-22.9-.4-34.4,0-.7-.1-1.5-.1-2.5l-3.4-.2c-7.6-.2-15.2-.1-22.7-.6a117.6,117.6,0,0,1-49.4-13.9c-20.3-10.8-36.1-26.4-48.8-45.3s-20.2-36.9-26.5-57.1a304.9,304.9,0,0,1-12.7-63.9c-.9-10.5-1.3-21-1.7-31.5-.9-26.8-1.7-53.7-2.5-80.5-.4-12.2-.6-24.4-1-36.6-.7-26.4-1.5-52.8-2.2-79.2-.4-15.3-.6-30.5-.9-45.8-.2-9.7-.5-19.4-.5-29.1.1-15.8.2-31.6.7-47.4s3.1-29.5,8.9-43.3c9.7-22.9,26.4-38.6,49.3-48,12.4-5.1,25.3-7.7,38.6-8.9a168.7,168.7,0,0,1,28.1-.5c38.1,2.7,67.1,20.3,86.3,53.5,8.6,14.8,13.6,31,16.7,47.7a215.6,215.6,0,0,1,3.3,40.2c-.1,14.1.2,28.2.4,42.3q.8,54.9,1.6,109.9.9,59.4,1.8,118.7.9,64.3,1.8,128.5c.1,6.9.2,13.9.3,20.8C338.2,638.4,338.3,639.4,338.3,640.7Zm-66.5.1c0-1.3,0-2.1,0-2.9q-1-73.6-2.1-147.1c-.3-20.8-.5-41.7-.8-62.5q-.8-55.3-1.8-110.5-.6-36-1.1-72c-.1-9.6-.2-19.2-.1-28.7a143.9,143.9,0,0,0-2.7-30.8c-2-9.6-4.9-18.9-10.4-27.3a35.5,35.5,0,0,0-22.6-15.9c-8.9-2-17.8-1.5-26.7-.8a64.6,64.6,0,0,0-19.6,4.5,22.8,22.8,0,0,0-14.2,15.8,71.9,71.9,0,0,0-2.5,16.8c-.7,22.2-1.1,44.4-.3,66.6.6,19.6.9,39.1,1.4,58.7q.9,34.2,1.8,68.5t1.9,66.3c.6,20.7,1.4,41.4,1.9,62.2a252.6,252.6,0,0,0,3.3,35.5A231.2,231.2,0,0,0,190,584.5c5.1,12.9,11.4,25.1,20.7,35.6s19,16.6,31.8,19.3C252.1,641.5,261.8,640.8,271.9,640.8Zm330.2-64.2H587.4a95.6,95.6,0,0,1-45.9-11c-22.3-11.6-36.6-29.8-44.5-53.4-4.7-13.9-6.2-28.3-6.2-42.9q0-88.1,0-176.2a42.6,42.6,0,0,0-1.5-11.8c-2.3-8.3-5.5-16.1-10.9-22.9s-11.9-8.7-19.8-8.6a9.5,9.5,0,0,0-8.6,4.9,55.6,55.6,0,0,0-4.3,9.1,90.1,90.1,0,0,0-4.4,30.2q.4,32.1,1,64.1c.5,25.9,1,51.8,1.5,77.7.3,17.8.5,35.6.9,53.4q.8,39.8,1.6,79.6.7,34.6,1.4,69.2c0,.9.2,1.8.3,2.8h2.4l151.9-.2.2-.2.3-.3Zm68.4,130.7c0,.9,0,1.4,0,2q.4,19.6.8,39.1c.5,21.6.9,43.1,1.6,64.7.3,8.7.9,17.4,1.8,26.1a85,85,0,0,0,6.8,26.5,35.7,35.7,0,0,0,21.1,19.7c8.3,3,16.9,4.3,25.6,5.1,11.8,1,23.6.6,35.3-.1a110,110,0,0,0,23-3.6c10.8-3,19.9-8.5,26.2-18A79.7,79.7,0,0,0,823,844.4c5.6-21.9,7.4-44.2,6.4-66.6-.8-18.5-8.8-33.5-23.6-44.8-10.3-7.9-22.1-13-34.4-16.8a201.5,201.5,0,0,0-38.9-7.7,288.5,288.5,0,0,0-34.3-1.6l-24,.3Zm-2.9-197.8h4.2l79.9-1.8c11.3-.3,22.5-.3,33.7-2a80.5,80.5,0,0,0,22.7-6.4,30.5,30.5,0,0,0,16.5-18.2,72.4,72.4,0,0,0,4.1-20.7q.9-19.2,1.1-38.5a91.4,91.4,0,0,0-2.4-21.9c-3.9-16.8-12.7-30.3-27.2-39.9-8.5-5.6-17.9-9.2-27.7-11.8-17-4.5-34.4-5.6-52-5.1s-29.1,7.4-37.7,21.5l-2.1,3.5a103.7,103.7,0,0,0-9.9,27.5c-4.7,21-5.8,42.3-4.6,63.7.3,4.7.8,9.4.9,14.2.3,10.8.3,21.7.5,32.5C667.5,507.3,667.5,508.2,667.5,509.6ZM339.1,707.3c0,2.3,0,4.3,0,6.3q.3,57.5.6,115c0,7.1-.1,14.1,0,21.2a57.4,57.4,0,0,0,3,18,9.8,9.8,0,0,0,7.3,6.7,47.1,47.1,0,0,0,17.8,1,10,10,0,0,0,7.2-4.1,48,48,0,0,0,5.1-9c4.3-10.8,5.6-22.2,5.4-33.7-.3-22.2-1-44.4-1.5-66.6-.4-16.9-.6-33.9-1-50.8,0-1.2-.1-2.5-.2-3.9Z" />
	<circle id="START" class="st1" cx="436.3" cy="747.1" r="3.4"/>
</g>
</svg>
