<?xml version="1.0" encoding="utf-8"?>
<!-- Generator: Adobe Illustrator 21.0.2, SVG Export Plug-In . SVG Version: 6.00 Build 0)  -->
<svg version="1.1" id="SCENE_6" xmlns="http://www.w3.org/2000/svg" xmlns:xlink="http://www.w3.org/1999/xlink" x="0px"
	y="0px" viewBox="0 0 1024 1024" style="enable-background:new 0 0 1024 1024;" xml:space="preserve">
	<style type="text/css">
		.st0 {
			fill: #ffffff;
		}

		.st2 {
			display: none;
		}

		.st1 {
			fill: #64566D;
		}
	</style>
	<rect id="BACKGROUND_grass" y="0" width="1024" height="1024" />
	<g id="OBSTACLES">
		<path class="st0" d="M877,297.9c-11.3-27.1-22.2-59.5-42.9-81.2c-28.2-29.4-50.5-23-87.8-15.2c-71,14.9-132.1,25.8-204.2,14.8
		c-74.2-11.4-324.6-96-350.1,15.6c-26.4,115.6,139.7,196.9,216.2,252.3c83.4,60.5,316,239.1,126.8,321.2
		c-62.2,27-143.8,19.1-197.3-24.5c-29.1-23.7-54.1-54.3-81.4-80.1c-25.4-24-49.5-60.6-70.6-17.2c-23.4,48.2,24.4,138.3,69.3,157.2
		c63.3,26.7,139.6,19.7,206.7,16.1c70.4-3.8,410.9-15.6,332.8-146.5c-36.5-61.2-123.7-75.6-181-109.4c-57.6-34-119-70.4-166.3-117.8
		c-37.8-37.8-47.8-60.6-53.7-113.3c-3.6-32.1-16.8-84.7,12.6-111c46.7-41.7,187.6-13.7,238.1,4.5c34.9,12.6,68.5,24.1,97.4,47.3
		c28.8,23.2,49.8,57.7,78.5,79.5C876.1,432.9,884.5,340.5,877,297.9z"/>
	<path class="st0" d="M38.1,11.1C-2,64.5,15.6,140.8,15.6,206.1c0,94.6,0,189.2,0,283.8c0,152.9,7.5,347.6,7.5,500.4
		c34.5,0,105.3,21.2,110.4-23.4c0.7-6.6,153-9,153-9S210,955.4,153,928.4c-39.5-18.7-69.9-79.3-72.5-85.5
		c-14.5-35-23.7-77.1-19.6-118c7.2-71.8,22-197.9,100.1-226.1c93.2-33.6,151.5,105.1,203.4,157.7c21.6,21.9,70.4,61.3,87.2,13.4
		c12.9-36.8-31-59.3-55.7-76.3c-73.5-50.6-147.3-99.5-214.4-158.4C123.8,384.5,57.8,292.1,53.1,213.6c-2.3-38-8.2-87.7,13.1-116.1
		c18.6-24.9,65-50.9,92.8-56.4c41.2-8.2,88.6-7.5,130.7-7.5c43.3,0,97.1,4.5,138.3,16.4c55.5,16,115.2,49.5,171,73
		c38.3,16.1,95.2-30.1,135-47c48-20.4,70.8-34.9,127.5-30c55.3,4.8,97.5-12.4,153.1-12.4c0-7.5,0-15,0-22.5
		C689.1,11.1,363.6,11.1,38.1,11.1z"/>
	<path class="st0" d="M942,553.9c-6.3,5.9-25.7,6.8-33.9,4.3c-63.3-19.4-94.6-41-150.5-81c-47.1-33.7-118.9-117.6-173.4-115
		c-22.7,1.1-57.4,14.9-54.6,41c2.6,24.5,46.3,49.1,64.6,58.7c67.5,35.7,134.9,77,204.5,108.2c57,25.5,105.4,49.6,132.5,109.2
		c31.2,68.8,30.6,126.8-18.5,184.6c-81,95.4-294.1,77.7-408.3,81.9C335.7,952,167.6,952,47.3,957.5c-13.3,0.6-24.2,10.9-24.2,24.2
		v8.6c0,13.4,10.8,24.2,24.2,24.2H1001c13.4,0,5-410.6,5-410.6c0-21.1,6.5-116.4-9-102L942,553.9z"/>
	<path class="st0" d="M811.5,41c37.7,7.5,80.1,11.9,103.4,45.9c23.4,34.2,29.2,91.2,37.6,130.1c16,73.5,41,148.6,41,224
		c0,191.2,0,382.3,0,573.5c7,0,14,0,21,0c0-325.5,0-659,0-984.6C946.9,31,879.2,40,811.5,41z"/>
	</g>
	<g id="ROAD">
		<path id="TRACK_asphalt" class="st1" d="M256.6,948.5c-14.6,0-26.8-0.5-37.5-1.8s-19.8-3.2-28.1-6c-21.4-7.3-42-21.5-58.9-37.1
			s-30.2-32.3-37.1-44.7c-23.1-42.1-29.4-102.4-25.2-159.8C74,641.8,88.6,587.5,107,557.6c4.9-8,10.3-15.3,16.1-21.8
			c5.8-6.5,11.9-12.1,18.4-16.8c8.6-6.3,17.7-11,27.1-14c9.4-3,19.1-4.4,28.9-4.1c14.6,0.5,27.3,5.8,38.2,12.7s19.9,15.5,26.9,22.9
			c6.6,7,13.4,15,20.4,23.7s14.2,18,21.6,27.6c13.8,17.9,28.5,37,44.2,54.9c15.7,17.9,32.3,34.6,49.9,47.6c17,12.5,38.5,5.1,49.4-11
			c10.9-16,11.2-40.7-14.1-62.4c-70.9-49-133.7-96.9-180.8-134.9s-78.7-65.9-87.2-75.1c-29.5-32-54.9-75.4-73.1-116.1
			S63.8,212.2,63,190.9C54.8,134.4,71.2,99.6,96.8,78s60.6-30.1,89.6-34.1c149.3-11,247.5,11,311.4,36s93.7,53,106.2,54
			c18.9,1.6,63.2-18.9,106.3-39.8c43.1-20.9,85.1-42.2,99.4-42.2c0,0,18.1-4,40.6,0.3c22.6,4.3,49.7,16.8,67.7,49.8
			c110.5,365.5,65.7,453.6-9.4,447.3c-75.1-6.3-180.4-106.9-190.8-119c-1.4-1.6-18.9-17.2-40.4-33.3c-21.5-16.2-46.9-33-64.1-37.2
			c-19.6-4.7-46.9-1.7-65.6,8.8C529,379.1,519,397.1,534,422.3c10.9,9.6,23.9,19.7,38.8,30.1c14.9,10.5,31.8,21.3,50.6,32.5
			c34.2,20.3,69.5,38.6,99.2,52.9s54,24.6,65.9,28.8c52,18.5,92.4,45.6,119.8,79.8c27.4,34.2,41.7,75.4,41.7,122
			c0,15.3-1.9,29.7-5.8,43.1c-3.8,13.4-9.6,25.8-17.2,37.1c-6.6,9.8-14.5,18.5-23.7,26.3c-9.2,7.8-19.6,14.6-31.3,20.4
			c-18.2,9-37.6,14.6-56.2,18.4c-18.6,3.8-36.3,5.8-51.3,7.5l-1,0.1l-1,0.1c-26,2.9-93.7,6.7-175.1,10.9
			c-81.4,4.2-176.5,8.8-257.6,13.3c-14.8,0.9-28.2,1.6-40.3,2.1C277.4,948.2,266.5,948.5,256.6,948.5z M455,867.9
			c88.7-4.9,152.7-12.6,194.5-19.1C691.3,842.3,711,837,711,837c35.5-7,62-21.3,79.6-36.3S817,770,817,760.4c0-9.2,2-24-4.7-41.6
			c-6.7-17.6-22.1-37.8-56.9-57.7c-15.7-5.5-43.5-17.4-76.3-33.2c-32.8-15.8-70.7-35.6-106.6-56.9c-21.5-12.8-41-25.3-58.4-37.6
			c-17.5-12.3-32.9-24.3-46.1-36c-19.1-16.9-34-33.4-44.8-49.6c-10.8-16.2-17.4-32.2-20.1-48.1c-2.9-17.5-7.9-43.4-8.4-67.9
			c-0.5-24.5,3.4-47.7,18.3-59.5c29.4-23.4,67.9-30,107.8-28.6c39.9,1.4,81.2,10.8,116.2,19.2c27.5,6.6,54.3,18.1,79.4,33.7
			s48.3,35.4,68.5,58.5c1.5,1.7,2.9,3.4,4.4,5c1.5,1.7,2.9,3.4,4.4,5.1c6.6,7.7,13.1,15.2,19.4,22s12.3,13,18.1,18
			c15.4,10.4,29.9,1,39.7-18.1c9.8-19.1,14.8-47.9,11.1-76.5c-3.8-29.5-18-59.7-35.3-82.6c-17.3-22.9-37.8-38.6-54-39.1
			c-7.6,0.9-16.3,2.6-25.5,4.6c-9.2,2.1-19.1,4.5-29.2,7.1c-19.3,4.8-39.6,9.8-60.8,13.7c-21.2,3.9-43.3,6.5-66.1,6.5
			c-3.8,0-7.6-0.1-11.5-0.2c-3.8-0.1-7.7-0.4-11.6-0.7c-15.5-1.3-33-4-51.7-7.3c-18.8-3.4-38.8-7.5-59.4-11.8
			c-31.6-6.6-65.2-13.5-98.2-18.7c-33-5.2-65.5-8.7-94.7-8.2c-38.3,0.6-60.6,7.6-73.9,15.9s-17.6,17.8-19.9,23.3
			c-0.9,2.4-7.4,20.6-5,47.4c2.3,26.9,13.4,62.4,47.6,99.5c5.3,5.8,18.6,16.3,35.3,28.6s36.7,26.6,55.5,39.9
			c27.2,19.3,57.7,41,88.1,63.6c30.3,22.7,60.5,46.4,87,69.6c37.6,33,64,62.2,80.4,88.9s22.5,51.1,19.5,74.7
			c-1.3,10-5,24.3-15.2,38.5c-10.1,14.3-26.7,28.6-53.6,38.8c-17.5,6.6-35,10.6-52.5,12.1s-35,0.3-52.4-3.5
			c-14.4-3.1-28.9-8-43.2-14.8c-14.3-6.8-28.5-15.3-42.4-25.6c-23.3-17.2-48.4-48.6-71.7-74.7c-23.3-26-44.7-46.7-60.5-42.3
			c-37.5,11-39.5,50.3-29.1,89.7s33.3,79.1,45.5,90.9c15.3,20.2,63.9,29.1,113.4,32.6S436.6,868.9,455,867.9z M190.1,213.1
			c-0.1,0.1-0.1,0.1-0.1,0.2c0,0.1,0,0.1-0.1,0.2l-0.2,0.4l-0.1,0.4l0.1-0.4l0.2-0.3c0.1,0,0.1-0.1,0.1-0.1
			C190,213.4,190.1,213.2,190.1,213.1z" />
		<circle id="START" cx="866.6" cy="702.1" r="3.4" class="st2" />
	</g>
	<g id="layout">
	</g>

</svg>