<?xml version="1.0" encoding="utf-8"?>
<!-- Generator: Adobe Illustrator 21.0.2, SVG Export Plug-In . SVG Version: 6.00 Build 0)  -->
<svg version="1.1" id="SCENE_3" xmlns="http://www.w3.org/2000/svg" xmlns:xlink="http://www.w3.org/1999/xlink" x="0px" y="0px"
	 viewBox="0 0 1024 1024" style="enable-background:new 0 0 1024 1024;" xml:space="preserve">
<style type="text/css">
	.st0{fill:#FFFFFF;}
	.st1{fill:#64566D;}
	.st2{display:none;}
	.st3 {fill: rgba(255,255,255,0.7);}
</style>
<rect id="BACKGROUND_grass" y="0" width="1024" height="1024"/>
<g id="OBSTACLES">
	<path id="01_stone2" class="st0" d="M373,865.8c-3.4,0-6.9-0.4-10.2-1.2h-0.1v-0.3c-1.8-4.8-2.7-9.8-2.7-14.9
		c-0.1-4.2-0.1-8.6,0-12.9c0-2.7,0-5.4,0-8.2c-0.1-26.1-0.3-52.3-0.4-78.6l-0.2-32.7h26.8l0.2,12.7c0.2,10.7,0.4,21.5,0.7,32.2
		c0.2,8.1,0.4,16.3,0.7,24.5c0.3,13.8,0.8,28.1,1,42.1c0.2,11.7-1.6,21.5-5.2,29.9c-1.2,2.4-2.7,4.7-4.3,6.8h-0.6
		c-1.8,0.2-3.6,0.3-5.3,0.3L373,865.8z"/>
	<path id="02_stone2" class="st0" d="M478.3,568.2c-0.2-8.5-0.4-17.1-0.6-25.7c-0.4-17.9-0.9-35.9-1.2-54
		c-0.2-9.3-0.4-18.6-0.6-27.9c-0.1-9.3-0.3-17.8-0.4-25.5c-0.2-12.1-0.4-24.1-0.8-36.2c-0.3-13.8-0.6-27.6-0.9-41.5
		c-0.6-25.9-0.9-45.7-1.1-64.1c-0.3-9.1,1.1-18.1,4.2-26.8c1.1-2.5,2.3-4.9,3.9-7.2h0.9c5.7,0,9.3,1.4,12.3,4.8s7.4,10.8,10.1,19.4
		c0.9,3,1.3,6,1.3,9.1c-0.1,60.3,0,120.2,0,176.5c0,17.5,2.4,32.6,7.4,46.1c10,26.8,28.4,46.7,54.9,59.2c16.9,8,35.6,12.1,54.6,12.1
		h6.7l0.8,44.1H479.8C479.4,617,478.3,568.2,478.3,568.2z"/>
	<path id="03_stone2" class="st0" d="M260.6,630.5c-5.9,0.1-11.7-0.3-17.4-1.3c-11.2-2.2-20.8-7.4-29.3-16.2
		s-14.9-18.8-21-32.6c-6.2-14.7-10.8-29.9-13.4-45.4c-2-11.3-3.2-22.7-3.4-34.1c-0.3-14-0.9-28.2-1.3-42c-0.2-6.7-0.4-13.5-0.7-20.3
		v-0.7c-0.7-21.5-1.4-43.7-2.1-65.7c-0.8-24.4-1.4-46.8-2-68.6c-0.2-7.4-0.4-14.8-0.6-22.2c-0.2-12-0.6-24.3-1-36.5
		c-0.7-19-0.6-39.4,0.3-66.1c0.1-4.9,0.9-9.8,2.3-14.5c1.4-4.6,4.1-7.4,9.2-9.2c5.9-2.1,12.1-3.3,18.4-3.7c4.3-0.3,8.9-0.6,13.2-0.6
		c4.4,0,8.8,0.4,13.1,1.2c7.7,1.5,14.2,5.6,18.3,11.6c4.4,6.2,7.7,13.8,10,23.9c2.1,9.4,3,19,2.8,28.6c-0.1,8.4,0,17.6,0.1,29
		c0.3,17.2,0.6,34.4,0.9,51.6l1,53.4c0.4,25.9,0.9,51.7,1.3,77.6c0.2,11.9,0.4,23.7,0.6,35.6c0.1,9,0.2,18,0.3,27
		c0.6,33.2,1,66.5,1.6,99.8l0.7,40.3L260.6,630.5z"/>
	<path id="04_stone2" class="st0" d="M796.8,880.9c-5.7,0-10.9-0.2-15.8-0.6c-7.8-0.6-16.9-1.6-25.5-4.5
		c-7.8-2.4-14-7.6-17.1-14.4c-3.7-7.4-5.9-15.3-6.7-23.4c-1-8.8-1.7-17.3-1.9-25.4c-0.6-16.4-1-33-1.3-49.1
		c-0.1-5.1-0.2-10.3-0.3-15.5c-0.2-9.3-0.4-18.5-0.7-27.7v-3.4h4.2l15.5-0.2h4.4c10.9,0,21.7,0.6,32.4,1.6
		c13.9,1.2,27.6,3.6,41.1,7.3c14.4,4,25.4,8.8,34.8,15.2c13.9,9.6,21.1,21.8,21.8,37.3c1.1,23-1.1,43.8-6.8,63.8
		c-2,7.5-5.3,14.7-10,21.2c-5,6.8-12.2,11.2-22.8,13.9c-7.6,1.8-15.3,2.9-23.2,3.3c-6,0.3-14,0.7-21.9,0.7H796.8z"/>
	<path id="05_stone2" class="st0" d="M723.7,496.7c-0.1-7.7-0.2-15.7-0.4-23.6c-0.1-3.2-0.3-6.2-0.6-9.2
		c-0.2-3-0.3-3.5-0.4-5.3c-1.3-22.4,0.2-42.3,4.9-61c2.6-10,5.7-17.9,9.9-24.9l2-3.2c7.6-11.1,17.9-16.4,32.6-16.7h7.7
		c18.1,0,33.1,1.5,47,4.9c11.3,2.7,20.1,6,27.5,10.5c13.3,7.9,21.7,19,25.5,33.9c1.7,6.4,2.4,12.9,2.3,19.5
		c-0.1,12.7-0.6,25.6-1.2,38.1c-0.3,6.1-1.7,12.1-4,17.8c-2,5.6-6.6,10.1-12.5,12.4c-6.1,2.6-13.1,4.3-22.1,5.5
		c-9,1.2-21.2,1.6-32.4,1.8h-3.6l-82.1,1.7L723.7,496.7z"/>
	<path id="06_stone2" class="st0" d="M0,0v1024h369.8v-72.1c-12-0.2-24.1-1.9-35.5-5.1c-32.4-9.2-54.1-29.2-64.3-59.3
		c-4-11.9-6.1-24.3-6.2-36.7c-0.1-5.9,0-11.7,0-17.4c0.1-3.7,0.1-7.5,0.1-11.2c-0.1-29-0.2-54.6-0.3-78.4c0-8.1-0.1-16.3-0.2-24.3
		v-3h-1.2c-5.6,0-11.5-0.1-17.4-0.4c-20.9-1-41.1-6.1-59.5-15c-23-11-42-26.9-58.2-48.5c-12.7-17.1-22.8-36.6-30.8-59.8
		c-7.4-21.6-12.3-43.7-14.5-66.1c-1-10.9-1.6-21.8-1.9-32.1c-0.8-23.5-1.6-47.2-2.4-70.2L77.1,414c-0.2-6.8-0.4-13.6-0.6-20.5
		c-0.1-5.3-0.3-10.7-0.4-16.1c-0.3-9.8-0.6-19.6-0.9-29.3c-0.6-16.7-1.2-33.3-1.6-50c-0.4-11.6-0.6-23.3-0.8-34.7l-0.2-11.2
		c-0.1-2.7-0.1-5.3-0.2-7.9c-0.2-7-0.3-14.2-0.3-21.4c0-15.6,0.1-31.6,0.8-47.7c0.7-17.6,4.2-33,10.8-46.9
		c11.8-24.9,32.3-42.9,60.9-53.4c13.6-5,28.7-8.1,46-9.6c7.5-0.6,14.2-0.9,20.8-0.9c4.2,0,8.3,0.1,12.3,0.4
		c46.4,3,81.6,22.7,104.6,58.5c9.5,14.5,15.9,31.2,19.9,50.9c2.8,13.9,4,28,3.8,42.1c0,10.6,0.1,21.3,0.3,31.7
		c0.1,3.5,0.1,6.9,0.2,10.4c0.6,36.7,1.2,73.4,1.8,110c0.3,18.4,0.6,36.6,0.9,54.9c0.3,21.4,0.8,42.8,1.1,64.1
		c0.6,35.4,1.1,70.9,1.7,106.3l0.3,22.3c0,3.7,0,7.3,0.1,11v3.1h25.5l-0.3-14.5c-0.3-13.3-0.6-26.5-0.9-39.7
		c-0.6-30.7-1.2-61.6-1.9-92.3l-0.3-17.1c-0.3-14.7-0.6-29.5-0.9-44.2l-1-48.1c-0.3-15.9-0.7-31.9-1-47.9c-0.1-3.2-0.1-6.4-0.2-9.6
		c-0.2-8.3-0.3-16.8-0.3-25.3c0.1-20.9,3.6-39.4,10.8-56.8c4.8-12,11.9-23.1,21.2-32.7c15.5-16.2,37.4-26.4,60.9-28.5
		c4.4-0.5,9-0.7,13.4-0.7c18.6,0,36.9,4.2,53.1,12.3c16.5,8.2,29.4,18.8,41.3,35.7c11.9,17,19.6,36.5,23.3,58.2
		c0.3,2.3,0.4,4.5,0.4,6.8v0.3c0,22,0,43.9,0,65.8c0,19.3,0,61.3,0,61.3c0,18.6,0,37.8,0.1,56.7c0.1,7.1,0.8,12.3,2.2,17
		c2.8,8.8,8.3,12.7,18.3,13.1h6.1c0-2.3-0.1-4.7-0.1-7c-0.1-7.1-0.3-13.8-0.7-20.6c-1.1-14.6-1.4-25.9-1.1-36.6
		c0.8-25.5,4.6-49.1,10.9-68.7s14.9-36,26.2-50.3c21.3-26.8,50.4-43.2,86.4-48.7c9-1.3,18-1.9,27.1-1.8l11.4,0.2
		c29.4,0.7,55.2,4.6,78.7,12c25.3,8,46.2,19.3,63.6,34.7c20.8,18.5,35,41.6,42.2,68.7c3.4,13.4,5.2,27.1,5,40.9
		c-0.1,16.8-0.5,29.7-1.3,41.9c-1,16.1-4.8,31.9-11.5,46.8c-12.4,27.2-34.2,46.9-65,58.8c-14.9,5.8-31.6,9.6-50.9,11.6
		c-13.9,1.5-27.9,1.7-40.2,2l-36.8,0.8l-30.2,0.7l-16.8,0.2l0.8,44.8h22c9.9,0,20.5,0.1,30.2,0.6s19.9,1.5,31,3
		c36.1,4.8,66,13.9,91.8,27.7c23.7,12.6,42.3,29,55.3,48.6c10,15.2,16.6,32,19.5,49.4c3,17.1,2.2,33.6,1.1,47.6
		c-0.9,11.3-1.9,20.5-3.2,28.9c-3.6,23.6-10.3,43.5-20.3,61.1c-18.6,32.5-48.2,53.8-88.1,63.3c-14.8,3.4-30,5.4-45.2,6
		c-8.6,0.4-15.5,0.6-23,0.6s-14.2-0.2-20.8-0.6c-24.3-1.6-43.8-5.5-61.2-12.4c-32-12.7-54.8-34.7-67.8-65.3
		c-5-11.7-8.6-25.6-10.7-39.9s-2.5-28.9-2.8-41.7c-0.6-20.6-1.2-41.4-1.6-61.5c-0.3-9.5-0.5-19.1-0.7-28.7l-149.9,0
		c0.3,8.1,0.5,16.1,0.6,24.2c0.6,26.5,1.1,54,1.9,80.9c0.6,15.9-0.9,31.8-4.7,47.3c-4.3,17.2-11,31.5-20.5,43.7
		c-18.2,23.2-43.3,36.2-74.6,38.4c-2.2,0.2-12.6,0.3-14.8,0.3v72.2l654.6,0V0H0z"/>

</g>
<g id="ROAD">
	<path id="TRACK_cobblestone" class="st1" d="M346.8,640.7l47.7-0.1l-7.2-348.8c0,0,3-36.1,10.1-53.3c4.3-10.8,10.8-20.9,19.1-29.6
		c13.7-14.3,33-23.3,53.9-25.2c21.1-2.1,41.3,1.2,60.1,10.4c15.7,7.7,27.9,18.8,37.3,32.3c11.7,16.6,18.5,34.8,21.8,54.3
		c0.2,1.9,0.3,169,0.4,189c-0.1,6.6,0.8,13.2,2.7,19.6c4.1,12.7,13.5,19.7,28.4,20.2c5.3,0.2,17.7-0.3,17.7-0.3s-2.2-61.5-1.9-73.4
		c0.7-22.4,3.6-44.5,10.4-66.2c5.3-16.9,13.1-32.9,24.4-47.2c19.5-24.6,45.9-39.5,79.1-44.7c12-1.9,24.1-1.8,36.3-1.5
		c25.7,0.6,50.9,3.8,75.2,11.4c22.2,7,42.4,17.4,59.3,32.4c20,17.7,32.5,39.2,39.1,63.9c3.2,12.6,4.8,25.5,4.7,38.5
		c-0.1,13.8-0.4,27.6-1.3,41.3c-0.9,15-4.6,29.7-10.8,43.6c-11.4,25.1-31.4,42.6-58.9,53.4c-15.2,5.9-31.2,9.1-47.6,10.8
		c-13,1.4-133.6,4-133.6,4V640c0,0,2.4,0.3,2.9,0.4c8.7-0.1,17.3-0.2,26-0.2c11.8,0.1,23.7,0.1,35.4,0.7c10,0.5,20,1.5,30,2.9
		c31,4.2,60.7,11.9,87.8,26.5c21.1,11.3,38.6,26,51.4,45.2c9.3,14.1,15.4,29.6,18.1,45.8c2.7,15.1,2.2,30.2,1,45.4
		c-0.8,9.4-1.7,18.9-3.1,28.2c-3.1,20.1-8.8,39.6-19.2,57.9c-17.3,30.3-44.5,49.5-81.1,58.2c-14,3.2-28.4,5.1-42.9,5.6
		c-14.1,0.7-28.3,0.7-42.4-0.1c-19.8-1.3-39.2-4.3-57.5-11.6c-30.1-11.9-50.3-32.2-62-59.7c-5-12.1-8.3-24.8-10-37.6
		c-2-13.5-5.3-140-5.3-140H470.1c0,0,2,77.3,3,114.8c0.6,15-0.9,30.1-4.4,44.8c-3.6,14.4-9.3,28-18.8,40.2
		c-16.2,20.7-38.3,32.2-66.4,34.2c-15.4,1.3-31-0.2-45.7-4.2c-29.4-8.3-48-26.3-57-52.6c-3.7-11-5.7-22.4-5.8-33.9
		c-0.2-9.5,0.1-18.9,0-28.4c-0.1-26.1-0.9-115.3-0.9-115.3s-20.7-0.3-29-0.8c-19.2-0.9-38-5.7-54.9-13.9
		c-22.5-10.8-40.1-26.4-54.2-45.3s-22.4-36.9-29.4-57.2c-7.2-20.8-12-42.2-14.1-64c-1-10.5-9.5-334.6-9-350.4
		c0.6-15.8,3.4-29.5,9.9-43.3c10.8-22.9,29.3-38.6,54.7-48c13.8-5.1,28.1-7.7,42.9-8.9c10.3-0.9,20.8-1.1,31.2-0.5
		c42.3,2.7,74.5,20.3,95.8,53.6c9.5,14.8,15.1,31,18.5,47.7C339.3,189.5,346.8,640.7,346.8,640.7z M273.6,640.6
		c0-1.3-7.3-444.8-9.5-454.9c-2.2-9.6-5.4-18.9-11.5-27.3c-5.7-8.1-14.7-13.9-25.1-15.9c-9.9-2-19.8-1.5-29.6-0.8
		c-7.4,0.5-14.8,2-21.8,4.5c-7.8,2.6-13.8,8.5-15.8,15.8c-1.7,5.5-2.6,11.1-2.8,16.8c-0.8,22.2,9,346.4,11.1,358.1
		c2.9,16.2,7.7,32,14.2,47.3c5.7,12.9,12.7,25.1,23,35.6c10.3,10.5,21.1,16.6,35.3,19.3c10.7,2.1,21.4,1.4,32.6,1.4H273.6z
		 M640.2,576.6H624c-17.8,0.2-35.3-3.5-51-11c-24.8-11.6-40.6-29.7-49.4-53.3c-5.2-13.9-6.9-28.2-6.9-42.8c0-58.7,0-117.2,0-175.9
		c0.1-4-0.6-7.9-1.7-11.8c-2.6-8.3-6.1-16-12.1-22.8c-6-6.8-13.2-8.7-22-8.6c-4-0.1-7.7,1.8-9.5,4.9c-1.9,2.9-3.4,5.9-4.8,9.1
		c-3.6,9.7-5.2,19.9-4.9,30.1c0.3,21.3,7.1,346,7.1,346l171.7-0.2l0.2-0.2l0.3-0.3L640.2,576.6z M715.5,707.1c0,0.9,0,1.4,0,2
		c0.3,13.1,0.6,26.1,0.9,39.1c0.6,21.6,1,43.1,1.8,64.8c0.3,8.7,1,17.4,2,26.1c0.9,9.1,3.4,18.1,7.6,26.5
		c4.3,9.2,12.9,16.4,23.4,19.7c9.2,3,18.8,4.3,28.4,5.1c13.1,1,26.2,0.6,39.2-0.1c8.7-0.4,17.2-1.6,25.5-3.6c12-3,22.1-8.5,29.1-18
		c5.3-7.5,9.2-15.7,11.5-24.4c6.2-21.9,8.2-44.2,7.1-66.7c-0.9-18.5-9.8-33.5-26.2-44.8c-11.4-7.9-24.5-13-38.2-16.8
		c-14.1-3.8-28.5-6.4-43.2-7.7c-12.7-1.2-25.3-1.7-38.1-1.6l-26.7,0.3L715.5,707.1z M713.3,509.5l93.4-1.8c12.5-0.3,25-0.3,37.4-2
		c8.7-1,17.2-3.2,25.2-6.4c8.7-3.5,15.3-10.1,18.3-18.2c2.7-6.7,4.2-13.6,4.6-20.7c0.7-12.8,1.1-25.6,1.2-38.5
		c0.1-7.4-0.8-14.7-2.7-21.9c-4.3-16.8-14.1-30.3-30.2-39.9c-9.4-5.6-19.9-9.2-30.8-11.8c-18.9-4.5-38.2-5.6-57.7-5.1
		c-19.5,0.5-32.3,7.4-41.9,21.5l-2.3,3.5c-5.1,8.7-8.8,17.9-11,27.5c-5.2,21-3.6,112.6-3.6,114L713.3,509.5L713.3,509.5z M348,706.6
		c0,0,0.6,135.5,0.7,142.6c0,6.1,1.1,12.2,3.3,18c1.1,3.4,4.2,6,8.1,6.7c6.4,1.5,13.2,1.8,19.8,1c3.2-0.3,6.1-1.8,8-4.1
		c2.2-2.8,4.1-5.8,5.7-9c4.8-10.8,6.2-22.2,6-33.7c-0.3-22.2-3-121.4-3-121.4L348,706.6z"/>
	<circle id="START" class="st2" cx="327" cy="830" r="3.8"/>
	<g id="CHECK">
		<rect id="1" x="249.8" y="807.4" class="st0" width="114.1" height="4.6"/>
		<rect id="2" x="622" y="784.2" class="st0" width="114.8" height="14.3"/>
		<rect id="3" x="493.8" y="400.1" class="st0" width="114.8" height="11.4"/>

	</g>
</g>
<path id="drive" class="st2" d="M298,830.9c-3.5-220.2,13.4-416.8,10-637c-1.2-7.6-0.8-16.9-2-24.5c-3-6.6-9.5-23.5-12.5-30
	c-4.6-5.5-13.4-16-18-21.5c-5.9-4.2-16.1-5.3-22-9.5c-6.8-2.8-24.2,1.2-31-1.6c-7.4-1.3-26.7,0.2-34.5,0.6c-7.8,2.3-18.7,3.7-26.5,6
	c-7.8,4.6-17.2,9.3-25,14c-4.9,5.8-12.1,17.6-17,23.4c-2.5,6.7-2.5,14.4-5,21.1c-0.6,7.4,3.6,17.1,3,24.5
	c20.9,143.7,5.7,263.2,26.7,406.9c1.9,6.7,15.4,16.3,17.3,23c3.1,5.1,20.9,13.3,24,18.3c4.1,3.7,10.2,3.3,14.3,7
	c5,2.5,12.6,3.1,17.7,5.7c5.8,1.7,12.2,2,18,3.7c37.6,3.1,69.2,3.7,106.8,6.8c133.7-0.6,267.3-1.2,401-1.9
	c25.4,1.7,50.7,3.5,76.1,5.2c12.4,2.6,24.7,5.2,37.1,7.9c11.2,4.5,22.5,9,33.7,13.4c9.4,6.8,18.9,13.7,28.3,20.5
	c7,9.7,13.9,19.5,20.9,29.2c3.8,13.1,7.7,26.3,11.5,39.4c-0.9,12.2-1.7,24.5-2.6,36.7c-5.3,11-10.7,21.9-16,32.9
	c-8.8,9.3-17.6,18.6-26.5,27.9c-11.3,7.3-22.5,14.5-33.8,21.8c-12.7,4.8-25.4,9.7-38.1,14.5c-13.1,2-26.3,4-39.4,6.1
	c-12.5-1.2-25.1-2.3-37.6-3.5c-10.9-4.7-21.9-9.5-32.8-14.2c-9.6-9.5-19.1-19-28.7-28.5c-6.3-12.4-12.6-24.8-18.8-37.2
	c-3.6-14.5-7.2-29-10.8-43.5c-1.5-15.8-3-31.6-4.6-47.4c2.1-107.1,4.2-214.3,6.4-321.4c1.7-11.4,3.5-22.9,5.2-34.3
	c3.6-10.4,7.2-20.8,10.8-31.3c6-8.9,12-17.9,18-26.8c9-7,18-14.1,27-21.1c5.2-2.5,10.4-5,15.6-7.5c5.3-1.8,10.6-3.7,15.9-5.5
	c5.4-1.2,10.8-2.3,16.1-3.5c5.4-0.5,10.9-1,16.3-1.4c5.4,0.2,10.9,0.4,16.3,0.6c5.4,0.9,10.8,1.8,16.3,2.7
	c5.4,1.6,10.8,3.2,16.1,4.8c5.3,2.3,10.6,4.7,15.9,7c5.8,3.4,11.6,6.8,17.3,10.2c6.1,4.5,12.2,8.9,18.4,13.4
	c6.1,5.3,12.1,10.7,18.2,16c5.6,6,11.3,12.1,16.9,18.1c4.8,6.6,9.6,13.1,14.4,19.7c3.6,6.9,7.2,13.8,10.8,20.7c2,7.1,4,14.1,6,21.2
	c0,7,0,14.1,0,21.1c-4.5,10.7-8.9,21.3-13.4,32c-8.7,7.9-17.5,15.9-26.2,23.8c-11.9,5.6-23.7,11.2-35.6,16.9
	c-13.8,3.7-27.7,7.4-41.5,11.1c-14.7,2.2-29.4,4.3-44.1,6.5c-58.9,0.7-117.8,1.5-176.7,2.2c-5.4-1.2-10.8-2.4-16.2-3.6
	c-4.5-2.3-9.1-4.7-13.6-7c-3.6-3.8-7.2-7.6-10.9-11.4c-2.7-5.6-5.3-11.2-8-16.9c-1.7-7.8-3.4-15.6-5.1-23.4
	c-2.2-54.3-4.4-108.5-6.6-162.8c-1.5-8.7-2.9-17.5-4.4-26.2c-2.4-8.3-4.8-16.7-7.3-25c-2.8-5.2-5.6-10.3-8.4-15.5
	c-4.1-4.2-8.2-8.4-12.3-12.6c-5-3.1-10.1-6.3-15.1-9.4c-5.6-2-11.3-3.9-16.9-5.9c-5.9-0.7-11.9-1.3-17.8-2
	c-5.9,0.7-11.7,1.5-17.6,2.2c-5.5,2.3-11,4.5-16.4,6.8c-4.8,3.9-9.5,7.8-14.3,11.7c-3.3,5-6.7,9.9-10,14.9c-2,5.7-4.1,11.5-6.1,17.2
	c-1,6.3-2,12.6-3,18.9c-0.2,6.6-0.4,13.3-0.6,19.9c7.9,173.4,15.8,346.9,23.7,520.3c-0.5,4.2-1,8.4-1.5,12.6
	c-0.9,3.9-1.9,7.8-2.8,11.7c-1.5,3.6-2.9,7.2-4.4,10.8c-2.1,3.3-4.2,6.6-6.3,9.9c-2.8,3-5.7,6-8.5,9c-3.7,2.7-7.3,5.3-11,8
	c-4.6,2.3-9.2,4.7-13.8,7c-5.9,1.6-11.7,3.2-17.6,4.7c-5.1-0.3-10.3-0.7-15.4-1c-4.5-1.9-8.9-3.9-13.4-5.8
	c-3.8-3.2-7.7-6.5-11.5-9.7c-3.3-4.2-6.5-8.4-9.8-12.6c-2.7-4.9-5.5-9.7-8.2-14.6c-2.3-5.2-4.5-10.4-6.8-15.7
	C301.7,841.4,299.8,836.2,298,830.9L298,830.9L298,830.9z"/>
	<g id="layout">
	<polygon class="st3" points="277.6,812 277.6,809.7 277.7,807.4 282.5,807.4 287.4,807.4 287.4,809.7 287.3,812 282.5,812 	"/>
	<polygon class="st3" points="297.1,812 297.1,809.7 297.2,807.4 302.1,807.4 306.9,807.4 306.8,809.7 306.8,812 302,812 	"/>
	<polygon class="st3" points="316.6,812 316.7,809.7 316.6,807.4 321.6,807.4 326.5,807.4 326.4,809.7 326.4,812 321.4,812 	"/>
	<polygon class="st3" points="336.1,812 336.2,809.7 336.2,807.4 341,807.4 345.9,807.4 345.9,809.7 345.8,812 341,812 	"/>

</g>

</svg>
