<?xml version="1.0" encoding="utf-8"?>
<!-- Generator: Adobe Illustrator 21.0.2, SVG Export Plug-In . SVG Version: 6.00 Build 0)  -->
<svg version="1.1" id="SCENE_3" xmlns="http://www.w3.org/2000/svg" xmlns:xlink="http://www.w3.org/1999/xlink" x="0px" y="0px"
	 viewBox="0 0 1024 1024" style="enable-background:new 0 0 1024 1024;" xml:space="preserve">
<style type="text/css">
	.st0{fill:#FFFFFF;}
	.st1{fill:#64566D;}
	.st2{display:none;}
</style>
<rect id="BACKGROUND_grass" x="150" y="150" transform="matrix(0.7071 -0.7071 0.7071 0.7071 -212.077 511.9999)" width="724.1" height="724.1"/>
<g id="OBSTACLES">
	<path id="_x30_1_x5F_stone1" class="st0" d="M619.4,758.4c-1.7,1.7-3.7,3.3-5.7,4.5l0,0.1l-0.1-0.2c-3.3-1.5-6.3-3.5-8.8-6.1
		c-2.2-2.1-4.3-4.3-6.5-6.5c-1.3-1.4-2.7-2.7-4.1-4.1c-13.1-13-26.3-26-39.5-39.1l-16.5-16.3l13.4-13.4l6.4,6.3
		c5.5,5.3,11,10.6,16.5,15.8c4.1,4,8.3,8,12.6,11.9c7,6.8,14.4,13.6,21.5,20.5c6,5.8,10,11.5,12.4,17.5c0.6,1.8,1,3.7,1.3,5.5
		l-0.3,0.3c-0.8,1-1.7,1.9-2.5,2.8L619.4,758.4z"/>
	<path id="_x30_2_x5F_stone1" class="st0" d="M523.3,556.9c-4.3-4.2-8.8-8.3-13.2-12.5c-9.1-8.8-18.4-17.5-27.6-26.4
		c-4.8-4.5-9.5-9.1-14.3-13.6c-4.7-4.6-9-8.8-13-12.5c-6.2-6-12.3-11.9-18.5-17.7c-7-6.8-14.1-13.5-21.2-20.3
		c-13.3-12.6-23.3-22.4-32.6-31.5c-4.7-4.4-8.5-9.6-11.3-15.5c-0.7-1.8-1.3-3.6-1.7-5.5l0.5-0.5c2.8-2.9,5.3-3.9,8.5-3.8
		c3.2,0.2,9.1,1.7,14.8,4.6c1.9,1.1,3.6,2.4,5.2,3.9c30.1,30.2,60.1,60.1,88.3,88.3c8.8,8.8,17.5,15.1,26.8,19.3
		c18.4,8.4,37.5,9.2,57,2.2c12.5-4.5,23.8-11.8,33.3-21.3l3.4-3.4l22.4,21.6l-75,75C548.2,580.8,523.3,556.9,523.3,556.9z"/>
	<path id="_x30_3_x5F_stone1" class="st0" d="M445.5,696.9c-2.9,3-6,5.7-9.3,8c-6.7,4.5-14.1,6.7-22.8,6.5c-8.6-0.1-16.9-2-26.8-5.8
		c-10.5-4.3-20.4-9.5-29.4-16c-6.6-4.7-13-9.8-18.8-15.4c-7.1-6.8-14.5-13.6-21.6-20.3c-3.5-3.3-6.9-6.5-10.5-9.8l-0.4-0.4
		c-11.1-10.4-22.5-21.1-33.9-31.8c-12.6-11.8-24.1-22.7-35.3-33.3c-3.8-3.6-7.6-7.2-11.4-10.8c-6.1-5.9-12.4-11.8-18.8-17.8
		c-9.8-9.2-20-19.4-32.9-33.2c-2.4-2.5-4.5-5.4-6.1-8.4c-1.6-3-1.6-5.8,0-9.2c1.9-4,4.4-7.7,7.4-11c2-2.3,4.1-4.8,6.3-6.9
		c2.2-2.2,4.6-4.2,7.2-6c4.6-3.1,9.9-4.3,14.9-3.4c5.3,0.9,10.8,3.1,17,7c5.8,3.6,11,8,15.7,12.9c4.1,4.3,8.8,8.8,14.6,14.5
		c8.7,8.5,17.5,16.9,26.2,25.3L304,558c13.1,12.8,26.3,25.4,39.5,38.2c6,5.8,12,11.6,18.1,17.5c4.6,4.4,9.1,8.9,13.7,13.3
		c16.9,16.3,33.8,32.8,50.7,49.1l20.5,19.8L445.5,696.9z"/>
	<path id="_x30_4_x5F_stone1" class="st0" d="M838.8,554c-2.8,2.9-5.5,5.4-8.2,7.6c-4.2,3.6-9.3,7.7-15,10.5
		c-5.1,2.7-10.8,3.2-15.8,1.3c-5.6-1.9-10.6-4.7-15.1-8.4c-4.9-3.9-9.5-7.8-13.7-11.8c-8.5-7.9-17-16-25.2-23.9
		c-2.6-2.5-5.3-5-7.9-7.6c-4.8-4.5-9.4-9-14.2-13.5l-1.7-1.7l2.1-2.1l7.6-7.9l2.2-2.2c5.4-5.5,11.1-10.6,17-15.4
		c7.5-6.4,15.6-12,24.2-16.9c9.2-5.2,17.1-8.3,25-9.8c11.8-2.2,21.4,0.4,29.5,7.8c12,11,21.4,22.4,28.5,35.3
		c2.8,4.8,4.7,10,5.6,15.6c0.9,5.9-0.5,11.7-4.5,18.4c-2.9,4.7-6.2,9.1-10,13.3c-2.8,3.1-6.7,7.3-10.6,11.3L838.8,554L838.8,554z"/>
	<path id="_x30_5_x5F_stone1" class="st0" d="M610.2,398.5c-3.9-3.8-8-7.8-12-11.6c-1.7-1.6-3.3-3-4.9-4.3c-1.6-1.4-1.9-1.6-2.8-2.4
		c-11.9-10.5-21-21.3-28-33c-3.7-6.3-6.1-11.8-7.5-17.4l-0.6-2.6c-1.8-9.4,0.8-17.2,7.9-24.6l3.8-3.9c9.1-9,17.3-15.8,26-21.1
		c7-4.3,13-7,19-8.5c10.6-2.7,20.4-1.4,29.7,4.2c4,2.3,7.7,5.2,10.9,8.6c6.3,6.4,12.5,13.1,18.4,19.6c2.9,3.2,5.2,6.9,6.9,10.9
		c1.8,3.8,1.8,8.4-0.1,12.5c-1.7,4.3-4.4,8.7-8.3,13.8c-3.9,5.1-9.8,11.4-15.3,17.1l-1.8,1.8l-40.2,41.9L610.2,398.5z"/>
	<path id="_x30_6_x5F_stone1" class="st0" d="M0,512l512,512l184.9-184.9l-36.1-36c-6.1,5.9-13,11.1-20.3,15.2
		c-20.8,11.6-41.7,12.5-61.8,2.5c-7.9-4-15.2-9.1-21.4-15.3c-3-2.9-5.9-5.8-8.7-8.7c-1.8-1.9-3.7-3.8-5.5-5.6
		c-14.5-14.5-27.4-27.2-39.3-39.1c-4-4-8.2-8.1-12.3-12l-1.5-1.5l-0.6,0.6c-2.8,2.8-5.8,5.7-8.9,8.5c-10.9,10-23.6,17.5-37.3,22.3
		c-17,6-34.5,7.5-53.4,4.9c-14.9-2.2-29.7-6.9-45.3-14.5c-14.5-7.1-28-15.7-40.3-25.8c-6-5-11.7-10.1-17-15.1
		c-12.1-11.4-24.4-22.8-36.3-33.9l-5.4-5c-3.5-3.3-7-6.6-10.6-10c-2.7-2.6-5.5-5.2-8.3-7.8c-5.1-4.8-10.1-9.5-15.1-14.2
		c-8.6-8-17.2-16-25.8-24.2c-6-5.6-11.9-11.3-17.8-17l-5.7-5.5c-1.4-1.3-2.7-2.6-4-3.8c-3.6-3.4-7.3-7-10.9-10.5
		c-7.8-7.8-15.8-15.9-23.4-24.3c-8.4-9.2-14.4-18.6-18-28.9c-6.6-18.3-5.3-37.6,3.8-57.1c4.3-9.3,10.3-18.4,18.2-27.8
		c3.4-4,6.6-7.5,9.9-10.9c2.1-2.1,4.2-4.1,6.4-6c24.7-21.7,52.2-29.4,81.6-23c12,2.5,23.5,7.6,35.4,15.5c8.3,5.5,16,12,23,19.1
		c5.3,5.3,10.7,10.6,16,15.7c1.8,1.7,3.5,3.4,5.3,5.1c18.7,18,37.3,36.1,55.9,54.1c9.4,9.1,18.6,18,27.9,27
		c10.8,10.6,21.8,21,32.6,31.5c18,17.4,36,34.9,54,52.3l11.3,11c1.9,1.9,3.6,3.7,5.6,5.5l1.5,1.5l12.8-12.8l-7.4-7.1
		c-6.8-6.5-13.5-13-20.3-19.4c-15.7-15-31.4-30.2-47.1-45.2l-8.7-8.4c-7.5-7.2-15-14.4-22.5-21.6l-24.6-23.6
		c-8.1-7.8-16.3-15.6-24.4-23.5c-1.7-1.5-3.3-3.1-4.9-4.7c-4.3-4-8.5-8.3-12.8-12.5c-10.4-10.5-17.9-21.5-23-33.8
		c-3.6-8.4-5.6-17.5-5.8-27c-0.4-15.9,5.5-31.9,16.2-44.7c1.9-2.4,4.1-4.8,6.3-7c9.3-9.3,20.6-16.4,32.7-20.4
		c12.3-4.1,24.1-5.3,38.5-2.8c14.5,2.5,28,8.5,40.8,17.5c1.3,1,2.5,2,3.6,3.2l0.1,0.1c11,11,21.9,21.9,32.9,32.9
		c9.6,9.6,30.6,30.6,30.6,30.6c9.3,9.3,18.9,18.9,28.4,28.3c3.6,3.5,6.5,5.8,9.6,7.4c5.8,3,10.5,2.2,15.7-2.6l3-3
		c-1.1-1.1-2.4-2.3-3.5-3.5c-3.6-3.5-7-6.8-10.6-9.9c-7.9-6.8-13.7-12.3-18.9-17.8c-12.3-13.1-22.3-26.8-28.9-39.8
		s-10.5-25.5-12-38.3c-2.8-24,3.6-46.8,18.9-67.6c3.9-5.1,8.1-10,12.6-14.4l5.8-5.6c15.1-14.4,29.9-25.3,45.4-33.4
		c16.6-8.6,32.8-13.5,49.1-14.4c19.7-1.1,38.3,3.3,55.5,13.3c8.4,5,16.1,10.9,22.9,17.9c8.4,8.4,14.6,15.1,20.3,21.6
		c7.5,8.5,13.5,18.3,17.6,29.1c7.4,19.8,6.4,40.6-3.1,61.9c-4.5,10.4-11,20.6-19.7,31.3c-6.2,7.7-13.1,14.8-19.1,21.1l-18,18.8
		l-14.8,15.5l-8.3,8.5l22.8,22l11-11c5-5,10.3-10.2,15.4-14.8c5.1-4.6,10.7-9.2,17-14c20.4-15.6,39.9-26,59.8-32
		c18.1-5.6,35.6-6.6,51.9-3.4c12.6,2.6,24.3,7.7,34.5,15c10,7,17.9,15.7,24.3,23.3c5.2,6.1,9.3,11.2,12.9,16.1
		c10,13.6,16.6,26.9,20.4,40.7c7,25.5,2.8,51-12.4,75.7c-5.7,9.1-12.3,17.7-19.6,25.6c-4.1,4.5-7.5,8-11.2,11.8s-7.2,7-10.7,10.1
		c-13,11.4-24.7,19.2-36.8,24.4c-22.3,9.6-44.8,10-66.5,1.3c-8.4-3.4-17.1-8.5-25.3-14.6c-8.2-6.1-15.7-13.2-22.3-19.5
		c-10.6-10-21.3-20.1-31.6-30c-4.9-4.6-9.8-9.3-14.7-14l-75,75c4.2,3.9,8.3,7.8,12.4,11.8c13.6,13,27.6,26.5,41.4,39.5
		c8.3,7.6,15.5,16.3,21.3,26c6.5,10.8,10.3,21.3,11.6,32.1c2.5,20.7-3.5,39.8-18.1,56.5c-1,1.2-6.2,6.5-7.3,7.5l36.1,36.1L1024,512
		L512,0L0,512z"/>
</g>
<g id="ROAD">
	<path id="TRACK_cobblestone" class="st1" d="M493.8,658.9l23.8-23.9l-178-170.8c0,0-16.6-19.6-21.6-31.7c-3.3-7.5-5-15.8-5.3-24.4
		c-0.3-14,4.9-28.1,14.4-39.5c9.5-11.6,21.3-20,35.3-24.9c11.7-4,23.4-4.6,34.8-2.5c14.2,2.5,26.6,8.1,38.1,16.3
		c1,0.9,84.6,84.4,94.7,94.3c3.3,3.4,7,6.2,11.1,8.5c8.4,4.3,16.6,3.1,24.3-4.1c2.8-2.5,8.7-9,8.7-9s-31.9-29.6-37.7-35.8
		c-10.8-11.5-20.5-24-27.9-38.3c-5.8-11.1-9.9-23-11.4-35.8c-2.6-22.1,3.2-42.7,17.2-61.9c5-7,11.1-12.9,17.4-18.9
		C544.8,244,559,233,575,224.6c14.6-7.6,29.9-12.5,45.8-13.4c18.8-1.1,35.8,3.4,51.5,12.4c7.9,4.7,15.1,10.4,21.6,16.9
		c6.9,6.9,13.6,14,20,21.3c7,8,12.6,17.1,16.4,27.2c6.8,18.3,5.6,37-2.8,56.2c-4.7,10.6-11.1,20.1-18.4,29.2
		c-5.8,7.2-64.8,68.8-64.8,68.8l32.2,32.2c0,0,1.4-1.1,1.7-1.3c4.3-4.4,8.5-8.8,12.9-13.1c6-5.9,11.9-11.8,18.1-17.4
		c5.3-4.8,10.8-9.3,16.5-13.5c17.6-13.4,36.3-24.4,57.1-30.6c16.2-4.9,32.3-6.3,48.3-3.1c11.7,2.4,22.5,7.1,31.9,13.9
		c8.9,6.2,16.2,14,23.2,22.2c4.3,5.1,8.6,10.3,12.5,15.6c8.5,11.6,15.4,24.2,19.4,38.6c6.5,23.8,2.5,47-11.5,69.6
		c-5.4,8.6-11.7,16.8-18.7,24.3c-6.7,7.4-13.8,14.5-21.3,21.2c-10.5,9.3-21.8,17.5-34.5,23c-21,9.1-41.3,9-60.8,1.1
		c-8.6-3.5-16.6-8.3-23.8-13.8c-7.8-5.8-72.6-67.3-72.6-67.3l-86.1,86.1c0,0,39.6,37.7,58.9,55.9c7.8,7.2,14.6,15.5,20.2,24.6
		c5.4,9,9.3,18.6,10.7,29.5c2.3,18.5-3,35.3-16.1,50.3c-7,8.3-15.6,15.4-25,20.8c-18.8,10.5-37.2,10.9-54.8,2.2
		c-7.4-3.6-14.1-8.3-19.9-14c-4.8-4.7-9.4-9.5-14.2-14.2c-13.1-13-58.1-57.2-58.1-57.2s-10.5,10.2-14.9,14.1
		c-10.1,9.2-21.9,16.2-34.4,20.5c-16.7,5.9-33.3,6.8-49.8,4.5c-16.5-2.4-29.7-7.3-43.3-13.9c-14-6.8-27.1-15.1-39-24.9
		C303.5,724,137.2,566.2,129.6,558c-7.6-8.2-13-16.5-16.7-26.6c-6-16.8-4.6-33.9,3.4-51.3c4.4-9.5,10.2-17.9,17-25.9
		c4.7-5.6,9.9-11,15.4-15.9c22.5-19.8,47.4-27.1,74.7-21.1c12.1,2.6,23.1,7.9,33.1,14.6C264.4,437.1,493.8,658.9,493.8,658.9z
		 M457.1,695.5c-0.6-0.7-226-218.8-232.2-222.7c-5.9-3.7-12.1-6.8-19.4-7.9c-6.9-1.2-14.3,0.4-20.5,4.6c-6,3.9-10.7,9.1-15.2,14.4
		c-3.4,3.9-6.4,8.4-8.6,13.1c-2.6,5.2-2.7,11.1,0,15.8c1.9,3.6,4.3,6.9,7,9.8c10.7,11.5,177.7,168.7,184.6,173.5
		c9.6,6.7,19.9,12.1,30.8,16.5c9.3,3.6,18.9,6.2,29.3,6.3s18.8-2.3,27.3-8C446.5,706.7,451.5,701,457.1,695.5L457.1,695.5
		L457.1,695.5z M608.4,480.2l-8.1,8.1c-8.8,9-19.4,15.9-31,20c-18.2,6.6-35.1,5.4-51.4-1.9c-9.5-4.4-17.5-10.6-24.8-17.9
		c-29.4-29.4-58.6-58.6-88-88c-2-2-4.2-3.6-6.8-5c-5.4-2.9-11-4.9-17.4-5.3s-11,2.3-15.3,6.7c-2,2-2.9,4.8-2.3,7.2
		c0.5,2.4,1.3,4.6,2.2,6.9c3,6.7,7.3,12.6,12.6,17.5c10.8,10.5,176.5,169.5,176.5,169.5l85.8-86v-0.2v-0.3L608.4,480.2z
		 M711.3,507.8c0.5,0.5,0.7,0.7,1,1c6.7,6.4,13.3,12.8,20,19.1c11.1,10.5,22,21,33.3,31.5c4.5,4.2,9.2,8.2,14,12
		c5,4.1,10.8,7.3,17,9.5c6.8,2.5,14.7,1.8,21.6-1.9c6.1-3.1,11.5-7.3,16.8-11.7c7-6,13.4-12.8,19.5-19.6c4.1-4.6,7.8-9.4,11-14.5
		c4.5-7.5,6.8-15.3,5.5-23.5c-1.1-6.4-3.3-12.5-6.5-18c-7.8-14.1-18-26.2-29.8-36.9c-9.7-8.8-21.6-11.9-35.5-9.3
		c-9.7,1.8-18.8,5.8-27.5,10.7c-8.9,5.1-17.4,11-25.4,17.8c-7,5.8-13.5,11.8-19.8,18.3l-13.2,13.5L711.3,507.8z M611.4,410.1
		l45.8-47.6c6.1-6.4,12.4-12.6,17.7-19.7c3.8-4.9,7-10.2,9.4-15.8c2.6-6.1,2.6-12.7,0-18.3c-2-4.7-4.7-8.9-8.1-12.6
		c-6-6.8-12.3-13.3-18.6-19.9c-3.7-3.7-7.8-7-12.3-9.6c-10.5-6.3-22.2-8.1-35-4.9c-7.5,1.9-14.5,5.4-21.3,9.5
		c-11.7,7.2-21.9,16.3-31.4,26.3s-12.4,19.8-10.2,31.7l0.6,2.9c1.8,6.9,4.5,13.3,8.3,19.3c7.9,13.1,54.5,58.1,55.2,58.8L611.4,410.1
		L611.4,410.1z M527.3,691.3c0,0,68,67.5,71.6,70.9c3.1,3,6.7,5.6,10.7,7.4c2.3,1.2,5.1,0.9,7.4-0.7c3.9-2.5,7.5-5.7,10.4-9.4
		c1.5-1.8,2.2-4,2-6c-0.3-2.5-0.8-5-1.6-7.4c-3-7.8-8-14.2-13.9-19.8c-11.3-11-62.2-59.2-62.2-59.2L527.3,691.3z"/>

		<circle id="START" class="st2" cx="578.5" cy="763.5" r="3.8" />
	<g id="CHECK">
		
			<rect id="_x31_" x="517.9" y="761.8" transform="matrix(0.7071 -0.7071 0.7071 0.7071 -376.3077 618.3619)" class="st0" width="80.7" height="3.3"/>
		
			<rect id="_x32_" x="694.8" y="562.9" transform="matrix(0.7071 -0.7071 0.7071 0.7071 -186.2323 686.3445)" class="st0" width="81.2" height="10.1"/>
		
			<rect id="_x33_" x="437.9" y="435.3" transform="matrix(0.7071 -0.7071 0.7071 0.7071 -170.4823 467.0185)" class="st0" width="81.2" height="8.1"/>
	</g>
</g>
<path id="drive" class="st2" d="M564.5,778.4C452.6,670.1,362.8,563.3,251,454.9c-4.4-3.2-8.8-8.1-13.3-11.3
	c-4.8-1.8-16.5-7-21.3-8.8c-5.1-0.5-14.7-1.3-19.8-1.8c-5,0.9-10.7,5.4-15.8,6.3c-4.8,2-11.5,12.7-16.3,14.7
	c-4.3,3-13.3,13.4-16.9,17.5c-2.8,5-7.5,11.2-10.3,16.3c-1.6,6.2-3.9,13.3-5.5,19.5c0.5,5.3,2.8,14.8,3.2,20.2
	c2.1,4.6,5.9,8.4,8.1,13c3.4,4,10.4,6.8,13.8,10.8c82.3,61.4,134.5,128.8,216.8,190.1c4.3,2.4,15.8,0.4,20.1,2.8
	c4.1,1,17.1-3.8,21.1-2.9c3.9-0.2,6.8-3.4,10.6-3.6c3.8-1.3,7.9-4.8,11.7-6c3.8-2,7.1-5.1,10.9-7.2c20.4-17.3,36.5-32.8,56.8-50
	c66.6-67.1,133-134.3,199.5-201.4c13.6-11.9,27.1-23.6,40.7-35.4c7.5-4.9,15-9.8,22.5-14.6c7.8-3.4,15.8-6.8,23.6-10.1
	c8.1-1.3,16.3-2.6,24.4-3.9c8.4,1.4,16.7,2.8,25,4.1c8.5,4.6,17,9.3,25.5,14c5.6,6.6,11.4,13.1,17,19.6c2.9,8.1,5.6,16.3,8.5,24.5
	c0.3,9,0.5,18.1,0.7,27.2c-2,9.3-4,18.5-6,27.8c-4,8.8-7.9,17.5-11.8,26.3c-5.5,7.5-11.2,15.1-16.7,22.8c-6.8,5.6-13.7,11.4-20.5,17
	c-7.8,3.1-15.7,6.2-23.5,9.3c-9.5,0-19,0-28.6,0.1c-9.3-3-18.7-6.1-28-9.2c-9-5.5-18.1-10.9-27.1-16.3c-8.6-7.2-17.3-14.3-26-21.4
	c-52.5-54.6-105-109.3-157.5-163.9c-4.8-6.5-9.7-13.2-14.5-19.8c-3.4-7-6.8-14-10.3-21c-1.4-7.4-2.9-14.9-4.4-22.4c1-8,2-16,3-24
	c1.3-3.9,2.7-7.7,4-11.5c1.8-3.5,3.5-7.1,5.2-10.7c2.1-3.3,4.3-6.5,6.3-9.8c2.5-3,5-6,7.5-8.9c2.8-2.6,5.7-5.3,8.5-7.8
	c3.2-2.3,6.3-4.5,9.5-6.8c3.5-1.9,7-3.8,10.4-5.6c3.8-1.5,7.7-2.9,11.5-4.5c4.6-1.2,9.2-2.4,13.8-3.5c5.3-0.8,10.5-1.7,15.9-2.5
	c5.7-0.4,11.4-0.7,17.1-1.1c5.8,0.2,11.7,0.4,17.5,0.6c5.7,0.9,11.3,1.8,17.1,2.6c5.2,1.7,10.5,3.3,15.8,5c4.5,2.6,9,5.1,13.6,7.6
	c3.5,3.5,7,7.1,10.5,10.5c3.1,7.6,6.2,15.1,9.3,22.7c-0.4,8.3-0.8,16.7-1.2,25c-3.1,8.8-6.3,17.5-9.3,26.3
	c-5,8.8-10.1,17.6-15.2,26.3c-6.3,8.5-12.6,16.9-18.8,25.3c-29.1,29.8-58.1,59.6-87.3,89.5c-3.3,2.1-6.6,4.2-9.9,6.3
	c-3.4,1.1-6.9,2.2-10.3,3.3c-3.7-0.1-7.4-0.2-11.2-0.3c-4.1-1.4-8.3-3-12.4-4.5c-4.8-3-9.5-6.1-14.3-9.1c-28.3-26-56.5-52-84.7-78.1
	c-5.1-3.6-10.2-7.3-15.3-10.9c-5.4-2.9-10.8-6-16.1-8.9c-4-1.2-7.9-2.4-12-3.5c-4.1-0.1-8.3-0.1-12.4-0.2c-4.1,1-8.2,1.9-12.3,2.9
	c-3.8,1.8-7.6,3.7-11.4,5.5c-3.3,2.6-6.6,5.3-9.9,7.9c-2.6,3.3-5.1,6.6-7.7,9.9c-1.6,3.9-3.3,7.8-4.8,11.6c-0.5,4.3-0.9,8.6-1.3,13
	c0.9,4.1,1.6,8.3,2.5,12.4c1.8,3.9,3.7,7.8,5.5,11.7c2.6,3.6,5.3,7.3,8,10.9c3.2,3.4,6.4,6.9,9.6,10.3
	c90.7,82.8,181.4,165.6,272,248.3c1.9,2.3,3.7,4.7,5.5,7c1.5,2.4,3,4.8,4.5,7.3c1,2.5,2.2,5,3.2,7.6c0.6,2.7,1.2,5.4,1.8,8.1
	c0.1,2.9,0.1,5.9,0.3,8.8c-0.5,3.2-1,6.3-1.5,9.5c-1.2,3.5-2.3,7-3.4,10.4c-2.2,3.8-4.3,7.5-6.5,11.2c-2.7,2.4-5.5,4.8-8.2,7.2
	c-3.2,1.3-6.4,2.5-9.6,3.8c-3.5,0.3-7.1,0.6-10.6,0.9c-3.8-0.5-7.5-1-11.2-1.4c-3.8-1.1-7.6-2.1-11.4-3.2c-3.8-1.5-7.5-3-11.3-4.5
	C571.6,781.8,568,780.2,564.5,778.4L564.5,778.4L564.5,778.4z"/>
<g id="layout">
	<polygon points="547.8,776.2 546.7,775 545.6,773.8 548,771.4 550.4,769 551.5,770.1 552.7,771.3 550.3,773.7 	"/>
	<polygon points="555,768.9 553.9,767.8 552.8,766.6 555.3,764.1 557.7,761.7 558.8,762.9 559.9,764.1 557.5,766.5 	"/>
	<polygon points="563.3,760.7 562.2,759.5 561,758.4 563.5,755.9 566,753.4 567,754.6 568.2,755.8 565.7,758.3 	"/>
	<polygon points="570.5,753.4 569.5,752.2 568.3,751.1 570.7,748.7 573.2,746.2 574.3,747.4 575.4,748.6 573,751 	"/>
	<path d="M876,588.9c-3.6,3.6-7.4,7.2-11.1,10.5c-12.1,10.6-22.8,17.8-33.8,22.5c-19.9,8.6-39.1,9-58.6,1.1
		c-8.1-3.4-15.9-7.9-23.1-13.4c-6-4.5-50-45.9-72.4-67.2l-2.1-2l-90.3,90.3l2.2,2.1c0,0,39.7,37.6,58.9,55.9
		c7.6,7,14.2,15.1,19.7,24c5.8,9.5,9.1,18.8,10.3,28.3c2.1,17.9-2.8,33.5-15.4,48c-1.6,1.9-3.3,3.8-5.1,5.5
		c-5.7,5.7-12.1,10.6-19.1,14.6c-17.7,9.9-34.7,10.6-52,2.1c-7.2-3.5-13.6-8.1-19.1-13.5c-2.7-2.6-5.4-5.3-7.9-7.8
		c-2-2-4.2-4.3-6.3-6.4c-13-12.8-57.7-56.8-58.1-57.2l-2-2l-2.1,2c-0.1,0.1-10.5,10.2-14.8,14c-9.7,8.8-21.2,15.7-33.4,19.9
		c-15.4,5.4-31.2,6.8-48.4,4.4c-14.4-2.1-27.1-6.2-42.4-13.7c-14-6.8-27-15-38.5-24.5c-6.4-5.3-172.4-163-179.4-170.4
		c-7.8-8.4-12.8-16.3-16.1-25.6c-5.7-15.9-4.6-31.9,3.3-49.1c3.9-8.4,9.3-16.7,16.6-25.3c4.7-5.6,9.8-10.9,15.1-15.5
		c21.9-19.3,46.2-26.2,72.1-20.4c10.8,2.4,21.2,7,32.1,14.2c7.6,5.3,173.6,165.5,237,226.8l2.1,2l28-28.1L341.6,462l-0.1,0
		c-1.7-2-16.5-19.8-21-30.8c-3.1-7.3-4.9-15.1-5-23.3c-0.3-13.3,4.6-26.6,13.7-37.6c1.8-2.1,3.6-4.3,5.5-6.2
		c8.2-8.1,17.7-14.1,28.4-17.8c10.6-3.6,21.8-4.4,33.3-2.4c13,2.3,24.9,7.4,36.6,15.6l0.1,0.1c2.8,2.6,35.8,35.6,59.9,59.6
		c15,15,30.6,30.5,34.5,34.4c3.5,3.6,7.5,6.6,11.9,8.9l0,0.1c9.6,4.9,19.2,3.4,27.7-4.6c2.8-2.5,8.8-9.1,8.8-9.1l1.9-2.1l-2.1-2
		c-0.3-0.3-31.8-29.6-37.5-35.6c-11.8-12.5-20.8-24.9-27.5-37.7c-6-11.5-9.7-23.1-11.1-34.8c-2.5-21.2,3.1-41.4,16.6-59.9
		c3-4.1,6.6-8.2,11.4-13c2-2,4-3.9,5.8-5.5c14.2-13.6,28.1-23.8,42.6-31.4c15.1-7.9,30-12.3,44.7-13.1c17.7-1.1,34,2.8,49.8,12.1
		c7.7,4.6,14.8,10.1,21,16.4c8.3,8.3,14.4,14.9,19.9,21.2c6.7,7.6,12.1,16.5,15.9,26.3c6.4,17,5.5,35.1-2.7,53.9
		c-4.1,9.4-10,18.7-18,28.5c-5.6,7.1-64,68.1-64.6,68.6l-2,2.1l36.1,36.1l2.1-1.6c0.5-0.5,1.3-1,1.5-1.1l0.3-0.2l0.5-0.5
		c4.3-4.4,8.4-8.6,12.7-12.9l2.5-2.5c5-4.9,10.1-10.1,15.4-14.7c5-4.5,10.4-9,16.3-13.3c19.4-14.8,37.9-24.6,56.2-30.2
		c16.6-5,32-6,46.8-3.1c11.3,2.3,21.7,6.9,30.9,13.4c9,6.3,16.2,14.1,22.7,21.7c4.1,4.9,8.4,10.1,12.4,15.5
		c9.2,12.6,15.3,24.9,18.9,37.6c6.1,22.6,2.4,45.3-11.1,67.3c-5.3,8.5-11.5,16.5-18.3,23.8C882.7,582.1,879.3,585.6,876,588.9z
		 M581.6,630.8l93.3-93.3l3.6,3.4c22.3,21.3,66.3,62.5,72.2,67c7.1,5.4,14.7,9.8,22.6,13.1c19,7.7,37.6,7.3,56.9-1.1
		c10.7-4.6,21.3-11.7,33.2-22.1c3.7-3.3,7.5-6.8,11.1-10.5c3.3-3.3,6.6-6.8,9.8-10.3c6.8-7.3,12.8-15.1,18-23.5
		c13.2-21.5,16.9-43.6,10.9-65.6c-3.5-12.5-9.5-24.5-18.6-36.9c-3.9-5.3-8.2-10.5-12.3-15.4c-6.4-7.5-13.5-15.2-22.3-21.3
		c-9-6.4-19.1-10.8-30-13c-14.6-2.9-29.6-2-45.9,2.9c-18.1,5.4-36.3,15.2-55.5,29.9c-5.8,4.3-11.2,8.8-16.1,13.3
		c-5.2,4.7-10.3,9.8-15.4,14.6l-2.5,2.5c-4.3,4.3-8.3,8.4-12.6,12.8l-0.6,0.6l-0.4,0.3c-0.2,0.1-0.8,0.6-1.3,1.1l-3.6,2.8
		l-38.9-38.9l3.4-3.6c0.6-0.6,58.9-61.5,64.5-68.5c7.9-9.6,13.7-18.9,17.7-28c7.9-18.3,8.8-35.9,2.6-52.4
		c-3.7-9.6-8.9-18.2-15.5-25.7c-5.5-6.3-11.5-12.7-19.8-21.1c-6.1-6.2-13-11.6-20.5-16.1c-15.5-8.9-31.4-12.8-48.7-11.7
		c-14.3,0.8-29,5.2-43.8,12.9c-14.3,7.5-28,17.7-42.2,31.1c-1.7,1.6-3.8,3.5-5.7,5.5c-4.7,4.7-8.3,8.8-11.1,12.7
		c-13.2,18.1-18.7,37.6-16.3,58.4c1.4,11.4,5,22.8,10.8,34c6.6,12.6,15.5,24.8,27.1,37.1c5.6,5.9,37.1,35.2,37.4,35.5l3.7,3.4
		l-3.4,3.7c-0.1,0-4.2,4.6-7.2,7.6c-0.6,0.6-1.3,1.3-1.8,1.7c-9.2,8.6-19.6,10.3-30.1,4.9l-0.1-0.1c-4.6-2.5-8.8-5.7-12.3-9.4
		c-4-4-19.5-19.4-34.5-34.4c-24-23.9-56.6-56.5-59.8-59.5c-11.4-8.1-23.1-13-35.7-15.2c-11.1-2-22-1.2-32.3,2.3
		c-10.4,3.6-19.7,9.4-27.6,17.3c-1.9,1.9-3.7,3.9-5.4,6c-8.8,10.5-13.5,23.3-13.2,36.2c0.2,7.9,1.9,15.5,4.9,22.6
		c4.4,10.6,18.8,28,20.6,30.2L524.6,635l-31,31.1l-3.6-3.5c-63.3-61.2-229.2-221.3-236.7-226.5c-10.6-7-20.9-11.6-31.4-13.9
		c-25.3-5.5-48.9,1.2-70.3,20c-5.2,4.6-10.2,9.8-14.8,15.3c-7.2,8.5-12.5,16.5-16.3,24.8c-7.7,16.7-8.7,32.2-3.2,47.5
		c3.3,9,8.1,16.7,15.6,24.9c6.9,7.4,172.8,164.9,179.3,170.2c11.4,9.4,24.2,17.6,38,24.3c15.1,7.4,27.6,11.4,41.8,13.4
		c16.9,2.5,32.3,1.1,47.4-4.3c11.9-4.1,23.2-10.9,32.7-19.5c4.3-3.8,14.6-13.8,14.8-14l3.5-3.5l3.6,3.5c0.4,0.4,45.1,44.4,58.1,57.2
		c2.1,2.1,4.3,4.3,6.4,6.4c2.6,2.5,5.2,5.3,7.8,7.8c5.3,5.3,11.6,9.7,18.5,13.2c16.6,8.2,33,7.5,50-2c8.9-5.1,17-11.8,23.7-19.7
		c12.1-14,17-29.1,14.9-46.4c-1.1-9.2-4.4-18.2-10-27.5c-5.3-8.8-11.9-16.7-19.4-23.6c-19.3-18.3-58.9-55.9-58.9-55.9L581.6,630.8z
		 M847.3,562.8c-3.1,3.2-6.1,5.9-9,8.5c-4.6,3.9-10.6,8.7-17.7,12.3c-8.2,4.3-17.4,5-25.5,2.2c-6.8-2.3-13-5.7-18.5-10.3
		c-5.3-4.2-9.9-8.2-14.3-12.3c-7.5-7-15-14.1-22.3-21c-3.7-3.5-7.4-7-11.1-10.5l-20-19.1l-4.6-4.6l5.5-5.8l13.2-13.5
		c6.7-6.8,13.3-12.8,20.2-18.6c8.1-6.8,16.9-12.9,26.2-18.3c10.7-6.1,19.9-9.6,29.1-11.3c15.6-2.9,29,0.6,39.9,10.6
		c12.8,11.5,23.1,24.4,30.8,38.1c3.5,6,5.9,12.6,7.1,19.6v0.1c1.3,8.9-0.7,17.7-6.3,27c-3.3,5.4-7.2,10.5-11.5,15.3
		C854,555.9,850.7,559.5,847.3,562.8z M707.2,507.8l3.1,3.1l20,19.1c3.7,3.5,7.4,7,11.1,10.5c7.3,6.9,14.8,14,22.3,21
		c4.4,4.1,9,8,14.2,12.2c5.4,4.4,11.4,7.7,17.9,9.9l0,0c7.5,2.7,16.2,2,23.9-2c6.9-3.5,12.8-8.3,17.3-12c2.9-2.5,5.8-5.3,8.9-8.3
		c3.3-3.3,6.6-6.8,10.9-11.6c4.3-4.7,8-9.7,11.3-15c5.3-8.8,7.3-17.2,6-25.5v-0.1c-1.2-6.8-3.5-13.1-6.8-18.9
		c-7.6-13.5-17.8-26.2-30.4-37.6c-10.3-9.4-23.2-12.8-38-10c-8.9,1.6-18,5.1-28.5,11c-9.2,5.3-17.9,11.4-25.9,18.1
		c-6.3,5.3-12.3,10.8-18.4,16.9c-0.5,0.5-1,1-1.6,1.6l-13.2,13.5L707.2,507.8z M627.7,766.8c-2.4,2.4-5.1,4.6-7.9,6.3
		c-3.8,2.5-8.5,3-12.3,1c-4.5-2-8.5-4.8-12-8.3c-3-3-50.5-50-70.8-70l-4.5-4.5l31.4-31.4l3.6,3.4c0.5,0.5,51,48.3,62.3,59.3
		c7.1,6.9,12.2,14,15,21.7v0.3c0.9,2.7,1.5,5.5,1.9,8.4l0,0.1c0.4,3.4-0.8,7-3,9.8C630.2,764.1,629,765.5,627.7,766.8z M523.1,691.3
		l3.1,3c20.3,20,67.6,67.1,70.8,70c3.3,3.3,7.1,6,11.4,7.9c3.2,1.6,7.2,1.3,10.3-0.9l0.1,0c4.1-2.6,7.9-6,11.1-10
		c1.9-2.4,2.8-5.4,2.6-8.2l0-0.1c-0.3-2.7-1-5.3-1.8-7.9l-0.1-0.1c-2.8-7.3-7.5-14.2-14.5-20.9c-11.2-10.8-61.8-58.8-62.2-59.2
		l-2.1-2L523.1,691.3z M454.1,705.6c-3.1,3.1-6.8,6.6-11.1,9.6c-9.1,6.3-18.5,9-30.2,8.9c-9.8-0.1-19.7-2.3-31.2-6.7
		c-11.4-4.6-22.1-10.4-31.8-17.1c-6.8-4.7-173.2-161-185.4-174.2c-3.1-3.3-5.7-7-7.8-10.8c-3.5-6.1-3.5-13.8-0.1-20.5
		c2.4-5.1,5.6-9.9,9.4-14.3c2.4-2.9,4.6-5.2,6.9-7.5c3.1-3.1,6.2-5.7,9.3-7.8c7.1-4.9,15.9-6.9,24.1-5.4c7,1.1,13.6,3.8,21.4,8.6
		c6.9,4.4,230.7,221.1,233,223.2l3.7,3.6l-3.6,3.6c-1.1,1-2.1,2.1-3.1,3.2l-0.1,0.1C456.3,703.4,455.3,704.5,454.1,705.6z
		 M174.4,474.5c-2.3,2.3-4.4,4.6-6.8,7.4c-3.7,4.2-6.8,8.9-9.1,13.8c-3.1,6.1-3.1,13,0.1,18.5l0,0c2,3.7,4.5,7.2,7.4,10.4
		c12.3,13.2,178.3,169.2,185.1,173.9c9.6,6.7,20.1,12.3,31.4,16.8c11.3,4.4,20.9,6.4,30.4,6.5c11.2,0.1,20.2-2.5,29-8.5
		c4.3-2.9,7.9-6.3,10.8-9.3c1.1-1.1,2.2-2.2,3.3-3.3l0.1-0.1c1.1-1.1,2.1-2.2,3.2-3.3l2.1-2.1l-2.1-2c-2.3-2.2-226-218.8-232.6-223
		c-7.5-4.7-13.9-7.3-20.6-8.3c-7.6-1.4-15.9,0.5-22.6,5.1C180.4,469,177.4,471.5,174.4,474.5z M554.8,604.9l-4.1-3.9
		c-16.9-16.3-166-159.2-176.1-169c-5.8-5.5-10.4-11.9-13.8-19l-0.1-0.3c-1.2-2.9-1.9-5.3-2.4-7.6c-1-4.1,0.3-8.6,3.5-11.8l0.2-0.2
		l0.3-0.3c5.9-5.9,11.7-8.3,18.9-7.9c6.3,0.4,12.5,2.3,19.5,5.9l0.1,0.1c3.3,1.9,5.8,3.7,8,6l87.9,87.9c7.9,7.9,15.3,13.3,23.4,16.9
		c15.7,7.1,31.2,7.7,47.5,1.8c10.4-3.7,20.3-10,28.5-18.1c0.2-0.2,0.4-0.5,0.7-0.7l11.7-11.6l37.1,36.2v4.7l-0.3,0.3L554.8,604.9z
		 M363.4,394.8c-2.6,2.6-3.8,6.4-2.9,9.8l0,0c0.5,2.3,1.2,4.6,2.3,7.4l0,0.1c3.2,6.9,7.6,13.1,13.3,18.5
		c10.1,9.8,159.2,152.7,176.1,169l2.5,2.4l88.6-88.9v-3l-35-34.1l-10.1,10.1c-0.3,0.3-0.5,0.5-0.7,0.7c-8.4,8.4-18.5,14.8-29.2,18.6
		c-16.9,6.1-33,5.5-49.2-1.9c-8.3-3.8-15.9-9.3-23.9-17.4l-87.9-87.9c-2-2.1-4.4-3.9-7.5-5.5l-0.1-0.1c-6.7-3.5-12.6-5.3-18.6-5.7
		c-6.5-0.4-11.9,1.9-17.3,7.3l-0.3,0.3L363.4,394.8z M612.4,416.3l1.2-5.1l-5,3.1l-1.1-1.1c-14.3-13.9-48.4-47.6-55.4-59.2
		c-4-6.3-6.9-13.2-8.9-20.6v-0.1l-0.7-3.1c-2.6-13.7,1-25.1,11.5-36.2c1.4-1.5,2.9-2.9,4.3-4.3c9.5-9.5,18.7-16.9,28.2-22.8
		c8.1-5,15.5-8.3,22.7-10.1c13.8-3.5,26.9-1.7,38.8,5.4c4.9,2.9,9.4,6.4,13.3,10.4c6.4,6.5,12.8,13.3,18.8,20
		c3.7,4.1,6.7,8.9,8.9,14c3.1,6.8,3.1,14.9,0,22.3c-2.6,6.1-6,11.8-10,17c-4.7,6.2-10.1,11.8-15.3,17.2c-1,1-1.8,1.9-2.8,2.8
		L612.4,416.3z M608.8,411.7l8-5l-0.6,2.6l43.2-44.9c1-1,1.8-2,2.8-2.9c5.1-5.4,10.5-10.9,15.2-17c3.9-5,7.3-10.5,9.8-16.5
		c2.9-6.8,2.9-14.3,0-20.5c-2.1-4.9-4.9-9.5-8.5-13.5c-6.1-6.8-12.4-13.4-18.8-20c-3.8-3.9-8.2-7.3-12.9-10.1
		c-11.5-6.8-24-8.5-37.3-5.2c-7,1.8-14.2,5-22.1,9.9c-9.3,5.7-18.4,13.1-27.8,22.5c-1.4,1.4-2.8,2.8-4.2,4.3
		c-10,10.5-13.5,21.3-11,34.3l0.6,3.1c1.9,7.2,4.8,14,8.6,20.1C560.6,364.4,594.4,397.8,608.8,411.7z"/>
</g>
</svg>
