<?xml version="1.0" encoding="utf-8"?>
<!-- Generator: Adobe Illustrator 21.0.2, SVG Export Plug-In . SVG Version: 6.00 Build 0)  -->
<svg version="1.1" id="SCENE_1" xmlns="http://www.w3.org/2000/svg" xmlns:xlink="http://www.w3.org/1999/xlink" x="0px"
	y="0px" viewBox="0 0 1024 1024" style="enable-background:new 0 0 1024 1024;" xml:space="preserve">
	<style type="text/css">
		.st0 {
			fill: #FFFFFF;
		}

		.st1 {
			display: none;
		}

		.st2 {
			fill: #64566D;
		}
	</style>
	<rect id="BACKGROUND_grass" y="0" width="1024" height="1024" />
	<g id="OBSTACLES">
		<path id="01_stone" class="st0" d="M0,1024C0,682.7,0,341.4,0,0c341.3,0,682.6,0,1024,0c0,341.2,0,682.7,0,1024
		C682.7,1024,341.4,1024,0,1024z M901,967.8c27.2-11.3,47.6-35.7,60.6-72.5c12.9-36.7,18.2-78.6,16-128.2
		c-0.9-21.9-6.8-42.1-16.8-58.3c-10.2-16.5-24.8-29-42.2-36.3c-14.7-6.1-30.9-9-50.9-9c-5.9,0-11.8,0.2-17.3,0.5
		c1-6.8,2-13.3,3.3-19.6c0.8-3.6,1.4-5.1,1.7-5.7c0.5-0.1,1.6-0.4,4.1-0.5c16.9-1.2,32.5-6.3,46.4-14.9
		c22.4-13.9,40.4-37.3,50.8-65.7c10.2-28,12.6-59.7,6.8-89.4c-7.7-39.5-27.2-65.2-57.9-76.7c-10.5-3.9-19.1-6.5-27-8.3
		c-24-5.3-49.6-7.8-80.4-7.8c-6,0-12.1,0.1-18.7,0.3c-0.8,0-1.7,0-2.7,0v-9.4l13.6-0.2c10.9-0.2,21.9-0.3,32.8-0.5
		c22.7-0.3,44.9-1.2,66.8-8.7c30.8-10.5,53.8-27.8,70.2-52.9c19.5-29.9,27.4-65.6,23.5-106.2c-5.1-53.5-25.9-94.2-61.8-120.9
		c-20.8-15.5-44.1-23-71.3-23c-4.9,0-10,0.3-15.2,0.8c-29.4,2.9-55.6,14.1-77.7,33.4c-19.4,16.9-34.9,38-46,62.6
		c-10.4,22.9-17.4,49.6-20.7,79.4c-0.9,8.4-1.6,16.7-2.2,25.5c-0.1,1-0.1,2-0.2,3l-252.3,3.9c-0.1-3.3-0.2-6.7-0.3-9.9
		c-0.4-14.3-0.8-27.8-2.1-41.5c-4.6-48.5-24.4-84.5-59.1-107c-15.3-10-32.3-17-53.6-22.2c-31.3-7.6-62.7-9.2-92-9.8
		c-2.5-0.1-5-0.1-7.4-0.1c-23.3,0-42.4,2.5-59.9,7.9c-44.2,13.6-75.6,44.4-93.5,91.5c-10.4,27.4-16,57.7-17.1,92.6
		c-0.9,28.3-0.6,57-0.4,84.8l0.1,12.6c0.3,29.8,0.6,60.6,2,90.9c2,43.7,16,80.4,41.4,109.3c16.4,18.6,36.1,31.6,60.4,39.9
		c-0.2,21.1-0.4,42.5-0.5,63.2c-0.1,18.8-0.3,37.6-0.5,56.4v4.8c-0.3,29.2-0.6,59.3,4.5,89c10.9,63.9,40.6,105.8,88,124.4
		c18.5,7.3,37.7,10.9,57,10.9c14.5,0,29.2-2.1,43.9-6.2c29.2-8.2,53.3-26.2,69.6-52.2c15.9-25.4,24.1-58,23.6-94.4
		c-0.2-20.5-0.4-41.4-0.6-61.8c1.8,5.8,3.9,11.4,6.2,16.8c13.8,32.8,34.9,53.5,62.8,61.6c7.4,2.2,15.3,3.2,24.1,3.2
		c9.8,0,19.4-1.3,28.8-2.6l2.2-0.3c35.2-4.7,70.9-9.9,105.5-14.9l2.5-0.4c15.3-2.2,30.8-4.6,45.8-6.8c8.7-1.3,17.4-2.6,26.1-3.9
		c5.3-0.8,10.6-1.5,15.8-2.3c0.1,1.8,0.2,3.6,0.3,5.4c0.7,12.1,1.3,23.6,2.2,35.3c2.3,29.1,7,52.7,14.7,74
		c8.9,24.6,21.9,43.5,38.8,56.3c15.1,11.5,32.9,17.5,51.5,17.5C878.6,974.7,890,972.4,901,967.8z" />

		<path id="02_stone" class="st0"
			d="M533.1,709.8c-0.7,0-2.4,0-4.5-5.7c-5-13.3-6.8-27.7-8-41.3c-2.8-32.1-1-65,0.8-96.7l0.3-6.1
		c0.2-2.7,0.3-5.4,0.4-8c0.3,4.7,0.8,9.4,1.5,14.2c8,55.4,31.6,95.6,70.2,119.7c8.9,5.5,18.6,9.7,28.9,12.4
		c-12.6,1.9-25.4,3.7-37.9,5.5c-10.1,1.4-20.7,2.6-30.8,3.7c-6.6,0.7-13.4,1.5-20.1,2.3C533.6,709.8,533.4,709.8,533.1,709.8z" />
		<path id="03_stone" class="st0"
			d="M712.2,685.1c12.3-7.4,23.5-16.9,32.5-28.4c9.7-12.3,17.3-26.2,22.9-41.4
		c-0.3,1.1-0.6,2.2-0.8,3.3c-4.8,19.8-6.4,40.2-7.3,59.3c-5.3,0.8-10.7,1.6-16,2.4C733.1,681.9,722.7,683.5,712.2,685.1z" />
		<path id="04_stone" class="st0" d="M772.3,599.5c3.3-12.8,5.2-26.6,5.7-41.2c0.7-16.8,0.5-34,0.3-50.5c-0.1-7.1-0.2-14.3-0.2-21.6
		c1.6,0,3.2,0,4.8,0c5.3-0.1,9.9-0.1,14.2-0.1c17.6,0,40.9,0.6,64,5.4c3.6,0.7,7.2,1.9,11.1,3.1c1.4,0.4,2.9,0.9,4.3,1.3
		c2.5,18.1-5.3,32.2-19.2,34.5l-3,0.5c-9.9,1.6-20.2,3.2-30.3,7.6C800.2,548.9,783.1,569,772.3,599.5z" />
		<path id="05_stone" class="st0"
			d="M522.1,529.9c-0.9-22.6-4.6-41.9-11.3-59.5c-14.1-37.2-38.5-58.5-72.6-63.8v-33.8l248.1-3.6v16
		c-1.8,0.3-3.6,0.7-5.3,1c-9.8,1.8-19.9,3.6-29.9,5.9l-3.5,0.8c-19.6,4.5-39.9,9.1-59,20.1C549.6,435.5,525.2,479.9,522.1,529.9z" />
		<path id="06_stone" class="st0" d="M304.6,842.8c-10.2,0-20.4-2-30.6-5.9c-13.2-5.1-21.3-17.5-24.5-37.8c-2.3-14.9-3.4-26.8-3.5-37.4
		c-0.1-39,0.3-78.7,0.6-117.1c0.1-12.2,0.2-24.5,0.3-36.7c0.1,0,0.1,0,0.2,0c5.6-1.3,11.3-2.7,17.1-4.4c23.8-7,45.4-18.8,64.4-35.1
		c6-5.1,12.2-10,18.7-15c0,0.5,0,1.1,0,1.6c0.7,82.7,1.4,165.4,2.1,248.1c0.2,26.3-10.6,32.9-20.1,35.8
		C321.1,841.6,312.8,842.8,304.6,842.8z" />
		<path id="07_stone" class="st0" d="M156.5,482c-6.7-8-10.4-18.5-11.2-31.7c-0.9-13.9-1-28.4-1.1-42.3c0-5.8-0.1-11.8-0.2-17.7
		c-0.2-9.8-0.4-19.7-0.6-29.4c-0.5-24.8-1-50.2-0.8-75.3c0.2-18.1,2.7-36.7,4.9-50.7c4.6-29.3,18.5-45.5,42.7-49.7
		c11.4-2,24.1-3,37.3-3c0.5,0,1.1,0,1.6,0c26.3,0.2,54.3,1.4,81.3,9.4c6.7,2,13.3,5,18.9,7.7c8.8,4.3,13.4,12.1,14.1,24.2
		c0.7,11.4,1.1,22.9,1.5,34.9c0.1,1.9,0.1,3.8,0.2,5.8c-3.6,0-7.3,0-10.9,0c-20.1,0-41,0.1-61.8,4.4c-36.6,7.5-63.2,23-83.6,48.6
		c-23.1,28.8-33.6,64.2-32.3,108.1c0.5,17.3,0.2,35.1-0.1,52.2C156.5,478.9,156.5,480.5,156.5,482z" />
		<path id="08_stone" class="st0" d="M248.4,475.2c0.2-16.7,0.3-33.4,0.5-50.1c0-2.2,0-4.3-0.1-6.3c-0.1-3.7-0.2-7.3,0.2-10.4
		c1.1-9.2,5.2-16,13-21.5c9.4-6.6,20.3-10.3,32.4-11.2c14.1-1,28.2-1.5,42.9-2c2.8-0.1,5.6-0.2,8.4-0.3v55.9
		c-2.2,1.4-4.5,2.8-6.7,4.1c-8.9,5.5-18.1,11.1-27.1,17.4c-12.3,8.6-24.8,18.2-38.1,29.5c-7.2,6.1-15.4,10.7-25.6,14.5L248.4,475.2z
		" />
		<path id="09_stone" class="st0" d="M782.4,257.7c1.8-25.6,6-46.7,17.5-64.7c12.6-19.5,29.3-29,51-29c1.9,0,3.8,0.1,5.8,0.2
		c13.4,1,22.8,6.7,29.4,18.1c7.9,13.7,10.5,28.9,7.8,44.8c-1.4,8.2-5.4,14-12.9,18.7c-10.4,6.6-22.5,10-36.7,10.5
		c-16.6,0.5-33.7,0.8-50.1,1.1C790.3,257.6,786.3,257.6,782.4,257.7z" />
		<path id="10_stone" class="st0" d="M649.5,592.2c-6.9,0-12.7-2.2-18.1-7c-13-11.5-20.2-35.4-16.3-54.3c1.3-6.3,4.3-14.4,11.5-17.6
		c9.4-4.1,19.8-7.7,33.1-11.2c8.4-2.3,16.9-3.9,25.9-5.7c0,4.1,0.1,8.1,0.1,12.1c0.2,18.3,0.4,35.7-0.5,53
		c-0.8,14.5-7.8,24.2-20.2,28C658.9,591.3,653.9,592.2,649.5,592.2z" />
		<path id="11_stone" class="st0" d="M870.2,867.3c-0.8,0-1.7-0.1-2.8-0.3c-0.5-0.1-1.8-0.4-2.5-3c-0.5-1.8-1.1-3.6-1.6-5.3
		c-2.7-8.9-5.3-17.3-6.2-25.9c-1.6-15-2.4-30.6-3.2-45.6c-0.2-3.8-0.4-7.7-0.6-11.6c5.4-0.5,10.7-0.8,15.9-0.8
		c7.4,0,13.6,0.7,19.3,2.3c0.3,22-0.4,47.6-7.6,72.6c-1,3.4-2.3,6.9-4.1,10.8C873.8,867.3,871.6,867.3,870.2,867.3z" />
	</g>
	<g id="ROAD">
		<path id="TRACK_cobblestone" class="st2" d="M427.6,273.3c90.3-1.3,180.9-2.6,271.7-3.9c1.1-12.8,1.8-25.2,3.1-37.3
	c6.2-56.1,25.7-102.9,63.6-135.9c21.7-18.9,46-28.6,72.3-31.1c28.2-2.7,55.2,2,79.8,20.3c34.6,25.8,53.2,64.8,57.9,114.1
	c3.5,36.8-2.9,70.8-22,99.9c-16.9,26-39.7,40.3-65.2,49c-21,7.1-42.3,7.8-63.9,8.1c-17.2,0.2-34.5,0.5-51.8,0.7c-1.4,0-2.9,0-4.7,0
	c0,10.2,0,19.6,0,29.4c4.4,0,8.7,0.1,13,0c32.5-0.9,64.9,0.2,96.8,7.3c8.7,1.9,17.2,4.8,25.8,7.9c28.1,10.4,44.8,33.8,51.7,69.4
	c11.2,57.7-10.7,118.6-53.2,145.1c-13.2,8.2-27.3,12.3-42,13.4c-9.6,0.7-12.2,2.5-14.8,14.1c-2.3,10.3-3.5,21.1-5.2,32.3
	c2.1,0,3.1,0.1,4.1,0c24.4-1.6,48.6-2.6,72.2,7.2c31.5,13.1,51.1,44.5,52.9,85.9c1.8,42.8-1.5,84.9-15.5,124.7
	c-11.1,31.4-28.4,55.6-55.1,66.8c-37.5,15.5-87.9,3.6-111.4-61.2c-8.2-22.8-12.2-46.9-14.1-71.6c-1.3-16.9-2.1-33.9-3.2-51.4
	c-8.9,1.3-17.8,2.5-26.8,3.8c-24,3.6-47.9,7.3-72,10.8c-36.1,5.2-72.1,10.4-108.2,15.2c-16.9,2.3-34,4.9-51,0
	c-26-7.5-44.3-27-56.5-56c-11.1-26.5-15.5-55.2-17.6-84.6c-2.7-38.4-0.4-76.6,1.5-114.9c0.6-11.9-1.2-24.2-2.8-36.1
	c-0.9-6.9-3.3-8.4-8.2-8.7c0,18.3-0.1,36.6,0,54.9c0.4,49.7,0.9,99.5,1.4,149.3c0.3,29.8,0.5,59.4,0.9,89.2
	c0.8,70.2-31.3,121.8-86.1,137.1c-31.8,8.9-63.7,7.7-94.7-4.4c-46.2-18.1-72.1-59.1-82-117.1c-5.2-30.5-4.6-61.3-4.3-92.2
	c0.4-41,0.6-82,1-122.9c0-3.7-1.1-4.6-3.7-5.4c-22.2-7-42.3-18.8-59.3-38.2C77.4,528.7,64.7,493.6,62.8,453
	c-1.6-34.4-1.7-68.8-2.1-103.3C60.3,321.5,60,293.2,61,265c1-31,5.8-61.2,16.5-89.6c17.6-46.6,47.8-73.6,87.3-85.7
	c21.2-6.5,42.7-7.8,64.4-7.4c30.2,0.6,60.2,2.3,90,9.5c17.5,4.2,34.7,10.5,50.6,20.9c32.5,21.2,50.4,54.9,54.7,99.8
	C426.7,232.2,426.7,252.1,427.6,273.3z M769.3,681.8c0.8-20.6,2.3-41.1,7.1-60.9c8.3-34.2,23.8-60.9,51.7-73.3
	c9.7-4.3,20.4-5.7,30.8-7.3c19.7-3.2,31.3-22.6,27.5-47c-0.5-3.3-1.6-5.4-4.3-6.2c-6.3-1.8-12.4-4.1-18.8-5.4
	c-26.6-5.5-53.4-5.9-80.3-5.5c-4.8,0.1-9.5,0-14.7,0c0,3.8,0,6.5,0,9.3c0,24.2,0.8,48.3-0.1,72.4c-1.4,35.3-11.1,67-31.3,92.5
	c-33.1,42.1-94,54.2-137.6,27.1c-37.3-23.3-58.2-62.1-65.6-112.7c-8.7-60.2,15.4-117.4,59.9-142.9c18.9-10.9,39.5-15.2,59.8-19.8
	c14.1-3.2,28.4-5.5,43-8.4c0-11.4,0-22.9,0-34.6c-89.6,1.3-178.9,2.6-268.2,3.9c0,17.8,0,35.1,0,52.4c2.7,0.4,4.9,0.7,7.2,1
	c30.5,4.1,52.9,22.9,66.1,57.5c10.3,27.2,11.9,56.2,10.3,85.6c-1.9,34.7-4.2,69.5-1.1,104.3c1.3,15.1,3.3,30,8.6,43.9
	c3.2,8.5,8.1,13,15.9,12.1c17-2.1,34.1-3.6,51-5.9c35.3-5,70.6-10.3,105.9-15.6c25.5-3.8,50.9-7.7,76.9-11.6
	C769.1,684.8,769.2,683.3,769.3,681.8z M237,602.9c-0.4,52.9-1,106-0.9,158.9c0,13,1.6,26.2,3.6,38.9c3.5,22,12.8,38.7,30.8,45.6
	c20.3,7.9,41.1,8.6,61.8,2.3c18.8-5.8,27.5-21.1,27.3-45.5c-0.7-82.7-1.4-165.4-2.1-248.1c-0.1-6.7,0-13.3,0-22
	c-12.6,9.8-24.3,18.2-35.3,27.8c-18.5,15.9-38.8,26.7-60.6,33.1c-8,2.3-16,4-24.3,6.1C237.1,601.1,237,602,237,602.9z M166.3,500.5
	c0.2-25.3,1.1-50.5,0.4-75.8c-1.2-39.3,7.7-73.5,30.1-101.4c21.5-26.8,48.5-39,77.8-45c24.2-5,48.4-4,72.8-4.2c2.5,0,5,0,8.3,0
	c-0.7-17.6-1-34.5-2-51.2c-1-15.8-7.9-26.8-19.7-32.6c-6.7-3.2-13.5-6.3-20.4-8.3c-27.7-8.2-55.8-9.6-84.1-9.8
	c-13.6-0.1-27.4,0.8-40.8,3.2c-27.3,4.8-45.5,23.5-50.9,58c-2.7,17.1-4.9,34.8-5,52.2c-0.4,35,0.8,70,1.3,105
	c0.3,20.1-0.1,40.5,1.3,60.5c1.6,24.2,12.2,41.2,30.4,50.9C166,501.1,166.3,500.8,166.3,500.5z M355.8,362.9
	c-21.2,0.9-41.7,1.3-62.2,2.7c-13.1,0.9-25.8,4.9-37.4,12.9c-9.1,6.3-15.6,15.3-17.2,28.5c-0.7,5.8-0.1,11.9-0.2,17.8
	c-0.2,25.8-0.5,51.6-0.7,77.4c0,1.9,0,3.9,0,6.2c15.4-4.2,29.5-9.9,42.1-20.7c12.1-10.2,24.7-19.9,37.4-29
	c12.5-8.8,25.6-16.3,38.1-24.3C355.8,411.3,355.8,387.6,355.8,362.9z M774.5,268c23.4-0.4,46.8-0.7,70.2-1.4
	c14.5-0.5,28.6-3.8,41.7-12c8.6-5.4,15.3-13.2,17.5-25.6c3.2-18.8-0.1-36.1-8.9-51.5c-9.1-15.8-22.4-22.1-37.3-23.2
	c-26.2-1.9-49,7-66,33.4c-14.9,23.2-18.4,50.9-19.7,80C773.1,267.8,773.8,268,774.5,268z M657.1,492.3c-11.6,3.1-23.4,6.8-34.6,11.8
	c-9,4-14.8,12.9-17.3,24.8c-4.6,22.5,3.8,49.9,19.5,63.9c13.4,11.9,28.3,10.9,43.2,6.3c15.4-4.7,26.2-17.1,27.3-37
	c1.4-25.5,0.3-51,0.3-78C682.7,486.8,669.8,488.9,657.1,492.3z M842.9,769.2c1.3,21.6,2,43.3,4.3,64.8c1.2,11.2,4.9,22.2,8.1,33
	c1.6,5.4,5.2,9,10.1,10c9.7,2,15.8-1.5,20.7-12.2c1.7-3.9,3.3-7.9,4.5-12.1c7.1-24.7,8.4-50.3,8-76.2c-0.1-4.9-2.1-7.2-5.8-8.4
	c-16.4-5-33-2.9-49.6-1.5C843,767.7,842.8,768.4,842.9,769.2z" />
		<circle id="START" cx="220.3" cy="729.1" r="3.4" class="st1" />
	</g>
</svg>