<?xml version="1.0" encoding="utf-8"?>
<!-- Generator: Adobe Illustrator 21.0.2, SVG Export Plug-In . SVG Version: 6.00 Build 0)  -->
<svg version="1.1" id="SCENE_1" xmlns="http://www.w3.org/2000/svg" xmlns:xlink="http://www.w3.org/1999/xlink" x="0px"
	y="0px" viewBox="0 0 1024 1024" style="enable-background:new 0 0 1024 1024;" xml:space="preserve">
	<style type="text/css">
		.st0 {
			fill: #FFFFFF;
		}

		.st1 {
			display: none;
		}

		.st2 {
			fill: #64566D;
		}

		.st3 {
			fill: rgba(255, 255, 255, 0.8);
		}
	</style>
	<rect id="BACKGROUND_grass1" y="0" width="1024" height="1024" />
	<g id="OBSTACLES">
		<path id="00_stone" class="st0" d="M850.4,276.9c-0.7-6-1.4-11.7-2.1-17.3c-0.4-3.3-0.7-8.2-1-14.5
		c-1-16.2-2.5-40.6-6.6-60.7c-4.8-23.4-10.9-29.5-13.4-29.5h-0.1c-5.1,0.2-12.6,9.7-18.1,35.8c-4.9,23.1-6.7,50.4-7.9,68.6
		c-0.4,6.4-0.8,11.4-1.1,14.8c-4.4,39.9-23.7,74.1-56,99c-30.1,23.2-69.4,36-110.6,36c-7.1,0-14.3-0.4-21.4-1.1
		c-81.4-8.6-120.6-72.3-145.5-126.8c-14.8-32.2-25.5-57.6-29.1-90.7c-2.2-19.8-20.2-42-41-42c-6.8,0-13.5,2.4-19.9,7.1
		c-10.8,8-16.4,16.7-17.2,26.6c-2,27.2,31.9,61.3,56.7,86.1c10.6,10.6,19.7,19.8,25.6,27.7C492,363.2,552.6,451.6,575,538.7
		c12.9,50.2,7.7,95.9-14.8,132.3c-22.5,36.3-61.1,61.1-111.5,71.9c-18.6,4-36.5,6-53.1,6c-84.2,0-137.6-50.6-150.4-142.6
		c-1.5-10.6-2.8-21.3-4-31.7c-3.6-30.4-7-59.2-15.5-87.7c-0.5-1.7-1.1-3.7-1.7-6c-3.2-11.2-8.6-29.9-15.2-46.2
		c-10.2-25.2-16.9-28.8-18.1-29.3c-5.4-1.8-9.8-2.8-13.5-2.8c-5.5,0-7.8,2.2-9.3,4.4c-12,17.3-1,80,27.4,156.1
		c5.2,13.6,11.7,27.3,17.9,40.6c9.2,19.5,18.7,39.7,25,61.1c10,33.8,9.6,66.9,9.1,98.8c-0.1,10.4-0.3,21.1-0.1,31.8
		c0.1,2.9,0.1,6.2,0.1,9.6c0.2,23.4,0.4,58.9,13.7,73c14.1,15.1,50.5,15.8,77,16.4c5.7,0.1,11.1,0.2,15.9,0.5
		c2.3,0.1,4.6,0.2,6.8,0.2c52.6,0,73.9-32.8,100.8-74.3c8.1-12.5,16.4-25.4,26.2-38.1c46.8-61.4,112-66.5,186.2-66.7h0.5
		c30.1,0,50.9,5.9,72.9,12c11.5,3.2,23.3,6.6,37,9.2c5.3,1,11.2,2.9,17.6,5c8.9,2.9,19.1,6.1,25.9,6.1c2.7,0,3.8-0.5,4-0.7
		c0,0,1.1-1.2,0.8-5.9c-0.6-13.3-13.1-27.8-36.9-43.1c-22.5-14.5-51.6-27.2-74.9-37.5c-16-7-29.8-13.1-38.9-18.5
		c-47.5-28-76.9-63.8-82.7-100.9c-4.5-28.7,5.1-56.4,28.3-82.4c40.4-45.1,81.4-48.8,125-52.8c17.5-1.6,35.6-3.2,54.8-7.6
		c25.3-5.7,39.6-19.6,44.9-43.8C857.2,332.2,853.7,304.1,850.4,276.9z M453,287.5c-6.3-8.5-15.1-17.4-26.9-29.2
		c-20.2-20.2-54.1-54.1-52.6-75c0.3-3.6,1.8-9.1,11.5-16.3c3.9-2.9,7.8-4.3,11.5-4.3c12.7,0,25.4,16.2,26.9,29.4
		c3.8,35.3,15.5,62.8,30.3,95.1c0.5,1.1,1,2.2,1.6,3.4C454.5,289.5,453.8,288.5,453,287.5z M226,597.7l-1.5-3.3
		c-5.6-12-11.4-24.3-15.9-36.3c-13.6-36.5-23.4-70.2-28.1-97.5c-4.9-27.9-2.9-39.6-1.6-43.6c1.2,0.2,2.9,0.5,5.4,1.3
		c1.5,1.7,5.6,7.3,11.5,21.8c6.5,16,11.8,34.6,14.7,44.6c0.6,2.2,1.1,4.1,1.6,5.7l0.2,0.6c8.1,27.3,11.5,55.4,15,85.2l0,0.2
		c1.5,12.9,2.7,22.8,4,32c0,0.2,0,0.3,0.1,0.5C229.5,605,227.7,601.3,226,597.7z M674.7,654.8c9.5,5.6,22.7,11.5,40.4,19.3l2.3,1
		c22.2,9.8,49.8,22,70.6,35.4c12.8,8.2,20.2,15,24.5,20.2c-2.4-0.7-4.6-1.5-6.3-2c-7.3-2.4-13.4-4.3-19.4-5.5
		c-12-2.3-22.7-5.3-33.1-8.2l-3.8-1.1c-21.7-6-44.1-12.2-75.7-12.2h-0.5c-75.2,0.2-146.9,5.9-197.5,72.3c-9.8,12.7-18,25.4-26,37.7
		l-0.9,1.3c-26.5,40.8-44,67.8-88.9,67.8c-1.9,0-3.9-0.1-6.1-0.2c-5.2-0.3-10.9-0.4-16.4-0.5l-0.6,0c-21.1-0.5-56.4-1.3-66.3-11.9
		c-9.4-10-9.7-44.4-9.9-62.9l0-0.5c0-3.5,0-6.8-0.1-9.9c-0.2-8.4-0.1-16.9,0-25.1c0-2.1,0-4.1,0.1-6.2c0.4-22.9,0.8-48-3.3-74.1
		c28.4,47.4,75.8,73.4,137.4,73.4c17.7,0,36.6-2.1,56.1-6.3c54.3-11.6,96-38.7,120.6-78.3c18.2-29.5,26.1-64.3,23.3-102.2
		C609.9,605.5,637,632.6,674.7,654.8z M616.9,449.8c-19.7,22.1-30.6,45.4-32.7,69.6c-14.6-47.6-39.2-94.9-66.5-138.6
		c23.6,21.2,53.8,37.2,92.8,41.3c8,0.8,15.6,1.2,22.9,1.2c4.6,0,9.1-0.1,13.6-0.4C637,429.9,626.9,438.7,616.9,449.8z M838.4,352.1
		c-4.1,18.6-14.3,28.5-34.2,33c-17.9,4.1-35.2,5.7-51.9,7.2l-1.2,0.1c-3.8,0.3-7.5,0.7-11.3,1.1c4.5-2.9,8.9-5.9,13.1-9.1
		c35.4-27.3,56.6-64.8,61.4-108.7l0-0.3c0.3-3.2,0.7-8.4,1.1-15.2c1.2-17.7,2.9-44.4,7.6-66.5c0.9-4.4,1.9-8.1,2.8-11.2
		c0.4,1.5,0.7,3.1,1.1,4.8c3.9,19.1,5.4,42.9,6.3,58.6v0c0.4,7.5,0.7,12.1,1.1,15.4c0.8,6.8,1.5,12.1,2.1,17.2l0.1,1
		C839.6,305.2,842.8,331.8,838.4,352.1z" />
		<path id="01_stone" class="st0" d="M437.1,14.2h0.3c-61.7-9.6-92.8-5.4-121.4,0h0.4c-20,5.4-36.4,12.8-50.9,19.4
		c-3.8,1.7-7.4,3.3-10.9,4.8c-43.1,18.7-69.8,71.7-69.8,110.2c0,14.2,2.7,26.3,6,36c0.6,1.2,1.2,2.5,1.8,3.7
		c19.9,39.9,32.6,64.9,43.3,75.7c11.2,11.2,30.3,26.8,50.6,43.4c22.6,18.5,45.9,37.5,58.2,50.4c20.6,21.6,71.7,127.6,96.1,188.5
		c19.8,49.6-8.2,67.7-8.5,67.9c-0.9,0.4-1.7,0.9-2.8,1.5c-4.2,2.3-12.9,7-22.6,7c-14.7,0-27.5-11.5-38.1-34.2
		c-3.2-6.9-2.4-25.2-1.6-41.4c1.2-24.6,2.5-52.5-5.5-75.9c-27.4-80.2-51.2-126.8-79.6-155.6c-27.6-28-60.3-39.9-109.4-39.9
		c-2.6,0-5.3,0-8,0.1C81.6,277.6,59.7,338.1,48,370.6c-2.1,5.8-3.9,10.7-5.5,13.9C4,460.7,59.5,577.6,80.4,621.7
		c1.9,4,3.6,7.5,4.7,10c4.1,9.1,7.9,18.8,11.1,28.5c0.1,0.2,0.2,0.3,0.3,0.5c16.6,31.3,26.9,94.4,25,129.9
		c-2,36.9,4.8,91.2,16.8,131.6c21.7,72.8,104.4,87.7,104.4,87.7c40.2,9.7,104.3,22.6,214.5,0h-1.2c9-4.5,16.2-9.4,22.5-13.8
		c1.5-1,2.9-2,4.4-3c24.3-16.1,78.2-98.5,78.7-99.3c17.2-26.3,31.8-34.4,71-56l6-3.3c9.6-5.3,20.3-7.9,32.6-7.9
		c30.7,0,64,16.3,89.6,30.6c26.9,15,47.2,23.1,77.4,23.1c12.2,0,26.1-1.4,42.6-4.2c60.2-10.5,81.1-79.1,83.1-86.5
		c2.3-7,10.6-42.3-26.2-114.6c-38.9-76.4-75.6-84.8-80.7-85.6l0,0c-0.4-0.1-36.7-5.9-74.2-15.4c-59.5-15-73.1-26.6-75.9-30
		c5.9-10.1,28.8-15.2,67.9-15.2c7.9,0,15.6,0.2,23.1,0.3c6.6,0.1,12.9,0.3,18.5,0.3c5.3,0,9.4-0.1,13-0.4
		c31.9-2.2,69.2-19.6,114.2-53.1c33.5-24.9,37.2-75.6,39.2-102.9c0.4-4.9,0.7-9.1,1.1-11.7c3.1-21.5,1.1-54.4-19.3-192.6
		C943.2,24.8,857.6,24.8,829.4,24.8c-4.2,0-8.2,0.1-11.7,0.2c-1.5,0-3,0.1-4.3,0.1c-45.1,0.9-73,29.6-100.9,72.4
		c-31.7,48.7-26.6,116.2-23.3,160.9l0.3,3.9c0.6,7.9-0.8,13.5-4.1,17.1c-4.7,5.1-14.5,7.7-28.4,7.7c-5.4,0-10.5-0.4-14.8-0.7
		c-30.4-2.5-42.7-42.5-43.7-56.8c-1.4-20.2-11.6-88.1-16.5-106c-7.8-28.8-35.4-80.9-132.1-106.4C445.6,16.2,441.4,15.1,437.1,14.2z
		 M568.3,127.4c4.7,17.3,14.7,84,16,103.3c1.4,19.3,16.7,66.6,56.7,69.9c20.3,1.7,66,4.7,62.7-39.3s-9.3-110,20.7-156
		s54.7-65.3,89.3-66c34.7-0.7,116-8.9,136.7,131.5c20.7,140.5,22,169.8,19.3,188.5c-2.7,18.7-0.7,80-34.7,105.3
		c-34,25.3-72.7,47.9-106.7,50.3S707.6,504.8,693,540s161.7,63.3,161.7,63.3s33,4.7,70.3,78s25.3,104,25.3,104s-18,67.3-72,76.7
		c-54,9.3-76,2-110.7-17.3s-91.3-47.3-136-22.7c-44.7,24.7-62,33.3-82,64s-58.7,84.7-74.7,95.3c-16,10.7-35.3,26.7-76,27.3
		s-99.3,6-152-13.3s-82-41.3-95.3-78s-18-88.7-16-126c2-37.2-8.5-103-26.4-137c-3.6-10.7-7.6-20.5-11.2-28.4
		c-13-29-81.8-158-42.8-235c12-23.7,21.8-99,109.8-101s129.6,28.5,183.3,185.8c13.3,38.8-2.5,96.9,7.7,118.7
		c31.1,66.4,75.7,35.6,82.3,32.5c8.7-4,37.7-31,15.7-86s-75-167.9-99-193c-24-25.1-85.9-71-109-94c-10-9.9-25.5-41.4-42.1-74.9
		c-2.7-8.2-4.9-18.4-4.9-30.4c0-32.5,22.7-80.5,61.3-97.2c38.6-16.7,88-46.2,186-20.4S563.6,110.1,568.3,127.4z" />
	</g>




	<g id="ROAD">
		<path id="TRACK_water" class="st0" d="M360.4,875.9c-1.6,0-3.3-0.1-5.3-0.2l-0.5,0c-5.1-0.3-10.8-0.4-16.2-0.5l-0.5,0
			l-0.7,0c-17.5-0.4-53.8-1.3-62.1-10.1c-7.8-8.3-8.2-43.6-8.4-58.7l0-0.9c0-3.5,0-6.9-0.1-10.1c-0.2-8.3-0.1-17.1,0-24.8
			c0-2.1,0-4,0.1-6l0-0.2c0.3-16.2,0.6-33.9-0.8-52.5c30.3,37.6,74.5,57.4,129.2,57.4c18.2,0,37.5-2.2,57.3-6.4
			c12.5-2.7,24.4-6.2,35.6-10.4c-5.7,5.7-11.1,11.9-16.4,18.8c-9.6,12.4-17.6,24.7-25.4,36.7l-0.8,1.3l-1,1.5
			C418.1,851.4,402.2,875.9,360.4,875.9z M787.9,718.4c-11.6-2.2-22.1-5.2-32.2-8l-0.5-0.1l-3.9-1.1c-22-6.1-44.8-12.4-77.2-12.4
			h-0.5c-42.4,0.1-83.6,1.9-120.9,15.1c9.1-9,17.2-19,23.9-29.9c15.4-24.9,23.6-53.1,24.6-83.9c16.3,23.2,40.3,44.5,70.5,62.3
			c9.6,5.7,22.5,11.4,41,19.6l2.3,1c21.9,9.7,49.3,21.8,69.8,35c1.3,0.9,2.6,1.7,3.9,2.6C788.5,718.6,788.2,718.5,787.9,718.4z"/>
		<path id="TRACK_water" class="st0" d="M435.4,259.9c-1.7-1.7-3.5-3.5-5.4-5.4c-18.3-18.3-52.3-52.3-51-70.6
			c0.1-1.5,0.5-5.7,9.2-12.2c2.8-2.1,5.6-3.2,8.1-3.2c9.5,0,20.1,13.7,21.3,24.4C420.4,217.6,426.8,238.5,435.4,259.9z"/>
		<path id="TRACK_water" class="st0" d="M221.3,574.2c-2.7-6-5.2-12-7.4-17.9c-13.6-36.6-23.3-70-27.8-96.5
			c-2.9-16.4-3.3-26.8-3-33c1.8,3.1,4.3,8,7.4,15.6c6.1,15,11.1,32.3,14.1,42.7l0.4,1.4l0.3,1.1c0.5,1.8,0.9,3.3,1.3,4.7l0.2,0.6
			C214.7,519.3,218.1,547.1,221.3,574.2z"/>
		<path id="TRACK_water" class="st0" d="M582.7,497.4c-10.8-29.7-25.7-60.8-45-94.2c21.7,13.6,45.9,21.9,72.2,24.7
			c7,0.7,13.7,1.1,20.2,1.2c-6,5.2-11.8,10.9-17.4,17.1C598,462.6,588,479.7,582.7,497.4z"/>
		<path id="TRACK_water" class="st0" d="M760.1,386.1c34.4-28,55-65.8,59.8-109.6l0-0.3v-0.3c0.2-2.4,0.6-7.3,1.1-15.1l0.1-1.6
			c0.8-12,1.9-28.2,4-44.1c1.3,12.1,1.9,23.7,2.4,31.4c0.4,7.2,0.7,12.1,1.1,15.8c0.4,3.6,0.8,6.9,1.2,9.8c0.3,2.6,0.6,5,0.9,7.3
			l0.1,1c3,25.2,6.2,51.3,2,70.7c-3.6,16.4-12.3,24.7-29.9,28.7C788.1,383.1,773.5,384.8,760.1,386.1z"/>
	<path id="TRACK_asphalt1" class="st2" d="M386.9,1001.9c-68.6,0-165.4-0.2-210.3-60.3c-53.9-72.1-18.7-160.9-38.1-240.1
		c-15.7-64.4-56.4-122.6-74.9-186.7c-25.7-89,5.8-215,118.3-216.7C281.7,296.5,319,412.4,336,493.3c11.8,56-10.9,151.7,65.5,148.6
		c128.7-5.3,54.9-132.8,20.6-202.5c-23.4-47.6-50.4-94.9-91.4-129.6c-34.1-28.9-79.4-54.1-101.5-94.8
		C133.3,37.8,452.3-32.8,541.2,99c19.7,29.2,27.7,52.3,29.8,87.9c1.2,20.5,3.2,71.8,15.7,93.4c16.9,29.1,89.5,44,113.1,16.7
		c18.7-21.7,9.8-62.2,9.9-88.8c0.3-83.5,54-193.8,156.6-150.6c71.6,30.2,78.4,110.9,85.9,178c8.5,76.6,23.7,168.6-38.5,227.5
		c-27.9,26.5-65.1,37.5-102.4,42.4c-30.9,4-91.4-6.3-114.6,18.3c-48.3,51.1,102,74.2,130.9,86c88,35.7,173.8,174.7,54.9,235.9
		c-57.5,29.6-98.4-5.9-146.3-32.6c-35.8-19.9-77.8-11.2-116.2,2.6C521.5,850.9,514.7,1001.9,386.9,1001.9z M186,566.6
		c13,34.1,32.3,65.9,42.6,101c12.7,42.9,7.8,84.2,8.6,128c0.5,24.8-1.6,70,16.5,89.3c20.4,21.8,71.5,18.6,99.7,20
		c81.2,4.1,98.7-59.1,142.2-116.2c44.1-57.9,106.4-62.6,178.2-62.8c44.6-0.1,68.2,13.4,108.5,21c20.6,3.9,61.7,26.4,60.1-5.8
		c-2.5-50.7-120.4-86.5-155.6-107.2c-67.5-39.7-108.9-104.4-52-168c53.2-59.4,106.1-41.9,174.5-57.2c72.4-16.3,55.1-92.3,48.8-150.2
		c-2.2-20.1-2.7-114.8-31.5-113.7c-33.1,1.3-34.3,106.2-36.8,128.1c-9.3,84.3-90.6,134.1-177,124.9c-69.2-7.3-107.9-56.5-137.5-121
		c-15.1-32.9-24.9-56.9-28.3-87.6c-3.7-33.5-41.8-67.7-76.8-41.8c-65.2,48.3,37.5,120.3,63.1,154.5c52.1,69.6,110,155.1,131.6,239.2
		c24.6,95.9-20.6,171-118.8,191.9c-107,22.8-176.8-22.5-191.5-128.2c-5.7-40.6-8.1-81.2-19.8-120.8c-5.3-18.1-21.6-80.7-41.1-88
		C113.2,366.2,175.3,537.9,186,566.6z M535.5,225.6L535.5,225.6L535.5,225.6z" />
	<circle id="START" cx="160" cy="579.9" r="3.4" class="st1" />
	<g id="CHECK">
		<rect id="1" x="73.1" y="558" class="st0" width="114.8" height="4.1" transform="rotate(-15, 130.5, 560.05)" />
		<rect id="2" x="472" y="268.1" class="st0" width="114.8" height="14.3" />
		<rect id="3" x="833.3" y="733.7" class="st0" width="114.8" height="14.3" />
	</g>
	</g>
	<path id="drive" class="st2" d="M120.5,589.4L96.6,489.4l-4.4-58.9l2-30.5l7.6-27.3l14.6-22.7l20.2-15.8l28.8-10.8l31.1,2.9
	l23.4,14.6l20.9,21.5l17.8,25.7l14.2,27.2l10,26.2l5.4,23.1L304.9,579l7.7,27.1l11,23.6l15.2,18.7l16.5,10.3l21.2,6.6l24.3,3.2h25.8
	l25.7-3l24-5.7l20.7-8.3l15.9-10.5l27.5-43.7l1.2-52.1L522.5,488l-42.2-57.7l-86-95.3l-84.7-85.3l-27.3-54l-1.3-50l18-41.3
	l40.7-24.7l61.3-9.3l54,8l32.7,25.4l18.8,35.3l10.5,44l1.3,56l4.1,50.7l19.3,23.2l20,19.3l24.7,15.9l24.5,9.3l23.8,2.9l26.4-0.6
	l20.7-3.3l30-13.3l18-24.7l14.3-28.8l6-29l-2.3-93.5l5.9-27.5L768,117l22.5-15.1l32.9-5.8l29.8,4.3l22.2,12.5l15.8,18.9l10.5,23.7
	l6.4,26.9l6.4,114l-1.8,27.6l-4.8,24.2l-8.6,21.1l-13.1,18.5L867.8,404l-24.5,14.3L812,430.9L718.2,453l-21.5,9.5l-17.9,13.8
	L666.1,496l-6.1,26.7l3.8,29.3l14.6,23.1l22.8,18l28.4,14L847,644.9l17.9,11l15.5,15.6l11.7,18.9l6.7,21l0.3,21.7l-7.3,21.2
	l-16.3,19.4L849,789.9l-16.3,5l-18.3,1.9l-19.7-0.5L699,780.9l-17.2-1.3l-17,0.5l-16.9,2.2l-16.6,3.8l-16.4,5.3l-16,6.6L568,814.9
	l-27.5,19.8L456.6,915l-23.5,16.6l-28.2,13.7l-34.6,10l-29.7,4.1l-28.3-0.3l-26.5-4.7l-24.2-9.1l-21.5-13.6l-18.4-18.1L207,890.9
	l-10.9-27.1l-34-141L138.6,634L120.5,589.4z" />
	<g id="layout">
		<polygon class="st3"
			points="98.2,570.7 97.5,568.3 96.9,565.9 102.1,564.5 107.3,563.1 108,565.5 108.6,567.9 103.4,569.3 	" />
		<polygon class="st3"
			points="119.1,565.1 118.4,562.7 117.8,560.3 123,558.9 128.2,557.5 128.8,559.9 129.5,562.3 124.3,563.7 	" />
		<polygon class="st3"
			points="139.9,559.5 139.3,557.1 138.6,554.7 143.9,553.3 149.1,551.9 149.7,554.3 150.4,556.7 145.1,558.1 	" />
		<polygon class="st3"
			points="160.8,553.9 160.2,551.5 159.5,549.1 164.7,547.7 169.9,546.3 170.6,548.7 171.2,551.1 166,552.5 	" />
		<path class="st3" d="M386.9,997.9c-33.4,0-75,0-113.3-7.5c-43.9-8.7-74.6-25.4-93.8-51.2c-32.6-43.5-31.8-92.5-31-144.4l0-0.2
		c0.5-31.1,1-63.3-6.5-94c-8.3-34-23.7-66.7-38.6-98.4l-0.5-1C89.9,573,76,543.8,67.4,513.7C50.6,455.6,59.8,389,90.3,347.8
		c22-29.7,52.8-45.1,91.6-45.7h2c22.4,0,42.7,6.2,60.5,18.5c15.8,10.8,30.1,26.7,42.5,47.1c19,31.2,33.7,72.5,45,126.5
		c3.1,14.5,3.8,31.8,4.4,48.5l0,0.4c1.1,24.4,2.2,49.7,9.8,68.9c8.9,22.5,26.3,33.9,51.5,33.9c1.2,0,2.4,0,3.7-0.1
		c34.5-1.4,57.6-11.7,68.9-30.8c24-40.8-11.4-111-37.2-162.3c-1.8-3.6-3.6-7.1-5.2-10.4c-0.8-1.6-1.6-3.2-2.4-4.8
		c-23-46.8-50.1-95.1-92.4-130.9c-8.4-7.1-17.6-14.1-26.5-20.9l-3.3-2.5c-27.1-20.4-55.1-41.4-70.7-70.3
		c-21.6-39.9-23.1-75.9-4.6-106.9c12.8-21.6,35.3-39.8,65-52.5c28-12.1,61.7-18.7,95.1-18.7c65.8,0,121.7,24.8,149.7,66.4
		c19.4,28.7,27,51.2,29.2,85.8c0.1,1.4,0.2,3,0.3,4.7l0,0.7c1.4,24.1,4,69,16,89.7c12.5,21.5,48.3,33.1,75.7,33.1
		c19.5,0,35-5.6,43.9-15.8c15.4-17.9,13.5-46.2,11.8-71.1l-0.1-1.3c-0.5-6.8-0.9-13.2-0.8-19c0.1-36.6,10.6-75.7,28.1-104.6
		c14.2-23.6,39.6-51.7,80.4-51.7c13.5,0,27.9,3.2,42.6,9.4c67.1,28.3,75.4,102.7,82.8,168.4l0.7,6.5c0.2,2,0.5,4.1,0.7,6.1
		c0.3,2.6,0.6,5.2,0.9,7.9l0.1,0.6c8.4,72.9,18,155.6-39,209.6c-23.4,22.3-55.3,35.4-100.1,41.3c-7.4,0.9-16.9,1-25.2,1h-14.4
		c-30.3,0-61.3,1.4-77.4,18.5c-9.1,9.6-12.4,19.2-9.7,28.5c7.4,25.9,57.4,41,112.3,55.4l2,0.5c11.9,3.2,22.3,5.9,27.7,8.1
		c26.9,11,54.1,32.1,74.8,58c21.9,27.3,34.6,57.3,35.8,84.5c0.8,17.4-3.1,33.3-11.5,47.2c-9.3,15.4-24.3,28.6-44.5,39.1
		c-14.1,7.2-27.6,10.8-41.3,10.8c-28.4,0-53.6-15.1-80.3-31.1c-7.6-4.6-14.4-8.5-21-12.2c-14.6-8.1-31.3-12.2-49.7-12.2
		c-20.2,0-42.4,4.6-69.8,14.5c-43.9,15.6-70.1,53.7-95.5,90.5l-0.2,0.3C489.2,951.7,457.2,997.9,386.9,997.9z M181.9,305.1
		c-37.8,0.6-67.8,15.6-89.2,44.5c-29.9,40.4-39,106.1-22.5,163.3c8.6,29.8,22.4,58.9,35.7,87.1l0.5,1c15,31.8,30.5,64.6,38.8,98.9
		c7.6,31,7,63.4,6.5,94.8l0,0.2c-0.8,51.3-1.5,99.8,30.4,142.6c18.7,25.1,48.8,41.5,92,50c38,7.5,79.4,7.5,112.7,7.5
		c68.7,0,100.3-45.6,133.8-93.8l0.2-0.3c25.6-37.2,52.2-75.7,96.9-91.7c27.8-10,50.3-14.7,70.8-14.7c18.8,0,36.1,4.2,51.1,12.6
		c6.6,3.7,13.5,7.7,21,12.2c26.3,15.8,51.1,30.7,78.7,30.7c13.2,0,26.3-3.4,39.9-10.4c19.7-10.2,34.3-23,43.3-37.9
		c8.1-13.4,11.9-28.8,11.1-45.6c-1.2-26.5-13.7-55.9-35.2-82.7c-20.4-25.5-47.2-46.3-73.6-57c-5.2-2.1-15.4-4.9-27.3-8l-2-0.5
		c-55.8-14.6-106.6-30-114.5-57.4c-3-10.4,0.6-20.9,10.5-31.3c16.9-18,48.6-19.5,79.6-19.5h14.4c8.2,0,17.6-0.1,24.8-1
		c44.2-5.8,75.5-18.6,98.5-40.5c55.9-52.9,46.4-134.7,38.1-207l-0.1-0.6c-0.3-2.7-0.6-5.3-0.9-7.9c-0.2-2.1-0.5-4.1-0.7-6.2
		l-0.7-6.5c-7.2-64.8-15.5-138.3-81-165.9c-14.3-6.1-28.3-9.2-41.4-9.2c-39.3,0-64,27.3-77.8,50.3c-17.2,28.4-27.6,66.9-27.7,103
		c-0.1,5.7,0.3,12.1,0.8,18.8l0.1,1.3c1.7,25.5,3.7,54.5-12.6,73.3c-9.4,10.8-25.8,16.8-46.1,16.8c-28.2,0-65.2-12.1-78.3-34.5
		c-12.4-21.3-15-66.7-16.4-91.1l0-0.7c-0.1-1.7-0.2-3.3-0.3-4.7c-2.1-34-9.6-56.1-28.6-84.4c-27.4-40.7-82.5-65-147.3-65
		c-33,0-66.3,6.6-93.9,18.5C265,68.8,243,86.6,230.5,107.7c-18,30-16.4,65,4.6,103.9c15.4,28.3,43.1,49.2,69.9,69.3l3.3,2.5
		c9,6.8,18.2,13.8,26.7,21c42.7,36.2,70,84.8,93.2,131.9c0.8,1.6,1.6,3.2,2.4,4.8c1.7,3.4,3.4,6.8,5.2,10.4
		c26.2,51.9,62,123,37.2,165.1c-11.8,20-35.8,30.8-71.3,32.2c-1.3,0.1-2.7,0.1-3.9,0.1c-26.6,0-44.9-12.1-54.3-35.8
		c-7.8-19.7-8.9-45.2-10-69.9l0-0.4c-0.7-16.6-1.3-33.8-4.4-48.1c-11.2-53.6-25.8-94.7-44.6-125.5c-12.2-20-26.2-35.5-41.7-46.1
		c-17.3-11.9-37.1-17.9-58.9-17.9H181.9z" />
		<path class="st3" d="M363.9,912.1c-2.4,0-4.8-0.1-7.4-0.2l-0.3,0c-4.5-0.2-9.6-0.3-15.4-0.4c-29.6-0.6-70.1-1.4-89.1-21.8
		c-17.8-19.1-18.1-56.8-18.3-84.4v-0.1c0-3.3,0-6.5-0.1-9.3c-0.2-8.9-0.1-17.6,0-26.1c0-2,0-4,0.1-6l0-0.2
		c0.4-32.1,0.8-62.5-8.4-93.8c-5.7-19.6-14.6-38.6-23.2-56.9l-1.6-3.4c-6.1-13-12.5-26.5-17.7-40.3c-7.3-19.8-17.5-49.7-24.9-80
		c-11.1-46.4-11.3-76.5-0.6-91.9c5.3-7.6,13.3-11.6,23.2-11.6c5.5,0,11.8,1.3,19.2,3.9c18.7,7.1,32.6,48.1,43.8,87.4l0.1,0.2
		c0.4,1.4,0.7,2.5,1,3.6c0.1,0.5,0.3,1,0.4,1.4c9,30.4,12.7,62.3,16,90.4c0.4,3,0.7,6,1.1,9c0.9,7.4,1.8,15,2.9,22.5
		c5.9,41.9,20.5,74.1,43.4,95.8c22.6,21.3,52.9,32.1,90.2,32.1c15.3,0,31.9-1.9,49.5-5.6c45.9-9.8,80.7-32,100.6-64.2
		c20.1-32.4,24.5-73.6,12.8-119.1c-21.8-84.5-81.1-170.9-130.4-236.8c-5.1-7-13.9-15.8-24.1-25.9c-28.7-28.8-64.3-64.5-61.6-99.4
		c1.1-15,9.2-28.2,24-39.1c9.3-7,19.4-10.5,30-10.5c30.8,0,54.8,29.5,57.9,57.1c3.4,30.5,13.6,54.7,27.7,85.4
		c16.4,35.9,33.1,61.2,52.4,79.8c22.6,21.7,48.6,33.8,79.5,37.1c6.9,0.7,13.4,1.1,19.6,1.1c37.5,0,73.1-11.5,100.2-32.4
		c28.5-22,45.6-52.2,49.4-87.4c0.2-2.2,0.6-7,1.1-14.5c1.8-27.3,4.5-58.3,11-81.5c7-25.2,17.3-37.7,31.5-38.2l0.8,0
		c21.4,0,27.9,32.4,30.1,43.1c4.5,22,6.1,48.8,6.9,63.2c0.1,1.6,0.2,3.1,0.3,4.6c0.3,3.7,0.5,6.9,0.7,9.1c0.4,3.6,0.8,7.2,1.3,10.9
		c0.2,2,0.5,4.1,0.7,6.2l0,0.3c3.4,27.7,7.3,59.1,1.2,85.2c-6.9,30-25.8,48.1-57.5,55.2c-20.6,4.6-39.9,6.3-56.9,7.8l-0.2,0
		c-43.5,4-77.9,7.1-113.7,47.2c-19.6,22-27.8,45-24.1,68.5c4.9,31.5,32.1,63.9,74.5,88.8c8.4,4.9,22.3,11,37,17.5
		c50.6,22.2,119.8,52.7,122,95.4c0.3,8-1.5,14.2-5.5,18.4c-3.9,4-9.3,6-16.3,6c-9.3,0-20.6-3.6-30.5-6.8l-0.5-0.2
		c-5.9-1.9-11.4-3.7-15.6-4.5c-13.7-2.6-25.4-5.8-36.6-9l-3.1-0.9c-20.5-5.7-39.8-11.1-67.1-11.1H677c-40,0.2-70.2,1.9-97.6,9.5
		c-31.7,8.9-55.5,24.9-75,50.5c-9.2,12.1-17.3,24.5-25.1,36.5L479,830C451.7,872.2,425.9,912.1,363.9,912.1z M180.4,388.5
		c-8.9,0-16.1,3.6-20.8,10.4c-10.2,14.7-9.9,44,1,89.5c7.7,31.7,18.8,63.5,24.7,79.6c5.2,13.7,11.5,27.1,17.6,40l1.6,3.4
		c8.7,18.5,17.6,37.6,23.4,57.4c9.3,31.7,9,62.3,8.6,94.7l0,0.2c0,2,0,4-0.1,6c-0.1,8.5-0.2,17.2,0,26c0.1,2.9,0.1,6.1,0.1,9.4
		c0.2,27.2,0.5,64.3,17.5,82.5c18.1,19.4,57.9,20.2,86.8,20.8c5.8,0.1,11,0.2,15.5,0.4l0.3,0c2.5,0.1,4.9,0.2,7.3,0.2
		c60.3,0,85.7-39.2,112.5-80.7l0.4-0.6c7.8-12.1,15.9-24.6,25.2-36.7c19.9-26.1,44.2-42.4,76.6-51.5c27.7-7.8,58.2-9.5,98.4-9.7h0.5
		c27.6,0,47.2,5.4,67.9,11.2l3.1,0.9c11.2,3.1,22.7,6.4,36.3,8.9c4.4,0.8,10,2.6,16,4.5l0.5,0.2c9.8,3.1,20.8,6.7,29.6,6.7
		c6.1,0,10.9-1.7,14.1-5c3.4-3.6,5-9,4.7-16.2c-2.1-40.9-70.3-70.9-120.2-92.8c-14.8-6.5-28.8-12.7-37.4-17.7
		c-43.2-25.4-70.8-58.6-75.9-91c-3.8-24.4,4.6-48.2,24.9-70.9c36.6-41,71.5-44.2,115.7-48.2l0.2,0c16.9-1.5,36.1-3.2,56.5-7.8
		c30.5-6.8,48.6-24.2,55.3-53c5.9-25.6,2.1-56.7-1.3-84.2l0-0.3c-0.2-2.1-0.5-4.2-0.7-6.2c-0.4-3.7-0.9-7.4-1.3-10.9
		c-0.2-2.2-0.4-5.4-0.7-9.2c-0.1-1.4-0.2-3-0.3-4.6c-0.9-14.3-2.5-41-6.9-62.8c-5.5-27-14.6-40.7-27.1-40.7h-0.7
		c-12.6,0.5-22,12.2-28.7,36c-6.4,22.9-9.1,53.7-10.8,80.9c-0.5,7.5-0.9,12.4-1.1,14.6c-4,36.1-21.4,67-50.6,89.4
		c-27.6,21.3-63.9,33-102,33c-6.4,0-12.9-0.4-20-1.1c-31.6-3.3-58.2-15.7-81.3-37.9c-19.6-18.9-36.4-44.5-53-80.8
		c-14.2-31-24.5-55.4-27.9-86.4c-2.9-26.3-25.7-54.5-54.9-54.5c-9.9,0-19.4,3.3-28.2,9.9c-14.1,10.4-21.7,22.8-22.8,36.9
		c-2.5,33.5,32.5,68.7,60.7,97c10.3,10.3,19.1,19.1,24.4,26.3c49.5,66.1,109,152.8,130.9,237.8c11.9,46.3,7.3,88.3-13.2,121.5
		c-20.4,32.9-55.8,55.6-102.6,65.6c-17.8,3.7-34.6,5.6-50.1,5.6c-38,0-69.1-11.1-92.2-32.9c-23.5-22.2-38.4-55-44.4-97.6
		c-1.1-7.5-2-15.2-2.9-22.6c-0.4-3-0.7-6-1.1-9c-3.3-28-7-59.8-16-90c-0.1-0.5-0.3-0.9-0.4-1.4c-0.3-1.1-0.7-2.2-1-3.5l-0.1-0.2
		c-11-38.6-24.6-78.9-42-85.5C191.5,389.7,185.5,388.5,180.4,388.5z" />


	</g>
</svg>