<?xml version="1.0" encoding="utf-8"?>
<!-- Generator: Adobe Illustrator 21.0.2, SVG Export Plug-In . SVG Version: 6.00 Build 0)  -->
<svg version="1.1" id="SCENE_4" xmlns="http://www.w3.org/2000/svg" xmlns:xlink="http://www.w3.org/1999/xlink" x="0px" y="0px"
	 viewBox="0 0 1024 1024" style="enable-background:new 0 0 1024 1024;" xml:space="preserve">
<style type="text/css">
	.st0{fill:#64566D;}
	.st1{display:none;}
	.st2{fill:#FFFFFF;}
</style>
<g>
	<rect id="BACKGROUND_grass" y="0" width="1024" height="1024"/>
	<g id="ROAD">
		<path id="TRACK_cobblestone" class="st0" d="M653.4,256.4c0,1.9,0.9,185,1,228.9c0,9.1-1.7,18.1-2.9,27.1
			c-2,14.5-5.5,28.6-10.7,42.3c-7.2,18.9-17.2,36-31.7,50.2c-17.6,17.2-38.8,27.5-63.1,31.1c-3.8,0.6-7.6,1-11.8,1.5
			c0,1.2,0,2.4,0,3.6c0.2,24.2,2.3,199.7,2.3,215c0,14.5-2,28.8-7,42.6c-9,25-26.3,42.1-50.5,52.4c-11.8,5-24.1,8-36.7,10
			c-21.1,3.3-42.4,4.4-63.7,4.4c-37.9-0.1-75.9-0.3-113.8-0.8c-17.4-0.2-34.7-1.2-52-3.1c-16.2-1.8-32.4-4.3-47.8-9.8
			c-13.7-4.9-26.1-11.8-36.4-22.3c-11.3-11.5-18.2-25.4-22.3-40.9c-2.4-9.2-3.7-18.6-4.6-28.1c-1.4-16.2-1.4-32.4-1-48.7
			c0.4-15.4,2.9-30.4,8.7-44.8c10-25,27.9-42.3,52.7-52.6c13.3-5.5,27.2-8.5,41.4-10.2c26.6-3.2,53.2-2.3,79.9-2.2
			c16.6,0.1,33.3-0.1,49.9-0.2c5.1,0,10.1-1,14.9-2.6c8-2.5,13.9-7.4,18-14.8c3.2-5.9,5.4-12.1,6.6-18.6c1.3-7.2,2.1-14.5,3.1-21.8
			c0.1-0.7,0-1.4,0-2.6c-1.2,0-2.4-0.1-3.6-0.1c-25.9,0.2-51.9,0.4-77.8,0.5c-5.5,0-11,0.1-16.4,0.1c-10.1-0.1-20.2,0.6-30.3,1
			c-19.5,0.9-38.3-2.2-56.1-10.6c-25.5-12.1-41.8-32.1-49.9-58.9c-3.3-10.9-5.1-22.2-5.1-33.6c0-11.6,0.1-23.2,0.8-34.7
			c1.1-16.7,4.2-33,10.7-48.5c11.4-27,31.3-44.6,59.1-53.5c11.2-3.6,22.7-5.4,34.4-6.3c17.7-1.4,35.3-0.7,53,0.5
			c9.3,0.7,18.6,1.2,27.8,2.1c16,1.5,31.8,4.1,47,9.2c17.5,5.9,32.8,15.2,44.6,29.6c10.1,12.3,16.2,26.5,19.8,42
			c3.2,14,6.6,94.6,6.6,94.6l28.5-0.7c0,0-0.4-242.1-0.3-270.4c0.1-19.7,3.6-38.8,11.1-57.1c5.5-13.3,13.1-25.1,23.9-34.7
			c11.4-10.2,24.7-16.4,39.8-18.6c4.8-0.7,9.7-0.8,14.5-1.2c8.8-0.7,17.5-1.4,26.3-2.1c0.7-0.1,1.4-0.3,2.3-0.5c0-1.6,0-3.1,0-4.7
			c0.4-17,2.5-33.8,8.4-49.9c12.7-34.9,37.4-56.2,73.4-64.3c20.1-4.5,40.4-4.9,60.5,0.2c32.5,8.2,54.3,28.6,66,59.9
			c4.3,11.6,6.6,23.6,7.6,36c0.9,11.2,0.7,22.3-0.4,33.4c-0.1,0.9,0,1.9,0.2,2.8c2.1,11.7,7.8,21.4,16.5,29.5
			c5.9,5.5,12.5,10.2,19.4,14.4c11.2,6.9,22.5,13.5,33.6,20.5c11.2,7,21.4,15.2,30,25.3c13.2,15.6,20.5,33.5,21.6,53.9
			c0.9,16.8,0,33.5-1.9,50.1c-1.9,17-5.3,33.7-10.6,49.9c-8.4,25.9-21.1,49.3-39.6,69.5c-14.6,15.8-31.7,28.4-51,37.9
			c-12.1,6-24.7,10.4-37.7,14c-11.5,3.2-21.8,8.9-31.5,15.7c-1.3,0.9-1.8,1.8-1.4,3.4c1,4.6,2.2,9,4.3,13.2c3.2,6.4,8,11,14.5,13.8
			c6.1,2.7,12.6,3.8,19.3,4.2c11.4,0.7,22.6,2.3,33.5,6c27.9,9.4,47.3,28,58.6,55c5.4,13,8.4,26.6,10,40.5
			c1.3,11.2,1.7,22.5,1.9,33.7c0.1,7.7,0.6,15.5,1,23.2c1.7,35.6-11.8,63.8-41,84.3c-14.2,10-30,16.6-46.5,21.5
			c-16.4,4.9-33.1,8-50,10.2c-21.9,2.8-43.8,4.3-65.9,3.5c-19.1-0.7-37.9-3.2-55.8-10.4c-19.1-7.6-34.5-19.7-44.8-37.9
			c-6.2-11-9.8-23-11.5-35.4c-2.1-14.8-2.2-29.7-1.2-44.6c0.9-13,3.9-25.7,7.6-38.2c8.8-30,21.1-58.5,36-85.8
			c11.3-20.6,23.9-40.4,38.4-58.9c7.5-9.5,15.4-18.7,24-27.2c1.4-1.4,2.1-2.8,2-4.9c-0.9-25.4-4.2-263-6.3-271.5
			c-0.8-3.2-1.9-6.4-3.2-9.3C670.2,263.5,662.9,259,653.4,256.4z M747.6,511.3c3.9-1.4,7.3-2.7,10.9-3.8c7.1-2.3,14.3-4.2,21.2-6.8
			c19.1-7,35.5-18,48.2-34.1c10.9-13.6,17.9-29.1,22.7-45.8c6.3-22.2,8.1-44.9,7.9-67.8c-0.1-8.5-3.2-15.7-9.7-21.3
			c-3.1-2.6-6.1-5.3-9.5-7.5c-6.4-4.2-12.9-8.2-19.5-12.1c-11.8-7.1-23.6-14.1-34.5-22.5c-25-19.3-41.5-44-47.4-75.3
			c-1-5.6-2.2-11.2-1.4-16.9c1.3-9.5,1.6-18.9,0.5-28.4c-0.7-6.5-2.2-12.8-4.9-18.8c-3.9-8.8-10.5-14.2-19.9-16.1
			c-11.6-2.3-23-1.7-34.3,1.5c-10,2.8-16.9,9.3-20.9,18.8c-0.7,1.7-1.4,3.5-1.9,5.2c-2.8,9.5-3.7,19.2-3.7,29.1
			c0,0.3,0.2,0.6,0.4,0.9c0.4,0.1,0.8,0.2,1.2,0.3c9,1.3,17.9,3.3,26.4,6.4c22.9,8.3,40.5,22.9,51.9,44.6
			c8.5,16.3,12.4,33.9,13.2,52.1c0.4,8.3,0.1,16.5,0.2,24.8c0.1,25.8,0.2,51.7,0.3,77.5c0,8.8,0.2,17.6,0.4,26.4
			c0.5,22.6,1,45.3,1.5,67.9C747,496.7,747.3,503.8,747.6,511.3z M699.9,637.6c-1,1.3-1.6,2.2-2.3,3.1
			c-8.1,11.7-15.5,23.9-22.3,36.5c-12,22.4-22.1,45.5-29.2,69.9c-2.4,8.3-4.9,16.7-5.3,25.4c-0.4,8.3-0.3,16.7,0.1,25.1
			c0.2,4.5,1.2,9,2.3,13.4c1.5,6.2,5.5,10.6,11.3,13.1c4,1.7,8.1,3.1,12.3,4.1c16.1,3.7,32.4,3.5,48.7,2.8
			c14.9-0.7,29.7-2.3,44.3-4.7c12.8-2.1,25.3-5.1,37.4-9.9c7.9-3.1,15.5-6.8,21.8-12.7c4.3-4,7.2-8.8,7.8-14.7
			c0.3-3.3,0.4-6.6,0.3-9.9c-0.2-7.8-0.6-15.7-1-23.5c-0.4-9.2-0.7-18.4-1.4-27.5c-0.7-8.4-2.4-16.5-5.8-24.3
			c-3.6-8.4-9.4-14.5-18.3-17.4c-4.8-1.6-9.8-2.5-14.9-2.7c-8-0.4-15.8-1.3-23.6-3.1c-18.8-4.2-35.3-12.6-49.1-26.2
			C708.3,649.4,704,643.9,699.9,637.6z M441.1,643.1c-0.8,13.7-2.4,27.4-5.7,40.8c-3.9,15.9-10.1,30.8-20,44
			c-14.3,18.9-33.4,30.4-56.3,35.9c-12.1,2.9-24.3,3.6-36.6,3.6c-25.7,0-51.5-0.3-77.2-0.4c-11.3,0-22.5,0.5-33.7,1.8
			c-8.8,1.1-17.5,2.7-25.8,6.3c-8.6,3.7-14.2,10-17,19c-1.8,6.1-2.8,12.3-3,18.6c-0.4,15.5-0.6,31,1.1,46.5c0.7,6,1.6,11.9,3.7,17.5
			c1.8,4.9,4.9,8.6,9.6,10.9c2.8,1.3,5.7,2.5,8.6,3.5c9,2.9,18.3,4.3,27.6,5.4c16.7,1.9,33.6,2.7,50.4,3.1c16,0.4,32,0.6,48.1,0.7
			c29.5,0.2,58.9,0.9,88.4-0.6c11.4-0.6,22.7-1.6,33.9-3.8c6.7-1.3,13.3-3,19.4-6.1c6-3,9.8-7.7,11.9-14c2-6.4,2.7-13,2.8-19.6
			c0.1-5.6-0.2-11.2-0.3-16.7c-0.4-26.6-0.9-53.1-1.1-79.7c-0.4-38.7-0.5-77.3-0.8-116c0-1.2,0-2.4,0-3.9
			c-9.4,0.2-18.4,0.5-27.7,0.7C441.3,641.5,441.2,642.3,441.1,643.1z M374.7,572.9c-0.4-7.8-0.9-15.7-1.1-23.5
			c-0.4-11.7-0.5-23.4-0.9-35c-0.2-6.9-1.3-13.7-2.8-20.5c-2.7-12.1-9.9-19.8-21.8-23.4c-9.6-2.9-19.5-4.7-29.5-5.7
			c-8.8-0.9-17.7-1.5-26.6-2.2c-14.6-1.1-29.3-1.7-44-0.8c-6.6,0.4-13.1,1.4-19.6,3c-11.2,2.8-18.6,9.6-21.8,20.7
			c-1.6,5.7-2.9,11.6-3.8,17.5c-1.8,12.3-1.7,24.7-1.4,37.1c0.2,5.9,1.2,11.7,3.2,17.3c3,8.4,8.7,14.1,17,17.2
			c7.8,2.9,15.9,3.8,24.1,3.3c7-0.4,92.5-1.4,124-1.6c1.5,0,3.1,0,4.8,0C374.7,574.9,374.8,573.9,374.7,572.9z M585.9,255.6
			c-10.8,0.8-21.6,1.6-32.5,2.5c-3.5,0.3-6.3,1.9-8.5,4.6c-2.6,3.1-4.5,6.7-5.9,10.5c-3.7,9.9-5.6,20.1-5.7,30.6
			c-0.1,10.2,0,20.5,0,30.7c0,50.6,0.1,101.1,0.2,151.7c0,27.5,0.2,55,0.3,82.5c0,1.1,0.1,2.1,0.2,3.3c5.5-0.6,10.3-1.8,15-3.8
			c11.4-4.8,19.2-13.4,25-24c5.8-10.4,9.4-21.6,11.5-33.2c1.5-8.5,2.6-17.1,3.5-25.8c0.5-4.9,0.2-9.9,0.2-14.9
			c-0.3-65.1-0.5-130.3-0.8-195.4c0-6.3-0.3-12.6-0.4-19.2C587.1,255.6,586.5,255.5,585.9,255.6z"/>
		<circle id="START" class="st1" cx="523" cy="665.5" r="3.7"/>
	</g>
	<g id="OBSTACLES">
		<path id="_x31__x5F_stone" class="st2" d="M247,776.9c-11.3,0-21.6,0.6-31.6,1.8c-9.7,1.1-16.8,2.9-23,5.5
			c-5.9,2.5-9.5,6.5-11.3,12.7c-1.6,5.1-2.4,10.5-2.5,15.9c-0.4,16.1-0.5,30.6,1.1,45.2c0.7,6.4,1.7,11.1,3.2,15.2
			c1.2,3.4,5.5,7.3,7,8c24.6,10.9,61.2,8.4,127.1,9.2s111.5,1,138.1-9.6c3.5-1.8,5.6-4.3,6.8-8.1c1.5-4.6,2.2-10,2.4-16.8
			c0.1-3.3-2.3-205.9-2.3-205.9l-8.4,0.2c-1,13.5-2.8,25.1-5.5,36.1c-4.6,18.8-11.7,34.4-21.7,47.6c-15.2,20.1-36.1,33.4-62,39.6
			c-11.2,2.7-23.2,3.8-38.9,3.8L247,776.9z"/>
		<path id="_x32__x5F_stone" class="st2" d="M703,654.9c-5.6,8.7-11,17.7-16,27.1c-12.6,23.4-21.9,45.6-28.4,68
			c-2.2,7.6-4.5,15.5-4.9,23.1c-0.4,7.2-0.3,15.1,0.1,24.1c0.2,3.6,1.1,7.5,2,11.5c0.7,3,2.5,5,5.5,6.2c3.9,1.6,7.4,2.8,10.7,3.6
			c8.8,2,18.4,3,30.2,3c4.6,0,9.5-0.1,15.9-0.4c14.4-0.7,28.9-2.2,43.2-4.6c13.8-2.3,25.1-5.3,35.4-9.3c8.6-3.4,14.2-6.6,18.6-10.7
			c3.8-3.6,4.5-6.5,4.7-8.4c0.3-2.8,0.4-5.7,0.3-8.6c-0.2-7.1-0.5-14.3-0.9-21.3l-0.1-2.1c-0.1-2.4-0.2-4.8-0.3-7.2
			c-0.3-6.6-0.6-13.4-1.1-20c-0.6-7.9-2.3-14.8-5-21.2c-2.7-6.2-6.5-9.9-12.2-11.8c-3.8-1.3-8-2-12.3-2.3
			c-9.4-0.5-17.6-1.6-25.3-3.3c-21.3-4.8-39.5-14.5-54-28.8C706.9,659.4,704.9,657.3,703,654.9z"/>
		<path id="_x33__x5F_stone" class="st2" d="M265.3,471.3c-4.9,0-9.4,0.1-13.8,0.4c-6.1,0.4-12,1.3-17.7,2.7
			c-8,2-12.5,6.2-14.6,13.8c-1.5,5.3-2.7,10.7-3.5,16.2c-1.8,11.9-1.6,24.5-1.3,35.3c0.1,5,1,9.8,2.6,14.2c2,5.6,5.5,9.2,11.1,11.2
			c5.1,1.9,10.4,2.8,16.3,2.8c1.2,0,122.9-1.7,122.9-1.7c0-0.3,0-0.5,0-0.8c-0.3-5.2-0.6-10.5-0.7-15.9c-0.2-5.5-0.3-11.1-0.4-16.6
			c-0.1-6.1-0.2-12.3-0.5-18.4c-0.2-5.8-1-11.9-2.6-18.7c-1.9-8.5-6.5-13.5-15-16c-8.3-2.5-17.3-4.3-27.6-5.3
			c-7.5-0.8-15.3-1.3-22.8-1.9l-3.5-0.3C282.8,471.7,273.6,471.3,265.3,471.3z"/>
		<path id="_x34__x5F_stone" class="st2" d="M556.9,268c-0.3,0-0.8,0.1-1.6,1c-1.6,1.9-3,4.4-4.2,7.6c-3.2,8.6-4.6,282.7-4.6,282.7
			c0.5-0.2,0.9-0.4,1.4-0.6c8.3-3.5,14.7-9.8,20.2-19.6c4.9-8.9,8.4-19,10.4-30.1c1.4-7.8,2.5-16,3.4-25c0.3-3.2-0.7-215-0.7-218
			C577.9,266.4,556.9,268,556.9,268z"/>
		<path id="_x35__x5F_stone" class="st2" d="M754.7,270.5c1.3,7,2.2,14.4,2.5,22.1c0.3,6,2.6,204.9,2.6,204.9s4.2-1.3,6.3-1.9
			c4.5-1.4,8.7-2.6,12.8-4.2c18.2-6.7,32.6-16.8,43.8-30.9c9.3-11.6,16.1-25.5,20.9-42.3c5.4-18.9,7.7-39.5,7.5-65
			c-0.1-5.9-2-10.3-6.2-13.8l-0.2-0.2c-2.8-2.4-5.5-4.7-8.3-6.5c-6.5-4.3-13.3-8.4-19.1-11.9l-1.7-1c-11.3-6.7-22.9-13.7-33.8-22.1
			C771.3,289.4,762.2,280.3,754.7,270.5z"/>
		<path id="_x36__x5F_stone" class="st2" d="M664.4,181.2c7.5,1.4,14.5,3.3,21.2,5.7c18.7,6.8,34,17.4,45.7,31.7
			c-0.2-0.8-0.3-1.6-0.5-2.4l-0.1-0.7c-1.1-5.8-2.3-12.4-1.3-19.5c1.3-8.9,1.4-17.6,0.5-25.9c-0.7-6-2-11.2-4.1-15.9
			c-2.6-5.9-6.5-9.1-12.7-10.3c-4-0.8-8-1.2-12-1.2c-5.8,0-11.7,0.9-17.6,2.5c-6.9,2-11.5,6.1-14.4,13c-0.7,1.6-1.2,3-1.6,4.3
			C665.8,168.2,664.8,174.2,664.4,181.2z"/>
		<path id="_x37__x5F_stone" class="st2" d="M381.3,975.4c-38.5-0.1-76.8-0.3-113.9-0.8c-18.2-0.2-36-1.3-52.9-3.1
			c-15-1.6-32.6-4.1-50.1-10.3c-16.5-5.9-29.6-13.9-40.2-24.7c-11.9-12.1-20-26.9-24.8-45.4c-2.3-8.7-3.8-18.1-4.8-29.8
			c-1.6-17.9-1.4-35.2-1-49.8c0.5-17.9,3.6-33.6,9.4-48.2c10.9-27.1,30.4-46.6,58.2-58.1c12.8-5.3,27.2-8.8,44-10.9
			c18.1-2.2,35.7-2.5,50.5-2.5c6.3,0,12.7,0.1,18.9,0.1c3.9,0,7.8,0.1,11.8,0.1c3.5,0,7.1,0,10.6,0c13,0,26.3-0.1,39.1-0.2
			c3.7,0,7.6-0.7,12-2.1c5.5-1.7,9.4-4.9,12.2-10c2.7-4.9,4.5-10.1,5.5-15.6c0.7-4.1,1.3-8.3,1.9-12.6l-70.3,0.5c-1.5,0-3,0-4.5,0
			c-2.6,0-5.3,0.1-7.9,0.1c-1.4,0-2.8,0-4.2,0c-0.8,0-1.7,0-2.5,0c-6.6,0-13.2,0.3-20.1,0.7c-2.4,0.1-4.8,0.2-7.2,0.3
			c-2.3,0.1-4.6,0.2-6.8,0.2c-19.5,0-37.6-3.9-54-11.7c-27.5-13-46-34.9-55.2-65c-3.7-12-5.5-24.3-5.5-36.5c0-10.7,0-23.1,0.8-35.4
			c1.3-19.4,5-36.4,11.5-51.7c12.4-29.3,34.3-49.2,65.3-59.1c10.9-3.5,22.9-5.7,36.6-6.7c6.9-0.5,14-0.8,21.7-0.8
			c9.7,0,20.1,0.4,32.7,1.3l5.1,0.4c7.5,0.5,15.3,1.1,23,1.8c19.7,1.9,35.3,5,49.3,9.7c20.7,7,36.8,17.8,49.1,32.8
			c10.5,12.8,17.6,27.8,21.8,46.1c3,12.8,4.4,26.6,4.7,44.5c0.2,9.7,1.4,37.9,1.5,42.2l9.1-0.2c0-4.3-0.5-239-0.4-260.7
			c0.1-21.4,4.1-41.9,11.9-60.9c6.4-15.6,15.1-28.2,26.5-38.3c12.9-11.5,28.1-18.6,45.1-21c3.7-0.5,7.3-0.8,10.7-1
			c1.5-0.1,2.9-0.2,4.4-0.3l5.6-0.5c4.6-0.4,9.3-0.7,13.9-1.1c0.8-18.9,3.6-34.6,8.8-49.1c13.8-38,40.9-61.8,80.7-70.7
			c11.1-2.5,22.2-3.8,32.8-3.8c11,0,21.9,1.3,32.3,4c35.3,8.9,59.9,31.2,72.9,66.1c4.4,11.9,7.1,24.5,8.2,38.7
			c0.9,11.4,0.8,23.1-0.4,34.9c0,0.1,0,0.2,0,0.3c1.7,9.3,6.1,17.1,13.5,23.9c5,4.6,10.8,8.9,17.8,13.2c4.1,2.5,8.3,5,12.4,7.5
			c7,4.2,14.2,8.6,21.3,13c13.1,8.3,23.7,17.2,32.3,27.3c14.7,17.3,22.8,37.4,24,59.9c0.9,15.7,0.3,32.2-1.9,51.8
			c-2,18.1-5.7,35.5-11.1,51.9c-9.4,28.9-23.1,52.8-41.8,73.1c-15.1,16.4-33.3,29.9-53.9,40.1c-11.6,5.7-24.5,10.5-39.4,14.7
			c-8.1,2.3-16,6-24.7,11.8c0.6,2.3,1.4,4.5,2.4,6.5c2.1,4.3,5.2,7.2,9.5,9.1c4.4,1.9,9.5,3,15.8,3.4c13.6,0.8,25.4,2.9,36.1,6.5
			c30.3,10.2,52.1,30.6,64.7,60.6c5.3,12.6,8.8,26.7,10.7,43.2c1.4,11.8,1.8,23.6,2,34.7c0.1,5.8,0.4,11.7,0.7,17.4
			c0.1,1.8,0.2,3.7,0.3,5.5c1.9,39.3-13.4,70.5-45.3,92.9c-13.6,9.6-29.7,17-49.4,22.9c-15.5,4.6-32.4,8.1-51.6,10.5
			c-20,2.5-38,3.8-54.9,3.8c-4.2,0-8.5-0.1-12.6-0.2c-23.6-0.9-42.4-4.4-59.1-11.1c-22.2-8.9-38.9-23.1-49.8-42.2
			c-6.5-11.5-10.6-24.2-12.7-39c-2-14.4-2.4-29.6-1.3-46.7c0.8-12,3.3-24.5,7.9-40.4c8.6-29.2,21-58.8,36.8-87.8
			c12.3-22.5,25.1-42.2,39.3-60.3c8-10.2,15.8-19.1,23.8-27.1c-1-27.2-4.2-260.7-6-267.7c-0.7-2.7-1.6-5.3-2.6-7.6
			c-0.5-1-1-1.9-1.6-2.7c0.1,5.4,0.9,140.9,0.9,170.6c0,13.7,0,27.3,0,41c0,8-1.1,15.6-2.2,22.9c-0.3,1.8-0.5,3.7-0.8,5.5
			c-2.1,15.3-5.9,30.2-11.3,44.4c-8.3,21.9-19.5,39.5-34.1,53.8c-19,18.6-42.1,29.9-68.7,33.8c-1.1,0.2-2.1,0.3-3.2,0.4
			c0,0,2.2,200.5,2.2,209.6c0,16.9-2.5,31.9-7.6,46c-9.7,27-28.6,46.5-56,58.2c-11.4,4.8-24.1,8.3-39,10.6
			c-19.3,3-40.3,4.5-64.2,4.5L381.3,975.4z M1024,0H0v1024h1024V0z"/>
	</g>
</g>
<g>
	<rect x="2540.4" y="-285.5" width="1024" height="1021.5"/>
	<path class="st0" d="M2967-12.9c90.1-1.3,180.5-2.6,271-3.9c1.1-12.8,1.8-25.1,3.1-37.2c6.2-56,25.6-102.6,63.4-135.6
		c21.6-18.9,45.9-28.5,72.1-31c28.1-2.7,55.1,2,79.6,20.3c34.5,25.7,53.1,64.6,57.8,113.8c3.5,36.7-2.9,70.6-21.9,99.7
		c-16.9,25.9-39.6,40.2-65,48.9c-20.9,7.1-42.2,7.8-63.7,8.1c-17.2,0.2-34.4,0.5-51.7,0.7c-1.4,0-2.9,0-4.7,0c0,10.2,0,19.6,0,29.3
		c4.4,0,8.7,0.1,13,0c32.4-0.9,64.7,0.2,96.6,7.3c8.7,1.9,17.2,4.8,25.7,7.9c28,10.4,44.7,33.7,51.6,69.2
		c11.2,57.6-10.7,118.3-53.1,144.7c-13.2,8.2-27.2,12.3-41.9,13.4c-9.6,0.7-12.2,2.5-14.8,14.1c-2.3,10.3-3.5,21-5.2,32.2
		c2.1,0,3.1,0.1,4.1,0c24.3-1.6,48.5-2.6,72,7.2c31.4,13.1,51,44.4,52.8,85.7c1.8,42.7-1.5,84.7-15.5,124.4
		c-11.1,31.3-28.3,55.5-55,66.6c-37.4,15.5-87.7,3.6-111.1-61.1c-8.2-22.7-12.2-46.8-14.1-71.4c-1.3-16.9-2.1-33.8-3.2-51.3
		c-8.9,1.3-17.8,2.5-26.7,3.8c-23.9,3.6-47.8,7.3-71.8,10.8c-36,5.2-71.9,10.4-107.9,15.2c-16.9,2.3-33.9,4.9-50.9,0
		c-25.9-7.5-44.2-26.9-56.4-55.9c-11.1-26.4-15.5-55.1-17.6-84.4c-2.7-38.3-0.4-76.4,1.5-114.6c0.6-11.9-1.2-24.1-2.8-36
		c-0.9-6.9-3.3-8.4-8.2-8.7c0,18.3-0.1,36.5,0,54.8c0.4,49.6,0.9,99.3,1.4,148.9c0.3,29.7,0.5,59.3,0.9,89
		c0.8,70-31.2,121.5-85.9,136.8c-31.7,8.9-63.5,7.7-94.5-4.4c-46.1-18.1-71.9-59-81.8-116.8c-5.2-30.4-4.6-61.2-4.3-92
		c0.4-40.9,0.6-81.8,1-122.6c0-3.7-1.1-4.6-3.7-5.4c-22.1-7-42.2-18.8-59.2-38.1c-24.4-27.6-37.1-62.6-39-103.1
		c-1.6-34.3-1.7-68.6-2.1-103c-0.3-28.2-0.6-56.4,0.4-84.5c1-30.9,5.8-61.1,16.5-89.4c17.6-46.5,47.7-73.4,87.1-85.5
		c21.1-6.5,42.6-7.8,64.2-7.4c30.1,0.6,60.1,2.3,89.8,9.5c17.5,4.2,34.6,10.5,50.5,20.8c32.4,21.1,50.3,54.8,54.6,99.6
		C2966.1-53.9,2966.1-34,2967-12.9z M3307.8,394.6c0.8-20.5,2.3-41,7.1-60.8c8.3-34.1,23.7-60.8,51.6-73.1
		c9.7-4.3,20.4-5.7,30.7-7.3c19.7-3.2,31.2-22.5,27.4-46.9c-0.5-3.3-1.6-5.4-4.3-6.2c-6.3-1.8-12.4-4.1-18.8-5.4
		c-26.5-5.5-53.3-5.9-80.1-5.5c-4.8,0.1-9.5,0-14.7,0c0,3.8,0,6.5,0,9.3c0,24.1,0.8,48.2-0.1,72.2c-1.4,35.2-11.1,66.8-31.2,92.3
		c-33,42-93.8,54.1-137.3,27c-37.2-23.2-58.1-61.9-65.4-112.4c-8.7-60.1,15.4-117.1,59.8-142.6c18.9-10.9,39.4-15.2,59.7-19.8
		c14.1-3.2,28.3-5.5,42.9-8.4c0-11.4,0-22.8,0-34.5c-89.4,1.3-178.5,2.6-267.5,3.9c0,17.8,0,35,0,52.3c2.7,0.4,4.9,0.7,7.2,1
		c30.4,4.1,52.8,22.8,65.9,57.4c10.3,27.1,11.9,56.1,10.3,85.4c-1.9,34.6-4.2,69.3-1.1,104c1.3,15.1,3.3,29.9,8.6,43.8
		c3.2,8.5,8.1,13,15.9,12.1c17-2.1,34-3.6,50.9-5.9c35.2-5,70.4-10.3,105.6-15.6c25.4-3.8,50.8-7.7,76.7-11.6
		C3307.6,397.6,3307.7,396.1,3307.8,394.6z M2776.8,315.9c-0.4,52.8-1,105.7-0.9,158.5c0,13,1.6,26.1,3.6,38.8
		c3.5,21.9,12.8,38.6,30.7,45.5c20.3,7.9,41,8.6,61.6,2.3c18.8-5.8,27.4-21,27.2-45.4c-0.7-82.5-1.4-165-2.1-247.5
		c-0.1-6.7,0-13.3,0-21.9c-12.6,9.8-24.2,18.2-35.2,27.7c-18.5,15.9-38.7,26.6-60.5,33c-8,2.3-16,4-24.2,6.1
		C2776.9,314.1,2776.8,315,2776.8,315.9z M2706.3,213.8c0.2-25.2,1.1-50.4,0.4-75.6c-1.2-39.2,7.7-73.3,30-101.2
		c21.4-26.7,48.4-38.9,77.6-44.9c24.1-5,48.3-4,72.6-4.2c2.5,0,5,0,8.3,0c-0.7-17.6-1-34.4-2-51.1c-1-15.8-7.9-26.7-19.7-32.5
		c-6.7-3.2-13.5-6.3-20.4-8.3c-27.6-8.2-55.7-9.6-83.9-9.8c-13.6-0.1-27.3,0.8-40.7,3.2c-27.2,4.8-45.4,23.4-50.8,57.9
		c-2.7,17.1-4.9,34.7-5,52.1c-0.4,34.9,0.8,69.8,1.3,104.7c0.3,20.1-0.1,40.4,1.3,60.4c1.6,24.1,12.2,41.1,30.3,50.8
		C2706,214.4,2706.3,214.1,2706.3,213.8z M2895.3,76.5c-21.1,0.9-41.6,1.3-62,2.7c-13.1,0.9-25.7,4.9-37.3,12.9
		c-9.1,6.3-15.6,15.3-17.2,28.4c-0.7,5.8-0.1,11.9-0.2,17.8c-0.2,25.7-0.5,51.5-0.7,77.2c0,1.9,0,3.9,0,6.2
		c15.4-4.2,29.4-9.9,42-20.6c12.1-10.2,24.6-19.9,37.3-28.9c12.5-8.8,25.5-16.3,38-24.2C2895.3,124.8,2895.3,101.2,2895.3,76.5z
		 M3313-18.2c23.3-0.4,46.7-0.7,70-1.4c14.5-0.5,28.5-3.8,41.6-12c8.6-5.4,15.3-13.2,17.5-25.5c3.2-18.8-0.1-36-8.9-51.4
		c-9.1-15.8-22.3-22-37.2-23.1c-26.1-1.9-48.9,7-65.8,33.3c-14.9,23.1-18.4,50.8-19.7,79.8C3311.6-18.4,3312.3-18.2,3313-18.2z
		 M3195.9,205.6c-11.6,3.1-23.3,6.8-34.5,11.8c-9,4-14.8,12.9-17.3,24.7c-4.6,22.4,3.8,49.8,19.5,63.7c13.4,11.9,28.2,10.9,43.1,6.3
		c15.4-4.7,26.1-17.1,27.2-36.9c1.4-25.4,0.3-50.9,0.3-77.8C3221.4,200.1,3208.6,202.2,3195.9,205.6z M3381.2,481.8
		c1.3,21.5,2,43.2,4.3,64.6c1.2,11.2,4.9,22.1,8.1,32.9c1.6,5.4,5.2,9,10.1,10c9.7,2,15.8-1.5,20.6-12.2c1.7-3.9,3.3-7.9,4.5-12.1
		c7.1-24.6,8.4-50.2,8-76c-0.1-4.9-2.1-7.2-5.8-8.4c-16.4-5-32.9-2.9-49.5-1.5C3381.3,480.3,3381.1,481,3381.2,481.8z"/>
	<g>
		<path class="st2" d="M2540.4,736c0-340.5,0-680.9,0-1021.5c341.3,0,682.6,0,1024,0c0,340.4,0,681,0,1021.5
			C3223.1,736,2881.8,736,2540.4,736z M3441.4,682.3c27.2-11.3,47.6-35.7,60.6-72.5c12.9-36.7,18.2-78.6,16-128.2
			c-0.9-21.9-6.8-42.1-16.8-58.3c-10.2-16.5-24.8-29-42.2-36.3c-14.7-6.1-30.9-9-50.9-9c-5.9,0-11.8,0.2-17.3,0.5
			c1-6.8,2-13.3,3.3-19.6c0.8-3.6,1.4-5.1,1.7-5.7c0.5-0.1,1.6-0.4,4.1-0.5c16.9-1.2,32.5-6.3,46.4-14.9
			c22.4-13.9,40.4-37.3,50.8-65.7c10.2-28,12.6-59.7,6.8-89.4c-7.7-39.5-27.2-65.2-57.9-76.7c-10.5-3.9-19.1-6.5-27-8.3
			c-24-5.3-49.6-7.8-80.4-7.8c-6,0-12.1,0.1-18.7,0.3c-0.8,0-1.7,0-2.7,0v-9.4l13.6-0.2c10.9-0.2,21.9-0.3,32.8-0.5
			c22.7-0.3,44.9-1.2,66.8-8.7c30.8-10.5,53.8-27.8,70.2-52.9c19.5-29.9,27.4-65.6,23.5-106.2c-5.1-53.5-25.9-94.2-61.8-120.9
			c-20.8-15.5-44.1-23-71.3-23c-4.9,0-10,0.3-15.2,0.8c-29.4,2.9-55.6,14.1-77.7,33.4c-19.4,16.9-34.9,38-46,62.6
			c-10.4,22.9-17.4,49.6-20.7,79.4c-0.9,8.4-1.6,16.7-2.2,25.5c-0.1,1-0.1,2-0.2,3L2976.7-23c-0.1-3.3-0.2-6.7-0.3-9.9
			c-0.4-14.3-0.8-27.8-2.1-41.5c-4.6-48.5-24.4-84.5-59.1-107c-15.3-10-32.3-17-53.6-22.2c-31.3-7.6-62.7-9.2-92-9.8
			c-2.5-0.1-5-0.1-7.4-0.1c-23.3,0-42.4,2.5-59.9,7.9c-44.2,13.6-75.6,44.4-93.5,91.5c-10.4,27.4-16,57.7-17.1,92.6
			c-0.9,28.3-0.6,57-0.4,84.8l0.1,12.6c0.3,29.8,0.6,60.6,2,90.9c2,43.7,16,80.4,41.4,109.3c16.4,18.6,36.1,31.6,60.4,39.9
			c-0.2,21.1-0.4,42.5-0.5,63.2c-0.1,18.8-0.3,37.6-0.5,56.4l0,4.8c-0.3,29.2-0.6,59.3,4.5,89c10.9,63.9,40.6,105.8,88,124.4
			c18.5,7.3,37.7,10.9,57,10.9c14.5,0,29.2-2.1,43.9-6.2c29.2-8.2,53.3-26.2,69.6-52.2c15.9-25.4,24.1-58,23.6-94.4
			c-0.2-20.5-0.4-41.4-0.6-61.8c1.8,5.8,3.9,11.4,6.2,16.8c13.8,32.8,34.9,53.5,62.8,61.6c7.4,2.2,15.3,3.2,24.1,3.2
			c9.8,0,19.4-1.3,28.8-2.6l2.2-0.3c35.2-4.7,70.9-9.9,105.5-14.9l2.5-0.4c15.3-2.2,30.8-4.6,45.8-6.8c8.7-1.3,17.4-2.6,26.1-3.9
			c5.3-0.8,10.6-1.5,15.8-2.3c0.1,1.8,0.2,3.6,0.3,5.4c0.7,12.1,1.3,23.6,2.2,35.3c2.3,29.1,7,52.7,14.7,74
			c8.9,24.6,21.9,43.5,38.8,56.3c15.1,11.5,32.9,17.5,51.5,17.5C3419,689.2,3430.4,686.9,3441.4,682.3z"/>
		<path class="st2" d="M3072.2,422.6c-0.7,0-2.4,0-4.5-5.7c-5-13.3-6.8-27.6-8-41.2c-2.8-32-1-64.8,0.8-96.5l0.3-6.1
			c0.2-2.7,0.3-5.4,0.4-8c0.3,4.7,0.8,9.4,1.5,14.2c8,55.3,31.5,95.4,70,119.4c8.9,5.5,18.6,9.7,28.8,12.4
			c-12.6,1.9-25.3,3.7-37.8,5.5c-10.1,1.4-20.6,2.6-30.7,3.7c-6.6,0.7-13.4,1.5-20.1,2.3C3072.7,422.6,3072.5,422.6,3072.2,422.6z
			 M3250.9,397.9c12.3-7.4,23.4-16.9,32.4-28.3c9.7-12.3,17.3-26.1,22.8-41.3c-0.3,1.1-0.6,2.2-0.8,3.3c-4.8,19.8-6.4,40.1-7.3,59.2
			c-5.3,0.8-10.7,1.6-16,2.4C3271.7,394.7,3261.3,396.3,3250.9,397.9z M3310.8,312.5c3.3-12.8,5.2-26.5,5.7-41.1
			c0.7-16.8,0.5-33.9,0.3-50.4c-0.1-7.1-0.2-14.3-0.2-21.5c1.6,0,3.2,0,4.8,0c5.3-0.1,9.9-0.1,14.2-0.1c17.6,0,40.8,0.6,63.8,5.4
			c3.6,0.7,7.2,1.9,11.1,3.1c1.4,0.4,2.9,0.9,4.3,1.3c2.5,18.1-5.3,32.1-19.2,34.4l-3,0.5c-9.9,1.6-20.2,3.2-30.2,7.6
			C3338.6,262.1,3321.6,282.1,3310.8,312.5z M3061.2,243.1c-0.9-22.5-4.6-41.8-11.3-59.4c-14.1-37.1-38.4-58.4-72.4-63.6V86.4
			l247.5-3.6v16c-1.8,0.3-3.6,0.7-5.3,1c-9.8,1.8-19.9,3.6-29.8,5.9l-3.5,0.8c-19.6,4.5-39.8,9.1-58.9,20.1
			C3088.7,148.9,3064.3,193.2,3061.2,243.1z"/>
		<path class="st2" d="M2844.3,555.2c-10.2,0-20.4-2-30.5-5.9c-13.2-5.1-21.2-17.5-24.4-37.7c-2.3-14.9-3.4-26.7-3.5-37.3
			c-0.1-38.9,0.3-78.5,0.6-116.8c0.1-12.2,0.2-24.4,0.3-36.6c0.1,0,0.1,0,0.2,0c5.6-1.3,11.3-2.7,17.1-4.4c23.7-7,45.3-18.8,64.2-35
			c6-5.1,12.2-10,18.7-15c0,0.5,0,1.1,0,1.6c0.7,82.5,1.4,165,2.1,247.5c0.2,26.2-10.6,32.8-20.1,35.7
			C2860.7,554,2852.4,555.2,2844.3,555.2z"/>
		<path class="st2" d="M2696.5,195.3c-6.7-8-10.4-18.5-11.2-31.6c-0.9-13.9-1-28.3-1.1-42.2c0-5.8-0.1-11.8-0.2-17.7
			c-0.2-9.8-0.4-19.7-0.6-29.3c-0.5-24.7-1-50.1-0.8-75.1c0.2-18.1,2.7-36.6,4.9-50.6c4.6-29.2,18.5-45.4,42.6-49.6
			c11.4-2,24-3,37.2-3c0.5,0,1.1,0,1.6,0c26.2,0.2,54.2,1.4,81.1,9.4c6.7,2,13.3,5,18.9,7.7c8.8,4.3,13.4,12.1,14.1,24.1
			c0.7,11.4,1.1,22.8,1.5,34.8c0.1,1.9,0.1,3.8,0.2,5.8c-3.6,0-7.3,0-10.9,0c-20.1,0-40.9,0.1-61.6,4.4c-36.5,7.5-63,22.9-83.4,48.5
			c-23,28.7-33.5,64-32.2,107.8c0.5,17.3,0.2,35-0.1,52.1C2696.5,192.2,2696.5,193.8,2696.5,195.3z"/>
		<path class="st2" d="M2788.2,188.5c0.2-16.7,0.3-33.3,0.5-50c0-2.2,0-4.3-0.1-6.3c-0.1-3.7-0.2-7.3,0.2-10.4
			c1.1-9.2,5.2-16,13-21.4c9.4-6.6,20.3-10.3,32.3-11.2c14.1-1,28.1-1.5,42.8-2c2.8-0.1,5.6-0.2,8.4-0.3v55.8
			c-2.2,1.4-4.5,2.8-6.7,4.1c-8.9,5.5-18.1,11.1-27,17.4c-12.3,8.6-24.7,18.2-38,29.4c-7.2,6.1-15.4,10.7-25.5,14.5L2788.2,188.5z"
			/>
		<path class="st2" d="M3320.9-28.4c1.8-25.5,6-46.6,17.5-64.5c12.6-19.5,29.2-28.9,50.9-28.9c1.9,0,3.8,0.1,5.8,0.2
			c13.4,1,22.7,6.7,29.3,18.1c7.9,13.7,10.5,28.8,7.8,44.7c-1.4,8.2-5.4,14-12.9,18.7c-10.4,6.6-22.4,10-36.6,10.5
			c-16.6,0.5-33.6,0.8-50,1.1C3328.8-28.5,3324.8-28.5,3320.9-28.4z"/>
		<path class="st2" d="M3188.3,305.3c-6.9,0-12.7-2.2-18.1-7c-13-11.5-20.2-35.3-16.3-54.2c1.3-6.3,4.3-14.4,11.5-17.6
			c9.4-4.1,19.8-7.7,33-11.2c8.4-2.3,16.9-3.9,25.8-5.7c0,4.1,0.1,8.1,0.1,12.1c0.2,18.3,0.4,35.6-0.5,52.9
			c-0.8,14.5-7.8,24.1-20.2,27.9C3197.7,304.4,3192.7,305.3,3188.3,305.3z"/>
		<path class="st2" d="M3408.5,579.7c-0.8,0-1.7-0.1-2.8-0.3c-0.5-0.1-1.8-0.4-2.5-3c-0.5-1.8-1.1-3.6-1.6-5.3
			c-2.7-8.9-5.3-17.3-6.2-25.8c-1.6-15-2.4-30.5-3.2-45.5c-0.2-3.8-0.4-7.7-0.6-11.6c5.4-0.5,10.7-0.8,15.9-0.8
			c7.4,0,13.6,0.7,19.3,2.3c0.3,21.9-0.4,47.5-7.6,72.4c-1,3.4-2.3,6.9-4.1,10.8C3412.1,579.7,3409.9,579.7,3408.5,579.7z
			 M3426.7,488.3L3426.7,488.3z"/>
	</g>
</g>
<g>
	<rect x="1213.6" y="512.1" width="1022.4" height="963.7"/>
	<g>
		<path class="st2" d="M1213.6,512.1c340.8,0,681.5,0,1022.4,0c0,321.2,0,642.4,0,963.7c-340.7,0-681.6,0-1022.4,0
			C1213.6,1154.7,1213.6,833.4,1213.6,512.1z M1689.6,1449.9c19.2-0.1,39.9-1.9,61.3-5.2c44.6-7,84.8-24.8,119.4-52.9
			c20.7,10.1,43.5,15,69.4,15c0.6,0,1.2,0,1.8,0c7.4-0.1,14.9-0.1,22.3-0.2c23.2-0.2,47.1-0.3,70.7-1c19.8-0.5,45.8-2.3,71.6-10.8
			c24.8-8.2,44.2-22.5,57.7-42.3c13.4-19.7,20.6-44.6,21.4-74c1.4-51.8,1.6-103.4,1.7-147.1c0.2-138.1,0.2-278.6,0.2-414.4l0-48.5
			c0-9.5-0.4-17.1-1.3-24c-8.6-64.2-47-108.8-102.7-119.2c-11.5-2.2-23.4-3.2-36.4-3.2c-7.5,0-15.2,0.3-23.5,1.1
			c-27.3,2.3-48,7.1-67.1,15.5c-33.4,14.7-55.6,38.5-67.8,72.7c-8.9,25-9.9,50.9-9.8,70.7c0.6,130,1.4,301.1,2.4,471.3
			c0.1,22.1-2.9,43.8-9.4,65.9c-0.1-2.8-0.1-5.6,0-8.5c0.2-5.6,0.5-11.4,0.7-17c0.4-8.1,0.8-16.5,0.9-24.9c0.1-5.7,0.2-11.4,0.3-17
			c0.3-19.4,0.7-39.4-0.4-59.1c-3.3-57.6-42.3-99.5-92.8-99.5c-11.4,0-23.1,0.2-34.3,0.3c-4.5,0.1-8.9,0.1-13.4,0.2
			c0-1.8,0-3.6,0-5.3c0.1-11.7,0.2-23.7-0.3-35.6c-0.3-5.9,0.6-6.3,4.3-8.3c37.9-19.7,68.1-47.4,89.9-82.3
			c32.2-51.7,46.7-114.2,43-185.9c-1.4-27.6-8.3-52.1-20.5-72.8c-11.9-20.3-29-37-50.7-49.8c-33-19.4-67.7-24.3-94.3-26.4
			c-10.5-0.8-21.2-1.2-31.7-1.2c-20,0-40.2,1.5-60.1,4.5c-25.9,3.9-52.1,8.4-77.4,12.8c-13,2.3-26.5,4.6-39.8,6.8
			c-4.7,0.8-9.3,1.6-14,2.4c-15.6,2.7-31.8,5.5-47.6,7.3c-19.7,2.3-40.6,5.3-61,13.8c-35.6,15-60.9,40.8-75.2,76.8
			c-11.2,28.4-15.2,59.1-11.8,91.3c3.8,35.7,19.2,62.8,45.7,80.4c15.7,10.5,33.9,17.3,55.6,21c13.3,2.2,26.8,3.9,39.8,5.5
			c6.5,0.8,13.1,1.6,19.7,2.5c11.4,1.5,23,2.3,34.4,2.3c19.5,0,39.4-2.2,59.2-6.7c15.3-3.4,30.7-7.2,45.6-10.9
			c12.2-3,24.9-6.1,37.4-9c6-1.4,12.1-2.3,18.6-3.3c0,2.1,0,4.1,0,6.2c0,14.8-0.1,28.8,0.2,42.8c-46.5,12.3-93.5,16.1-133.4,18.1
			c-10.5,0.5-21.2,1-31.5,1.4c-20,0.8-40.6,1.6-61,3.2c-28.7,2.2-55.9,9.3-81,20.8c-40.8,18.8-69.4,50.1-85.1,92.8
			c-9.5,25.9-14.7,55-15.3,86.4c-0.7,33.2-0.1,66.9,0.5,96.5c0.1,3.7,0.1,7.5,0.2,11.2c0.4,22,0.7,44.8,2.9,67.1
			c4.7,47.3,23.5,86,56.1,115.1c25,22.4,55.5,37.5,95.9,47.5c38.7,9.6,80.2,14.5,134.9,15.7c38.8,0.9,79.1,1.3,123.3,1.3
			C1661.4,1450,1675.4,1450,1689.6,1449.9z"/>
		<path class="st2" d="M1938.7,1302.8c22.5-47.3,33.7-99.1,33.3-154c-0.5-72.5-0.9-146.3-1.2-217.6c-0.1-27.3-0.3-54.6-0.4-82
			l-0.1-25.1c-0.2-46.8-0.5-95.3-0.6-142.9c0-6.8,0.4-14.2,1.2-22.7c0.9-9.1,4.6-15.4,11.6-19.5c8.3-4.9,17.6-8.1,29.4-9.9
			c10.3-1.6,22.2-3.4,33.8-3.4c5.5,0,10.5,0.4,15.4,1.1c6.8,1.1,12.8,2.9,18,5.3c6.6,3.1,15.5,9.9,16.7,32.4c0.2,3.7,0.1,7.5,0,11.5
			c-0.1,2.4-0.1,5-0.1,7.5c0,44.6,0,89.2,0,133.8c0,100.1,0,203.6-0.1,305.3c-0.1,38.5-0.5,77.6-1,115.4
			c-0.2,12.2-0.3,24.4-0.4,36.6c-0.2,14.6-3,16.7-11.2,19.1c-14.5,4.2-26.1,6.4-36.4,6.8c-28,1.2-56.5,1.5-84.1,1.9
			C1954.5,1302.6,1946.6,1302.7,1938.7,1302.8z"/>
		<path class="st2" d="M1669.4,1346.2c-25.3,0-50.3-0.1-74.7-0.4c1.3-0.1,2.6-0.2,3.9-0.2c55.5-3.6,96-35.1,120.3-93.7
			c9-21.7,13.2-42.8,12.8-64.5c-0.4-21.9-0.1-44.3,0.1-66c0.1-7.7,0.2-15.7,0.2-23.6c15.7-0.2,31.4-0.4,47.1-0.6l0.2,0
			c1.1,0,1.7,0.1,2.1,0.2c0.2,0.5,0.4,1.6,0.5,3.7c0.6,13.2,0.7,27.8,0.3,45.8c-0.2,9.5-0.6,19.2-0.9,28.6c-0.6,14.4-1.1,29.2-1,44
			c0.2,35.5,7.3,68.8,21.2,99c-0.6,0.3-1.3,0.7-1.9,1c-7.4,4-14.3,7.7-21.4,10.9c-24.2,10.6-51.1,15.8-82.2,15.9
			C1687.1,1346.1,1678.3,1346.2,1669.4,1346.2z M1474.2,1341.8c-19.1-1.8-36.6-4.4-53.1-7.9c-19-4-41.2-9.8-61.5-23
			c-21-13.6-31.6-34.8-32.6-64.8c-1.4-44.3-2.1-85.4-2.2-125.4c0-17.9,1.9-35.7,3.8-50.7c3.6-28.8,17.4-47.9,42.2-58.4
			c18.6-7.8,38.3-12.3,60.3-13.7c13.2-0.8,26.8-1.3,39.9-1.6c14.7-0.4,29.8-0.9,44.8-2c26.6-1.9,54.9-4.7,91.5-9.2
			c10.3-1.3,20.4-3.5,30.2-5.6c1.1-0.2,2.3-0.5,3.4-0.7v16.4c-1.2,0-2.5,0-3.7,0c-14.3,0.3-28.6,0.5-42.8,0.7
			c-33.6,0.5-68.3,1-102.5,2c-23.7,0.7-45,10.5-61.7,28.3c-20.4,21.8-31.4,53.7-30.2,87.7c1.1,30.8,1.1,62.3,1.2,92.7
			c0,5.4,0,10.9,0,16.3l0,1.5c0,17.9,0.1,36.5,6.2,54.7c10.6,31.7,32.1,52.4,63.7,61.7C1472.1,1341.3,1473.1,1341.6,1474.2,1341.8z"
			/>
		<path class="st2" d="M1732.7,825.4c0.1-7.5,0.1-14.8-0.3-22.2c-2.5-47.5-31-80.3-72.6-83.6c-3.3-0.3-6.8-0.4-10.3-0.4
			c-19.3,0-37.3,3.9-57.2,8.6c-7.6,1.8-15.3,3.6-22.9,5.5c-18.9,4.6-38.4,9.3-57.7,13.4c-9.5,2-19.4,3.1-29.5,3.1
			c-7,0-14.2-0.5-21.5-1.5l-4.8-0.6c-20.6-2.8-42-5.6-62.8-9c-3.5-0.6-7.5-2.4-11.7-4.3c-1.6-0.7-3.1-1.4-4.6-2.1
			c-0.1-0.1-0.2-0.1-0.2-0.1c-0.1-0.1-0.5-0.9-0.6-2.7c-1.3-19.8,1.4-33.3,8.9-43.9c5.9-8.4,14.3-13.7,25.7-16.3
			c7.8-1.8,15.7-2.8,24.1-3.9c5.1-0.7,10.4-1.4,15.6-2.2l5.2-0.9c19.9-3.3,40.4-6.7,60.6-10.7l2.6-0.5
			c40.3-7.8,81.9-15.9,123.1-19.1c12.7-1,23.9-1.4,34.3-1.4c14.3,0,27.2,0.9,39.5,2.7c14.8,2.2,27.4,6,38.3,11.6
			c17.2,8.9,25.4,24.3,25.1,47c-0.4,31-4.2,56-11.9,78.5C1759.7,792.1,1748.4,810.3,1732.7,825.4z"/>
		<path class="st2" d="M1527.6,1243.1c-3.4,0-6.8,0-10.1,0c-6.2,0-12.6-1.3-19.4-2.7c-1.8-0.4-3.6-0.7-5.4-1.1l0-0.8
			c0.1-11,0.2-22.4,0-33.7c-0.4-27.3-0.8-55-1.3-81.7l-0.3-14.9c-0.1-5.5,1.4-5.8,2.9-6.1c2.7-0.5,5.7-0.5,8.9-0.6l0.7,0
			c40.8-0.7,81.7-1.4,122.5-2.1l14.5-0.3c0,8.2,0,16.5-0.1,24.7c0,22.3-0.1,45.4-0.5,68c-0.2,11.4-5.7,21.3-11.6,30.4
			c-7.9,12.2-18.5,18.6-31.5,19.2C1574.7,1242.6,1551.3,1243.1,1527.6,1243.1z"/>
	</g>
	<path class="st0" d="M1651.3,812.1c-10.7,1.7-20.9,2.8-30.9,5.1c-27.7,6.4-55.2,13.7-82.9,19.9c-29.8,6.7-59.9,8.3-90.1,4.2
		c-19.7-2.7-39.5-4.7-59.2-8c-18.1-3-35.6-8.7-51.7-19.4c-24.3-16.2-37.8-40.9-41.3-73.1c-3.2-29.9,0.2-59,11.1-86.5
		c14.2-35.9,38.7-58.2,69.8-71.3c18.8-7.9,38.5-10.8,58.3-13.1c20.8-2.4,41.4-6.3,62.1-9.8c39-6.5,77.9-13.8,117-19.6
		c29.7-4.4,59.6-5.5,89.5-3.1c31.2,2.4,61.7,8.3,90,25c40.1,23.6,63.5,61.6,66.3,114.5c3.4,65.2-8,126.4-41.5,180.1
		c-22.3,35.7-51.9,61-86,78.8c-7.4,3.8-10.2,8-9.7,17.6c0.8,16.5,0.2,33.1,0.2,50.2c1.8,0.1,3.5,0.3,5.3,0.3
		c17.5-0.2,35-0.6,52.5-0.6c44.7,0,79.8,37.5,82.8,90.1c1.4,25.1,0.4,50.3,0.2,75.5c-0.2,13.9-1.2,27.8-1.7,41.7
		c-0.5,15.7,1.5,31.1,6.6,46.5c3.1-7.6,6.5-15.1,9.2-23c8.8-25.9,13.7-52.6,13.5-80.7c-0.9-157.1-1.7-314.2-2.4-471.3
		c-0.1-23,1.6-45.7,9.3-67.3c12-33.7,34-54.4,62.4-66.9c20.6-9.1,42.1-12.9,63.9-14.7c19.1-1.6,38.2-1.6,57.2,2
		c51.1,9.6,86.7,50.9,94.7,110.7c1,7.4,1.3,15.1,1.3,22.6c0,154.3,0,308.6-0.2,462.9c-0.1,48.9-0.4,97.9-1.7,146.8
		c-1.5,55.4-26.8,92-72.2,107.1c-22.5,7.5-45.5,9.7-68.7,10.3c-30.9,0.8-61.9,0.9-92.8,1.1c-24.3,0.2-47.9-4-70.3-15.8
		c-1.2-0.6-3.3-0.3-4.3,0.6c-35.3,29.6-74.9,46.5-117.5,53.2c-19.8,3.1-39.9,5-59.8,5.1c-54.9,0.3-109.7,0.1-164.6-1.2
		c-44.5-1-88.9-4.6-132.7-15.5c-33-8.2-64.4-20.9-91.7-45.3c-30.6-27.4-48.4-64-52.8-108.6c-2.5-25.6-2.6-51.6-3.1-77.5
		c-0.6-32-1.2-64.1-0.5-96.1c0.6-28.6,5-56.7,14.7-83.2c15.7-42.9,43.6-70.5,79.9-87.2c24.9-11.5,51-17.9,77.6-19.9
		c30.7-2.4,61.5-3,92.2-4.6c46-2.3,91.8-6.6,136.8-18.8c4.6-1.2,6.2-3.1,6.1-8.9C1651.1,853.5,1651.3,833.7,1651.3,812.1z
		 M1937.1,1312.8c36.6-0.6,73.2-0.7,109.8-2.2c13-0.5,26.1-3.5,38.8-7.2c14.1-4.1,18.2-11.5,18.4-28.6c0.6-50.7,1.4-101.4,1.5-152.1
		c0.2-146.4,0.1-292.7,0.1-439.1c0-6.5,0.5-13.1,0.1-19.5c-1-18.5-7.1-33.6-22.4-40.9c-6.6-3.1-13.7-5-20.7-6.1
		c-17.5-2.8-34.9-0.5-52.2,2.2c-11.4,1.8-22.6,5-33,11.2c-9.6,5.7-15.2,14.7-16.4,27.1c-0.8,7.8-1.3,15.8-1.3,23.7
		c0.2,56,0.5,112,0.7,168c0.5,99.9,0.9,199.7,1.6,299.6c0.4,55-10.9,106.2-34.3,153.7c-1.4,2.8-2.8,5.6-4.6,9.2
		C1928.3,1312.2,1932.7,1312.9,1937.1,1312.8z M1648.9,966.9c-14.3,2.8-28.4,6.6-42.8,8.4c-30.3,3.7-60.6,7-91,9.1
		c-28.2,2-56.5,1.8-84.6,3.6c-21.7,1.4-43,5.8-63.5,14.5c-26.9,11.3-44,32.6-48.3,66.4c-2.2,17.2-3.9,34.6-3.8,51.9
		c0.1,41.9,0.9,83.8,2.2,125.7c1,31.9,12.7,57,37.1,72.8c20.3,13.2,42.4,19.7,64.9,24.4c37,7.7,74.5,10.4,111.9,11.1
		c55,1.1,110,1.4,165,1.2c29.4-0.1,58.4-4.6,86.2-16.7c10.9-4.8,21.4-11,32.4-16.7c-1-2.1-1.3-2.9-1.6-3.7
		c-15.1-30.9-22.4-64.4-22.6-99.8c-0.2-24.1,1.5-48.2,2-72.3c0.3-15.5,0.3-31-0.3-46.4c-0.4-10.1-4.5-13.5-13-13.4
		c-17.2,0.2-34.4,0.4-51.6,0.7c-1.7,0-3.4,0.2-5.4,0.4c0,2,0,3.4,0,4.8c-0.2,31.5-0.8,63.1-0.3,94.6c0.4,21.6-4.2,41.5-12.1,60.5
		c-22.7,54.8-60,84.2-111.7,87.6c-18.6,1.2-37.3,1.6-56,2c-22.9,0.4-45.8,0.4-68.2-6.2c-26.4-7.7-46.7-24.5-57-55.3
		c-5.7-17.1-5.6-35-5.7-53c-0.1-36.4,0.1-72.9-1.2-109.3c-2-57.9,33.2-104.2,82.2-105.7c48.4-1.4,96.8-1.9,145.2-2.7
		c4.4-0.1,8.9,0,13.5,0c0-13.4,0-25.8,0-38.4C1650,966.9,1649.4,966.8,1648.9,966.9z M1724.6,845.4c23.6-17.6,41.5-41.1,52-71.9
		c8.9-26.2,12.1-53.6,12.4-81.6c0.4-26.5-9.7-45.4-30.5-56.1c-13.3-6.8-27.2-10.5-41.5-12.6c-25.3-3.7-50.6-3.2-76-1.3
		c-42.7,3.3-84.8,11.5-126.9,19.7c-21.8,4.2-43.6,7.8-65.5,11.5c-13.4,2.2-27,3.2-40.3,6.3c-12.1,2.8-23.5,8.7-31.7,20.3
		c-10.3,14.7-11.9,32.1-10.7,50.3c0.4,5.5,2.5,9.5,6.8,11.3c6.1,2.6,12.3,6.1,18.6,7.1c22.6,3.7,45.3,6.7,68,9.7
		c18.2,2.4,36.5,2.1,54.5-1.7c27-5.8,53.8-12.6,80.7-18.9c21.2-5,42.5-9.7,64.4-8c36.4,2.9,61.1,31.3,63.4,74.2
		c0.7,13.8,0.1,27.8,0.1,42.4C1723.8,845.7,1724.3,845.6,1724.6,845.4z M1645.1,1089.1c-47.2,0.8-94.4,1.6-141.6,2.5
		c-3.7,0.1-7.5,0.1-11.2,0.8c-7.6,1.4-11.3,7-11.2,16.1c0.5,32.2,1.1,64.4,1.5,96.6c0.2,12.1,0,24.3-0.1,36.4c0,4.3,1.8,6.7,5.2,7.3
		c9.9,1.7,19.7,4.4,29.6,4.5c26.7,0.2,53.5-0.3,80.2-1.6c15.9-0.7,29.5-8.6,39.4-23.8c6.9-10.6,13-22,13.2-35.7
		c0.6-31.9,0.4-63.7,0.6-95.6c0-2.3,0-4.5,0-7.4C1648.3,1089.1,1646.7,1089.1,1645.1,1089.1z"/>
</g>
</svg>
