<?xml version="1.0" encoding="utf-8"?>
<!-- Generator: Adobe Illustrator 21.0.2, SVG Export Plug-In . SVG Version: 6.00 Build 0)  -->
<svg version="1.1" id="SCENE_3" xmlns="http://www.w3.org/2000/svg" xmlns:xlink="http://www.w3.org/1999/xlink" x="0px"
	y="0px" viewBox="0 0 1024 1024" style="enable-background:new 0 0 1024 1024;" xml:space="preserve">
	<style type="text/css">
		.st0 {
			fill: #D3D3D3;
		}

		.st1 {
			fill: #0C6A37;
		}

		.st2 {
			fill: #231F20;
			display: none;
		}

		.st3 {
			fill: #FFFFFF;
		}
	</style>
	<rect id="BACKGROUND_cobblestone" class="st0" width="1024" height="1024" />
	<g id="OBSTACLES">
		<path id="31_grass2" class="st3" d="M1024,1024H0V0h1024V1024z M599.4,1016.6h10.1v-0.3c45.6-2.4,88.1-21.3,120.7-53.9
		c34.9-34.9,54.2-81.4,54.2-130.8c0-33.8-9.1-66.7-26.5-95.5l14.1-14.1c22.6,36.8,62.8,59.4,106.3,59.4l0,0
		c30.4,0,61.1-11,89.2-31.7c1.2-0.9,2.2-1.9,3.1-3.1c21.3-28,32.6-59.1,32.6-89.9V346.2h-0.5c-3.5-43.8-30.1-82.6-69.4-101.9
		c19-9.3,35.3-23.3,47.4-40.9c14.6-21,22.3-45.5,22.3-71.2c0-35.6-11.7-67.8-32.8-90.8c-19.9-21.6-47.4-34.1-75.7-34.1H467.4
		c-46.2,0-88.8,18.2-119.5,51.4c-30.4,32.6-45.2,75.4-42,120.4c1.3,18.3,5.6,35.8,12.8,52.3H147.7c-35.9,0-68.6,13.2-92.3,37.2
		c-20.4,20.8-32.3,48-34.1,77.7h-0.2v495.4h0.4c0,0.4,0,0.8,0.1,1.3c2.9,47,23.4,90.8,57.7,123.1c34.5,32.6,79.6,50.5,127,50.5
		H599.4z" />
		<path id="31_grass2" class="st3" d="M391.6,748c-1.6,21.2-10.7,126.1-33.7,160.4c-0.8,1.3-2.2,3.7-1.4,5.1
		c1.1,2.2,5.9,4.4,12.5,4.4c1.1,0,2.2-0.1,3.5-0.2l45.3-5.1h0.6c2.2,0,3.7-1.2,4.3-1.9c0.7-0.7,1.7-2.2,1.5-4.5
		c-4.3-42.7-8.3-117.9,11-158.2H391.6z" />
		<path id="31_grass2" class="st3" d="M599,748c-0.5,0-0.9,0-1.4,0c-43.9,0.7-80.1,37-80.6,81
		c-0.3,22.1,8.1,42.9,23.7,58.6s36.3,24.3,58.3,24.3c45.2,0,82-36.8,82-82C681,784.8,644.2,748,599,748z" />
		<path id="31_grass2" class="st3" d="M207.6,748c-45.2,0-82,36.8-82,82s36.8,82,82,82c22.1,0,42.8-8.7,58.4-24.4
		c15.5-15.8,23.9-36.7,23.6-58.8c-0.7-43.9-36.9-80.2-81-80.8C208.3,748,208,748,207.6,748z" />
		<path id="31_grass2" class="st3" d="M876.2,632c-6.7,0-13.2,2.9-17.8,7.9c-4.6,5.1-6.9,11.6-6.3,18.5
		c1,11.7,10.7,21.1,22.4,21.9c0.5,0,1.1,0.1,1.6,0.1c6.8,0,13.3-2.9,17.9-8c4.6-5.2,6.8-11.8,6.1-18.6c-1.1-10.9-9.7-19.9-20.5-21.4
		C878.5,632,877.3,632,876.2,632z" />
		<path id="31_grass2" class="st3" d="M637.5,485.2c-5.3,0-9.6,4.3-9.6,9.6v139.9c0,4.9,3.5,8.9,8.5,9.6
		c17.2,2.3,29.8,8,44.5,16.6c1.4,0.8,3.1,1.2,4.8,1.2c2.6,0,5-1,6.8-2.8l54.1-54.1c1.7-1.7,2.8-4.1,2.8-6.6V494.7
		c0-5.3-4.3-9.6-9.6-9.6H637.5z" />
		<path id="31_grass2" class="st3" d="M137.8,485.2c-4.2,0-8.1,1.6-11,4.6c-2.9,2.9-4.5,6.8-4.5,11l1.5,144.3
		c0,3.2,1.2,6.3,3.6,8.5c2.3,2.2,5.2,3.4,8.3,3.4c1.5,0,2.9-0.3,4.5-0.9l0.2-0.1c21.8-9.2,45.1-13.9,68.9-13.9h81.6V485.7L140,485.2
		l-0.8-0.1C138.8,485.2,138.3,485.2,137.8,485.2z" />
		<path id="31_grass2" class="st3" d="M404.5,485.2c-5.2,0-9.5,4.3-9.5,9.5v137.9c0,5.2,4.3,9.5,9.5,9.5h117.2
		c5.2,0,9.5-4.3,9.5-9.5V494.7c0-5.2-4.3-9.5-9.5-9.5H404.5z" />
		<path id="31_grass2" class="st3" d="M851.8,531.4c6.2-1.6,13.3-2.9,20.4-2.9c1.7,0,3.3,0.1,4.9,0.2
		c4.8,0.4,11.2,0.8,19.3,1.1c0.1,0,0.3,0,0.3,0c1.4,0,2.8-0.5,3.8-1.6c1.1-1.1,1.6-2.4,1.5-3.9c0,0-0.7-40.4-0.7-43.2
		c-9.7,2.5-14,3.1-26.2,3.1l-23.3-0.1L851.8,531.4L851.8,531.4z" />
		<path id="31_grass2" class="st3" d="M147.8,333.4c-13.1,0-23.7,10.6-23.7,23.7c0,13,10.6,23.7,23.7,23.7
		c6.6,0,12.8-2.7,17.3-7.6c4.6-4.9,6.8-11.2,6.3-17.9c-0.8-11.7-10.2-21.1-22-22C149,333.4,148.4,333.4,147.8,333.4z" />
		<path id="31_grass2" class="st3" d="M752.9,376.5c-2-8.5-3-17.4-3-26.3c0-23.9,7.2-46.9,20.8-66.4
		c11.4-16.4,26.5-29.4,44.3-38.2c-17.7-8.7-32.9-21.8-44.3-38.2c-13.6-19.6-20.8-42.5-20.8-66.4c0-8.9,1-17.7,3-26.3H618.7
		c7.7,17.7,11.8,36.8,12.3,56.6v205H752.9L752.9,376.5z" />
		<path id="31_grass2" class="st3" d="M876.2,332.7c-6.8,0-13.5,2.9-18,8c-4.7,5.2-6.8,11.9-6,18.8
		c1.2,11.2,10.2,20.3,21.5,21.5c0.9,0.1,1.8,0.2,2.7,0.2c6.8,0,13.5-2.9,18-8c4.7-5.2,6.8-11.9,6-18.8
		c-1.2-11.2-10.2-20.3-21.5-21.5C878,332.8,877.1,332.7,876.2,332.7z" />
		<path id="31_grass2" class="st3" d="M301.2,332.7c-2.4,0-4.7,1-6.2,2.8c-1.6,1.8-2.3,4.2-2,6.7c0.6,4.4,0.9,9,0.9,13.9
		c0,4.9-0.3,9.6-0.9,14c-0.3,2.4,0.4,4.7,2,6.6c1.3,1.6,3.2,2.5,5.1,2.7h1.1H504c4.6,0,8.3-3.7,8.3-8.3v-38.8c0-5-4.2-8.3-8.3-8.3
		c-0.9,0-1.9,0.2-2.8,0.5c-14.1,5.2-28.8,8-43.7,8.2L301.2,332.7z" />
		<path id="31_grass2" class="st3" d="M465.8,111.4c-31.8,0-57.7,25.8-57.7,57.7c0,15.5,6,29.9,16.8,40.9
		c10.8,10.9,25.4,16.9,40.9,16.9c31.9,0,57.7-25.8,57.7-57.7c0-15.5-6-29.9-16.8-40.9C495.7,117.4,481.3,111.4,465.8,111.4v-9.1
		V111.4z" />
		<path id="31_grass2" class="st3" d="M876.2,109.8c-0.9,0-1.8,0.1-2.7,0.2c-11.3,1.2-20.4,10.2-21.6,21.6
		c-0.8,7,1.4,13.7,6.1,18.9c4.6,5.1,11.3,8.1,18.1,8.1c0.9,0,1.8-0.1,2.7-0.2c11.3-1.2,20.4-10.2,21.6-21.6c0.8-7-1.4-13.7-6.1-18.9
		C889.7,112.8,883,109.8,876.2,109.8z" />
		<rect id="21" x="531.2" y="472.5" class="st2" width="122.5" height="27.8" />
		<rect id="32" x="637.5" y="370.8" class="st2" width="22.8" height="129.5" />
		<rect id="321" x="395.7" y="631.4" class="st2" width="22.8" height="118.3" />
		<rect id="322" x="134.9" y="644" class="st2" width="22.8" height="154.4" />
		<rect id="323" x="362.5" y="907" class="st2" width="22.8" height="110.9" />
		<rect id="324" x="608.5" y="3.3" class="st2" width="22.8" height="111.5" />
		<rect id="325" x="489.2" y="203.5" class="st2" width="22.8" height="125.2" />
		<rect id="326" x="272.1" y="373.3" class="st2" width="22.8" height="115.4" />
		<rect id="328" x="149.6" y="223.4" class="st2" width="22.8" height="115.4" />
	</g>


	<g id="ROAD">
		<path id="TRACK_asphalt1" class="st1" d="M990.5,357h-0.1c0-2-0.1-4.1-0.2-6.1c-2.4-45.7-31.7-84.3-72.5-100.2c-2.1-0.8-3.5-2.8-3.5-5.1c0-2.2,1.4-4.3,3.5-5.1
		c42.5-16.6,72.6-58,72.6-106.4c0-70.6-47.3-114.2-97.9-114.2h-424h-1c-88.3,0-157.1,72.2-150.8,160.2c1.4,19.5,6.5,38.1,14.7,54.8
		c1.8,3.6-0.9,7.9-4.9,7.9H300H149.3c-67.5,0-117.1,50.1-115.9,114.3h0v473h0.1c0,3.5,0.1,7.1,0.3,10.7
		C39.4,931.9,115,1004,207.6,1004l0,0H599v0c96.1,0,174-77.8,174-174c0-34.1-9.8-65.9-26.8-92.8c-1.4-2.2-1-5,0.8-6.8l20.6-20.6
		c2.6-2.6,6.9-2,8.7,1.2c31.3,56.8,109.3,84,182.7,29.6c0.4-0.3,0.8-0.7,1.1-1.1c21.2-28,30.4-56.7,30.4-83.4h0V357z M914.5,471.5
		c0,0.1,0.6,33.9,1,55.3c0.2,9.3-7.5,16.7-16.8,16.3c-7.4-0.3-15.8-0.8-22.4-1.3c-10.8-0.9-21.2,1.5-31,4.3c-3.5,1-7-1.6-7-5.3
		v-64.2c0-3,2.5-5.5,5.5-5.5l31,0.1c13.8,0,17.5-0.6,30.2-3.9C914.1,465,914.5,467.8,914.5,471.5z M914.1,352.9
		c2.6,24.2-17.8,44.6-42,42c-17.7-1.9-31.9-16.1-33.7-33.7c-2.6-24.2,17.8-44.6,42-42C898,321,912.2,335.2,914.1,352.9z M872.1,96.3
		c24.2-2.6,44.6,17.8,42,42c-1.9,17.7-16.1,31.9-33.7,33.7c-24.2,2.6-44.6-17.8-42-42C840.2,112.4,854.4,98.2,872.1,96.3z
		 M465.8,96.1c40.6,0,73.4,32.8,73.4,73.4c0,40.3-33.1,73.4-73.4,73.4c-40.6,0-73.4-32.8-73.4-73.4
		C392.4,129.2,425.5,96.1,465.8,96.1z M260.9,341.6c-1.6-12,7.7-22.7,19.8-22.7H300h168.5c17.3-0.3,33.9-3.6,49.3-9.3
		c13-4.8,26.8,5,26.8,18.8V375c0,11-9,20-20,20H381.5h-76.1h-24.7v0.1c-12.1,0-21.4-10.7-19.8-22.7c0.7-5,1-10.2,1-15.4
		C261.9,351.8,261.6,346.7,260.9,341.6z M419.8,928l-47.9,5.4c-19.5,2.2-35.8-9.2-24.9-25.4c25.6-38.3,34.6-170.3,34.6-170.3
		c0-3,2.5-5.5,5.5-5.5h58.1c4.3,0,6.9,4.7,4.7,8.4c-24,39.8-17.9,130.9-14,169.6C436.9,919.7,429.4,928,419.8,928z M401.5,656
		c-11,0-20-9-20-20V491.2c0-11,9-20,20-20h123.1c11,0,20,9,20,20V636c0,11-9,20-20,20H401.5z M299.9,471.1c3,0,5.5,2.5,5.5,5.5
		v173.9c0,3-2.5,5.5-5.5,5.5h-90.5c-24.4,0-47.6,5-68.7,13.9c-0.1,0-0.2,0.1-0.3,0.1c-14.8,6.1-31-5-31-21l-1.6-152
		c-0.2-15.6,13.3-27.9,28.8-26.4l0.3,0L299.9,471.1z M150.5,319.1c18.8,1.3,34,16.5,35.3,35.3c1.6,22.2-16.1,40.8-38,40.8
		c-21-0.1-38.1-17.2-38.1-38.1C109.7,335.2,128.3,317.5,150.5,319.1z M109.7,830c0-54.5,44.5-98.6,99.2-97.9
		c52.8,0.7,95.9,43.7,96.6,96.4c0.8,54.8-43.4,99.4-97.9,99.4C153.6,927.9,109.7,884.1,109.7,830z M599,927.9
		c-54.4,0-98.5-44.4-97.9-99.1c0.6-52.7,43.5-95.9,96.2-96.7c54.8-0.9,99.6,43.2,99.6,97.9C696.9,884.1,653,927.9,599,927.9z
		 M762.1,599.5c0,5.3-2.1,10.4-5.9,14.1L699.8,670c-6.4,6.4-16.3,7.7-24.2,3.2c-14.3-8.3-26.1-13.8-42.8-16
		c-10-1.4-17.5-9.8-17.5-19.9v-146c0-11,9-20,20-20h106.8c11,0,20,9,20,20V599.5z M834.7,250.8c-42.5,16.6-72.6,58-72.6,106.4
		c0,10.8,1.5,21.2,4.3,31c1,3.5-1.6,7-5.3,7H620.8c-3,0-5.5-2.5-5.5-5.5V166.8c-0.5-22.5-5.8-43.7-15.1-62.7
		c-1.8-3.7,0.8-7.9,4.9-7.9h156c3.7,0,6.3,3.5,5.3,7c-2.8,9.8-4.3,20.3-4.3,31c0,48.4,30.1,89.8,72.6,106.4c2.1,0.8,3.5,2.8,3.5,5.1
		C838.2,247.9,836.8,250,834.7,250.8z M873.7,694.1c-18.6-1.2-33.8-16-35.4-34.6c-2.2-24.4,18.9-44.6,43.4-41.2
		c17.2,2.4,30.8,16.5,32.5,33.9C916.4,675.8,897.1,695.6,873.7,694.1z" />
		<circle id="START" cx="365" cy="563" r="3.4" class="st1" />
		<g id="CHECK">
			<rect id="1" x="286" y="536.7" class="st1" width="114.5" height="10.5" />
			<rect id="2" x="458.5" y="4" class="st1" width="14.3" height="110.9" />
			<rect id="3" x="230.6" y="912" class="st1" width="11.4" height="85" />
			<rect id="4" x="278.6" y="829.9" class="st1" width="114.9" height="14.3" />

		</g>
	</g>
<path id="drive" d="M325.4,563.3l1.8-14.1l2.1-29.9l5.8-24.4l10.1-21.9l11.8-14.1l11.5-7.4l18-7.1l18.5-4.1l111.6-13.4l12.5-3.4
	l7.1-2.3l7-4.1l4.7-3.6l4.8-3.5l4.1-4.8l3.5-4.7l4.3-7.7l2.5-8.1c0,0,2.6-29.5,2.6-55.1c0-32.6,0-57.3,0-89.9c0-29-7-77-7-77
	l-8-43.5L535,90.2l-14.5-7.7l-23.5-10l-28.1-5.2L444.1,71l-14.2,5.3l-15,9l-13,12.5l-10.5,14.8l-7.7,17.7l-12,79.7l-1.3,28.3
	l-12.7,20l-28.4,16.9l-23.6,8.8L278,299.7l-25.5,24.4l-96.2,93.4l-66,61.1l-6.5,6.9l-3.5,5.2l-2.7,7.5c0,6.7,0,13.3,0,20
	c0,7.1,0,14.2,0,21.3c0,12.3,0,24.6,0,37c0,16.1,0,32.2,0,48.2c0,18.1,0,36.2,0,54.4c0,18.8,0,37.5,0,56.3c0,17.7,0,35.3,0,53
	c0,15.1,0,30.3,0,45.4c0,10.9,0,21.8,0,32.8c0,5.2,0,10.5,0,15.7c0,0.2,0,0.4,0,0.7l3.8,11.3l7.8,7.8l9.3,6.8l123.6,67.3l9.4,2.8
	h9.7l10.3-3l8.8-4.3l6.8-6l5.3-9l68.8-148.8l1.8-9.3l-1-13l-2-14L325.4,563.3z"/>


	<g id="layout_overview">
		<path class="st3" d="M594,1000H207.6c-89.7,0-164.3-70.1-169.8-159.5c-0.2-3.3-0.3-6.8-0.3-10.4l0-4h-0.1V361.1h0.1l0-4.1
		c-0.5-29.6,10.2-57.1,30.1-77.4c20.8-21.2,49.8-32.8,81.8-32.8h177.1c3.3,0,6.3-1.7,8-4.5c1.7-2.8,1.9-6.2,0.4-9.2
		c-8.1-16.6-12.9-34.5-14.3-53.3c-2.9-40.9,10.6-79.7,38.1-109.3c28-30.1,66.6-46.6,108.7-46.6h425c45.5,0,93.9,38.6,93.9,110.2
		c0,22.6-6.8,44.3-19.6,62.8c-12.6,18.1-30,31.9-50.4,39.8c-3.6,1.4-6,4.9-6,8.8c0,4,2.4,7.4,6.1,8.8c40.2,15.7,67.7,53.6,69.9,96.7
		c0.1,1.9,0.2,3.9,0.2,5.9l0,4h0.1v295.1c0,27.5-10.3,55.5-29.6,81c-0.1,0.1-0.2,0.2-0.3,0.3c-25.4,18.8-53.1,28.7-80.3,28.7
		c-40.2,0-77.1-21.9-96.5-57.1c-1.7-3-4.9-4.9-8.3-4.9c-2.5,0-4.9,1-6.7,2.8l-20.6,20.6c-3.2,3.2-3.7,8-1.3,11.8
		C760,766.4,769,797.8,769,830c0,45.4-17.7,88.1-49.8,120.2c-32.1,32.1-74.8,49.8-120.2,49.8L594,1000z M39.4,824h0.1l0,6
		c0,3.5,0.1,7,0.3,10.3C45.2,928.7,118.9,998,207.6,998H593l6,0c44.9,0,87.1-17.5,118.8-49.2C749.5,917.1,767,874.9,767,830
		c0-31.8-8.9-62.8-25.9-89.6c-2.9-4.5-2.2-10.4,1.6-14.3l20.6-20.6c2.2-2.2,5.1-3.4,8.1-3.4c4.1,0,8,2.3,10.1,5.9
		c19,34.6,55.4,56,94.8,56c26.7,0,54-9.8,79-28.3c19-25.1,29.1-52.7,29.2-79.7V363h-0.1l0-6c0-1.9-0.1-3.9-0.2-5.8
		c-2.2-42.3-29.2-79.5-68.7-94.9c-4.5-1.7-7.4-5.9-7.4-10.7c0-4.7,2.9-9,7.3-10.7c20-7.8,37.1-21.3,49.5-39.1
		c12.6-18.2,19.3-39.5,19.3-61.7c0-70.3-47.3-108.2-91.9-108.2h-425c-41.5,0-79.6,16.3-107.2,46c-27.1,29.1-40.5,67.4-37.6,107.8
		c1.3,18.5,6.1,36.2,14.1,52.6c1.8,3.5,1.6,7.7-0.5,11.1c-2.1,3.4-5.8,5.5-9.7,5.5H149.3c-31.4,0-60,11.4-80.4,32.2
		c-19.6,19.9-30.1,46.9-29.6,76l0.1,6.1h-0.1V824z" />
		<path class="st3" d="M367.1,939.7c-12.6,0-23.2-5-27.5-13.2c-3.5-6.6-2.7-14.4,2.4-21.9c24.1-35.9,33.2-161.5,33.6-167.2
		c0.1-6.2,5.3-11.3,11.5-11.3h58.1c4.2,0,7.9,2.2,10,5.8c2.1,3.6,2,8.1-0.1,11.7c-23.1,38.3-16.9,128.8-13.1,165.9
		c0.6,6.2-1.4,12.5-5.6,17.1c-4.1,4.6-10,7.2-16.2,7.3l-47.5,5.4C370.8,939.6,368.9,939.7,367.1,939.7z M387.1,728.2
		c-5.1,0-9.4,4.2-9.5,9.3l0,0.1c-0.4,5.4-9.5,131.8-33.9,168.2c-4.6,6.9-5.4,13.9-2.3,19.8c4,7.5,13.9,12.1,25.7,12.1
		c1.7,0,3.5-0.1,5.2-0.3L420,932c5.7-0.1,11.1-2.5,14.8-6.7c3.8-4.2,5.7-9.9,5.1-15.6c-3.8-37.3-10-128.2,13.4-167.1
		c1.8-3,1.8-6.7,0.1-9.7c-1.7-3-4.8-4.8-8.2-4.8H387.1z" />
		<path class="st3"
			d="M599,933.9c-28,0-54.2-11-73.9-30.9c-19.7-19.9-30.3-46.3-30-74.3c0.6-55.7,46.5-101.7,102.1-102.7
		c58.1-1,105.7,46,105.7,103.9C702.9,887.3,656.3,933.9,599,933.9z M599,728.1c-0.6,0-1.2,0-1.7,0c-54.6,0.9-99.5,46.1-100.2,100.7
		c-0.3,27.4,10.1,53.3,29.4,72.8c19.3,19.5,45,30.3,72.5,30.3c56.2,0,101.9-45.7,101.9-101.9C700.9,773.8,655.2,728.1,599,728.1z" />
		<path class="st3" d="M207.6,933.9c-57.3,0-103.9-46.6-103.9-103.9s46.6-103.9,103.9-103.9c0.4,0,0.9,0,1.3,0
		c55.7,0.7,101.7,46.6,102.6,102.3c0.4,28.1-10.2,54.5-29.9,74.5C261.9,922.9,235.6,933.9,207.6,933.9z M207.6,728.1
		c-56.2,0-101.9,45.7-101.9,101.9s45.7,101.9,101.9,101.9c27.5,0,53.3-10.8,72.6-30.4c19.3-19.6,29.7-45.5,29.3-73
		c-0.8-54.7-45.9-99.7-100.6-100.4C208.5,728.1,208,728.1,207.6,728.1z" />
		<path class="st3" d="M876.2,700.2c-1,0-1.9,0-2.9-0.1c-21.5-1.4-39.1-18.6-41-40c-1.1-12.5,2.9-24.4,11.4-33.7
		c8.4-9.1,20.2-14.4,32.5-14.4c2.1,0,4.2,0.1,6.3,0.4c19.8,2.8,35.6,19.3,37.6,39.2c1.2,12.4-2.9,24.8-11.2,34
		C900.5,694.9,888.6,700.2,876.2,700.2z M876.2,614c-11.7,0-23.1,5-31.1,13.7c-8.1,8.8-11.9,20.3-10.9,32.2
		c1.8,20.4,18.7,36.9,39.1,38.2c0.9,0.1,1.9,0.1,2.8,0.1c11.8,0,23.2-5.1,31.2-13.9c8-8.8,11.9-20.6,10.7-32.5
		c-1.9-19-17-34.8-35.9-37.4C880.2,614.1,878.2,614,876.2,614z" />
		<path class="st3" d="M685.6,681.9c-4.5,0-9-1.2-13-3.5c-14-8.1-25.1-13.2-40.6-15.3c-13.1-1.8-22.7-12.7-22.7-25.8v-146
		c0-14.3,11.7-26,26-26h106.8c14.3,0,26,11.7,26,26v108.2c0,6.9-2.8,13.6-7.7,18.4L704,674.2C699.1,679.2,692.6,681.9,685.6,681.9z
		 M635.3,467.3c-13.2,0-24,10.8-24,24v146c0,12.1,8.8,22.2,20.9,23.9c15.8,2.1,27.2,7.3,41.3,15.5c3.7,2.1,7.8,3.2,12,3.2
		c6.4,0,12.5-2.5,17-7l56.4-56.4c4.5-4.4,7.1-10.5,7.1-16.9V491.3c0-13.2-10.8-24-24-24H635.3z" />
		<path class="st3" d="M131.9,677.7c-7.3,0-14.6-3-19.9-8.2c-5.6-5.4-8.6-12.7-8.6-20.4l-1.6-152c-0.1-8.7,3.2-16.9,9.3-23
		c6.1-6.2,14.3-9.6,22.9-9.6c1,0,2.1,0,3.1,0.1l162.7,0.5c6.3,0,11.5,5.2,11.5,11.5v173.9c0,6.3-5.2,11.5-11.5,11.5h-90.5
		c-23,0-45.3,4.5-66.4,13.4l-0.4,0.2C139.2,677,135.5,677.7,131.9,677.7z M134.1,466.5c-8.1,0-15.8,3.2-21.5,9
		c-5.7,5.8-8.8,13.5-8.8,21.6l1.6,152c0,7.2,2.8,14,8,19c5,4.8,11.7,7.6,18.5,7.6c3.4,0,6.8-0.7,10-2l0.4-0.2
		c21.3-9,43.9-13.6,67.2-13.6h90.5c5.2,0,9.5-4.3,9.5-9.5V476.6c0-5.2-4.3-9.5-9.5-9.5l-162.8-0.5l-0.1,0
		C136,466.5,135,466.5,134.1,466.5z" />
		<path class="st3" d="M524.6,662H401.5c-14.3,0-26-11.7-26-26V491.2c0-14.3,11.7-26,26-26h123.1c14.3,0,26,11.7,26,26V636
		C550.6,650.3,538.9,662,524.6,662z M401.5,467.2c-13.2,0-24,10.8-24,24V636c0,13.2,10.8,24,24,24h123.1c13.2,0,24-10.8,24-24V491.2
		c0-13.2-10.8-24-24-24H401.5z" />
		<path class="st3"
			d="M843.8,552.3c-3,0-5.9-1.2-8-3.3c-2.2-2.2-3.4-5.1-3.4-8.2v-64.2c0-6.3,5.2-11.5,11.5-11.5h0l31,0.1
		c13.3,0,16.5-0.6,28.7-3.7c2.8-0.7,5-1.1,6.9-1.1c3.8,0,10.1,1.4,10.1,11c0,0.3,1,55.3,1,55.3c0.1,6-2.1,11.6-6.3,15.9
		c-4.4,4.5-10.4,6.9-16.7,6.6c-9.3-0.4-16.9-0.9-22.6-1.3c-1.4-0.1-2.8-0.2-4.2-0.2c-8.5,0-16.9,2.1-24.6,4.3
		C845.9,552.2,844.8,552.3,843.8,552.3z M843.8,467.1c-5.2,0-9.5,4.3-9.5,9.5v64.2c0,2.6,1,5,2.8,6.8c1.8,1.8,4.1,2.7,6.6,2.7
		c0.9,0,1.8-0.1,2.6-0.4c7.9-2.3,16.4-4.3,25.2-4.3c1.5,0,3,0.1,4.4,0.2c5.7,0.5,13.2,0.9,22.5,1.3c5.8,0.3,11.2-1.9,15.2-6
		c3.8-3.9,5.8-9,5.8-14.4c0,0-0.9-55-1-55.3c0-6-2.7-9-8.1-9c-1.7,0-3.8,0.3-6.4,1c-12.3,3.2-15.6,3.7-29.2,3.7L843.8,467.1z" />
		<path class="st3" d="M761.1,401.2H620.8c-6.3,0-11.5-5.2-11.5-11.5V166.9c-0.5-21.2-5.4-41.5-14.5-60.1c-1.8-3.6-1.6-7.8,0.6-11.2
		c2.1-3.4,5.7-5.4,9.7-5.4h156c3.7,0,7,1.7,9.2,4.6c2.2,2.9,2.9,6.6,1.9,10.1c-2.7,9.4-4.1,19.3-4.1,29.4c0,22.2,6.7,43.5,19.3,61.7
		c12.3,17.8,29.4,31.3,49.5,39.1c4.5,1.7,7.4,5.9,7.4,10.7c0,4.7-2.9,9-7.3,10.7c-20,7.8-37.1,21.3-49.5,39.1
		c-12.6,18.2-19.3,39.5-19.3,61.7c0,10,1.4,19.9,4.1,29.4c1,3.5,0.3,7.2-1.9,10.1C768.1,399.5,764.8,401.2,761.1,401.2z M605.1,92.2
		c-3.3,0-6.3,1.7-8,4.4c-1.7,2.8-1.9,6.2-0.5,9.2c9.3,18.9,14.2,39.4,14.7,61v222.9c0,5.2,4.3,9.5,9.5,9.5h140.3
		c3,0,5.8-1.4,7.6-3.8c1.8-2.4,2.4-5.4,1.5-8.3c-2.8-9.6-4.1-19.7-4.1-29.9c0-22.6,6.8-44.3,19.6-62.8c12.6-18.1,30-31.9,50.4-39.8
		c3.6-1.4,6-4.9,6-8.8c0-4-2.4-7.4-6.1-8.8c-20.4-8-37.8-21.7-50.4-39.8c-12.9-18.5-19.6-40.2-19.6-62.8c0-10.2,1.4-20.3,4.1-29.9
		c0.8-2.9,0.3-5.9-1.5-8.3s-4.6-3.8-7.6-3.8H605.1z" />
		<path class="st3" d="M147.8,401.2c-24.3-0.1-44.1-19.9-44.1-44.1c0-24.3,19.8-44.1,44.1-44.1c1,0,2.1,0,3.1,0.1
		c21.8,1.5,39.3,19.1,40.8,40.8c0.9,12.4-3.3,24.1-11.7,33.2C171.7,396.1,160,401.2,147.8,401.2z M147.8,315
		c-23.2,0-42.1,18.9-42.1,42.1c0,23.1,18.9,42,42.1,42.1c11.6,0,22.9-4.9,30.8-13.4c8.1-8.6,12-19.9,11.2-31.7
		c-1.5-20.8-18.2-37.5-39-39C149.8,315,148.8,315,147.8,315z" />
		<path class="st3" d="M876.2,401.1c-1.6,0-3.2-0.1-4.8-0.3c-20.5-2.2-36.9-18.6-39.1-39.1c-1.3-12.5,2.7-24.9,11.1-34.2
		c8.4-9.3,20.3-14.6,32.8-14.6c1.6,0,3.2,0.1,4.8,0.3c20.5,2.2,36.9,18.6,39.1,39.1c1.3,12.5-2.7,24.9-11.1,34.2
		C900.6,395.8,888.7,401.1,876.2,401.1z M876.2,314.9c-11.9,0-23.3,5.1-31.3,14c-8,8.9-11.8,20.8-10.6,32.7
		c2.1,19.5,17.8,35.2,37.3,37.3c1.5,0.2,3.1,0.2,4.6,0.2c11.9,0,23.3-5.1,31.3-14c8-8.9,11.8-20.8,10.6-32.7
		c-2.1-19.5-17.8-35.2-37.3-37.3C879.2,315,877.7,314.9,876.2,314.9z" />
		<path class="st3"
			d="M286.7,401.1h-6c-7.5,0-14.6-3.2-19.5-8.9c-5-5.7-7.2-13.2-6.2-20.7c0.6-4.5,0.9-9.4,0.9-14.6
		c0-5.2-0.3-10-0.9-14.6c-1-7.5,1.3-15,6.2-20.6c4.9-5.6,12-8.9,19.5-8.9l187.7,0c16.1-0.3,32.1-3.3,47.3-8.9
		c2.9-1.1,5.9-1.6,8.9-1.6c14.3,0,26,11.7,26,26V375c0,14.3-11.7,26-26,26H286.7V401.1z M280.7,314.9c-6.9,0-13.5,3-18,8.2
		c-4.6,5.2-6.7,12.2-5.8,19c0.6,4.7,1,9.6,1,14.9c0,5.3-0.3,10.3-1,14.8c-0.9,6.9,1.2,13.9,5.7,19.1c4.6,5.2,11.1,8.2,18,8.2h4V399
		h239.9c13.2,0,24-10.8,24-24v-46.6c0-13.3-10.7-24-24-24c-2.8,0-5.6,0.5-8.2,1.5c-15.5,5.7-31.6,8.8-48,9.1L280.7,314.9z" />
		<path class="st3" d="M465.8,248.9c-21.2,0-41.2-8.3-56.2-23.2c-15-15-23.2-34.9-23.2-56.2c0-43.8,35.6-79.4,79.4-79.4h0
		c21.2,0,41.2,8.3,56.2,23.2c15,15,23.2,34.9,23.2,56.2C545.2,213.3,509.6,248.9,465.8,248.9z M465.8,91.1l0,1
		c-42.7,0-77.4,34.7-77.4,77.4c0,20.7,8,40.2,22.6,54.8c14.6,14.6,34.1,22.7,54.8,22.7c42.7,0,77.4-34.7,77.4-77.4
		c0-20.7-8-40.2-22.6-54.8c-14.6-14.6-34.1-22.7-54.8-22.7L465.8,91.1z" />
		<path class="st3" d="M876.2,178.3c-12.5,0-24.4-5.3-32.8-14.6c-8.4-9.3-12.4-21.8-11.1-34.2c2.2-20.5,18.6-36.9,39.1-39.1
		c1.6-0.2,3.2-0.3,4.8-0.3c12.5,0,24.4,5.3,32.8,14.6c8.4,9.3,12.4,21.8,11.1,34.2c-2.2,20.5-18.6,36.9-39.1,39.1
		C879.4,178.2,877.8,178.3,876.2,178.3z M876.2,92.1c-1.5,0-3,0.1-4.6,0.2c-19.5,2.1-35.2,17.8-37.3,37.3
		c-1.3,11.9,2.6,23.8,10.6,32.7c9,10,22.4,15.2,35.9,13.7c19.5-2.1,35.2-17.8,37.3-37.3c1.3-11.9-2.6-23.8-10.6-32.7
		C899.5,97.2,888.1,92.1,876.2,92.1z" />
		<rect x="371" y="542.4" class="st3" width="6" height="3" />
		<path class="st3" d="M363.9,545.4h-9v-3h9V545.4z M347.8,545.4h-9v-3h9V545.4z M331.7,545.4h-9v-3h9V545.4z" />
		<rect x="309.6" y="542.4" class="st3" width="6" height="3" />
	</g>
</svg>