<?xml version="1.0" encoding="utf-8"?>
<!-- Generator: Adobe Illustrator 21.0.2, SVG Export Plug-In . SVG Version: 6.00 Build 0)  -->
<svg version="1.1" id="SCENE_4" xmlns="http://www.w3.org/2000/svg" xmlns:xlink="http://www.w3.org/1999/xlink" x="0px" y="0px"
	 viewBox="0 0 1024 1024" style="enable-background:new 0 0 1024 1024;" xml:space="preserve">
<style type="text/css">
	.st0{fill:#FFFFFF;}
	.st1{display:none;}
	.st2{fill:#64566D;}
</style>
<rect id="BACKGROUND_grass" y="0" width="1024" height="1024"/>
<g id="OBSTACLES">
</g>
<g id="ROAD">
	<path id="TRACK_asphalt" class="st2" d="M975.3,556.6c0,29.2-1,57.3-3,84.3c-7.8,103.9-28.4,157.9-33.6,170.1
		c-21.1,57-54.3,102.6-98.9,135.4c-38.6,28.5-84.2,46.4-135.5,53.3c-48.4,6.5-100.9,2.4-147.7-11.6c-27.8-8.3-78.4-27.8-104.6-64.8
		c-29-40.9-46.7-74.5-57.6-108.8c-9.9-31.2-14.1-62.9-14.1-106.1c0-21.3-0.4-43.5-3.4-61.1c-3.2-18.7-7.8-23.7-8.3-24.2
		c-0.6-0.6-3.4-1.4-8.8-1.2c-5.6,0.2-10.9,0.3-15.9,0.3c-11.2,0.2-27.8,0.5-33.8,2.3c-1.9,3.6-7.9,18.7-7.7,65.7
		c0,6.8,0.1,13.1,0.1,18.8c0.3,54.4,0.3,69-5.5,116.4c-4.6,37.7-17.1,69-37,93c-18.1,21.8-51.7,48.2-108.6,49.9
		c-32.9,1-61.8-10.2-83.7-32.3c-21.9-22.1-36-54.1-43.4-97.9c-5.7-34.2-7.5-76.8-5.4-130.2c3.8-97.9,12.7-151,55.2-206.8
		c21-27.5,46.9-59.1,89.6-84.6c46.6-27.9,106-44.4,181.7-50.4c61.7-4.9,126.5,13.9,182.7,53c49.3,34.4,85.2,79.4,96.1,120.4
		c6.6,25,7.4,52.9,8.1,79.8c0.8,33,1.9,74.1,16,84.5c9.4,7,18.2,9.6,27.6,8.2c11.6-1.8,24.3-10.2,32.7-21.4
		c1.7-3.8,9.2-25.4,8.5-103.5c-0.5-53.3-4.6-113-7.6-156.6c-0.7-10.7-1.4-20.8-2-29.6c-2.9-45.5-9-68.4-13.1-79.1l-484.5,2.9
		c-14.3,0.7-88.4,1.9-136.4-41.7c-24.8-22.5-38.5-52.9-39.6-88c-1.8-54.5,25.9-102.4,78-134.7c34.4-21.3,68.4-29.3,72.2-30.1
		l5.7-1.3l5.8,0.1c213.5,2.7,541,6.1,568.5,4.8c55-2.6,96.9,9,124.5,34.7c21,19.4,27.2,40.8,29.1,52.3
		c25.9,108.4,43.3,211.3,51.8,306C973.3,472.1,975.3,515.4,975.3,556.6z M846.6,771.8c1.6-3.8,20.1-50.5,26.5-147
		c6.1-93,1.9-252.3-53.4-482.9l-0.2-0.7c-4.3-3.1-19.3-8.9-50.9-7.4c-38,1.8-488.1-3.6-567.6-4.6c-7.7,2.3-23.5,7.8-38.3,17.3
		c-30,19.3-29.3,38.2-29.1,45.3c0.3,10,3.5,14.2,6.8,17.3c15,13.7,50,16.6,64.8,15.9l1.6-0.1l1.2,0l492.9-3
		c15.6-2.3,32.3,1.3,46.8,10.6c17.8,11.3,31.6,30.6,41.2,57.2c9.5,26.3,15.5,60.7,18.3,105c0.5,8.5,1.2,18.5,1.9,29
		c3.2,47.1,7.6,111.5,7.8,169.8c0.3,81.8-7.6,128-26.5,154.4c-23.9,33.4-61,56.9-99.2,62.9c-36.2,5.7-71.7-3.6-102.8-26.8
		c-24.8-18.5-41.3-46.3-49.2-82.7c-5.7-26.3-6.3-53.3-7-79.4c-0.5-21.2-1.1-43.1-4.7-56.7c-3.1-11.7-21.2-39.4-56.7-64.1
		c-21.5-15-65.4-39.5-117.5-35.4c-134.9,10.8-169.3,56-199.7,95.9c-22.9,30.1-31.1,56-34.8,150.2c-1.8,46.5-0.5,82.4,4.1,109.8
		c5.1,30.5,12.7,41,15.8,44c1.3,1.3,2.9,2.9,9.7,2.7c21.3-0.6,30-8.2,34.7-13.8c7.4-8.9,12.5-23.2,14.7-41.3
		c5-41.2,5-50.7,4.7-103.8c0-5.8-0.1-12.1-0.1-18.9c-0.3-70.9,11.3-112.4,38.6-138.7c29.6-28.5,67.7-29.1,101.3-29.6
		c4.8-0.1,9.7-0.2,14.6-0.3c41-1.2,66.9,15.3,81.4,29.4c38.8,37.7,42,98.2,42,157c0,57.7,7.4,92.2,53.3,157.1
		c2.6,3.7,17.8,16.7,51.6,26.8c33.5,10,71.1,13,105.8,8.3c52.1-7,121.1-34.4,154.2-125.3l0.8-2.3L846.6,771.8z"/>
	<circle id="START" cx="925.3" cy="757" r="3.4" class="st1"/>
</g>
	<path id="drive" class="st2" d="M886.1,760.4l33.8-438.5l-3.2-39l-7.4-38l-5.6-18.5l-7-18.1l-8.5-17.6l-10.2-17.1l-12-16.6l-13.9-16
	l-12-11.7l-12.6-10.5l-26.7-17.9l-28.5-14.1l-30-10.7L711,68.2l-64.1-8.7l-302.2-5.2l-84.9,7.6l-44.3,9.5L194.3,78L174.2,86
	l-18.5,9.6L139.1,107l-14.3,13.2l-11.5,15.1l-8.4,17.2l-4.9,19.5l-0.8,20.6l3.8,18.1l7.9,15.7l11.6,13.5l14.8,11.5l17.5,9.6
	l19.8,7.8l21.6,6.2l46.7,8.4l94.6,4.7L593.1,276l22.9,1.7l21.5,3.1l19.9,4.8l18.1,6.7l16.2,8.9l14,11.3l11.8,13.9l9.3,16.7l16.7,46
	l16.5,62.3l12.8,71.1l5.5,72.4l-1.1,34.4l-4.3,32l-7.9,28.6L753,714.2l-16.4,19.1l-21.3,12.9l-26.7,5.9l-32.5-2.2l-19.8-4.8
	l-17.1-6.6l-14.6-8.3l-12.3-9.7l-10.3-11l-8.5-12.1l-7-13.1l-5.7-13.9L533,551.9l-12.5-31.9l-7.3-14.3l-7.9-13.2l-8.6-12.1l-9.3-11
	l-10.1-9.9l-10.8-8.8l-11.5-7.8l-12.3-6.7l-13.1-5.7l-13.9-4.6l-14.7-3.6l-31.8-4.1l-17.2-0.5l-39.8,2.1l-36.1,6l-32.6,9.7l-29.3,13
	l-26.1,16L165,483.3l-20.1,21l-17.4,23.1l-14.8,24.8l-12.3,26.2l-10,27.3l-7.8,28.1l-9.7,57.3l-2.6,85.5l3.5,55.8l2.3,12.7l3.1,12
	l4,11l5,10l6.2,8.8l7.5,7.4l8.9,5.9l10.4,4.3l12.1,2.5l13.9,0.6l19.6-1.5l16.7-3.3l14-4.9l11.6-6.5l9.4-7.9l7.4-9.2l5.7-10.5
	l4.2-11.5l3-12.5l12.2-185l3.9-17.3l5.7-17l7.9-16.7l4.9-8.2l5.7-7.8l6.3-7l6.9-6.3l7.4-5.4l7.8-4.6l8.1-3.8l8.4-2.9l8.5-2l8.6-1
	l8.5-0.1l8.4,0.9l8.2,1.9l7.9,2.9l7.6,4l7.1,5.1l6.6,6.2l10.4,12.7l9.1,14l7.8,15.2L429,634l10.2,34.6l13.3,74.6l19.1,75.8
	l12.4,36.9l7.4,17.7l8.4,15.6l9.3,13.6l10.3,11.7l11.2,10l12.1,8.3l12.9,6.8l13.7,5.4l14.6,4.1l15.3,3l32.9,3l74-2.3l17.4-2
	l15.5-3.1l14-4.3l13-5.5l12.6-6.8l26-17.5l33.3-26.5l7.7-7.8l6.7-7.8l5.7-7.8l4.9-7.9l4.2-8l6.5-16.7l4.6-17.9L886.1,760.4
	L886.1,760.4z"/>

</svg>
