<?xml version="1.0" encoding="utf-8"?>
<!-- Generator: Adobe Illustrator 21.0.2, SVG Export Plug-In . SVG Version: 6.00 Build 0)  -->
<svg version="1.1" id="SCENE_1" xmlns="http://www.w3.org/2000/svg" xmlns:xlink="http://www.w3.org/1999/xlink" x="0px"
	y="0px" viewBox="0 0 1024 1024" style="enable-background:new 0 0 1024 1024;" xml:space="preserve">
<style>
		.st2, .st3 {
			fill: #FFFFFF;
		}

		.st1 {
			display: none;
		}

		.st0 {
			fill: #64566D;
		}
</style>
<rect id="BACKGROUND_grass" y="0" width="1024" height="1024"/>
<!-- <g id="OBSTACLES">
	<path class="st2" d="M877,297.9c-11.3-27.1-22.2-59.5-42.9-81.2c-28.2-29.4-50.5-23-87.8-15.2c-71,14.9-132.1,25.8-204.2,14.8
		c-74.2-11.4-324.6-96-350.1,15.6c-26.4,115.6,139.7,196.9,216.2,252.3c83.4,60.5,316,239.1,126.8,321.2
		c-62.2,27-143.8,19.1-197.3-24.5c-29.1-23.7-54.1-54.3-81.4-80.1c-25.4-24-49.5-60.6-70.6-17.2c-23.4,48.2,24.4,138.3,69.3,157.2
		c63.3,26.7,139.6,19.7,206.7,16.1c70.4-3.8,410.9-15.6,332.8-146.5c-36.5-61.2-123.7-75.6-181-109.4c-57.6-34-119-70.4-166.3-117.8
		c-37.8-37.8-47.8-60.6-53.7-113.3c-3.6-32.1-16.8-84.7,12.6-111c46.7-41.7,187.6-13.7,238.1,4.5c34.9,12.6,68.5,24.1,97.4,47.3
		c28.8,23.2,49.8,57.7,78.5,79.5C876.1,432.9,884.5,340.5,877,297.9z"/>
	<path class="st2" d="M38.1,11.1C-2,64.5,15.6,140.8,15.6,206.1c0,94.6,0,189.2,0,283.8c0,152.9,7.5,347.6,7.5,500.4
		c34.5,0,105.3,21.2,110.4-23.4c0.7-6.6,153-9,153-9S210,955.4,153,928.4c-39.5-18.7-69.9-79.3-72.5-85.5
		c-14.5-35-23.7-77.1-19.6-118c7.2-71.8,22-197.9,100.1-226.1c93.2-33.6,151.5,105.1,203.4,157.7c21.6,21.9,70.4,61.3,87.2,13.4
		c12.9-36.8-31-59.3-55.7-76.3c-73.5-50.6-147.3-99.5-214.4-158.4C123.8,384.5,57.8,292.1,53.1,213.6c-2.3-38-8.2-87.7,13.1-116.1
		c18.6-24.9,65-50.9,92.8-56.4c41.2-8.2,88.6-7.5,130.7-7.5c43.3,0,97.1,4.5,138.3,16.4c55.5,16,115.2,49.5,171,73
		c38.3,16.1,95.2-30.1,135-47c48-20.4,70.8-34.9,127.5-30c55.3,4.8,97.5-12.4,153.1-12.4c0-7.5,0-15,0-22.5
		C689.1,11.1,363.6,11.1,38.1,11.1z"/>
	<path class="st2" d="M942,553.9c-6.3,5.9-25.7,6.8-33.9,4.3c-63.3-19.4-94.6-41-150.5-81c-47.1-33.7-118.9-117.6-173.4-115
		c-22.7,1.1-57.4,14.9-54.6,41c2.6,24.5,46.3,49.1,64.6,58.7c67.5,35.7,134.9,77,204.5,108.2c57,25.5,105.4,49.6,132.5,109.2
		c31.2,68.8,30.6,126.8-18.5,184.6c-81,95.4-294.1,77.7-408.3,81.9C335.7,952,167.6,952,47.3,957.5c-13.3,0.6-24.2,10.9-24.2,24.2
		v8.6c0,13.4,10.8,24.2,24.2,24.2H1001c13.4,0,5-410.6,5-410.6c0-21.1,6.5-116.4-9-102L942,553.9z"/>
	<path class="st2" d="M811.5,41c37.7,7.5,80.1,11.9,103.4,45.9c23.4,34.2,29.2,91.2,37.6,130.1c16,73.5,41,148.6,41,224
		c0,191.2,0,382.3,0,573.5c7,0,14,0,21,0c0-325.5,0-659,0-984.6C946.9,31,879.2,40,811.5,41z"/>
</g> -->

<g id="ROAD">
	<path id="TRACK_asphalt" class="st0" d="M256.6,948.5c-14.6,0-26.8-0.5-37.5-1.8s-19.8-3.2-28.1-6c-21.4-7.3-42-21.5-58.9-37.1
		s-30.2-32.3-37.1-44.7c-23.1-42.1-29.4-102.4-25.2-159.8C74,641.8,88.6,587.5,107,557.6c4.9-8,10.3-15.3,16.1-21.8
		s11.9-12.1,18.4-16.8c8.6-6.3,17.7-11,27.1-14c9.4-3,19.1-4.4,28.9-4.1c14.6,0.5,27.3,5.8,38.2,12.7c10.9,6.9,19.9,15.5,26.9,22.9
		c6.6,7,13.4,15,20.4,23.7s14.2,18,21.6,27.6c13.8,17.9,28.5,37,44.2,54.9s32.3,34.6,49.9,47.6c17,12.5,38.5,5.1,49.4-11
		c10.9-16,11.2-40.7-14.1-62.4c-70.9-49-133.7-96.9-180.8-134.9s-78.7-65.9-87.2-75.1c-29.5-32-54.9-75.4-73.1-116.1
		S63.8,212.2,63,190.9C54.8,134.4,71.2,99.6,96.8,78s60.6-30.1,89.6-34.1c149.3-11,247.5,11,311.4,36s93.7,53,106.2,54
		c18.9,1.6,63.2-18.9,106.3-39.8s85.1-42.2,99.4-42.2c0,0,18.1-4,40.6,0.3C872.9,56.5,900,69,918,102
		c110.5,365.5,65.7,453.6-9.4,447.3s-180.4-106.9-190.8-119c-1.4-1.6-18.9-17.2-40.4-33.3c-21.5-16.2-46.9-33-64.1-37.2
		c-19.6-4.7-46.9-1.7-65.6,8.8C529,379.1,519,397.1,534,422.3c10.9,9.6,23.9,19.7,38.8,30.1c14.9,10.5,31.8,21.3,50.6,32.5
		c34.2,20.3,69.5,38.6,99.2,52.9s54,24.6,65.9,28.8c52,18.5,92.4,45.6,119.8,79.8c27.4,34.2,41.7,75.4,41.7,122
		c0,15.3-1.9,29.7-5.8,43.1c-3.8,13.4-9.6,25.8-17.2,37.1c-6.6,9.8-14.5,18.5-23.7,26.3s-19.6,14.6-31.3,20.4
		c-18.2,9-37.6,14.6-56.2,18.4c-18.6,3.8-36.3,5.8-51.3,7.5l-1,0.1l-1,0.1c-26,2.9-93.7,6.7-175.1,10.9s-176.5,8.8-257.6,13.3
		c-14.8,0.9-28.2,1.6-40.3,2.1C277.4,948.2,266.5,948.5,256.6,948.5z M455,867.9c88.7-4.9,152.7-12.6,194.5-19.1
		C691.3,842.3,711,837,711,837c35.5-7,62-21.3,79.6-36.3S817,770,817,760.4c0-9.2,2-24-4.7-41.6s-22.1-37.8-56.9-57.7
		c-15.7-5.5-43.5-17.4-76.3-33.2s-70.7-35.6-106.6-56.9c-21.5-12.8-41-25.3-58.4-37.6c-17.5-12.3-32.9-24.3-46.1-36
		c-19.1-16.9-34-33.4-44.8-49.6s-17.4-32.2-20.1-48.1c-2.9-17.5-7.9-43.4-8.4-67.9s3.4-47.7,18.3-59.5c29.4-23.4,67.9-30,107.8-28.6
		S602,254.5,637,262.9c27.5,6.6,54.3,18.1,79.4,33.7s48.3,35.4,68.5,58.5c1.5,1.7,2.9,3.4,4.4,5c1.5,1.7,2.9,3.4,4.4,5.1
		c6.6,7.7,13.1,15.2,19.4,22s12.3,13,18.1,18c15.4,10.4,29.9,1,39.7-18.1s14.8-47.9,11.1-76.5c-3.8-29.5-18-59.7-35.3-82.6
		s-37.8-38.6-54-39.1c-7.6,0.9-16.3,2.6-25.5,4.6c-9.2,2.1-19.1,4.5-29.2,7.1c-19.3,4.8-39.6,9.8-60.8,13.7s-43.3,6.5-66.1,6.5
		c-3.8,0-7.6-0.1-11.5-0.2c-3.8-0.1-7.7-0.4-11.6-0.7c-15.5-1.3-33-4-51.7-7.3c-18.8-3.4-38.8-7.5-59.4-11.8
		c-31.6-6.6-65.2-13.5-98.2-18.7s-65.5-8.7-94.7-8.2c-38.3,0.6-60.6,7.6-73.9,15.9s-17.6,17.8-19.9,23.3c-0.9,2.4-7.4,20.6-5,47.4
		c2.3,26.9,13.4,62.4,47.6,99.5c5.3,5.8,18.6,16.3,35.3,28.6s36.7,26.6,55.5,39.9c27.2,19.3,57.7,41,88.1,63.6
		c30.3,22.7,60.5,46.4,87,69.6c37.6,33,64,62.2,80.4,88.9s22.5,51.1,19.5,74.7c-1.3,10-5,24.3-15.2,38.5
		c-10.1,14.3-26.7,28.6-53.6,38.8c-17.5,6.6-35,10.6-52.5,12.1s-35,0.3-52.4-3.5c-14.4-3.1-28.9-8-43.2-14.8
		c-14.3-6.8-28.5-15.3-42.4-25.6c-23.3-17.2-48.4-48.6-71.7-74.7c-23.3-26-44.7-46.7-60.5-42.3c-37.5,11-39.5,50.3-29.1,89.7
		s33.3,79.1,45.5,90.9c15.3,20.2,63.9,29.1,113.4,32.6S436.6,868.9,455,867.9z M190.1,213.1c-0.1,0.1-0.1,0.1-0.1,0.2
		c0,0.1,0,0.1-0.1,0.2l-0.2,0.4l-0.1,0.4l0.1-0.4l0.2-0.3c0.1,0,0.1-0.1,0.1-0.1C190,213.4,190.1,213.2,190.1,213.1z"/>
	<circle id="START_o" cx="879.3" cy="760.9" r="3.4" class="st1"/>
	<circle id="START" cx="916.4" cy="760.9" r="3.4" class="st1"/>
	<path id="drive" class="st2" d="M879.3,802.9c0-17.5,0.5-35-0.4-52.5c-0.9-17.4-3.3-34.8-10.8-50.6c-7.3-15.3-19.1-27.9-32.2-38.5
		c-6.9-5.6-14.2-10.5-21.5-15.5c-7.7-5.2-15.4-10.4-23.1-15.6c-15.3-10.3-30.7-20.4-46-30.6c-15.5-10.2-31-20.4-46.5-30.6
		c-15.4-10.1-30.8-20.2-46.3-30.2c-15.5-10.1-31-20.2-46.4-30.3c-13.4-8.8-27.4-16.7-41.2-24.9c-15.3-9.1-30.5-18.4-45.1-28.6
		c-14.6-10.2-28.9-21.1-41.6-33.6c-11.9-11.7-23.2-25.1-29.3-40.8c-3.1-7.8-4.7-16.2-4.2-24.6c0.5-8,3.1-15.7,7-22.7
		c3.9-7,9.1-13.2,14.8-18.8c5.9-5.8,12.5-10.7,19.9-14.4c15.4-7.8,32.9-10.5,50-10.3c18.2,0.3,36.3,3.5,53.9,8.4
		c17.3,4.8,34.2,11.2,50.6,18.5c16,7.2,31.6,15.1,46.5,24.3c15.4,9.5,30.4,19.6,45.3,29.8c15.2,10.4,30.3,20.7,45.8,30.7
		c15.3,9.8,31.1,19.1,47.5,27.1c14.7,7.1,30.3,13.9,46.7,15.5c6.6,0.6,13.3,0.4,19.6-1.4c6.5-1.8,12.4-5.3,17.1-10.2
		c10.5-10.9,14.6-26.6,16.2-41.2c2-17.3,0.8-35-1.6-52.2c-2.5-18.1-6.5-35.9-11.6-53.4c-5-16.8-10.9-33.4-18.3-49.4
		c-3.5-7.6-7.4-15-11.7-22.2c-3.8-6.3-8.1-12.5-13.2-17.8c-12-12.4-28.9-19.6-45.2-24.4c-17.4-5.1-35.5-7.5-53.5-9.7
		c-18.1-2.2-36.2-4.1-54.4-5.5c-18.5-1.4-37-2.3-55.5-3.1c-18.7-0.8-37.3-1.4-56-2c-18.5-0.5-36.9-1.1-55.4-1.9
		c-18.5-0.8-37.1-1.7-55.6-2.6c-18.5-0.9-37.1-2-55.6-3.1c-18.5-1-36.9-2-55.4-3c-18.6-1-37.2-1.9-55.8-2.6
		c-18.5-0.8-36.9-1.4-55.4-1.8c-9.3-0.2-18.6-0.4-27.9-0.5c-8.6-0.1-17.2,0-25.8,1.2c-8.3,1.3-16.6,3.5-24,7.6
		c-7.2,3.9-13.4,9.5-18,16.3c-9.5,13.9-12.7,31.1-14,47.5c-0.7,8.8-1,17.7-1,26.6c-0.1,8.7,0.2,17.3,0.9,25.9
		c1.4,17.2,4.7,34.4,10.8,50.6c6.1,16.5,15.1,31.8,25.9,45.8c10.8,14,22.9,26.8,35.5,39.2c13.1,12.9,26.5,25.5,40,38.1
		c13.6,12.6,27.3,25,41,37.5c13.7,12.4,27.4,24.9,41.2,37.3c13.7,12.4,27.3,25,40.8,37.6c13.5,12.7,26.8,25.5,39.8,38.6
		c12.9,12.9,25.5,26.1,37.7,39.6c12.2,13.5,24,27.4,35.4,41.6c10.8,13.6,21.6,28,27.3,44.6c2.5,7.5,4.2,16.4,0.6,23.9
		c-3.2,6.6-10,10.3-16.9,12.1c-7.4,1.9-15.2,2.1-22.8,1.8c-8.8-0.4-17.5-1.6-26.1-3.2c-16.9-3.1-33.5-8.1-49.3-14.8
		c-16.4-6.9-32-15.7-47-25.3c-15.4-9.8-30.1-20.6-45-31.2c-14.7-10.5-29.6-20.8-45.1-30.1c-7.4-4.5-15-8.7-22.8-12.6
		c-7.9-4-16-7.9-24.4-10.8c-15.9-5.5-33-7.8-49.5-4.1c-16.2,3.6-30.5,12.6-41.7,24.6c-11.6,12.3-19.9,27.4-25.8,43.2
		c-6.2,16.8-9.7,34.5-10.6,52.4c-0.9,17.5,0.2,35.4,5.1,52.3c4.4,15.3,12,29.7,22.1,42c10.3,12.6,23,23.2,36.7,31.9
		c14.4,9.2,30,16.4,46,22.4c16.9,6.2,34.2,11,51.8,14.8c17.9,3.9,36.1,6.6,54.3,8.8c17.9,2.1,36,3.4,54,4.1
		c17.3,0.7,34.7,0.8,52,0.4c18.6-0.4,37.1-0.8,55.7-1.4c18.6-0.6,37.1-1.4,55.7-2.5c18.5-1.1,37-2.5,55.5-4.2
		c17.4-1.6,34.8-3.2,52.2-5.1c18-2,35.9-4.2,53.8-7.2c18.1-3,36.2-6.7,54-11.5c17.1-4.6,34.1-10.3,50.1-17.8
		c15.2-7.1,29.8-15.8,42.5-26.9C863,827.8,872.7,816.4,879.3,802.9z"/>

</g>
<g id="layout">
</g>
</svg>
