<?xml version="1.0" encoding="utf-8"?>
<!-- Generator: Adobe Illustrator 21.0.2, SVG Export Plug-In . SVG Version: 6.00 Build 0)  -->
<svg version="1.1" id="SCENE_4" xmlns="http://www.w3.org/2000/svg" xmlns:xlink="http://www.w3.org/1999/xlink" x="0px" y="0px"
	 viewBox="0 0 1024 1024" style="enable-background:new 0 0 1024 1024;" xml:space="preserve">
<style type="text/css">
	.st2{fill:#FFFFFF;}
	.st1{display:none;}
	.st0{fill:#64566D;}
	.st3 {fill: rgba(255,255,255,0.7);}
</style>
<rect id="BACKGROUND_grass" y="0" width="1024" height="1024"/>
<g id="OBSTACLES">
<path id="01_stone2" class="st2" d="M203.1,656.9c-32.7,9.7-30.1,47.5-22.2,77.5c9.9,37.3,31.6,75.4,42.8,86.3l0.6,0.5
		l0.5,0.6c6.3,8.3,28.5,23.2,106.1,28.7c19.9,1.4,41.9,2.1,65.3,2.1c0,0,0,0,0,0c26.8,0,46.3-0.9,51.6-1.2
		c91.5-5.1,155.7-13.1,193.5-19c40.6-6.3,60.3-11.5,60.4-11.6l0.3-0.1l0.3-0.1c37.7-7.4,61.6-22.6,75-34.1
		c16.8-14.3,22.9-27.4,22.9-32.7c0-1.7,0.1-3.6,0.1-5.5c0.3-8.8,0.7-19.8-4.2-32.5c-7.2-18.9-24.6-36.5-51.7-52.1
		c-17.4-6.2-45.8-18.6-76.5-33.3c-26.1-12.6-66-32.7-107.4-57.3c-22.5-13.4-41.8-25.8-59.1-38c-17.9-12.6-33.7-24.9-47-36.7
		c-19.6-17.4-35.3-34.7-46.5-51.5c-11.4-17.1-18.7-34.6-21.6-52c-0.4-2.4-0.8-4.9-1.3-7.5c-2.9-16.8-6.8-39.9-7.3-61.9
		c-0.7-33.1,6.5-55.2,22.1-67.5c26.2-20.8,60.2-30.9,104-30.9c3.4,0,6.8,0.1,10.3,0.2c40.1,1.4,80.3,10.4,118.2,19.5
		c28.3,6.8,56,18.5,82.3,34.9c26.1,16.2,49.9,36.5,70.7,60.4c0.5,0.6,1.1,1.2,1.6,1.8c0.9,1,1.7,2,2.6,2.9l0.2,0.2
		c0.8,0.9,1.6,1.8,2.3,2.7c0.7,0.8,1.4,1.6,2.1,2.4l0.1,0.1c7.2,8.4,13.2,15.3,19.1,21.7c5.1,5.5,11.1,11.8,16.8,16.8
		c2.4,1.5,4.6,2.3,6.7,2.3c5.8,0,12.6-6.3,18-17c9.5-18.5,13.3-45.5,10.1-70.7c-3.3-25.8-15.5-54.2-33.4-77.9
		c-15.5-20.6-33.4-34.3-45.7-35.1c-6.1,0.8-13.5,2.1-23.7,4.3c-9.4,2.1-19.1,4.5-28.9,7c-17.5,4.4-39.2,9.8-61.5,13.9
		c-24.4,4.5-46.6,6.7-67.9,6.7c-3.9,0-7.6-0.1-11.5-0.2l-0.2,0c-4.1-0.1-8.2-0.4-12.1-0.7c-14-1.2-30.2-3.5-52.7-7.4
		c-18-3.3-36.9-7.1-59.7-11.9c-33-6.9-65.4-13.5-97.7-18.6c-34.7-5.5-63.3-8.1-87.5-8.1c-1.8,0-3.6,0-5.4,0
		c-31.1,0.5-54.3,5.3-68.8,14.4c-10.9,6.8-14.1,14.3-15.9,18.5c-0.9,2.5-6.5,18.9-4.3,42.8c2.8,32.8,17.9,64.3,45,93.6
		c3,3.3,11.4,10.7,33.9,27.3c14.5,10.7,33.1,24.1,55.3,39.8c28.4,20.1,58.6,41.6,88.3,63.7c35.2,26.4,63.9,49.3,87.6,70.1
		c38.4,33.7,65.4,63.6,82.3,91.2c17.4,28.3,24.2,54.9,20.9,81.2c-1.4,10.8-5.5,27.1-17,43.1c-13,18.3-32.5,32.6-58.2,42.3
		c-18.2,6.9-36.7,11.1-55.2,12.7c-5.1,0.4-10.4,0.7-15.5,0.7c-13.2,0-26.6-1.5-39.9-4.4c-15.4-3.3-30.6-8.5-45.4-15.5
		c-15.1-7.2-29.9-16.1-44.1-26.6c-19.3-14.2-39.2-37.1-58.4-59.2c-4.9-5.6-10-11.5-14.8-16.9c-10.6-11.8-35.4-39.6-48.6-39.6
		C204.2,656.7,203.6,656.8,203.1,656.9z"/>
	<path id="02_stone2" class="st2" d="M239.5,0v24.5c88.1,0.7,185,10,255.2,39.6c38.3,16.2,65.3,31.4,82.8,42.2
		c8.3,5.1,17.7,10.8,20.5,11.2c0.4,0,0.9,0.1,1.4,0.1c19.6,0,71.7-25.3,99.7-38.9c4.6-2.2,9.2-4.5,13.8-6.7
		c45.3-22.1,74.2-35.8,88.9-36.5c2.7-0.5,10.2-1.7,20.3-1.7c7.9,0,15.7,0.7,23.3,2.2C878,42.1,903.8,61,920,90.7l0.5,0.9l0.3,1
		c37,122.5,58.9,221.8,65,294.9c5.5,66.4-1.5,111.8-21.4,138.6c-13.3,17.9-31.9,26.9-55.3,26.9c0,0,0,0,0,0c-2.6,0-5.3-0.1-8-0.3
		c-78.1-6.6-184.9-108-197.4-122.3c-2.1-2.1-18.3-16.5-39-32c-26.2-19.8-47.7-32.4-60.5-35.5c-5.1-1.2-11.1-1.9-17.3-1.9
		c-14.9,0-30.2,3.6-41,9.7c-5.7,3.2-13.1,8.8-15.2,16.8c-1.7,6.2-0.2,13.5,4.4,21.7c10.4,9.1,22.8,18.6,36.7,28.3
		c14.4,10.1,30.7,20.6,50,32.1c37.6,22.3,74.3,40.8,98.4,52.5c31.5,15.1,54.6,24.8,64.9,28.4c53.6,19.1,95.5,47,124.3,83
		c29.1,36.4,43.9,79.5,43.9,128.3c0,16.3-2.1,31.8-6.2,45.9c-4,14.2-10.3,27.6-18.5,39.9c-7,10.4-15.6,19.9-25.5,28.3
		c-9.8,8.3-21,15.6-33.3,21.7c-16.8,8.3-36,14.6-58.6,19.2c-19,3.9-37.3,6-52,7.6l-2.2,0.2c-27.7,3.1-100.8,7.1-175.6,10.9
		c-26.4,1.4-54.3,2.8-82.7,4.2c-59.1,3-120.1,6.1-174.9,9.1c-14.8,0.9-28.4,1.6-40.4,2.1c-13.3,0.6-23.9,0.8-33.3,0.8
		c-15.9,0-28.2-0.6-38.7-1.9c-11.7-1.4-21.3-3.5-30.1-6.5c-26.2-8.9-48.4-26.3-62.5-39.2c-16.5-15.2-31.1-32.8-39.1-47.2
		c-29.6-53.9-29.3-126.8-26.4-165.4c4.3-58.3,19.1-114.2,38.7-146c5.2-8.4,10.9-16.3,17.2-23.2c6.3-7.1,13-13.2,20-18.2
		c9.4-6.9,19.5-12.1,29.9-15.4c9.6-3.1,19.5-4.6,29.3-4.6c1,0,1.9,0,2.9,0c14.8,0.5,28.9,5.2,43.2,14.2c12.7,8,22.5,17.8,28.8,24.5
		c6.3,6.7,13.1,14.6,20.9,24.3c7.2,8.9,14.7,18.6,21.7,27.8l0.5,0.7c13.8,17.8,28,36.3,43.3,53.7c17.5,20,33.3,35.1,48.3,46.2
		c3.9,2.9,8.2,4.3,12.8,4.3c8.4,0,17-4.9,22.4-12.9c8-11.7,9-30.7-11.9-48.9c-78.4-54.2-141.7-103.3-181-135
		c-48.5-39.1-79.7-66.9-88.3-76.1C124.6,377.6,98,335.4,77,288.4c-18-40.2-29.7-79.6-30.7-103.1C36.8,118.9,61.8,82,84.6,62.9
		c28.2-23.8,64.9-31.4,93.7-35.4l0.3,0l0.3,0c20.8-1.5,41.3-2.5,61.1-2.8V0H0v1024h1024V0H239.5z"/>

</g>

<g id="ROAD">
	<path id="TRACK_cobblestone" class="st0" d="M249.8,942c-14.6,0-26.8-0.5-37.5-1.8s-19.8-3.2-28.1-6c-21.4-7.3-42-21.5-58.9-37.1
		s-30.2-32.3-37.1-44.7C65.1,810.3,58.8,750,63,692.6c4.2-57.3,18.8-111.6,37.2-141.5c4.9-8,10.3-15.3,16.1-21.8
		s11.9-12.1,18.4-16.8c8.6-6.3,17.7-11,27.1-14c9.4-3,19.1-4.4,28.9-4.1c14.6,0.5,27.3,5.8,38.2,12.7c10.9,6.9,19.9,15.5,26.9,22.9
		c6.6,7,13.4,15,20.4,23.7s14.2,18,21.6,27.6c13.8,17.9,28.5,37,44.2,54.9s32.3,34.6,49.9,47.6c17,12.5,38.5,5.1,49.4-11
		c10.9-16,11.2-40.7-14.1-62.4c-70.9-49-133.7-96.9-180.8-134.9s-78.7-65.9-87.2-75.1c-29.5-32-54.9-75.4-73.1-116.1
		S57,205.7,56.2,184.4C48,127.9,65.4,92.1,91,70.5s59.6-29.1,88.6-33.1c149.3-11,247.5,11,311.4,36s93.7,53,106.2,54
		c18.9,1.6,63.2-18.9,106.3-39.8s85.1-42.2,99.4-42.2c0,0,18.1-4,40.6,0.3c22.6,4.3,49.7,16.8,67.7,49.8
		c110.5,365.5,65.7,453.6-9.4,447.3S721.4,435.9,711,423.8c-1.4-1.6-18.9-17.2-40.4-33.3c-21.5-16.2-46.9-33-64.1-37.2
		c-19.6-4.7-46.9-1.7-65.6,8.8c-18.7,10.5-28.7,28.5-13.7,53.7c10.9,9.6,23.9,19.7,38.8,30.1c14.9,10.5,31.8,21.3,50.6,32.5
		c34.2,20.3,69.5,38.6,99.2,52.9s54,24.6,65.9,28.8c52,18.5,92.4,45.6,119.8,79.8c27.4,34.2,41.7,75.4,41.7,122
		c0,15.3-1.9,29.7-5.8,43.1c-3.8,13.4-9.6,25.8-17.2,37.1c-6.6,9.8-14.5,18.5-23.7,26.3s-19.6,14.6-31.3,20.4
		c-18.2,9-37.6,14.6-56.2,18.4c-18.6,3.8-36.3,5.8-51.3,7.5l-1,0.1l-1,0.1c-26,2.9-93.7,6.7-175.1,10.9s-176.5,8.8-257.6,13.3
		c-14.8,0.9-28.2,1.6-40.3,2.1C270.6,941.7,259.7,942,249.8,942z M448.2,861.4c88.7-4.9,152.7-12.6,194.5-19.1
		c41.8-6.5,61.5-11.8,61.5-11.8c35.5-7,62-21.3,79.6-36.3s26.4-30.7,26.4-40.3c0-9.2,2-24-4.7-41.6s-22.1-37.8-56.9-57.7
		c-15.7-5.5-43.5-17.4-76.3-33.2s-70.7-35.6-106.6-56.9c-21.5-12.8-41-25.3-58.4-37.6c-17.5-12.3-32.9-24.3-46.1-36
		c-19.1-16.9-34-33.4-44.8-49.6s-17.4-32.2-20.1-48.1c-2.9-17.5-7.9-43.4-8.4-67.9s3.4-47.7,18.3-59.5c29.4-23.4,67.9-30,107.8-28.6
		s81.2,10.8,116.2,19.2c27.5,6.6,54.3,18.1,79.4,33.7s48.3,35.4,68.5,58.5c1.5,1.7,2.9,3.4,4.4,5c1.5,1.7,2.9,3.4,4.4,5.1
		c6.6,7.7,13.1,15.2,19.4,22s12.3,13,18.1,18c15.4,10.4,29.9,1,39.7-18.1s14.8-47.9,11.1-76.5c-3.8-29.5-18-59.7-35.3-82.6
		s-37.8-38.6-54-39.1c-7.6,0.9-16.3,2.6-25.5,4.6c-9.2,2.1-19.1,4.5-29.2,7.1c-19.3,4.8-39.6,9.8-60.8,13.7s-43.3,6.5-66.1,6.5
		c-3.8,0-7.6-0.1-11.5-0.2c-3.8-0.1-7.7-0.4-11.6-0.7c-15.5-1.3-33-4-51.7-7.3c-18.8-3.4-38.8-7.5-59.4-11.8
		c-31.6-6.6-65.2-13.5-98.2-18.7s-65.5-8.7-94.7-8.2c-38.3,0.6-60.6,7.6-73.9,15.9s-17.6,17.8-19.9,23.3c-0.9,2.4-7.4,20.6-5,47.4
		c2.3,26.9,13.4,62.4,47.6,99.5c5.3,5.8,18.6,16.3,35.3,28.6s36.7,26.6,55.5,39.9c27.2,19.3,57.7,41,88.1,63.6
		c30.3,22.7,60.5,46.4,87,69.6c37.6,33,64,62.2,80.4,88.9s22.5,51.1,19.5,74.7c-1.3,10-5,24.3-15.2,38.5
		c-10.1,14.3-26.7,28.6-53.6,38.8c-17.5,6.6-35,10.6-52.5,12.1s-35,0.3-52.4-3.5c-14.4-3.1-28.9-8-43.2-14.8
		c-14.3-6.8-28.5-15.3-42.4-25.6c-23.3-17.2-48.4-48.6-71.7-74.7c-23.3-26-44.7-46.7-60.5-42.3c-37.5,11-39.5,50.3-29.1,89.7
		s33.3,79.1,45.5,90.9c15.3,20.2,63.9,29.1,113.4,32.6S429.8,862.4,448.2,861.4z M183.3,206.6c-0.1,0.1-0.1,0.1-0.1,0.2
		c0,0.1,0,0.1-0.1,0.2l-0.2,0.4l-0.1,0.4l0.1-0.4l0.2-0.3c0.1,0,0.1-0.1,0.1-0.1C183.2,206.9,183.3,206.7,183.3,206.6z"/>
	<circle id="START" cx="916.4" cy="760.9" r="3.4" class="st1"/>
	<g id="CHECK">
		<rect id="1" class="st0" x="810" y="740" width="144.1" height="4.3" transform="rotate(-7, 882, 742)"/>
		<rect id="2" class="st0" x="834.7" y="253" width="144.1" height="14.3"/>
		<rect id="3" class="st0" x="54.2" y="722.6" width="121.7" height="14.3"/>

	</g>

</g>
<path id="drive" class="st2" d="M856.8,768.6l-9-55.4l-13.3-29.8l-15.3-25.5l-13.8-14.5l-14.2-13.2l-46-30.6L698.8,569l-46.3-30.2
	l-46.4-30.3l-41.2-24.9L519.8,455l-41.6-33.6l-29.3-40.8l-4.2-24.6l7-22.7l14.8-18.8l19.9-14.4l50-10.3l53.9,8.4l50.6,18.5
	l46.5,24.3l45.3,29.8l45.8,30.7l47.5,27.1l46.7,15.5l19.6-1.4l17.1-10.2l16.2-41.2l-1.6-52.2l-5-54.2l-9.3-48l-10-36.7l-20.3-31.3
	l-36.3-24l-58.7,0.7l-56.7,6l-64.7,5.3l-66,3.3l-64.7-8l-38.7-5.2L438,135.9l-56.5-9.5l-57.5-8l-91-5.5l-43,5l-43,17.3l-40.3,31.7
	l-18.2,45l5,42l19,51.5l36.5,44.5l338.3,266l38.7,34l24,26.5l4.5,42l-20,38L498,769.9l-46.5,3l-42-12l-49-35.5l-43.5-42l-37.5-35.5
	l-16.9-15.6l-24.4-10.8l-49.5-4.1L147,642l-25.8,43.2l-10.6,52.4l5.1,52.3l22.1,42l36.7,31.9l46,22.4l51.8,14.8l54.3,8.8l54,4.1
	l52,0.4l55.7-1.4l55.7-2.5l55.5-4.2l52.2-5.1l53.8-7.2l54-11.5l50.1-17.8l35.7-42.2L856.8,768.6L856.8,768.6z"/>

<g id="layout">
	<polygon class="st3" points="891.1,742.2 890.7,739.9 890.5,737.6 895.3,737 900.1,736.3 900.5,738.6 900.7,740.9 895.9,741.5 	"/>
	<polygon class="st3" points="910.4,739.5 910.1,737.2 909.8,734.9 914.7,734.2 919.4,733.6 919.7,735.9 920,738.1 915.2,738.8 	"/>
	<polygon class="st3" points="929.7,736.8 929.5,734.5 929,732.2 934,731.5 938.8,730.8 939.1,733.1 939.4,735.4 934.4,736.1 	"/>
	<polygon class="st3" points="813.2,753.4 812.9,751.1 812.6,748.8 817.4,748.1 822.2,747.4 822.6,749.7 822.8,752 818,752.7 	"/>
	<polygon class="st3" points="832.5,750.6 832.2,748.4 831.9,746.1 836.8,745.4 841.6,744.7 841.8,747 842.1,749.3 837.3,749.9 	"/>
	<polygon class="st3" points="851.8,747.9 851.6,745.6 851.2,743.3 856.1,742.7 861,742 861.2,744.3 861.5,746.5 856.6,747.2 	"/>
	<polygon class="st3" points="871.1,745.2 870.9,742.9 870.6,740.6 875.3,739.9 880.2,739.3 880.5,741.5 880.7,743.8 876,744.5 	"/>

</g>

</svg>
