<?xml version="1.0" encoding="utf-8"?>
<!-- Generator: Adobe Illustrator 21.0.2, SVG Export Plug-In . SVG Version: 6.00 Build 0)  -->
<svg version="1.1" id="SCENE_1" xmlns="http://www.w3.org/2000/svg" xmlns:xlink="http://www.w3.org/1999/xlink" x="0px" y="0px"
	 viewBox="0 0 1024 1024" style="enable-background:new 0 0 1024 1024;" xml:space="preserve">
<style type="text/css">
	.st0{display:none;}
	.st1{fill:#64566D;}
	.st2{display:inline;}
	.st3{fill:none;stroke:#000000;stroke-miterlimit:10;}
</style>
<rect id="BACKGROUND_grass" y="0" class="st0" width="1024" height="1024"/>
<g id="OBSTACLES">
	<path d="M55.2,390.9c12-23.7,21.8-99,109.8-101s129.6,28.5,183.3,185.8c13.3,38.8-2.5,96.9,7.7,118.7
		c31.1,66.4,75.7,35.6,82.3,32.5c8.7-4,37.7-31,15.7-86s-75-167.9-99-193s-85.9-71-109-94s-76-162-104-173s-128,16-130,69
		s-8,415-5,435s95,181,109,153s-5-83-18-112S16.2,467.9,55.2,390.9z"/>
	<path d="M177.2,402.6c-5.5,0-7.8,2.2-9.3,4.4c-12,17.3-1,80,27.4,156.1c5.2,13.6,11.7,27.3,17.9,40.6c9.2,19.5,18.7,39.7,25,61.1
		c10,33.8,9.6,66.9,9.1,98.8c-0.1,10.4-0.3,21.1-0.1,31.8c0.1,2.9,0.1,6.2,0.1,9.6c0.2,23.4,0.4,58.9,13.7,73
		c14.1,15.1,50.5,15.8,77,16.4c5.7,0.1,11.1,0.2,15.9,0.5c2.3,0.1,4.6,0.2,6.8,0.2c52.6,0,73.9-32.8,100.8-74.3
		c8.1-12.5,16.4-25.4,26.2-38.1c46.8-61.4,112-66.5,186.2-66.7h0.5c30.1,0,50.9,5.9,72.9,12c11.5,3.2,23.3,6.6,37,9.2
		c5.3,1,11.2,2.9,17.6,5c8.9,2.9,19.1,6.1,25.9,6.1c2.7,0,3.8-0.5,4-0.7c0,0,1.1-1.2,0.8-5.9c-0.6-13.3-13.1-27.8-36.9-43.1
		c-22.5-14.5-51.6-27.2-74.9-37.5c-16-7-29.8-13.1-38.9-18.5c-47.5-28-76.9-63.8-82.7-100.9c-4.5-28.7,5.1-56.4,28.3-82.4
		c40.4-45.1,81.4-48.8,125-52.8c17.5-1.6,35.6-3.2,54.8-7.6c25.3-5.7,39.6-19.6,44.9-43.8c5-22.9,1.5-51-1.8-78.2
		c-0.7-6-1.4-11.7-2.1-17.3c-0.4-3.3-0.7-8.2-1-14.5c-1-16.2-2.5-40.6-6.6-60.7c-4.8-23.4-10.9-29.5-13.4-29.5l-0.1,0
		c-5.1,0.2-12.6,9.7-18.1,35.8c-4.9,23.1-6.7,50.4-7.9,68.6c-0.4,6.4-0.8,11.4-1.1,14.8c-4.4,39.9-23.7,74.1-56,99
		c-30.1,23.2-69.4,36-110.6,36c-7.1,0-14.3-0.4-21.4-1.1c-81.4-8.6-120.6-72.3-145.5-126.8c-14.8-32.2-25.5-57.6-29.1-90.7
		c-2.2-19.8-20.2-42-41-42c-6.8,0-13.5,2.4-19.9,7.1c-10.8,8-16.4,16.7-17.2,26.6c-2,27.2,31.9,61.3,56.7,86.1
		c10.6,10.6,19.7,19.8,25.6,27.7c50.3,67.2,110.9,155.6,133.3,242.7c12.9,50.2,7.7,95.9-14.8,132.3c-22.5,36.3-61.1,61.1-111.5,71.9
		c-18.6,4-36.5,6-53.1,6c-84.2,0-137.6-50.6-150.4-142.6c-1.5-10.6-2.8-21.3-4-31.7c-3.6-30.4-7-59.2-15.5-87.7
		c-0.5-1.7-1.1-3.7-1.7-6c-3.2-11.2-8.6-29.9-15.2-46.2c-10.2-25.2-16.9-28.8-18.1-29.3C185.3,403.6,180.9,402.6,177.2,402.6z"/>
</g>
<g id="ROAD">
	<path id="TRACK_asphalt" class="st1" d="M386.9,1001.9c-68.6,0-165.4-0.2-210.3-60.3c-53.9-72.1-18.7-160.9-38.1-240.1
		c-15.7-64.4-56.4-122.6-74.9-186.7c-25.7-89,5.8-215,118.3-216.7C281.7,296.5,319,412.4,336,493.3c11.8,56-10.9,151.7,65.5,148.6
		c128.7-5.3,54.9-132.8,20.6-202.5c-23.4-47.6-50.4-94.9-91.4-129.6c-34.1-28.9-79.4-54.1-101.5-94.8
		C133.3,37.8,452.3-32.8,541.2,99c19.7,29.2,27.7,52.3,29.8,87.9c1.2,20.5,3.2,71.8,15.7,93.4c16.9,29.1,89.5,44,113.1,16.7
		c18.7-21.7,9.8-62.2,9.9-88.8c0.3-83.5,54-193.8,156.6-150.6c71.6,30.2,78.4,110.9,85.9,178c8.5,76.6,23.7,168.6-38.5,227.5
		c-27.9,26.5-65.1,37.5-102.4,42.4c-30.9,4-91.4-6.3-114.6,18.3c-48.3,51.1,102,74.2,130.9,86c88,35.7,173.8,174.7,54.9,235.9
		c-57.5,29.6-98.4-5.9-146.3-32.6c-35.8-19.9-77.8-11.2-116.2,2.6C521.5,850.9,514.7,1001.9,386.9,1001.9z M186,566.6
		c13,34.1,32.3,65.9,42.6,101c12.7,42.9,7.8,84.2,8.6,128c0.5,24.8-1.6,70,16.5,89.3c20.4,21.8,71.5,18.6,99.7,20
		c81.2,4.1,98.7-59.1,142.2-116.2c44.1-57.9,106.4-62.6,178.2-62.8c44.6-0.1,68.2,13.4,108.5,21c20.6,3.9,61.7,26.4,60.1-5.8
		c-2.5-50.7-120.4-86.5-155.6-107.2c-67.5-39.7-108.9-104.4-52-168c53.2-59.4,106.1-41.9,174.5-57.2c72.4-16.3,55.1-92.3,48.8-150.2
		c-2.2-20.1-2.7-114.8-31.5-113.7c-33.1,1.3-34.3,106.2-36.8,128.1c-9.3,84.3-90.6,134.1-177,124.9c-69.2-7.3-107.9-56.5-137.5-121
		c-15.1-32.9-24.9-56.9-28.3-87.6c-3.7-33.5-41.8-67.7-76.8-41.8c-65.2,48.3,37.5,120.3,63.1,154.5c52.1,69.6,110,155.1,131.6,239.2
		c24.6,95.9-20.6,171-118.8,191.9c-107,22.8-176.8-22.5-191.5-128.2c-5.7-40.6-8.1-81.2-19.8-120.8c-5.3-18.1-21.6-80.7-41.1-88
		C113.2,366.2,175.3,537.9,186,566.6z M535.5,225.6L535.5,225.6L535.5,225.6z"/>
	<path id="START" class="st0" d="M160,596.6c4.5,2.3,4.5,4.5,0,6.8C155.5,601.1,155.5,598.9,160,596.6z"/>
</g>
<g id="layout" class="st0">
	<path id="stripes" class="st2" d="M386.9,1003.9h-3.5c-5.5-0.1-11.3-0.3-17.4-0.6h-0.5c-2.7-0.1-5.5-0.2-8.5-0.4
		c-11.5-0.4-21-0.9-29.7-1.6c-10.4-0.7-19.8-1.6-28.7-2.8c-9.2-1.1-18.7-2.6-29-4.5c-10.3-2-20.2-4.2-30.4-6.8
		c-13.3-3.3-25.8-9.2-37.2-17.4c-10.3-7.5-19.3-16.5-26.9-26.9c-7-9.5-12.8-20.1-17.4-31.4c-4.3-10.3-7.5-21.6-9.7-33.5
		c-3-16-5.1-30.9-6.5-45.6c-1.2-12.1-1.8-24-1.9-36.5c-0.1-10.7,0.3-20.2,0.7-28.9l0.3-5.5c0.3-6.1,0.5-11.8,0.6-17.5
		c0.2-13.3-0.7-24.9-2.8-35.3c-1.8-9.2-4.5-17.6-8.5-27.4c-3.3-8.1-7.2-16.4-11.8-26l-0.4-0.8c-0.5-1.1-1-2.1-1.5-3.2
		c-0.5-1.1-1-2.1-1.5-3.2c-6-12.7-13.1-28.2-20.1-46.5c-3.2-8.5-6.7-17-10.4-26l-2.1-5.3c-4.4-10.8-9.2-22.4-13.6-34.7
		c-5.1-14.2-8.9-26.9-11.7-38.8c-3.4-14.8-5.4-29-6.1-43.6c-0.6-16.5,1.3-33.3,5.7-49.8c4.5-16.7,11.2-32.3,20.1-46.3
		c9.9-15.6,22-28.6,36.1-38.6c16.2-11.6,34.2-18.7,53.6-21.2c10.9-1.4,21.3-1.6,30.9-0.7c11.4,1,22.1,3.5,31.8,7.3
		c11,4.2,21.1,10.2,30.2,17.8c9.2,7.8,17.1,17.3,23.4,28.3c5.4,9.4,12.4,22,19.3,35.9c7.3,14.9,13.4,29.2,18.6,43.6
		c6,16.5,11.1,33.8,15.6,53c4.5,19.8,8.2,41.5,10.8,64.6c0.5,4.4,1,8.9,1.5,13.5c0.3,2.7,0.6,5.6,1,8.7l0.2,2.2
		c0.7,5.8,1.5,13.1,2.4,20.2c1,8.1,2,15,3.1,21.1c1.3,7.5,2.5,13.3,3.6,18.1c0.1,0.1,0.1,0.2,0.2,0.3c0.1,0.2,0.4,0.7,1.3,1.4
		c0.8,0.8,2,1.7,3.5,2.7c1.4,0.9,3,1.6,4.6,2.2c1.9,0.7,4.2,1.3,7,1.8c2.5,0.4,5.4,0.8,9,1c3.3,0.2,6.9,0.2,11,0
		c3.7-0.2,7.8-0.5,12.6-0.9c8.6-0.9,16.9-2.2,24.5-4.1c7.9-1.9,14.8-4.3,20.6-7.1c5.4-2.5,9.9-5.4,13.4-8.5c2.9-2.6,4.9-5.3,6.4-8.4
		c1.1-2.3,1.9-5.2,2.4-8.7c0.5-3.8,0.5-8.4,0-13.5c-0.6-5.4-1.7-11.4-3.4-18.1c-1.6-6.1-3.6-12.8-6.3-21
		c-4.3-12.8-8.8-25.3-13.4-37.3c-4.7-12.3-9.8-24.7-15.1-36.6c-5.4-12.3-11-24.4-16.7-35.9c-5.7-11.6-11.8-23.4-18.3-35.1
		c-8.6-15.7-17.5-30.2-26.4-42.9c-9.7-13.8-19.8-26.1-30.1-36.4c-10.4-10.5-21.3-19.1-32.4-25.7c-11-6.5-22.2-10.8-34.1-13.1
		c-2.4-0.4-5-0.8-7.5-1.2l-12-1.7c-5.8-0.9-10.1-1.7-13.9-2.6c-5.7-1.3-11.1-2.9-16.2-4.9c-6.7-2.5-13-5.6-18.7-9.2
		c-6.2-3.8-12.1-8.5-17.4-13.9c-6-6-11-12.8-14.9-20.2c-4.5-8.6-7.4-17.8-8.5-27.2c-1-8.1-0.7-16.2,0.8-24c1.2-6.4,3.2-13,6-19.5
		c2.3-5,5-10.1,8.1-15.1c2.5-3.8,5.2-7.6,8.5-11.8c13.4-16.6,29.4-31,47.6-43c16.3-10.8,34.6-19.9,54.5-27.1
		c17.4-6.4,36.4-11.5,56.5-15.2c17.5-3.3,36.2-5.6,55.5-7c11.1-0.8,22.6-1.4,34.2-1.8c11.3-0.3,22.8-0.4,34.3-0.3
		c11.5,0.2,23,0.6,34.2,1.2c9.7,0.5,20.3,1.4,34.2,2.7c2.4,0.2,7.2,0.7,12.5,1.5c4.6,0.6,9,1.4,14.4,2.6c6,1.4,11.3,2.9,16.3,4.8
		c6.2,2.3,12.1,5,17.4,8.1c6.8,4,12.8,8.5,18,13.5c5.6,5.3,10.5,11.3,14.6,18c4.4,7.1,7.8,14.9,10,23.3c2.4,9.3,3.1,18.9,2,28.5
		c-1.5,13.1-6.2,25.2-13.7,36.2c-6,8.6-13.7,16.2-23.1,22.7c-6.9,4.8-15,9-24.1,12.6c-7.3,2.8-15.1,5.1-23.2,6.7
		c-2.4,0.5-4.8,0.9-7,1.3c-1.5,0.3-2.9,0.5-4.4,0.8c-0.8,0.2-1.6,0.3-2.4,0.4c-0.8,0.1-1.5,0.2-2.2,0.4c-3,0.5-7.3,1.3-10.9,2.3
		c-0.4,0.1-0.8,0.2-1.2,0.3c0,0.1,0,0.1,0,0.2c0.3,1.3,0.6,2.4,1.1,3.5c0.7,1.6,1.8,3.3,3.4,5.6c1.4,2,3.3,4.2,5.9,7
		c2.4,2.6,5.3,5.2,8.6,8.1c3.2,2.7,6.5,5.5,9.2,7.8l1.5,1.3c7.8,6.4,14.4,11.4,20.6,15.9c7.3,5.3,13.9,9.6,20,13.3
		c6.3,3.8,12.6,7,19.3,9.9c6.3,2.7,12.5,4.7,18.4,6.1c5.3,1.2,10.9,1.8,16.8,1.8c5.7-0.1,11.1-0.8,16-2.1c4.6-1.3,8.8-3,12.3-5.2
		c2.9-1.8,5.5-4,7.6-6.7c1.8-2.4,3.3-5,4.4-7.8c1.4-3.3,2.6-7.3,3.5-11.7c0.9-4.2,1.5-9.3,2-15.6c0.4-5.2,0.5-11,0.4-18.4
		c0-2.5-0.1-5-0.2-7.6c-0.1-2.8-0.2-5.7-0.2-8.7l-0.3-9.4c-0.2-6.6-0.4-13.5-0.3-20.6c0.1-9.2,0.6-18.1,1.6-27.4
		c1.2-10.3,3.1-20.1,6-29.8c3.2-11.2,7.9-22,13.9-32.2c6.1-10.4,13.6-20,22.1-28.3c9.6-9.3,20.2-16.7,31.7-22
		c13.2-6.2,27.1-9.4,41.3-9.6c11.9-0.2,23.9,1.8,35.5,5.8c10.2,3.6,20,8.7,29.2,15.4c8.2,6,15.8,13.1,22.7,21.1
		c6.3,7.4,12,15.8,16.7,25c3.9,7.5,7.3,15.8,10.3,24.7c2.4,7.4,4.4,15.1,6.2,23.6c1.3,5.9,2.3,12.5,3.6,21.9
		c0.8,5.5,1.4,11,2.1,16.8l0.4,3.1l8.2,74.8c1.2,10.2,2.8,25.8,3.3,42.6c0.6,17.2,0,32.6-1.8,46.9c-2.3,18.2-6.7,34.9-13,49.5
		c-7.8,17.9-18.7,33.6-32.4,46.6c-8.6,8.1-18.4,15.2-29.3,21.2c-9.4,5.1-19.8,9.5-30.7,12.9c-9.8,3-19.9,5.3-30,7
		c-9.5,1.5-18.7,2.6-28.2,3.2c-7.7,0.5-15.9,1-25.1,1.3h-0.2c-7.8,0.3-14.9,0.6-22.1,1.1c-7.3,0.5-13.7,1.2-19.1,2.1
		c-5.9,0.9-11.2,2.1-15.9,3.5c-4.2,1.3-8.2,3-12,5.1c-3.6,2-6.8,4.3-9.5,6.8c-2.2,2.1-4,4.3-5,6.2c-0.8,1.5-1.3,2.8-1.5,4
		c-0.1,0.7-0.1,1.9,0.1,3.1c0.3,1.8,0.8,3.5,1.5,5.1s1.9,4,3.6,6.2c1.5,2.2,3.3,4.2,5.4,6c2.2,2,4.8,4.1,7.8,6.1
		c2.8,1.9,6.1,3.8,10,5.8c3.4,1.8,7.5,3.5,12.2,5.3c4.3,1.7,8.9,3.3,14,4.9c6.4,2,13.6,4.1,22,6.4l8.7,2.4c1.8,0.5,3.6,1,5.4,1.5
		c3.4,0.9,6.9,1.9,10.3,2.8c11.9,3.4,19.5,5.7,26.3,8c10.3,3.5,19.4,7,27.8,10.9c9.9,4.4,19.5,9.7,28.8,15.7
		c9.6,6.3,18.7,13.5,27,21.3c9,8.7,16.8,18.2,23.2,28.1c7.2,11.3,12.6,23.3,16.1,35.4c4,13.8,5.3,28.3,4,43.2
		c-1.3,14.3-5,28.1-11,40.8c-6.5,13.8-15.3,25.7-26.1,35.5c-12.4,11.2-26.8,18.9-42.8,22.8c-15.4,3.7-31.2,3.9-47,0.5
		c-12.3-2.6-24.5-7.3-37.1-14.1c-8.6-4.6-17.6-10.3-28.2-18c-4.7-3.4-9.1-6.7-13.5-10l-0.1-0.1c-2.7-2.1-5.4-4-8-6l-0.5-0.4
		c-3.5-2.6-6.9-4.2-10.8-5.4c-3.9-1.1-8.6-1.6-14.3-1.5c-6.2,0.1-13.5,0.9-22.2,2.6c-7.8,1.4-16.1,3.3-24.9,5.2l-4.5,1
		c-12.7,2.9-21.7,5.2-29.2,7.5c-8.5,2.6-15.5,5.3-21.6,8.4c-5.7,2.8-10.6,6.1-15,10c-4.6,4.1-8.6,8.9-12.1,14.6
		c-3.9,6.1-7.6,12.3-11.1,18l-7.5,12.3c-5.1,8.2-12.8,20.5-21.4,32.7c-8.9,12.5-17.6,23.2-26.7,32.9c-11,11.7-22.4,21.5-34.8,30
		c-10.7,7.3-19.7,12.5-28.4,16.6c-10.1,4.7-20.1,7.8-30.4,9.6h-0.1C405,1003.2,397,1003.9,386.9,1003.9z M185.3,300
		c-6,0-12.2,0.4-18.7,1.2c-18.7,2.4-36.2,9.2-51.8,20.4c-13.7,9.8-25.5,22.4-35.1,37.5C71,372.7,64.4,387.9,60,404.2
		c-4.3,16.2-6.1,32.5-5.5,48.6c0.6,14.3,2.6,28.3,5.9,42.8c2.8,11.8,6.5,24.4,11.5,38.4c4.4,12.2,9.1,23.8,13.6,34.5l2.1,5.3
		c3.7,9,7.2,17.5,10.5,26.1c7,18.2,14,33.6,19.9,46.3c0.5,1,1,2.1,1.5,3.2c0.5,1.1,1,2.1,1.5,3.2l0.4,0.8c4.6,9.6,8.5,18,11.9,26.2
		c4.1,10,6.8,18.7,8.7,28.2c2.1,10.7,3,22.5,2.8,36.1c-0.1,5.7-0.4,11.5-0.6,17.6l-0.3,5.5c-0.4,8.6-0.8,18-0.7,28.7
		c0.1,12.3,0.7,24.1,1.9,36.1c1.4,14.5,3.5,29.3,6.5,45.2c2.1,11.6,5.3,22.6,9.5,32.7c4.5,11,10.2,21.3,17,30.6
		c7.4,10.1,16.1,18.8,26.1,26.1c11,7.9,23,13.6,35.8,16.8c10.1,2.6,20,4.8,30.2,6.8c10.2,1.9,19.6,3.4,28.8,4.5
		c8.9,1.2,18.2,2.1,28.5,2.8c8.7,0.7,18.1,1.2,29.6,1.6c3,0.2,5.8,0.3,8.5,0.4h0.5c6.1,0.3,11.9,0.5,17.3,0.6h3.5
		c9.9,0,17.7-0.7,24-1.4c9.9-1.7,19.5-4.7,29.3-9.2c8.5-3.9,17.3-9.1,27.8-16.2c12.2-8.3,23.3-17.9,34.2-29.4
		c9-9.6,17.6-20.2,26.3-32.5c8.5-12.1,16.2-24.3,21.2-32.5l7.5-12.3c3.4-5.7,7.2-11.9,11.1-18c3.8-6,8-11.1,12.9-15.4
		c4.7-4.1,9.8-7.6,15.8-10.6c6.2-3.2,13.5-6,22.2-8.6c7.6-2.3,16.7-4.7,29.5-7.5l4.5-1c8.8-1.9,17.1-3.8,25-5.2
		c8.9-1.7,16.4-2.5,22.8-2.6c6.1-0.1,11.2,0.4,15.5,1.7c4.4,1.2,8.2,3.2,12.1,6l0.5,0.4c2.6,2,5.3,4,8,6c4.4,3.3,8.8,6.6,13.5,10
		c10.5,7.6,19.3,13.2,27.8,17.8c12.3,6.7,24.1,11.1,36.1,13.7c15.2,3.2,30.4,3.1,45.2-0.5c15.3-3.7,29.1-11.1,41-21.8
		c10.4-9.4,18.9-21,25.1-34.3c5.8-12.3,9.3-25.6,10.6-39.4c1.3-14.4,0-28.4-3.8-41.8c-3.4-11.8-8.7-23.4-15.7-34.4
		c-6.2-9.6-13.8-18.8-22.6-27.3c-8.1-7.7-17-14.7-26.4-20.9c-9-5.9-18.5-11.1-28.2-15.5c-8.3-3.8-17.2-7.3-27.4-10.7
		c-6.7-2.3-14.3-4.6-26.1-8c-3.5-1-6.9-1.9-10.3-2.8c-1.8-0.5-3.6-1-5.4-1.5l-8.7-2.4c-8.4-2.3-15.7-4.4-22.2-6.4
		c-5.2-1.6-9.9-3.2-14.2-4.9c-4.8-1.8-9-3.7-12.6-5.5c-4-2-7.5-4.1-10.4-6c-3.1-2.2-5.9-4.3-8.2-6.5c-2.3-2.1-4.3-4.3-5.9-6.6
		c-1.8-2.4-3.2-5.1-4-6.9c-0.9-1.9-1.5-3.9-1.8-6.1c-0.3-1.7-0.2-3.2-0.1-4.2c0.2-1.8,0.9-3.6,1.9-5.5c1.2-2.3,3.2-4.7,5.8-7.2
		c3-2.8,6.5-5.3,10.3-7.4c4-2.3,8.4-4.1,12.8-5.5c4.9-1.5,10.4-2.8,16.5-3.7c5.5-0.9,12.1-1.6,19.5-2.1c7.2-0.5,14.3-0.8,22.3-1.1
		h0.2c9-0.3,17.2-0.8,24.9-1.3c9.3-0.6,18.4-1.7,27.8-3.2c9.9-1.6,19.8-3.9,29.4-6.8c10.7-3.3,20.7-7.5,29.9-12.5
		c10.6-5.8,20.2-12.8,28.5-20.6c13.3-12.6,23.9-27.8,31.4-45.2c6.2-14.3,10.5-30.6,12.8-48.5c1.8-14.1,2.4-29.3,1.8-46.3
		c-0.5-16.6-2.1-32.1-3.3-42.2l-8.2-74.8l-0.4-3.1c-0.7-5.8-1.3-11.2-2-16.8c-1.3-9.4-2.3-15.8-3.6-21.7c-1.7-8.4-3.7-16-6-23.2
		c-2.9-8.6-6.3-16.8-10.1-24.1c-4.6-8.9-10.1-17-16.2-24.2c-6.6-7.8-14-14.7-22-20.5c-8.8-6.4-18.3-11.4-28.2-14.8
		c-11.1-3.9-22.6-5.8-34.1-5.6c-13.6,0.2-27,3.3-39.7,9.2c-11,5.1-21.3,12.2-30.6,21.2c-8.3,8.1-15.5,17.3-21.5,27.5
		c-5.8,9.9-10.4,20.4-13.5,31.2c-2.8,9.6-4.7,19.1-5.8,29.2c-1,9.1-1.5,18-1.6,27c-0.1,7,0.1,13.8,0.3,20.4l0.1,4l0.2,5.4
		c0.1,3,0.1,5.9,0.2,8.7c0.1,2.6,0.1,5.1,0.2,7.6c0.1,7.5,0,13.5-0.4,18.8c-0.5,6.6-1.1,11.8-2,16.2c-0.9,4.7-2.2,8.9-3.7,12.5
		c-1.3,3.1-2.9,6-4.9,8.7c-2.4,3.1-5.3,5.7-8.7,7.7c-3.8,2.4-8.3,4.3-13.3,5.6c-5.2,1.4-10.9,2.2-17,2.3c-6.2,0-12.2-0.7-17.8-2
		c-6.1-1.4-12.5-3.5-19-6.3c-6.9-2.9-13.3-6.3-19.8-10.1c-6.3-3.7-12.9-8.1-20.3-13.5c-6.3-4.5-12.9-9.6-20.8-16.1l-1.5-1.3
		c-2.7-2.3-6.1-5.1-9.3-7.9c-3.4-3-6.4-5.7-8.9-8.4c-2.8-2.9-4.8-5.2-6.3-7.4c-1.7-2.4-2.9-4.4-3.8-6.3c-0.6-1.4-1-2.8-1.3-4.3v-0.1
		c-0.1-0.8-0.2-1.5-0.2-2.3v-1.5l1.5-0.4c0.2-0.1,0.4-0.1,0.7-0.2c0.6-0.2,1.3-0.4,2.2-0.6c3.7-1,8.1-1.8,11.1-2.3
		c0.7-0.1,1.5-0.3,2.3-0.4c0.8-0.1,1.5-0.2,2.2-0.4c1.5-0.3,3-0.5,4.4-0.8c2.3-0.4,4.6-0.8,6.9-1.3c7.9-1.6,15.5-3.8,22.6-6.5
		c8.8-3.5,16.7-7.5,23.3-12.2c9-6.2,16.4-13.5,22.1-21.7c7.2-10.4,11.6-22,13.1-34.4c1.1-9,0.5-18.1-1.8-27
		c-2.1-8-5.3-15.5-9.6-22.2c-3.9-6.4-8.6-12.2-14-17.2c-5-4.8-10.8-9.1-17.2-12.9c-5.2-3-10.8-5.7-16.8-7.8
		c-4.8-1.8-10-3.3-15.8-4.6c-5.3-1.2-9.6-2-14.1-2.6c-5.3-0.8-10-1.3-12.3-1.5c-13.9-1.4-24.4-2.2-34-2.7c-11.2-0.6-22.6-1-34-1.2
		c-11.4-0.1-22.9,0-34.1,0.3c-11.5,0.4-22.9,1-34,1.8c-19.2,1.4-37.7,3.7-55.1,7c-19.9,3.7-38.7,8.7-55.9,15
		c-19.6,7.1-37.6,16.1-53.7,26.7c-17.8,11.7-33.5,25.9-46.6,42.2c-3.3,4.1-5.9,7.7-8.3,11.4c-3,4.8-5.7,9.7-7.9,14.5
		c-2.7,6.2-4.6,12.5-5.8,18.6c-1.4,7.4-1.7,15.1-0.8,22.8c1.1,8.9,3.8,17.6,8.1,25.8c3.7,7,8.4,13.5,14.1,19.2
		c5.1,5.1,10.8,9.6,16.7,13.3c5.4,3.4,11.5,6.4,17.9,8.8c5,1.9,10.2,3.5,15.7,4.7c3.7,0.9,7.9,1.7,13.6,2.6l12,1.7
		c2.5,0.4,5.2,0.7,7.6,1.2c12.3,2.4,23.9,6.8,35.3,13.5s22.6,15.6,33.2,26.3c10.4,10.5,20.7,23,30.5,37c9,12.9,17.9,27.4,26.6,43.3
		c6.5,11.8,12.6,23.7,18.3,35.3c5.7,11.6,11.3,23.7,16.7,36.1c5.3,12,10.4,24.4,15.1,36.8c4.6,12,9.1,24.6,13.4,37.5
		c2.7,8.2,4.7,15,6.3,21.2c1.7,6.9,2.8,13,3.5,18.7c0.5,5.5,0.5,10.3,0,14.5c-0.6,4-1.5,7.2-2.8,9.9c-1.7,3.6-4.1,6.7-7.4,9.6
		c-3.8,3.4-8.7,6.5-14.4,9.1c-6,2.9-13.2,5.4-21.4,7.3c-7.8,1.8-16.2,3.2-25.1,4.1c-4.9,0.4-9.1,0.7-12.8,0.9
		c-4.2,0.2-7.9,0.2-11.4,0c-3.8-0.2-6.9-0.6-9.5-1c-3.1-0.6-5.6-1.2-7.6-2c-1.9-0.7-3.7-1.5-5.4-2.6c-1.8-1.2-3.2-2.2-4.2-3.2
		c-1-0.9-1.8-1.8-2.2-2.6l-0.1-0.1l-0.2-0.2l-0.1-0.5c-1.2-5-2.4-10.9-3.7-18.6c-1.1-6.1-2.1-13.1-3.1-21.3
		c-0.9-7.1-1.7-14.4-2.4-20.2l-0.2-2.1c-0.4-3.1-0.7-6-1-8.7c-0.5-4.6-1-9.1-1.5-13.5c-2.6-23-6.3-44.6-10.8-64.2
		c-4.4-19-9.5-36.2-15.4-52.6c-5.1-14.3-11.2-28.4-18.4-43.2c-6.8-13.8-13.8-26.3-19.1-35.7c-6-10.6-13.6-19.8-22.5-27.3
		c-8.7-7.3-18.5-13.1-29-17.2c-9.4-3.7-19.8-6.1-30.8-7.1C193,300.2,189.2,300,185.3,300z M387,908.1c-0.8,0-1.6,0-2.4,0
		c-3-0.1-6.5-0.2-10.3-0.3l-4.3-0.2c-1.3,0-2.7-0.1-4.1-0.2c-1.7-0.1-3.5-0.2-5.3-0.2c-8.8-0.3-18.2-0.8-26.6-1.4
		c-7.5-0.5-15-1.3-23.6-2.3c-7.4-0.9-14.6-2.1-22.9-3.6c-8.1-1.5-16.2-3.4-24.7-5.5c-1.7-0.5-3.1-1.1-4.8-2.3
		c-1.9-1.4-3.9-3.4-5.7-5.9c-2.4-3.3-4.4-6.9-5.9-10.8c-1.9-4.6-3.3-9.5-4.2-14.6c-2.4-13.1-4.2-25.2-5.3-37.2
		c-0.8-8.8-1.3-17.9-1.4-27.9c0-8.9,0.3-17.2,0.6-24.1l0.2-4.1c0.5-8,0.7-14.8,0.8-21.6c0.3-20.2-1.2-38.4-4.7-55.5
		c-2.9-14.8-7.2-29.1-13.7-44.9c-4.7-11.5-9.8-22.4-14.2-31.6c-0.9-2.1-1.9-4.2-2.9-6.3c-5.6-11.9-11.5-24.7-17.4-40.2l0,0
		c-2.6-7-5.3-13.7-7.9-20.3c-1.1-2.7-2.1-5.3-3.1-7.9l-2.2-5.4c-4-9.8-8.1-19.8-11.7-29.9c-3.9-10.9-6.6-20-8.5-28
		c-2.2-9.2-3.3-17.6-3.6-25.5c-0.3-6.6,0.6-14.1,2.5-21.5c1.8-7,4.7-13.8,8.3-19.5c3.4-5.3,7.1-9.3,10.8-12c3.1-2.3,6.3-3.7,10-4.1
		c3.6-0.5,7.1-0.6,10-0.3c2.3,0.1,4.4,0.6,6,1.3c1.1,0.5,1.9,1,2.6,1.5c0.9,0.8,1.6,1.8,2.2,2.7c4.2,7.4,10.5,18.6,16.4,30.6
		c5.7,11.5,10.4,22.7,14.5,34c4.9,13.5,8.9,27.1,12.3,41.8c3.8,16.3,6.8,34.4,9,53.9c0.3,3.5,0.7,7,1.1,10.7l0.3,2.5
		c0.1,1.4,0.3,2.7,0.5,4.1c0.2,1.6,0.4,3.1,0.5,4.7c0.7,6.9,1.8,15.6,2.8,23.9c1.1,8.2,2.2,16.9,3.6,24.7c1.7,9.7,3.3,17.6,5,24.7
		c2.2,9.3,6,18.4,11.2,27.1c4.6,7.7,10.3,14.9,17,21.3c6.1,5.9,13,11.2,20.4,15.7c7.1,4.4,14.7,8,22.6,10.7
		c6.7,2.4,14.2,4.3,22.1,5.7c6.2,1.1,13.1,1.8,21.1,2.3c6.2,0.3,12.7,0.3,19.6,0c6-0.2,11.9-0.6,18.1-1.3
		c13.5-1.4,26.2-3.6,37.7-6.4c13.8-3.3,26.8-7.8,38.7-13.4c14.1-6.7,26.6-14.8,36.9-24.2c12.3-11.2,22.1-24.2,28.9-38.7
		c5.5-11.6,9.1-24.2,10.8-37.6c1.4-11.3,1.5-23.2,0.2-35.4c-1-10-2.9-20.4-5.7-31.7c-1.9-7.8-4.5-16.5-8.3-28
		c-5-14.7-10-28.6-14.9-41.3c-4.7-12.2-10.1-25.5-16.7-40.6c-5.2-12-11.2-25-18.5-39.8c-6.7-13.4-13.5-26.5-20.3-38.9
		c-10.4-19-20.8-36-32-51.9c-13.2-18.8-26.9-35.3-40.7-49C397.4,242.3,380,228.6,362,218c-21.3-12.5-33.8-18.4-55.6-22.6
		c-4.1-0.7-6.6-8-7.5-12.2c-0.7-3.3-1.7-11.2,3.1-14.3c8.7-5.8,12.9-7.3,22.2-10.7c1.4-0.5,2.9-1,4.5-1.7
		c12.3-4.5,26.2-8.3,41.3-11.1c13.6-2.6,28.7-4.5,45-5.7c9.1-0.7,19.2-1.3,30-1.6c10-0.3,20.1-0.4,30.1-0.3c4,0.1,7.3,2.4,8.1,5.7
		c0.8,3.4-0.2,10.3-15.9,18.9c-7.8,7.9-13.9,17.2-18.3,27.6c-3.9,9.1-6.3,19.1-7,29.5c-0.8,9.1-0.2,18.6,1.6,28.3
		c1.6,9,4.5,17.9,8.5,26.4c3.5,7.3,7.7,14.3,12.5,21c4.4,6.1,9,11.6,14.2,17c4.5,4.7,9.3,9.3,14.6,13.9c4.8,4.2,9.5,8,13.8,11.6
		c8.9,7.3,16.7,13.3,24.5,18.9c9.6,7,18.6,12.9,27.3,18.1c10.4,6.3,20.5,11.4,30.7,15.8c11,4.8,22.6,8.6,34.6,11.4
		c12.6,2.9,25.8,4.3,39.2,4.2c13.7-0.2,27.1-2,39.8-5.3c13.8-3.7,26.7-9.2,38.3-16.4c12.9-8,24-18,32.9-29.5
		c6.8-8.7,12.5-18.6,17-29.4c3.8-9.2,6.9-19.2,9.1-29.8c1.8-8.6,3-17.9,3.8-28.4c0.6-8.2,0.8-16.8,0.6-26.3
		c-0.1-6.1-0.3-12.2-0.5-18l-0.2-5.2c-0.2-7.3-0.4-13.9-0.3-20.4c0.1-6.9,0.4-12.6,1-17.4c0.6-5.2,1.5-9.9,2.8-14.3
		c0.9-3.3,2.3-6.7,4.4-10.3c1.6-2.9,3.7-5.6,6.2-8.1c1.6-1.6,3.5-3,5.2-3.9c0.6-0.3,1.6-0.7,2.5-0.7c0.7,0,1.3,0.2,1.8,0.3l0.4,0.1
		c1.5,0.6,3,1.4,4.5,2.5c1.9,1.4,3.8,3.2,5.7,5.3c1.7,1.9,3.2,4.3,4.8,7.2c1.7,3.3,3.2,6.7,4.3,10.5c1.3,4,2.4,8.3,3.4,13
		c0.9,4.3,1.7,9.2,2.5,15.4c0.8,5.5,1.4,11,2.1,17.7l8.2,74.8c1,8.7,2.3,22,2.8,35.4c0.4,11.8,0,22-1.1,31.4
		c-1.1,8.9-3.1,16.8-5.9,23.4c-2.6,6.1-5.9,10.9-10.2,15c-2.8,2.5-5.8,4.7-9.3,6.6c-3.9,2.1-8.3,3.9-13.2,5.5
		c-5.3,1.6-11,2.9-17,3.9c-5.6,1-12,1.7-19.5,2.2c-6.9,0.5-14.1,0.8-21.2,1.1h-1.3c-2.1,0.1-4.4,0.2-6.6,0.3c-5.9,0.3-12,0.5-18.2,1
		c-9.9,0.7-18.9,1.7-27.3,3c-10.5,1.7-20.1,3.9-29.3,6.6c-10.6,3.2-21.1,7.7-31.1,13.3c-10.6,6-20.1,13-28.2,20.7
		c-9.3,8.8-17,18.6-22.9,29.2c-6.7,12-11,24.8-12.8,38.1c-1.4,10.1-1.2,20.5,0.5,31c1.6,9.5,4.3,18.9,8.3,28
		c3.6,8.3,8.2,16.5,13.8,24.2c5.3,7.4,11.4,14.2,18,20.4c6.2,5.7,12.8,10.9,19.8,15.5c6.2,4.1,13.1,8,20.5,11.8
		c6,3,12.5,5.9,20.3,8.9c5.3,2.1,11.4,4.2,19.7,6.9c8.7,2.7,17,5,24.3,7.1l1.4,0.4l9,2.4c5,1.3,9.9,2.6,14.8,4
		c8,2.2,14.8,4.3,21.5,6.5c6.9,2.4,13.1,4.8,18.9,7.4c5.3,2.4,10.6,5.3,15.8,8.6c4.9,3.2,9.3,6.6,13,10.2c3.8,3.7,6.7,7.2,8.9,10.7
		c2.1,3.3,3.7,6.7,4.7,10.2c0.6,2.5,0.8,5.2,0.6,7.9c-0.4,3.3-1.2,6.2-2.4,8.8c-1.5,3.3-3,4.7-3.5,5l-0.2,0.1
		c-0.2,0.2-0.6,0.5-1.2,0.6c-1.1,0.2-2.5,0.1-4.2-0.2c-2.1-0.4-5.8-1.6-11.5-4.6c-5-2.7-10.8-6.5-17.6-11.4c-3.1-2.2-6.2-4.6-9.4-7
		l-2.5-1.9c-3.1-2.4-6.3-4.7-9.3-7c-13-9.6-27.2-16.5-42.1-20.6c-13.3-3.6-27-5.2-41.8-4.9c-11.4,0.3-23.2,1.6-37.3,4.1
		c-8.3,1.5-16.5,3.3-24.5,5.1c-1.7,0.4-3.4,0.8-5.1,1.1l-3.6,0.8c-14.9,3.2-26.2,6.1-36.6,9.4c-14,4.3-26.1,9.1-36.9,14.6
		c-13.3,6.7-24.8,14.5-35.3,23.8c-11.2,10-21.2,21.8-29.6,35.2c-3.1,4.8-6.1,9.8-9,14.5c-0.9,1.5-1.9,3-2.8,4.5
		c-1.8,2.8-3.6,5.8-5.3,8.6c-0.7,1.1-1.3,2.2-2,3.2c-4.8,7.8-11.3,18-18.1,27.6c-6.2,8.8-12.2,16.2-18.2,22.5
		c-6.1,6.5-12.4,11.9-19.1,16.6c-6.1,4.1-10.9,7-14.7,8.8c-3,1.4-4.7,1.8-6,2C393.2,907.9,390.4,908.1,387,908.1z M187.9,565.9
		c5.9,15.3,11.7,28.1,17.2,39.9c1,2.1,2,4.2,2.9,6.4c4.4,9.1,9.5,20.1,14.2,31.7c6.6,16.1,11,30.6,13.9,45.7
		c3.5,17.4,5,35.8,4.7,56.3c-0.1,6.9-0.3,13.8-0.8,21.8l-0.2,4.1c-0.3,6.9-0.6,15.1-0.6,23.9c0.1,9.9,0.6,18.9,1.4,27.5
		c1.1,11.8,2.9,23.8,5.3,36.8c0.9,4.8,2.2,9.5,4,13.8c1.4,3.6,3.3,7,5.5,10c1.6,2.2,3.3,3.9,4.9,5.1c1.2,0.9,2.2,1.4,3.4,1.7
		c8.4,2.2,16.4,3.9,24.5,5.5c8.2,1.5,15.4,2.6,22.7,3.6c8.5,1,16,1.8,23.4,2.3c8.4,0.6,17.6,1.1,26.4,1.4c1.8,0.1,3.6,0.1,5.3,0.2
		c1.4,0.1,2.8,0.1,4.1,0.2l4.3,0.2c3.8,0.1,7.2,0.3,10.2,0.3c4.3,0.1,7.7-0.1,10-0.5c1.1-0.2,2.5-0.5,5-1.6
		c3.6-1.7,8.2-4.4,14.1-8.4c6.5-4.5,12.5-9.7,18.5-16c5.9-6.2,11.7-13.4,17.8-22.1c6.7-9.5,13.1-19.6,17.9-27.4
		c0.7-1.1,1.3-2.1,2-3.2c1.7-2.8,3.5-5.8,5.3-8.6c0.9-1.5,1.8-3,2.7-4.5c2.9-4.8,5.9-9.7,9.1-14.6c8.6-13.7,18.8-25.8,30.4-36
		c10.7-9.5,22.6-17.5,36.1-24.4c11-5.6,23.3-10.5,37.5-14.8c10.6-3.3,22-6.2,37-9.4l3.6-0.8c1.7-0.4,3.4-0.7,5.1-1.1
		c8-1.8,16.3-3.6,24.7-5.1c14.3-2.5,26.3-3.8,37.9-4.1c15.2-0.3,29.3,1.4,43,5.1c15.4,4.2,30,11.4,43.5,21.2c3.1,2.3,6.2,4.6,9.3,7
		l2.5,1.9c3.2,2.4,6.3,4.8,9.3,7c6.7,4.9,12.3,8.5,17.2,11.2c5.2,2.8,8.5,3.8,10.3,4.2c1.2,0.2,1.9,0.3,2.3,0.2l0,0
		c0.4-0.3,1.3-1.4,2.3-3.5c1.1-2.2,1.7-4.7,2-7.5c0.2-2.3,0-4.5-0.5-6.5c-0.9-3-2.3-6.1-4.2-9.1c-2-3.3-4.8-6.5-8.3-10
		c-3.6-3.5-7.7-6.7-12.4-9.8c-5-3.2-10.1-6-15.2-8.4c-5.7-2.5-11.8-4.9-18.5-7.2c-6.6-2.2-13.4-4.3-21.3-6.5c-5-1.4-9.8-2.7-14.8-4
		l-10.4-2.8c-7.4-2.1-15.7-4.4-24.5-7.1c-8.4-2.7-14.5-4.8-19.9-6.9c-7.9-3.1-14.5-6-20.7-9.1c-7.6-3.8-14.6-7.9-20.9-12
		c-7.1-4.7-13.9-10.1-20.3-15.9c-6.9-6.4-13.1-13.4-18.6-21c-5.7-8-10.5-16.4-14.2-25c-4-9.4-6.9-19.2-8.5-29
		c-1.7-10.9-1.9-21.7-0.5-32.2c1.8-13.7,6.3-27,13.2-39.5c6.2-11,14.1-21.1,23.7-30.2c8.4-8,18.1-15.1,29-21.3
		c10.2-5.8,21-10.4,31.9-13.7c9.4-2.8,19.2-5,29.9-6.8c8.6-1.3,17.6-2.3,27.7-3c6.2-0.4,12.3-0.7,18.2-1c2.2-0.1,4.5-0.2,6.7-0.3
		h1.3c7-0.3,14.3-0.6,21.1-1c7.4-0.5,13.6-1.2,19.1-2.2c5.8-1,11.4-2.2,16.5-3.7c4.6-1.4,8.8-3.2,12.4-5.1c3.2-1.7,6-3.7,8.5-6
		c3.8-3.6,6.8-8.1,9.2-13.6c2.7-6.3,4.6-13.8,5.7-22.4c1.1-9.2,1.5-19.2,1.1-30.8c-0.5-13.4-1.8-26.5-2.8-35.1l-8.2-74.8
		c-0.7-6.6-1.3-12.1-2.1-17.5c-0.8-6.2-1.6-11-2.5-15.2c-1-4.6-2-8.7-3.2-12.6c-1.1-3.5-2.4-6.7-4.1-9.8c-1.4-2.7-2.9-4.8-4.4-6.5
		c-1.6-1.9-3.3-3.5-5-4.7c-1.2-0.9-2.3-1.5-3.4-1.9h-0.2c-0.2-0.1-0.6-0.2-0.7-0.2c0,0-0.3,0.1-0.7,0.3c-1.3,0.7-2.9,1.8-4.2,3.1
		c-2.2,2.2-4.1,4.7-5.6,7.3c-1.9,3.2-3.2,6.4-4,9.3c-1.2,4.2-2.1,8.7-2.6,13.7c-0.6,4.7-0.9,10.2-1,17c-0.1,6.4,0.1,12.9,0.3,20.2
		l0.2,5.2c0.2,5.8,0.4,11.9,0.5,18c0.2,9.6,0,18.4-0.6,26.7c-0.7,10.7-2,20.2-3.8,29c-2.2,10.9-5.4,21.2-9.3,30.6
		c-4.7,11.1-10.6,21.2-17.6,30.3c-9.2,11.9-20.6,22.2-33.9,30.5c-11.9,7.4-25.1,13.1-39.3,16.8c-13,3.4-26.7,5.3-40.8,5.5
		c-13.9,0.1-27.3-1.4-40.2-4.4c-12.2-2.8-24-6.7-35.2-11.6c-10.3-4.4-20.5-9.7-31.1-16c-8.8-5.2-17.8-11.2-27.5-18.3
		c-7.9-5.7-15.7-11.8-24.7-19.1c-4.4-3.6-9.1-7.4-13.9-11.6c-5.4-4.7-10.2-9.3-14.8-14.1c-5.3-5.5-10.1-11.2-14.6-17.4
		c-4.9-6.8-9.3-14.1-12.9-21.6c-4.2-8.9-7.2-18.1-8.9-27.4c-1.9-10-2.4-19.9-1.6-29.3c0.8-10.8,3.3-21.2,7.4-30.7
		c4.6-10.9,11.1-20.7,19.3-29l0.2-0.2l0.3-0.1c11.6-6.2,14.9-11.6,14.2-14.5c-0.4-1.8-2.5-2.7-4.3-2.7c-9.9-0.1-20,0-29.9,0.3
		c-10.7,0.3-20.7,0.9-29.8,1.6c-16.1,1.2-31.1,3.1-44.6,5.7c-14.9,2.8-28.6,6.5-40.7,10.9c-1.7,0.6-3.2,1.2-4.6,1.7
		c-9.2,3.3-13,4.7-21.3,10.2c-1.7,1.1-2.3,4.7-1.5,9.2c0.9,5.7,3.5,9.8,4.5,10.1c22.4,4.3,35.1,10.3,56.9,23
		c18.3,10.7,36,24.6,52.6,41.3c13.9,13.9,27.8,30.6,41.1,49.6c11.2,16,21.8,33.1,32.2,52.3c6.8,12.4,13.6,25.6,20.3,39.1
		c7.3,14.9,13.3,28,18.5,40c6.6,15.2,12.1,28.5,16.7,40.8c4.9,12.7,9.9,26.7,14.9,41.5c3.8,11.6,6.4,20.3,8.4,28.3
		c2.9,11.5,4.8,22,5.8,32.3c1.3,12.5,1.2,24.7-0.2,36.3c-1.7,13.8-5.5,26.8-11.2,38.8c-7.1,15-17.1,28.4-29.9,39.9
		c-10.6,9.6-23.4,18-37.9,24.8c-12.1,5.7-25.4,10.2-39.5,13.6c-11.7,2.8-24.5,5-38.3,6.4c-6.3,0.7-12.3,1.1-18.3,1.3
		c-7.1,0.3-13.6,0.3-20,0c-8.1-0.4-15.2-1.2-21.6-2.3c-8.1-1.5-15.8-3.4-22.7-5.9c-8.2-2.9-16-6.6-23.4-11.1
		c-7.7-4.6-14.8-10.1-21.1-16.3c-6.9-6.7-12.8-14.1-17.6-22.1c-5.4-9.1-9.3-18.6-11.6-28.3c-1.7-7.2-3.3-15.1-5-24.9
		c-1.4-7.9-2.5-16.6-3.6-24.9c-1-8.3-2.1-17-2.8-23.9c-0.2-1.6-0.3-3.1-0.5-4.7c-0.2-1.4-0.3-2.8-0.5-4.1l-0.3-2.4
		c-0.4-3.7-0.8-7.2-1.1-10.7c-2.2-19.3-5.2-37.3-9-53.4c-3.4-14.5-7.3-28.1-12.1-41.4c-4-11.2-8.7-22.2-14.3-33.6
		c-5.8-11.9-12.1-23-16.2-30.4c-0.5-0.9-0.9-1.4-1.2-1.7c-0.2-0.2-0.7-0.5-1.6-0.9c-1.2-0.5-2.9-0.8-4.7-0.9h-0.1
		c-2.6-0.3-5.8-0.2-9.1,0.3c-3,0.4-5.6,1.5-8.2,3.4c-3.4,2.4-6.7,6.1-9.8,10.9c-3.4,5.3-6.1,11.7-7.8,18.3c-1.8,7-2.6,14.1-2.3,20.3
		c0.3,7.7,1.5,15.7,3.5,24.7c1.8,7.8,4.5,16.9,8.3,27.6c3.6,10,7.7,20,11.7,29.7l2.2,5.4c1,2.6,2.1,5.2,3.2,7.9
		C182.5,552.1,185.3,558.9,187.9,565.9L187.9,565.9z"/>
</g>
<path id="drive" class="st3" d="M120,579.9L94.6,462.7l-2.4-32.2l2-30.5l7.6-27.3l14.6-22.7l27.8-21.8l26.9-7l25.4,5.1l23.4,14.6
	l20.9,21.5l17.8,25.7l14.2,27.2l10,26.2l5.4,23.1L304.9,579l7.7,27.1l11,23.6l15.2,18.7l16.5,10.3l21.2,6.6l24.3,3.2h25.8l25.7-3
	l24-5.7l20.7-8.3l15.9-10.5l27.5-43.7l1.2-52.1L522.5,488l-42.2-57.7l-86-95.3l-84.7-85.3l-27.3-54l-1.3-50l18-41.3l40.7-24.7
	l61.3-9.3l54,8l32.7,25.4l18.8,35.3l10.5,44l6,55.3l7,34.6l16.6,33.2l21.4,23.7l21.8,15.1l24.5,9.3l20.4,6l26.4-0.6l20.7-3.3
	l30-13.3l18-24.7l14.3-28.8l6-29l-2.3-93.5l5.9-27.5L768,117l22.5-15.1l32.9-5.8l29.8,4.3l22.2,12.5l15.8,18.9l10.5,23.7l6.4,26.9
	l6.4,114l-1.8,27.6l-4.8,24.2l-8.6,21.1l-13.1,18.5L867.8,404l-24.5,14.3L812,430.9L718.2,453l-21.5,9.5l-17.9,13.8L666.1,496
	l-6.1,26.7l3.8,29.3l14.6,23.1l22.8,18l28.4,14L847,644.9l17.9,11l15.5,15.6l11.7,18.9l6.7,21l0.3,21.7l-7.3,21.2l-16.3,19.4
	L849,789.9l-16.3,5l-18.3,1.9l-19.7-0.5L699,780.9l-17.2-1.3l-17,0.5l-16.9,2.2l-16.6,3.8l-16.4,5.3l-16,6.6L568,814.9l-27.5,19.8
	L456.6,915l-23.5,16.6l-28.2,13.7l-34.6,10l-29.7,4.1l-28.3-0.3l-26.5-4.7l-24.2-9.1l-21.5-13.6l-18.4-18.1L207,890.9l-10.9-27.1
	L145,651.7L120,579.9L120,579.9z"/>
</svg>
