<?xml version="1.0" encoding="utf-8"?>
<!-- Generator: Adobe Illustrator 21.0.2, SVG Export Plug-In . SVG Version: 6.00 Build 0)  -->
<svg version="1.1" id="SCENE_6" xmlns="http://www.w3.org/2000/svg" xmlns:xlink="http://www.w3.org/1999/xlink" x="0px"
	y="0px" viewBox="0 0 1024 1024" style="enable-background:new 0 0 1024 1024;" xml:space="preserve">
	<style type="text/css">
		.st0 {
			fill: #ffffff;
		}

		.st2 {
			display: none;
		}

		.st1 {
			fill: #64566D;
		}
	</style>
	<rect id="BACKGROUND_grass" y="0" width="1024" height="1024" />
	<g id="OBSTACLES">
		<polygon class="st0" points="877,297.9 860.7,258.6 841.7,227.6 826.5,205.9 795.3,191.3 751,200.6 660.7,219.6 603.3,224.6 
		529,214.6 491.7,207.4 342,181.4 265.5,177.4 210,194.4 192,231.9 192,273.9 211.5,323.9 236,355.4 362.9,450.9 362.7,451.3 
		380,463.9 380,463.9 380,463.9 514.9,561.7 574.3,630.9 601,675.6 605,706.9 599.7,756.3 578.3,782.3 535,805.5 485,822.3 
		429.7,818.9 376.3,805.5 341,784.3 277.7,720.9 211.7,658.9 189.7,670.3 179,706.3 185.7,745.6 223.7,822.3 259.7,843.6 
		340.3,860.3 461.7,856.9 619.7,843.6 737,819.6 804.3,770.9 804.3,720.3 748.3,664.3 633.7,613.6 531,549.6 462.8,498.9 
		457.2,494.8 400,428.9 386,303.9 406,258.9 457,243.9 540,243.9 614,251.9 674.1,274.9 719.7,292.9 754.3,321.3 788.7,354.3 
		820,390.3 833.7,403.6 843,406.9 855.3,403.3 865,391.6 874.7,368.9 883.2,333 	"/>
	<polygon class="st0" points="38.1,11.1 15.6,41 15.6,948.5 29.1,948.5 53.1,948.5 168.6,948.5 53.1,841 53.1,718.9 94.5,556.4 
		158.5,498.9 221.5,497.4 261.7,529.9 376.8,671.9 422,696.3 448.2,679.3 455,660.6 442.4,625.3 397.8,594.9 233.1,480.5 
		134.1,393.5 53.1,240.5 53.1,108.6 141.6,33.6 158.1,33.6 417.6,33.6 602.1,122 810.6,33.6 1014.6,33.6 1014.6,11.1 	"/>
	<polygon class="st0" points="933.6,566 848.1,542 695.1,432.5 610.7,359.2 553.1,365.9 526.7,399.7 563.5,445.8 800.2,571 
		853,590.9 916.5,646.9 946,711.9 955.7,766.9 943.7,827.6 887.7,893.6 836.3,912.9 709.7,934.3 299.3,957.5 23.1,957.5 
		23.1,1014.5 984.3,1014.5 984.3,957.5 984.3,518.9 	"/>
	<polygon class="st0" points="811.5,41 874,53.4 913,81.9 937,145.4 993.6,405.7 993.6,1014.5 1014.6,1014.5 1014.6,68.9 
		1014.6,48.6 1014.6,37.9 	"/>

	</g>
	<g id="ROAD">
			<path id="TRACK_asphalt" class="st1" d="M256.6,948.5c-29.1,0-49.1-2.2-65.6-7.8c-42.8-14.6-53.8-48.1-62.6-75
		c-5.4-16.3-11.4-34.8-25.1-59.6C57,722,70.1,617.4,107,557.6c9.9-16.1,21.5-29.1,34.5-38.6c17.1-12.6,36.5-18.8,56-18.1
		c29.1,1.1,51.1,20.9,65.1,35.6c13.3,14,27.2,32.2,42,51.3c27.6,35.8,58.8,76.4,94.1,102.5c34,25.1,63.5,30.9,95.7,18.7
		c0.9-0.3,1.7-0.7,2.5-1c-5.3-10.7-21.7-35-72.4-78.5c-47.9-41-109.3-84.6-158.6-119.6c-56.7-40.2-89.6-63.9-106.5-82.3
		c-59-64-73-128-74.5-170.5c-1.5-45.8,10.7-77,13.2-83l0,0c15.5-36.3,42.1-63.2,79.3-80c28.9-13.1,63.3-19.8,105.2-20.4
		c69.4-1,146.4,14.8,214.3,28.8c38.2,7.9,74.3,15.3,99.3,17.4c37.8,3.2,78.4-6.9,117.6-16.6c32.1-8,62.4-15.5,90.9-15.5c0,0,0,0,0,0
		c53.9,0,81.2,27.8,94.6,51.1c27.1,47.1,43,127.1,48.2,181.2c2.5,25.5,4.5,62.9-0.4,96.2c-6,41.4-21.8,69.8-46.9,84.5
		c-19.8,11.5-40.6,16.4-61.8,14.5c-17.8-1.6-35.6-8.1-52.8-19.4c-25.3-16.5-46.9-41.5-67.8-65.6c-2.8-3.2-5.6-6.5-8.5-9.7
		c-26.6-30.4-61.6-52.5-96-60.8c-39.2-9.4-76.4-0.5-110.6,26.5c2.6,5.4,10.1,17.3,31.3,36c21.8,19.2,51.9,40.3,89.4,62.6
		c68.3,40.6,141.2,73.3,165.1,81.7c104.1,36.9,161.5,108.6,161.5,201.8c0,30.6-7.7,57.6-23,80.2c-13.2,19.5-31.7,35.2-55,46.7
		c-36.4,18-77.5,22.5-107.5,25.9l-2,0.2c-52.1,5.8-164.7,6.3-184.6,6.3c-15.2,1.7-85.9,9-248.1,17.9
		C300.2,947.4,276.3,948.5,256.6,948.5z M227.7,846.9c3.7,0.6,10.2,1.3,20.8,1.5c16.3,0.3,39-0.4,75.8-2.4
		c177.3-9.7,244.1-17.6,244.8-17.7l3-0.4l3,0c1.3,0,125.9-0.1,176.5-5.7l2.1-0.2c23.9-2.6,53.6-5.9,74.2-16.1
		c16.5-8.2,22.4-17.9,22.4-37.2c0-18.3,0-73.9-94.9-107.6c-31.4-11.1-111.2-47.5-182.9-90.1c-42.9-25.5-78.1-50.3-104.5-73.6
		c-38.3-33.8-59.6-65.8-64.9-97.7c-5.8-34.9,7.3-67.1,37-90.8c58.8-46.9,126.9-62.8,196.9-46c54.9,13.2,107.4,45.9,147.9,92.2
		c2.9,3.4,5.9,6.7,8.8,10.1c13.3,15.4,25.9,29.9,37.5,40c7.5,6.6,12.2,9.2,14.6,10.2c3.6-12.2,8-43.9,0.7-101.1
		c-7.6-59-22.7-106.3-33.6-125.2c-0.1-0.1-0.1-0.2-0.2-0.3c-1.7-0.5-7.2-1.5-20,0.1c-15.3,1.9-34.4,6.6-54.7,11.7
		c-38.5,9.5-81.3,20.2-126.9,20.2c-7.6,0-15.3-0.3-23.1-0.9c-31-2.6-69.9-10.6-111.1-19.1C413.8,187.7,342.4,173,284,173.9
		c-76.5,1.1-89.2,28.3-93.8,39.2c-1.8,4.8-25.8,72.7,42.6,146.9c10.6,11.6,53.3,41.8,90.8,68.5c54.4,38.6,122.1,86.7,175.1,133.3
		c75.1,66.1,105.9,116.5,99.8,163.6c-2.6,20.1-15,56.9-68.8,77.3c-34.9,13.2-70.2,16.1-104.9,8.6c-28.9-6.2-57.7-19.8-85.6-40.4
		c-46.6-34.4-83.9-83-113.9-122c-9.5-12.4-22.4-29.2-32.3-40.2c-5.9,9.1-13.1,24.9-17,47.5c-6.2,36.2-0.8,73.3,14.9,101.7
		c18.2,32.9,26.4,58.2,32.5,76.6C224.8,838.5,226.4,843.4,227.7,846.9z M190.1,213.1c-0.1,0.1-0.1,0.2-0.2,0.4l-0.3,0.8l0.3-0.7
		C190,213.6,190,213.4,190.1,213.1z"/>
		<circle id="START" cx="866.6" cy="702.1" r="3.4" class="st2" />
	</g>
	<g id="layout">
	</g>

</svg>