<?xml version="1.0" encoding="utf-8"?>
<!-- Generator: Adobe Illustrator 21.0.2, SVG Export Plug-In . SVG Version: 6.00 Build 0)  -->
<svg version="1.1" id="SCENE_1" xmlns="http://www.w3.org/2000/svg" xmlns:xlink="http://www.w3.org/1999/xlink" x="0px"
	 y="0px" viewBox="0 0 1024 1024" style="enable-background:new 0 0 1024 1024;" xml:space="preserve">
<style type="text/css">
	.st0{fill:#FFFFFF;}
	.st1{display:none;}
	.st2{fill:#64566D;}
</style>
<rect id="BACKGROUND_grass" y="0" width="1024" height="1024"/>
<g id="OBSTACLES">
	<path id="01_stone" class="st0" d="M318.4,307c0,3.1-1.3,6-3.3,8.1c-2,2-4.9,3.3-8.1,3.3s-6-1.3-8.1-3.3
		c-2-2-3.3-4.9-3.3-8.1s1.3-6,3.3-8.1c2-2,4.9-3.3,8.1-3.3c3.1,0,6,1.3,8.1,3.3C317.1,300.9,318.4,303.8,318.4,307z"/>
	<path id="02_stone" class="st0" d="M182.4,143.9h249.1c1.1,0,2.2,0.1,3.3,0.2L320.4,258.6c-4.1-1.6-8.7-2.6-13.5-2.6
		c-4.8,0-9.3,0.9-13.5,2.6L179,144.1C180.2,144,181.2,143.9,182.4,143.9z"/>
	<path id="03_stone" class="st0" d="M144.1,434.8c-0.1-1.1-0.2-2.2-0.2-3.3V182.4c0-1.1,0.1-2.2,0.2-3.3l114.5,114.5
		c-1.6,4.1-2.6,8.7-2.6,13.5c0,4.8,0.9,9.3,2.6,13.5L144.1,434.8z"/>
	<path id="04_stone" class="st0" d="M431.5,470H182.4c-1.1,0-2.2-0.1-3.3-0.2l114.4-114.4c4.1,1.6,8.7,2.6,13.5,2.6
		c4.8,0,9.3-0.9,13.5-2.6l114.4,114.4C433.7,469.9,432.6,470,431.5,470z"/>
	<path id="05_stone" class="st0" d="M470,431.5c0,1.1-0.1,2.2-0.2,3.3L355.3,320.4c1.6-4.1,2.6-8.7,2.6-13.5
		c0-4.8-0.9-9.3-2.6-13.5L469.8,179c0.1,1.1,0.2,2.2,0.2,3.3L470,431.5L470,431.5z"/>
	<path id="06_stone" class="st0" d="M728.4,717c0,3.1-1.3,6-3.3,8.1c-2,2-4.9,3.3-8.1,3.3c-3.2,0-6-1.3-8.1-3.3
		s-3.3-4.9-3.3-8.1s1.3-6,3.3-8.1s4.9-3.3,8.1-3.3c3.1,0,6,1.3,8.1,3.3S728.4,713.8,728.4,717z"/>
	<path id="07_stone" class="st0" d="M592.4,553.9h249.1c1.1,0,2.2,0.1,3.3,0.2L730.4,668.6c-4.1-1.6-8.7-2.6-13.5-2.6
		s-9.3,0.9-13.5,2.6L589,554.1C590.2,554,591.2,553.9,592.4,553.9z"/>
	<path id="08_stone" class="st0" d="M554.1,844.8c-0.1-1.1-0.2-2.2-0.2-3.3V592.4c0-1.1,0.1-2.2,0.2-3.3l114.5,114.5
		c-1.6,4.1-2.6,8.7-2.6,13.5s0.9,9.3,2.6,13.5L554.1,844.8z"/>
	<path id="09_stone" class="st0" d="M841.5,880H592.4c-1.1,0-2.2-0.1-3.3-0.2l114.4-114.4c4.1,1.6,8.7,2.6,13.5,2.6
		c4.8,0,9.3-0.9,13.5-2.6l114.4,114.4C843.7,879.9,842.6,880,841.5,880z"/>
	<path id="10_stone" class="st0" d="M880,841.5c0,1.1-0.1,2.2-0.2,3.3L765.3,730.4c1.6-4.1,2.6-8.7,2.6-13.5
		s-0.9-9.3-2.6-13.5L879.8,589c0.1,1.1,0.2,2.2,0.2,3.3L880,841.5L880,841.5z"/>
	<path id="11_stone" class="st0" d="M318.4,717c0,3.1-1.3,6-3.3,8.1c-2,2-4.9,3.3-8.1,3.3s-6-1.3-8.1-3.3
		c-2-2-3.3-4.9-3.3-8.1s1.3-6,3.3-8.1c2-2,4.9-3.3,8.1-3.3c3.1,0,6,1.3,8.1,3.3S318.4,713.8,318.4,717z"/>
	<path id="12_stone" class="st0" d="M182.4,553.9h249.1c1.1,0,2.2,0.1,3.3,0.2L320.4,668.6c-4.1-1.6-8.7-2.6-13.5-2.6
		c-4.8,0-9.3,0.9-13.5,2.6L179,554.1C180.2,554,181.2,553.9,182.4,553.9z"/>
	<path id="13_stone" class="st0" d="M144.1,844.8c-0.1-1.1-0.2-2.2-0.2-3.3V592.4c0-1.1,0.1-2.2,0.2-3.3l114.5,114.5
		c-1.6,4.1-2.6,8.7-2.6,13.5s0.9,9.3,2.6,13.5L144.1,844.8z"/>
	<path id="14_stone" class="st0" d="M431.5,880H182.4c-1.1,0-2.2-0.1-3.3-0.2l114.4-114.4c4.1,1.6,8.7,2.6,13.5,2.6
		c4.8,0,9.3-0.9,13.5-2.6l114.4,114.4C433.7,879.9,432.6,880,431.5,880z"/>
	<path id="15_stone" class="st0" d="M470,841.5c0,1.1-0.1,2.2-0.2,3.3L355.3,730.4c1.6-4.1,2.6-8.7,2.6-13.5
		s-0.9-9.3-2.6-13.5L469.8,589c0.1,1.1,0.2,2.2,0.2,3.3L470,841.5L470,841.5z"/>
	<path id="16_stone" class="st0" d="M728.4,307c0,3.1-1.3,6-3.3,8.1c-2,2-4.9,3.3-8.1,3.3c-3.2,0-6-1.3-8.1-3.3
		c-2-2-3.3-4.9-3.3-8.1s1.3-6,3.3-8.1c2-2,4.9-3.3,8.1-3.3c3.1,0,6,1.3,8.1,3.3C727.1,300.9,728.4,303.8,728.4,307z"/>
	<path id="17_stone" class="st0" d="M592.4,143.9h249.1c1.1,0,2.2,0.1,3.3,0.2L730.4,258.6c-4.1-1.6-8.7-2.6-13.5-2.6
		s-9.3,0.9-13.5,2.6L589,144.1C590.2,144,591.2,143.9,592.4,143.9z"/>
	<path id="18_stone" class="st0" d="M554.1,434.8c-0.1-1.1-0.2-2.2-0.2-3.3V182.4c0-1.1,0.1-2.2,0.2-3.3l114.5,114.5
		c-1.6,4.1-2.6,8.7-2.6,13.5c0,4.8,0.9,9.3,2.6,13.5L554.1,434.8z"/>
	<path id="19_stone" class="st0" d="M841.5,470H592.4c-1.1,0-2.2-0.1-3.3-0.2l114.4-114.4c4.1,1.6,8.7,2.6,13.5,2.6
		c4.8,0,9.3-0.9,13.5-2.6l114.4,114.4C843.7,469.9,842.6,470,841.5,470z"/>
	<path id="20_stone" class="st0" d="M880,431.5c0,1.1-0.1,2.2-0.2,3.3L765.3,320.4c1.6-4.1,2.6-8.7,2.6-13.5
		c0-4.8-0.9-9.3-2.6-13.5L879.8,179c0.1,1.1,0.2,2.2,0.2,3.3L880,431.5L880,431.5z"/>
	<path id="21_stone" class="st0" d="M492.1,504.4h39.8c4.2,0,7.6,3.4,7.6,7.6l0,0c0,4.2-3.4,7.6-7.6,7.6h-39.8
		c-4.2,0-7.6-3.4-7.6-7.6l0,0C484.5,507.8,487.9,504.4,492.1,504.4z"/>
</g>
<g id="ROAD">
	<path id="TRACK_asphalt" class="st2" d="M922,156.7c0-30.1-24.6-54.7-54.7-54.7H156.7c-30.1,0-54.7,24.6-54.7,54.7v710.8
		c0,30.1,24.6,54.7,54.7,54.7h710.8c30.1,0,54.7-24.6,54.7-54.7L922,156.7z M571.6,134.3h290.7c1.3,0,2.6,0.1,3.9,0.3L732.7,268.2
		c-4.8-1.9-10.1-3-15.7-3c-5.6,0-10.8,1-15.7,3L567.7,134.6C569,134.4,570.3,134.3,571.6,134.3z M717,323.3c-9,0-16.3-7.3-16.3-16.3
		s7.3-16.3,16.3-16.3s16.3,7.3,16.3,16.3S726,323.3,717,323.3z M866.3,479.3c-1.4,0.2-2.6,0.3-4,0.3H571.6c-1.3,0-2.6-0.1-3.9-0.3
		l133.6-133.6c4.8,1.9,10.1,3,15.7,3s10.8-1,15.7-3L866.3,479.3z M544.3,161.6c0-1.3,0.1-2.6,0.3-3.9l133.6,133.6
		c-1.9,4.8-3,10.1-3,15.7s1,10.8,3,15.7L544.6,456.2c-0.1-1.3-0.3-2.5-0.3-3.9V161.6z M479.3,157.7c0.1,1.3,0.3,2.5,0.3,3.9v290.8
		c0,1.3-0.1,2.6-0.3,3.9L345.8,322.7c1.9-4.8,3-10.1,3-15.7s-1-10.8-3-15.7L479.3,157.7z M291.3,345.8c4.8,1.9,10.1,3,15.7,3
		s10.8-1,15.7-3l133.6,133.6c-1.4,0.2-2.6,0.3-4,0.3H161.6c-1.3,0-2.6-0.1-3.9-0.3L291.3,345.8z M290.7,307c0-9,7.3-16.3,16.3-16.3
		s16.3,7.3,16.3,16.3s-7.3,16.3-16.3,16.3S290.7,316,290.7,307z M161.6,134.3h290.7c1.3,0,2.6,0.1,3.9,0.3L322.7,268.2
		c-4.8-1.9-10.1-3-15.7-3s-10.8,1-15.7,3L157.7,134.6C159,134.4,160.3,134.3,161.6,134.3z M134.6,456.2c-0.1-1.3-0.3-2.5-0.3-3.9
		V161.6c0-1.3,0.1-2.6,0.3-3.9l133.6,133.6c-1.9,4.8-3,10.1-3,15.7s1,10.8,3,15.7L134.6,456.2z M322.7,678.2c-4.8-1.9-10.1-3-15.7-3
		s-10.8,1-15.7,3L157.7,544.6h298.5L322.7,678.2z M323.3,717c0,9-7.3,16.3-16.3,16.3s-16.3-7.3-16.3-16.3s7.3-16.3,16.3-16.3
		S323.3,708,323.3,717z M134.6,866.2c-0.1-1.3-0.3-2.5-0.3-3.9V571.6c0-1.3,0.1-2.6,0.3-3.9l133.6,133.6c-1.9,4.8-3,10.1-3,15.7
		c0,5.6,1,10.8,3,15.7L134.6,866.2z M452.3,889.6H161.6c-1.3,0-2.6-0.1-3.9-0.3l133.6-133.6c4.8,1.9,10.1,3,15.7,3s10.8-1,15.7-3
		l133.6,133.6C454.9,889.5,453.7,889.6,452.3,889.6z M479.3,866.2L345.8,732.7c1.9-4.8,3-10.1,3-15.7c0-5.6-1-10.8-3-15.7
		l133.6-133.6c0.1,1.3,0.3,2.5,0.3,3.9v290.8C479.6,863.6,479.5,864.9,479.3,866.2z M544.6,866.2c-0.1-1.3-0.3-2.5-0.3-3.9V571.6
		c0-1.3,0.1-2.6,0.3-3.9l133.6,133.6c-1.9,4.8-3,10.1-3,15.7c0,5.6,1,10.8,3,15.7L544.6,866.2z M732.7,678.2c-4.8-1.9-10.1-3-15.7-3
		c-5.6,0-10.8,1-15.7,3L567.7,544.6c1.3-0.2,2.5-0.3,3.9-0.3h290.7c1.3,0,2.6,0.1,3.9,0.3L732.7,678.2z M733.3,717
		c0,9-7.3,16.3-16.3,16.3s-16.3-7.3-16.3-16.3s7.3-16.3,16.3-16.3S733.3,708,733.3,717z M862.3,889.6H571.6c-1.3,0-2.6-0.1-3.9-0.3
		l133.6-133.6c4.8,1.9,10.1,3,15.7,3s10.8-1,15.7-3l133.6,133.6C864.9,889.5,863.7,889.6,862.3,889.6z M889.3,567.7
		c0.1,1.3,0.3,2.5,0.3,3.9v290.8c0,1.3-0.1,2.6-0.3,3.9L755.8,732.7c1.9-4.8,3-10.1,3-15.7c0-5.6-1-10.8-3-15.7L889.3,567.7z
		 M755.8,322.7c1.9-4.8,3-10.1,3-15.7s-1-10.8-3-15.7l133.6-133.6c0.1,1.3,0.3,2.5,0.3,3.9v290.8c0,1.3-0.1,2.6-0.3,3.9L755.8,322.7
		z M544.3,512.1c0,17.8-14.4,32.2-32.2,32.2c-17.8,0-32.2-14.4-32.2-32.2c0-17.8,14.4-32.2,32.2-32.2
		C529.9,479.9,544.3,494.3,544.3,512.1z"/>
	<circle id="START" cx="512" cy="599" r="3.4" class="st1"/>
</g>
</svg>
