<?xml version="1.0" encoding="utf-8"?>
<!-- Generator: Adobe Illustrator 21.0.2, SVG Export Plug-In . SVG Version: 6.00 Build 0)  -->
<svg version="1.1" id="SCENE_2" xmlns="http://www.w3.org/2000/svg" xmlns:xlink="http://www.w3.org/1999/xlink" x="0px"
	 y="0px" viewBox="0 0 1024 1024" style="enable-background:new 0 0 1024 1024;" xml:space="preserve">
<style type="text/css">
	.st0{fill:#FFFFFF;}
	.st1{display:none;}
	.st2{fill:#64566D;}
</style>
<rect id="BACKGROUND_grass" y="0" width="1024" height="1024"/>
<g id="OBSTACLES">
	<path id="01_stone" class="st0" d="M0,0c341.3,0,682.6,0,1024,0c0,341.8,0,683.7,0,1025.6c-341.2,0-682.7,0-1024,0
		C0,683.9,0,341.9,0,0z M476.8,989.5c19.2-0.1,39.9-1.9,61.3-5.2c44.6-7,84.8-24.8,119.4-52.9c20.7,10.1,43.5,15,69.4,15
		c0.6,0,1.2,0,1.8,0c7.4-0.1,14.9-0.1,22.3-0.2c23.2-0.2,47.1-0.3,70.7-1c19.8-0.5,45.8-2.3,71.6-10.8c24.8-8.2,44.2-22.5,57.7-42.3
		c13.4-19.7,20.6-44.6,21.4-74c1.4-51.8,1.6-103.4,1.7-147.1c0.2-138.1,0.2-278.6,0.2-414.4v-48.5c0-9.5-0.4-17.1-1.3-24
		c-8.6-64.2-47-108.8-102.7-119.2c-11.5-2.2-23.4-3.2-36.4-3.2c-7.5,0-15.2,0.3-23.5,1.1c-27.3,2.3-48,7.1-67.1,15.5
		c-33.4,14.7-55.6,38.5-67.8,72.7c-8.9,25-9.9,50.9-9.8,70.7c0.6,130,1.4,301.1,2.4,471.3c0.1,22.1-2.9,43.8-9.4,65.9
		c-0.1-2.8-0.1-5.6,0-8.5c0.2-5.6,0.5-11.4,0.7-17c0.4-8.1,0.8-16.5,0.9-24.9c0.1-5.7,0.2-11.4,0.3-17c0.3-19.4,0.7-39.4-0.4-59.1
		c-3.3-57.6-42.3-99.5-92.8-99.5c-11.4,0-23.1,0.2-34.3,0.3c-4.5,0.1-8.9,0.1-13.4,0.2c0-1.8,0-3.6,0-5.3
		c0.1-11.7,0.2-23.7-0.3-35.6c-0.3-5.9,0.6-6.3,4.3-8.3c37.9-19.7,68.1-47.4,89.9-82.3c32.2-51.7,46.7-114.2,43-185.9
		c-1.4-27.6-8.3-52.1-20.5-72.8c-11.9-20.3-29-37-50.7-49.8c-33-19.4-67.7-24.3-94.3-26.4c-10.5-0.8-21.2-1.2-31.7-1.2
		c-20,0-40.2,1.5-60.1,4.5c-25.9,3.9-52.1,8.4-77.4,12.8c-13,2.3-26.5,4.6-39.8,6.8c-4.7,0.8-9.3,1.6-14,2.4
		c-15.6,2.7-31.8,5.5-47.6,7.3c-19.7,2.3-40.6,5.3-61,13.8c-35.6,15-60.9,40.8-75.2,76.8c-11.2,28.4-15.2,59.1-11.8,91.3
		c3.8,35.7,19.2,62.8,45.7,80.4c15.7,10.5,33.9,17.3,55.6,21c13.3,2.2,26.8,3.9,39.8,5.5c6.5,0.8,13.1,1.6,19.7,2.5
		c11.4,1.5,23,2.3,34.4,2.3c19.5,0,39.4-2.2,59.2-6.7c15.3-3.4,30.7-7.2,45.6-10.9c12.2-3,24.9-6.1,37.4-9c6-1.4,12.1-2.3,18.6-3.3
		c0,2.1,0,4.1,0,6.2c0,14.8-0.1,28.8,0.2,42.8c-46.5,12.3-93.5,16.1-133.4,18.1c-10.5,0.5-21.2,1-31.5,1.4c-20,0.8-40.6,1.6-61,3.2
		c-28.7,2.2-55.9,9.3-81,20.8c-40.8,18.8-69.4,50.1-85.1,92.8c-9.5,25.9-14.7,55-15.3,86.4c-0.7,33.2-0.1,66.9,0.5,96.5
		c0.1,3.7,0.1,7.5,0.2,11.2c0.4,22,0.7,44.8,2.9,67.1c4.7,47.3,23.5,86,56.1,115.1c25,22.4,55.5,37.5,95.9,47.5
		c38.7,9.6,80.2,14.5,134.9,15.7c38.8,0.9,79.1,1.3,123.3,1.3C448.6,989.6,462.6,989.6,476.8,989.5z"/>
	<path id="02_stone" class="st0" d="M725.9,842.4c22.5-47.3,33.7-99.1,33.3-154c-0.5-72.5-0.9-146.3-1.2-217.6
		c-0.1-27.3-0.3-54.6-0.4-82l-0.1-25.1c-0.2-46.8-0.5-95.3-0.6-142.9c0-6.8,0.4-14.2,1.2-22.7c0.9-9.1,4.6-15.4,11.6-19.5
		c8.3-4.9,17.6-8.1,29.4-9.9c10.3-1.6,22.2-3.4,33.8-3.4c5.5,0,10.5,0.4,15.4,1.1c6.8,1.1,12.8,2.9,18,5.3
		c6.6,3.1,15.5,9.9,16.7,32.4c0.2,3.7,0.1,7.5,0,11.5c-0.1,2.4-0.1,5-0.1,7.5c0,44.6,0,89.2,0,133.8c0,100.1,0,203.6-0.1,305.3
		c-0.1,38.5-0.5,77.6-1,115.4c-0.2,12.2-0.3,24.4-0.4,36.6c-0.2,14.6-3,16.7-11.2,19.1c-14.5,4.2-26.1,6.4-36.4,6.8
		c-28,1.2-56.5,1.5-84.1,1.9C741.7,842.2,733.8,842.3,725.9,842.4z"/>
	<path id="03_stone" class="st0" d="M456.6,885.8c-25.3,0-50.3-0.1-74.7-0.4c1.3-0.1,2.6-0.2,3.9-0.2
		c55.5-3.6,96-35.1,120.3-93.7c9-21.7,13.2-42.8,12.8-64.5c-0.4-21.9-0.1-44.3,0.1-66c0.1-7.7,0.2-15.7,0.2-23.6
		c15.7-0.2,31.4-0.4,47.1-0.6h0.2c1.1,0,1.7,0.1,2.1,0.2c0.2,0.5,0.4,1.6,0.5,3.7c0.6,13.2,0.7,27.8,0.3,45.8
		c-0.2,9.5-0.6,19.2-0.9,28.6c-0.6,14.4-1.1,29.2-1,44c0.2,35.5,7.3,68.8,21.2,99c-0.6,0.3-1.3,0.7-1.9,1c-7.4,4-14.3,7.7-21.4,10.9
		c-24.2,10.6-51.1,15.8-82.2,15.9C474.3,885.7,465.5,885.8,456.6,885.8z"/>
	<path id="04_stone" class="st0" d="M261.4,881.4c-19.1-1.8-36.6-4.4-53.1-7.9c-19-4-41.2-9.8-61.5-23
		c-21-13.6-31.6-34.8-32.6-64.8c-1.4-44.3-2.1-85.4-2.2-125.4c0-17.9,1.9-35.7,3.8-50.7c3.6-28.8,17.4-47.9,42.2-58.4
		c18.6-7.8,38.3-12.3,60.3-13.7c13.2-0.8,26.8-1.3,39.9-1.6c14.7-0.4,29.8-0.9,44.8-2c26.6-1.9,54.9-4.7,91.5-9.2
		c10.3-1.3,20.4-3.5,30.2-5.6c1.1-0.2,2.3-0.5,3.4-0.7v16.4c-1.2,0-2.5,0-3.7,0c-14.3,0.3-28.6,0.5-42.8,0.7
		c-33.6,0.5-68.3,1-102.5,2c-23.7,0.7-45,10.5-61.7,28.3c-20.4,21.8-31.4,53.7-30.2,87.7c1.1,30.8,1.1,62.3,1.2,92.7
		c0,5.4,0,10.9,0,16.3v1.5c0,17.9,0.1,36.5,6.2,54.7c10.6,31.7,32.1,52.4,63.7,61.7C259.3,880.9,260.3,881.2,261.4,881.4z"/>
	<path id="05_stone" class="st0" d="M519.9,365c0.1-7.5,0.1-14.8-0.3-22.2c-2.5-47.5-31-80.3-72.6-83.6
		c-3.3-0.3-6.8-0.4-10.3-0.4c-19.3,0-37.3,3.9-57.2,8.6c-7.6,1.8-15.3,3.6-22.9,5.5c-18.9,4.6-38.4,9.3-57.7,13.4
		c-9.5,2-19.4,3.1-29.5,3.1c-7,0-14.2-0.5-21.5-1.5l-4.8-0.6c-20.6-2.8-42-5.6-62.8-9c-3.5-0.6-7.5-2.4-11.7-4.3
		c-1.6-0.7-3.1-1.4-4.6-2.1c-0.1-0.1-0.2-0.1-0.2-0.1c-0.1-0.1-0.5-0.9-0.6-2.7c-1.3-19.8,1.4-33.3,8.9-43.9
		c5.9-8.4,14.3-13.7,25.7-16.3c7.8-1.8,15.7-2.8,24.1-3.9c5.1-0.7,10.4-1.4,15.6-2.2l5.2-0.9c19.9-3.3,40.4-6.7,60.6-10.7l2.6-0.5
		c40.3-7.8,81.9-15.9,123.1-19.1c12.7-1,23.9-1.4,34.3-1.4c14.3,0,27.2,0.9,39.5,2.7c14.8,2.2,27.4,6,38.3,11.6
		c17.2,8.9,25.4,24.3,25.1,47c-0.4,31-4.2,56-11.9,78.5C546.9,331.7,535.6,349.9,519.9,365z"/>
	<path id="06_stone" class="st0" d="M314.8,782.7c-3.4,0-6.8,0-10.1,0c-6.2,0-12.6-1.3-19.4-2.7c-1.8-0.4-3.6-0.7-5.4-1.1
		v-0.8c0.1-11,0.2-22.4,0-33.7c-0.4-27.3-0.8-55-1.3-81.7l-0.3-14.9c-0.1-5.5,1.4-5.8,2.9-6.1c2.7-0.5,5.7-0.5,8.9-0.6h0.7
		c40.8-0.7,81.7-1.4,122.5-2.1l14.5-0.3c0,8.2,0,16.5-0.1,24.7c0,22.3-0.1,45.4-0.5,68c-0.2,11.4-5.7,21.3-11.6,30.4
		c-7.9,12.2-18.5,18.6-31.5,19.2C361.9,782.2,338.5,782.7,314.8,782.7z"/>
</g>
<g id="ROAD">
	<path id="TRACK_asphalt" class="st2" d="M438.5,351.7c-10.7,1.7-20.9,2.8-30.9,5.1c-27.7,6.4-55.2,13.7-82.9,19.9
		c-29.8,6.7-59.9,8.3-90.1,4.2c-19.7-2.7-39.5-4.7-59.2-8c-18.1-3-35.6-8.7-51.7-19.4c-24.3-16.2-37.8-40.9-41.3-73.1
		c-3.2-29.9,0.2-59,11.1-86.5c14.2-35.9,38.7-58.2,69.8-71.3c18.8-7.9,38.5-10.8,58.3-13.1c20.8-2.4,41.4-6.3,62.1-9.8
		c39-6.5,77.9-13.8,117-19.6c29.7-4.4,59.6-5.5,89.5-3.1c31.2,2.4,61.7,8.3,90,25c40.1,23.6,63.5,61.6,66.3,114.5
		c3.4,65.2-8,126.4-41.5,180.1c-22.3,35.7-51.9,61-86,78.8c-7.4,3.8-10.2,8-9.7,17.6c0.8,16.5,0.2,33.1,0.2,50.2
		c1.8,0.1,3.5,0.3,5.3,0.3c17.5-0.2,35-0.6,52.5-0.6c44.7,0,79.8,37.5,82.8,90.1c1.4,25.1,0.4,50.3,0.2,75.5
		c-0.2,13.9-1.2,27.8-1.7,41.7c-0.5,15.7,1.5,31.1,6.6,46.5c3.1-7.6,6.5-15.1,9.2-23c8.8-25.9,13.7-52.6,13.5-80.7
		c-0.9-157.1-1.7-314.2-2.4-471.3c-0.1-23,1.6-45.7,9.3-67.3c12-33.7,34-54.4,62.4-66.9c20.6-9.1,42.1-12.9,63.9-14.7
		c19.1-1.6,38.2-1.6,57.2,2c51.1,9.6,86.7,50.9,94.7,110.7c1,7.4,1.3,15.1,1.3,22.6c0,154.3,0,308.6-0.2,462.9
		c-0.1,48.9-0.4,97.9-1.7,146.8c-1.5,55.4-26.8,92-72.2,107.1c-22.5,7.5-45.5,9.7-68.7,10.3c-30.9,0.8-61.9,0.9-92.8,1.1
		c-24.3,0.2-47.9-4-70.3-15.8c-1.2-0.6-3.3-0.3-4.3,0.6c-35.3,29.6-74.9,46.5-117.5,53.2c-19.8,3.1-39.9,5-59.8,5.1
		c-54.9,0.3-109.7,0.1-164.6-1.2c-44.5-1-88.9-4.6-132.7-15.5c-33-8.2-64.4-20.9-91.7-45.3C57.2,890,39.4,853.4,35,808.8
		c-2.5-25.6-2.6-51.6-3.1-77.5c-0.6-32-1.2-64.1-0.5-96.1c0.6-28.6,5-56.7,14.7-83.2c15.7-42.9,43.6-70.5,79.9-87.2
		c24.9-11.5,51-17.9,77.6-19.9c30.7-2.4,61.5-3,92.2-4.6c46-2.3,91.8-6.6,136.8-18.8c4.6-1.2,6.2-3.1,6.1-8.9
		C438.3,393.1,438.5,373.3,438.5,351.7z M724.3,852.4c36.6-0.6,73.2-0.7,109.8-2.2c13-0.5,26.1-3.5,38.8-7.2
		c14.1-4.1,18.2-11.5,18.4-28.6c0.6-50.7,1.4-101.4,1.5-152.1c0.2-146.4,0.1-292.7,0.1-439.1c0-6.5,0.5-13.1,0.1-19.5
		c-1-18.5-7.1-33.6-22.4-40.9c-6.6-3.1-13.7-5-20.7-6.1c-17.5-2.8-34.9-0.5-52.2,2.2c-11.4,1.8-22.6,5-33,11.2
		c-9.6,5.7-15.2,14.7-16.4,27.1c-0.8,7.8-1.3,15.8-1.3,23.7c0.2,56,0.5,112,0.7,168c0.5,99.9,0.9,199.7,1.6,299.6
		c0.4,55-10.9,106.2-34.3,153.7c-1.4,2.8-2.8,5.6-4.6,9.2C715.5,851.8,719.9,852.5,724.3,852.4z M436.1,506.5
		c-14.3,2.8-28.4,6.6-42.8,8.4c-30.3,3.7-60.6,7-91,9.1c-28.2,2-56.5,1.8-84.6,3.6c-21.7,1.4-43,5.8-63.5,14.5
		c-26.9,11.3-44,32.6-48.3,66.4c-2.2,17.2-3.9,34.6-3.8,51.9c0.1,41.9,0.9,83.8,2.2,125.7c1,31.9,12.7,57,37.1,72.8
		c20.3,13.2,42.4,19.7,64.9,24.4c37,7.7,74.5,10.4,111.9,11.1c55,1.1,110,1.4,165,1.2c29.4-0.1,58.4-4.6,86.2-16.7
		c10.9-4.8,21.4-11,32.4-16.7c-1-2.1-1.3-2.9-1.6-3.7c-15.1-30.9-22.4-64.4-22.6-99.8c-0.2-24.1,1.5-48.2,2-72.3
		c0.3-15.5,0.3-31-0.3-46.4c-0.4-10.1-4.5-13.5-13-13.4c-17.2,0.2-34.4,0.4-51.6,0.7c-1.7,0-3.4,0.2-5.4,0.4c0,2,0,3.4,0,4.8
		c-0.2,31.5-0.8,63.1-0.3,94.6c0.4,21.6-4.2,41.5-12.1,60.5c-22.7,54.8-60,84.2-111.7,87.6c-18.6,1.2-37.3,1.6-56,2
		c-22.9,0.4-45.8,0.4-68.2-6.2c-26.4-7.7-46.7-24.5-57-55.3c-5.7-17.1-5.6-35-5.7-53c-0.1-36.4,0.1-72.9-1.2-109.3
		c-2-57.9,33.2-104.2,82.2-105.7c48.4-1.4,96.8-1.9,145.2-2.7c4.4-0.1,8.9,0,13.5,0c0-13.4,0-25.8,0-38.4
		C437.2,506.5,436.6,506.4,436.1,506.5z M511.8,385c23.6-17.6,41.5-41.1,52-71.9c8.9-26.2,12.1-53.6,12.4-81.6
		c0.4-26.5-9.7-45.4-30.5-56.1c-13.3-6.8-27.2-10.5-41.5-12.6c-25.3-3.7-50.6-3.2-76-1.3c-42.7,3.3-84.8,11.5-126.9,19.7
		c-21.8,4.2-43.6,7.8-65.5,11.5c-13.4,2.2-27,3.2-40.3,6.3c-12.1,2.8-23.5,8.7-31.7,20.3c-10.3,14.7-11.9,32.1-10.7,50.3
		c0.4,5.5,2.5,9.5,6.8,11.3c6.1,2.6,12.3,6.1,18.6,7.1c22.6,3.7,45.3,6.7,68,9.7c18.2,2.4,36.5,2.1,54.5-1.7
		c27-5.8,53.8-12.6,80.7-18.9c21.2-5,42.5-9.7,64.4-8c36.4,2.9,61.1,31.3,63.4,74.2c0.7,13.8,0.1,27.8,0.1,42.4
		C511,385.3,511.5,385.2,511.8,385z M432.3,628.7c-47.2,0.8-94.4,1.6-141.6,2.5c-3.7,0.1-7.5,0.1-11.2,0.8
		c-7.6,1.4-11.3,7-11.2,16.1c0.5,32.2,1.1,64.4,1.5,96.6c0.2,12.1,0,24.3-0.1,36.4c0,4.3,1.8,6.7,5.2,7.3c9.9,1.7,19.7,4.4,29.6,4.5
		c26.7,0.2,53.5-0.3,80.2-1.6c15.9-0.7,29.5-8.6,39.4-23.8c6.9-10.6,13-22,13.2-35.7c0.6-31.9,0.4-63.7,0.6-95.6c0-2.3,0-4.5,0-7.4
		C435.5,628.7,433.9,628.7,432.3,628.7z"/>
	<circle id="START" cx="949.1" cy="727" r="3.4" class="st1"/>
</g>
</svg>
