<?xml version="1.0" encoding="utf-8"?>
<!-- Generator: Adobe Illustrator 21.0.2, SVG Export Plug-In . SVG Version: 6.00 Build 0)  -->
<svg version="1.1" id="SCENE_3" xmlns="http://www.w3.org/2000/svg" xmlns:xlink="http://www.w3.org/1999/xlink" x="0px"
	 y="0px" viewBox="0 0 1024 1024" style="enable-background:new 0 0 1024 1024;" xml:space="preserve">
<style type="text/css">
	.st0{fill:#FFFFFF;}
	.st1{display:none;}
	.st2{fill:#64566D;}
</style>
<rect id="BACKGROUND_grass" y="0" width="1024" height="1024"/>
<g id="OBSTACLES">
<path id="1_stone" class="st0" d="M361.6,865.9c-3.1,0-6.2-0.4-9.2-1.2h-0.1v-0.3c-1.6-4.8-2.4-9.8-2.4-14.9
		c-0.1-4.2-0.1-8.6,0-12.9c0-2.7,0-5.4,0-8.2c-0.1-26.1-0.3-52.3-0.4-78.5l-0.2-32.7h24.1l0.2,12.7c0.2,10.7,0.4,21.5,0.6,32.2
		c0.2,8.1,0.4,16.3,0.6,24.5c0.3,13.8,0.7,28.1,0.9,42.1c0.2,11.7-1.4,21.5-4.7,29.9c-1.1,2.4-2.4,4.7-3.9,6.8h-0.5
		c-1.6,0.2-3.2,0.3-4.8,0.3L361.6,865.9z"/>
	<path id="2_stone" class="st0" d="M456.4,568.6c-0.2-8.5-0.4-17.1-0.5-25.7c-0.4-17.9-0.8-35.9-1.1-53.9
		c-0.2-9.3-0.4-18.6-0.5-27.9c-0.1-9.3-0.3-17.8-0.4-25.5c-0.2-12.1-0.4-24.1-0.7-36.2c-0.3-13.8-0.5-27.6-0.8-41.5
		c-0.5-25.9-0.8-45.7-1-64c-0.3-9.1,1-18.1,3.8-26.8c1-2.5,2.1-4.9,3.5-7.2h0.8c5.1,0,8.4,1.4,11.1,4.8s6.7,10.8,9.1,19.4
		c0.8,3,1.2,6,1.2,9.1c-0.1,60.2,0,120.1,0,176.3c0,17.5,2.2,32.6,6.7,46.1c9,26.8,25.6,46.7,49.4,59.1c15.2,8,32.1,12.1,49.2,12.1
		h6l0.7,44.1H457.7C457.4,617.4,456.4,568.6,456.4,568.6z"/>
	<path id="3_stone" class="st0" d="M260.3,630.9c-5.3,0.1-10.5-0.3-15.7-1.3c-10.1-2.2-18.7-7.4-26.4-16.2
		s-13.4-18.8-18.9-32.6c-5.6-14.7-9.7-29.9-12.1-45.4c-1.8-11.3-2.9-22.7-3.1-34.1c-0.3-14-0.8-28.2-1.2-42
		c-0.2-6.7-0.4-13.5-0.6-20.3v-0.7c-0.6-21.5-1.3-43.7-1.9-65.6c-0.7-24.4-1.3-46.8-1.8-68.5c-0.2-7.4-0.4-14.8-0.5-22.2
		c-0.2-12-0.5-24.3-0.9-36.5c-0.6-19-0.5-39.4,0.3-66c0.1-4.9,0.8-9.8,2.1-14.5c1.3-4.6,3.7-7.4,8.3-9.2c5.3-2.1,10.9-3.3,16.6-3.7
		c3.9-0.3,8-0.6,11.9-0.6c4,0,7.9,0.4,11.8,1.2c6.9,1.5,12.8,5.6,16.5,11.6c4,6.2,6.9,13.8,9,23.9c1.9,9.4,2.7,19,2.5,28.6
		c-0.1,8.4,0,17.6,0.1,29c0.3,17.2,0.5,34.4,0.8,51.6l0.9,53.3c0.4,25.9,0.8,51.7,1.2,77.5c0.2,11.9,0.4,23.7,0.5,35.6
		c0.1,9,0.2,18,0.3,27c0.5,33.2,0.9,66.4,1.4,99.7l0.6,40.3L260.3,630.9z"/>
	<path id="4_stone" class="st0" d="M743.2,881c-5.1,0-9.8-0.2-14.2-0.6c-7-0.6-15.2-1.6-23-4.5c-7-2.4-12.6-7.6-15.4-14.4
		c-3.3-7.4-5.3-15.3-6-23.4c-0.9-8.8-1.5-17.3-1.7-25.4c-0.5-16.4-0.9-33-1.2-49.1c-0.1-5.1-0.2-10.3-0.3-15.5
		c-0.2-9.3-0.4-18.5-0.6-27.7V717h3.8l14-0.2h4c9.8,0,19.5,0.6,29.2,1.6c12.5,1.2,24.9,3.6,37,7.3c13,4,22.9,8.8,31.3,15.2
		c12.5,9.6,19,21.8,19.6,37.3c1,23-1,43.8-6.1,63.7c-1.8,7.5-4.8,14.7-9,21.2c-4.5,6.8-11,11.2-20.5,13.9
		c-6.8,1.8-13.8,2.9-20.9,3.3c-5.4,0.3-12.6,0.7-19.7,0.7L743.2,881z"/>
	<path id="5_stone" class="st0" d="M677.4,497.2c-0.1-7.7-0.2-15.7-0.4-23.6c-0.1-3.2-0.3-6.2-0.5-9.2s-0.3-3.5-0.4-5.3
		c-1.2-22.4,0.2-42.3,4.4-60.9c2.3-10,5.1-17.9,8.9-24.9l1.8-3.2c6.8-11.1,16.1-16.4,29.4-16.7h6.9c16.3,0,29.8,1.5,42.3,4.9
		c10.2,2.7,18.1,6,24.8,10.5c12,7.9,19.5,19,23,33.9c1.5,6.4,2.2,12.9,2.1,19.5c-0.1,12.7-0.5,25.6-1.1,38.1
		c-0.3,6.1-1.5,12.1-3.6,17.8c-1.8,5.6-5.9,10.1-11.3,12.4c-5.5,2.6-11.8,4.3-19.9,5.5s-19.1,1.6-29.2,1.8h-3.2l-73.9,1.7
		L677.4,497.2z"/>
    	<path id="6_stone" class="st0" d="M10,1014V10h1004v1004H10z M594.3,717.3c0.2,9.6,0.4,19.2,0.6,28.7
		c0.4,20.1,0.9,40.9,1.4,61.4c0.3,12.8,0.6,27.4,2.5,41.7s5.1,28.2,9.6,39.9c11.7,30.6,32.2,52.6,61.1,65.2
		c15.7,6.9,33.2,10.8,55.1,12.4c5.9,0.4,12,0.6,18.7,0.6s13-0.2,20.7-0.6c13.7-0.6,27.4-2.6,40.7-6c35.9-9.5,62.6-30.8,79.3-63.2
		c9-17.6,15-37.5,18.3-61c1.2-8.4,2.1-17.6,2.9-28.9c1-14,1.7-30.5-1-47.6c-2.6-17.4-8.6-34.2-17.6-49.4
		c-11.7-19.6-28.5-36-49.8-48.6c-23.2-13.8-50.2-22.9-82.7-27.7c-10-1.5-19.2-2.5-27.9-3s-18.3-0.6-27.2-0.6h-19.8l-0.7-44.8
		l15.1-0.2l27.2-0.7l33.1-0.8c11.1-0.3,23.7-0.5,36.2-2c17.4-2,32.4-5.8,45.8-11.6c27.7-11.9,47.4-31.6,58.5-58.7
		c6-14.9,9.5-30.7,10.4-46.8c0.7-12.2,1.1-25.1,1.2-41.9c0.2-13.8-1.4-27.5-4.5-40.9c-6.5-27.1-19.3-50.2-38-68.6
		c-15.7-15.4-34.5-26.7-57.3-34.7c-21.2-7.4-44.4-11.3-70.9-12l-10.3-0.2c-8.2-0.1-16.3,0.5-24.4,1.8c-32.4,5.5-58.6,21.9-77.8,48.7
		c-10.2,14.3-17.9,30.7-23.6,50.3s-9.1,43.2-9.8,68.6c-0.3,10.7,0,22,1,36.6c0.4,6.8,0.5,13.5,0.6,20.6c0,2.3,0.1,4.7,0.1,7h-5.5
		c-9-0.4-14-4.3-16.5-13.1c-1.3-4.7-1.9-9.9-2-17c-0.1-18.9-0.1-38.1-0.1-56.6c0,0,0-42,0-61.2c0-21.9,0-43.8,0-65.7v-0.3
		c0-2.3-0.1-4.5-0.4-6.8c-3.3-21.7-10.3-41.2-21-58.1s-22.3-27.5-37.2-35.7c-14.6-8.1-31.1-12.3-47.8-12.3c-4,0-8.1,0.2-12.1,0.7
		c-21.2,2.1-40.9,12.3-54.8,28.5c-8.4,9.6-14.8,20.7-19.1,32.7c-6.5,17.4-9.6,35.9-9.7,56.7c0,8.5,0.1,17,0.3,25.3
		c0.1,3.2,0.1,6.4,0.2,9.6c0.3,16,0.6,32,0.9,47.9l0.9,48.1c0.3,14.7,0.5,29.5,0.8,44.2l0.3,17.1c0.6,30.7,1.2,61.5,1.7,92.2
		c0.3,13.2,0.5,26.4,0.8,39.7l0.3,14.5h-23v-3.3c-0.1-3.7-0.1-7.3-0.1-11l-0.3-22.3c-0.5-35.4-1-70.8-1.5-106.2
		c-0.3-21.3-0.7-42.7-1-64c-0.3-18.3-0.5-36.5-0.8-54.8c-0.5-36.6-1.1-73.2-1.6-109.9c-0.1-3.5-0.1-6.9-0.2-10.4
		c-0.2-10.4-0.3-21.1-0.3-31.7c0.2-14.1-0.9-28.2-3.4-42.1c-3.6-19.7-9.4-36.4-17.9-50.9c-20.7-35.8-52.4-55.4-94.2-58.4
		c-3.6-0.3-7.3-0.4-11.1-0.4l0,0c-5.9,0-12,0.3-18.7,0.9c-15.6,1.5-29.2,4.6-41.4,9.6c-25.8,10.5-44.2,28.5-54.8,53.3
		c-5.9,13.9-9.1,29.3-9.7,46.9c-0.6,16.1-0.7,32.1-0.7,47.7c0,7.2,0.1,14.4,0.3,21.4c0.1,2.6,0.1,5.2,0.2,7.9l0.2,11.2
		c0.2,11.4,0.4,23.1,0.7,34.7c0.4,16.7,0.9,33.3,1.4,50c0.3,9.7,0.5,19.5,0.8,29.3c0.1,5.4,0.3,10.8,0.4,16.1
		c0.2,6.9,0.4,13.7,0.5,20.5l0.3,10.4c0.7,23,1.4,46.7,2.2,70.1c0.3,10.3,0.8,21.2,1.7,32.1c2,22.4,6.4,44.5,13.1,66
		c7.2,23.2,16.3,42.7,27.7,59.7c14.6,21.6,31.7,37.5,52.4,48.5c16.6,8.9,34.8,14,53.6,15c5.3,0.3,10.6,0.4,15.7,0.4h1.1v3
		c0.1,8,0.2,16.2,0.2,24.3c0.1,23.8,0.2,49.4,0.3,78.3c0,3.7,0,7.5-0.1,11.2c0,5.7-0.1,11.5,0,17.4c0.1,12.4,2,24.8,5.6,36.7
		c9.2,30.1,28.7,50.1,57.9,59.2c11.1,3.4,22.7,5.1,34.3,5.1c3.5,0,7.1-0.1,10.7-0.4c28.2-2.2,50.8-15.2,67.2-38.4
		c8.6-12.2,14.6-26.5,18.5-43.7c3.4-15.5,4.8-31.4,4.2-47.3c-0.7-26.9-1.2-54.3-1.7-80.8c-0.1-8.1-0.3-16.1-0.5-24.2L594.3,717.3z"
		/>

</g>
<g id="ROAD">
	<path id="TRACK_asphalt" class="st2" d="M338,641.1l43-0.1l-6.5-348.5c0,0,2.7-36.1,9.1-53.2c3.9-10.8,9.7-20.9,17.2-29.6
		c12.3-14.3,29.7-23.3,48.5-25.2c19-2.1,37.2,1.2,54.1,10.4c14.1,7.7,25.1,18.8,33.6,32.3c10.5,16.6,16.7,34.8,19.6,54.2
		c0.2,1.9,0.3,168.8,0.4,188.8c-0.1,6.6,0.7,13.2,2.4,19.6c3.7,12.7,12.2,19.7,25.6,20.2c4.8,0.2,15.9-0.3,15.9-0.3
		s-2-61.4-1.7-73.3c0.6-22.4,3.2-44.5,9.4-66.1c4.8-16.9,11.8-32.9,22-47.2c17.6-24.6,41.3-39.5,71.2-44.7
		c10.8-1.9,21.7-1.8,32.7-1.5c23.1,0.6,45.8,3.8,67.7,11.4c20,7,38.2,17.4,53.4,32.4c18,17.7,29.3,39.2,35.2,63.8
		c2.9,12.6,4.3,25.5,4.2,38.5c-0.1,13.8-0.4,27.6-1.2,41.3c-0.8,15-4.1,29.7-9.7,43.6c-10.3,25.1-28.3,42.6-53,53.3
		c-13.7,5.9-28.1,9.1-42.9,10.8c-11.7,1.4-120.3,4-120.3,4v64.4c0,0,2.2,0.3,2.6,0.4c7.8-0.1,15.6-0.2,23.4-0.2
		c10.6,0.1,21.3,0.1,31.9,0.7c9,0.5,18,1.5,27,2.9c27.9,4.2,54.7,11.9,79.1,26.5c19,11.3,34.8,26,46.3,45.2
		c8.4,14.1,13.9,29.6,16.3,45.8c2.4,15.1,2,30.2,0.9,45.4c-0.7,9.4-1.5,18.9-2.8,28.2c-2.8,20.1-7.9,39.6-17.3,57.8
		c-15.6,30.3-40.1,49.5-73,58.1c-12.6,3.2-25.6,5.1-38.6,5.6c-12.7,0.7-25.5,0.7-38.2-0.1c-17.8-1.3-35.3-4.3-51.8-11.6
		c-27.1-11.9-45.3-32.2-55.8-59.6c-4.5-12.1-7.5-24.8-9-37.6c-1.8-13.5-4.8-139.9-4.8-139.9H449c0,0,1.8,77.2,2.7,114.7
		c0.5,15-0.8,30.1-4,44.8c-3.2,14.4-8.4,28-16.9,40.2c-14.6,20.7-34.5,32.2-59.8,34.2c-13.9,1.3-27.9-0.2-41.2-4.2
		c-26.5-8.3-43.2-26.3-51.3-52.6c-3.3-11-5.1-22.4-5.2-33.9c-0.2-9.5,0.1-18.9,0-28.4c-0.1-26.1-0.8-115.2-0.8-115.2
		s-18.6-0.3-26.1-0.8c-17.3-0.9-34.2-5.7-49.4-13.9c-20.3-10.8-36.1-26.4-48.8-45.3s-20.2-36.9-26.5-57.1
		c-6.5-20.8-10.8-42.2-12.7-63.9c-0.9-10.5-8.6-334.3-8.1-350.1s3.1-29.5,8.9-43.3c9.7-22.9,26.4-38.6,49.3-48
		c12.4-5.1,25.3-7.7,38.6-8.9c9.3-0.9,18.7-1.1,28.1-0.5c38.1,2.7,67.1,20.3,86.3,53.5c8.6,14.8,13.6,31,16.7,47.7
		C331.2,190.3,338,641.1,338,641.1z M272,641c0-1.3-6.6-444.4-8.6-454.5c-2-9.6-4.9-18.9-10.4-27.3c-5.1-8.1-13.2-13.9-22.6-15.9
		c-8.9-2-17.8-1.5-26.7-0.8c-6.7,0.5-13.3,2-19.6,4.5c-7,2.6-12.4,8.5-14.2,15.8c-1.5,5.5-2.3,11.1-2.5,16.8
		c-0.7,22.2,8.1,346.1,10,357.8c2.6,16.2,6.9,32,12.8,47.3c5.1,12.9,11.4,25.1,20.7,35.6s19,16.6,31.8,19.3
		c9.6,2.1,19.3,1.4,29.4,1.4H272z M602.2,577h-14.6c-16,0.2-31.8-3.5-45.9-11c-22.3-11.6-36.6-29.7-44.5-53.2
		c-4.7-13.9-6.2-28.2-6.2-42.8c0-58.6,0-117.1,0-175.7c0.1-4-0.5-7.9-1.5-11.8c-2.3-8.3-5.5-16-10.9-22.8
		c-5.4-6.8-11.9-8.7-19.8-8.6c-3.6-0.1-6.9,1.8-8.6,4.9c-1.7,2.9-3.1,5.9-4.3,9.1c-3.2,9.7-4.7,19.9-4.4,30.1
		c0.3,21.3,6.4,345.7,6.4,345.7l154.6-0.2l0.2-0.2l0.3-0.3L602.2,577z M670,707.4c0,0.9,0,1.4,0,2c0.3,13.1,0.5,26.1,0.8,39.1
		c0.5,21.6,0.9,43.1,1.6,64.7c0.3,8.7,0.9,17.4,1.8,26.1c0.8,9.1,3.1,18.1,6.8,26.5c3.9,9.2,11.6,16.4,21.1,19.7
		c8.3,3,16.9,4.3,25.6,5.1c11.8,1,23.6,0.6,35.3-0.1c7.8-0.4,15.5-1.6,23-3.6c10.8-3,19.9-8.5,26.2-18c4.8-7.5,8.3-15.7,10.4-24.4
		c5.6-21.9,7.4-44.2,6.4-66.6c-0.8-18.5-8.8-33.5-23.6-44.8c-10.3-7.9-22.1-13-34.4-16.8c-12.7-3.8-25.7-6.4-38.9-7.7
		c-11.4-1.2-22.8-1.7-34.3-1.6l-24,0.3L670,707.4z M668,510l84.1-1.8c11.3-0.3,22.5-0.3,33.7-2c7.8-1,15.5-3.2,22.7-6.4
		c7.8-3.5,13.8-10.1,16.5-18.2c2.4-6.7,3.8-13.6,4.1-20.7c0.6-12.8,1-25.6,1.1-38.5c0.1-7.4-0.7-14.7-2.4-21.9
		c-3.9-16.8-12.7-30.3-27.2-39.9c-8.5-5.6-17.9-9.2-27.7-11.8c-17-4.5-34.4-5.6-52-5.1s-29.1,7.4-37.7,21.5l-2.1,3.5
		c-4.6,8.7-7.9,17.9-9.9,27.5c-4.7,21-3.2,112.5-3.2,113.9V510z M339,706.9c0,0,0.5,135.4,0.6,142.5c0,6.1,1,12.2,3,18
		c1,3.4,3.8,6,7.3,6.7c5.8,1.5,11.9,1.8,17.8,1c2.9-0.3,5.5-1.8,7.2-4.1c2-2.8,3.7-5.8,5.1-9c4.3-10.8,5.6-22.2,5.4-33.7
		c-0.3-22.2-2.7-121.3-2.7-121.3L339,706.9z"/>
	<circle id="START" class="st1" cx="436.3" cy="747.1" r="3.4"/>
</g>
</svg>
