<?xml version="1.0" encoding="utf-8"?>
<!-- Generator: Adobe Illustrator 21.0.2, SVG Export Plug-In . SVG Version: 6.00 Build 0)  -->
<svg version="1.1" id="SCENE_3" xmlns="http://www.w3.org/2000/svg" xmlns:xlink="http://www.w3.org/1999/xlink" x="0px"
	y="0px" viewBox="0 0 1024 1024" style="enable-background:new 0 0 1024 1024;" xml:space="preserve">
	<style type="text/css">
		.st0 {
			display: none;
		}

		.st1 {
			display: inline;
			fill: #231F20;
		}

		.st2 {
			display: inline;
		}

		.st3 {
			fill: #FFFFFF;
		}

		.st4 {
			fill: #231F20;
		}
	</style>
	<rect id="BACKGROUND_cobblestone" width="1024" height="1024" />
<g id="ROAD">
	<path id="TRACK_asphalt1" class="st0" d="M874.8,471.2c66.2,0,118.9-54.2,115.4-120.3c-2.4-45.7-31.7-84.3-72.5-100.2
		c-2.1-0.8-3.5-2.8-3.5-5.1v0c0-2.2,1.4-4.3,3.5-5.1c42.5-16.6,72.6-58,72.6-106.4c0-57.5-42.5-106.2-97.9-114.2l0,0h-424l0,0h-1
		c-88.3,0-157.1,72.2-150.8,160.2c1.4,19.5,6.5,38.1,14.7,54.8c1.8,3.6-0.9,7.9-4.9,7.9H300H149.3c-73.9,0-126.3,60-114.2,132.9
		c8.4,50.6,50,90,101.8,94.9v0.5h163c3,0,5.5,2.5,5.5,5.5v173.9c0,3-2.5,5.5-5.5,5.5h-90.5c-100.6,0-181.6,84.3-175.6,184.7
		C39.4,931.9,115,1004,207.6,1004c96.1,0,174-77.9,174-174c0-1.8,0-3.6-0.1-5.4h0.1v-86.9c0-3,2.5-5.5,5.5-5.5h58.1
		c4.3,0,6.9,4.7,4.7,8.4c-35.2,58.4-36.8,139.3,20.9,216.1c0.3,0.4,0.7,0.8,1.1,1.1C615.4,1066.5,773,966.8,773,830
		c0-34.1-9.8-65.9-26.8-92.8c-1.4-2.2-1-5,0.8-6.8l20.6-20.6c2.6-2.6,6.9-2,8.7,1.2c31.3,56.8,109.3,84,182.7,29.6
		c0.4-0.3,0.8-0.7,1.1-1.1c71.5-94.2,6-197.7-83.8-197.7c-10.8,0-21.2,1.5-31,4.3c-3.5,1-7-1.6-7-5.3v-64.2c0-3,2.5-5.5,5.5-5.5
		H874.8z M615.3,166.8L615.3,166.8c-0.5-22.5-5.8-43.7-15.1-62.7c-1.8-3.7,0.8-7.9,4.9-7.9h156c3.7,0,6.3,3.5,5.3,7
		c-2.8,9.8-4.3,20.3-4.3,31c0,48.4,30.1,89.8,72.6,106.4c2.1,0.8,3.5,2.8,3.5,5.1v0c0,2.2-1.4,4.3-3.5,5.1
		c-42.5,16.6-72.6,58-72.6,106.4c0,10.8,1.5,21.2,4.3,31c1,3.5-1.6,7-5.3,7H620.8c-3,0-5.5-2.5-5.5-5.5V166.8z M876.2,395.1
		c-21,0-38.1-17.1-38.1-38.1c0-21,17.1-38.1,38.1-38.1s38.1,17.1,38.1,38.1C914.3,378,897.2,395.1,876.2,395.1z M914.3,134.2
		c0,21-17.1,38.1-38.1,38.1s-38.1-17.1-38.1-38.1s17.1-38.1,38.1-38.1S914.3,113.2,914.3,134.2z M392.4,169.5
		c0-40.6,32.8-73.4,73.4-73.4s73.4,32.8,73.4,73.4s-32.8,73.4-73.4,73.4S392.4,210.1,392.4,169.5z M109.7,357.1
		c0-21,17.1-38.1,38.1-38.1c21,0,38.1,17.1,38.1,38.1c0,21-17.1,38.1-38.1,38.1C126.8,395.1,109.7,378,109.7,357.1z M280.7,395.1
		c-12.1,0-21.4-10.7-19.8-22.7c0.7-5,1-10.2,1-15.4c0-5.2-0.3-10.3-1-15.4c-1.6-12,7.7-22.7,19.8-22.7H300h168.5l0,0
		c17.3-0.3,33.9-3.6,49.3-9.3c13-4.8,26.8,5,26.8,18.8v46.6c0,11-9,20-20,20H381.5h-76.1H280.7z M401.5,471.2h123.1c11,0,20,9,20,20
		v144.8c0,11-9,20-20,20H401.5c-11,0-20-9-20-20V491.2C381.5,480.2,390.5,471.2,401.5,471.2z M207.6,927.9
		c-54,0-97.9-43.8-97.9-97.9s43.8-97.9,97.9-97.9s97.9,43.8,97.9,97.9S261.6,927.9,207.6,927.9z M599,927.9
		c-54,0-97.9-43.8-97.9-97.9s43.8-97.9,97.9-97.9c54,0,97.9,43.8,97.9,97.9S653,927.9,599,927.9z M876.2,618
		c21,0,38.1,17.1,38.1,38.1s-17.1,38.1-38.1,38.1s-38.1-17.1-38.1-38.1S855.3,618,876.2,618z M615.3,637.3v-146c0-11,9-20,20-20
		h106.8c11,0,20,9,20,20v108.2c0,5.3-2.1,10.4-5.9,14.1L699.8,670c-6.4,6.4-16.3,7.7-24.2,3.2c-14.3-8.3-26.1-13.8-42.8-16
		C622.8,655.8,615.3,647.4,615.3,637.3z"/>
	<circle id="START" cx="365.9" cy="573.7" r="3.8"/>
	<g id="CHECK">
		<rect id="_x31_" x="284.5" y="369.1" class="st1" width="4.6" height="114.1"/>
		<rect id="_x32_" x="415.8" y="13.7" class="st1" width="14.3" height="114.8"/>
		<rect id="_x33_" x="597.1" y="902.5" class="st1" width="11.4" height="114.8"/>
	</g>
</g>


<g id="layout">
	<path class="st3" d="M599,1000c-42.4,0-85.5-15.7-124.7-45.4c-0.1-0.1-0.2-0.2-0.3-0.3c-27-35.9-42-73.9-44.5-112.8
		c-2.3-35,6-69.2,23.8-98.8c1.8-2.9,1.8-6.6,0.1-9.6c-1.7-3-4.8-4.8-8.2-4.8H387c-5.2,0-9.5,4.3-9.5,9.5v82.9h-0.4l0.2,4.2
		c0.1,1.7,0.1,3.4,0.1,5.2c0,93.7-76.2,170-170,170c-89.7,0-164.2-70.1-169.7-159.5c-2.8-46.9,13.5-91.7,45.9-126.1
		c32.5-34.5,78.3-54.3,125.7-54.3h90.5c5.2,0,9.5-4.3,9.5-9.5V476.7c0-5.2-4.3-9.5-9.5-9.5h-159V467l-3.6-0.3
		c-49.7-4.7-90.1-42.3-98.2-91.6c-5.6-33.6,2.7-65.5,23.4-89.8c21-24.8,51.9-38.4,86.9-38.4h177.1c3.3,0,6.3-1.7,8.1-4.5
		c1.7-2.8,1.9-6.2,0.5-9.1c-8.2-16.7-13-34.6-14.3-53.3c-2.9-41,10.7-79.8,38.2-109.4c28-30,66.6-46.6,108.7-46.6h424.8l0.1,0
		c53.6,7.9,94.1,55.2,94.1,110.2c0,22.6-6.8,44.3-19.7,62.8c-12.6,18.1-30,31.8-50.4,39.8c-3.7,1.4-6,4.9-6,8.8c0,3.9,2.4,7.4,6,8.8
		c40.2,15.7,67.7,53.7,69.9,96.7c1.6,30.4-9,59.3-29.9,81.3c-21.3,22.4-50.2,34.8-81.6,34.8h-31.1c-5.2,0-9.5,4.3-9.5,9.5v64.2
		c0,2.6,1,5,2.8,6.8c1.8,1.7,4.1,2.7,6.6,2.7c0,0,0,0,0,0c0.9,0,1.8-0.1,2.6-0.4c9.6-2.7,19.7-4.1,30-4.1c42.2,0,80,23.5,98.7,61.2
		c20.2,40.8,13.6,88.2-18.2,130c-0.1,0.2-0.2,0.3-0.3,0.3c-25.3,18.8-53.1,28.7-80.2,28.7c-40.1,0-77.1-21.9-96.5-57
		c-1.7-3-4.9-4.9-8.3-4.9c-2.5,0-4.9,1-6.7,2.8l-20.6,20.6c-3.2,3.2-3.7,8-1.3,11.7c17.1,27.2,26.2,58.5,26.2,90.7
		c0,45.4-17.7,88.1-49.8,120.2C687.1,982.3,644.4,1000,599,1000z M387,726.2h58.1c4.2,0,7.9,2.2,10,5.8c2,3.6,2,8.1-0.2,11.6
		c-17.6,29.3-25.8,63.1-23.5,97.7c2.5,38.6,17.4,76.1,44.1,111.8C514.3,982.4,557,998,599,998c44.9,0,87.1-17.5,118.8-49.2
		C749.5,917.1,767,874.9,767,830c0-31.8-8.9-62.8-25.9-89.6c-2.9-4.6-2.2-10.4,1.6-14.2l20.6-20.6c2.2-2.2,5-3.4,8.1-3.4
		c4.2,0,8.1,2.3,10.1,6c19.1,34.5,55.4,56,94.8,56c26.7,0,54-9.8,79-28.3c31.3-41.2,37.8-87.8,17.9-127.9
		c-18.4-37.1-55.6-60.1-97-60.1c-10,0-19.9,1.4-29.4,4.1c-1,0.3-2.1,0.4-3.2,0.4c0,0,0,0,0,0c-3,0-5.9-1.2-8-3.3
		c-2.2-2.2-3.5-5.1-3.5-8.2v-64.2c0-6.3,5.2-11.5,11.5-11.5h31.1c30.8,0,59.2-12.1,80.1-34.1c20.5-21.6,30.9-49.9,29.3-79.8
		c-2.2-42.3-29.2-79.6-68.7-95c-4.4-1.7-7.3-5.9-7.3-10.7c0-4.8,2.9-9,7.3-10.7c20.1-7.8,37.2-21.3,49.5-39.1
		c12.6-18.1,19.3-39.5,19.3-61.7c0-53.9-39.7-100.4-92.3-108.2H467.5c-41.5,0-79.6,16.3-107.2,45.9c-27.1,29.1-40.5,67.4-37.7,107.9
		c1.3,18.4,6.1,36.1,14.1,52.6c1.7,3.6,1.5,7.7-0.6,11.1c-2.1,3.4-5.8,5.4-9.8,5.4H149.3c-34.4,0-64.8,13.4-85.4,37.7
		c-20.2,23.8-28.4,55.2-22.9,88.2c8,48.4,47.6,85.3,96.4,89.9l5.4,0.5h157c6.3,0,11.5,5.2,11.5,11.5v173.9c0,6.3-5.2,11.5-11.5,11.5
		h-90.5c-46.8,0-92.1,19.6-124.2,53.7c-32,34-48.1,78.3-45.3,124.6c5.4,88.4,79,157.6,167.7,157.6c92.6,0,168-75.3,168-168
		c0-1.8,0-3.4-0.1-5.1l-0.4-6.4h0.5v-80.9C375.5,731.3,380.7,726.2,387,726.2z"/>
	<path class="st3" d="M599,933.9c-57.3,0-103.9-46.6-103.9-103.9S541.7,726.2,599,726.2S702.8,772.8,702.8,830
		S656.3,933.9,599,933.9z M599,728.2c-56.2,0-101.9,45.7-101.9,101.9S542.8,931.9,599,931.9S700.8,886.2,700.8,830
		S655.1,728.2,599,728.2z"/>
	<path class="st3" d="M207.6,933.9c-57.3,0-103.9-46.6-103.9-103.9s46.6-103.9,103.9-103.9S311.4,772.8,311.4,830
		S264.8,933.9,207.6,933.9z M207.6,728.2c-56.2,0-101.9,45.7-101.9,101.9s45.7,101.9,101.9,101.9c56.2,0,101.9-45.7,101.9-101.9
		S263.7,728.2,207.6,728.2z"/>
	<path class="st3" d="M876.2,700.1c-24.3,0-44.1-19.8-44.1-44.1S852,612,876.2,612s44.1,19.8,44.1,44.1S900.5,700.1,876.2,700.1z
		 M876.2,614c-23.2,0-42.1,18.9-42.1,42.1s18.9,42.1,42.1,42.1s42.1-18.9,42.1-42.1S899.4,614,876.2,614z"/>
	<path class="st3" d="M685.7,681.8c-4.6,0-9.1-1.2-13-3.5c-14-8.1-25.2-13.2-40.6-15.2c-13-1.7-22.8-12.8-22.8-25.8v-146
		c0-14.3,11.7-26,26-26h106.8c14.3,0,26,11.7,26,26v108.2c0,6.9-2.7,13.5-7.6,18.4L704,674.2C699.1,679.1,692.6,681.8,685.7,681.8z
		 M635.3,467.2c-13.2,0-24,10.8-24,24v146c0,12,9,22.2,21,23.8c15.7,2.1,27.1,7.2,41.3,15.5c3.7,2.1,7.8,3.2,12,3.2
		c6.4,0,12.4-2.5,17-7l56.4-56.4c4.5-4.5,7-10.6,7-17V491.2c0-13.2-10.8-24-24-24H635.3z"/>
	<path class="st3" d="M524.6,662.1H401.5c-14.3,0-26-11.7-26-26V491.2c0-14.3,11.7-26,26-26h123.1c14.3,0,26,11.7,26,26v144.8
		C550.6,650.4,539,662.1,524.6,662.1z M401.5,467.2c-13.2,0-24,10.8-24,24v144.8c0,13.2,10.8,24,24,24h123.1c13.2,0,24-10.8,24-24
		V491.2c0-13.2-10.8-24-24-24H401.5z"/>
	<path class="st3" d="M876.2,401.1c-24.3,0-44.1-19.8-44.1-44.1c0-24.3,19.8-44.1,44.1-44.1s44.1,19.8,44.1,44.1
		C920.3,381.4,900.5,401.1,876.2,401.1z M876.2,315c-23.2,0-42.1,18.9-42.1,42.1s18.9,42.1,42.1,42.1s42.1-18.9,42.1-42.1
		S899.4,315,876.2,315z"/>
	<path class="st3" d="M761.1,401.1H620.8c-6.3,0-11.5-5.2-11.5-11.5V166.8c-0.5-21.2-5.3-41.4-14.5-60.2c-1.8-3.6-1.5-7.8,0.6-11.2
		c2.1-3.4,5.7-5.4,9.7-5.4h156c3.6,0,7,1.7,9.1,4.6c2.2,2.9,2.9,6.6,1.9,10.1c-2.7,9.5-4,19.4-4,29.4c0,22.2,6.7,43.5,19.3,61.7
		c12.3,17.7,29.5,31.3,49.5,39.1c4.4,1.7,7.3,5.9,7.3,10.7s-2.9,9-7.3,10.7c-20.1,7.8-37.2,21.3-49.5,39.1
		c-12.6,18.1-19.3,39.5-19.3,61.7c0,10,1.4,19.9,4.1,29.4c1,3.5,0.3,7.2-1.9,10.1C768.1,399.5,764.7,401.1,761.1,401.1z M605.1,92.1
		c-3.3,0-6.3,1.7-8,4.4c-1.8,2.8-1.9,6.3-0.5,9.2c9.3,19,14.2,39.5,14.7,61v222.8c0,5.2,4.3,9.5,9.5,9.5h140.3c3,0,5.7-1.4,7.6-3.8
		c1.8-2.4,2.4-5.4,1.6-8.3c-2.7-9.6-4.1-19.7-4.1-30c0-22.6,6.8-44.3,19.7-62.8c12.6-18.1,30-31.8,50.4-39.8c3.7-1.4,6-4.9,6-8.8
		s-2.4-7.4-6-8.8c-20.4-8-37.9-21.7-50.4-39.8c-12.9-18.5-19.7-40.2-19.7-62.8c0-10.2,1.4-20.3,4.1-30c0.8-2.9,0.3-5.9-1.6-8.3
		c-1.8-2.4-4.6-3.8-7.6-3.8H605.1z"/>
	<path class="st3" d="M524.6,401.1H280.7c-7.5,0-14.6-3.2-19.6-8.9c-4.9-5.6-7.2-13.2-6.2-20.6c0.6-4.8,1-9.7,1-14.6
		c0-4.9-0.3-9.8-1-14.6c-1-7.4,1.3-15,6.2-20.6c4.9-5.6,12.1-8.9,19.6-8.9l187.7,0c16.3-0.3,32.3-3.3,47.3-8.9
		c2.9-1.1,5.9-1.6,8.9-1.6c14.3,0,25.9,11.7,25.9,26.1v46.6C550.6,389.5,539,401.1,524.6,401.1z M280.7,315c-6.9,0-13.5,3-18.1,8.2
		c-4.6,5.2-6.6,12.1-5.7,19c0.7,4.9,1,9.9,1,14.8s-0.3,10-1,14.8c-0.9,6.9,1.2,13.8,5.7,19c4.6,5.2,11.1,8.2,18.1,8.2h243.9
		c13.2,0,24-10.8,24-24v-46.6c0-13.3-10.7-24.1-23.9-24.1c-2.8,0-5.6,0.5-8.2,1.5c-15.3,5.7-31.4,8.7-48,9L280.7,315z"/>
	<path class="st3" d="M147.8,401.1c-24.3,0-44.1-19.8-44.1-44.1c0-24.3,19.8-44.1,44.1-44.1s44.1,19.8,44.1,44.1
		C191.8,381.4,172,401.1,147.8,401.1z M147.8,315c-23.2,0-42.1,18.9-42.1,42.1s18.9,42.1,42.1,42.1s42.1-18.9,42.1-42.1
		S170.9,315,147.8,315z"/>
	<path class="st3" d="M465.8,248.9c-43.8,0-79.4-35.6-79.4-79.4c0-43.8,35.6-79.4,79.4-79.4c43.8,0,79.4,35.6,79.4,79.4
		C545.2,213.3,509.6,248.9,465.8,248.9z M465.8,92.1c-42.7,0-77.4,34.7-77.4,77.4s34.7,77.4,77.4,77.4s77.4-34.7,77.4-77.4
		S508.5,92.1,465.8,92.1z"/>
	<path class="st3" d="M876.2,178.2c-24.3,0-44.1-19.8-44.1-44.1c0-24.3,19.8-44.1,44.1-44.1s44.1,19.8,44.1,44.1
		C920.3,158.5,900.5,178.2,876.2,178.2z M876.2,92.1c-23.2,0-42.1,18.9-42.1,42.1s18.9,42.1,42.1,42.1s42.1-18.9,42.1-42.1
		S899.4,92.1,876.2,92.1z"/>
</g>

<g id="OBSTACLES">
	<path id="10_stone3" class="st1" d="M207.6,1024c-33.1,0-65.7-8.4-94.4-24.4c-2.4-1.3-3.3-4.4-1.9-6.8c1.3-2.4,4.4-3.3,6.8-1.9
		c27.2,15.1,58.1,23.1,89.5,23.1c24.1,0,47.5-4.6,69.7-13.7c2.6-1.1,5.5,0.2,6.5,2.7c1,2.6-0.2,5.5-2.7,6.5
		C257.7,1019.1,233,1024,207.6,1024z"/>
	<path id="10_stone3" class="st1" d="M599,1024C599,1024,599,1024,599,1024c-12.4,0-25-1.2-37.5-3.6c-2.7-0.5-4.5-3.1-4-5.8s3.1-4.5,5.8-4
		c11.9,2.2,23.9,3.4,35.6,3.4c0,0,0,0,0,0c19.4,0,38.5-3,56.7-8.9c2.6-0.8,5.4,0.6,6.3,3.2c0.8,2.6-0.6,5.4-3.2,6.3
		C639.6,1020.9,619.5,1024,599,1024z"/>
	<path id="10_stone3" class="st1" d="M546.9,1017c-0.4,0-0.9-0.1-1.3-0.2c-29.8-8-58.6-22.5-85.7-43c-0.4-0.3-0.9-0.7-1.3-1.1
		c-2.1-1.8-2.3-5-0.5-7.1c1.8-2.1,5-2.3,7.1-0.5c0.3,0.2,0.5,0.5,0.8,0.7c26.1,19.8,53.8,33.7,82.3,41.4c2.7,0.7,4.2,3.5,3.5,6.1
		C551.1,1015.5,549.1,1017,546.9,1017z"/>
	<path id="10_stone3" class="st1" d="M672.3,1009.3c-2,0-3.8-1.2-4.6-3.1c-1.1-2.5,0.1-5.5,2.7-6.5c21.9-9.2,41.7-22.5,58.8-39.6
		c5.2-5.2,10.2-10.8,14.7-16.5c1.7-2.2,4.9-2.5,7-0.8c2.2,1.7,2.5,4.9,0.8,7c-4.8,6.1-10,11.9-15.5,17.4c-18,18-38.8,32-62,41.8
		C673.6,1009.2,672.9,1009.3,672.3,1009.3z"/>
	<path id="10_stone3" class="st1" d="M293.7,1003.2c-1.8,0-3.6-1-4.5-2.7c-1.3-2.5-0.3-5.5,2.2-6.7c27.7-14.3,51.6-35.5,69.1-61.5
		c1.5-2.3,4.6-2.9,6.9-1.4c2.3,1.5,2.9,4.6,1.4,6.9c-18.4,27.4-43.6,49.8-72.8,64.8C295.2,1003.1,294.4,1003.2,293.7,1003.2z"/>
	<path id="10_stone3" class="st1" d="M102,991.9c-1,0-1.9-0.3-2.8-0.9c-8.8-5.9-17.2-12.6-24.9-19.9c-16.3-15.4-29.7-33.2-39.8-53
		c-1.3-2.5-0.3-5.5,2.2-6.7c2.5-1.3,5.5-0.3,6.7,2.2c9.6,18.8,22.3,35.7,37.7,50.3c7.3,6.9,15.3,13.3,23.6,18.9
		c2.3,1.5,2.9,4.7,1.4,6.9C105.2,991.1,103.6,991.9,102,991.9z"/>
	<path id="10_stone3" class="st1" d="M452,961.3c-1.6,0-3.1-0.8-4.1-2.2c-19.7-28.6-32.8-58.6-38.8-89.3c-0.5-2.7,1.2-5.3,3.9-5.9
		c2.7-0.5,5.3,1.2,5.9,3.9c5.8,29.3,18.3,58.1,37.2,85.5c1.6,2.3,1,5.4-1.3,7C454,961,453,961.3,452,961.3z"/>
	<path id="10_stone3" class="st1" d="M757.1,938.7c-0.9,0-1.9-0.3-2.7-0.8c-2.3-1.5-2.9-4.6-1.4-6.9c17.1-26,27.4-56.3,29.6-87.5
		c0.2-2.8,2.6-4.8,5.3-4.6c2.8,0.2,4.8,2.6,4.6,5.3c-2.4,33-13.2,64.9-31.2,92.3C760.3,937.9,758.7,938.7,757.1,938.7z"/>
	<path id="10_stone3" class="st1" d="M373,926.5c-0.8,0-1.7-0.2-2.4-0.6c-2.4-1.3-3.3-4.4-1.9-6.8c13.7-24.7,21.4-51.5,22.8-79.7
		c0-0.4,0.1-0.9,0.2-1.3v-8.3c0-2.8,2.2-5,5-5c2.8,0,5,2.2,5,5v9.9c0,0.6-0.1,1.2-0.3,1.8c-1.7,29.2-9.7,56.9-23.9,82.5
		C376.4,925.5,374.7,926.5,373,926.5z"/>
	<path id="10_stone3" class="st1" d="M599,917.9c-13.1,0-25.7-2.8-37.4-8.4c-2.5-1.2-3.6-4.2-2.4-6.7c1.2-2.5,4.2-3.6,6.7-2.4
		c10.4,4.9,21.6,7.4,33.2,7.4c18.8,0,37-6.8,51.2-19.2c2.1-1.8,5.2-1.6,7.1,0.5c1.8,2.1,1.6,5.2-0.5,7.1
		C640.8,910.2,620.2,917.9,599,917.9z"/>
	<path id="10_stone3" class="st1" d="M207.6,917.9c-13.1,0-25.7-2.8-37.4-8.4c-2.5-1.2-3.6-4.2-2.4-6.7c1.2-2.5,4.2-3.6,6.7-2.4
		c10.4,4.9,21.6,7.4,33.2,7.4c18.8,0,37-6.8,51.2-19.2c2.1-1.8,5.2-1.6,7.1,0.5c1.8,2.1,1.6,5.2-0.5,7.1
		C249.4,910.2,228.8,917.9,207.6,917.9z"/>
	<path id="10_stone3" class="st1" d="M32.4,906.3c-2,0-3.8-1.2-4.6-3.1c-7.9-19.5-12.6-40.1-13.9-61.2c-0.2-3.9-0.4-7.9-0.4-11.8
		c0-7.9,0.5-15.8,1.4-23.6c0.3-2.7,2.8-4.7,5.6-4.4c2.7,0.3,4.7,2.8,4.4,5.6c-0.9,7.4-1.4,14.9-1.4,22.4c0,3.7,0.1,7.5,0.3,11.2
		c1.2,20,5.7,39.6,13.2,58.1c1,2.6-0.2,5.5-2.7,6.5C33.6,906.1,33,906.3,32.4,906.3z"/>
	<path id="10_stone3" class="st1" d="M550,901.8c-1,0-2.1-0.3-3-1c-22.5-16.5-35.9-43-35.9-70.8c0-6.5,0.7-12.9,2.1-19.2c0.6-2.7,3.3-4.4,6-3.8
		c2.7,0.6,4.4,3.3,3.8,6c-1.2,5.5-1.9,11.3-1.9,17c0,24.6,11.9,48.1,31.8,62.8c2.2,1.6,2.7,4.8,1.1,7
		C553,901.1,551.5,901.8,550,901.8z"/>
	<path id="10_stone3" class="st1" d="M158.6,901.8c-1,0-2.1-0.3-3-1c-22.5-16.5-35.9-43-35.9-70.8c0-6.5,0.7-12.9,2.1-19.2c0.6-2.7,3.3-4.4,6-3.8
		c2.7,0.6,4.4,3.3,3.8,6c-1.2,5.5-1.9,11.3-1.9,17c0,24.6,11.9,48.1,31.8,62.8c2.2,1.6,2.7,4.8,1.1,7
		C161.6,901.1,160.1,901.8,158.6,901.8z"/>
	<path id="10_stone3" class="st1" d="M664.5,885.8c-1.1,0-2.2-0.3-3.1-1.1c-2.2-1.7-2.6-4.8-0.9-7c10.7-13.8,16.4-30.3,16.4-47.7
		c0-13-3.3-25.8-9.5-37.2c-1.3-2.4-0.4-5.5,2-6.8c2.4-1.3,5.5-0.4,6.8,2c7,12.8,10.7,27.3,10.7,42c0,19.7-6.4,38.3-18.5,53.9
		C667.4,885.1,666,885.8,664.5,885.8z"/>
	<path id="10_stone3" class="st1" d="M273.1,885.8c-1.1,0-2.2-0.3-3.1-1.1c-2.2-1.7-2.6-4.8-0.9-7c10.7-13.8,16.4-30.3,16.4-47.7
		c0-13-3.3-25.8-9.5-37.2c-1.3-2.4-0.4-5.5,2-6.8c2.4-1.3,5.5-0.4,6.8,2c7,12.8,10.7,27.3,10.7,42c0,19.7-6.4,38.3-18.5,53.9
		C276,885.1,274.6,885.8,273.1,885.8z"/>
	<path id="10_stone3" class="st1" d="M411.5,858c-2.5,0-4.7-1.9-5-4.4c-0.4-3.5-0.7-7.1-1-10.6c-0.3-4.3-0.4-8.7-0.4-13c0-25.3,4.8-49.9,14.2-73.1
		c1-2.6,4-3.8,6.5-2.7c2.6,1,3.8,4,2.7,6.5c-9,22-13.5,45.3-13.5,69.3c0,4.1,0.1,8.2,0.4,12.3c0.2,3.4,0.5,6.7,0.9,10.1
		c0.3,2.7-1.6,5.2-4.4,5.5C411.9,858,411.7,858,411.5,858z"/>
	<path id="10_stone3" class="st1" d="M788,832.8c-2.7,0-5-2.2-5-4.9c-0.4-31.3-8.7-62.2-24.3-89.2c-1.4-2.4-0.5-5.5,1.9-6.8
		c2.4-1.4,5.5-0.5,6.8,1.9c0.4,0.7,0.8,1.4,1.2,2.2c-1-2.1-0.5-4.7,1.5-6.2c2.2-1.7,5.3-1.2,7,1c18.8,24.9,46,41.8,76.7,47.4
		c2.7,0.5,4.5,3.1,4,5.8c-0.5,2.7-3.1,4.5-5.8,4c-33.1-6.1-62.6-24.3-82.9-51.3c-0.1-0.1-0.2-0.3-0.3-0.4
		c15.4,27.9,23.8,59.5,24.1,91.5C793,830.5,790.8,832.8,788,832.8C788,832.8,788,832.8,788,832.8z"/>
	<path id="10_stone3" class="st1" d="M396.6,818.7c-2.8,0-5-2.2-5-5v-66.5c0-2.8,2.2-5,5-5h29.5c2.8,0,5,2.2,5,5s-2.2,5-5,5h-24.5v61.5
		C401.6,816.5,399.4,818.7,396.6,818.7z"/>
	<path id="10_stone3" class="st1" d="M523.1,801.7c-0.7,0-1.4-0.1-2-0.4c-2.5-1.1-3.7-4.1-2.6-6.6c14.1-32,45.7-52.6,80.5-52.6
		c26.2,0,50.9,11.6,67.7,31.9c1.8,2.1,1.5,5.3-0.7,7c-2.1,1.8-5.3,1.5-7-0.7c-14.9-18-36.8-28.3-60-28.3
		c-30.9,0-58.9,18.3-71.4,46.6C526.8,800.6,525,801.7,523.1,801.7z"/>
	<path id="10_stone3" class="st1" d="M131.7,801.7c-0.7,0-1.4-0.1-2-0.4c-2.5-1.1-3.7-4.1-2.6-6.6c14.1-32,45.7-52.6,80.5-52.6
		c26.2,0,50.9,11.6,67.7,31.9c1.8,2.1,1.5,5.3-0.7,7c-2.1,1.8-5.3,1.5-7-0.7c-14.9-18-36.8-28.3-60-28.3
		c-30.9,0-58.9,18.3-71.4,46.6C135.4,800.6,133.6,801.7,131.7,801.7z"/>
	<path id="10_stone3" class="st1" d="M22.5,796.3c-0.3,0-0.7,0-1-0.1c-2.7-0.6-4.4-3.2-3.9-5.9c6.7-32,21.9-62.1,43.8-87.1c1.8-2.1,5-2.3,7.1-0.5
		c2.1,1.8,2.3,5,0.5,7.1c-20.8,23.7-35.1,52.3-41.5,82.6C26.9,794.7,24.8,796.3,22.5,796.3z"/>
	<path id="10_stone3" class="st1" d="M876.3,790.1C876.3,790.1,876.3,790.1,876.3,790.1c-2.6,0-5.3-0.1-7.9-0.2c-2.8-0.2-4.9-2.5-4.7-5.3
		c0.2-2.8,2.6-4.9,5.3-4.7c2.4,0.1,4.9,0.2,7.3,0.2c27,0,54.8-8.9,80.3-25.7c2.3-1.5,5.4-0.9,6.9,1.4c1.5,2.3,0.9,5.4-1.4,6.9
		C935,780.7,905.3,790.1,876.3,790.1z"/>
	<path id="10_stone3" class="st1" d="M971.9,753.8c-1.1,0-2.1-0.3-3-1c-2.2-1.7-2.6-4.8-1-7l0.1-0.2c18.2-23.9,28.8-49.4,31.7-75.6
		c0.3-3.2,0.6-6.4,0.7-9.6c0.1-2.8,2.4-4.9,5.2-4.8c2.8,0.1,4.9,2.4,4.8,5.2c-0.1,3.4-0.4,6.9-0.7,10.4
		c-3.1,28.1-14.4,55.2-33.7,80.6l-0.2,0.2C974.9,753.1,973.4,753.8,971.9,753.8z"/>
	<path id="10_stone3" class="st1" d="M76.2,699.9c-1.3,0-2.6-0.5-3.6-1.5c-1.9-2-1.9-5.1,0.1-7.1c16.7-16.2,36-29.2,57.4-38.7
		c8.8-3.9,18-7.2,27.2-9.7c2.7-0.7,5.4,0.8,6.1,3.5c0.7,2.7-0.8,5.4-3.5,6.1c-8.8,2.4-17.5,5.5-25.8,9.2
		c-20.3,9-38.6,21.3-54.5,36.7C78.7,699.4,77.4,699.9,76.2,699.9z"/>
	<path id="10_stone3" class="st1" d="M876.2,684.2c-15.5,0-28.1-12.6-28.1-28.1c0-15.5,12.6-28.1,28.1-28.1c14,0,26,10.5,27.8,24.3
		c0.4,2.7-1.5,5.3-4.3,5.6c-2.7,0.4-5.3-1.5-5.6-4.3c-1.2-8.9-8.9-15.7-17.9-15.7c-10,0-18.1,8.1-18.1,18.1s8.1,18.1,18.1,18.1
		c6.3,0,12-3.2,15.4-8.5c1.5-2.3,4.6-3.1,6.9-1.6c2.3,1.5,3.1,4.5,1.6,6.9C894.9,679.3,885.9,684.2,876.2,684.2z"/>
	<path id="10_stone3" class="st1" d="M685.6,665.9c-1.8,0-3.4-0.4-5-1.3c-15.3-8.9-28.4-14.9-46.4-17.3c-5.2-0.8-8.9-5-8.9-10v-19c0-2.8,2.2-5,5-5
		s5,2.2,5,5v19c0,0,0.1,0.1,0.3,0.1c19.6,2.6,33.7,9,50,18.5c0,0,0,0,0.1,0l56.5-56.4v-5.6c0-2.8,2.2-5,5-5s5,2.2,5,5v5.7
		c0,2.6-1,5.2-2.9,6.9l-56.5,56.5C690.8,664.8,688.3,665.9,685.6,665.9z"/>
	<path id="10_stone3" class="st1" d="M742.2,599.3C742.2,599.3,742.2,599.3,742.2,599.3L742.2,599.3z"/>
	<path id="10_stone3" class="st1" d="M1005,649.5c-2.6,0-4.7-2-5-4.6c-1.4-15.5-5.5-30.3-12.4-44.1c-6.9-13.9-16.2-26.2-27.7-36.7
		c-2-1.9-2.2-5-0.3-7.1c1.9-2,5-2.2,7.1-0.3c12.4,11.3,22.4,24.6,29.9,39.6c7.4,14.9,11.9,31,13.4,47.7c0.2,2.8-1.8,5.2-4.5,5.4
		C1005.3,649.5,1005.1,649.5,1005,649.5z"/>
	<path id="10_stone3" class="st1" d="M174.2,649.2c-2.4,0-4.5-1.7-4.9-4.1c-0.5-2.7,1.3-5.3,4-5.8c11.8-2.2,23.9-3.3,36.1-3.3H270c2.8,0,5,2.2,5,5
		s-2.2,5-5,5h-60.6c-11.5,0-23.1,1.1-34.3,3.1C174.8,649.2,174.5,649.2,174.2,649.2z"/>
	<path id="10_stone3" class="st1" d="M524.6,646H465c-2.8,0-5-2.2-5-5s2.2-5,5-5h59.6v-28.6c0-2.8,2.2-5,5-5s5,2.2,5,5V636
		C534.6,641.5,530.1,646,524.6,646z"/>
	<path id="10_stone3" class="st1" d="M449,646h-47.5c-5.5,0-10-4.5-10-10v-40.6c0-2.8,2.2-5,5-5s5,2.2,5,5V636H449c2.8,0,5,2.2,5,5
		S451.8,646,449,646z"/>
	<path id="10_stone3" class="st1" d="M290.4,646H286c-2.8,0-5-2.2-5-5c0-2.5,1.9-4.6,4.4-5v-86.7c0-2.8,2.2-5,5-5s5,2.2,5,5V641
		C295.4,643.8,293.2,646,290.4,646z"/>
	<path id="10_stone3" class="st1" d="M630.3,607.3c-2.8,0-5-2.2-5-5v-96c0-2.8,2.2-5,5-5s5,2.2,5,5v96C635.3,605.1,633.1,607.3,630.3,607.3z"/>
	<path id="10_stone3" class="st1" d="M529.6,596.4c-2.8,0-5-2.2-5-5v-96c0-2.8,2.2-5,5-5s5,2.2,5,5v96C534.6,594.2,532.4,596.4,529.6,596.4z"/>
	<path id="10_stone3" class="st1" d="M396.5,584.4c-2.8,0-5-2.2-5-5v-88.2c0-5.5,4.5-10,10-10h7.1c2.8,0,5,2.2,5,5c0,2.8-2.2,5-5,5h-7.1v88.2
		C401.5,582.1,399.3,584.4,396.5,584.4z"/>
	<path id="10_stone3" class="st1" d="M747.1,582.8c-2.8,0-5-2.2-5-5v-86.5h-1.6c-2.8,0-5-2.2-5-5s2.2-5,5-5h1.6c5.5,0,10,4.5,10,10v86.5
		C752.1,580.6,749.9,582.8,747.1,582.8z"/>
	<path id="10_stone3" class="st1" d="M950.8,555.4c-1,0-2-0.3-2.9-0.9c-1.7-1.2-3.5-2.4-5.3-3.6c-19.8-12.5-42.8-19.2-66.4-19.2c0,0,0,0,0,0
		c-5.3,0-10.6,0.3-15.8,1c-2.7,0.4-5.2-1.6-5.6-4.3c-0.4-2.7,1.6-5.2,4.3-5.6c5.6-0.7,11.4-1.1,17.1-1.1c0,0,0,0,0,0
		c25.5,0,50.3,7.2,71.7,20.7c1.9,1.2,3.9,2.5,5.7,3.8c2.3,1.6,2.8,4.7,1.2,7C954,554.7,952.4,555.4,950.8,555.4z"/>
	<path id="10_stone3" class="st1" d="M290.4,538.4c-2.8,0-5-2.2-5-5v-42.3h-43.7c-2.8,0-5-2.2-5-5s2.2-5,5-5h48.7c2.8,0,5,2.2,5,5v47.3
		C295.4,536.1,293.2,538.4,290.4,538.4z"/>
	<path id="10_stone3" class="st1" d="M853.3,524.4c-2.8,0-5-2.2-5-5v-33.3c0-2.8,2.2-5,5-5h6.5c0.3,0,0.7,0,1,0.1h14c13.4,0,26.5-2,38.9-6
		c2.6-0.8,5.4,0.6,6.3,3.3c0.8,2.6-0.6,5.4-3.3,6.3c-13.4,4.3-27.5,6.4-41.9,6.4h-15c-0.3,0-0.7,0-1-0.1h-0.5v28.3
		C858.3,522.2,856.1,524.4,853.3,524.4z"/>
	<path id="10_stone3" class="st1" d="M630.4,495.3c-0.3,0-0.7,0-1-0.1c-2.7-0.6-4.4-3.2-3.9-5.9c1-4.6,5.1-8,9.8-8h89.2c2.8,0,5,2.2,5,5s-2.2,5-5,5
		h-89.2C634.8,493.7,632.7,495.3,630.4,495.3z"/>
	<path id="10_stone3" class="st1" d="M520.6,491.2h-96c-2.8,0-5-2.2-5-5c0-2.8,2.2-5,5-5h96c2.8,0,5,2.2,5,5C525.6,489,523.4,491.2,520.6,491.2z"/>
	<path id="10_stone3" class="st1" d="M225.7,491.1h-96c-2.8,0-5-2.2-5-5s2.2-5,5-5h96c2.8,0,5,2.2,5,5S228.4,491.1,225.7,491.1z"/>
	<path id="10_stone3" class="st1" d="M116.4,487.3c-0.4,0-0.8,0-1.2-0.1C82.5,479,54.3,459,35.7,430.8c-1.5-2.3-0.9-5.4,1.4-6.9
		c2.3-1.5,5.4-0.9,6.9,1.4c17.2,26.1,43.3,44.6,73.6,52.2c2.7,0.7,4.3,3.4,3.6,6.1C120.7,485.8,118.6,487.3,116.4,487.3z"/>
	<path id="10_stone3" class="st1" d="M930.1,479.2c-1.9,0-3.7-1.1-4.5-2.9c-1.2-2.5-0.1-5.5,2.5-6.6c14.4-6.6,27.4-15.9,38.5-27.6
		c10.4-11,18.6-23.5,24.3-37.1c1.1-2.5,4-3.7,6.5-2.7c2.5,1.1,3.7,4,2.7,6.5c-6.2,14.8-15.1,28.3-26.3,40.1
		c-12,12.6-25.9,22.7-41.5,29.8C931.5,479.1,930.8,479.2,930.1,479.2z"/>
	<path id="10_stone3" class="st1" d="M31.9,419.2c-1.8,0-3.6-1-4.5-2.8c-5.8-11.8-9.9-24.4-12-37.4c-1.3-8.1-2-16.3-2-24.3c0-12.1,1.6-24,4.6-35.4
		c0.7-2.7,3.5-4.2,6.1-3.5c2.7,0.7,4.2,3.5,3.5,6.1c-2.8,10.5-4.3,21.5-4.3,32.8c0,7.4,0.6,15.1,1.9,22.6c2,12.1,5.8,23.7,11.1,34.6
		c1.2,2.5,0.2,5.5-2.3,6.7C33.4,419,32.6,419.2,31.9,419.2z"/>
	<path id="10_stone3" class="st1" d="M1000.7,396.8c-0.4,0-0.9-0.1-1.3-0.2c-2.7-0.7-4.2-3.5-3.5-6.2c3-10.7,4.5-21.9,4.5-33.3
		c0-2.3-0.1-4.5-0.2-6.8c-0.9-17.4-5.4-34.1-13.3-49.7c-1.3-2.5-0.3-5.5,2.2-6.7c2.5-1.3,5.5-0.3,6.7,2.2
		c8.6,16.8,13.4,34.9,14.4,53.7c0.1,2.4,0.2,4.9,0.2,7.3c0,12.2-1.6,24.3-4.9,35.9C1004.9,395.3,1002.9,396.8,1000.7,396.8z"/>
	<path id="10_stone3" class="st1" d="M749.2,385.2h-49.9c-2.8,0-5-2.2-5-5c0-2.8,2.2-5,5-5h44c-0.8-5.9-1.2-12-1.2-18c0-25.5,7.2-50.3,20.8-71.7
		c1.5-2.3,4.6-3,6.9-1.5c2.3,1.5,3,4.6,1.5,6.9c-12.6,19.8-19.2,42.8-19.2,66.4c0,7.4,0.7,14.9,2,22.1c0.3,1.5-0.1,3-1.1,4.1
		S750.6,385.2,749.2,385.2z"/>
	<path id="10_stone3" class="st1" d="M683.3,385.2h-53c-2.8,0-5-2.2-5-5v-43c0-2.8,2.2-5,5-5s5,2.2,5,5v38h48c2.8,0,5,2.2,5,5
		C688.3,383,686,385.2,683.3,385.2z"/>
	<path id="10_stone3" class="st1" d="M147.9,385.2c-15.5-0.1-28.2-12.7-28.2-28.1c0-15.5,12.6-28.1,28.1-28.1c14,0,25.9,10.4,27.8,24.3
		c0.4,2.7-1.5,5.3-4.3,5.6c-2.7,0.4-5.3-1.5-5.6-4.3c-1.2-8.9-8.9-15.6-17.9-15.6c-10,0-18.1,8.1-18.1,18.1
		c0,9.9,8.2,18.1,18.2,18.1c6.2,0,11.9-3.2,15.3-8.6c1.5-2.3,4.5-3.1,6.9-1.6c2.3,1.5,3.1,4.5,1.6,6.9
		C166.5,380.2,157.6,385.2,147.9,385.2z"/>
	<path id="10_stone3" class="st1" d="M876.2,385.1c-15.5,0-28.1-12.6-28.1-28.1s12.6-28.1,28.1-28.1c14,0,26,10.5,27.8,24.3
		c0.4,2.7-1.5,5.3-4.3,5.6c-2.7,0.4-5.3-1.5-5.6-4.3c-1.2-8.9-8.9-15.7-17.9-15.7c-10,0-18.1,8.1-18.1,18.1s8.1,18.1,18.1,18.1
		c6.3,0,12-3.2,15.4-8.5c1.5-2.3,4.6-3.1,6.9-1.6c2.3,1.5,3.1,4.5,1.6,6.9C894.9,380.2,885.9,385.1,876.2,385.1z"/>
	<path id="10_stone3" class="st1" d="M279.7,385c-0.3,0-0.6,0-1-0.1c-2.1-0.4-4.1-1.6-5.5-3.2c-0.9-1.1-2.5-3.3-2.5-6.6c0-0.4,0-0.9,0.1-1.3
		c0.7-5.2,1.1-10.9,1.1-16.8c0-5.9-0.4-11.4-1.1-16.7c-0.1-0.5-0.1-0.9-0.1-1.4c0-2.4,0.9-4.8,2.5-6.6c1.9-2.2,4.6-3.4,7.5-3.4
		l43.3,0c2.8,0,5,2.2,5,5s-2.2,5-5,5l-43.3,0c0.8,5.8,1.2,11.7,1.2,18.1c0,6.3-0.4,12.4-1.2,18h44c2.8,0,5,2.2,5,5s-2.2,5-5,5
		L279.7,385C279.7,385,279.7,385,279.7,385z"/>
	<path id="10_stone3" class="st1" d="M524.6,385h-71.9c-2.8,0-5-2.2-5-5s2.2-5,5-5h71.9v-16.3c0-2.8,2.2-5,5-5s5,2.2,5,5V375
		C534.6,380.5,530.1,385,524.6,385z"/>
	<path id="10_stone3" class="st1" d="M436.7,385h-96c-2.8,0-5-2.2-5-5s2.2-5,5-5h96c2.8,0,5,2.2,5,5S439.5,385,436.7,385z"/>
	<path id="10_stone3" class="st1" d="M529.6,347.7c-2.8,0-5-2.2-5-5v-14.3c-18,6.6-36.7,10.2-55.8,10.5l-16.8,0c-2.8,0-5-2.2-5-5s2.2-5,5-5h16.7
		c17.9-0.3,35.6-3.6,52.5-9.9c1.1-0.4,2.2-0.6,3.4-0.6c5.5,0,10,4.5,10,10v14.3C534.6,345.5,532.4,347.7,529.6,347.7z"/>
	<path id="10_stone3" class="st1" d="M524.5,328.4L524.5,328.4L524.5,328.4z"/>
	<path id="10_stone3" class="st1" d="M340,338.9c-2.8,0-5-2.2-5-5c0-2.8,2.2-5,5-5l96,0c2.8,0,5,2.2,5,5c0,2.8-2.2,5-5,5L340,338.9z"/>
	<path id="10_stone3" class="st1" d="M630.3,326.2c-2.8,0-5-2.2-5-5v-96c0-2.8,2.2-5,5-5s5,2.2,5,5v96C635.3,323.9,633.1,326.2,630.3,326.2z"/>
	<path id="10_stone3" class="st1" d="M28,310.5c-0.6,0-1.3-0.1-1.9-0.4c-2.6-1.1-3.8-4-2.7-6.5c5.1-12.2,12-23.6,20.7-33.8
		c12.7-15,29.3-27.2,47.9-35.3c2.5-1.1,5.5,0.1,6.6,2.6c1.1,2.5-0.1,5.5-2.6,6.6c-17.4,7.5-32.3,18.5-44.2,32.6
		c-8,9.4-14.4,19.9-19.1,31.2C31.8,309.3,29.9,310.5,28,310.5z"/>
	<path id="10_stone3" class="st1" d="M983.2,289.7c-1.6,0-3.2-0.8-4.1-2.2c-10.3-15.3-24.2-28.3-40.1-37.6c-1.5-0.9-2.5-2.5-2.5-4.3
		s0.9-3.4,2.5-4.3c10.6-6.2,20.2-14,28.6-23.1c1.9-2,5-2.2,7.1-0.3c2,1.9,2.2,5,0.3,7.1c-7.2,7.8-15.2,14.8-24,20.7
		c14.3,9.6,26.8,22,36.4,36.3c1.5,2.3,1,5.4-1.3,6.9C985.1,289.4,984.1,289.7,983.2,289.7z"/>
	<path id="10_stone3" class="st1" d="M776.4,280.2c-1.1,0-2.2-0.4-3.2-1.1c-2.1-1.8-2.4-4.9-0.7-7c8.4-10.2,18.1-19,28.9-26.3
		c-12.3-8.2-23-18.3-32-30.2c-1.7-2.2-1.2-5.3,1-7c2.2-1.7,5.3-1.2,7,1c9.9,13,22,23.8,36,32c1.5,0.9,2.5,2.5,2.5,4.3
		s-0.9,3.4-2.5,4.3c-12.6,7.4-23.8,16.9-33.1,28.3C779.3,279.5,777.9,280.2,776.4,280.2z"/>
	<path id="10_stone3" class="st1" d="M108.9,238.6c-2.2,0-4.1-1.4-4.8-3.6c-0.8-2.6,0.7-5.4,3.4-6.2c13.4-4,27.5-6,41.8-6h55.1c2.8,0,5,2.2,5,5
		s-2.2,5-5,5h-55.1c-13.4,0-26.4,1.9-38.9,5.6C109.9,238.5,109.4,238.6,108.9,238.6z"/>
	<path id="10_stone3" class="st1" d="M465.8,232.9c-26.6,0-50.6-16.8-59.6-41.9c-0.9-2.6,0.4-5.5,3-6.4c2.6-0.9,5.5,0.4,6.4,3
		c7.6,21.1,27.8,35.3,50.2,35.3c7.6,0,14.9-1.6,21.7-4.6c2.5-1.1,5.5,0,6.6,2.5c1.1,2.5,0,5.5-2.5,6.6
		C483.5,231,474.8,232.9,465.8,232.9z"/>
	<path id="10_stone3" class="st1" d="M311.9,232.8h-91.5c-2.8,0-5-2.2-5-5s2.2-5,5-5h85c0.3-1.8,1.5-3.3,3.3-4c2.6-0.9,5.5,0.5,6.4,3.1
		c0.5,1.4,1,2.7,1.5,4.1c0.6,1.5,0.4,3.3-0.6,4.6C315.1,232,313.5,232.8,311.9,232.8z"/>
	<path id="10_stone3" class="st1" d="M503.1,219.4c-1.4,0-2.9-0.6-3.8-1.8c-1.8-2.1-1.5-5.3,0.6-7c12.3-10.2,19.3-25.2,19.3-41
		c0-13.9-5.3-27-14.9-37c-1.9-2-1.9-5.2,0.1-7.1c2-1.9,5.2-1.9,7.1,0.1c11.4,11.9,17.7,27.5,17.7,43.9c0,18.9-8.3,36.6-22.9,48.7
		C505.4,219,504.2,219.4,503.1,219.4z"/>
	<path id="10_stone3" class="st1" d="M630.3,214.2c-2.8,0-5-2.2-5-5l0-42.7c-0.4-17.5-3.5-34.5-9.2-50.6c-0.9-2.6,0.4-5.5,3-6.4
		c2.6-0.9,5.5,0.4,6.4,3c6.1,17.1,9.4,35.2,9.8,53.8l0,0.4v42.4C635.3,211.9,633.1,214.2,630.3,214.2z"/>
	<path id="10_stone3" class="st1" d="M981.3,214.1c-1,0-2-0.3-2.9-0.9c-2.2-1.6-2.8-4.7-1.2-7c0.3-0.4,0.6-0.9,0.9-1.3
		c14.5-20.9,22.2-45.4,22.2-70.8c0-5.1-0.3-10.2-0.9-15.3c-0.3-2.7,1.6-5.2,4.4-5.6c2.7-0.3,5.2,1.6,5.6,4.4c0.7,5.4,1,11,1,16.5
		c0,27.5-8.3,54-23.9,76.5c-0.3,0.5-0.7,0.9-1,1.4C984.4,213.4,982.9,214.1,981.3,214.1z"/>
	<path id="10_stone3" class="st1" d="M305.8,213.2c-2.3,0-4.3-1.5-4.9-3.8c-2.2-9-3.6-18.4-4.3-27.9c-0.3-4.2-0.5-8.5-0.5-12.7
		c0-19.6,3.3-38.7,9.7-56.8c0.9-2.6,3.8-4,6.4-3c2.6,0.9,4,3.8,3,6.4c-6.1,17-9.1,35-9.1,53.5c0,4,0.1,8,0.4,12
		c0.6,8.9,2,17.7,4.1,26.2c0.6,2.7-1,5.4-3.7,6C306.6,213.2,306.2,213.2,305.8,213.2z"/>
	<path id="10_stone3" class="st1" d="M764.6,204.2c-1.7,0-3.4-0.9-4.3-2.5c-11.9-20.4-18.2-43.7-18.2-67.5c0-6.1,0.4-12.1,1.2-18.1
		c-2.3-0.5-4-2.5-4-4.9c0-2.8,2.2-5,5-5h4.8c1.5,0,2.9,0.7,3.8,1.8s1.3,2.6,1.1,4.1c-1.3,7.2-2,14.7-2,22.1c0,22,5.8,43.6,16.8,62.4
		c1.4,2.4,0.6,5.4-1.8,6.8C766.3,203.9,765.4,204.2,764.6,204.2z"/>
	<path id="10_stone3" class="st1" d="M407.5,178.7c-2.6,0-4.8-2-5-4.6c-0.1-1.5-0.2-3.1-0.2-4.6c0-35,28.4-63.4,63.4-63.4c11.3,0,22.4,3,32.1,8.7
		c2.4,1.4,3.2,4.5,1.8,6.8c-1.4,2.4-4.5,3.2-6.8,1.8c-8.2-4.8-17.5-7.3-27-7.3c-29.4,0-53.4,24-53.4,53.4c0,1.3,0,2.6,0.1,3.9
		c0.2,2.8-1.9,5.1-4.6,5.3C407.8,178.7,407.7,178.7,407.5,178.7z"/>
	<path id="10_stone3" class="st1" d="M876.2,162.3c-15.5,0-28.1-12.6-28.1-28.1c0-15.5,12.6-28.1,28.1-28.1c14,0,26,10.5,27.8,24.3
		c0.4,2.7-1.5,5.3-4.3,5.6c-2.7,0.4-5.3-1.5-5.6-4.3c-1.2-8.9-8.9-15.7-17.9-15.7c-10,0-18.1,8.1-18.1,18.1s8.1,18.1,18.1,18.1
		c6.3,0,12-3.2,15.4-8.5c1.5-2.3,4.6-3.1,6.9-1.6c2.3,1.5,3.1,4.5,1.6,6.9C894.9,157.4,885.9,162.3,876.2,162.3z"/>
	<path id="10_stone3" class="st1" d="M728.3,116.2h-96c-2.8,0-5-2.2-5-5c0-2.8,2.2-5,5-5h96c2.8,0,5,2.2,5,5C733.3,114,731.1,116.2,728.3,116.2z"/>
	<path id="10_stone3" class="st1" d="M1001.4,107.5c-2.2,0-4.3-1.5-4.8-3.8c-7.6-30.2-26-56.5-51.8-74c-2.3-1.5-2.9-4.7-1.3-6.9
		c1.5-2.3,4.7-2.9,6.9-1.3c27.9,18.8,47.7,47.2,55.9,79.8c0.7,2.7-1,5.4-3.6,6.1C1002.2,107.5,1001.8,107.5,1001.4,107.5z"/>
	<path id="10_stone3" class="st1" d="M316.7,103.9c-0.7,0-1.4-0.2-2.1-0.5c-2.5-1.2-3.6-4.2-2.4-6.7c7.3-15.5,17.1-29.8,28.9-42.6
		c10.8-11.6,23.1-21.6,36.5-29.7c2.4-1.4,5.4-0.7,6.9,1.7c1.4,2.4,0.7,5.4-1.7,6.9c-12.6,7.6-24.2,17-34.4,28
		c-11.2,12-20.3,25.4-27.2,40C320.4,102.8,318.6,103.9,316.7,103.9z"/>
	<path id="10_stone3" class="st1" d="M394.3,26.1c-1.9,0-3.7-1.1-4.5-2.8c-1.2-2.5-0.1-5.5,2.4-6.7c23.3-11.1,48.6-16.7,75.2-16.7c0,0,0,0,0,0h20.5
		c2.8,0,5,2.2,5,5c0,2.8-2.2,5-5,5h-20.5c-25.1,0-49,5.3-70.9,15.8C395.8,26,395.1,26.1,394.3,26.1z"/>
	<path id="10_stone3" class="st1" d="M933.8,22.5c-0.8,0-1.5-0.2-2.3-0.5c-11.9-6-24.6-10.1-37.7-12l-0.7-0.1h-53.2c-2.8,0-5-2.2-5-5
		c0-2.8,2.2-5,5-5h53.6c0.2,0,0.5,0,0.7,0.1l1.1,0.2c14.2,2.1,28,6.4,40.8,12.9c2.5,1.3,3.4,4.3,2.2,6.7
		C937.4,21.5,935.6,22.5,933.8,22.5z"/>
	<path id="10_stone3" class="st1" d="M823.9,9.9h-96c-2.8,0-5-2.2-5-5c0-2.8,2.2-5,5-5h96c2.8,0,5,2.2,5,5C828.9,7.7,826.7,9.9,823.9,9.9z"/>
	<path id="10_stone3" class="st1" d="M711.9,9.9h-96c-2.8,0-5-2.2-5-5c0-2.8,2.2-5,5-5h96c2.8,0,5,2.2,5,5C716.9,7.7,714.7,9.9,711.9,9.9z"/>
	<path id="10_stone3" class="st1" d="M599.9,9.9h-96c-2.8,0-5-2.2-5-5c0-2.8,2.2-5,5-5h96c2.8,0,5,2.2,5,5C604.9,7.7,602.7,9.9,599.9,9.9z"/>
</g>


</svg>