<?xml version="1.0" encoding="utf-8"?>
<!-- Generator: Adobe Illustrator 21.0.2, SVG Export Plug-In . SVG Version: 6.00 Build 0)  -->
<svg version="1.1" id="SCENE_4" xmlns="http://www.w3.org/2000/svg" xmlns:xlink="http://www.w3.org/1999/xlink" x="0px" y="0px"
	 viewBox="0 0 1024 1024" style="enable-background:new 0 0 1024 1024;" xml:space="preserve">
<style type="text/css">
	.st0{fill:#FFFFFF;}
	.st1{display:none;}
	.st2{fill:#64566D;}
</style>
<rect id="BACKGROUND_grass" y="0" width="1024" height="1024"/>
<!-- <g id="OBSTACLES">
	<path id="01_stone" class="st0" d="M0,0c341.3,0,682.6,0,1024,0c0,341.8,0,683.7,0,1025.6c-341.2,0-682.7,0-1024,0
		C0,683.9,0,341.9,0,0z M476.8,989.5c19.2-0.1,39.9-1.9,61.3-5.2c44.6-7,84.8-24.8,119.4-52.9c20.7,10.1,43.5,15,69.4,15
		c0.6,0,1.2,0,1.8,0c7.4-0.1,14.9-0.1,22.3-0.2c23.2-0.2,47.1-0.3,70.7-1c19.8-0.5,45.8-2.3,71.6-10.8c24.8-8.2,44.2-22.5,57.7-42.3
		c13.4-19.7,20.6-44.6,21.4-74c1.4-51.8,1.6-103.4,1.7-147.1c0.2-138.1,0.2-278.6,0.2-414.4v-48.5c0-9.5-0.4-17.1-1.3-24
		c-8.6-64.2-47-108.8-102.7-119.2c-11.5-2.2-23.4-3.2-36.4-3.2c-7.5,0-15.2,0.3-23.5,1.1c-27.3,2.3-48,7.1-67.1,15.5
		c-33.4,14.7-55.6,38.5-67.8,72.7c-8.9,25-9.9,50.9-9.8,70.7c0.6,130,1.4,301.1,2.4,471.3c0.1,22.1-2.9,43.8-9.4,65.9
		c-0.1-2.8-0.1-5.6,0-8.5c0.2-5.6,0.5-11.4,0.7-17c0.4-8.1,0.8-16.5,0.9-24.9c0.1-5.7,0.2-11.4,0.3-17c0.3-19.4,0.7-39.4-0.4-59.1
		c-3.3-57.6-42.3-99.5-92.8-99.5c-11.4,0-23.1,0.2-34.3,0.3c-4.5,0.1-8.9,0.1-13.4,0.2c0-1.8,0-3.6,0-5.3
		c0.1-11.7,0.2-23.7-0.3-35.6c-0.3-5.9,0.6-6.3,4.3-8.3c37.9-19.7,68.1-47.4,89.9-82.3c32.2-51.7,46.7-114.2,43-185.9
		c-1.4-27.6-8.3-52.1-20.5-72.8c-11.9-20.3-29-37-50.7-49.8c-33-19.4-67.7-24.3-94.3-26.4c-10.5-0.8-21.2-1.2-31.7-1.2
		c-20,0-40.2,1.5-60.1,4.5c-25.9,3.9-52.1,8.4-77.4,12.8c-13,2.3-26.5,4.6-39.8,6.8c-4.7,0.8-9.3,1.6-14,2.4
		c-15.6,2.7-31.8,5.5-47.6,7.3c-19.7,2.3-40.6,5.3-61,13.8c-35.6,15-60.9,40.8-75.2,76.8c-11.2,28.4-15.2,59.1-11.8,91.3
		c3.8,35.7,19.2,62.8,45.7,80.4c15.7,10.5,33.9,17.3,55.6,21c13.3,2.2,26.8,3.9,39.8,5.5c6.5,0.8,13.1,1.6,19.7,2.5
		c11.4,1.5,23,2.3,34.4,2.3c19.5,0,39.4-2.2,59.2-6.7c15.3-3.4,30.7-7.2,45.6-10.9c12.2-3,24.9-6.1,37.4-9c6-1.4,12.1-2.3,18.6-3.3
		c0,2.1,0,4.1,0,6.2c0,14.8-0.1,28.8,0.2,42.8c-46.5,12.3-93.5,16.1-133.4,18.1c-10.5,0.5-21.2,1-31.5,1.4c-20,0.8-40.6,1.6-61,3.2
		c-28.7,2.2-55.9,9.3-81,20.8c-40.8,18.8-69.4,50.1-85.1,92.8c-9.5,25.9-14.7,55-15.3,86.4c-0.7,33.2-0.1,66.9,0.5,96.5
		c0.1,3.7,0.1,7.5,0.2,11.2c0.4,22,0.7,44.8,2.9,67.1c4.7,47.3,23.5,86,56.1,115.1c25,22.4,55.5,37.5,95.9,47.5
		c38.7,9.6,80.2,14.5,134.9,15.7c38.8,0.9,79.1,1.3,123.3,1.3C448.6,989.6,462.6,989.6,476.8,989.5z"/>
	<path id="02_stone" class="st0" d="M725.9,842.4c22.5-47.3,33.7-99.1,33.3-154c-0.5-72.5-0.9-146.3-1.2-217.6
		c-0.1-27.3-0.3-54.6-0.4-82l-0.1-25.1c-0.2-46.8-0.5-95.3-0.6-142.9c0-6.8,0.4-14.2,1.2-22.7c0.9-9.1,4.6-15.4,11.6-19.5
		c8.3-4.9,17.6-8.1,29.4-9.9c10.3-1.6,22.2-3.4,33.8-3.4c5.5,0,10.5,0.4,15.4,1.1c6.8,1.1,12.8,2.9,18,5.3
		c6.6,3.1,15.5,9.9,16.7,32.4c0.2,3.7,0.1,7.5,0,11.5c-0.1,2.4-0.1,5-0.1,7.5c0,44.6,0,89.2,0,133.8c0,100.1,0,203.6-0.1,305.3
		c-0.1,38.5-0.5,77.6-1,115.4c-0.2,12.2-0.3,24.4-0.4,36.6c-0.2,14.6-3,16.7-11.2,19.1c-14.5,4.2-26.1,6.4-36.4,6.8
		c-28,1.2-56.5,1.5-84.1,1.9C741.7,842.2,733.8,842.3,725.9,842.4z"/>
	<path id="03_stone" class="st0" d="M456.6,885.8c-25.3,0-50.3-0.1-74.7-0.4c1.3-0.1,2.6-0.2,3.9-0.2
		c55.5-3.6,96-35.1,120.3-93.7c9-21.7,13.2-42.8,12.8-64.5c-0.4-21.9-0.1-44.3,0.1-66c0.1-7.7,0.2-15.7,0.2-23.6
		c15.7-0.2,31.4-0.4,47.1-0.6h0.2c1.1,0,1.7,0.1,2.1,0.2c0.2,0.5,0.4,1.6,0.5,3.7c0.6,13.2,0.7,27.8,0.3,45.8
		c-0.2,9.5-0.6,19.2-0.9,28.6c-0.6,14.4-1.1,29.2-1,44c0.2,35.5,7.3,68.8,21.2,99c-0.6,0.3-1.3,0.7-1.9,1c-7.4,4-14.3,7.7-21.4,10.9
		c-24.2,10.6-51.1,15.8-82.2,15.9C474.3,885.7,465.5,885.8,456.6,885.8z"/>
	<path id="04_stone" class="st0" d="M261.4,881.4c-19.1-1.8-36.6-4.4-53.1-7.9c-19-4-41.2-9.8-61.5-23
		c-21-13.6-31.6-34.8-32.6-64.8c-1.4-44.3-2.1-85.4-2.2-125.4c0-17.9,1.9-35.7,3.8-50.7c3.6-28.8,17.4-47.9,42.2-58.4
		c18.6-7.8,38.3-12.3,60.3-13.7c13.2-0.8,26.8-1.3,39.9-1.6c14.7-0.4,29.8-0.9,44.8-2c26.6-1.9,54.9-4.7,91.5-9.2
		c10.3-1.3,20.4-3.5,30.2-5.6c1.1-0.2,2.3-0.5,3.4-0.7v16.4c-1.2,0-2.5,0-3.7,0c-14.3,0.3-28.6,0.5-42.8,0.7
		c-33.6,0.5-68.3,1-102.5,2c-23.7,0.7-45,10.5-61.7,28.3c-20.4,21.8-31.4,53.7-30.2,87.7c1.1,30.8,1.1,62.3,1.2,92.7
		c0,5.4,0,10.9,0,16.3v1.5c0,17.9,0.1,36.5,6.2,54.7c10.6,31.7,32.1,52.4,63.7,61.7C259.3,880.9,260.3,881.2,261.4,881.4z"/>
	<path id="05_stone" class="st0" d="M519.9,365c0.1-7.5,0.1-14.8-0.3-22.2c-2.5-47.5-31-80.3-72.6-83.6
		c-3.3-0.3-6.8-0.4-10.3-0.4c-19.3,0-37.3,3.9-57.2,8.6c-7.6,1.8-15.3,3.6-22.9,5.5c-18.9,4.6-38.4,9.3-57.7,13.4
		c-9.5,2-19.4,3.1-29.5,3.1c-7,0-14.2-0.5-21.5-1.5l-4.8-0.6c-20.6-2.8-42-5.6-62.8-9c-3.5-0.6-7.5-2.4-11.7-4.3
		c-1.6-0.7-3.1-1.4-4.6-2.1c-0.1-0.1-0.2-0.1-0.2-0.1c-0.1-0.1-0.5-0.9-0.6-2.7c-1.3-19.8,1.4-33.3,8.9-43.9
		c5.9-8.4,14.3-13.7,25.7-16.3c7.8-1.8,15.7-2.8,24.1-3.9c5.1-0.7,10.4-1.4,15.6-2.2l5.2-0.9c19.9-3.3,40.4-6.7,60.6-10.7l2.6-0.5
		c40.3-7.8,81.9-15.9,123.1-19.1c12.7-1,23.9-1.4,34.3-1.4c14.3,0,27.2,0.9,39.5,2.7c14.8,2.2,27.4,6,38.3,11.6
		c17.2,8.9,25.4,24.3,25.1,47c-0.4,31-4.2,56-11.9,78.5C546.9,331.7,535.6,349.9,519.9,365z"/>
	<path id="06_stone" class="st0" d="M314.8,782.7c-3.4,0-6.8,0-10.1,0c-6.2,0-12.6-1.3-19.4-2.7c-1.8-0.4-3.6-0.7-5.4-1.1
		v-0.8c0.1-11,0.2-22.4,0-33.7c-0.4-27.3-0.8-55-1.3-81.7l-0.3-14.9c-0.1-5.5,1.4-5.8,2.9-6.1c2.7-0.5,5.7-0.5,8.9-0.6h0.7
		c40.8-0.7,81.7-1.4,122.5-2.1l14.5-0.3c0,8.2,0,16.5-0.1,24.7c0,22.3-0.1,45.4-0.5,68c-0.2,11.4-5.7,21.3-11.6,30.4
		c-7.9,12.2-18.5,18.6-31.5,19.2C361.9,782.2,338.5,782.7,314.8,782.7z"/>
</g> -->
<g id="ROAD">
	<path id="TRACK_asphalt" class="st2" d="M975.3,556.6c0,29.2-1,57.3-3,84.3c-7.8,103.9-28.4,157.9-33.6,170.1
		c-21.1,57-54.3,102.6-98.9,135.4c-38.6,28.5-84.2,46.4-135.5,53.3c-48.4,6.5-100.9,2.4-147.7-11.6c-27.8-8.3-78.4-27.8-104.6-64.8
		c-29-40.9-46.7-74.5-57.6-108.8c-9.9-31.2-14.1-62.9-14.1-106.1c0-21.3-0.4-43.5-3.4-61.1c-3.2-18.7-7.8-23.7-8.3-24.2
		c-0.6-0.6-3.4-1.4-8.8-1.2c-5.6,0.2-10.9,0.3-15.9,0.3c-11.2,0.2-27.8,0.5-33.8,2.3c-1.9,3.6-7.9,18.7-7.7,65.7
		c0,6.8,0.1,13.1,0.1,18.8c0.3,54.4,0.3,69-5.5,116.4c-4.6,37.7-17.1,69-37,93c-18.1,21.8-51.7,48.2-108.6,49.9
		c-32.9,1-61.8-10.2-83.7-32.3c-21.9-22.1-36-54.1-43.4-97.9c-5.7-34.2-7.5-76.8-5.4-130.2c3.8-97.9,12.7-151,55.2-206.8
		c21-27.5,46.9-59.1,89.6-84.6c46.6-27.9,106-44.4,181.7-50.4c61.7-4.9,126.5,13.9,182.7,53c49.3,34.4,85.2,79.4,96.1,120.4
		c6.6,25,7.4,52.9,8.1,79.8c0.8,33,1.9,74.1,16,84.5c9.4,7,18.2,9.6,27.6,8.2c11.6-1.8,24.3-10.2,32.7-21.4
		c1.7-3.8,9.2-25.4,8.5-103.5c-0.5-53.3-4.6-113-7.6-156.6c-0.7-10.7-1.4-20.8-2-29.6c-2.9-45.5-9-68.4-13.1-79.1l-484.5,2.9
		c-14.3,0.7-88.4,1.9-136.4-41.7c-24.8-22.5-38.5-52.9-39.6-88c-1.8-54.5,25.9-102.4,78-134.7c34.4-21.3,68.4-29.3,72.2-30.1
		l5.7-1.3l5.8,0.1c213.5,2.7,541,6.1,568.5,4.8c55-2.6,96.9,9,124.5,34.7c21,19.4,27.2,40.8,29.1,52.3
		c25.9,108.4,43.3,211.3,51.8,306C973.3,472.1,975.3,515.4,975.3,556.6z M846.6,771.8c1.6-3.8,20.1-50.5,26.5-147
		c6.1-93,1.9-252.3-53.4-482.9l-0.2-0.7c-4.3-3.1-19.3-8.9-50.9-7.4c-38,1.8-488.1-3.6-567.6-4.6c-7.7,2.3-23.5,7.8-38.3,17.3
		c-30,19.3-29.3,38.2-29.1,45.3c0.3,10,3.5,14.2,6.8,17.3c15,13.7,50,16.6,64.8,15.9l1.6-0.1l1.2,0l492.9-3
		c15.6-2.3,32.3,1.3,46.8,10.6c17.8,11.3,31.6,30.6,41.2,57.2c9.5,26.3,15.5,60.7,18.3,105c0.5,8.5,1.2,18.5,1.9,29
		c3.2,47.1,7.6,111.5,7.8,169.8c0.3,81.8-7.6,128-26.5,154.4c-23.9,33.4-61,56.9-99.2,62.9c-36.2,5.7-71.7-3.6-102.8-26.8
		c-24.8-18.5-41.3-46.3-49.2-82.7c-5.7-26.3-6.3-53.3-7-79.4c-0.5-21.2-1.1-43.1-4.7-56.7c-3.1-11.7-21.2-39.4-56.7-64.1
		c-21.5-15-65.4-39.5-117.5-35.4c-134.9,10.8-169.3,56-199.7,95.9c-22.9,30.1-31.1,56-34.8,150.2c-1.8,46.5-0.5,82.4,4.1,109.8
		c5.1,30.5,12.7,41,15.8,44c1.3,1.3,2.9,2.9,9.7,2.7c21.3-0.6,30-8.2,34.7-13.8c7.4-8.9,12.5-23.2,14.7-41.3
		c5-41.2,5-50.7,4.7-103.8c0-5.8-0.1-12.1-0.1-18.9c-0.3-70.9,11.3-112.4,38.6-138.7c29.6-28.5,67.7-29.1,101.3-29.6
		c4.8-0.1,9.7-0.2,14.6-0.3c41-1.2,66.9,15.3,81.4,29.4c38.8,37.7,42,98.2,42,157c0,57.7,7.4,92.2,53.3,157.1
		c2.6,3.7,17.8,16.7,51.6,26.8c33.5,10,71.1,13,105.8,8.3c52.1-7,121.1-34.4,154.2-125.3l0.8-2.3L846.6,771.8z"/>
	<circle id="START" cx="925.3" cy="757" r="3.4" class="st1"/>
</g>
	<path id="drive" class="st2" d="M886.1,760.4c1.4-14.7,2.8-29.4,4.1-44.1c2.1-22.9,4.2-45.9,6.2-68.8c0.6-6.5,1.2-13,1.7-19.5
	c2-22.9,4.1-45.9,6.1-68.8c0.6-6.5,1.1-13,1.7-19.5c2-22.9,4-45.9,6-68.8c0.6-6.5,1.1-13,1.7-19.5c1.9-21.1,3.7-42.2,5.6-63.3
	c0.5-5.7,1-11.4,1.5-17.1c1.5-17.6,2.7-35.2,3.1-52.9c0.1-5,0.1-9.9,0-14.9c-0.3-16.6-1.6-33.2-4.6-49.6c-0.9-4.7-1.9-9.3-3-13.9
	c-4.2-16.8-10.4-33.1-18.5-48.4c-2.3-4.4-4.8-8.8-7.5-13.1c-10-16.3-21.7-31.8-35.5-45c-3.8-3.7-7.8-7.2-11.9-10.5
	c-14.5-11.7-30.7-21.3-47.6-29.1c-4.9-2.3-9.9-4.4-15-6.4c-18-7.1-36.7-12.6-55.6-16.8c-5.4-1.2-10.9-2.3-16.3-3.3
	c-19-3.5-38.1-5.9-57.4-7.5c-5.4-0.4-10.7-0.8-16.1-1.1c-20.3-1.2-40.6-1.3-60.8-1.6c-5.9-0.1-11.7-0.2-17.6-0.2
	c-22.6-0.3-45.3-0.6-67.9-0.9c-6.4-0.1-12.8-0.2-19.2-0.3c-22.6-0.3-45.3-0.6-67.9-0.9c-6.4-0.1-12.8-0.2-19.2-0.3
	c-22.6-0.3-45.3-0.6-67.9-0.9c-6.4-0.1-12.8-0.2-19.2-0.3c-9.9-0.1-19.7-0.3-29.6-0.4c-9.6-0.1-19.2-0.4-28.8-0.2
	c-5.5,0.1-11,0.3-16.4,0.7c-16.9,1-33.8,3.1-50.4,6.7c-4.7,1-9.4,2.2-14,3.4c-16,4.4-31.7,10.4-46.1,18.7c-4,2.3-7.8,4.7-11.6,7.4
	c-13.2,9.4-24.7,21.1-33.2,34.9c-2.4,3.9-4.6,8.1-6.5,12.3c-7.9,17.2-11.7,36.7-11.3,55.7c0.1,4.9,0.6,9.9,1.4,14.8
	c2.7,15.6,9.8,30.2,20.7,41.7c3.1,3.2,6.4,6.2,9.9,9c12.8,10,28,16.7,43.5,21.4c4.6,1.4,9.3,2.6,13.9,3.7
	c17.1,3.9,34.6,5.9,52.2,6.7c4.9,0.2,9.8,0.4,14.7,0.4c13.2,0.1,26.4-0.4,39.6-1.4c13.1-1,26.2-2.4,39.2-4c7.8-1,15.6-2,23.4-3
	c20.3-2.8,40.5-5.8,60.7-8.8c20.7-3,41.4-6,62.2-8.4c11.6-1.4,23.3-2.6,34.9-3.7c20.3-1.8,40.7-3,61.1-3c19.7-0.1,39.5,0.9,59.1,3.6
	c10.6,1.4,21.1,3.4,31.4,6c18.1,4.5,35.7,11,52,20.1c15.2,8.5,29.2,19.2,41.1,32c6.9,7.4,13.1,15.4,18.5,23.9
	c7.7,11.9,13.9,24.6,18.9,37.8c5.7,15.1,9.7,30.7,12.8,46.5c1.9,9.7,3.7,19.4,5.3,29.1c3.4,20.7,6.2,41.6,8.2,62.5
	c0.6,6,1.1,12.1,1.6,18.1c1.7,21.9,2.6,43.8,2.6,65.8c0,6.2-0.1,12.4-0.3,18.6c-0.6,21.1-2.1,42.2-5,63.1
	c-0.8,5.7-1.7,11.4-2.8,17.1c-1.8,9.6-3.9,19.2-6.5,28.6c-2.4,8.8-5.2,17.3-9.4,25.4c-2.2,4.2-4.7,8.3-7.5,12.1
	c-9.3,12.7-21.8,22.7-36.1,29.2c-4.1,1.9-8.4,3.4-12.7,4.7c-14.8,4.3-30.5,5-45.6,2.2c-4.2-0.8-8.4-1.8-12.5-3.2
	c-15-4.9-28.8-13.5-39.7-25c-3.1-3.3-5.9-6.8-8.5-10.5c-7.8-11.2-13.1-24-16-37.2c-0.9-4.1-1.6-8.3-2.1-12.5
	c-1.6-13.1-1.4-26.4-0.4-39.5c1-13.4,2.8-26.8,4.4-40.2c1.6-13.3,3.1-26.6,3.4-40c0.3-11.8-0.5-23.6-2.5-35.3
	c-1.8-10.9-4.5-21.7-7.8-32.2c-3.4-10.9-7.4-21.5-11.9-32c-4.4-10.2-9.4-20.1-14.9-29.7c-6.2-10.9-13-21.4-21.4-30.7
	c-2.3-2.5-4.6-5-7.1-7.3c-11.8-11.2-25.4-20.4-40-27.5c-4.3-2.1-8.6-4-13-5.7c-15.6-6.2-32-10.4-48.6-13.1
	c-4.8-0.8-9.5-1.4-14.3-1.9c-16.9-1.8-34-2.2-51-1.4c-4.7,0.2-9.4,0.5-14.1,1c-17.2,1.5-34.3,4.2-51.1,8.3
	c-4.9,1.2-9.7,2.4-14.5,3.8c-18.3,5.2-36.2,11.9-53.5,19.8c-4.9,2.3-9.7,4.6-14.5,7.1c-17.1,8.8-33.5,18.8-49,30.2
	c-4.4,3.2-8.7,6.6-12.9,10c-14.7,11.9-28.4,25.2-40.6,39.6c-3.4,4.1-6.7,8.2-9.9,12.5c-11,14.7-20.4,30.5-27.9,47.3
	c-2.1,4.8-4.1,9.6-5.9,14.4c-6.3,16.7-10.8,34-13.9,51.6c-0.9,5-1.6,10-2.3,15.1c-2.3,17.8-3.1,35.8-2.9,53.8
	c0.1,5.1,0.2,10.3,0.4,15.4c0.8,18.1,2.5,36.2,4.9,54.1c0.7,5.1,1.4,10.2,2.2,15.3c2.7,17.4,5.8,34.7,9.5,51.9c1,4.7,2.1,9.4,3.2,14
	c3.6,14.9,8,29.7,14.1,43.7c1.7,3.8,3.5,7.6,5.4,11.3c6,11.4,13.7,22,23.8,30.1c2.8,2.2,5.7,4.3,8.8,6c11.9,6.9,25.6,9.7,39.3,9.6
	c4.3,0,8.6-0.3,12.9-0.9c9.5-1.2,18.9-3.4,28-6.2c9.1-2.8,17.9-6.2,25.6-11.8c3.9-2.8,7.6-6.1,10.8-9.7
	c12.8-14.2,19.3-32.9,22.7-51.4c1.1-5.8,1.9-11.6,2.5-17.4c2.3-23.1,1.6-46.5,0-69.7c-0.5-6.7-1-13.4-1.6-20.1
	c-2-22.9-4.6-45.8-6.5-68.7c-0.5-6-0.9-12-1.2-18c-0.6-12.1-0.8-24.2,0.4-36.3c0.4-3.7,0.8-7.4,1.3-11.1c1.1-8.2,2.6-16.4,5-24.4
	c2.2-7.6,5.2-15.1,9.3-21.9c4.1-6.8,9.4-12.9,15.7-17.9c7.8-6.1,16.9-10.3,26.4-13.1c12.4-3.7,25.5-5.3,38.4-5.6
	c13.7-0.3,27.4,1.1,40.7,4.5c12.1,3.1,24.1,8,33.9,15.8c4.4,3.5,8.3,7.6,11.4,12.3c3.2,4.9,5.7,10.3,7.7,15.8
	c4,11.7,5.5,24.1,5.9,36.4c0.5,13.2-0.3,26.4-1.3,39.6c-1,12.6-2.2,25.3-2.8,37.9c-0.6,11.7-0.1,23.3,0.8,35
	c1,12.1,2.4,24.2,4.4,36.2c2,12,4.5,24,7.5,35.8c3,11.8,6.6,23.4,10.6,34.9c5.1,14.3,11,28.4,18.3,41.8c1.9,3.5,3.9,7,6.1,10.5
	c9.6,15.5,21.1,29.8,34.7,41.9c3.8,3.4,7.8,6.6,11.9,9.6c13.8,10.2,29.1,18.1,45.3,23.9c4.7,1.7,9.4,3.1,14.2,4.4
	c17.7,4.8,36.1,7.2,54.4,7.8c5.3,0.2,10.7,0.2,16,0.1c14.7-0.2,29.3-1.5,43.8-3.4c4.2-0.6,8.4-1.2,12.5-1.8
	c12.2-1.9,24.3-4.3,36.2-7.3c12.1-3.1,24-6.7,35.6-11.3c11.4-4.5,22.5-9.7,33-16.1c11.8-7.2,22.8-15.7,31.5-26.5
	c9.6-12,16.4-26.1,21.1-40.6c4.9-15.2,7.8-31.1,10-46.9c2.1-16,3.5-32,5.1-48C884.3,775.4,885.1,767.8,886.1,760.4z"/>

</svg>
