<?xml version="1.0" encoding="utf-8"?>
<!-- Generator: Adobe Illustrator 21.0.2, SVG Export Plug-In . SVG Version: 6.00 Build 0)  -->
<svg version="1.1" id="SCENE_1" xmlns="http://www.w3.org/2000/svg" xmlns:xlink="http://www.w3.org/1999/xlink" x="0px"
	y="0px" viewBox="0 0 1024 1024" style="enable-background:new 0 0 1024 1024;" xml:space="preserve">
	<style type="text/css">
		.st2, .st3 {
			fill: #FFFFFF;
		}
		.st1 {
			display: none;
		}
		.st0 {
			fill: #64566D;
		}
	</style>
	<rect id="BACKGROUND_grass" y="0" width="1024" height="1024" />
	<g id="OBSTACLES">
		<path class="st2" d="M160.5,664.8v-6.5c0-3.2,2.6-5.8,5.8-5.8h0.5c3.2,0,5.8,2.6,5.8,5.8v6.5c0,3.2-2.6,5.8-5.8,5.8h-0.5
		C163.1,670.5,160.5,667.9,160.5,664.8z" />
		<path class="st2" d="M160.6,644.2l0-6.5c0-3.2,2.6-5.7,5.8-5.7l0.5,0c3.2,0,5.7,2.6,5.7,5.8l0,6.5c0,3.2-2.6,5.7-5.8,5.7l-0.5,0
		C163.1,649.9,160.6,647.3,160.6,644.2z" />
		<path class="st2" d="M160.8,624.2l0.1-6.5c0-3.2,2.6-5.7,5.8-5.7l0.5,0c3.2,0,5.7,2.6,5.7,5.8l-0.1,6.5c0,3.2-2.6,5.7-5.8,5.7
		l-0.5,0C163.3,630,160.8,627.4,160.8,624.2z" />
		<path class="st2" d="M161.1,604.7l0-6.5c0-3.2,2.6-5.7,5.8-5.7l0.5,0c3.2,0,5.7,2.6,5.7,5.8l0,6.5c0,3.2-2.6,5.7-5.8,5.7l-0.5,0
		C163.6,610.5,161.1,607.9,161.1,604.7z" />
		<path class="st2" d="M154.1,596.7l-6.1-2.3c-3-1.1-4.4-4.5-3.3-7.4l0.2-0.5c1.1-3,4.5-4.4,7.4-3.3l6.1,2.3c3,1.1,4.4,4.5,3.3,7.4
		l-0.2,0.5C160.4,596.4,157.1,597.8,154.1,596.7z" />
		<path class="st2" d="M134.9,588.1l-5.6-3.2c-2.8-1.6-3.7-5.1-2.2-7.8l0.2-0.4c1.6-2.8,5.1-3.7,7.8-2.2l5.6,3.2
		c2.8,1.6,3.7,5.1,2.2,7.8l-0.2,0.4C141.2,588.7,137.7,589.7,134.9,588.1z" />
		<path class="st2" d="M117.7,576.9l-5.1-4.1c-2.5-2-2.9-5.6-0.9-8.1l0.3-0.4c2-2.5,5.6-2.9,8.1-0.9l5.1,4.1c2.5,2,2.9,5.6,0.9,8.1
		l-0.3,0.4C123.8,578.5,120.2,578.9,117.7,576.9z" />
		<path class="st2" d="M102.4,563l-4.4-4.8c-2.1-2.4-1.9-6,0.4-8.1l0.4-0.3c2.4-2.1,6-1.9,8.1,0.4l4.4,4.8c2.1,2.4,1.9,6-0.4,8.1
		l-0.4,0.3C108.2,565.5,104.6,565.3,102.4,563z" />
		<circle class="st3" cx="670.4" cy="600.3" r="5.6" />
	</g>
	<g id="ROAD">
        <path id="TRACK_asphalt" class="st0" d="M256,256 L768,256 L768,768 L256,768 Z" />
		<circle id="START" cx="220.3" cy="729.1" r="3.4" class="st1" />
	</g>
</svg>