<?xml version="1.0" encoding="utf-8"?>
<!-- Generator: Adobe Illustrator 21.0.2, SVG Export Plug-In . SVG Version: 6.00 Build 0)  -->
<svg version="1.1" id="SCENE_4" xmlns="http://www.w3.org/2000/svg" xmlns:xlink="http://www.w3.org/1999/xlink" x="0px" y="0px"
	 viewBox="0 0 1024 1024" style="enable-background:new 0 0 1024 1024;" xml:space="preserve">
<style type="text/css">
	.st2{fill:#FFFFFF;}
	.st1{display:none;}
	.st0{fill:#64566D;}
</style>
<rect id="BACKGROUND_grass" y="0" width="1024" height="1024"/>
<g id="OBSTACLES">
	<path class="st2" d="M827,216.4c-10.2-9-22.2-13.5-34.4-15.2c-12.3-1.7-24.8-0.6-36,1.6c-11.3,2.2-21.2,5.5-28.4,8.3
		c-7.2,2.8-11.5,5-11.5,5c-50,15.8-104.8,16.4-159.5,10.6c-54.8-5.8-109.6-18.1-159.6-28.2s-95.4-18.2-131.2-15.5
		c-35.8,2.7-62.2,16.1-74.3,48.8c-4.8,22-0.6,43.4,9.4,64s26,40.4,45,59.2c19,18.8,40.9,36.6,62.9,53.1s44,31.8,63.1,45.7
		c20.9,15.1,55.1,38.9,91.4,67.5c36.3,28.6,74.5,62,103.3,96.4c28.8,34.4,48.1,69.8,46.6,102.3s-24,62.2-78.7,85.2
		c-15.5,6.8-32.3,11.3-49.5,13.7s-34.9,2.6-52.4,0.5c-17.4-2-34.6-6.3-50.7-12.7c-16.1-6.5-31.3-15.1-44.7-26
		c-7.3-5.9-14.3-12.3-21.2-18.9c-6.9-6.6-13.6-13.5-20.2-20.4s-13.2-13.9-19.9-20.8c-6.6-6.9-13.3-13.6-20.1-20.1
		c-6.4-6-12.6-12.8-18.8-18.9c-6.2-6.1-12.2-11.6-18.1-15c-5.9-3.4-11.7-4.6-17.3-2.3c-5.6,2.3-11.1,8.1-16.4,19
		c-5.9,12-7.3,26.7-5.4,42.2c1.9,15.5,7.1,31.9,14.4,47.3c7.3,15.5,16.8,30,27.2,41.9c10.4,11.9,21.8,21,33.1,25.8
		c15.8,6.7,32.5,11.2,49.6,14.3s34.7,4.6,52.4,5.1c17.7,0.6,35.5,0.2,53.1-0.6c17.6-0.7,34.9-1.9,51.7-2.8c17.6-1,52.1-2.4,92.7-6.1
		s87.3-9.6,129.4-19.5c42.1-9.9,79.5-23.8,101.6-43.3s28.7-44.9,9.2-77.6c-11.7-13-25.2-24-39.9-33.7c-14.7-9.7-30.4-18.1-46.6-26.2
		S675.5,635,659.5,627c-16-8-31.6-16.4-46-26c-14.4-8.5-29-16.9-43.6-25.3c-14.6-8.5-29.1-17.1-43.3-26.2
		c-14.2-9-28.1-18.5-41.3-28.7c-13.3-10.2-26-21-37.8-32.9c-9.5-9.5-17.5-18.3-24.3-27.1c-6.8-8.8-12.4-17.5-17-26.6
		c-4.6-9.2-8.2-18.8-11-29.4c-2.8-10.6-4.8-22.3-6.3-35.4c-0.9-8-1.9-16.9-2.5-26.2c-0.5-9.2-0.6-18.8,0.3-28.3s2.9-18.6,6.5-27.2
		c3.6-8.5,8.8-16.3,16.1-22.9c22.9-17.6,52.5-26.5,85-29.2s67.8,0.9,102,8.2c34.2,7.3,67.3,18.4,95.3,30.7c28,12.3,51,26,65,38.4
		c7.2,5.8,13.5,12.4,19.2,19.3c5.8,6.9,11.1,14.2,16.4,21.4c5.3,7.2,10.6,14.4,16.4,21.2s12,13,19.2,18.5c12.8,10,23.3,7.7,30.9-2.4
		s12.2-27.9,13.1-48.8s-1.9-44.9-9.1-67.4S843.9,231.3,827,216.4z"/>
	<path class="st0" d="M38.1,11.1c-10,13.3-16.4,28.1-20.4,43.8s-5.5,32.3-5.9,49.2s0.6,34.3,1.7,51.5s2.1,34.2,2.1,50.5
		c0,23.6,0,47.3,0,71s0,47.3,0,70.9s0,47.3,0,70.9s0,47.3,0,71c0,38.2,0.5,79.1,1.2,121.2s1.6,85.6,2.6,129
		c0.9,43.4,1.9,86.9,2.6,129s1.2,82.9,1.2,121.1c8.6,0,19.5,1.3,31.1,2.6c11.6,1.3,23.8,2.5,35.1,2.4c11.3-0.1,21.7-1.7,29.6-6
		c7.9-4.3,13.3-11.3,14.5-22.5c0.2-1.7,9.8-3,24.2-4.2c14.4-1.2,33.5-2.1,52.6-2.8c19.1-0.7,38.1-1.2,52.4-1.5
		c14.3-0.3,23.8-0.5,23.8-0.5s-4.8,0.2-12.9,0.1c-8.1-0.1-19.5-0.5-32.7-1.7c-13.2-1.2-28.2-3.3-43.4-6.8
		c-15.2-3.5-30.7-8.3-45-15.1c-9.9-4.7-19.1-12.3-27.5-21.3S109,893.9,102.7,884s-11.6-19.4-15.4-26.8c-3.8-7.4-6.1-12.7-6.8-14.3
		c-3.6-8.8-6.9-17.9-9.8-27.5s-5.2-19.3-7-29.3c-1.8-10-3-20.2-3.5-30.4c-0.5-10.2-0.3-20.5,0.7-30.8c1.8-18,4.1-39.3,7.7-61.7
		c3.6-22.4,8.6-45.7,15.8-67.7c7.2-22,16.6-42.7,29.1-59.6c12.5-16.9,28.1-30.1,47.6-37.1c23.3-8.4,44.4-6,63.8,3.1
		c19.4,9.1,37,24.9,53.4,43.5s31.4,39.7,45.6,59.6s27.6,38.4,40.6,51.6c5.4,5.5,12.2,12,19.7,17.8s15.6,11.2,23.6,14.3
		c8,3.1,15.8,4.1,22.7,1.2c6.9-2.8,12.8-9.4,17-21.4c3.2-9.2,3.2-17.4,0.9-24.8s-6.8-14-12.6-20s-12.6-11.4-19.6-16.3
		c-7-4.9-14.1-9.4-20.3-13.7c-18.4-12.7-36.8-25.2-55.1-37.8c-18.3-12.6-36.5-25.3-54.5-38.3c-18-13-35.8-26.2-53.3-39.8
		c-17.5-13.7-34.7-27.8-51.5-42.5c-14.4-12.7-29.4-28-43.7-45c-14.4-17-28.2-35.8-40.3-55.4S74.8,294.7,67,274.2
		c-7.8-20.5-12.8-41-13.9-60.6c-0.6-9.5-1.4-19.7-1.9-30.2c-0.5-10.4-0.8-21.1-0.4-31.5c0.5-10.4,1.6-20.4,4-29.7s6-17.7,11.4-24.8
		c4.7-6.2,11-12.5,18.4-18.5s15.8-11.8,24.5-16.9s17.7-9.7,26.2-13.3c8.6-3.6,16.7-6.3,23.6-7.6c10.3-2,21-3.5,31.9-4.6
		c10.9-1.1,22-1.8,33.1-2.2c11.1-0.4,22.3-0.6,33.3-0.7s21.9,0,32.4,0c10.8,0,22.3,0.3,34.1,0.9c11.8,0.6,23.8,1.5,35.9,2.8
		c12,1.3,23.9,3,35.5,5.1c11.5,2.1,22.6,4.6,32.9,7.6c13.9,4,28,8.7,42.3,13.7s28.7,10.6,43.1,16.4s28.8,11.8,43.2,17.8
		c14.3,6,28.5,12.1,42.5,18c9.6,4,20.3,4.6,31.7,2.9c11.3-1.7,23.3-5.6,35.3-10.5s24-10.9,35.6-16.7C713,85.8,724,80.2,734,76
		c12-5.1,22.3-10.1,32-14.8s18.6-8.8,27.8-12.2s18.7-6,29.4-7.5c10.7-1.5,22.7-1.8,36.9-0.5c13.8,1.2,26.9,1.3,39.7,0.9
		c12.7-0.5,25.1-1.5,37.5-2.8c12.4-1.2,24.8-2.6,37.6-3.7c12.8-1.1,25.9-1.8,39.8-1.8c0-1.9,0-3.7,0-5.6s0-3.8,0-5.6s0-3.8,0-5.6
		s0-3.8,0-5.6c-81.4,0-162.8,0-244.1,0s-162.8,0-244.1,0c-81.4,0-162.7,0-244.1,0C200.9,11.1,119.5,11.1,38.1,11.1z"/>
	<path class="st0" d="M965.5,540.9c-1.6,1.5-3.9,3.9-7.2,6.7s-7.3,5.8-12.4,8.3c-5.1,2.6-11.1,4.6-18.3,5.6
		c-7.1,0.9-15.3,0.6-24.7-1.5c-15.8-4.9-29.3-9.9-41.6-15.5c-12.2-5.5-23.2-11.5-33.9-18.2c-10.7-6.6-21.2-13.9-32.5-22
		c-11.3-8.1-23.4-17.1-37.4-27.1c-11.8-8.4-25-19.8-39.2-32s-29.1-25.3-44.3-37.3c-15.2-12-30.7-22.8-45.7-30.5
		c-15.1-7.7-29.7-12.2-43.3-11.5c-5.7,0.3-11.6,1.1-17.2,2.7c-5.6,1.5-10.9,3.7-15.4,6.7c-4.5,3-8.2,6.8-10.6,11.4
		c-2.4,4.7-3.5,10.2-2.8,16.7c0.7,6.1,3.6,12,7.9,17.5s10,10.7,16.2,15.3c6.2,4.7,12.9,8.9,19.2,12.5c6.3,3.6,12.2,6.7,16.7,9.1
		c16.9,8.9,33.6,18,50.3,27.2s33.3,18.3,50,27.3c16.7,9,33.4,17.9,50.4,26.4c16.9,8.6,34,16.8,51.4,24.6c14.5,4.6,29,10.1,43,16.8
		c14,6.7,27.6,14.4,40.3,23.5c12.6,9.1,24.3,19.4,34.5,31.2c10.2,11.8,19,25.1,25.7,40c7.8,17.2,13.5,34.3,16.9,51.1
		c3.4,16.8,4.6,33.4,3.2,49.6c-1.4,16.2-5.3,32.1-11.9,47.5c-6.6,15.4-16,30.4-28.2,44.9c-20.3,23.8-49.5,40.4-83.8,51.8
		c-34.3,11.4-73.5,17.8-113.8,21.3s-81.7,4.2-120.1,4.2c-38.4,0-73.9-0.5-102.4,0.5c-42.2,1.5-84.2,3.2-125.3,4.7
		c-41.2,1.5-81.5,3-120.5,4.2c-38.9,1.2-76.4,2.1-111.8,2.7S78,958,47.3,957.5c-3.3,0.1-6.5,0.9-9.4,2.2c-2.9,1.3-5.5,3-7.7,5.2
		s-4,4.7-5.2,7.6c-1.2,2.8-1.9,6-1.9,9.3v2.1v2.2v2.1v2.2c0,3.3,0.7,6.5,1.9,9.4c1.2,2.9,3,5.5,5.2,7.7s4.8,4,7.7,5.2
		c2.9,1.2,6.1,1.9,9.4,1.9h238.4h238.4h238.4H1001c3.3,0,5.3-25.7,6.4-64.2s1.3-89.8,1.1-141.1c-0.2-51.3-0.8-102.7-1.4-141.1
		c-0.6-38.5-1.1-64.2-1.1-64.2c0-5.3,0.4-15.2,0.8-26.9c0.4-11.7,0.7-25.1,0.5-37.4s-0.8-23.6-2.4-30.8s-4.1-10.5-7.9-6.9l-7.9,9.8
		l-7.9,9.8l-7.9,9.8L965.5,540.9z"/>
	<path class="st0" d="M811.5,41c12.1,0,23.3,0.4,33.7,1.5s19.8,3,28.5,5.9c8.7,2.9,16.6,6.9,23.8,12.3s13.7,12.2,19.5,20.7
		c5.8,8.5,11.3,18.8,16.3,30c5,11.2,9.6,23.3,13.8,35.5c4.1,12.2,7.8,24.6,11,36.4s5.8,22.9,7.9,32.6c4,18.4,8.5,32.9,12.8,46.5
		c4.3,13.6,8.4,26.4,11.6,41.2s5.5,31.7,6.3,53.6c0.7,21.9-0.1,48.8-3.2,83.7c-4.3,47.6-6.4,95.3-7.2,143.1s-0.3,95.6,0.8,143.4
		c1.1,47.8,2.7,95.7,4,143.5c1.3,47.9,2.4,95.7,2.4,143.5c1.8,0,3.5,0,5.3,0s3.5,0,5.3,0s3.5,0,5.3,0s3.5,0,5.3,0
		c0-81.4,0-163.3,0-245.4s0-164.5,0-246.9s0-164.8,0-246.9s0-164,0-245.4c-16.9,0.3-33.8,1-50.7,2.1c-16.9,1-33.8,2.3-50.7,3.5
		c-16.9,1.3-33.8,2.5-50.8,3.5C845.3,40,828.4,40.7,811.5,41z"/>
</g>

<g id="ROAD">
	<path id="TRACK_cobblestone" class="st0" d="M256.6,948.5c-14.6,0-26.8-0.5-37.5-1.8s-19.8-3.2-28.1-6c-21.4-7.3-42-21.5-58.9-37.1
		s-30.2-32.3-37.1-44.7c-23.1-42.1-29.4-102.4-25.2-159.8C74,641.8,88.6,587.5,107,557.6c4.9-8,10.3-15.3,16.1-21.8
		s11.9-12.1,18.4-16.8c8.6-6.3,17.7-11,27.1-14c9.4-3,19.1-4.4,28.9-4.1c14.6,0.5,27.3,5.8,38.2,12.7c10.9,6.9,19.9,15.5,26.9,22.9
		c6.6,7,13.4,15,20.4,23.7s14.2,18,21.6,27.6c13.8,17.9,28.5,37,44.2,54.9s32.3,34.6,49.9,47.6c17,12.5,38.5,5.1,49.4-11
		c10.9-16,11.2-40.7-14.1-62.4c-70.9-49-133.7-96.9-180.8-134.9s-78.7-65.9-87.2-75.1c-29.5-32-54.9-75.4-73.1-116.1
		S63.8,212.2,63,190.9C54.8,134.4,71.2,99.6,96.8,78s60.6-30.1,89.6-34.1c149.3-11,247.5,11,311.4,36s93.7,53,106.2,54
		c18.9,1.6,63.2-18.9,106.3-39.8s85.1-42.2,99.4-42.2c0,0,18.1-4,40.6,0.3C872.9,56.5,900,69,918,102
		c110.5,365.5,65.7,453.6-9.4,447.3s-180.4-106.9-190.8-119c-1.4-1.6-18.9-17.2-40.4-33.3c-21.5-16.2-46.9-33-64.1-37.2
		c-19.6-4.7-46.9-1.7-65.6,8.8C529,379.1,519,397.1,534,422.3c10.9,9.6,23.9,19.7,38.8,30.1c14.9,10.5,31.8,21.3,50.6,32.5
		c34.2,20.3,69.5,38.6,99.2,52.9s54,24.6,65.9,28.8c52,18.5,92.4,45.6,119.8,79.8c27.4,34.2,41.7,75.4,41.7,122
		c0,15.3-1.9,29.7-5.8,43.1c-3.8,13.4-9.6,25.8-17.2,37.1c-6.6,9.8-14.5,18.5-23.7,26.3s-19.6,14.6-31.3,20.4
		c-18.2,9-37.6,14.6-56.2,18.4c-18.6,3.8-36.3,5.8-51.3,7.5l-1,0.1l-1,0.1c-26,2.9-93.7,6.7-175.1,10.9s-176.5,8.8-257.6,13.3
		c-14.8,0.9-28.2,1.6-40.3,2.1C277.4,948.2,266.5,948.5,256.6,948.5z M455,867.9c88.7-4.9,152.7-12.6,194.5-19.1
		C691.3,842.3,711,837,711,837c35.5-7,62-21.3,79.6-36.3S817,770,817,760.4c0-9.2,2-24-4.7-41.6s-22.1-37.8-56.9-57.7
		c-15.7-5.5-43.5-17.4-76.3-33.2s-70.7-35.6-106.6-56.9c-21.5-12.8-41-25.3-58.4-37.6c-17.5-12.3-32.9-24.3-46.1-36
		c-19.1-16.9-34-33.4-44.8-49.6s-17.4-32.2-20.1-48.1c-2.9-17.5-7.9-43.4-8.4-67.9s3.4-47.7,18.3-59.5c29.4-23.4,67.9-30,107.8-28.6
		S602,254.5,637,262.9c27.5,6.6,54.3,18.1,79.4,33.7s48.3,35.4,68.5,58.5c1.5,1.7,2.9,3.4,4.4,5c1.5,1.7,2.9,3.4,4.4,5.1
		c6.6,7.7,13.1,15.2,19.4,22s12.3,13,18.1,18c15.4,10.4,29.9,1,39.7-18.1s14.8-47.9,11.1-76.5c-3.8-29.5-18-59.7-35.3-82.6
		s-37.8-38.6-54-39.1c-7.6,0.9-16.3,2.6-25.5,4.6c-9.2,2.1-19.1,4.5-29.2,7.1c-19.3,4.8-39.6,9.8-60.8,13.7s-43.3,6.5-66.1,6.5
		c-3.8,0-7.6-0.1-11.5-0.2c-3.8-0.1-7.7-0.4-11.6-0.7c-15.5-1.3-33-4-51.7-7.3c-18.8-3.4-38.8-7.5-59.4-11.8
		c-31.6-6.6-65.2-13.5-98.2-18.7s-65.5-8.7-94.7-8.2c-38.3,0.6-60.6,7.6-73.9,15.9s-17.6,17.8-19.9,23.3c-0.9,2.4-7.4,20.6-5,47.4
		c2.3,26.9,13.4,62.4,47.6,99.5c5.3,5.8,18.6,16.3,35.3,28.6s36.7,26.6,55.5,39.9c27.2,19.3,57.7,41,88.1,63.6
		c30.3,22.7,60.5,46.4,87,69.6c37.6,33,64,62.2,80.4,88.9s22.5,51.1,19.5,74.7c-1.3,10-5,24.3-15.2,38.5
		c-10.1,14.3-26.7,28.6-53.6,38.8c-17.5,6.6-35,10.6-52.5,12.1s-35,0.3-52.4-3.5c-14.4-3.1-28.9-8-43.2-14.8
		c-14.3-6.8-28.5-15.3-42.4-25.6c-23.3-17.2-48.4-48.6-71.7-74.7c-23.3-26-44.7-46.7-60.5-42.3c-37.5,11-39.5,50.3-29.1,89.7
		s33.3,79.1,45.5,90.9c15.3,20.2,63.9,29.1,113.4,32.6S436.6,868.9,455,867.9z M190.1,213.1c-0.1,0.1-0.1,0.1-0.1,0.2
		c0,0.1,0,0.1-0.1,0.2l-0.2,0.4l-0.1,0.4l0.1-0.4l0.2-0.3c0.1,0,0.1-0.1,0.1-0.1C190,213.4,190.1,213.2,190.1,213.1z"/>
	<circle id="START_o" cx="879.3" cy="760.9" r="3.4" class="st1"/>
	<circle id="START" cx="916.4" cy="760.9" r="3.4" class="st1"/>

</g>
	<path id="drive" class="st2" d="M879.3,802.9c0-17.5,0.5-35-0.4-52.5c-0.9-17.4-3.3-34.8-10.8-50.6c-7.3-15.3-19.1-27.9-32.2-38.5
		c-6.9-5.6-14.2-10.5-21.5-15.5c-7.7-5.2-15.4-10.4-23.1-15.6c-15.3-10.3-30.7-20.4-46-30.6c-15.5-10.2-31-20.4-46.5-30.6
		c-15.4-10.1-30.8-20.2-46.3-30.2c-15.5-10.1-31-20.2-46.4-30.3c-13.4-8.8-27.4-16.7-41.2-24.9c-15.3-9.1-30.5-18.4-45.1-28.6
		c-14.6-10.2-28.9-21.1-41.6-33.6c-11.9-11.7-23.2-25.1-29.3-40.8c-3.1-7.8-4.7-16.2-4.2-24.6c0.5-8,3.1-15.7,7-22.7
		s9.1-13.2,14.8-18.8c5.9-5.8,12.5-10.7,19.9-14.4c15.4-7.8,32.9-10.5,50-10.3c18.2,0.3,36.3,3.5,53.9,8.4
		c17.3,4.8,34.2,11.2,50.6,18.5c16,7.2,31.6,15.1,46.5,24.3c15.4,9.5,30.4,19.6,45.3,29.8c15.2,10.4,30.3,20.7,45.8,30.7
		c15.3,9.8,31.1,19.1,47.5,27.1c14.7,7.1,30.3,13.9,46.7,15.5c6.6,0.6,13.3,0.4,19.6-1.4c6.5-1.8,12.4-5.3,17.1-10.2
		c10.5-10.9,14.6-26.6,16.2-41.2c2-17.3,0.8-35-1.6-52.2c-2.5-18.1,0.1-36.7-5-54.2c-5-16.8-1.9-32-9.3-48
		c-3.5-7.6-5.7-29.5-10-36.7c-3.8-6.3-15.2-26-20.3-31.3c-12-12.4-20-19.2-36.3-24c-17.4-5.1-40.7,2.9-58.7,0.7
		c-17.1-2.1-56.7,6-56.7,6s-46.2,6.1-64.7,5.3c-18.7-0.8-47.3,3.9-66,3.3c-18.5-0.5-46.2-7.2-64.7-8c-18.5-0.8-20.2-4.3-38.7-5.2
		c-18.5-0.9-37.1-2-55.6-3.1c-18.5-1-36.9-2-55.4-3c-18.6-1-37.2-1.9-55.8-2.6c-18.5-0.8-31.6-6.7-50.1-7.1
		c-9.3-0.2-25.4-2.9-34.7-3c-8.6-0.1-30.7-1.2-39.3,0c-8.3,1.3-29.3,7.9-36.7,12c-7.2,3.9-17.7,19.9-22.3,26.7
		c-9.5,13.9-2.7,27.3-4,43.7c-0.7,8.8,1.3,31.4,1.3,40.3c-0.1,8.7,0.6,21.4,1.3,30c1.4,17.2,15.9,34.8,22,51
		c6.1,16.5,19.5,18.7,30.3,32.7c10.8,14,27.1,29.9,39.7,42.3c13.1,12.9,27.2,22.1,40.7,34.7c13.6,12.6,26.1,18.3,39.8,30.8
		c13.7,12.4,27.4,24.9,41.2,37.3c13.7,12.4,27.3,25,40.8,37.6c13.5,12.7,29.2,13.2,42.2,26.3c12.9,12.9,38.1,25.8,50.3,39.3
		s25.3,22.8,36.7,37c10.8,13.6,24,26.5,24,26.5c-5.7,8.9,6.7,36.6,4.5,42c-3.2,6.6-13.1,36.2-20,38c-7.4,1.9-28.9,13.8-36.5,13.5
		c-8.8-0.4-37.9,4.6-46.5,3c-16.9-3.1-26.2-5.3-42-12c-16.4-6.9-34-25.9-49-35.5c-15.4-9.8-28.6-31.4-43.5-42
		c-14.7-10.5-22-26.2-37.5-35.5c-7.4-4.5-9.1-11.7-16.9-15.6c-7.9-4-16-7.9-24.4-10.8c-15.9-5.5-33-7.8-49.5-4.1
		C172.5,621,158.2,630,147,642c-11.6,12.3-19.9,27.4-25.8,43.2c-6.2,16.8-9.7,34.5-10.6,52.4c-0.9,17.5,0.2,35.4,5.1,52.3
		c4.4,15.3,12,29.7,22.1,42c10.3,12.6,23,23.2,36.7,31.9c14.4,9.2,30,16.4,46,22.4c16.9,6.2,34.2,11,51.8,14.8
		c17.9,3.9,36.1,6.6,54.3,8.8c17.9,2.1,36,3.4,54,4.1c17.3,0.7,34.7,0.8,52,0.4c18.6-0.4,37.1-0.8,55.7-1.4
		c18.6-0.6,37.1-1.4,55.7-2.5c18.5-1.1,37-2.5,55.5-4.2c17.4-1.6,34.8-3.2,52.2-5.1c18-2,35.9-4.2,53.8-7.2c18.1-3,36.2-6.7,54-11.5
		c17.1-4.6,34.1-10.3,50.1-17.8c15.2-7.1,29.8-15.8,42.5-26.9C863,827.8,872.7,816.4,879.3,802.9z"/>
<g id="layout">
</g>
</svg>
