<?xml version="1.0" encoding="utf-8"?>
<!-- Generator: Adobe Illustrator 21.0.2, SVG Export Plug-In . SVG Version: 6.00 Build 0)  -->
<svg version="1.1" id="SCENE_3" xmlns="http://www.w3.org/2000/svg" xmlns:xlink="http://www.w3.org/1999/xlink" x="0px" y="0px"
	 viewBox="0 0 1024 1024" style="enable-background:new 0 0 1024 1024;" xml:space="preserve">
<style type="text/css">
	.st0{fill:#FFFFFF;}
	.st1{fill:#64566D;}
	.st2{display:none;}
	.st3 {fill: rgba(255,255,255,0.8);}
</style>
<rect id="BACKGROUND_grass" y="0" width="1024" height="1024"/>
<g id="ROAD">
	<path id="TRACK_cobblestone" class="st0" d="M304.2,492.4L338,518l241.5-191.5c0,0,27.6-17.8,44.8-23.2c10.7-3.5,22.4-5.4,34.4-5.6
		c19.8-0.3,39.8,5.2,55.9,15.4C731,323.3,743,336,749.7,351c5.7,12.6,6.4,25.1,3.5,37.4c-3.5,15.2-11.5,28.7-23,40.9
		c-1.2,1.1-119.3,91.1-133.4,101.9c-4.7,3.5-8.8,7.5-12,12c-6.1,9-4.4,17.9,5.8,26.1c3.6,3,12.7,9.4,12.7,9.4s41.9-34.3,50.6-40.5
		c16.3-11.7,34-22,54.2-30c15.7-6.2,32.5-10.7,50.6-12.3c31.2-2.7,60.4,3.4,87.5,18.5c9.8,5.4,18.3,12,26.7,18.7
		c17.7,14.2,33.3,29.4,45.1,46.6c10.7,15.7,17.7,32.2,19,49.3c1.6,20.3-4.7,38.6-17.5,55.4c-6.6,8.5-14.6,16.3-23.9,23.2
		c-9.8,7.4-19.8,14.6-30.1,21.5c-11.2,7.6-24.3,13.5-38.5,17.6c-25.8,7.4-52.3,6-79.4-3c-14.9-5-28.5-11.9-41.3-19.8
		c-10.2-6.2-97.3-69.7-97.3-69.7l-45.6,34.7c0,0,1.5,1.5,1.8,1.8c6.2,4.6,12.4,9.2,18.5,13.9c8.3,6.4,16.7,12.8,24.5,19.4
		c6.7,5.6,13.1,11.6,19.2,17.7c19,18.9,34.5,39.1,43.3,61.5c6.9,17.4,8.9,34.8,4.4,52c-3.4,12.6-10,24.2-19.6,34.4
		c-8.8,9.6-19.8,17.4-31.4,25c-7.2,4.6-14.6,9.3-22.1,13.5c-16.4,9.1-34.2,16.6-54.5,20.8c-33.7,7-66.5,2.7-98.5-12.3
		c-12.2-5.8-23.7-12.5-34.3-20.1c-10.5-7.2-20.5-14.8-29.9-22.9c-13.1-11.4-24.7-23.4-32.5-37.2c-12.9-22.6-12.8-44.4-1.6-65.5
		c5-9.2,11.7-17.8,19.5-25.6c8.1-8.3,95.2-78.2,95.2-78.2l-121.8-92.6c0,0-53.2,42.7-79.1,63.4c-10.2,8.4-21.9,15.7-34.8,21.7
		c-12.7,5.8-26.4,10.1-41.7,11.5c-26.1,2.4-49.9-3.3-71.1-17.3c-11.8-7.6-21.8-16.8-29.3-26.8c-14.9-20.3-15.3-40-3.1-59
		c5.2-7.9,11.8-15.1,19.9-21.4c6.6-5.2,13.4-10.1,20.1-15.3c18.4-14.1,80.9-62.5,80.9-62.5s-14.4-11.3-19.9-16
		c-12.9-10.8-22.8-23.5-29-37c-8.3-17.9-9.7-35.8-6.3-53.5c3.4-17.8,10.3-31.9,19.7-46.6c9.6-15.1,21.4-29.2,35.3-42
		c6.7-6.2,229.9-185.1,241.4-193.4c11.6-8.2,23.3-14,37.6-18c23.8-6.5,48-5,72.6,3.6c13.4,4.7,25.3,11,36.6,18.3
		c7.9,5.1,15.5,10.6,22.4,16.5c28,24.2,38.3,51,29.8,80.4c-3.7,13.1-11.2,24.8-20.6,35.6C617.9,245.6,304.2,492.4,304.2,492.4z
		 M252.5,452.9c0.9-0.7,309.4-243.2,314.9-249.9c5.2-6.3,9.5-13.1,11.2-20.9c1.7-7.4-0.6-15.4-6.5-22.1
		c-5.6-6.4-12.9-11.5-20.4-16.4c-5.6-3.7-11.9-6.9-18.6-9.3c-7.4-2.8-15.8-2.9-22.3,0c-5.1,2-9.7,4.6-13.9,7.5
		C480.6,153.3,258.3,333,251.5,340.4c-9.4,10.3-17.2,21.4-23.4,33.1c-5.1,10-8.8,20.3-8.9,31.5s3.2,20.3,11.3,29.4
		c6.1,6.9,14.1,12.3,22.1,18.3h-0.1V452.9z M557,615.7l-11.5-8.7c-12.7-9.5-22.5-20.9-28.3-33.4c-9.3-19.6-7.7-37.8,2.8-55.3
		c6.2-10.3,15.1-18.9,25.4-26.7c41.5-31.6,82.9-63.1,124.4-94.6c2.9-2.1,5.2-4.6,7.1-7.3c4-5.9,7-11.9,7.6-18.8s-3.2-11.8-9.5-16.5
		c-2.8-2.2-6.7-3.2-10.2-2.5c-3.4,0.5-6.6,1.3-9.8,2.3c-9.4,3.3-17.7,7.9-24.7,13.6c-14.8,11.6-239.6,190-239.6,190l121.6,92.3h0.3
		h0.4L557,615.7z M517.9,726.5c-0.6,0.5-1,0.8-1.4,1.1c-9.1,7.2-18,14.4-27,21.5c-14.8,11.9-29.8,23.7-44.5,35.8
		c-5.9,4.8-11.6,9.9-17,15.1c-5.8,5.4-10.4,11.6-13.4,18.3c-3.5,7.3-2.5,15.8,2.6,23.2c4.4,6.6,10.3,12.4,16.5,18
		c8.6,7.6,18.1,14.4,27.8,21c6.4,4.5,13.3,8.4,20.6,11.8c10.6,4.8,21.6,7.3,33.3,6c9.1-1.2,17.6-3.5,25.4-6.9
		c19.9-8.4,37.1-19.4,52.2-32.1c12.4-10.4,16.8-23.3,13.2-38.2c-2.5-10.4-8.1-20.2-15.1-29.6c-7.3-9.6-15.6-18.8-25.1-27.4
		c-8.1-7.5-16.7-14.5-25.8-21.4l-19.1-14.2L517.9,726.5z M656.1,619l67.3,49.3c9.1,6.6,17.9,13.3,27.9,19
		c6.9,4.1,14.4,7.5,22.3,10.1c8.6,2.8,18,2.8,25.8,0.1c6.6-2.2,12.6-5.1,17.9-8.7c9.5-6.5,18.9-13.2,28.1-20.1
		c5.3-3.9,9.8-8.3,13.6-13.2c8.8-11.4,11.5-23.9,6.9-37.7c-2.7-8.1-7.6-15.7-13.4-22.9c-10.2-12.6-23.1-23.6-37.2-33.8
		c-14.1-10.2-28.1-13.4-44.8-11l-4.1,0.6c-9.8,1.9-18.9,4.9-27.2,8.9c-18.5,8.5-82.2,58.6-83.2,59.4L656.1,619L656.1,619z
		 M258.4,528.5c0,0-95.4,73.2-100.3,77.1c-4.3,3.3-7.8,7.2-10.4,11.5c-1.6,2.4-1.3,5.5,1,8c3.5,4.3,8.1,8.1,13.3,11.2
		c2.5,1.6,5.6,2.3,8.6,2.1c3.5-0.3,7-0.9,10.4-1.8c11-3.2,20.1-8.6,28.1-14.9c15.5-12.1,83.7-66.9,83.7-66.9L258.4,528.5z"/>
	
		<circle id="START" cx="149.3" cy="585.4" ry="3"/>
	<g id="CHECK">
		<polygon id="1" class="st1" points="117.7,529.9 198.4,591.3 195.1,593.7 114.5,532.3 		"/>
		<polygon id="2" class="st1" points="397.3,717.6 478.5,779.4 468.4,787.1 387.2,725.3 		"/>
		<polygon id="3" class="st1" points="578.3,442 659.4,503.8 651.4,509.9 570.2,448.1 		"/>
	</g>
</g>
<path id="drive" d="M135.2,568.4c153.2-120.4,304.2-217,457.5-337.3c4.5-4.7,11.4-9.5,15.9-14.3c2.5-5.2,9.9-17.8,12.4-22.9
	c0.6-5.4,1.8-15.8,2.5-21.3c-1.2-5.4-7.6-11.5-8.8-16.9c-2.8-5.2-18-12.4-20.8-17.5c-4.3-4.7-19-14.3-24.8-18.2
	c-7.1-3-15.8-8.1-23-11c-8.8-1.7-18.7-4.3-27.6-5.9c-7.6,0.5-21,3-28.6,3.4c-6.5,2.3-12,6.4-18.5,8.7c-5.7,3.7-9.5,11.1-15.2,14.8
	c-86.8,88.6-182.1,144.7-268.8,233.3c-3.4,4.6-0.6,17.1-4,21.7c-1.4,4.4,5.4,18.4,4,22.8c0.3,4.2,4.9,7.3,5.2,11.5
	c1.8,4,6.7,8.4,8.5,12.6c2.9,4,7.2,7.6,10.1,11.7c24.4,21.9,46.3,39.2,70.7,61.1c95,71.6,189.9,143.2,284.9,214.7
	c16.8,14.6,33.4,29.2,50.1,43.7c6.9,8.1,13.8,16.1,20.6,24.2c4.7,8.4,9.5,16.9,14.4,25.3c1.8,8.7,3.7,17.5,5.5,26.3
	c-1.9,9-4,18-5.9,27c-6.6,9.1-13.2,18.3-19.7,27.4c-9.3,6.1-18.5,12.3-27.8,18.3c-11.5,3.1-23.1,6-34.6,9.1
	c-12.8,0.3-25.6,0.5-38.5,0.8c-13.2-2.2-26.2-4.3-39.3-6.5c-12.4-4.3-24.8-8.4-37.2-12.7c-10.7-6-21.4-12-32.2-17.9
	c-8-7.4-16.1-14.7-24.1-22.1c-4.4-8.4-8.8-16.9-13.2-25.3c-0.1-10.3-0.1-20.5-0.1-30.8c4.3-10.1,8.6-20.1,13-30.1
	c7.7-9.7,15.4-19.5,23.1-29.2c10.1-9.3,20.2-18.6,30.3-28c77.2-56.5,154.5-113,231.8-169.5c9.3-5.2,18.7-10.4,27.9-15.7
	c9.9-3.7,19.8-7.3,29.8-11c10.5-1.6,21.1-3.2,31.7-4.7c11.3,1.1,22.7,2.1,34,3.2c5.4,1.5,10.9,2.9,16.3,4.4c5,1.9,10.1,3.7,15.1,5.6
	c4.7,2.3,9.3,4.6,13.9,6.8c4.2,2.6,8.4,5.3,12.5,8c3.7,3,7.4,6.1,11.1,9.1c3.2,3.4,6.4,6.8,9.6,10.2c2.7,3.8,5.4,7.5,8,11.2
	c2.1,4.1,4.2,8.2,6.3,12.3c1.7,4.9,3.4,9.9,5,14.8c1.1,5.7,2.3,11.4,3.5,17.1c0.6,6.1,1,12.3,1.6,18.4c-0.3,6.2-0.6,12.6-0.8,18.8
	c-1.3,6.1-2.5,12.2-3.7,18.3c-2.3,5.6-4.7,11.3-7,16.9c-3.6,4.9-7.1,9.7-10.7,14.6c-4.9,3.8-10,7.6-14.9,11.4
	c-10.7,3.3-21.4,6.7-32.1,10c-11.7-0.4-23.6-0.9-35.4-1.3c-12.4-3.4-24.7-6.7-37.1-10.1c-12.4-5.4-24.8-10.9-37.2-16.4
	c-12-6.7-23.8-13.5-35.8-20.2c-42.1-31.3-84.4-62.6-126.5-93.9c-3-3.6-5.9-7.1-8.9-10.7c-1.6-3.7-3.1-7.4-4.7-11.1
	c0.1-4,0.3-8,0.4-12c2.1-4.5,4.2-8.9,6.3-13.4c4.3-5.1,8.6-10.2,12.9-15.3c36.8-30.4,73.6-60.7,110.5-91.1
	c5.1-5.5,10.3-11,15.4-16.5c4.2-5.8,8.4-11.6,12.5-17.4c1.7-4.3,3.3-8.6,5-12.9c0.1-4.5,0.1-8.9,0.2-13.4c-1.3-4.4-2.7-8.8-4-13.2
	c-2.5-4.1-5.2-8.2-7.8-12.3c-3.7-3.6-7.5-7.1-11.2-10.7c-4.7-2.8-9.3-5.5-14-8.3c-5.5-1.7-11-3.5-16.4-5.2
	c-6.2-0.5-12.2-0.9-18.4-1.4c-5.9,0.9-11.7,1.7-17.6,2.6c-5.4,2-11,4-16.5,6c-5.2,2.9-10.3,5.7-15.5,8.6c-4.8,3.4-9.7,6.9-14.5,10.4
	c-117,97.5-234.1,195.1-351.1,292.7c-3.3,2-6.6,4-10,6c-3.4,1.6-6.9,3.2-10.3,4.8c-3.6,1.1-7.1,2.3-10.7,3.4
	c-3.8,0.6-7.6,1.3-11.5,1.9c-4.1,0.1-8.3,0.2-12.4,0.3c-4.5-0.5-8.9-1.1-13.4-1.6c-4.9-1.2-9.8-2.4-14.7-3.7
	c-5.3-2.3-10.5-4.6-15.8-6.9c-3.4-2.9-6.8-5.9-10.2-8.8c-1.8-3.4-3.5-6.9-5.4-10.3c-0.4-3.8-0.8-7.6-1.3-11.4c0.6-4,1.3-8,2-12.1
	c1.6-4.1,3-8.2,4.5-12.3c2.1-4,4.2-8,6.3-12.1C130.4,576.1,132.7,572.3,135.2,568.4L135.2,568.4L135.2,568.4z"/>
<g id="layout">
	<polygon class="st3" points="138.4,550.5 140,549.3 141.7,548.1 145.1,550.7 148.5,553.3 146.9,554.6 145.2,555.7 141.8,553.2 	"/>
	<polygon class="st3" points="148.6,558.3 150.2,557.1 151.9,555.9 155.4,558.5 158.8,561.1 157.1,562.3 155.5,563.5 152.1,561 	"/>
	<polygon class="st3" points="160.3,567.2 162,566 163.5,564.7 167.1,567.4 170.5,570.1 168.8,571.2 167.2,572.5 163.7,569.8 	"/>
	<polygon class="st3" points="170.5,575 172.2,573.8 173.9,572.6 177.3,575.2 180.7,577.8 179.1,579 177.4,580.2 174,577.6 	"/>
	<path class="st3" d="M403.2,903.6c-5.2-3.9-10.2-8-14.9-12c-15-13-25.1-24.6-31.7-36.3c-12.2-21.4-12.7-42.1-1.6-63.1
		c4.8-8.7,11.2-17.1,19-24.9c6.3-6.5,64.9-53.8,95-78l2.8-2.3l-127.6-97.1l-3,2.4c0,0-53.2,42.7-79.1,63.4
		c-9.9,8.2-21.4,15.3-33.9,21.2c-13.5,6.2-26.6,9.8-40,11.1c-25.2,2.3-47.4-3.1-67.9-16.6c-2.7-1.7-5.3-3.6-7.8-5.5
		c-8.1-6.1-15-13-20.6-20.6c-14-19-15-37.3-3-56c5-7.7,11.5-14.6,19.1-20.6c3.7-2.9,7.4-5.8,11.1-8.4c2.9-2.2,6-4.5,9-6.8
		c18.2-13.9,80.3-62.1,80.9-62.5l2.9-2.2l-2.8-2.3c-0.1-0.1-14.4-11.3-19.8-15.9c-12.4-10.4-22.2-22.8-28.1-35.9
		c-7.6-16.6-9.6-33.6-6.2-52c3-15.5,8.7-29.2,19.3-45.7c9.6-15.1,21.3-29,34.7-41.4c7.6-6.9,230.6-185.6,241.1-193.1
		c11.9-8.4,23-13.7,36.2-17.3c22.5-6.1,45.2-5,69.5,3.5c11.9,4.2,23.6,10,35.7,17.8c7.9,5.1,15.4,10.5,22,16.2
		c27.2,23.5,37,49.7,28.8,77.6c-3.3,11.6-9.9,22.8-20.1,34.5c-7.5,8.2-234.1,186.8-320.7,255l-2.8,2.3l39.7,30.1l244.3-193.7
		l0.1-0.1c2.8-1.8,27.9-17.7,43.6-22.6c10.3-3.3,21.4-5.2,33-5.4c18.8-0.3,37.7,4.9,53.2,14.7c3,1.9,6,3.9,8.7,6
		c11.5,8.8,19.9,19,25.2,30.6c5.2,11.5,6.3,23.5,3.4,35.8c-3.2,13.9-10.4,26.8-22.1,39.4l-0.1,0.1c-3.7,3-50.3,38.5-84.3,64.5
		c-21.2,16.1-43.1,32.9-48.6,37.1c-5.1,3.8-9.3,8.1-12.7,12.8l-0.1,0.1c-6.9,10.3-4.7,20.6,6.4,29.8c3.6,3,12.9,9.5,12.9,9.5l3,2.1
		l2.8-2.3c0.4-0.3,41.9-34.3,50.3-40.4c17.7-12.6,35.1-22.3,53.2-29.5c16.3-6.5,32.7-10.5,49.2-11.9c29.9-2.6,58.5,3.4,84.6,17.9
		c5.7,3.2,11.5,7,18.3,12.2c2.8,2.2,5.5,4.3,7.8,6.2c19.2,15.3,33.7,30.3,44.5,45.9c11.1,16.2,17.3,32.3,18.6,48
		c1.6,19-4,36.6-17,53.6c-6.5,8.3-14.3,15.9-23.2,22.6c-11.8,8.9-21.1,15.5-30,21.4c-10.8,7.3-23.3,13-37.2,17.1
		c-24,6.9-49.7,5.9-76.2-2.9c-13.2-4.5-26.4-10.8-40.3-19.4c-10-6.1-96.2-68.9-97.1-69.6l-3-2.2l-51.1,38.9l2.3,2.3
		c0.6,0.6,1.4,1.4,1.6,1.6l0.2,0.3l0.6,0.5c6.2,4.6,12.2,9,18.2,13.6l3.5,2.7c6.9,5.4,14.2,10.9,20.8,16.6
		c6.4,5.4,12.7,11.2,18.9,17.5c20.9,20.9,34.9,40.7,42.7,60.5c7.1,17.9,8.6,34.4,4.3,50.4c-3.3,12.2-9.7,23.3-18.9,33.2
		c-8.8,9.6-19.9,17.4-30.7,24.4c-6.9,4.4-14.4,9.1-21.9,13.3c-17.8,9.9-35.1,16.5-53.2,20.3c-32,6.6-64.1,2.6-95.2-11.9
		c-12-5.7-23.3-12.4-33.7-19.7C412.8,910.8,407.9,907.2,403.2,903.6z M343.9,586.8l131.9,100.3L471,691
		c-30.1,24-88.5,71.3-94.8,77.7c-7.6,7.6-13.9,15.8-18.6,24.4c-10.8,20.4-10.3,40.5,1.6,61.2c6.5,11.5,16.5,22.9,31.3,35.7
		c4.7,4,9.7,8,14.8,11.9c4.7,3.6,9.6,7.1,14.6,10.6c10.3,7.3,21.4,13.8,33.2,19.4c30.4,14.2,61.7,18.2,92.8,11.7
		c17.6-3.7,34.6-10.2,52.1-20c7.5-4.2,14.8-8.8,21.7-13.3c10.6-6.9,21.5-14.5,30.2-23.9c9-9.6,15.2-20.5,18.4-32.3
		c4.1-15.7,2.8-31.8-4.2-49.3c-7.7-19.5-21.5-39.1-42.2-59.8c-6.2-6.2-12.4-12.1-18.8-17.3c-6.6-5.6-13.8-11.1-20.7-16.5l-3.5-2.7
		c-6-4.6-11.9-8.9-18.1-13.6l-0.8-0.6l-0.4-0.4c-0.2-0.2-0.9-0.9-1.5-1.5l-3.9-3.8l55-41.9l5.1,3.7c0.8,0.6,87,63.4,96.9,69.4
		c13.6,8.4,26.7,14.7,39.6,19c25.8,8.6,50.7,9.5,74,2.9c13.6-4,25.7-9.6,36.3-16.6c8.8-5.9,18-12.4,29.8-21.3
		c8.8-6.6,16.4-14,22.7-22.1c12.7-16.6,18.1-33.8,16.6-52.4c-1.2-15.3-7.4-31.2-18.2-47.1c-10.6-15.4-25-30.2-43.9-45.4
		c-2.3-1.8-5-4-7.8-6.1c-6.6-5.1-12.4-8.9-18-11.9c-25.5-14.2-53.2-20.1-82.5-17.5c-16.1,1.5-32.2,5.4-48.2,11.7
		c-17.8,7.1-35.1,16.7-52.5,29.1c-8.4,6.1-49.8,39.9-50.3,40.3l-4.8,4l-5.2-3.7c-0.1-0.1-6.4-4.5-10.7-7.7c-0.9-0.7-1.8-1.3-2.3-1.9
		c-12.2-9.9-14.6-21.1-6.9-32.4l0.1-0.1c3.5-4.9,8-9.4,13.2-13.3c5.6-4.3,27.4-21,48.6-37.1c33.7-25.8,80-61,84.1-64.3
		c11.4-12.2,18.4-24.9,21.5-38.4c2.8-11.9,1.7-23.7-3.3-34.8c-5-11.1-13.2-21.1-24.5-29.7c-2.6-2-5.5-4-8.5-5.8
		c-14.9-9.4-33-14.5-51.2-14.2c-11.2,0.2-21.8,2-31.9,5.2c-15.1,4.8-39.6,20.2-42.7,22.2L338,525.6l-44-33.4l4.9-3.9
		c86.5-68.1,313-246.6,320.3-254.7c10-11.5,16.4-22.5,19.6-33.7c7.8-27.2-1.7-52.6-28.2-75.6c-6.5-5.6-13.9-11-21.7-16
		c-12-7.7-23.3-13.5-35-17.5c-23.5-8.2-45.5-9.4-67.2-3.4c-12.8,3.5-23.6,8.7-35.1,16.8c-10.5,7.4-233.3,185.9-240.8,192.9
		c-13.3,12.3-24.9,26-34.4,40.9c-10.5,16.2-16.1,29.7-19,45c-3.5,18.1-1.6,34.8,6,51c5.8,12.8,15.4,25,27.6,35.2
		c5.4,4.6,19.6,15.8,19.7,15.9l4.9,3.8l-4.9,3.8c-0.6,0.4-62.7,48.6-80.9,62.5c-3,2.3-6.1,4.6-9.1,6.9c-3.6,2.7-7.4,5.5-11,8.4
		c-7.4,5.8-13.7,12.5-18.6,20C79.6,608.4,80.5,626,94,644.4c7.2,9.6,16.6,18.2,27.8,25.4c19.8,13,41.2,18.3,65.6,16
		c12.9-1.2,25.7-4.7,38.9-10.8c12.4-5.8,23.6-12.8,33.3-20.8c25.8-20.7,79.1-63.4,79.1-63.4L343.9,586.8z M440.1,872.9
		c-4.5-3.4-8.3-6.6-12-9.7c-5.4-4.9-12.3-11.4-17.4-19c-6-8.8-7.1-18.8-3-27.5c3.2-7.3,8.1-14,14.5-20c5.9-5.6,11.6-10.7,17.4-15.4
		c9.9-8.1,19.9-16.1,29.8-23.9c4.9-4,9.9-8,14.8-11.9l27-21.5l6.5-4.9l8.1,5.9l19.1,14.2c9.5,7.2,18.2,14.3,26.3,21.7
		c9.6,8.7,18.2,18.2,25.9,28.2c8.6,11.5,13.6,21.4,16,31.3c4,16.7-0.9,31.2-14.9,42.9c-16.3,13.7-34.5,24.9-53.9,33.1
		c-8.4,3.7-17.7,6.3-27.8,7.6h-0.1c-12.7,1.5-25-0.8-38.1-6.7c-7.6-3.6-14.9-7.7-21.6-12.4C449.8,880.1,444.8,876.4,440.1,872.9z
		 M517.9,722l-4.4,3.3l-27,21.5c-4.9,4-9.9,8-14.8,11.9c-9.8,7.9-19.9,15.9-29.8,23.9c-5.8,4.7-11.4,9.7-17.3,15.3
		c-6.2,5.8-10.9,12.3-14,19.3l0,0c-3.8,8.1-2.8,17.4,2.9,25.7c4.9,7.4,11.7,13.8,17,18.6c3.5,3.1,7.4,6.3,11.7,9.6
		c4.6,3.5,9.7,7.2,16.4,11.7c6.6,4.6,13.7,8.6,21.2,12.2c12.4,5.7,24.3,7.8,36.1,6.4h0.1c9.6-1.3,18.6-3.7,26.7-7.3
		C562,886,579.9,875,596,861.4c13.2-11.1,18-24.9,14.1-40.9c-2.3-9.6-7.2-19.4-15.6-30.6c-7.5-9.9-16.1-19.3-25.5-27.8
		c-7.4-6.8-15.2-13.3-23.8-19.9c-0.8-0.6-1.5-1.1-2.3-1.7l-19.1-14.2L517.9,722z M151.6,636.4c-3.4-2.6-6.4-5.4-8.8-8.4
		c-3.6-4-4.2-9.2-1.5-13.3c2.8-4.8,6.8-9.1,11.7-12.9c4.2-3.3,70.7-54.3,99.1-76.1l6.4-4.9l44.3,33.8l-4.8,3.9
		c-0.7,0.5-68.4,54.9-83.8,67c-9.8,7.7-19.9,13.1-30.6,16.2h-0.4c-3.8,1-7.8,1.7-11.9,2h-0.1c-4.9,0.4-9.9-0.9-13.8-3.3
		C155.5,639.2,153.4,637.8,151.6,636.4z M258.4,523.9l-4.3,3.3C225.7,549,159.3,600,155,603.3c-4.7,3.6-8.4,7.7-11.2,12.3
		c-2.3,3.4-1.8,7.7,1.3,11.1l0.1,0.1c3.7,4.4,8.5,8.5,14.1,11.9c3.3,2.1,7.6,3.1,11.6,2.8h0.1c3.8-0.3,7.6-1,11.2-1.9l0.2-0.1
		c10.3-3,20-8.1,29.5-15.7c15.3-12,83.1-66.4,83.7-66.9l2.8-2.2L258.4,523.9z M238.1,449.7c-4.3-3.3-9.3-7.3-13.5-12
		c-8.8-9.8-12.7-19.9-12.6-32.5c0.1-10.5,3.2-21.1,9.5-33.6c6.5-12.3,14.6-23.7,24.2-34.2c6.6-7.3,227.8-186.3,246.4-199.5
		c4.7-3.3,9.8-6.1,15.3-8.3c8.6-3.7,19.4-3.7,29-0.1c7.2,2.6,14,6,20.2,10.1c4,2.6,7.4,4.9,10.6,7.4c4.5,3.4,8.1,6.7,11,10
		c6.9,7.7,9.7,17.2,7.6,25.9c-1.6,7.5-5.3,14.6-12.2,23c-6.2,7.4-312.7,248.2-315.7,250.7l-5.1,4l-5.2-3.9c-1.5-1.1-3-2.3-4.5-3.3
		l-0.1-0.1C241.2,452.1,239.7,450.9,238.1,449.7z M565,148.7c-3.2-2.4-6.6-4.7-10.5-7.3c-5.9-4-12.5-7.3-19.5-9.8
		c-8.7-3.3-18.5-3.3-26.2,0.1l0,0c-5.2,2.2-10.2,4.8-14.7,8c-18.6,13.2-239.3,191.9-245.9,199.2c-9.4,10.3-17.4,21.6-23.8,33.7
		c-6.2,12.1-9.1,22.5-9.2,32.7c-0.1,12.1,3.5,21.7,12,31.2c4,4.6,8.9,8.5,13.1,11.7c1.6,1.2,3.1,2.4,4.7,3.5l0.1,0.1
		c1.5,1.1,3,2.2,4.6,3.4l3,2.3l2.9-2.3c3-2.4,309.4-243.2,315.4-250.3c6.6-8.1,10.3-14.9,11.8-22.1c1.9-8.2-0.7-17.1-7.2-24.3
		C572.7,155.1,569.3,152,565,148.7z M380.5,558l5.4-4.4c23-18.2,225.1-178.6,239-189.5c7.8-6.2,16.8-11.2,26.9-14.8l0.4-0.1
		c4-1.2,7.4-2,10.8-2.5c5.8-1.1,12.2,0.3,16.7,3.8l0.3,0.2l0.4,0.3c8.3,6.3,11.7,12.6,11.1,20.3c-0.6,6.8-3.3,13.5-8.3,21l-0.1,0.2
		c-2.6,3.5-5.2,6.2-8.4,8.6l-124.3,94.6c-11.1,8.4-18.7,16.4-24,25.1c-10.1,16.8-10.9,33.6-2.5,51.2c5.2,11.2,14.1,21.8,25.7,30.6
		c0.3,0.2,0.6,0.5,1,0.8l16.5,12.5L516,655.7h-6.6l-0.4-0.3L380.5,558z M677.7,352.1c-3.7-2.9-9.1-4.1-13.9-3.1l-0.1,0.1
		c-3.2,0.5-6.5,1.3-10.4,2.4l-0.2,0.1c-9.8,3.4-18.5,8.2-26.1,14.3c-13.9,10.9-216,171.3-239,189.5l-3.4,2.7l125.7,95.4h4.2
		l48.2-37.7l-14.4-10.9c-0.4-0.3-0.6-0.5-1-0.8c-11.9-9-20.9-19.9-26.3-31.4c-8.6-18.2-7.8-35.5,2.6-52.9
		c5.4-8.9,13.2-17.1,24.5-25.8l124.3-94.6c3-2.2,5.4-4.7,7.8-8l0.1-0.1c4.9-7.2,7.5-13.6,8.1-20c0.6-7-2.6-12.8-10.3-18.6l-0.4-0.3
		L677.7,352.1z M647.3,620.1l7.1,1.2l-4.5-5.4l1.6-1.2c19.7-15.4,67.4-52.1,83.8-59.7c8.8-4.3,18.7-7.4,29.2-9.5h0.1l4.5-0.7
		c19.4-2.8,35.6,1.1,51.2,12.4c2.1,1.5,4.2,3.1,6.2,4.6c13.4,10.2,23.9,20.1,32.2,30.3c7.1,8.7,11.7,16.7,14.3,24.4
		c4.9,14.8,2.4,28.9-7.6,41.8c-4,5.3-9.1,10.1-14.8,14.4c-9.2,6.9-18.7,13.7-28.3,20.2c-5.9,4-12.6,7.2-19.8,9.6
		c-9.6,3.3-21.1,3.3-31.5-0.1c-8.6-2.8-16.7-6.5-24-10.8c-8.8-5.1-16.7-10.9-24.3-16.5c-1.3-1-2.7-1.9-4-3L647.3,620.1z
		 M653.8,616.1l7,8.6l-3.7-0.6l63.4,46.4c1.3,1,2.8,2,4,3c7.6,5.5,15.4,11.3,24.1,16.3c7,4.3,14.9,7.8,23.3,10.5
		c9.6,3.1,20.2,3.1,29.1,0.1c6.9-2.3,13.4-5.3,19-9.2c9.5-6.5,19-13.3,28.2-20.2c5.5-4.1,10.3-8.8,14.3-13.9
		c9.5-12.3,12-25.8,7.3-40.1c-2.5-7.5-7.1-15.3-13.9-23.8c-8.1-10-18.5-19.8-31.7-29.9c-2-1.5-4-3-6.1-4.5
		c-14.8-10.7-30.2-14.5-48.4-11.8l-4.3,0.7c-10.2,2-19.7,5.1-28.4,9.3C720.7,564.3,673.4,600.7,653.8,616.1z"/>
</g>
<g id="OBSTACLES">
	<path id="01_stone1" class="st1" d="M236.2,557.9c-18.5,14.2-36.9,28.4-55.3,42.5c-2,1.5-3.9,3-5.8,4.4c-3.1,2.3-6.2,4.6-9.1,6.9
		c-3.6,2.7-6.5,5.9-8.6,9.5l-0.2,0.2l0.1,0.1c1.8,2.2,4,4.3,6.4,6.1l0.5,0.1c1.2,0.9,2.5,1.8,4,2.7l0.4,0.3c2.6-0.3,5.3-0.7,7.8-1.3
		c8.5-2.6,16.7-6.9,24.8-13.3c9.8-7.6,19.5-15.6,29.1-23.2c5.6-4.6,11.2-9.1,16.8-13.6c7.4-5.9,14.8-11.8,22.3-17.7l8.8-6.9
		l-19-14.4L236.2,557.9z"/>
	<path id="02_stone1" class="st1" d="M668,384.8c4.2-6.1,6.3-12.4,6.6-15.9s-1.3-6.1-5.3-9.2l-0.6-0.5c-2.8,0.4-5.3,1-7.8,1.8
		c-8.3,3-15.7,7.1-21.9,12.2c-12.9,10-26.7,20.8-44.5,35.1c-9.6,7.6-19.2,15.2-28.7,22.8c-8.3,6.7-16.6,13.3-25,19.9
		c-5.4,4.2-11.2,8.9-17.7,13.9c-6.4,5.1-12.9,10.2-19.3,15.3c-12.6,9.9-25,19.9-37.3,29.7c-5.9,4.7-11.9,9.5-17.7,14.2
		c0,0-33.7,26.8-43.1,34.4l106.1,80.7l30.6-24.2l-4.7-3.6c-13.4-10.2-23.8-22.5-30.1-35.9c-9.9-21-8.8-41.6,3-61.4
		c6-10,15-19.4,27.4-28.8c39.8-30.3,82.1-62.6,124.8-95C664.7,388.7,666.5,386.9,668,384.8z"/>
	<path id="03_stone1" class="st1" d="M368.2,350.2c8.3-6.5,16.5-13,24.7-19.5c18-14.2,35.9-28.3,54-42.5l37.1-29.3c12-9.4,23.9-18.8,35.9-28.2
		c8-6.2,14.4-11.2,20.4-15.7c6.9-5.1,13.1-10.7,18.2-16.9c5.5-6.7,8.6-12.5,9.8-18.2c1.3-5.4-0.4-11.1-4.7-16.1
		c-2.5-2.7-5.3-5.3-8.4-7.7c-3-2.3-6.5-4.6-9.8-6.8c-4.7-3.2-10-5.9-15.6-7.9c-4.9-1.8-8.8-1.7-13,0c-4.3,1.8-8.3,4-11.9,6.6
		c-19.5,13.9-34,24.8-47,35.4c-8.3,6.8-16.8,13.6-25.1,20.2c-5.1,4.1-10.2,8.2-15.3,12.3c-15,12.1-30.4,24.4-47.1,38
		c-15.1,12.2-30.3,24.5-45,36.5l-0.5,0.4c-4.6,3.8-9.3,7.6-13.9,11.3c-9.5,7.6-19.1,15.6-28.8,23.3c-7.9,6.2-15.1,13-21.7,20.2
		c-9.1,9.7-16.6,20.4-22.6,31.6c-5.4,10.7-8,19.5-8.2,28.8s2.9,17.3,9.3,24.5c3.3,3.6,7.1,6.9,11.4,10.1l1.4,1l28-22.1
		c23.1-18.2,46.4-36.4,69.4-54.6C355.6,360,361.9,355.1,368.2,350.2z"/>
	<path id="04_stone1" class="st1" d="M558.5,769.3c-6.9-6.3-14.1-12.4-21.8-18.3l-3.1-2.4l-11.1-8.2l-3-2.3l-2.4,1.8c-6.3,5.1-12.7,10.2-19.1,15.3
		c-3.6,2.9-7.2,5.7-10.7,8.5c-11.2,8.8-22.6,18-33.8,27.1c-5.6,4.5-11.1,9.4-16.6,14.7c-5.2,4.8-9.2,10.2-11.8,16.2
		c-2.6,5.3-1.9,11.5,1.9,16.9c4,6.2,9.8,11.6,14.8,16.1c3.2,2.9,6.7,5.8,10.7,8.8l-0.1,0.1l0.1,0.1c5.6,4.3,11.5,8.3,16,11.4
		c5.9,4,12.1,7.6,18.7,10.7c9.4,4.3,17.6,5.8,26,4.8c7.9-1,15.3-3.1,22.1-6c18.2-7.7,34.4-17.7,49.9-30.7c10.5-8.7,14-19.2,11-31.8
		c-2.1-8.5-6.5-17-13.9-26.9C575.4,786.1,567.4,777.5,558.5,769.3z"/>
	<path id="05_stone1" class="st1" d="M843.4,598.1c-7.4-9.3-17-18.2-29.8-27.9l-5.4-4.1c-10.6-7.7-21.6-10.4-34.9-8.6l-3.7,0.6
		c-7.9,1.5-15.7,4.1-24.6,8.1c-16.5,7.5-31.7,17.4-46.6,30.2c-1.2,1-1.5,1.3-3.5,3.1c-1.9,1.8-3.9,3.5-6.1,5.3
		c-5.4,4.4-11,8.7-16.4,12.9l-1.5,1.2l59.3,43.3l2.5,1.9c8.1,5.9,17,12.3,24.2,16.5s13.4,7,19.5,8.9c5.8,1.9,12.2,2,17.6,0.1
		c5.7-1.8,10.9-4.3,15.4-7.4c9.3-6.4,18.7-13.1,27.8-19.9c4.7-3.5,8.8-7.4,12.2-11.7c7.8-10.1,9.8-20.6,5.9-32
		C853.4,612.2,849.5,605.7,843.4,598.1z"/>
	<path id="06_stone1" class="st1" d="M1024,350.6L563.2,0H460.8L0,350.6v322.7L49.4,711l0,0l411.4,313h102.4L1024,673.4V350.6z M929.9,689.9
		c-7.1,9-15.5,17.4-25.4,24.7c-12,9-21.4,15.7-30.5,21.8c-12.1,8.1-26,14.6-41.2,19c-28,8-57.3,6.8-87.5-3.3
		c-14.6-4.9-29.1-11.8-44.2-21.1c-10.9-6.7-20.9-14.1-29.8-20.6L644.6,691l-21.8-15.9l-12-8.9l-31.1,24.5l15.6,11.8
		c7,5.3,14.4,11.1,20.9,16.6s13,11.5,19.8,18.3c22.1,22,36.8,43,45.3,64.3c7.8,19.5,9.4,38.4,4.7,55.9
		c-3.7,13.6-10.9,26.1-21.1,37.1c-10,10.8-22.2,19.3-32.9,26.2c-8.6,5.6-15.8,10-22.7,13.8c-19.2,10.8-38,17.9-57.6,22
		c-36.1,7.5-72.1,3-107.1-13.3c-12.9-6.1-25-13.2-36.2-21.1c-6.4-4.4-11.4-8-16.7-12.1c-5.3-4-9.9-7.7-14.3-11.5
		c-16.1-13.9-27.1-26.5-34.5-39.6c-13.6-24-14.2-48.2-1.8-71.6c4.7-9,12-18.4,20.6-27.2s18.7-16.9,27.5-23.9
		c14.1-11.4,28.4-22.9,42.4-33.9c6.5-5.3,13.2-10.5,19.8-15.8l-106-80.7c-5.5,4.5-11,8.9-16.7,13.3c-18.3,14.6-37.4,29.6-55.9,44.5
		c-10.8,8.9-23.1,16.6-36.8,22.9c-15.2,6.9-30.1,11-45.4,12.5c-29.3,2.7-56.2-3.8-79.9-19.5c-1.7-1.1-9.1-6.6-10.7-7.8h-0.1
		c-8.2-6.5-15.5-13.9-21.2-21.6c-16.4-22.4-17.6-44.8-3.5-66.5c5.6-8.6,12.9-16.4,21.6-23.1c4.1-3.2,8.3-6.3,12.3-9.4
		c2.7-1.9,5.4-4,8-6c20.4-15.7,38.5-29.5,55.2-42.3c5.7-4.4,11.5-8.8,17-13.2l2.1-1.6l-0.8-0.6c-4-3-8.1-6.2-12-9.6
		c-14.1-11.8-24.7-25.4-31.5-40.1c-8.5-18.3-10.7-37.1-6.9-57.4c3.1-16,9.8-32,20.5-48.7c10-15.6,22.2-30.1,36.5-43.4
		c7-6.4,14.3-12.6,21.4-18.3c16.1-13.1,32.2-26.3,47.9-39.1l7.1-5.8c4.7-3.8,9.3-7.5,14.1-11.4c3.7-2.9,7.4-5.9,11.1-8.9
		c6.7-5.4,13.4-10.9,20.1-16.2c11.4-9.3,22.7-18.6,34.2-27.8c7.9-6.5,16.1-12.9,24-19.1l7.8-6.1c1.8-1.5,3.7-2.9,5.4-4.4
		c4.8-3.9,9.8-7.8,14.9-11.7c11-8.4,22.4-16.9,34.3-25.2c12.9-9.1,26.3-15.5,40.8-19.4c26-7,53.2-5.7,80.8,4
		c13.2,4.6,26,11.1,39.3,19.6c5.7,3.7,10.7,7.2,15.3,10.7c3,2.3,5.8,4.5,8.4,6.8C655,142.9,666,172.4,657,204
		c-3.5,12.9-10.8,25.3-21.9,38.1c-7.8,9-17,17.2-27.1,24.7c-7.5,5.7-15,11.5-22.2,17.2c-2.4,1.9-4.8,3.8-7.2,5.7
		c-25.5,20.1-51.1,40.1-76.5,60.2c-12.8,10.1-25.5,20-38.2,30c-14.9,11.7-29.7,23.5-44.5,35.1c-24.6,19.4-49.4,38.7-74,58.1
		l-15.6,12.2c-2.6,2-5.2,3.9-7.7,6l-2.2,1.7l18,13.7l10-8c9.2-7.3,18.3-14.6,27.4-21.8c21.3-16.8,42.7-33.8,63.9-50.7l11.9-9.4
		c10.2-8.1,20.4-16.2,30.6-24.3l33.3-26.4c11-8.7,22.1-17.5,33.2-26.3c2.2-1.8,4.5-3.5,6.6-5.3c5.7-4.6,11.7-9.2,17.7-13.8
		c14.8-11.2,30.4-19.3,47.8-24.7c11.9-3.9,24.7-6,38.1-6.2c22.4-0.4,45.1,5.9,63.2,17.4c3.5,2.1,6.9,4.5,10,6.8
		c13.2,10,23.1,22.1,28.8,35.2c5.9,13.3,7.5,25.9,4,41.4c-3.6,15.5-12,30.2-24.7,43.8c-1.4,1.4-2.9,2.6-4.5,3.9l-0.2,0.2
		c-15.6,11.8-31,23.6-46.5,35.4c-13.6,10.4-43.3,33-43.3,33c-13.2,10-26.7,20.3-40,30.6c-4.9,3.9-8.1,7-10.5,10.3
		c-4.2,6.2-3.1,11.3,3.7,16.9l4.3,3.3c1.6-1.2,3.3-2.6,4.9-3.8c4.9-3.9,9.5-7.6,14.1-11.5c9.5-8.4,17.3-14.7,25.1-20.3
		c18.6-13.3,38-23.9,56.3-31.1s36-11.4,54.1-13c34-3,66.2,3.9,95.5,20.3c7.3,4.1,14.1,8.7,20.4,13.6l7.9,6.2
		c20.3,16.2,35.8,32.2,47.2,48.8c12.2,17.9,19,35.2,20.4,52.9C950.3,651.3,944,671.4,929.9,689.9z"/>
</g>
</svg>
