<?xml version="1.0" encoding="utf-8"?>
<!-- Generator: Adobe Illustrator 21.0.2, SVG Export Plug-In . SVG Version: 6.00 Build 0)  -->
<svg version="1.1" id="SCENE_3" xmlns="http://www.w3.org/2000/svg" xmlns:xlink="http://www.w3.org/1999/xlink" x="0px" y="0px"
	 viewBox="0 0 1024 1024" style="enable-background:new 0 0 1024 1024;" xml:space="preserve">
<style type="text/css">
	.st0{display:none;}
	.st1{display:inline;fill:#231F20;}
	.st2{display:inline;}
	.st3{fill:#FFFFFF;}
	.st4{fill:#231F20;}
</style>
<rect id="BACKGROUND_grass2" width="1024" height="1024"/>
<g id="ROAD" class="st0">
	<path id="TRACK_cobblestone" class="st1" d="M840,484c58,0,105-47,105-105c0-45.7-29.2-84.6-70-99v-7c40.8-14.4,70-53.3,70-99
		c0-52.9-39.1-97.7-90-105l0,0H465v0c-0.8,0-1.7,0-2.5,0C386.6,69,325,130.6,325,206.5c0,24.5,6.4,47.6,17.7,67.5H310H170
		c-58,0-105,47-105,105c0,54.6,41.7,99.5,95,104.5v0.5h155v170h-90c-88.4,0-160,71.6-160,160s71.6,160,160,160s160-71.6,160-160
		c0-1.7,0-3.3-0.1-5h0.1v-85h67.7c-17.5,25.6-27.7,56.6-27.7,90c0,88.4,71.6,160,160,160s160-71.6,160-160
		c0-32.8-9.9-63.3-26.8-88.7l26.7-26.7c16.8,35.7,53,60.4,95.1,60.4c58,0,105-47,105-105s-47-105-105-105c-12.3,0-24.1,2.1-35,6v-71
		H840z M600,204L600,204c-0.5-23.6-6.8-45.7-17.7-65H741c-3.9,10.9-6,22.7-6,35c0,45.7,29.2,84.6,70,99v7c-40.8,14.4-70,53.3-70,99
		c0,12.3,2.1,24.1,6,35H600V204z M840,414c-19.3,0-35-15.7-35-35s15.7-35,35-35s35,15.7,35,35S859.3,414,840,414z M875,174
		c0,19.3-15.7,35-35,35s-35-15.7-35-35s15.7-35,35-35S875,154.7,875,174z M395,206.5c0-37.3,30.2-67.5,67.5-67.5
		s67.5,30.2,67.5,67.5S499.8,274,462.5,274S395,243.8,395,206.5z M135,379c0-19.3,15.7-35,35-35s35,15.7,35,35s-15.7,35-35,35
		S135,398.3,135,379z M269,414c3.9-10.9,6-22.7,6-35s-2.1-24.1-6-35h41h155v0c25.7-0.5,49.6-7.9,70-20.6V414H385h-70H269z M385,484
		h150v170H385V484z M225,904c-49.7,0-90-40.3-90-90s40.3-90,90-90s90,40.3,90,90S274.7,904,225,904z M585,904c-49.7,0-90-40.3-90-90
		s40.3-90,90-90s90,40.3,90,90S634.7,904,585,904z M840,619c19.3,0,35,15.7,35,35s-15.7,35-35,35s-35-15.7-35-35S820.7,619,840,619z
		 M600,654V484h135v125.5l-67.4,67.4C643.5,662.4,630.2,654,600,654"/>
	<circle id="START" class="st2" cx="366.2" cy="575.7" r="3.8"/>
	<g id="CHECK" class="st2">
		<rect id="1" x="196.9" y="257" class="st3" width="4.6" height="114.1"/>
		<rect id="2" x="210.4" y="629.2" class="st3" width="14.3" height="114.8"/>
		<rect id="3" x="597.4" y="501" class="st3" width="11.4" height="114.8"/>
	</g>
</g>
<g id="layout">
	<path class="st3" d="M585,970c-86,0-156-70-156-156c0-31.5,9.3-61.8,27-87.7l4.3-6.3H381v85h-0.1l0.1,4.1c0.1,1.8,0.1,3.4,0.1,4.9
		c0,86-70,156-156,156S69,900,69,814s70-156,156-156h94V480H164v-0.1l-3.6-0.3c-24.9-2.4-48-13.9-64.9-32.4
		C78.4,428.5,69,404.3,69,379c0-55.7,45.3-101,101-101h179.5l-3.4-6c-11.2-19.9-17.2-42.6-17.2-65.5C329,132.9,388.9,73,462.5,73
		c0.7,0,1.5,0,2.2,0l4.3,0.1V73l385.8,0c49.2,7.2,86.2,50.6,86.2,101c0,42.7-27.1,81-67.3,95.2l-2.7,0.9v12.6l2.7,0.9
		C913.9,298,941,336.3,941,379c0,55.7-45.3,101-101,101h-39v80.6l5.3-1.9c10.8-3.8,22.1-5.8,33.7-5.8c55.7,0,101,45.3,101,101
		s-45.3,101-101,101c-39,0-74.9-22.8-91.5-58.1l-2.4-5.2L713,724.8l1.8,2.7C732,753.2,741,783.1,741,814C741,900,671,970,585,970z
		 M379,718h85.1l-6.4,9.4C440.2,753,431,782.9,431,814c0,84.9,69.1,154,154,154s154-69.1,154-154c0-30.5-8.9-60.1-25.8-85.4
		l-2.7-4.1l36.3-36.3l3.6,7.7c16.3,34.6,51.4,57,89.7,57c54.6,0,99-44.4,99-99s-44.4-99-99-99c-11.3,0-22.4,1.9-33,5.6l-8,2.8V478
		h41c54.6,0,99-44.4,99-99c0-41.9-26.5-79.4-66-93.4l-4-1.4v-15.5l4-1.4c39.5-14,66-51.5,66-93.4c0-49.4-36.3-91.9-84.4-99H471v0.1
		l-6.3-0.1c-0.7,0-1.5,0-2.2,0C390,75,331,134,331,206.5c0,22.6,5.8,45,16.9,64.5l5.1,9H170c-54.6,0-99,44.4-99,99
		c0,24.8,9.2,48.5,25.9,66.8c16.6,18.2,39.2,29.4,63.6,31.7l4.8,0.5H321v182h-96c-84.9,0-154,69.1-154,154s69.1,154,154,154
		s154-69.1,154-154c0-1.4,0-3-0.1-4.8l-0.1-6.2h0.2V718z"/>
	<path class="st3" d="M585,910c-52.9,0-96-43.1-96-96s43.1-96,96-96s96,43.1,96,96S637.9,910,585,910z M585,720
		c-51.8,0-94,42.2-94,94s42.2,94,94,94s94-42.2,94-94S636.8,720,585,720z"/>
	<path class="st3" d="M225,910c-52.9,0-96-43.1-96-96s43.1-96,96-96s96,43.1,96,96S277.9,910,225,910z M225,720
		c-51.8,0-94,42.2-94,94s42.2,94,94,94s94-42.2,94-94S276.8,720,225,720z"/>
	<path class="st3" d="M840,695c-22.6,0-41-18.4-41-41s18.4-41,41-41s41,18.4,41,41S862.6,695,840,695z M840,615
		c-21.5,0-39,17.5-39,39s17.5,39,39,39s39-17.5,39-39S861.5,615,840,615z"/>
	<path class="st3" d="M668.5,684.5l-5.5-3.3c-22.6-13.7-35.1-21.2-63-21.2h-6V478h147v134L668.5,684.5z M596,658h4
		c28.5,0,41.1,7.6,64.1,21.5l4.1,2.5l70.8-70.8V480H596V658z"/>
	<path class="st3" d="M541,660H379V478h162V660z M381,658h158V480H381V658z"/>
	<path class="st3" d="M840,420c-22.6,0-41-18.4-41-41s18.4-41,41-41s41,18.4,41,41S862.6,420,840,420z M840,340
		c-21.5,0-39,17.5-39,39s17.5,39,39,39s39-17.5,39-39S861.5,340,840,340z"/>
	<path class="st3" d="M749.5,420H594l0-215.9c-0.4-21.8-6.2-43.3-16.9-62.2L572,133h177.4l-2.8,8c-3.7,10.6-5.6,21.7-5.6,33
		c0,41.9,26.5,79.4,66,93.4l4,1.4v15.5l-4,1.4c-39.5,14-66,51.5-66,93.4c0,11.3,1.9,22.4,5.6,33L749.5,420z M596,418h150.6l-1.9-5.3
		c-3.8-10.8-5.8-22.1-5.8-33.7c0-42.7,27.1-81,67.3-95.2l2.7-0.9v-12.6l-2.7-0.9C766.1,255,739,216.7,739,174
		c0-11.5,1.9-22.9,5.8-33.7l1.9-5.3H575.5l3.4,6c10.8,19.2,16.7,41,17.1,63.1l0,1.7V418z"/>
	<path class="st3" d="M541,420H260.5l2.8-8c3.7-10.6,5.6-21.7,5.6-33s-1.9-22.4-5.6-33l-2.8-8l204.4,0c23.7-0.4,46.9-7.2,66.9-19.7
		l9.2-5.7V420z M263.4,418H539V316.1l-6.1,3.8c-20.4,12.7-43.9,19.6-68,20l-1.7,0H263.4l1.9,5.3c3.8,10.8,5.8,22.1,5.8,33.7
		s-1.9,22.9-5.8,33.7L263.4,418z"/>
	<path class="st3" d="M170,420c-22.6,0-41-18.4-41-41s18.4-41,41-41s41,18.4,41,41S192.6,420,170,420z M170,340
		c-21.5,0-39,17.5-39,39s17.5,39,39,39s39-17.5,39-39S191.5,340,170,340z"/>
	<path class="st3" d="M462.5,280c-40.5,0-73.5-33-73.5-73.5s33-73.5,73.5-73.5s73.5,33,73.5,73.5S503,280,462.5,280z M462.5,135
		c-39.4,0-71.5,32.1-71.5,71.5s32.1,71.5,71.5,71.5s71.5-32.1,71.5-71.5S501.9,135,462.5,135z"/>
	<path class="st3" d="M840,215c-22.6,0-41-18.4-41-41s18.4-41,41-41s41,18.4,41,41S862.6,215,840,215z M840,135
		c-21.5,0-39,17.5-39,39s17.5,39,39,39s39-17.5,39-39S861.5,135,840,135z"/>
</g>
<g id="OBSTACLES">
	<path id="11_stone1" class="st3" d="M585,729c-46.9,0-85,38.1-85,85s38.1,85,85,85s85-38.1,85-85S631.9,729,585,729z"/>
	<path id="10_stone1" class="st3" d="M225,729c-46.9,0-85,38.1-85,85s38.1,85,85,85s85-38.1,85-85S271.9,729,225,729z"/>
	<path id="9_stone1" class="st3" d="M840,624c-16.5,0-30,13.5-30,30s13.5,30,30,30s30-13.5,30-30S856.5,624,840,624z"/>
	<path id="8_stone1" class="st4" d="M605,649.1c26.8,0.9,40.7,8.8,61.8,21.5l63.2-63.2V489H605V649.1z"/>
	<rect id="7_stone1" x="390" y="489" class="st3" width="140" height="160"/>
	<path id="6_stone1" class="st3" d="M840,349c-16.5,0-30,13.5-30,30s13.5,30,30,30s30-13.5,30-30S856.5,349,840,349z"/>
	<path id="5_stone1" class="st3" d="M734.1,409c-2.8-9.7-4.1-19.8-4.1-30c0-45.3,28-86.1,70-102.5v0
		c-42-16.4-70-57.1-70-102.5c0-10.2,1.4-20.3,4.1-30H590.6c8.3,17.1,13.2,35.9,14.2,55h0.2l0,5v205H734.1z"/>
	<path id="4_stone1" class="st3" d="M530,409v-77c-18.5,9.9-39,15.7-60,16.8v0.2l-5,0H275.9c2.8,9.7,4.1,19.8,4.1,30
		s-1.4,20.3-4.1,30H530z"/>
	<path id="3_stone1" class="st3" d="M170,349c-16.5,0-30,13.5-30,30s13.5,30,30,30s30-13.5,30-30S186.5,349,170,349z"/>
	<path id="2_stone1" class="st3" d="M462.5,144c-34.5,0-62.5,28-62.5,62.5s28,62.5,62.5,62.5s62.5-28,62.5-62.5
		S497,144,462.5,144z"/>
	<path id="1_stone1" class="st3" d="M840,144c-16.5,0-30,13.5-30,30s13.5,30,30,30s30-13.5,30-30S856.5,144,840,144z"/>
	<path id="12_stone1" class="st3" d="M0,0v46.8v46.8v46.8V187v46.8v46.8v46.8V374h7.5H15h7.5h7.5h7.5h7.5h7.5h7.5
		c0.3-7.3,1.4-14.4,3.1-21.3c1.7-6.9,4-13.5,6.9-19.8c2.9-6.3,6.4-12.3,10.4-17.8c4-5.6,8.5-10.8,13.4-15.5
		c4.9-4.7,10.3-9,16.1-12.8c5.8-3.8,11.9-7,18.3-9.6s13.2-4.7,20.1-6.1s14.2-2.1,21.5-2.1h20.6h20.6h20.6h20.6h20.6h20.6h20.6h20.6
		c-1.2-2.4-2.3-4.9-3.3-7.4c-1-2.5-2-5-2.9-7.5c-0.9-2.5-1.7-5.1-2.5-7.7s-1.4-5.2-2-7.8s-1.1-5.3-1.6-7.9c-0.5-2.7-0.8-5.3-1.1-8
		c-0.3-2.7-0.5-5.4-0.7-8.1c-0.2-2.7-0.2-5.4-0.2-8.1c0-9.8,1-19.4,2.9-28.7c1.9-9.3,4.7-18.2,8.3-26.7c3.6-8.5,8-16.6,13.2-24.2
		c5.1-7.6,11-14.6,17.4-21.1s13.5-12.3,21.1-17.4s15.7-9.5,24.2-13.2c8.5-3.6,17.5-6.4,26.7-8.3c9.3-1.9,18.9-2.9,28.7-2.9
		c0,0,0.1,0,0.1,0c0,0,0.1,0,0.1,0s0.1,0,0.1,0c0,0,0.1,0,0.1,0s0.1,0,0.1,0c0,0,0.1,0,0.1,0s0.1,0,0.1,0c0,0,0.1,0,0.1,0l0.2,0
		l0.2,0l0.2,0l0.2,0l0.2,0l0.2,0l0.2,0l0.2,0h48.8h48.8h48.8h48.8H709h48.8h48.8h48.8l0,0l0,0l0,0l0,0l0,0l0,0l0,0l0,0
		c6.7,1,13.2,2.5,19.5,4.7c6.3,2.1,12.2,4.8,17.9,8s11,6.9,16,11c5,4.1,9.6,8.7,13.8,13.6s8,10.2,11.3,15.8s6.2,11.5,8.5,17.6
		s4.1,12.5,5.3,19.1c1.2,6.6,1.8,13.3,1.8,20.2c0,5.7-0.4,11.3-1.3,16.8c-0.8,5.5-2.1,10.9-3.7,16.1c-1.6,5.2-3.7,10.3-6,15.2
		s-5.1,9.6-8.2,14.1s-6.5,8.7-10.1,12.7c-3.7,4-7.7,7.7-11.9,11.1c-4.3,3.4-8.8,6.5-13.6,9.3c-4.8,2.8-9.8,5.2-15.1,7.3v0v0v0v0v0v0
		v0v0c5.3,2,10.3,4.5,15.1,7.3c4.8,2.8,9.3,5.9,13.6,9.3c4.3,3.4,8.3,7.1,11.9,11.1c3.7,4,7.1,8.2,10.1,12.7s5.8,9.2,8.2,14.1
		s4.4,10,6,15.2c1.6,5.2,2.9,10.6,3.7,16.1c0.8,5.5,1.3,11.1,1.3,16.8c0,7.6-0.8,15-2.2,22.1c-1.5,7.2-3.6,14.1-6.4,20.6
		c-2.8,6.6-6.2,12.8-10.2,18.7c-4,5.9-8.5,11.3-13.4,16.3s-10.4,9.5-16.3,13.4s-12.1,7.4-18.7,10.2c-6.6,2.8-13.5,5-20.6,6.4
		c-7.2,1.5-14.6,2.2-22.1,2.2h-3.8h-3.8h-3.8H825h-3.8h-3.8h-3.8H810v7.4v7.4v7.4v7.4v7.4v7.4v7.4v7.4c1.2-0.3,2.4-0.7,3.7-1
		c1.2-0.3,2.5-0.6,3.7-0.8c1.2-0.3,2.5-0.5,3.7-0.7c1.2-0.2,2.5-0.4,3.7-0.6s2.5-0.3,3.8-0.5c1.3-0.1,2.5-0.2,3.8-0.3
		c1.3-0.1,2.5-0.2,3.8-0.2c1.3,0,2.5-0.1,3.8-0.1c7.6,0,15,0.8,22.1,2.2s14.1,3.6,20.6,6.4c6.6,2.8,12.8,6.2,18.7,10.2
		c5.9,4,11.3,8.5,16.3,13.4s9.5,10.4,13.4,16.3c4,5.9,7.4,12.1,10.2,18.7c2.8,6.6,5,13.5,6.4,20.6s2.2,14.6,2.2,22.1
		s-0.8,15-2.2,22.1s-3.6,14.1-6.4,20.6c-2.8,6.6-6.2,12.8-10.2,18.7c-4,5.9-8.5,11.3-13.4,16.3s-10.4,9.5-16.3,13.4
		c-5.9,4-12.1,7.4-18.7,10.2c-6.6,2.8-13.5,5-20.6,6.4S847.6,764,840,764c-5,0-10-0.3-14.9-1c-4.9-0.7-9.7-1.7-14.4-3
		c-4.7-1.3-9.3-2.9-13.8-4.8c-4.5-1.9-8.8-4.1-13-6.6s-8.2-5.2-12-8.2c-3.8-3-7.4-6.3-10.8-9.7c-3.4-3.5-6.6-7.2-9.5-11.2
		s-5.6-8.1-8-12.5l-2.4,2.4l-2.4,2.4l-2.4,2.4l-2.4,2.4l-2.4,2.4l-2.4,2.4l-2.4,2.4l-2.4,2.4c2.1,3.3,4,6.6,5.9,10.1
		c1.8,3.4,3.5,6.9,5.1,10.4c1.6,3.5,3,7.1,4.4,10.7c1.3,3.6,2.5,7.3,3.6,11s2,7.4,2.8,11.2s1.5,7.6,2,11.4c0.5,3.8,0.9,7.7,1.2,11.6
		c0.3,3.9,0.4,7.8,0.4,11.7c0,11.4-1.2,22.5-3.4,33.2c-2.2,10.7-5.4,21.1-9.6,31s-9.3,19.2-15.2,28c-5.9,8.8-12.7,17-20.2,24.4
		s-15.6,14.2-24.4,20.2c-8.8,5.9-18.2,11.1-28,15.2s-20.2,7.4-31,9.6c-10.7,2.2-21.8,3.4-33.2,3.4s-22.5-1.2-33.2-3.4
		c-10.7-2.2-21.1-5.4-31-9.6c-9.9-4.2-19.2-9.3-28-15.2c-8.8-5.9-17-12.7-24.4-20.2s-14.2-15.6-20.2-24.4s-11.1-18.2-15.2-28
		c-4.2-9.9-7.4-20.2-9.6-31S420,825.4,420,814c0-3.8,0.1-7.5,0.4-11.3c0.3-3.7,0.6-7.5,1.1-11.1s1.1-7.4,1.9-11
		c0.7-3.6,1.6-7.2,2.6-10.8s2.1-7.1,3.3-10.6c1.2-3.5,2.6-6.9,4-10.3s3-6.8,4.7-10.1c1.7-3.3,3.5-6.6,5.4-9.8h-6.7h-6.7h-6.7h-6.7
		h-6.7h-6.7h-6.7H390v10.6v10.6v10.6v10.6v10.6v10.6v10.6V814c0,11.4-1.2,22.5-3.4,33.2s-5.4,21.1-9.6,31c-4.2,9.9-9.3,19.2-15.2,28
		s-12.7,17-20.2,24.4s-15.6,14.2-24.4,20.2c-8.8,5.9-18.2,11.1-28,15.2c-9.9,4.2-20.2,7.4-31,9.6c-10.7,2.2-21.8,3.4-33.2,3.4
		s-22.5-1.2-33.2-3.4c-10.7-2.2-21.1-5.4-31-9.6s-19.2-9.3-28-15.2c-8.8-5.9-17-12.7-24.4-20.2S94.2,915,88.2,906.2
		c-5.9-8.8-11.1-18.2-15.2-28s-7.4-20.2-9.6-31S60,825.4,60,814s1.2-22.5,3.4-33.2s5.4-21.1,9.6-31s9.3-19.2,15.2-28
		c5.9-8.8,12.7-17,20.2-24.4s15.6-14.2,24.4-20.2c8.8-5.9,18.2-11.1,28-15.2s20.2-7.4,31-9.6c10.7-2.2,21.8-3.4,33.2-3.4h10.6h10.6
		h10.6h10.6h10.6h10.6h10.6H310v-20v-20v-20v-20v-20v-20v-20v-20h-19.4h-19.4h-19.4h-19.4h-19.4h-19.4h-19.4H155l0,0l0,0l0,0l0,0
		l0,0l0,0l0,0l0,0c-3.2-0.4-6.3-1-9.4-1.8c-3.1-0.7-6.2-1.6-9.2-2.6s-6-2.2-8.9-3.4c-2.9-1.3-5.8-2.7-8.6-4.2s-5.5-3.2-8.2-5
		c-2.7-1.8-5.3-3.6-7.8-5.6s-5-4.1-7.3-6.3c-2.4-2.2-4.6-4.5-6.8-6.9c-2.2-2.4-4.2-4.9-6.2-7.4s-3.8-5.2-5.5-7.9
		c-1.7-2.7-3.3-5.4-4.8-8.3c-1.5-2.8-2.8-5.7-4-8.6c-1.2-2.9-2.3-5.9-3.3-8.9c-1-3-1.8-6.1-2.5-9.2c-0.7-3.1-1.2-6.2-1.7-9.4
		c-0.4-3.2-0.7-6.4-0.9-9.6h-7.5h-7.5h-7.5h-7.5h-7.5H15H7.5H0v80v80v80v80v80v80v80v80h128h128h128h128h128h128h128h128V896V768
		V640V512V384V256V128V0H896H768H640H512H384H256H128H0z"/>
</g>
</svg>
