<?xml version="1.0" encoding="utf-8"?>
<!-- Generator: Adobe Illustrator 21.0.2, SVG Export Plug-In . SVG Version: 6.00 Build 0)  -->
<svg version="1.1" id="SCENE_6" xmlns="http://www.w3.org/2000/svg" xmlns:xlink="http://www.w3.org/1999/xlink" x="0px"
	y="0px" viewBox="0 0 1024 1024" style="enable-background:new 0 0 1024 1024;" xml:space="preserve">
	<style type="text/css">
		.st0 {
			fill: #FFFFFF;
		}

		.st2 {
			display: none;
		}

		.st1 {
			fill: #64566D;
		}
	</style>
	<rect id="BACKGROUND_grass" y="0" width="1024" height="1024" />
	<g id="OBSTACLES">
		<path class="st0" d="M293.4,195.7c0,10.6-4.3,20.2-11.2,27.1c-6.9,6.9-16.5,11.2-27.1,11.2s-20.2-4.3-27.1-11.2
		c-6.9-6.9-11.2-16.5-11.2-27.1s4.3-20.2,11.2-27.1c6.9-6.9,16.5-11.2,27.1-11.2s20.2,4.3,27.1,11.2
		C289,175.5,293.4,185.1,293.4,195.7z" />
		<path class="st0" d="M892.3,573c0,10.6-4.3,20.2-11.2,27.1c-6.9,6.9-16.5,11.2-27.1,11.2s-20.2-4.3-27.1-11.2
		c-6.9-6.9-11.2-16.5-11.2-27.1s4.3-20.2,11.2-27.1c6.9-6.9,16.5-11.2,27.1-11.2s20.2,4.3,27.1,11.2
		C888,552.8,892.3,562.4,892.3,573z" />
		<path class="st0" d="M170,631.3c0,10.6-4.3,20.2-11.2,27.1s-16.5,11.2-27.1,11.2s-20.2-4.3-27.1-11.2s-11.2-16.5-11.2-27.1
		s4.3-20.2,11.2-27.1c6.9-6.9,16.5-11.2,27.1-11.2s20.2,4.3,27.1,11.2S170,620.7,170,631.3z" />
		<path class="st0" d="M924.6,708.2c0,10.6-4.3,20.2-11.2,27.1c-6.9,6.9-16.5,11.2-27.1,11.2s-20.2-4.3-27.1-11.2
		c-6.9-6.9-11.2-16.5-11.2-27.1s4.3-20.2,11.2-27.1c6.9-6.9,16.5-11.2,27.1-11.2s20.2,4.3,27.1,11.2
		C920.3,688,924.6,697.6,924.6,708.2z" />
		<path class="st0" d="M463.7,768.6c0,10.6-4.3,20.2-11.2,27.1s-16.5,11.2-27.1,11.2s-20.2-4.3-27.1-11.2s-11.2-16.5-11.2-27.1
		s4.3-20.2,11.2-27.1s16.5-11.2,27.1-11.2s20.2,4.3,27.1,11.2S463.7,758,463.7,768.6z" />
		<path class="st0" d="M208.3,837c0,10.6-4.3,20.2-11.2,27.1s-16.5,11.2-27.1,11.2s-20.2-4.3-27.1-11.2s-11.2-16.5-11.2-27.1
		s4.3-20.2,11.2-27.1s16.5-11.2,27.1-11.2s20.2,4.3,27.1,11.2S208.3,826.4,208.3,837z" />
		<path class="st0" d="M912.2,837c0,10.6-4.3,20.2-11.2,27.1c-6.9,6.9-16.5,11.2-27.1,11.2s-20.2-4.3-27.1-11.2
		c-6.9-6.9-11.2-16.5-11.2-27.1s4.3-20.2,11.2-27.1c6.9-6.9,16.5-11.2,27.1-11.2s20.2,4.3,27.1,11.2
		C907.9,816.8,912.2,826.4,912.2,837z" />
		<path class="st0" d="M726.3,631.6c0,10.6-4.3,20.2-11.2,27.1s-16.5,11.2-27.1,11.2s-20.2-4.3-27.1-11.2s-11.2-16.5-11.2-27.1
		s4.3-20.2,11.2-27.1s16.5-11.2,27.1-11.2s20.2,4.3,27.1,11.2S726.3,621,726.3,631.6z" />
		<path class="st0" d="M912.2,218.6c0,10.6-4.3,20.2-11.2,27.1s-16.5,11.2-27.1,11.2s-20.2-4.3-27.1-11.2
		c-6.9-6.9-11.2-16.5-11.2-27.1s4.3-20.2,11.2-27.1s16.5-11.2,27.1-11.2s20.2,4.3,27.1,11.2S912.2,208,912.2,218.6z" />
		<path class="st0" d="M530.5,175.6c0,10.6-4.3,20.2-11.2,27.1c-6.9,6.9-16.5,11.2-27.1,11.2s-20.2-4.3-27.1-11.2
		s-11.2-16.5-11.2-27.1s4.3-20.2,11.2-27.1s16.5-11.2,27.1-11.2s20.2,4.3,27.1,11.2S530.5,165,530.5,175.6z" />
		<path class="st0"
			d="M641.1,167.6c0,10.6-4.3,20.2-11.2,27.1s-16.5,11.2-27.1,11.2s-20.2-4.3-27.1-11.2
		c-6.9-6.9-11.2-16.5-11.2-27.1s4.3-20.2,11.2-27.1c6.9-6.9,16.5-11.2,27.1-11.2s20.2,4.3,27.1,11.2S641.1,157,641.1,167.6z" />
		<path class="st0" d="M224.7,452.4c0,10.6-4.3,20.2-11.2,27.1s-16.5,11.2-27.1,11.2s-20.2-4.3-27.1-11.2s-11.2-16.5-11.2-27.1
		s4.3-20.2,11.2-27.1s16.4-11.3,27-11.3s20.2,4.3,27.1,11.2S224.7,441.8,224.7,452.4z" />
	</g>
	<g id="ROAD">
		<g>
			<path id="TRACK_asphalt" class="st1" d="M435.2,956.6c-11.8-0.1-24.1-0.2-37.5-0.5c-25.5-0.6-50.7-1.6-74.8-2.9c-27.1-1.5-51.6-3.4-75-5.8
		c-29.3-3-53.3-6.3-75.5-10.4c-14.7-2.7-26.9-5.5-38.4-8.7c-7.1-2-13.5-4-19.7-6.3c-7.9-2.9-14.4-5.8-20.5-9
		c-4-2.1-7.5-4.3-10.8-6.7c-2.9-2-7.1-5.3-11.3-9.9c-1.9-2.1-3.8-4.5-5.5-7l-0.1-0.1c-2-3-3.5-6-4.8-9l-0.1-0.2
		c-0.6-1.7-1.2-3.3-1.7-5.2c-0.4-1.6-0.7-2.7-0.8-3.6l-0.1-0.6c-0.5-2.5-0.8-5-1-7.4l0-0.3c-0.4-5.2-0.2-10.2,0.3-14.7
		c0.6-4.8,1.5-9.4,2.8-13.5c2.1-7.3,5.2-14.5,9.7-22.7c3.4-6,7.3-11.9,12.3-18.6c4-5.3,8.3-10.5,13.2-16c9.3-10.4,19-20,27.3-28
		c3.4-3.3,6.8-6.5,10.2-9.7c3.1-2.9,6-5.7,8.9-8.5c-4.2,1.1-9.1,2.3-14.3,3.3c-8.4,1.6-15.7,2.4-22.8,2.4c-0.4,0-0.8,0-1.2,0
		c-4.9-0.1-9.5-0.5-14-1.4c-5.3-1-10.3-2.6-15-4.7c-5.1-2.3-10-5.3-14.2-8.9c-4.1-3.4-7.8-7.4-11-11.9l-0.6-0.8
		c-0.5-0.7-1.1-1.6-1.7-2.5l-1.8-3l-0.1-0.2c-1.1-2.1-2.2-4.1-3.2-6.3c-1.8-4-3.3-8.1-4.6-12.3c-0.6-2.1-1.1-4-1.5-5.9
		c-0.4-1.6-0.7-3.2-1-4.6l-0.3-1.5l0-0.1c-0.7-4.5-1.2-8.3-1.5-11.8c-1-13.2-0.2-27.1,2.5-43.5c2-12,4.8-24.4,9-39.1
		c3.1-10.8,6.6-22.1,11.5-36.6c3.1-9.1,6.3-18.2,9.4-27c5.1-14.6,10-28.4,14.4-42.4c4.1-13.1,6.9-23.5,8.8-32.9
		c1.1-5.4,1.9-10.5,2.3-15.1c0.4-4.5,0.4-8.8-0.1-12.4l-0.1-0.6c-0.1-0.6-0.2-1.2-0.3-1.5l0-0.2l-0.1-0.6l-0.4-1.6l-2.7-8.5
		c-0.5-1.7-1.1-3.5-1.7-5.3c-0.4-1-0.7-2.1-1-3.1c-0.9-2.7-1.9-5.5-2.9-8.3c-3.9-11.1-8.2-22.3-12.8-33.4c-4-9.8-8.5-20.4-14.2-33.4
		c-1.6-3.7-3.3-7.4-4.9-11.1c-3.3-7.5-6.7-15.2-10.1-23.1l-0.9-2.3c-0.9-2.2-1.9-4.5-2.8-6.9l-1.4-3.5l-0.8-2.1
		c-0.3-0.9-0.6-1.7-0.8-2.4l-0.5-2l-0.2-0.9c-0.2-1-0.5-2-0.6-2.9c-0.8-4-1.2-7.9-1.6-12.7c-0.2-3.6-0.3-7.4-0.2-11.5
		c0.1-7.1,0.7-14.3,1.8-21.8c1-6.8,2.3-13.9,4.1-21.1c3.7-14.5,8.8-28.2,15.4-40.7c7.3-14,16.3-26.3,26.7-36.7
		c11.2-11.2,24.6-20.3,38.8-26.6c13.7-6.1,28.8-9.8,44.7-11.1c4.7-0.4,9.4-0.6,14.1-0.6c2.7,0,5.4,0.1,8,0.2
		c1.3,0.1,2.5,0.1,3.7,0.2l4.4,0.3l4.3,0.5c1.2,0.1,2.4,0.3,3.6,0.4l5.2,0.8c1.8,0.2,3.6,0.6,5.3,0.9l5.1,0.9l5.1,1.1
		c1.6,0.3,3.4,0.7,5.2,1.2l1,0.3c2.9,0.7,5.9,1.5,8.9,2.4l4.8,1.4l4.8,1.6c2.9,0.9,5.8,1.9,8.5,2.9l0.9,0.3c2.1,0.7,4.3,1.5,6.4,2.3
		c0.9,0.3,1.8,0.7,2.8,1c2.2,0.8,4.3,1.6,6.4,2.4c0.9,0.4,3,1.2,3,1.2c1,0.4,2,0.8,3,1.2c2,0.8,4,1.6,6,2.5
		c5.5,2.3,11.5,5.1,18.2,8.3c6.6,3.3,12.5,6.5,18.1,9.7c14.3,8.5,25.4,16.7,35,25.9c6.4,6.2,11.5,12.2,15.8,18.5
		c5.4,7.9,9.3,16.2,11.8,24.6c1.4,5,2.3,9.9,2.7,14.7c0.4,5.2,0.2,10.4-0.5,15.4c-1.4,9.9-5.1,19.7-10.7,28.4
		c-5.2,8.1-11.9,15.1-19.8,20.9c-8.6,6.1-17.4,10.2-27.1,12.4l-0.2,0c-2.1,0.4-5,1-8.3,1.2l-2.7,0.2l-0.1,0c-0.2,0-0.4,0-0.5,0.1
		c-0.2,0-0.5,0-0.7,0.1c-2,0.2-4.2,0.5-6.6,1c-4.8,0.9-9.6,2.2-14.5,3.8c-10,3.3-19.1,7.5-26.9,12.6c-8,5.1-14.5,11.1-19,17.4
		c-4.3,6.3-6.7,12.9-7.1,20.1c-0.5,7.4,1,15.9,4.2,24.8c1.6,4.5,3.7,9,6,13.5c2.5,4.7,5.2,9.3,8,13.5c5.5,8.4,12.1,17,20.1,26.4
		l12.3,14.4l9.1,11l3,3.7l6,7.5l5.8,7.5l3,3.9l2.8,3.8l5.7,7.7c7.6,10.5,15,21.2,21.8,31.9c6.6,10.3,13.3,21.4,19.9,33.1
		c2.7,4.9,5.4,9.8,8,14.5l1.3,2.3c2.9,5.2,5.6,10.1,8.2,14.2l1.3,2.1c0.1,0.2,0.2,0.4,0.4,0.6l0.1,0.2l1.3,1.9l0.4,0.5l0.8,1
		l0.1,0.1c0.2,0.2,0.4,0.4,0.6,0.7l0.1,0.2c0,0,0.4,0.4,0.6,0.5c0.1,0.1,0.2,0.1,0.3,0.2c0,0,0.1,0,0.1,0.1c0.1,0,0.1,0.1,0.2,0.1
		c0.2,0.1,0.3,0.1,0.5,0.2c0.2,0,0.5,0.1,0.7,0.2l0.3,0.1c0.4,0,0.8,0.1,1.2,0.1c0.4,0.1,0.7,0.1,0.9,0.1h0.2l2,0.1
		c0.1,0,0.2,0,0.3,0c0.3,0,0.6,0,0.9,0c0,0,0,0,0,0c1.8,0,4.2-0.1,7.3-0.4c5.8-0.5,12.1-1.1,17.5-1.7c4.6-0.5,9.3-1,13.9-1.5
		c7.5-0.8,15.2-1.7,22.9-2.5c15-1.5,26.7-2.6,37.9-3.3c12.1-0.8,22.1-1.1,31.4-1.1c2.7,0,5.4,0,8.1,0.1c7.9,0.2,14.7,0.7,21.3,1.5
		c4,0.5,7.9,1.2,11.7,2c5.1,1.1,9.2,2.4,13.3,4.1l1.8,0.8c0.5,0.2,1,0.5,1.5,0.7l0.9,0.4c0.5,0.2,1,0.5,1.5,0.7l1.9,1.1
		c1.4,0.8,2.8,1.7,4.1,2.6l0.1,0.1c0.7,0.5,1.4,1,2,1.5l0.5,0.4l0.4,0.3c0.5,0.4,1.1,0.9,1.8,1.6c1.3,1.3,2.8,2.7,4.3,4.6
		c1.3,1.6,2.6,3.4,4,5.8c0.6,1.1,1.1,2.2,1.6,3.1l0.1,0.3c0.6,1.3,1.1,2.6,1.5,3.8c0.4,1.3,0.7,2.4,1,3.4l0.1,0.3
		c0.2,1.1,0.4,2.2,0.6,3.3c0.2,1.4,0.3,2.6,0.4,3.8l0,0.5c0,0.8,0.1,1.8,0,3l0,0.2c-0.1,1.9-0.2,3.4-0.5,4.8c-0.2,1.4-0.6,2.9-1,4.3
		c-0.4,1.4-0.8,2.5-1.2,3.5l-0.2,0.5c-0.5,1.3-1,2.3-1.5,3.2l-0.1,0.3c-0.5,0.8-1,1.8-1.6,2.8l-0.2,0.2c-0.5,0.7-1,1.5-1.6,2.3
		c-1.8,2.5-3.9,4.9-6.3,7.2c-1.8,1.7-3.6,3.3-5.7,4.9c-3.2,2.5-6.5,4.7-10.4,7.1c-3,1.8-6.2,3.6-9.6,5.4c-5.5,2.9-11.4,5.6-18.4,8.7
		c-12.7,5.5-25.1,10.3-35.7,14.3c-11.7,4.4-23.3,8.6-35.1,12.9l-7.4,2.7c-20.3,7.3-41.2,14.8-61.4,22.6
		c-18.6,7.2-42.8,16.9-65.1,28.3c-11.4,5.8-20.7,11.3-28.5,16.8c-4.5,3.1-8.3,6.2-11.5,9.1c-2.2,2-4.1,4-5.6,5.9
		c1.8,1.1,3.9,2.2,6.2,3.2c5.7,2.6,12.8,4.9,21,7c7.2,1.8,15.1,3.4,24,4.8c15.4,2.4,32.1,3.9,50.8,4.7c8.1,0.3,16.5,0.5,24.9,0.5
		c8.8,0,18-0.2,27.1-0.5c17.4-0.7,34.9-2,52-4c17.7-2,34.9-4.7,51.2-8c18.1-3.7,34.2-7.9,49.3-12.8c8.5-2.8,16.1-5.6,23.1-8.7
		c7.8-3.3,14.9-6.8,21.2-10.5c6.9-4,12.9-8.2,17.8-12.5c2.5-2.2,4.8-4.5,6.8-6.8l0.1-0.1c0.4-0.5,0.9-1,1.3-1.6l0.2-0.2
		c0.3-0.4,0.7-0.9,1.1-1.4l0.5-0.7c1.3-1.7,2.6-3.4,3.8-5.1c11.3-15.3,20.2-29.1,27.2-42.1c8.2-15.4,13.5-29.6,15.6-42.2
		c1.1-7.1,1.3-13.3,0.5-18.9c-0.8-6-2.5-11.6-5.1-16.8c-2.6-5.2-6.4-10.4-11.1-15.4c-2.6-2.7-5.1-5-7.6-7.1l-0.1-0.1
		c-2.9-2.5-6.2-4.9-8.8-6.7c-11.6-8-25.4-15.3-42.4-22.1c-14.7-5.9-30.5-11.1-48.4-15.9l-4.9-1.3l-1.8-0.5l-7.4-2.1l-2.7-0.9
		c-3.9-1.3-8-2.7-12-4.4c-4.3-1.6-8.3-3.5-12.2-5.3l-2.1-1l-6.8-3.5c-1.3-0.7-2.6-1.4-3.7-2l-3.2-1.8l-3.4-2l-6.5-4.1l-1.7-1.1
		l-1.7-1.2l-6.3-4.4l-6.1-4.7c-7.9-6.2-15.5-13.1-22.7-20.4c-6.9-7.1-13.5-14.7-19.8-22.7c-5.6-7.1-11.2-15-17.1-24.3
		c-4.8-7.5-9.6-15.8-14.7-25.5c-4.3-8.2-8.4-16.8-12.5-26.3c-1.6-3.5-3.1-7.2-4.5-10.7l-1.1-2.7l-0.8-2.2c-1.4-3.7-2.9-7.4-4.2-11.3
		c-3.3-9.2-6.3-18.4-8.9-27.2c-10.6-36-17.6-73.7-20.9-111.9c-1.8-21.7-2.1-40.2-0.9-58.1c0.1-1.8,0.3-3.6,0.4-5.4
		c0.1-0.7,0.2-2.3,0.2-2.3l0.2-1.7c0.2-2,0.4-4,0.7-6.1c0.6-4.7,1.5-10.4,3.3-16.7l0.4-1.2c0.3-1.2,0.7-2.4,1.1-3.6l0.1-0.2l0.9-2.3
		l0.6-1.5l0.8-1.8c0.4-0.9,0.8-1.8,1.3-2.8l0.1-0.2l0.1-0.2c0.7-1.1,1.3-2.3,2-3.4l0.1-0.2c0.2-0.3,0.3-0.5,0.6-0.8l0.1-0.2l0.9-1.2
		c0.6-0.7,1.2-1.4,1.7-2.1c1.1-1.3,1.8-1.9,2.5-2.6c0.1-0.1,0.2-0.2,0.3-0.3l0.1-0.1c6.3-5.8,12.3-9.4,16.8-11.8l0.5-0.3
		c0.5-0.3,1-0.5,1.5-0.8l3.1-1.5c0.9-0.4,1.8-0.9,2.8-1.3l0.2-0.1c0.6-0.3,1.3-0.5,1.9-0.8c1.8-0.8,3.7-1.6,5.6-2.3l3.6-1.4l3.7-1.3
		c2.1-0.7,4.2-1.4,6.3-2l1.1-0.3c9-2.7,18.5-5,29-7.1c18.1-3.5,36.8-5.8,57.3-7c9.8-0.6,19.5-0.8,28.8-0.8c9.8,0,19.4,0.3,28.8,0.9
		c10.2,0.7,19.7,1.7,29.1,3l0.1,0c0.8,0.1,1.6,0.2,2.4,0.4c1.6,0.2,3.3,0.5,5,0.8l5.3,0.9l1.1,0.2l1.3,0.3c7.9,1.6,15.4,4.8,21.7,9
		c6.6,4.3,12.5,10.2,17,17c3.8,5.7,6.8,11.9,9.1,19.1c1.8,5.6,3.1,11.4,3.9,17.9c0.7,5.3,1.1,10.8,1.2,16.7c0.1,9.6-0.5,19.4-2,30.8
		c-1.2,9.2-2.8,18.6-5.1,29c-3.7,17.1-8.6,35-15.1,54.9c-2.9,8.9-6,17.8-9.2,26.6c-1.7,4.5-3.4,9-5,13.2l-2.6,6.5l-1.4,3.3l-3.4,8
		l-3.6,3.7l-1.3,1.4l-1.4,1.5l-2.9,3.2c-1.9,2.1-3.7,4.2-5.5,6.3c-3.7,4.4-7.2,8.8-10.3,13.1c-3.4,4.6-6.4,9.1-8.8,13.1
		c-2.7,4.5-4.7,8.7-5.9,12c-0.2,0.6-0.4,1.1-0.5,1.6c4,2.4,7.7,4.7,11.3,7l2.5,1.6c5.2,3.3,10,6.3,15,9.3
		c11.9,7.3,21.1,12.2,29.6,16.1c4.9,2.2,9.6,4,13.9,5.3c4.4,1.3,8.3,2.1,11.3,2.2c0.3,0,0.6,0,0.9,0c1,0,1.9-0.1,2.7-0.2
		c0.7-0.1,1.2-0.3,1.6-0.5c0.3-0.1,0.5-0.3,0.9-0.7c0.3-0.3,0.9-0.9,1.5-1.9c0.5-0.8,1.2-2.1,1.8-3.7l0.2-0.6
		c0.2-0.7,0.5-1.2,0.6-1.8l0.1-0.2l0.1-0.2c0.2-0.5,0.4-1.3,0.6-2l0.2-0.8c0.2-0.6,0.3-1.1,0.4-1.7c0.1-0.4,0.2-0.9,0.3-1.3
		c0.1-0.5,0.2-0.9,0.2-1.4c0.1-0.6,0.2-1.3,0.3-1.9l1.3-8.9c1.7-11.6,4-23.7,7.2-38.3c2.6-11.6,5.5-23.7,9-37
		c6.1-23.2,13-46.9,21.1-72.4c8.1-25.4,16.1-48.7,24.6-71.2c4.9-13.1,9.5-24.7,14-35.4c2.7-6.5,5.3-12.3,7.8-17.8
		c3.3-7,6.1-12.8,9-18.1c2-3.7,3.8-6.7,5.6-9.6c1.3-2,2.4-3.7,3.7-5.3c1.4-1.9,3.1-4,5.4-6.4c1.1-1.2,2.7-2.6,4.8-4.3l0.1-0.1
		c1-0.7,2.3-1.6,4-2.6c2.2-1.2,4.4-2.1,6.7-2.8c2.8-0.8,5.6-1.2,8.4-1.2l0.6,0c2.1,0,3.5,0.2,4.7,0.4l0.3,0c1.7,0.2,2.8,0.5,3.7,0.8
		l0.4,0.1c1.4,0.4,2.4,0.7,3.3,1c1.7,0.6,3,1.2,4.1,1.7l0.6,0.3c0.5,0.2,1,0.5,1.4,0.7l0.4,0.2c0.7,0.4,1.4,0.7,1.9,1l0.1,0.1
		c0.9,0.5,1.9,1.1,2.8,1.7c1.1,0.7,2,1.3,2.7,1.8c6.9,4.8,12.5,9.5,17.1,13.6c4.6,4.1,9.4,8.6,14.5,13.7
		c8.5,8.5,17.2,17.7,26.6,28.1c8.9,10,17,19.7,24.8,29.4c6.6,8.3,15.2,19.5,23.4,31.9c2.2,3.4,4,6.3,5.6,9.1
		c1.8,3.2,3.7,6.7,5.6,10.9l0.4,0.9c0.3,0.8,0.7,1.7,1.1,2.8l0.1,0.3c0.2,0.5,0.4,1,0.5,1.5l0.6,2.1c0.3,0.8,0.5,1.7,0.6,2.5
		l0.1,0.3c0.2,1,0.5,2.3,0.6,3.6c0.2,1.5,0.3,3,0.3,4.7c0,2-0.2,4.5-0.7,6.9c-0.4,2.1-0.8,3.2-1.3,4.5c-0.1,0.2-0.2,0.5-0.3,0.7
		l-0.1,0.3l-0.1,0.2c-0.4,0.9-1,2.3-1.8,3.7l-0.1,0.1c-0.5,0.8-1.1,1.9-1.7,2.9l-0.1,0.2c-0.4,0.7-0.9,1.4-1.5,2.1
		c-2,2.7-3.9,4.6-5.6,6.3c-1.5,1.5-3,2.8-4.8,4.5c-1.5,1.3-3,2.5-4.4,3.6c-3.1,2.5-6,4.7-8.3,6.3c-4.4,3.2-8.8,6.3-13,9.3l-2.5,1.8
		c-9.4,6.6-19.3,13.7-28.4,21c-9.9,7.9-17.6,15.1-23.4,21.8c-3.3,3.8-6,7.5-8,10.9c-1,1.7-1.9,3.4-2.6,5l-0.1,0.2
		c-0.1,0.3-0.2,0.6-0.3,0.8l-0.1,0.2c-0.1,0.3-0.2,0.5-0.3,0.8l-0.2,0.6c0,0.1-0.1,0.3-0.1,0.4l0,0.2c-0.1,0.2-0.1,0.4-0.2,0.7
		c-0.1,0.2-0.1,0.5-0.3,1c-1.5,5.9-3.4,12.2-5.7,19.4c-0.8,2.4-1.6,4.8-2.4,7.2c-1.2,3.5-2.3,6.8-3.3,10c-0.8,2.6-1.5,5-2,7.1
		c-0.5,2-0.9,4.1-1.1,5.9l0,0.2l0,0.2c0,0.2-0.1,0.5-0.1,0.8c0,0.4,0,0.7-0.1,1c0,0.2,0,0.3,0,0.4c0,0.4,0,0.7,0,1.1
		c0,0.5,0,1,0,1.2l0,0.3l0,0.3c0,1.5,0.3,3.2,0.5,4.9c1.3,6.7,4.9,15,10.8,24.8c2.4,4,5.3,8.4,9,13.8l5.2,7.2l5.6,7.9
		c14.3,20.4,27.5,43.3,39.2,68.2c11,23.4,20.1,48.3,27,74c0.6,2.2,1.1,4.3,1.6,6.4c0.3,1.1,0.5,2.1,0.8,3.2l1.2,4.9l1,5
		c0.2,1.2,0.4,2.2,0.7,3.3c0.4,2.1,0.9,4.3,1.3,6.6l1.5,9.8c0.3,1.8,0.5,3.6,0.7,5.3l0.6,5c0.1,0.6,0.1,1.2,0.2,1.7
		c0.1,1.1,0.3,2.3,0.4,3.4l0.4,7.1c0.2,2.8,0.3,5.6,0.4,7.9c0.1,3,0.3,6,0.5,8.6c0.4,6.2,0.9,12.6,1.4,18.9
		c0.5,5.9,0.9,11.9,1.4,17.9c1,14.7,1.6,26.8,1.9,38.2c0.4,14.4,0.2,27.3-0.6,39.3c-0.9,15.1-2.7,28.4-5.4,40.8
		c-1.6,7.3-3.6,14.4-6,21.1c-2.9,8-6,14.9-9.6,21.3c-4.5,7.9-9.4,14.5-14.9,20.3c-6.4,6.7-13.5,12.2-20.9,16.4
		c-7.6,4.3-15.8,7.5-24.4,9.5l-3.3,0.7c-1,0.2-1.9,0.4-2.9,0.5l-4.7,0.7l-9.6,1.5c-1.4,0.2-2.6,0.4-3.8,0.5l-15.4,1.8
		c-4.2,0.5-8.4,0.9-12.4,1.2c-2.2,0.2-4.4,0.4-6.5,0.6c-4.4,0.5-8.9,0.8-13.2,1.1c-1.9,0.1-3.8,0.3-5.6,0.4l-1.6,0.1
		c-5.6,0.4-11.5,0.9-17.2,1.2l-18.6,1.2l-18.7,1c-8.3,0.5-16.8,0.9-25,1.3c-4.1,0.2-8.1,0.4-12.2,0.6l-37.1,1.6
		c-51.8,2-103.7,3.5-148.2,4.7l-73.9,2l-18.5,0.5c-4.4,0.1-8.5,0.2-11.9,0.2C441.2,956.6,435.2,956.6,435.2,956.6z M113.1,859.4
		c0.4,0.4,1.1,0.9,2,1.6c1.3,1,3,2,4.9,3c3.6,1.9,8.1,3.9,13.4,5.8c4.7,1.7,9.9,3.4,15.5,4.9c9.8,2.8,20.8,5.3,33.7,7.7
		c20.7,3.9,43.3,7,71,9.8c22.5,2.3,46.2,4.1,72.5,5.6c23.5,1.3,48.1,2.3,73,2.9c13.1,0.3,25,0.5,36.5,0.6l2.8,0c1.6,0,3.2,0,4.9,0
		c2.8,0,6.4,0,9.9-0.1l18.5-0.5l74-2c55.1-1.5,101.2-2.8,147.5-4.6l36.8-1.5c4-0.2,8-0.4,12.1-0.6c8.1-0.4,16.4-0.8,24.5-1.2l18.4-1
		l18.2-1.2c5.5-0.3,11.1-0.8,16.6-1.2l1.6-0.1c1.8-0.1,3.7-0.3,5.6-0.4c4.1-0.3,8.3-0.6,12.4-1c2.2-0.2,4.4-0.4,6.5-0.6
		c3.8-0.3,7.7-0.7,11.4-1.1c0,0,14.1-1.7,14.6-1.7c1-0.1,1.9-0.2,2.7-0.4l13.3-2.1c0.4,0,0.6-0.1,0.8-0.2l2-0.4
		c3.5-0.8,6.7-2.1,9.9-3.8c2.8-1.5,5.4-3.6,8.1-6.4c2.3-2.4,4.7-5.6,6.9-9.5c4-7.1,7.3-16.1,9.6-26.9c2.1-9.6,3.5-20.2,4.3-32.4
		c0.7-10.5,0.8-21.8,0.5-34.6c-0.3-10.5-0.8-21.9-1.8-35.7c-0.4-5.7-0.9-11.6-1.3-17.3c-0.5-6.4-1-13-1.5-19.7
		c-0.2-3.1-0.4-6.4-0.6-9.8l0-0.1c-0.1-2.4-0.2-4.3-0.3-6.4c0-0.8-0.1-1.5-0.1-2.3l-0.2-4.1c-0.1-0.8-0.2-1.6-0.2-2.3
		c-0.1-0.5-0.1-1.1-0.2-1.6l-0.5-4.5c-0.1-1.2-0.2-2.3-0.4-3.4l-1.3-8.6c-0.3-1.7-0.6-3.3-1-5.1c-0.2-1.1-0.4-2.1-0.6-3.2l-0.8-4
		l-1-4.1c-0.3-1-0.5-2.1-0.8-3.2c-0.4-1.8-0.8-3.5-1.3-5.1c-6.1-22.5-14-44.3-23.6-64.8c-10.3-22-21.9-42.2-34.4-60l-5.1-7.2
		l-5.6-7.8c-4.6-6.6-8.1-11.9-11.2-17.1c-4.2-7.1-7.5-13.3-10.2-19.5c-3.5-8.1-6-15.8-7.5-23.5c-1.7-8.9-1.9-18.1-0.8-26.7
		c0.5-4.4,1.4-8.4,2.2-12.1c0.8-3.4,1.8-6.9,3-10.7c1.3-4,2.5-7.7,3.7-11.4c0.8-2.2,1.5-4.4,2.2-6.6c2-6.1,3.5-11.2,4.8-16.1
		l0.8-2.9c0.3-1.1,0.6-2.2,1-3.1l0.1-0.3c0.4-1.2,0.8-2.3,1.2-3.3c0.4-1.1,0.8-2.2,1.3-3.2c1.6-3.7,3.5-7.6,5.8-11.4
		c3.7-6.3,8.2-12.5,13.8-18.9c10.6-12.2,21.9-21.7,30.6-28.6c10.3-8.2,20.6-15.6,31.1-22.9l2.3-1.6c4.3-3.1,8.4-5.9,12.4-8.8
		c1.6-1.2,3-2.2,4.2-3.2c-0.8-1.3-1.7-2.7-2.6-4.1c-5.3-8.1-11.8-16.9-20.4-27.7c-7-8.8-14.7-18-22.9-27.1
		c-8.6-9.6-16.5-18-24.2-25.7c-4.5-4.4-8.5-8.3-12.4-11.7c-0.5-0.4-1-0.9-1.5-1.3c-1.6,3.1-3.2,6.5-5,10.3
		c-2.3,4.9-4.6,10.2-7.1,16.1c-4.2,10-8.6,20.9-13.2,33.4c-8,21.3-16,44.4-23.7,68.6c-7.8,24.6-14.5,47.4-20.3,69.6
		c-3.3,12.6-6.1,24-8.5,34.9c-2.9,13.1-5,24.4-6.5,34.4l-1.3,9.5c-0.2,1.3-0.5,2.7-0.7,4l-0.3,1.7l0,0.2c-0.1,0.5-0.2,1.1-0.4,1.6
		c-0.3,1.3-0.6,2.7-1,4.1l-0.2,0.6c-0.5,1.7-0.9,3.4-1.6,5.3c-0.6,2.1-1.4,4.1-2.2,6l-0.1,0.2c-2,4.8-4,8.8-6.4,12.6
		c-3,4.7-6.4,8.8-10.2,12.4c-4.2,3.9-9.1,7.3-14.3,9.8c-4.9,2.4-10.3,4.1-15.9,5.1c-3.8,0.7-7.9,1-12,1c-1,0-2,0-2.9-0.1
		c-10.1-0.4-18.6-2.6-24.9-4.4c-6.7-2-13.5-4.6-20.7-7.9c-13.4-6.1-25.4-13.1-35.4-19.2c-5.3-3.2-10.5-6.5-15.5-9.7l-1.6-1
		c-4.8-3-9.4-5.9-13.6-8.3l-1.2-0.7l-1.7-1c-0.7-0.4-1.5-1-2.4-1.6l-1.9-1.4l-0.2-0.1c-3.3-2.6-5.7-5.2-7.9-7.9
		c-2.5-3.3-4.5-6.7-5.9-10.2c-1.4-3.4-2.4-7-2.9-10.5c-0.2-0.9-0.3-1.8-0.3-2.7l0-0.1c-0.1-0.7-0.1-1.5-0.2-2.2l0-0.6
		c0-1.3-0.1-2.7,0-4.2c0.1-3.1,0.5-5.9,0.8-8.2l0-0.1c0.8-4.4,2-8.9,3.7-13.6c3.2-8.8,7.2-15.9,10.3-21.1
		c3.4-5.7,7.2-11.5,11.8-17.6c3.9-5.3,8.1-10.6,12.6-15.9c2.1-2.5,4.3-5.1,6.6-7.6l3.3-3.7l0.6-1.4l2.4-6c1.5-3.8,3-7.9,4.6-12.1
		c3-8.1,5.9-16.4,8.5-24.6c5.9-18.1,10.3-34.3,13.6-49.6c1.9-8.8,3.3-16.8,4.3-24.4c1.1-8.7,1.6-16.3,1.5-23.2
		c0-3.8-0.3-7.2-0.7-10.3c-0.4-3.3-1-6.1-1.8-8.5c-0.7-2.1-1.5-4-2.4-5.3c-0.8-1.2-1.5-1.7-2-2.1c-0.8-0.5-1.8-0.9-3.1-1.2l-0.2,0
		l-0.3-0.1l-5.1-0.9c-1.2-0.2-2.5-0.4-3.7-0.6c-0.8-0.1-1.6-0.2-2.3-0.3c-7.8-1.1-16.2-2-24.8-2.5c-8-0.5-16.3-0.8-24.8-0.8
		c-8.4,0-17.2,0.3-26.1,0.8c-17.8,1.1-34.7,3.2-50.2,6.2c-8.6,1.7-16.6,3.6-23.7,5.8l-1.1,0.4c-1.5,0.5-2.9,0.9-4.3,1.4l-2.8,1
		l-2.8,1.1c-1,0.3-2,0.8-3,1.2c-0.6,0.3-1.2,0.5-1.8,0.8c-0.4,0.2-0.8,0.4-1.1,0.5c-0.4,0.2-0.7,0.4-1.1,0.5l-1,0.5
		c-0.1,0.1-1,0.6-1,0.6c-1.4,0.7-2.6,1.5-3.5,2.1l-0.2,0.7c-0.7,2.5-1.3,5.7-1.8,9.6l0,0.1c-0.2,1.2-0.3,2.6-0.5,4
		c-0.1,0.5-0.1,1.1-0.2,1.6c-0.1,0.6-0.1,1.3-0.2,1.9c-0.1,1.4-0.2,2.6-0.3,3.9c-0.9,15.1-0.6,31.6,0.9,50.3
		c2.9,34.5,9.3,68.4,18.9,100.9c10.5,35.1,24.1,66,40.6,91.9c5,7.7,9.6,14.3,14.1,19.9c5.1,6.4,10.4,12.5,15.9,18.1
		c5.5,5.6,11.4,10.9,17.5,15.7l4.7,3.6l6,4.2l6.1,3.9l5.1,2.9c0.9,0.5,1.5,0.9,2.1,1.2l5.4,2.8c0.7,0.3,1.5,0.7,2.2,1
		c2.8,1.3,5.5,2.5,8.2,3.5l0.2,0.1l0.2,0.1c2.5,1.1,5.2,2,8,2.9c0.9,0.3,1.8,0.6,2.6,0.9l7,2l5,1.3c20,5.4,37.8,11.2,54.6,17.9
		c21.2,8.5,38.1,17.4,53.4,28c5.2,3.7,9.2,6.7,12.8,9.8c4,3.3,8.1,7.2,12.1,11.3c8.5,9,15.4,18.6,20.4,28.5
		c2.9,5.6,5.2,11.3,6.9,16.9c1.8,5.8,3.1,11.8,3.8,17.8c1.4,10.8,1.2,22.6-0.8,35c-0.9,5.3-2.1,10.6-3.6,16.2
		c-1.3,4.6-2.8,9.4-5,15.2c-1.6,4.4-3.5,8.9-6,14.3l0,0.1c-2.6,5.5-4.7,9.7-6.7,13.6c-8.3,15.7-18.3,31.2-31.4,49
		c-1.4,1.9-2.8,3.8-4.3,5.7c-1.6,2.1-3.5,4.5-5.3,6.7c-3.6,4.2-7.7,8.4-12.3,12.3c-7.7,6.7-16.3,12.8-26.4,18.8
		c-8.4,4.9-17.3,9.3-27.3,13.6c-8.5,3.6-17.5,7-27.6,10.4c-17.1,5.6-35.3,10.4-55.6,14.5c-17.8,3.6-36.6,6.6-55.9,8.8
		c-18.4,2.1-37.3,3.6-56.1,4.4c-10.2,0.4-20.3,0.6-30.2,0.6c-8.8,0-17.7-0.2-26.3-0.5c-20.9-0.8-39.6-2.5-57.1-5.2
		c-10.7-1.6-20.2-3.5-29.2-5.8c-11.8-3-21.4-6.2-30.4-10.2c-3-1.4-5.6-2.7-8.1-4c-2.7-1.4-5.5-3.2-8.2-5.1c-3-2.1-5.9-4.4-8.6-6.9
		c-3.3-3.2-6.1-6.4-8.5-10c-3-4.5-5.2-9.3-6.5-14.3c-1.5-5.3-2-11.1-1.4-16.6c0.4-4.8,1.6-9.7,3.5-14.4c1.5-3.6,3.3-7.2,5.6-10.8
		c4.5-6.8,9.7-12.9,16.6-19.3c5.1-4.7,10.8-9.2,17.4-13.9c10.1-7.1,21.3-13.7,35.1-20.8c24.5-12.5,49.3-22.6,70.4-30.8
		c20.8-8.1,41.9-15.7,62.2-23l7.8-2.8c11.1-4,22.9-8.3,34.3-12.6c7.4-2.8,16.5-6.3,25.7-10.2c-7.1,0.1-14.9,0.4-23.9,1
		c-10.3,0.7-21.7,1.7-35.8,3.1c-7.5,0.8-15.1,1.6-22.6,2.4c-4.7,0.5-9.4,1-14.1,1.5c-6.4,0.7-12.7,1.3-19.3,1.8
		c-3.2,0.2-6.9,0.5-11.2,0.5c-0.3,0-0.6,0-0.8,0c-0.4,0-0.8,0-1.2,0c-0.4,0-0.9,0-1.4,0l-2.8-0.1c-2.1,0-4.1-0.3-6.1-0.5l-0.8-0.1
		c-1.4-0.1-2.7-0.4-4.1-0.7l-3.8-0.8l-0.3-0.1c-1.3-0.4-2.5-0.7-3.7-1.1l-2.1-0.7l-2.2-0.9c-1.2-0.5-2.5-1.1-3.8-1.7l-0.2-0.1
		l-0.2-0.1c-1.2-0.6-2.3-1.3-3.5-2c-1.5-0.9-2.8-1.8-4-2.6l-0.8-0.6c-0.8-0.6-1.8-1.3-2.7-2.1l-0.4-0.3c-1.7-1.5-3.7-3.3-5.4-5.2
		l-0.5-0.5c-0.6-0.7-1.3-1.4-1.9-2.1l-2.1-2.6l-1.1-1.4c-0.3-0.3-0.5-0.7-0.7-1l-1.9-2.7c-0.6-0.8-1-1.4-1.4-2.1l-1.9-3
		c-3.5-5.6-6.3-10.7-9.1-15.7l-1.9-3.5c-2.7-4.9-5.2-9.4-7.8-14c-6.1-10.9-12.1-20.8-18.2-30.3c-6.3-9.8-13-19.6-20-29.2l-5.3-7.2
		l-2.6-3.5l-8.2-10.6l-8.4-10.5l-8.6-10.3l-11.8-13.8c-9.7-11.3-17.7-21.9-24.6-32.4c-3.8-5.8-7.4-11.9-10.7-18.3
		c-3.5-6.7-6.5-13.5-9-20.3c-2.8-7.7-4.8-15.3-6.1-22.7c-1.4-8.4-1.9-16.9-1.4-25c0.5-8.6,2.3-17.2,5.2-25.6
		c2.7-7.7,6.7-15.5,11.8-23.1c4.8-6.8,10.3-13,16.4-18.6c5.6-5.1,11.8-9.9,18.5-14.2c12.1-7.7,25.1-13.8,39.9-18.7
		c7.2-2.3,14.1-4.2,21.3-5.6c4.1-0.8,7.9-1.4,11.6-1.8l1-0.1c0.8-0.1,1.5-0.1,2.3-0.2l1.3-0.1l0.7-0.1c0.2,0,0.4-0.1,0.6-0.1l0.1,0
		c1.5-0.4,3.8-1.3,6.1-3c2.2-1.6,4.1-3.6,5.5-5.7c1.3-1.9,2-4,2.3-6c0.3-2.1,0.1-4.1-0.5-6.4l0-0.1c-1.5-5.4-6.1-12-12.4-18
		c-6.2-6-14.4-12-24.5-18c-4.4-2.6-9.1-5.1-14.5-7.8c-5.8-2.8-10.7-5-15.3-7l-0.1,0c-1.6-0.7-3.2-1.4-4.9-2.1c-1-0.4-2-0.8-2.9-1.2
		c-0.9-0.3-1.8-0.7-2.7-1.1c-1.8-0.7-3.5-1.4-5.3-2c-0.9-0.3-1.8-0.7-2.7-1c-1.9-0.7-3.6-1.3-5.4-1.9l-0.9-0.3
		c-2.5-0.9-4.9-1.7-7.2-2.4l-4.1-1.3l-4.1-1.2c-2.1-0.6-4.2-1.2-6.5-1.7l-1.5-0.4c-1.2-0.3-2.4-0.6-3.7-0.9l-4-0.9l-4-0.7
		c-1.4-0.3-2.5-0.5-3.7-0.6l-4.1-0.6c-0.8-0.1-1.5-0.2-2.3-0.3c-0.5-0.1-1.1-0.1-1.6-0.2l-1.8-0.2c0,0-2.9-0.2-3.4-0.2
		c-0.8-0.1-1.5-0.1-2.3-0.2c-1.8-0.1-3.7-0.1-5.5-0.1c-3.1,0-6.3,0.1-9.3,0.4c-9.7,0.8-18.7,3-26.7,6.5c-8.1,3.5-15.4,8.6-21.9,15
		c-12.4,12.3-22.1,30.5-27.3,51.3c-1.3,5.2-2.3,10.3-3,15.2c-0.7,5.2-1.2,10.3-1.3,15.1c0,2.6,0,4.9,0.1,7c0.1,2.1,0.4,4.1,0.6,5.5
		l0,0.1c0,0.1,0,0.2,0.1,0.2c0,0.1,0.1,0.3,0.1,0.4c0,0,0.1,0.3,0.1,0.3l1.1,2.6c0.8,1.9,1.6,3.8,2.4,5.9l0.9,2.2
		c3.1,7.3,6.4,14.9,9.7,22.2c1.7,3.8,3.3,7.5,5,11.3c5.9,13.4,10.6,24.4,14.7,34.7c4.8,11.9,9.4,23.9,13.7,35.7
		c1.1,3,2.2,6.1,3.2,9.2c0.3,1,0.7,2.1,1,3.1c0.7,2,1.4,4,2,6.1l2.9,9c0.1,0.4,0.3,1.1,0.5,1.8l0.4,1.6l0.5,1.8l0.4,1.7
		c0.5,2.4,0.9,4.6,1.2,6.7l0,0.2c1,7.7,1.1,15.7,0.3,24.4c-0.6,6.8-1.6,13.8-3.2,21.5c-3,14.6-7.1,28.3-10.3,38.5
		c-4.8,15.2-10.1,30.1-15.1,44.4c-3,8.6-6.1,17.5-9.1,26.1c-4.6,13.6-7.9,24.1-10.7,33.9c-3.5,12.4-6,23.2-7.6,33
		c-1.9,11.5-2.6,21.6-1.9,30.1l0,0.1c0.1,2,0.4,4,0.8,6.3c0.1,0.4,0.2,0.8,0.2,1.2c0.1,0.6,0.2,1.1,0.4,1.7l0.1,0.6
		c0.2,0.9,0.4,1.7,0.6,2.3l0.1,0.3c0.5,1.7,1.1,3.3,1.8,4.8l0.1,0.2c0.1,0.3,0.3,0.7,0.6,1.2c0.1,0.2,0.2,0.3,0.2,0.5
		c0.2,0.3,0.4,0.6,0.6,0.9l0,0c0.1,0.2,0.3,0.4,0.4,0.6c1.1,1.5,1.9,2,2.9,2.5c0.7,0.3,2.8,1.1,6.9,1.1l0.6,0
		c3.4,0,7.5-0.5,12.1-1.3c4.4-0.9,9.4-2.1,15.5-3.8c3.1-0.9,6.3-1.9,9.7-2.9c2.6-0.8,5.2-1.6,7.9-2.4c2.9-0.8,6.3-1.8,10-2.7
		c3.6-0.9,7.5-1.8,12.1-2.4l0.8-0.1c0.9-0.1,1.9-0.2,3-0.3l0.4,0c0.5,0,1-0.1,1.6-0.1l2.2-0.1l0.4,0c2.5,0,5.9,0.1,10,0.9
		c1.2,0.3,2.3,0.6,3.2,0.8c1.2,0.3,2.4,0.8,3.4,1.2l0.1,0c1.3,0.5,2.6,1.1,3.8,1.7c1.2,0.6,2.5,1.4,3.9,2.4c1.4,0.9,2.2,1.7,3,2.3
		c0.6,0.5,1.3,1.1,1.9,1.7c0.8,0.7,1.4,1.4,2,2.1l0.5,0.5l0.3,0.4c0.5,0.6,1.2,1.3,1.9,2.2l0.2,0.3c1.2,1.7,2.6,3.6,3.8,6.1l0.1,0.1
		c0.5,1,1,2.1,1.5,3.4l0,0.1c0.4,1.1,0.8,2.3,1.1,3.4c0.5,1.5,0.7,2.8,0.9,3.9l0.1,0.7c0.2,1,0.4,2.2,0.4,3.5
		c0.1,2.8,0.1,4.9-0.1,6.8l0,0.2c-0.1,0.9-0.2,1.9-0.4,2.9l0,0.1c-0.2,0.8-0.3,1.7-0.5,2.5c-0.2,1.1-0.5,2.1-0.8,3l-0.7,2.1
		c-0.4,1.3-0.9,2.4-1.3,3.4l-0.4,0.9l-0.1,0.1c-0.5,1.1-1,2.2-1.6,3.3l-0.2,0.4c-2.5,4.8-5.1,8.5-7.3,11.4c-2.3,3.1-4.7,6-7.3,8.9
		c-4.9,5.6-9.8,10.6-14.1,14.8c-5.8,5.7-11.6,11.2-17.2,16.5c-3.3,3.1-6.6,6.2-9.8,9.4c-7.5,7.2-16.3,15.8-24.4,24.9
		c-8.2,9.2-14.3,17.3-18.5,24.8c-2.3,4.2-4,7.9-4.8,11l0,0.1c-0.8,2.6-1.2,5.2-1.1,7.5l0.2,0.2L113.1,859.4z" />

			<path id="stripes" class="st0" d="M435.4,929.3l-0.7,0c-3.7,0-7.5-0.1-11.4-0.1l0-2c3.8,0,7.6,0.1,11.4,0.1l0.7,0V929.3z M447.4,929.2l0-2
		c1.7,0,3.5-0.1,5.4-0.1l6.6-0.2l0.1,2l-6.6,0.2C451,929.1,449.1,929.2,447.4,929.2z M411.3,929c-3.9-0.1-7.9-0.1-12-0.2l0-2
		c4.1,0.1,8.1,0.2,12,0.2L411.3,929z M471.4,928.6l-0.1-2l12-0.3l0.1,2L471.4,928.6z M387.4,928.5c-4-0.1-8-0.2-12-0.4l0.1-2
		c4,0.1,8,0.3,12,0.4L387.4,928.5z M495.4,927.9l-0.1-2l12-0.3l0.1,2L495.4,927.9z M363.4,927.7c-4-0.2-8-0.3-12-0.5l0.1-2
		c4,0.2,8,0.3,12,0.5L363.4,927.7z M519.3,927.3l-0.1-2l12-0.3l0.1,2L519.3,927.3z M339.4,926.7c-4-0.2-8-0.4-12-0.6l0.1-2
		c4,0.2,8,0.4,12,0.6L339.4,926.7z M543.3,926.6l-0.1-2l12-0.3l0.1,2L543.3,926.6z M567.2,926l-0.1-2c3.9-0.1,7.9-0.2,12-0.3l0.1,2
		C575.2,925.8,571.2,925.9,567.2,926z M315.5,925.4c-4-0.2-8-0.5-12-0.8l0.1-2c3.9,0.3,7.9,0.5,12,0.8L315.5,925.4z M591.2,925.3
		l-0.1-2c3.9-0.1,7.9-0.2,12-0.4l0.1,2C599.1,925.1,595.2,925.2,591.2,925.3z M615.2,924.6l-0.1-2c4-0.1,8-0.2,12-0.4l0.1,2
		C623.1,924.3,619.1,924.5,615.2,924.6z M639.1,923.8l-0.1-2c4-0.1,8-0.3,12-0.4l0.1,2C647.1,923.6,643.1,923.7,639.1,923.8z
		 M291.6,923.8c-4-0.3-8-0.6-12-0.9l0.2-2c3.9,0.3,7.9,0.6,11.9,0.9L291.6,923.8z M663.1,923l-0.1-2c4-0.1,8-0.3,12-0.4l0.1,2
		C671.1,922.7,667.1,922.9,663.1,923z M687.1,922.1l-0.1-2l12-0.5l0.1,2L687.1,922.1z M267.6,921.8c-4-0.4-8-0.7-11.9-1.1l0.2-2
		c3.9,0.4,7.9,0.8,11.9,1.1L267.6,921.8z M711,921.1l-0.1-2l12-0.5l0.1,2L711,921.1z M735,920.1l-0.1-2l12-0.6l0.1,2L735,920.1z
		 M243.8,919.5c-4.1-0.4-8-0.9-11.9-1.3l0.2-2c3.9,0.5,7.8,0.9,11.9,1.3L243.8,919.5z M758.9,918.9l-0.1-2c3-0.2,5.9-0.3,8.8-0.5
		c0.1,0,1.1-0.1,2.6-0.1l0.6,0l0.1,2l-0.6,0c-2.6,0.1-2.6,0.1-2.6,0.1C764.8,918.6,761.9,918.7,758.9,918.9z M782.9,917.6l-0.1-2
		l3.6-0.2l8.4-0.5l0.1,2L782.9,917.6z M220,916.7c-4-0.5-8-1.1-11.9-1.6l0.3-2c3.8,0.5,7.8,1.1,11.9,1.6L220,916.7z M806.9,916.1
		l-0.1-2c3.2-0.2,6.6-0.4,9.9-0.7l2-0.2l0.1,2l-2,0.2C813.6,915.6,810.2,915.9,806.9,916.1z M830.9,914.4l-0.1-2
		c3.6-0.3,7.1-0.5,10.3-0.9l1.6-0.2l0.2,2l-1.6,0.2C838,913.9,834.5,914.2,830.9,914.4z M196.2,913.3c-4-0.6-8-1.3-11.8-2l0.3-2
		c3.8,0.7,7.8,1.3,11.8,1.9L196.2,913.3z M854.8,912.3l-0.2-2c1.7-0.2,3.5-0.4,5.2-0.6l6.7-0.8l0.2,2l-6.7,0.8
		C858.3,911.9,856.5,912.1,854.8,912.3z M878.6,909.5l-0.3-2l11.9-1.8l0.3,2l-1.2,0.2c-0.8,0.1-1.4,0.2-1.5,0.2L878.6,909.5z
		 M172.6,909.2c-4.1-0.8-8-1.6-11.8-2.4l0.4-2c3.8,0.8,7.6,1.6,11.7,2.4L172.6,909.2z M902.3,905l-0.6-1.9c3.7-1.2,7.4-2.8,10.8-4.7
		l1,1.7C909.9,902.1,906.2,903.7,902.3,905z M149.1,904c-2.6-0.7-5.2-1.4-7.8-2.1c-1.3-0.4-2.6-0.7-3.8-1.1l0.6-1.9
		c1.2,0.4,2.5,0.7,3.8,1.1c2.5,0.7,5.1,1.4,7.7,2L149.1,904z M126,897.2c-0.8-0.3-1.5-0.5-2.2-0.8c-3.2-1.2-6.2-2.4-9-3.6l0.8-1.8
		c2.8,1.2,5.7,2.4,8.9,3.5c0.7,0.3,1.5,0.5,2.2,0.8L126,897.2z M923.4,893.2l-1.3-1.5c1.7-1.4,3.3-3,4.8-4.6
		c1.2-1.2,2.3-2.5,3.4-3.9l1.6,1.3c-1.1,1.4-2.3,2.7-3.5,4C926.8,890.1,925.1,891.7,923.4,893.2z M104,887.4c-1.7-1-3.3-2-4.9-3.2
		c-0.2-0.1-0.4-0.3-0.6-0.4c-1-0.7-2.6-1.9-4.4-3.6l1.4-1.5c1.7,1.6,3.2,2.7,4.2,3.4c0.2,0.1,0.4,0.3,0.6,0.4
		c1.6,1.1,3.1,2.1,4.7,3.1L104,887.4z M938.8,874.5l-1.7-1c0.2-0.3,0.4-0.6,0.5-0.9c1.7-3,3.3-6.2,4.7-9.7l1.8,0.8
		c-1.5,3.5-3.1,6.8-4.8,9.9C939.1,873.8,938.9,874.2,938.8,874.5z M86.8,870.4l-0.2-0.4c-0.3-0.8-0.5-1.5-0.6-1.9l-0.3-1l-0.1-0.8
		c0-0.3-0.1-0.6-0.2-0.9c-0.2-1-0.4-2.2-0.5-3.5c0-0.3,0-0.6-0.1-0.9c-0.1-0.9-0.1-1.8-0.1-2.7l2,0c0,0.9,0.1,1.8,0.1,2.6
		c0,0.3,0,0.6,0.1,0.9c0.1,1.3,0.3,2.3,0.5,3.3c0.1,0.3,0.1,0.6,0.2,0.9l0.1,0.7l0.2,0.9c0.1,0.4,0.3,0.9,0.6,1.6l0.2,0.4
		L86.8,870.4z M948.4,852.3l-1.9-0.6c1.2-3.6,2.2-7.5,3.1-11.5l1.9,0.5C950.6,844.7,949.5,848.6,948.4,852.3z M87.9,846.5l-2-0.4
		c0.2-1.1,0.5-2.1,0.8-3c0.1-0.2,0.1-0.5,0.2-0.7c0.7-2.6,1.7-5.1,2.8-7.8l1.8,0.8c-1.1,2.6-2,5.1-2.7,7.6c-0.1,0.3-0.1,0.5-0.2,0.8
		C88.4,844.5,88.2,845.5,87.9,846.5z M434.6,836.4l0-2c3.8,0,7.8-0.1,12-0.2l0,2C442.4,836.4,438.4,836.4,434.6,836.4z M422.6,836.4
		c-3.8-0.1-7.9-0.2-12-0.3l0.1-2c4.1,0.1,8.1,0.2,12,0.3L422.6,836.4z M458.6,836l-0.1-2l1.1,0c3.7-0.1,7.3-0.3,10.9-0.5l0.1,2
		c-3.5,0.2-7.2,0.4-10.9,0.5L458.6,836z M398.6,835.6c-4.1-0.2-8.1-0.5-12-0.8l0.1-2c3.9,0.3,7.9,0.5,11.9,0.7L398.6,835.6z
		 M482.6,834.7l-0.1-2c4-0.3,8-0.6,11.9-0.9l0.2,2C490.6,834.1,486.6,834.4,482.6,834.7z M374.6,833.8c-4.1-0.4-8.1-0.8-11.9-1.3
		l0.2-2c3.9,0.5,7.8,0.9,11.9,1.3L374.6,833.8z M506.5,832.6l-0.2-2c2.5-0.3,4.9-0.5,7.4-0.8c1.5-0.2,3-0.3,4.5-0.5l0.2,2
		c-1.5,0.2-3,0.4-4.5,0.5C511.4,832,509,832.3,506.5,832.6z M350.8,830.8c-4.1-0.6-8.1-1.3-11.8-2.1l0.4-2c3.7,0.7,7.7,1.4,11.8,2.1
		L350.8,830.8z M530.3,829.7l-0.3-2c4-0.5,7.9-1.1,11.8-1.8l0.3,2C538.3,828.5,534.3,829.1,530.3,829.7z M953.9,828.9l-2-0.3
		c0.6-3.8,1.2-7.8,1.6-11.8l2,0.2C955.1,821,954.5,825,953.9,828.9z M327.2,826.2c-0.9-0.2-1.8-0.4-2.6-0.6l-0.2,0
		c-3.1-0.8-6.1-1.6-8.8-2.4l0.6-1.9c2.7,0.8,5.7,1.6,8.7,2.4l-0.1,1l0.2-1c0.9,0.2,1.7,0.4,2.6,0.6L327.2,826.2z M554,825.9l-0.4-2
		c4-0.7,7.9-1.5,11.8-2.2l0.4,2C561.9,824.5,558,825.2,554,825.9z M97,824.8l-1.7-1c1.9-3.3,4.1-6.6,6.6-10.1l1.6,1.2
		C101,818.3,98.9,821.5,97,824.8z M577.6,821.2l-0.4-2c3.9-0.9,7.8-1.8,11.6-2.7l0.5,1.9C585.4,819.4,581.5,820.3,577.6,821.2z
		 M304.2,819.2c-1.9-0.7-3.7-1.5-5.4-2.3c-1.9-0.8-3.8-1.7-5.6-2.7l0.9-1.8c1.7,0.9,3.6,1.8,5.5,2.6c1.7,0.8,3.5,1.5,5.4,2.3
		L304.2,819.2z M600.9,815.4l-0.5-1.9c3.8-1.1,7.7-2.2,11.5-3.3l0.6,1.9C608.6,813.3,604.7,814.4,600.9,815.4z M623.8,808.4
		l-0.6-1.9c4.1-1.4,7.7-2.7,11.2-4l0.7,1.9C631.6,805.7,627.9,807.1,623.8,808.4z M283.2,807.1c-2.9-3-5-6.6-6.4-10.5l1.9-0.7
		c1.3,3.7,3.3,7,6,9.8L283.2,807.1z M110.7,805.3l-1.5-1.3c2.2-2.7,4.6-5.5,7.1-8.4l0.7-0.8l1.5,1.3l-0.7,0.8
		C115.2,799.9,112.9,802.6,110.7,805.3z M956.6,805l-2-0.1c0.1-0.9,0.1-1.8,0.2-2.8l0-0.2c0.2-2.9,0.4-5.9,0.5-9l2,0.1
		c-0.1,3-0.3,6.1-0.5,9l0,0.2C956.7,803.1,956.7,804,956.6,805z M646.3,799.8l-0.8-1.8c3.7-1.6,7.4-3.3,10.9-5l0.9,1.8
		C653.7,796.5,650,798.2,646.3,799.8z M667.9,789.2l-1-1.7c0.7-0.4,1.5-0.8,2.2-1.3c2.8-1.6,5.5-3.3,8-4.9l1.1,1.7
		c-2.6,1.7-5.3,3.4-8.1,5C669.4,788.4,668.6,788.8,667.9,789.2z M126.6,787.5l-1.4-1.4c2.7-2.8,5.4-5.6,8.4-8.6l1.4,1.4
		C132,782,129.3,784.8,126.6,787.5z M277.3,784.5l-2-0.2c0.4-4.2,1.6-8.1,3.6-11.8l1.7,1C278.7,777,277.6,780.6,277.3,784.5z
		 M957.5,781l-2,0c0-0.8,0-1.6,0-2.5c0-3.1,0-6.3-0.1-9.5l2,0c0.1,3.2,0.1,6.4,0.1,9.5C957.6,779.3,957.5,780.1,957.5,781z
		 M688,775.9l-1.2-1.6c1.5-1.2,3-2.4,4.4-3.7c1.5-1.4,3.1-2.8,4.5-4.2l1.4,1.4c-1.5,1.4-3,2.9-4.6,4.3
		C691,773.4,689.5,774.7,688,775.9z M143.6,770.6l-1.4-1.4c2.9-2.9,5.8-5.5,8.7-8.3l1.4,1.5C149.4,765.1,146.5,767.8,143.6,770.6z
		 M287.9,764.4l-1.4-1.4c1.2-1.3,2.5-2.5,3.9-3.8c1.6-1.5,3.3-2.9,5-4.4l1.3,1.5c-1.7,1.4-3.4,2.8-5,4.3
		C290.4,762,289.1,763.2,287.9,764.4z M705.1,758.9l-1.6-1.2l0.4-0.5c0.3-0.4,0.6-0.8,0.9-1.2l0.2-0.3c1.3-1.8,2.6-3.5,4-5.3
		c0.5-0.7,1.1-1.5,1.6-2.2l1.6,1.2c-0.5,0.7-1.1,1.5-1.6,2.2c-1.3,1.9-2.6,3.6-4,5.3l-0.2,0.3c-0.3,0.4-0.6,0.9-1,1.3L705.1,758.9z
		 M955.1,757c-0.1-3.8-0.3-7.7-0.5-12l2-0.1c0.2,4.2,0.4,8.1,0.5,12L955.1,757z M160.9,754.1l-1.4-1.4l1.7-1.7c1.7-1.7,4-4.2,6.3-7
		l1.5,1.3c-2.4,3-4.7,5.5-6.5,7.2L160.9,754.1z M306.2,749.3l-1.1-1.6c3.2-2.2,6.5-4.4,10.1-6.6l1.1,1.7
		C312.7,744.9,309.3,747.1,306.2,749.3z M719.2,739.4l-1.6-1.1c2.3-3.3,4.6-6.7,6.7-9.9l1.7,1.1
		C723.8,732.7,721.6,736.1,719.2,739.4z M326.5,736.7l-1-1.7c3.3-1.9,6.9-3.8,10.6-5.7l0.9,1.8C333.3,732.9,329.8,734.8,326.5,736.7
		z M176.4,735.6l-1.6-1.1c2.4-3.4,4.6-6.8,6.4-10l1.7,1C181,728.7,178.8,732.1,176.4,735.6z M953.8,733.1c-0.1-1.5-0.2-3-0.3-4.6
		c-0.2-2.4-0.4-4.9-0.6-7.3l2-0.2c0.2,2.4,0.4,4.9,0.6,7.3c0.1,1.6,0.2,3.1,0.3,4.6L953.8,733.1z M347.7,725.8l-0.9-1.8
		c3.5-1.7,7.2-3.4,10.9-5.1l0.8,1.8C354.9,722.4,351.2,724.1,347.7,725.8z M732.3,719.3l-1.7-1c2.1-3.5,4.1-7,6-10.3l1.8,1
		C736.5,712.3,734.5,715.8,732.3,719.3z M369.5,715.9l-0.8-1.8c3.5-1.5,7.3-3.1,11.1-4.7l0.8,1.8
		C376.8,712.8,373.1,714.3,369.5,715.9z M188.3,714.5l-1.9-0.7c1.6-4,2.4-7.4,2.4-10.1c0-0.4,0-0.8-0.1-1.1l2-0.2
		c0,0.4,0.1,0.9,0.1,1.3C190.9,706.7,190,710.3,188.3,714.5z M105.2,709.7h-0.9c-2,0-3.8-0.2-5.4-0.3l0.2-2c1.6,0.2,3.3,0.3,5.2,0.3
		h0.9c1.8,0,3.7-0.1,5.7-0.2l0.2,2C109,709.6,107.1,709.7,105.2,709.7z M952,709.2c-0.3-3.9-0.6-7.9-0.9-12l2-0.1
		c0.3,4,0.6,8,0.9,11.9L952,709.2z M123,707.7l-0.4-2c3.5-0.7,7.2-1.5,11.6-2.7l0.5,1.9C130.3,706.2,126.6,707,123,707.7z
		 M391.6,706.7l-0.7-1.9c3.9-1.5,7.6-3,11.2-4.4l0.7,1.9C399.2,703.7,395.5,705.1,391.6,706.7z M87,706.3c-0.3-0.1-0.6-0.3-0.9-0.4
		c-2.9-1.3-5.5-2.9-7.6-4.7l-0.3-0.3c-0.5-0.4-1-0.9-1.5-1.3l1.4-1.5c0.5,0.4,0.9,0.9,1.4,1.3l0.4,0.3c1.9,1.7,4.4,3.2,7.1,4.4
		c0.3,0.1,0.6,0.2,0.8,0.4L87,706.3z M146.5,703.1l-0.5-1.9c2-0.5,4.2-1.1,6.6-1.7c1.6-0.4,3.3-0.9,5-1.3l0.5,1.9
		c-1.7,0.4-3.4,0.9-5,1.3C150.8,702,148.5,702.6,146.5,703.1z M743.9,698.2l-1.8-0.9c1.8-3.7,3.4-7.3,4.9-10.9l1.8,0.8
		C747.4,690.8,745.7,694.5,743.9,698.2z M414,698l-0.7-1.9c3.7-1.4,7.5-2.8,11.2-4.2l0.7,1.9C421.4,695.2,417.7,696.6,414,698z
		 M169.8,697.5l-0.4-2c3.9-0.7,7.2-1,9.9-1c0.8,0,1.6,0,2.3,0.1l-0.2,2c-0.7-0.1-1.4-0.1-2.1-0.1
		C176.7,696.5,173.6,696.8,169.8,697.5z M69.3,689.9l-0.2-0.3c-0.7-1.3-1.3-2.5-1.8-3.5c-1-2.3-1.9-4.6-2.8-7.3l1.9-0.6
		c0.9,2.6,1.7,4.9,2.7,7.1c0.4,0.9,1,2.1,1.7,3.4l0.2,0.3L69.3,689.9z M436.4,689.6l-0.7-1.9c3.8-1.4,7.5-2.7,11.3-4.1l0.7,1.9
		C443.9,686.9,440.2,688.3,436.4,689.6z M950.3,685.3c-0.1-1.1-0.1-2.2-0.1-3.3l0-1.2c-0.1-2-0.2-3.9-0.3-5.8l-0.1-1.8l2-0.1
		l0.1,1.7c0.1,1.9,0.2,3.8,0.3,5.7l0.1,1.3c0,1.1,0.1,2.1,0.1,3.3L950.3,685.3z M458.9,681.5l-0.7-1.9l11.3-4.1l0.7,1.9L458.9,681.5
		z M753.2,676l-1.9-0.6c1.3-3.9,2.5-7.7,3.4-11.4l1.9,0.5C755.7,668.2,754.5,672.1,753.2,676z M481.5,673.3l-0.7-1.9
		c3.8-1.4,7.6-2.8,11.3-4.1l0.7,1.9C489,670.6,485.3,671.9,481.5,673.3z M61.7,666.9c-0.5-3.2-0.8-5.8-1-8c-0.1-1.3-0.2-2.7-0.2-4
		l2-0.1c0.1,1.3,0.1,2.6,0.2,3.9c0.2,2.2,0.5,4.7,1,7.9L61.7,666.9z M504,665.1l-0.7-1.9c1.8-0.7,3.6-1.4,5.5-2
		c1.8-0.7,3.7-1.4,5.8-2.2l0.7,1.9c-2,0.8-3.9,1.5-5.8,2.2C507.6,663.7,505.8,664.4,504,665.1z M948.6,661.5l-0.3-2.8
		c-0.2-1.3-0.3-2.5-0.4-3.4c0-0.1-0.5-3.1-0.9-5.7l2-0.3c0.4,2.6,0.9,5.6,0.9,5.7c0.2,0.9,0.3,2.1,0.4,3.4l0.3,2.8L948.6,661.5z
		 M526.4,656.5l-0.7-1.9c3.8-1.5,7.6-3,11.1-4.5l0.8,1.8C534,653.4,530.3,654.9,526.4,656.5z M759,652.6l-2-0.3
		c0.6-4.1,0.9-8.1,1-11.8l2,0.1C759.9,644.4,759.6,648.4,759,652.6z M548.5,647.1l-0.8-1.8c4.4-2,7.9-3.6,10.8-5.1l0.9,1.8
		C556.4,643.5,553,645.1,548.5,647.1z M62.6,642.9l-2-0.1c0.2-3.8,0.6-7.8,1.1-12l2,0.2C63.2,635.2,62.8,639.1,62.6,642.9z
		 M944.8,637.8c-0.1-0.6-0.2-1.2-0.3-1.7l-0.8-4l-1-4c-0.2-0.7-0.3-1.3-0.5-2l1.9-0.5c0.2,0.6,0.3,1.3,0.5,2l1,4l0.8,4
		c0.1,0.5,0.2,1.1,0.3,1.7L944.8,637.8z M569.9,636l-1.1-1.7c2.6-1.6,4.5-3,6.3-4.4l0.3-0.2c0.9-0.7,1.8-1.4,2.9-2.4l1.4,1.5
		c-1.1,1.1-2.1,1.9-3,2.6l-0.3,0.2C574.5,633,572.5,634.4,569.9,636z M757.5,628.7c-0.1-0.5-0.1-0.9-0.2-1.4
		c-0.5-3.5-1.2-6.9-2-10.2l1.9-0.5c0.9,3.4,1.6,6.9,2.1,10.5c0.1,0.5,0.1,1,0.2,1.4L757.5,628.7z M65.5,619.3l-2-0.4
		c0.7-3.9,1.5-7.8,2.4-11.8l2,0.4C67,611.5,66.2,615.4,65.5,619.3z M585.8,617.9l-2-0.1l0-0.4c0-0.2,0-0.5,0-0.8
		c0-0.2,0-0.4-0.1-0.6l-0.3-1.2c-0.1-0.4-0.3-1-0.4-1.3c-0.1-0.1-0.1-0.3-0.2-0.5l-0.7-1.4c-0.4-0.7-0.8-1.2-1.2-1.6l-0.2-0.3
		c-0.1-0.2-0.9-0.9-1.2-1.2l-0.4-0.4l1.3-1.5l0.1,0.1l0.4,0.4c0.7,0.7,1.2,1.2,1.4,1.4l0.2,0.3c0.4,0.5,0.8,1,1.3,1.9l0.7,1.5
		c0.1,0.2,0.2,0.5,0.3,0.7c0.1,0.4,0.3,0.9,0.4,1.3l0.1,0.5l0.2,1.1c0,0.3,0.1,0.5,0.1,0.8c0,0.3,0,0.6,0,0.9L585.8,617.9z
		 M939.2,614.6c-1.1-3.8-2.2-7.7-3.4-11.5l1.9-0.6c1.2,3.8,2.3,7.7,3.4,11.5L939.2,614.6z M397.7,608.9h-1.2c-0.5,0-1,0-1.5,0
		l-1.4-0.1c-1.1,0-2.2-0.1-3.4-0.2l0.2-2c1,0.1,2.1,0.2,3.2,0.2l1.4,0.1c0.5,0,0.9,0,1.4,0h1.2c1.4,0,3,0,4.6-0.1l0.1,2
		C400.8,608.9,399.2,608.9,397.7,608.9z M414.4,607.8l-0.2-2c4.1-0.4,8-0.8,11.3-1.1l0.6-0.1l0.2,2l-0.6,0.1
		C422.4,607,418.5,607.4,414.4,607.8z M751.4,605.9c-0.6-1.3-1.2-2.6-1.8-3.9c-1.1-2.2-2.3-4.4-3.7-6.6l1.7-1.1
		c1.4,2.2,2.7,4.5,3.8,6.7c0.7,1.3,1.3,2.7,1.9,4L751.4,605.9z M378.4,605.5c-1.2-0.6-2.4-1.2-3.5-1.9c-0.6-0.4-1.3-0.8-1.9-1.3
		c-1.5-1-2.9-2.2-4.3-3.6l-0.3-0.3l1.4-1.4l0.3,0.3c1.3,1.3,2.6,2.4,4,3.4c0.6,0.4,1.2,0.8,1.8,1.2c1,0.7,2.1,1.3,3.3,1.8
		L378.4,605.5z M438.3,605.3l-0.2-2l1.3-0.1c3.2-0.3,6.4-0.7,9.7-1.1l0.9-0.1l0.2,2l-0.9,0.1c-3.3,0.4-6.6,0.7-9.7,1.1L438.3,605.3z
		 M568.9,602.9c-1.6-0.6-3.4-1-5.4-1.5c-2.2-0.5-4.2-0.8-6.1-1.1l0.3-2c2,0.3,4,0.7,6.2,1.2c2.1,0.5,3.9,0.9,5.6,1.5L568.9,602.9z
		 M462.1,602.7l-0.2-2l0.2,0c4.2-0.4,8.1-0.8,11.8-1.2l0.2,2c-3.6,0.3-7.5,0.7-11.7,1.2L462.1,602.7z M485.9,600.5l-0.2-2
		c4.3-0.4,8.2-0.7,12-0.9l0.1,2C494.1,599.8,490.2,600.1,485.9,600.5z M545.6,599c-3.1-0.2-6.2-0.4-9.6-0.4l-0.3,0
		c-0.6,0-1.3,0-1.9-0.1l0-2c0.7,0,1.3,0,2,0.1l0.3,0c3.5,0.1,6.6,0.2,9.7,0.5L545.6,599z M509.8,598.9l-0.1-2
		c4.1-0.2,8.1-0.3,12-0.4l0,2C517.8,598.6,513.9,598.7,509.8,598.9z M70.6,595.9l-1.9-0.5c0.8-3,1.7-6.2,2.6-9.4l0.6-2.1l1.9,0.6
		l-0.6,2.1C72.3,589.8,71.4,592.9,70.6,595.9z M932.1,591.8c-1.3-3.8-2.6-7.5-4-11.3l1.9-0.7c1.4,3.7,2.8,7.5,4,11.3L932.1,591.8z
		 M361,588.7c-0.2-0.4-0.5-0.8-0.7-1.2l-0.8-1.3c-1.4-2.2-2.9-4.7-4.7-7.8l1.7-1c1.8,3.1,3.2,5.5,4.6,7.7l0.9,1.4
		c0.2,0.4,0.4,0.8,0.7,1.1L361,588.7z M738.9,585.8c-1.6-1.9-3.3-3.8-5-5.7l-0.2-0.2c-0.9-0.9-1.8-1.9-2.8-2.8l1.4-1.4
		c0.9,0.9,1.9,1.9,2.8,2.8l0.2,0.3c1.8,1.9,3.5,3.9,5.1,5.8L738.9,585.8z M77.3,573l-1.9-0.6c1.2-3.7,2.3-7.5,3.6-11.4l1.9,0.6
		C79.6,565.5,78.4,569.2,77.3,573z M923.7,569.4c-1.5-3.7-3.1-7.4-4.7-11l1.8-0.8c1.6,3.6,3.2,7.3,4.7,11.1L923.7,569.4z
		 M722.1,569.1c-2.6-2.2-5.7-4.4-9-6.7l-0.6-0.4l1.1-1.7l0.6,0.4c3.4,2.3,6.4,4.6,9.1,6.8L722.1,569.1z M349,567.9
		c-1.9-3.4-3.8-6.9-5.8-10.5l1.8-1c2,3.5,3.9,7.1,5.8,10.5L349,567.9z M702.5,555.6c-3.3-2-6.8-4-10.4-5.9l0.9-1.8
		c3.6,1.9,7.1,3.9,10.5,5.9L702.5,555.6z M84.7,550.2l-1.9-0.6c1.3-3.7,2.6-7.5,3.9-11.3l1.9,0.7C87.3,542.7,85.9,546.5,84.7,550.2z
		 M914.1,547.5c-1.7-3.6-3.5-7.2-5.3-10.7l1.8-0.9c1.8,3.5,3.6,7.2,5.3,10.8L914.1,547.5z M337.3,547c-2-3.4-4-6.9-6.1-10.3l1.7-1
		c2.1,3.4,4.1,6.9,6.1,10.3L337.3,547z M681.4,544.4c-3.5-1.6-7.2-3.3-10.9-4.9l0.8-1.8c3.8,1.6,7.5,3.2,11,4.9L681.4,544.4z
		 M659.4,535.1c-3.7-1.4-7.4-2.8-11.2-4.1l0.7-1.9c3.8,1.3,7.6,2.7,11.3,4.1L659.4,535.1z M92.5,527.6l-1.9-0.7l4-11.3l1.9,0.7
		L92.5,527.6z M636.8,527.2c-3.7-1.2-7.6-2.4-11.4-3.5l0.6-1.9c3.9,1.1,7.7,2.3,11.5,3.5L636.8,527.2z M324.9,526.5
		c-0.9-1.4-1.8-2.8-2.6-4.2l-0.1-0.1c-1.2-1.9-2.5-3.8-3.8-5.8l1.7-1.1c1.3,2,2.6,3.9,3.8,5.8l0.1,0.1c0.9,1.4,1.8,2.8,2.6,4.2
		L324.9,526.5z M903.3,526.2c-1.9-3.5-3.9-7-5.8-10.4l1.7-1c2,3.4,3.9,6.9,5.9,10.5L903.3,526.2z M613.9,520.5L613.9,520.5l-6.5-1.7
		l-5.1-1.4l0.5-1.9l6.6,1.9l4.9,1.3L613.9,520.5z M590.9,513.5c-0.8-0.3-1.6-0.6-2.3-0.9c-0.4-0.2-0.8-0.3-1.2-0.5
		c-2.5-0.9-5.2-2.1-7.7-3.3l0.8-1.8c2.4,1.1,5,2.3,7.5,3.2c0.4,0.2,0.8,0.3,1.2,0.5c0.7,0.3,1.5,0.6,2.2,0.9L590.9,513.5z
		 M311.8,506.5c-2.2-3.1-4.5-6.4-6.9-9.8l1.6-1.2c2.4,3.4,4.7,6.7,6.9,9.8L311.8,506.5z M891.3,505.5c-2.1-3.4-4.2-6.8-6.4-10.1
		l1.7-1.1c2.2,3.3,4.3,6.7,6.4,10.1L891.3,505.5z M100.5,504.9l-1.9-0.7c1.3-3.8,2.6-7.6,3.9-11.3l1.9,0.6
		C103,497.4,101.8,501.1,100.5,504.9z M569,503.4c-0.9-0.5-1.8-1-2.6-1.4l-2.8-1.6l-2.8-1.6l-2.2-1.4l1.1-1.7l2.1,1.4l2.8,1.6
		l2.8,1.6c0.8,0.4,1.7,0.9,2.6,1.4L569,503.4z M548.6,490.7l-2.1-1.4L541,485c-0.7-0.5-1.4-1.1-2-1.6l1.3-1.6c0.7,0.5,1.3,1.1,2,1.6
		l5.5,4.2l2,1.4L548.6,490.7z M297.9,487l-4.6-6.3l-2.5-3.3l1.6-1.2l2.5,3.3l4.6,6.3L297.9,487z M878.2,485.5l-6.9-9.8l1.6-1.2
		l1.8,2.5l5.2,7.3L878.2,485.5z M108,482.2l-1.9-0.6l0.3-0.9c1.2-3.7,2.2-7.2,3.2-10.6l1.9,0.6c-1,3.3-2.1,6.9-3.2,10.6L108,482.2z
		 M529.8,475.5c-2.9-2.6-5.8-5.4-8.7-8.3l1.4-1.4c2.8,2.9,5.7,5.7,8.6,8.3L529.8,475.5z M283.4,468l-7.5-9.3l1.5-1.3l3.2,3.9
		l4.3,5.4L283.4,468z M864.3,465.9c-2.6-3.9-4.7-7.1-6.5-10.1l1.7-1c1.8,3,3.8,6.2,6.4,10L864.3,465.9z M114.7,459.1l-1.9-0.5
		c1.1-4.1,1.9-7.9,2.7-11.6l2,0.4C116.7,451.2,115.8,455,114.7,459.1z M513,458.4c-2.6-3-5.2-6-7.8-9.2l1.6-1.3
		c2.5,3.1,5.1,6.2,7.7,9.1L513,458.4z M700.4,452.8c-3.7-0.2-7.6-0.8-12-1.8l0.5-1.9c4.3,1,8.1,1.6,11.7,1.8L700.4,452.8z
		 M712.6,451.9l-0.4-2c2.3-0.5,4.5-1.2,6.7-2.2c1.4-0.6,2.7-1.4,4-2.2l1.1,1.7c-1.4,0.9-2.8,1.7-4.3,2.3
		C717.4,450.6,715,451.4,712.6,451.9z M268.2,449.4l-0.9-1.1l-6.9-8l1.5-1.3l7.8,9.1L268.2,449.4z M676.8,447.5
		c-3.6-1.3-7.4-2.8-11.2-4.5l0.8-1.8c3.8,1.7,7.5,3.2,11,4.4L676.8,447.5z M852,445.3c-1.9-3.8-3.6-7.5-5-11l1.9-0.7
		c1.3,3.5,3,7.1,4.9,10.8L852,445.3z M497.9,439.6c-2.3-3.1-4.6-6.4-6.9-9.9l1.7-1.1c2.3,3.4,4.6,6.7,6.8,9.8L497.9,439.6z
		 M732.8,438.8l-1.6-1.2c0.7-1,1.4-2,2.1-3c0.9-1.5,2.3-4,3.6-7.2l1.9,0.8c-1.3,3.3-2.8,5.9-3.8,7.5
		C734.3,436.6,733.6,437.7,732.8,438.8z M654.8,437.7c-3.4-1.8-6.9-3.6-10.6-5.7l1-1.7c3.6,2.1,7.1,3.9,10.5,5.7L654.8,437.7z
		 M119.6,435.6l-2-0.3c0.4-2.9,0.8-5.8,1-8.4c0.1-1.2,0.2-2.3,0.2-3.4l2,0.1c-0.1,1.2-0.1,2.3-0.3,3.5
		C120.4,429.7,120.1,432.6,119.6,435.6z M252.7,431.2c-2.7-3.2-5.2-6.3-7.6-9.3l1.6-1.2c2.3,3,4.9,6.1,7.5,9.3L252.7,431.2z
		 M633.9,425.9l-1.5-0.9c-2.8-1.7-5.6-3.4-8.7-5.3l1.1-1.7c3.1,1.9,5.9,3.6,8.7,5.3l1.5,0.9L633.9,425.9z M843.4,422.7
		c-0.1-0.6-0.2-1.1-0.4-1.7c-0.1-0.7-0.3-1.4-0.3-2.2c0-0.2-0.1-0.4-0.1-0.7l0-0.3c-0.2-1.8-0.6-4.3-0.6-7.3l2,0
		c0,2.9,0.3,5.3,0.6,7.1l0,0.3c0,0.2,0.1,0.5,0.1,0.7c0.1,0.7,0.2,1.3,0.3,2c0.1,0.5,0.2,1.1,0.3,1.7L843.4,422.7z M484.6,419.6
		c-2-3.3-4-6.8-6-10.4l1.7-1c2,3.6,4,7.1,6,10.3L484.6,419.6z M742.5,416.5l-2-0.4c0.1-0.5,0.2-0.9,0.3-1.4l0.1-0.3
		c0.1-0.4,0.2-0.8,0.3-1.1c0.2-0.9,0.4-2.1,0.6-3.6c0-0.1,0.1-0.9,0.2-1.1l0.6-4.2l2,0.3l-0.6,4.2c0,0.2-0.2,1.1-0.2,1.1
		c-0.2,1.5-0.4,2.8-0.6,3.7c-0.1,0.4-0.2,0.8-0.3,1.2l-0.1,0.3C742.7,415.5,742.6,416,742.5,416.5z M613.5,413.2
		c-3.3-2.1-6.5-4.1-9.8-6.1l-0.4-0.2l1.1-1.7l0.4,0.2c3.3,2,6.6,4,9.8,6.1L613.5,413.2z M237.9,412.2c-1.8-2.5-3.5-4.9-5-7.4
		c-0.6-0.9-1.1-1.7-1.7-2.6l1.7-1.1c0.6,0.9,1.1,1.7,1.7,2.6c1.6,2.4,3.2,4.8,5,7.3L237.9,412.2z M118.8,411.6
		c-0.1-1.1-0.2-2.2-0.4-3.3c0-0.2-0.1-0.5-0.1-0.7l-0.1-0.6c-0.1-0.5-0.2-1-0.3-1.6l-0.1-0.7c-0.1-0.7-0.3-1.4-0.4-2.1l-0.4-1.6
		c-0.1-0.3-0.2-0.6-0.3-1l1.9-0.6c0.1,0.3,0.2,0.7,0.3,1l0.4,1.6c0.2,0.7,0.3,1.5,0.5,2.3l0.1,0.7c0.1,0.6,0.2,1.2,0.3,1.7l0.1,0.6
		c0,0.3,0.1,0.5,0.1,0.8c0.2,1.1,0.3,2.2,0.4,3.4L118.8,411.6z M844.9,398.8l-2-0.3c0.3-2.1,0.8-4.2,1.3-6.4
		c0.4-1.6,0.9-3.4,1.5-5.4l1.9,0.6c-0.6,2-1,3.7-1.4,5.3C845.6,394.7,845.2,396.8,844.9,398.8z M472.9,398.6
		c-1.8-3.5-3.6-7.1-5.3-10.8l1.8-0.9c1.7,3.6,3.5,7.2,5.3,10.7L472.9,398.6z M594.5,398.4c-2.3-3.4-3.9-7.4-4.6-11.4l2-0.3
		c0.6,3.8,2.1,7.5,4.3,10.7L594.5,398.4z M746.3,392.8l-2-0.3c0.6-3.8,1.3-7.7,2.1-11.8l2,0.4C747.6,385.2,746.9,389,746.3,392.8z
		 M225.1,391.9c-0.5-1-1.1-1.9-1.6-2.9l-0.2-0.4c-1.4-2.7-2.5-5.1-3.6-7.5l1.8-0.8c1.1,2.3,2.2,4.7,3.6,7.4l0.2,0.4
		c0.5,1,1,1.9,1.6,2.9L225.1,391.9z M113.1,388.6c-0.4-1.2-0.8-2.3-1.1-3.4c-0.1-0.4-0.3-0.8-0.4-1.1c-0.1-0.2-0.4-1.3-0.4-1.3
		c-0.1-0.3-0.2-0.5-0.2-0.8c-0.5-1.6-1.1-3.2-1.6-4.8l1.9-0.7c0.6,1.6,1.1,3.2,1.7,4.8c0.1,0.3,0.2,0.6,0.3,0.8c0,0,0.3,1,0.3,1.2
		c0.1,0.3,0.3,0.7,0.4,1.1c0.4,1.2,0.8,2.3,1.1,3.5L113.1,388.6z M462.6,376.9l-0.1-0.3c-0.1-0.2-0.2-0.4-0.2-0.5
		c-1.4-3-2.7-6.3-4-9.5l-0.3-0.7l1.9-0.8l0.3,0.7c1.3,3.1,2.6,6.4,3.9,9.4c0.1,0.2,0.2,0.4,0.3,0.6l0.1,0.3L462.6,376.9z
		 M851.2,375.9l-1.9-0.6l3.8-11.4l1.9,0.6l-0.6,1.8L851.2,375.9z M592.3,375.1l-1.9-0.5c0.4-1.6,0.8-2.8,1.1-3.5
		c0.1-0.3,0.2-0.6,0.3-0.8c0.8-2.3,1.8-4.6,3-7.1l1.8,0.9c-1.1,2.4-2.1,4.7-2.9,6.9c-0.1,0.2-0.2,0.5-0.2,0.7l0,0.1
		C593.1,372.5,592.7,373.6,592.3,375.1z M215.2,369.9c-1.3-3.9-2.5-7.8-3.3-11.6l2-0.4c0.8,3.7,1.9,7.6,3.2,11.4L215.2,369.9z
		 M750.8,369.3l-2-0.4c0.4-1.8,0.8-3.7,1.2-5.6c0.5-2.1,0.9-4.1,1.4-6.1l1.9,0.4c-0.5,2-0.9,4.1-1.4,6.1
		C751.5,365.7,751.1,367.5,750.8,369.3z M105.3,366c-1.4-3.7-2.8-7.5-4.2-11.2l1.9-0.7c1.4,3.7,2.9,7.5,4.2,11.2L105.3,366z
		 M453.7,354.6c-0.3-0.9-0.7-1.8-1-2.7c-0.1-0.2-0.1-0.4-0.2-0.6c-1-2.7-1.9-5.4-2.8-8l1.9-0.6c0.9,2.7,1.8,5.3,2.8,8
		c0.1,0.2,0.1,0.4,0.2,0.6c0.3,0.9,0.6,1.8,0.9,2.7L453.7,354.6z M602.1,353.7l-1.7-1c2-3.3,4.2-6.7,6.6-10.1l1.6,1.1
		C606.3,347.1,604.1,350.5,602.1,353.7z M858.4,353l-1.9-0.5c0.4-1.5,0.8-2.9,1.1-4.3c0.1-0.4,0.2-0.8,0.3-1.2
		c0.1-0.4,0.2-0.8,0.3-1.3c0.2-0.6,0.4-1.3,0.6-1.9l0.2-0.6c0.2-0.6,0.4-1.2,0.6-1.7c0.1-0.2,0.2-0.4,0.3-0.7l1.9,0.7
		c-0.1,0.2-0.2,0.4-0.2,0.6c-0.2,0.5-0.4,1-0.6,1.6l-0.2,0.6c-0.2,0.6-0.4,1.2-0.5,1.8c-0.1,0.4-0.2,0.8-0.3,1.3
		c-0.1,0.4-0.2,0.8-0.3,1.2C859.2,350,858.9,351.5,858.4,353z M210,346.3c-0.2-2.2-0.3-4.4-0.3-6.5c0-1.6,0.1-3.2,0.2-4.7
		c0-0.3,0-0.6,0.1-0.9l2,0.1c0,0.3,0,0.6-0.1,0.9c-0.1,1.5-0.1,3-0.1,4.6c0,2.1,0.1,4.2,0.3,6.3L210,346.3z M756.1,346l-1.9-0.5
		c0.9-3.9,1.9-7.8,2.9-11.6l1.9,0.5C758,338.2,757,342.1,756.1,346z M96.7,343.7c-0.7-1.7-1.4-3.4-2.1-5.1c-0.8-2-1.6-4-2.5-6
		l1.8-0.8c0.8,2,1.7,4,2.5,6c0.7,1.7,1.4,3.4,2.1,5.1L96.7,343.7z M615.7,334.1l-1.6-1.2c2.3-3,4.8-6,7.5-9.4l1.5,1.3
		C620.4,328.1,618,331.1,615.7,334.1z M446,331.8c-0.7-2.1-1.3-4.2-1.9-6.3c-0.5-1.7-1-3.5-1.5-5.2l1.9-0.5c0.5,1.7,1,3.5,1.5,5.2
		c0.6,2.1,1.2,4.2,1.9,6.2L446,331.8z M867.1,331.1l-1.7-1c2-3.3,4.3-6.6,6.9-9.9l1.6,1.2C871.3,324.6,869,327.9,867.1,331.1z
		 M762,322.8l-1.9-0.5c1-3.8,2.1-7.7,3.1-11.6l1.9,0.5C764.1,315.1,763.1,318.9,762,322.8z M213.9,322.7l-1.9-0.5
		c1-3.9,2.4-7.7,4.1-11.4l1.8,0.8C216.2,315.2,214.9,318.9,213.9,322.7z M87.5,321.6c-1.5-3.5-3.1-7.2-4.7-11l1.8-0.8
		c1.7,3.8,3.2,7.5,4.7,11L87.5,321.6z M631.1,315.8l-1.5-1.3l1.3-1.5c0.1-0.1,2.9-3.2,2.9-3.2l0.2-0.3l2-4.6l1.8,0.8l-2.1,4.9
		l-0.5,0.5c0,0-2.8,3-2.9,3.1L631.1,315.8z M881.6,312.3l-1.5-1.4c2.6-2.8,5.5-5.6,8.6-8.5l1.4,1.5
		C887,306.7,884.2,309.6,881.6,312.3z M439.5,308.7c-1-3.9-2-7.8-2.9-11.7l1.9-0.5c0.9,3.9,1.9,7.8,2.9,11.6L439.5,308.7z
		 M223.7,301.3l-1.6-1.1c0.1-0.2,0.2-0.3,0.3-0.5c2.2-3,4.6-6,7.4-8.9l1.5,1.4c-2.7,2.8-5.1,5.7-7.2,8.7
		C223.9,301.1,223.8,301.2,223.7,301.3z M768.4,299.7l-1.9-0.6c1.1-3.8,2.2-7.6,3.3-11.5l1.9,0.6
		C770.6,292.1,769.5,295.9,768.4,299.7z M77.9,299.6l-0.3-0.7c-0.8-1.8-1.6-3.5-2.3-5.3c0-0.1-1.2-2.8-1.2-2.8l-1-2.3l1.8-0.8l1,2.3
		c0,0,1.2,2.7,1.2,2.8c0.8,1.7,1.5,3.5,2.3,5.2l0.3,0.7L77.9,299.6z M899,296l-1.3-1.5c1.8-1.5,3.7-3.1,5.6-4.6c1.2-1,2.5-2,3.7-3
		l1.2,1.6c-1.2,1-2.5,2-3.7,2.9C902.7,293,900.8,294.5,899,296z M642.4,294.6l-1.9-0.7l4.2-11.2l1.9,0.7l-1.3,3.7L642.4,294.6z
		 M434,285.3c-0.8-3.9-1.6-7.9-2.3-11.8l2-0.4c0.7,3.9,1.5,7.8,2.3,11.7L434,285.3z M239.9,284.1l-1.3-1.5c3.1-2.5,6.3-4.9,9.7-7.2
		l1.1,1.7C246.1,279.3,242.9,281.6,239.9,284.1z M917.8,281.3l-1.2-1.6c3-2.2,6.2-4.5,9.7-7l1.2,1.6
		C924,276.8,920.8,279.1,917.8,281.3z M68.3,277.6c-1-2.2-1.9-4.4-2.9-6.6c0,0-0.8-2.1-0.9-2.3c-0.3-0.7-0.6-1.4-0.9-2.1l1.8-0.9
		c0.3,0.8,0.6,1.5,0.9,2.2c0.1,0.1,0.9,2.3,0.9,2.3c0.9,2.2,1.9,4.4,2.8,6.6L68.3,277.6z M775.2,276.7l-1.9-0.6
		c1.2-3.8,2.3-7.6,3.5-11.5l1.9,0.6C777.5,269.1,776.3,273,775.2,276.7z M650.6,272l-1.9-0.7c1.3-3.8,2.6-7.6,3.8-11.3l1.9,0.6
		C653.2,264.4,651.9,268.2,650.6,272z M259.7,271l-0.9-1.8c3.5-1.8,7.1-3.6,10.9-5.2l0.8,1.8C266.7,267.4,263.1,269.2,259.7,271z
		 M937.3,267.3l-1.2-1.6l3.2-2.3c2.1-1.5,4.3-3.1,6.5-4.7l1.2,1.6c-2.2,1.6-4.4,3.1-6.5,4.7L937.3,267.3z M429.6,261.7
		c-0.6-3.9-1.3-7.9-1.8-11.9l2-0.3c0.6,3.9,1.2,7.9,1.8,11.8L429.6,261.7z M281.5,261.5l-0.7-1.9c0.7-0.3,1.5-0.5,2.2-0.8
		c3.2-1.1,6.3-2,9.3-2.7l0.5,1.9c-3,0.8-6,1.7-9.2,2.7C283,261,282.2,261.3,281.5,261.5z M304.5,255.6l-0.3-2
		c1.5-0.3,3.1-0.5,4.6-0.7c1.4-0.3,2.9-0.4,4.3-0.5c0,0,2.3-0.2,2.4-0.2c0.2,0,0.4,0,0.6-0.1l0.2,2c-0.3,0-0.5,0.1-0.7,0.1
		c-0.1,0-2.4,0.2-2.4,0.2c-1.4,0.1-2.7,0.2-4,0.4l-0.2,0C307.5,255.1,306,255.3,304.5,255.6z M59.4,255.2c-0.1-0.4-0.2-0.7-0.3-1.1
		c-0.1-0.4-0.1-0.7-0.2-1c-0.5-2.5-0.8-5.4-1.1-9.2l0-0.7l2-0.1l0,0.6c0.3,3.7,0.6,6.5,1.1,8.9c0.1,0.3,0.1,0.7,0.2,1
		c0.1,0.3,0.2,0.7,0.2,1.1L59.4,255.2z M782.3,253.9l-1.9-0.6c1.2-3.9,2.5-7.7,3.7-11.4l1.9,0.6C784.8,246.2,783.6,250,782.3,253.9z
		 M956.7,253.1l-0.7-0.8l-0.6-0.8l0.3-0.2c0.9-0.7,1.9-1.5,2.9-2.4c0.5-0.5,1-1,1.5-1.4l0.2-0.2c0.8-0.7,1.4-1.3,1.9-1.8
		c0.8-0.8,1.4-1.4,1.8-1.9l1.5,1.3c-0.5,0.6-1.1,1.2-1.9,2c-0.5,0.5-1.2,1.1-2,1.9l-0.2,0.2c-0.5,0.5-1,0.9-1.6,1.4
		c-1.1,0.9-2.1,1.7-3,2.5L956.7,253.1z M328.2,250.9l-0.8-1.8c2.8-1.3,5.5-2.9,8.4-4.9c0.5-0.4,1.1-0.8,1.6-1.2l1.2,1.6
		c-0.5,0.4-1.1,0.9-1.7,1.3C333.9,247.9,331.1,249.6,328.2,250.9z M658,249.2l-1.9-0.6c1.2-3.9,2.3-7.7,3.4-11.5l1.9,0.5
		C660.4,241.5,659.2,245.3,658,249.2z M426.2,238c-0.5-3.9-0.9-8-1.3-11.9l2-0.2c0.4,4,0.8,8,1.3,11.9L426.2,238z M347.2,235.9
		l-1.6-1.2c0.9-1.1,1.7-2.3,2.4-3.4c1.4-2.1,2.5-4.3,3.5-6.6l1.8,0.8c-1,2.4-2.2,4.7-3.7,6.9C348.9,233.5,348.1,234.7,347.2,235.9z
		 M966.1,233.7c-0.1-0.2-0.1-0.3-0.2-0.5l-0.6-1.5c-1.4-3-2.7-5.5-4.4-8.4l-0.1-0.2l1.7-1l0.1,0.2c1.7,2.9,3,5.5,4.4,8.6l0.8,2.1
		L966.1,233.7z M59.7,231.2l-2-0.1c0.2-3.9,0.5-7.9,1-12l2,0.3C60.2,223.4,59.9,227.3,59.7,231.2z M789.8,231.1l-1.9-0.6
		c1.3-3.8,2.6-7.6,3.9-11.4l1.9,0.7C792.4,223.5,791.1,227.3,789.8,231.1z M664.6,226.1l-1.9-0.5c1-3.9,2-7.8,2.9-11.6l1.9,0.5
		C666.6,218.3,665.6,222.2,664.6,226.1z M423.9,214.1c-0.3-4.1-0.5-8.1-0.7-12l2-0.1c0.2,3.8,0.4,7.8,0.7,11.9L423.9,214.1z
		 M356.5,213.5l-2-0.2c0.2-1.6,0.3-3.1,0.3-4.7c0-1,0-2-0.1-3c-0.1-1.3-0.3-2.6-0.5-4l2-0.3c0.2,1.4,0.4,2.8,0.5,4.1
		c0.1,1.1,0.1,2.1,0.1,3.2C356.8,210.3,356.7,211.9,356.5,213.5z M954.5,213c-2.1-3.2-4.5-6.5-6.9-9.8l1.6-1.2
		c2.4,3.3,4.7,6.6,6.9,9.8L954.5,213z M797.6,208.5l-1.9-0.7c1.4-3.8,2.7-7.6,4.1-11.3l1.9,0.7C800.3,200.9,799,204.7,797.6,208.5z
		 M62.7,207.5l-2-0.4c0.6-3.2,1.3-6.2,2-9.2c0.2-0.9,0.4-1.7,0.7-2.6l1.9,0.5c-0.2,0.8-0.5,1.7-0.7,2.6
		C63.9,201.4,63.3,204.4,62.7,207.5z M670.1,202.7l-2-0.4c0.8-3.9,1.5-7.9,2.2-11.7l2,0.3C671.6,194.8,670.9,198.8,670.1,202.7z
		 M940.5,193.7c-1.9-2.5-3.9-5-5.9-7.6l-1.5-1.8l1.6-1.3l1.5,1.8c2.1,2.6,4.1,5.1,6,7.6L940.5,193.7z M350.7,190.5
		c-1.5-3.4-3.3-6.7-5.5-9.9l-0.2-0.3l1.6-1.1l0.2,0.3c2.2,3.3,4.2,6.7,5.7,10.3L350.7,190.5z M422.8,190.1c0-1.6,0-3.2,0-4.8
		c0-2.4,0-4.8,0.1-7.2l2,0c-0.1,2.3-0.1,4.7-0.1,7.1c0,1.6,0,3.2,0,4.8L422.8,190.1z M805.9,186l-1.9-0.7c1.4-3.8,2.9-7.6,4.3-11.2
		l1.9,0.7C808.8,178.4,807.3,182.2,805.9,186z M68.8,184.6l-1.9-0.7c1.3-3.9,2.8-7.6,4.4-11.2l1.8,0.8
		C71.6,177,70.1,180.7,68.8,184.6z M673.9,179l-2-0.2c0.5-4.2,0.9-8.1,1.1-11.9l2,0.1C674.8,170.9,674.5,174.8,673.9,179z
		 M925.5,175c-2.6-3.1-5.2-6.2-7.7-9.1l1.5-1.3c2.5,2.9,5.1,6,7.8,9.2L925.5,175z M337.5,171c-1.3-1.4-2.7-2.9-4.3-4.4
		c-1.4-1.3-2.8-2.6-4.3-3.9l1.3-1.5c1.5,1.3,2.9,2.6,4.3,4c1.6,1.5,3,3,4.4,4.4L337.5,171z M425.3,166.2l-2-0.1l0.1-1.2
		c0-0.6,0.1-1.1,0.1-1.7l0-0.3c0.1-0.8,0.1-1.7,0.2-2.5c0.1-0.7,0.1-1.4,0.2-2.2c0,0,0.2-1.4,0.2-1.5l0-0.2c0.1-0.9,0.2-1.6,0.2-2.4
		l2,0.2c-0.1,0.8-0.2,1.5-0.2,2.4l0,0.2c0,0.2-0.2,1.5-0.2,1.5c-0.1,0.8-0.1,1.5-0.2,2.2c-0.1,0.8-0.1,1.7-0.2,2.5l0,0.3
		c0,0.5-0.1,1.1-0.1,1.6L425.3,166.2z M814.6,163.7l-1.9-0.7c1.5-3.7,3-7.4,4.5-10.9l0.1-0.1l1.9,0.7l0,0.1l-1-0.3l0.9,0.4
		C817.6,156.3,816.1,160,814.6,163.7z M78.4,162.8l-1.8-0.9c1.9-3.6,4-7.1,6.2-10.4l1.7,1.1C82.3,155.8,80.3,159.2,78.4,162.8z
		 M909.9,156.9c-2.8-3-5.5-6-8.1-8.8l1.5-1.4c2.6,2.8,5.4,5.8,8.1,8.8L909.9,156.9z M319.7,155.3c-3-2.2-6.3-4.5-9.9-6.7l1.1-1.7
		c3.5,2.3,6.9,4.5,10,6.8L319.7,155.3z M673.5,155l0-0.8c-0.1-3.9-0.3-7.5-0.7-11l2-0.2c0.4,3.6,0.6,7.3,0.7,11.2l0,0.8L673.5,155z
		 M91.5,143l-1.5-1.3c2.4-3,5-5.8,7.7-8.5l0.5-0.4l1.4,1.4l-0.4,0.4C96.4,137.3,93.9,140.1,91.5,143z M428.2,142.6l-1.9-0.4
		c0.2-1,0.5-2,0.7-3l0.2-0.6c0.2-0.7,0.4-1.4,0.6-2c0-0.1,0.1-0.3,0.2-0.6l1.2-3l1-2.3l1.8,0.8l-1.4,3.2l-0.8,2
		c0,0.1-0.1,0.3-0.1,0.4c-0.2,0.7-0.4,1.4-0.6,2.2l-0.2,0.6C428.7,140.7,428.5,141.6,428.2,142.6z M299.6,142.6
		c-3.6-2-7-3.8-10.6-5.6l0.9-1.8c3.6,1.8,7,3.7,10.6,5.6L299.6,142.6z M823.9,141.6l-1.8-0.8c0.8-1.9,1.7-3.7,2.6-5.7
		c0.9-1.8,1.7-3.6,2.5-5.2l1.8,0.9c-0.8,1.6-1.6,3.3-2.4,5.1C825.5,137.9,824.7,139.8,823.9,141.6z M893.6,139.4
		c-2.8-2.9-5.5-5.7-8.2-8.4l-0.2-0.2l1.4-1.4l0.2,0.2c2.7,2.7,5.5,5.5,8.2,8.4L893.6,139.4z M278.2,131.9c-2.7-1.2-5.1-2.3-7.2-3.2
		c-0.2-0.1-0.5-0.2-0.7-0.3c-0.9-0.4-1.9-0.8-3-1.3l0.8-1.9c1.1,0.4,2.1,0.9,3.1,1.3c0.2,0.1,0.4,0.2,0.7,0.3
		c2.1,0.9,4.5,1.9,7.3,3.2L278.2,131.9z M670.7,131.5c-0.3-1.1-0.6-2.2-1-3.4c-0.9-2.8-1.9-5.3-3.1-7.6l1.8-0.9
		c1.3,2.4,2.3,5,3.3,7.9c0.4,1.2,0.7,2.3,1,3.5L670.7,131.5z M108.4,126.4l-1.2-1.6c3.2-2.5,6.5-4.7,10-6.8l1,1.7
		C114.8,121.8,111.5,124,108.4,126.4z M440.1,123.5l-1.1-1.7c2.1-1.4,4-2.5,5.3-3.1c0.4-0.2,0.7-0.4,1-0.6c0.2-0.1,0.4-0.2,0.7-0.3
		l2.1-1c0.5-0.2,1-0.5,1.5-0.7l0.9,1.8c-0.5,0.3-1,0.5-1.5,0.7l-2.1,1c-0.2,0.1-0.4,0.2-0.6,0.3c-0.3,0.2-0.7,0.4-1.1,0.6
		C443.9,121.2,442.1,122.2,440.1,123.5z M256.1,122.7c-0.6-0.2-1.1-0.4-1.7-0.6c-1.1-0.4-2-0.7-2.6-0.9l-0.3-0.1
		c-0.3-0.1-0.6-0.2-0.9-0.3c-1.9-0.7-3.7-1.4-5.2-1.9l-0.5-0.2l0.6-1.9l0.5,0.2c1.5,0.5,3.3,1.2,5.3,1.9c0.3,0.1,0.6,0.2,0.9,0.3
		l0.3,0.1c0.6,0.2,1.5,0.6,2.5,0.9c0.6,0.2,1.2,0.4,1.8,0.7L256.1,122.7z M876.6,122.6c-1.5-1.4-3-2.7-4.5-4.1
		c-1.6-1.4-3-2.6-4.4-3.8l1.3-1.5c1.5,1.2,2.9,2.4,4.5,3.9c1.5,1.4,3,2.7,4.5,4.1L876.6,122.6z M834.2,120.1l-1.8-1l0.4-0.7
		c1.8-3.2,3.3-5.8,4.6-7.9c0.4-0.6,0.8-1.3,1.2-1.8l1.7,1.1c-0.3,0.5-0.7,1.1-1.1,1.7c-1.3,2.1-2.8,4.6-4.6,7.8L834.2,120.1z
		 M233.5,114.8l-1.8-0.6l0,0c0,0-4.4-1.3-4.5-1.3c-1.7-0.5-3.4-1-5.2-1.4l0.5-1.9c1.8,0.5,3.6,1,5.3,1.5c0.1,0,4.5,1.3,4.5,1.3
		l1.9,0.6L233.5,114.8z M128.7,114.2l-0.8-1.8l0.3-0.1c3.5-1.6,7.2-3,11-4.1l0.6,1.9c-3.7,1.2-7.4,2.5-10.8,4.1L128.7,114.2z
		 M461.5,113.4l-0.7-1.9l2.3-0.8c1.6-0.5,3.3-1.1,4.8-1.5l0.9-0.3c0.2-0.1,0.4-0.1,0.7-0.2c0.9-0.3,1.8-0.5,2.8-0.8l0.6,1.9
		c-0.9,0.3-1.8,0.5-2.7,0.8c-0.2,0.1-0.5,0.1-0.7,0.2l-0.9,0.3c-1.4,0.4-3.2,1-4.7,1.5L461.5,113.4z M659.8,111.1
		c-1.4-1.3-2.8-2.5-4.2-3.4l-0.3-0.2c-1.6-1.1-3.3-2-5.2-2.8l0.8-1.8c2,0.8,3.8,1.8,5.5,2.9l0.2,0.2c1.6,1,3.1,2.3,4.5,3.7
		L659.8,111.1z M210.5,108.7l-0.6-0.1l-4.5-0.8c-0.6-0.1-1.2-0.2-1.9-0.3c-0.6-0.1-1.3-0.3-1.6-0.3c-0.4,0-0.8-0.1-1.2-0.2l-1.9-0.3
		l0.3-2l1.9,0.3c0.4,0.1,0.8,0.1,1.1,0.2c0.3,0,1.1,0.2,1.7,0.3c0.7,0.1,1.3,0.2,1.9,0.3l5.2,1L210.5,108.7z M858.2,107.4l-0.8-0.5
		c-0.1,0-0.5-0.3-1.4-0.9c-0.2-0.1-0.3-0.2-0.5-0.3c-0.2-0.1-0.5-0.3-0.8-0.5c-0.2-0.1-0.5-0.3-0.7-0.4c-0.2-0.1-1.1-0.6-1.3-0.7
		c-0.2-0.1-0.4-0.2-0.6-0.3l-0.1-0.1c-0.4-0.2-0.7-0.3-1-0.4c-0.3-0.1-0.7-0.2-1.3-0.4c-0.2,0-0.3-0.1-0.5-0.1
		c-0.4,0-0.7-0.1-1.1-0.2l0.2-2l0.1,0c0.4,0.1,0.7,0.1,1.1,0.2l0.1,0c0.2,0.1,0.4,0.1,0.6,0.2c0.7,0.2,1.1,0.3,1.5,0.4
		c0.4,0.1,0.7,0.3,1.2,0.5l0.2,0.1c0.2,0.1,0.4,0.2,0.6,0.3c0.3,0.1,1.2,0.6,1.4,0.7c0.3,0.2,0.5,0.3,0.7,0.4
		c0.4,0.2,0.7,0.4,0.9,0.6c0.2,0.1,0.3,0.2,0.5,0.3c1,0.6,1.4,0.9,1.5,1l0.8,0.5L858.2,107.4z M151.3,107.2l-0.4-2
		c3.9-0.7,7.9-1.3,12-1.7l0.2,2C159.1,105.9,155.1,106.5,151.3,107.2z M484.4,106.8l-0.5-1.9c3.7-0.9,7.6-1.7,11.7-2.6l0.4,2
		C492,105.1,488.1,105.9,484.4,106.8z M186.9,105.4l-0.1,0c-0.8-0.1-1.5-0.1-1.5-0.1c-0.2,0-0.3,0-0.5,0l-0.2,0
		c-0.7,0-1.5-0.1-2.2-0.1c-2.2-0.1-4.4-0.2-6.4-0.2l-0.9,0l0-2l0.9,0c2.1,0,4.3,0.1,6.5,0.2c0.8,0,1.5,0.1,2.2,0.1l0.2,0
		c0.2,0,0.4,0,0.6,0c0.1,0,0.7,0.1,1.5,0.1l0.1,0L186.9,105.4z M507.8,102.2l-0.3-2c3.9-0.6,7.9-1.2,11.9-1.7l0.3,2
		C515.7,101,511.7,101.5,507.8,102.2z M638.8,101.9c-0.9-0.2-1.7-0.3-1.7-0.3c-1.3-0.2-2.6-0.5-3.5-0.6c-0.8-0.1-1.5-0.2-2.3-0.4
		c-0.1,0-0.4,0-0.6-0.1c-1.2-0.2-2.5-0.3-3.7-0.5l0.3-2c1.2,0.2,2.5,0.3,3.7,0.5c0.2,0,0.4,0.1,0.6,0.1c0.8,0.2,1.5,0.3,2.2,0.4
		c0.9,0.1,2.3,0.4,3.6,0.6l1.7,0.3L638.8,101.9z M531.5,99.1l-0.2-2c3.9-0.4,7.9-0.7,12-1l0.1,2C539.4,98.4,535.4,98.7,531.5,99.1z
		 M615.1,98.7c-3.7-0.4-7.6-0.7-11.4-1l-0.5,0l0.1-2l0.5,0c3.9,0.3,7.7,0.6,11.5,1L615.1,98.7z M555.4,97.4l-0.1-2
		c3.8-0.2,7.9-0.3,12-0.4l0,2C563.2,97.1,559.2,97.2,555.4,97.4z M591.3,97.2c-3.9-0.1-8-0.2-12-0.2l0-2c4,0,8,0.1,12,0.2
		L591.3,97.2z" />
		</g>
		<circle id="START" cx="962.6" cy="768.6" r="3.4" class="st2" />
	</g>
	<g id="layout">
		<path class="st0" d="M435.4,929.3l-0.7,0c-3.7,0-7.5-0.1-11.4-0.1l0-2c3.8,0,7.6,0.1,11.4,0.1l0.7,0V929.3z" />
		<path class="st0"
			d="M447.4,929.2l0-2c1.7,0,3.5-0.1,5.4-0.1l6.6-0.2l0.1,2l-6.6,0.2C451,929.1,449.1,929.2,447.4,929.2z" />
		<path class="st0" d="M411.3,929c-3.9-0.1-7.9-0.1-12-0.2l0-2c4.1,0.1,8.1,0.2,12,0.2L411.3,929z" />

		<rect x="471.4" y="926.4" transform="matrix(0.9996 -2.684579e-02 2.684579e-02 0.9996 -24.7253 13.1496)"
			class="st0" width="12" height="2" />
		<path class="st0" d="M387.4,928.5c-4-0.1-8-0.2-12-0.4l0.1-2c4,0.1,8,0.3,12,0.4L387.4,928.5z" />

		<rect x="495.3" y="925.8" transform="matrix(0.9996 -2.684579e-02 2.684579e-02 0.9996 -24.6993 13.7926)"
			class="st0" width="12" height="2" />
		<path class="st0" d="M363.4,927.7c-4-0.2-8-0.3-12-0.5l0.1-2c4,0.2,8,0.3,12,0.5L363.4,927.7z" />

		<rect x="519.3" y="925.1" transform="matrix(0.9996 -2.733353e-02 2.733353e-02 0.9996 -25.118 14.704)"
			class="st0" width="12" height="2" />
		<path class="st0" d="M339.4,926.7c-4-0.2-8-0.4-12-0.6l0.1-2c4,0.2,8,0.4,12,0.6L339.4,926.7z" />

		<rect x="543.3" y="924.5" transform="matrix(0.9996 -2.733353e-02 2.733353e-02 0.9996 -25.0914 15.3587)"
			class="st0" width="12" height="2" />
		<path class="st0" d="M567.2,926l-0.1-2c3.9-0.1,7.9-0.2,12-0.3l0.1,2C575.2,925.8,571.2,925.9,567.2,926z" />
		<path class="st0" d="M315.5,925.4c-4-0.2-8-0.5-12-0.8l0.1-2c3.9,0.3,7.9,0.5,12,0.8L315.5,925.4z" />
		<path class="st0" d="M591.2,925.3l-0.1-2c3.9-0.1,7.9-0.2,12-0.4l0.1,2C599.1,925.1,595.2,925.2,591.2,925.3z" />
		<path class="st0" d="M615.2,924.6l-0.1-2c4-0.1,8-0.2,12-0.4l0.1,2C623.1,924.3,619.1,924.5,615.2,924.6z" />
		<path class="st0" d="M639.1,923.8l-0.1-2c4-0.1,8-0.3,12-0.4l0.1,2C647.1,923.6,643.1,923.7,639.1,923.8z" />
		<path class="st0" d="M291.6,923.8c-4-0.3-8-0.6-12-0.9l0.2-2c3.9,0.3,7.9,0.6,11.9,0.9L291.6,923.8z" />
		<path class="st0" d="M663.1,923l-0.1-2c4-0.1,8-0.3,12-0.4l0.1,2C671.1,922.7,667.1,922.9,663.1,923z" />
		<polygon class="st0" points="687.1,922.1 687,920.1 699,919.7 699.1,921.7 		" />
		<path class="st0" d="M267.6,921.8c-4-0.4-8-0.7-11.9-1.1l0.2-2c3.9,0.4,7.9,0.8,11.9,1.1L267.6,921.8z" />

		<rect x="711" y="918.9" transform="matrix(0.9991 -4.297103e-02 4.297103e-02 0.9991 -38.8661 31.6586)"
			class="st0" width="12" height="2" />

		<rect x="734.9" y="917.8" transform="matrix(0.9988 -4.881758e-02 4.881758e-02 0.9988 -43.9698 37.265)"
			class="st0" width="12" height="2" />
		<path class="st0" d="M243.8,919.5c-4.1-0.4-8-0.9-11.9-1.3l0.2-2c3.9,0.5,7.8,0.9,11.9,1.3L243.8,919.5z" />
		<path class="st0" d="M758.9,918.9l-0.1-2c3-0.2,5.9-0.3,8.8-0.5c0.1,0,1.1-0.1,2.6-0.1l0.6,0l0.1,2l-0.6,0
			c-2.6,0.1-2.6,0.1-2.6,0.1C764.8,918.6,761.9,918.7,758.9,918.9z" />
		<polygon class="st0" points="782.9,917.6 782.8,915.6 786.4,915.4 794.8,914.9 794.9,916.9 		" />
		<path class="st0" d="M220,916.7c-4-0.5-8-1.1-11.9-1.6l0.3-2c3.8,0.5,7.8,1.1,11.9,1.6L220,916.7z" />
		<path class="st0"
			d="M806.9,916.1l-0.1-2c3.2-0.2,6.6-0.4,9.9-0.7l2-0.2l0.1,2l-2,0.2C813.6,915.6,810.2,915.9,806.9,916.1z" />
		<path class="st0"
			d="M830.9,914.4l-0.1-2c3.6-0.3,7.1-0.5,10.3-0.9l1.6-0.2l0.2,2l-1.6,0.2C838,913.9,834.5,914.2,830.9,914.4z" />
		<path class="st0" d="M196.2,913.3c-4-0.6-8-1.3-11.8-2l0.3-2c3.8,0.7,7.8,1.3,11.8,1.9L196.2,913.3z" />
		<path class="st0"
			d="M854.8,912.3l-0.2-2c1.7-0.2,3.5-0.4,5.2-0.6l6.7-0.8l0.2,2l-6.7,0.8C858.3,911.9,856.5,912.1,854.8,912.3z" />
		<path class="st0" d="M878.6,909.5l-0.3-2l11.9-1.8l0.3,2l-1.2,0.2c-0.8,0.1-1.4,0.2-1.5,0.2L878.6,909.5z" />
		<path class="st0" d="M172.6,909.2c-4.1-0.8-8-1.6-11.8-2.4l0.4-2c3.8,0.8,7.6,1.6,11.7,2.4L172.6,909.2z" />
		<path class="st0" d="M902.3,905l-0.6-1.9c3.7-1.2,7.4-2.8,10.8-4.7l1,1.7C909.9,902.1,906.2,903.7,902.3,905z" />
		<path class="st0" d="M149.1,904c-2.6-0.7-5.2-1.4-7.8-2.1c-1.3-0.4-2.6-0.7-3.8-1.1l0.6-1.9c1.2,0.4,2.5,0.7,3.8,1.1c2.5,0.7,5.1,1.4,7.7,2L149.1,904z" />
		<path class="st0" d="M126,897.2c-0.8-0.3-1.5-0.5-2.2-0.8c-3.2-1.2-6.2-2.4-9-3.6l0.8-1.8c2.8,1.2,5.7,2.4,8.9,3.5c0.7,0.3,1.5,0.5,2.2,0.8L126,897.2z" />
		<path class="st0" d="M923.4,893.2l-1.3-1.5c1.7-1.4,3.3-3,4.8-4.6c1.2-1.2,2.3-2.5,3.4-3.9l1.6,1.3c-1.1,1.4-2.3,2.7-3.5,4C926.8,890.1,925.1,891.7,923.4,893.2z" />
		<path class="st0" d="M104,887.4c-1.7-1-3.3-2-4.9-3.2c-0.2-0.1-0.4-0.3-0.6-0.4c-1-0.7-2.6-1.9-4.4-3.6l1.4-1.5c1.7,1.6,3.2,2.7,4.2,3.4c0.2,0.1,0.4,0.3,0.6,0.4c1.6,1.1,3.1,2.1,4.7,3.1L104,887.4z" />
		<path class="st0" d="M938.8,874.5l-1.7-1c0.2-0.3,0.4-0.6,0.5-0.9c1.7-3,3.3-6.2,4.7-9.7l1.8,0.8c-1.5,3.5-3.1,6.8-4.8,9.9C939.1,873.8,938.9,874.2,938.8,874.5z" />
		<path class="st0" d="M86.8,870.4l-0.2-0.4c-0.3-0.8-0.5-1.5-0.6-1.9l-0.3-1l-0.1-0.8c0-0.3-0.1-0.6-0.2-0.9c-0.2-1-0.4-2.2-0.5-3.5c0-0.3,0-0.6-0.1-0.9c-0.1-0.9-0.1-1.8-0.1-2.7l2,0c0,0.9,0.1,1.8,0.1,2.6c0,0.3,0,0.6,0.1,0.9c0.1,1.3,0.3,2.3,0.5,3.3c0.1,0.3,0.1,0.6,0.2,0.9l0.1,0.7l0.2,0.9c0.1,0.4,0.3,0.9,0.6,1.6l0.2,0.4L86.8,870.4z" />
		<path class="st0" d="M948.4,852.3l-1.9-0.6c1.2-3.6,2.2-7.5,3.1-11.5l1.9,0.5C950.6,844.7,949.5,848.6,948.4,852.3z" />
		<path class="st0" d="M87.9,846.5l-2-0.4c0.2-1.1,0.5-2.1,0.8-3c0.1-0.2,0.1-0.5,0.2-0.7c0.7-2.6,1.7-5.1,2.8-7.8l1.8,0.8c-1.1,2.6-2,5.1-2.7,7.6c-0.1,0.3-0.1,0.5-0.2,0.8C88.4,844.5,88.2,845.5,87.9,846.5z" />
		<path class="st0" d="M434.6,836.4l0-2c3.8,0,7.8-0.1,12-0.2l0,2C442.4,836.4,438.4,836.4,434.6,836.4z" />
		<path class="st0" d="M422.6,836.4c-3.8-0.1-7.9-0.2-12-0.3l0.1-2c4.1,0.1,8.1,0.2,12,0.3L422.6,836.4z" />
		<path class="st0" d="M458.6,836l-0.1-2l1.1,0c3.7-0.1,7.3-0.3,10.9-0.5l0.1,2c-3.5,0.2-7.2,0.4-10.9,0.5L458.6,836z" />
		<path class="st0" d="M398.6,835.6c-4.1-0.2-8.1-0.5-12-0.8l0.1-2c3.9,0.3,7.9,0.5,11.9,0.7L398.6,835.6z" />
		<path class="st0" d="M482.6,834.7l-0.1-2c4-0.3,8-0.6,11.9-0.9l0.2,2C490.6,834.1,486.6,834.4,482.6,834.7z" />
		<path class="st0" d="M374.6,833.8c-4.1-0.4-8.1-0.8-11.9-1.3l0.2-2c3.9,0.5,7.8,0.9,11.9,1.3L374.6,833.8z" />
		<path class="st0" d="M506.5,832.6l-0.2-2c2.5-0.3,4.9-0.5,7.4-0.8c1.5-0.2,3-0.3,4.5-0.5l0.2,2c-1.5,0.2-3,0.4-4.5,0.5
			C511.4,832,509,832.3,506.5,832.6z" />
		<path class="st0" d="M350.8,830.8c-4.1-0.6-8.1-1.3-11.8-2.1l0.4-2c3.7,0.7,7.7,1.4,11.8,2.1L350.8,830.8z" />
		<path class="st0" d="M530.3,829.7l-0.3-2c4-0.5,7.9-1.1,11.8-1.8l0.3,2C538.3,828.5,534.3,829.1,530.3,829.7z" />
		<path class="st0" d="M953.9,828.9l-2-0.3c0.6-3.8,1.2-7.8,1.6-11.8l2,0.2C955.1,821,954.5,825,953.9,828.9z" />
		<path class="st0" d="M327.2,826.2c-0.9-0.2-1.8-0.4-2.6-0.6l-0.2,0c-3.1-0.8-6.1-1.6-8.8-2.4l0.6-1.9c2.7,0.8,5.7,1.6,8.7,2.4
			l-0.1,1l0.2-1c0.9,0.2,1.7,0.4,2.6,0.6L327.2,826.2z" />
		<path class="st0" d="M554,825.9l-0.4-2c4-0.7,7.9-1.5,11.8-2.2l0.4,2C561.9,824.5,558,825.2,554,825.9z" />
		<path class="st0" d="M97,824.8l-1.7-1c1.9-3.3,4.1-6.6,6.6-10.1l1.6,1.2C101,818.3,98.9,821.5,97,824.8z" />
		<path class="st0"
			d="M577.6,821.2l-0.4-2c3.9-0.9,7.8-1.8,11.6-2.7l0.5,1.9C585.4,819.4,581.5,820.3,577.6,821.2z" />
		<path class="st0" d="M304.2,819.2c-1.9-0.7-3.7-1.5-5.4-2.3c-1.9-0.8-3.8-1.7-5.6-2.7l0.9-1.8c1.7,0.9,3.6,1.8,5.5,2.6
			c1.7,0.8,3.5,1.5,5.4,2.3L304.2,819.2z" />
		<path class="st0"
			d="M600.9,815.4l-0.5-1.9c3.8-1.1,7.7-2.2,11.5-3.3l0.6,1.9C608.6,813.3,604.7,814.4,600.9,815.4z" />
		<path class="st0"
			d="M623.8,808.4l-0.6-1.9c4.1-1.4,7.7-2.7,11.2-4l0.7,1.9C631.6,805.7,627.9,807.1,623.8,808.4z" />
		<path class="st0" d="M283.2,807.1c-2.9-3-5-6.6-6.4-10.5l1.9-0.7c1.3,3.7,3.3,7,6,9.8L283.2,807.1z" />
		<path class="st0" d="M110.7,805.3l-1.5-1.3c2.2-2.7,4.6-5.5,7.1-8.4l0.7-0.8l1.5,1.3l-0.7,0.8
			C115.2,799.9,112.9,802.6,110.7,805.3z" />
		<path class="st0" d="M956.6,805l-2-0.1c0.1-0.9,0.1-1.8,0.2-2.8l0-0.2c0.2-2.9,0.4-5.9,0.5-9l2,0.1c-0.1,3-0.3,6.1-0.5,9l0,0.2
			C956.7,803.1,956.7,804,956.6,805z" />
		<path class="st0" d="M646.3,799.8l-0.8-1.8c3.7-1.6,7.4-3.3,10.9-5l0.9,1.8C653.7,796.5,650,798.2,646.3,799.8z" />
		<path class="st0" d="M667.9,789.2l-1-1.7c0.7-0.4,1.5-0.8,2.2-1.3c2.8-1.6,5.5-3.3,8-4.9l1.1,1.7c-2.6,1.7-5.3,3.4-8.1,5
			C669.4,788.4,668.6,788.8,667.9,789.2z" />
		<path class="st0" d="M126.6,787.5l-1.4-1.4c2.7-2.8,5.4-5.6,8.4-8.6l1.4,1.4C132,782,129.3,784.8,126.6,787.5z" />
		<path class="st0" d="M277.3,784.5l-2-0.2c0.4-4.2,1.6-8.1,3.6-11.8l1.7,1C278.7,777,277.6,780.6,277.3,784.5z" />
		<path class="st0" d="M957.5,781l-2,0c0-0.8,0-1.6,0-2.5c0-3.1,0-6.3-0.1-9.5l2,0c0.1,3.2,0.1,6.4,0.1,9.5
			C957.6,779.3,957.5,780.1,957.5,781z" />
		<path class="st0" d="M688,775.9l-1.2-1.6c1.5-1.2,3-2.4,4.4-3.7c1.5-1.4,3.1-2.8,4.5-4.2l1.4,1.4c-1.5,1.4-3,2.9-4.6,4.3
			C691,773.4,689.5,774.7,688,775.9z" />
		<path class="st0"
			d="M143.6,770.6l-1.4-1.4c2.9-2.9,5.8-5.5,8.7-8.3l1.4,1.5C149.4,765.1,146.5,767.8,143.6,770.6z" />
		<path class="st0" d="M287.9,764.4l-1.4-1.4c1.2-1.3,2.5-2.5,3.9-3.8c1.6-1.5,3.3-2.9,5-4.4l1.3,1.5c-1.7,1.4-3.4,2.8-5,4.3
			C290.4,762,289.1,763.2,287.9,764.4z" />
		<path class="st0" d="M705.1,758.9l-1.6-1.2l0.4-0.5c0.3-0.4,0.6-0.8,0.9-1.2l0.2-0.3c1.3-1.8,2.6-3.5,4-5.3
			c0.5-0.7,1.1-1.5,1.6-2.2l1.6,1.2c-0.5,0.7-1.1,1.5-1.6,2.2c-1.3,1.9-2.6,3.6-4,5.3l-0.2,0.3c-0.3,0.4-0.6,0.9-1,1.3L705.1,758.9z
			" />
		<path class="st0" d="M955.1,757c-0.1-3.8-0.3-7.7-0.5-12l2-0.1c0.2,4.2,0.4,8.1,0.5,12L955.1,757z" />
		<path class="st0"
			d="M160.9,754.1l-1.4-1.4l1.7-1.7c1.7-1.7,4-4.2,6.3-7l1.5,1.3c-2.4,3-4.7,5.5-6.5,7.2L160.9,754.1z" />
		<path class="st0"
			d="M306.2,749.3l-1.1-1.6c3.2-2.2,6.5-4.4,10.1-6.6l1.1,1.7C312.7,744.9,309.3,747.1,306.2,749.3z" />
		<path class="st0"
			d="M719.2,739.4l-1.6-1.1c2.3-3.3,4.6-6.7,6.7-9.9l1.7,1.1C723.8,732.7,721.6,736.1,719.2,739.4z" />
		<path class="st0"
			d="M326.5,736.7l-1-1.7c3.3-1.9,6.9-3.8,10.6-5.7l0.9,1.8C333.3,732.9,329.8,734.8,326.5,736.7z" />
		<path class="st0" d="M176.4,735.6l-1.6-1.1c2.4-3.4,4.6-6.8,6.4-10l1.7,1C181,728.7,178.8,732.1,176.4,735.6z" />
		<path class="st0" d="M953.8,733.1c-0.1-1.5-0.2-3-0.3-4.6c-0.2-2.4-0.4-4.9-0.6-7.3l2-0.2c0.2,2.4,0.4,4.9,0.6,7.3
			c0.1,1.6,0.2,3.1,0.3,4.6L953.8,733.1z" />
		<path class="st0"
			d="M347.7,725.8l-0.9-1.8c3.5-1.7,7.2-3.4,10.9-5.1l0.8,1.8C354.9,722.4,351.2,724.1,347.7,725.8z" />
		<path class="st0" d="M732.3,719.3l-1.7-1c2.1-3.5,4.1-7,6-10.3l1.8,1C736.5,712.3,734.5,715.8,732.3,719.3z" />
		<path class="st0"
			d="M369.5,715.9l-0.8-1.8c3.5-1.5,7.3-3.1,11.1-4.7l0.8,1.8C376.8,712.8,373.1,714.3,369.5,715.9z" />
		<path class="st0" d="M188.3,714.5l-1.9-0.7c1.6-4,2.4-7.4,2.4-10.1c0-0.4,0-0.8-0.1-1.1l2-0.2c0,0.4,0.1,0.9,0.1,1.3
			C190.9,706.7,190,710.3,188.3,714.5z" />
		<path class="st0" d="M105.2,709.7h-0.9c-2,0-3.8-0.2-5.4-0.3l0.2-2c1.6,0.2,3.3,0.3,5.2,0.3h0.9c1.8,0,3.7-0.1,5.7-0.2l0.2,2
			C109,709.6,107.1,709.7,105.2,709.7z" />
		<path class="st0" d="M952,709.2c-0.3-3.9-0.6-7.9-0.9-12l2-0.1c0.3,4,0.6,8,0.9,11.9L952,709.2z" />
		<path class="st0" d="M123,707.7l-0.4-2c3.5-0.7,7.2-1.5,11.6-2.7l0.5,1.9C130.3,706.2,126.6,707,123,707.7z" />
		<path class="st0"
			d="M391.6,706.7l-0.7-1.9c3.9-1.5,7.6-3,11.2-4.4l0.7,1.9C399.2,703.7,395.5,705.1,391.6,706.7z" />
		<path class="st0" d="M87,706.3c-0.3-0.1-0.6-0.3-0.9-0.4c-2.9-1.3-5.5-2.9-7.6-4.7l-0.3-0.3c-0.5-0.4-1-0.9-1.5-1.3l1.4-1.5
			c0.5,0.4,0.9,0.9,1.4,1.3l0.4,0.3c1.9,1.7,4.4,3.2,7.1,4.4c0.3,0.1,0.6,0.2,0.8,0.4L87,706.3z" />
		<path class="st0" d="M146.5,703.1l-0.5-1.9c2-0.5,4.2-1.1,6.6-1.7c1.6-0.4,3.3-0.9,5-1.3l0.5,1.9c-1.7,0.4-3.4,0.9-5,1.3
			C150.8,702,148.5,702.6,146.5,703.1z" />
		<path class="st0"
			d="M743.9,698.2l-1.8-0.9c1.8-3.7,3.4-7.3,4.9-10.9l1.8,0.8C747.4,690.8,745.7,694.5,743.9,698.2z" />
		<path class="st0" d="M414,698l-0.7-1.9c3.7-1.4,7.5-2.8,11.2-4.2l0.7,1.9C421.4,695.2,417.7,696.6,414,698z" />
		<path class="st0" d="M169.8,697.5l-0.4-2c3.9-0.7,7.2-1,9.9-1c0.8,0,1.6,0,2.3,0.1l-0.2,2c-0.7-0.1-1.4-0.1-2.1-0.1
			C176.7,696.5,173.6,696.8,169.8,697.5z" />
		<path class="st0" d="M69.3,689.9l-0.2-0.3c-0.7-1.3-1.3-2.5-1.8-3.5c-1-2.3-1.9-4.6-2.8-7.3l1.9-0.6c0.9,2.6,1.7,4.9,2.7,7.1
			c0.4,0.9,1,2.1,1.7,3.4l0.2,0.3L69.3,689.9z" />
		<path class="st0"
			d="M436.4,689.6l-0.7-1.9c3.8-1.4,7.5-2.7,11.3-4.1l0.7,1.9C443.9,686.9,440.2,688.3,436.4,689.6z" />
		<path class="st0" d="M950.3,685.3c-0.1-1.1-0.1-2.2-0.1-3.3l0-1.2c-0.1-2-0.2-3.9-0.3-5.8l-0.1-1.8l2-0.1l0.1,1.7
			c0.1,1.9,0.2,3.8,0.3,5.7l0.1,1.3c0,1.1,0.1,2.1,0.1,3.3L950.3,685.3z" />
		<polygon class="st0" points="458.9,681.5 458.3,679.6 469.5,675.5 470.2,677.4 		" />
		<path class="st0" d="M753.2,676l-1.9-0.6c1.3-3.9,2.5-7.7,3.4-11.4l1.9,0.5C755.7,668.2,754.5,672.1,753.2,676z" />
		<path class="st0"
			d="M481.5,673.3l-0.7-1.9c3.8-1.4,7.6-2.8,11.3-4.1l0.7,1.9C489,670.6,485.3,671.9,481.5,673.3z" />
		<path class="st0" d="M61.7,666.9c-0.5-3.2-0.8-5.8-1-8c-0.1-1.3-0.2-2.7-0.2-4l2-0.1c0.1,1.3,0.1,2.6,0.2,3.9
			c0.2,2.2,0.5,4.7,1,7.9L61.7,666.9z" />
		<path class="st0" d="M504,665.1l-0.7-1.9c1.8-0.7,3.6-1.4,5.5-2c1.8-0.7,3.7-1.4,5.8-2.2l0.7,1.9c-2,0.8-3.9,1.5-5.8,2.2
			C507.6,663.7,505.8,664.4,504,665.1z" />
		<path class="st0" d="M948.6,661.5l-0.3-2.8c-0.2-1.3-0.3-2.5-0.4-3.4c0-0.1-0.5-3.1-0.9-5.7l2-0.3c0.4,2.6,0.9,5.6,0.9,5.7
			c0.2,0.9,0.3,2.1,0.4,3.4l0.3,2.8L948.6,661.5z" />
		<path class="st0" d="M526.4,656.5l-0.7-1.9c3.8-1.5,7.6-3,11.1-4.5l0.8,1.8C534,653.4,530.3,654.9,526.4,656.5z" />
		<path class="st0" d="M759,652.6l-2-0.3c0.6-4.1,0.9-8.1,1-11.8l2,0.1C759.9,644.4,759.6,648.4,759,652.6z" />
		<path class="st0" d="M548.5,647.1l-0.8-1.8c4.4-2,7.9-3.6,10.8-5.1l0.9,1.8C556.4,643.5,553,645.1,548.5,647.1z" />
		<path class="st0" d="M62.6,642.9l-2-0.1c0.2-3.8,0.6-7.8,1.1-12l2,0.2C63.2,635.2,62.8,639.1,62.6,642.9z" />
		<path class="st0" d="M944.8,637.8c-0.1-0.6-0.2-1.2-0.3-1.7l-0.8-4l-1-4c-0.2-0.7-0.3-1.3-0.5-2l1.9-0.5c0.2,0.6,0.3,1.3,0.5,2
			l1,4l0.8,4c0.1,0.5,0.2,1.1,0.3,1.7L944.8,637.8z" />
		<path class="st0" d="M569.9,636l-1.1-1.7c2.6-1.6,4.5-3,6.3-4.4l0.3-0.2c0.9-0.7,1.8-1.4,2.9-2.4l1.4,1.5c-1.1,1.1-2.1,1.9-3,2.6
			l-0.3,0.2C574.5,633,572.5,634.4,569.9,636z" />
		<path class="st0" d="M757.5,628.7c-0.1-0.5-0.1-0.9-0.2-1.4c-0.5-3.5-1.2-6.9-2-10.2l1.9-0.5c0.9,3.4,1.6,6.9,2.1,10.5
			c0.1,0.5,0.1,1,0.2,1.4L757.5,628.7z" />
		<path class="st0" d="M65.5,619.3l-2-0.4c0.7-3.9,1.5-7.8,2.4-11.8l2,0.4C67,611.5,66.2,615.4,65.5,619.3z" />
		<path class="st0" d="M585.8,617.9l-2-0.1l0-0.4c0-0.2,0-0.5,0-0.8c0-0.2,0-0.4-0.1-0.6l-0.3-1.2c-0.1-0.4-0.3-1-0.4-1.3
			c-0.1-0.1-0.1-0.3-0.2-0.5l-0.7-1.4c-0.4-0.7-0.8-1.2-1.2-1.6l-0.2-0.3c-0.1-0.2-0.9-0.9-1.2-1.2l-0.4-0.4l1.3-1.5l0.1,0.1
			l0.4,0.4c0.7,0.7,1.2,1.2,1.4,1.4l0.2,0.3c0.4,0.5,0.8,1,1.3,1.9l0.7,1.5c0.1,0.2,0.2,0.5,0.3,0.7c0.1,0.4,0.3,0.9,0.4,1.3
			l0.1,0.5l0.2,1.1c0,0.3,0.1,0.5,0.1,0.8c0,0.3,0,0.6,0,0.9L585.8,617.9z" />
		<path class="st0" d="M939.2,614.6c-1.1-3.8-2.2-7.7-3.4-11.5l1.9-0.6c1.2,3.8,2.3,7.7,3.4,11.5L939.2,614.6z" />
		<path class="st0" d="M397.7,608.9h-1.2c-0.5,0-1,0-1.5,0l-1.4-0.1c-1.1,0-2.2-0.1-3.4-0.2l0.2-2c1,0.1,2.1,0.2,3.2,0.2l1.4,0.1
			c0.5,0,0.9,0,1.4,0h1.2c1.4,0,3,0,4.6-0.1l0.1,2C400.8,608.9,399.2,608.9,397.7,608.9z" />
		<path class="st0"
			d="M414.4,607.8l-0.2-2c4.1-0.4,8-0.8,11.3-1.1l0.6-0.1l0.2,2l-0.6,0.1C422.4,607,418.5,607.4,414.4,607.8z" />
		<path class="st0" d="M751.4,605.9c-0.6-1.3-1.2-2.6-1.8-3.9c-1.1-2.2-2.3-4.4-3.7-6.6l1.7-1.1c1.4,2.2,2.7,4.5,3.8,6.7
			c0.7,1.3,1.3,2.7,1.9,4L751.4,605.9z" />
		<path class="st0" d="M378.4,605.5c-1.2-0.6-2.4-1.2-3.5-1.9c-0.6-0.4-1.3-0.8-1.9-1.3c-1.5-1-2.9-2.2-4.3-3.6l-0.3-0.3l1.4-1.4
			l0.3,0.3c1.3,1.3,2.6,2.4,4,3.4c0.6,0.4,1.2,0.8,1.8,1.2c1,0.7,2.1,1.3,3.3,1.8L378.4,605.5z" />
		<path class="st0" d="M438.3,605.3l-0.2-2l1.3-0.1c3.2-0.3,6.4-0.7,9.7-1.1l0.9-0.1l0.2,2l-0.9,0.1c-3.3,0.4-6.6,0.7-9.7,1.1
			L438.3,605.3z" />
		<path class="st0" d="M568.9,602.9c-1.6-0.6-3.4-1-5.4-1.5c-2.2-0.5-4.2-0.8-6.1-1.1l0.3-2c2,0.3,4,0.7,6.2,1.2
			c2.1,0.5,3.9,0.9,5.6,1.5L568.9,602.9z" />
		<path class="st0"
			d="M462.1,602.7l-0.2-2l0.2,0c4.2-0.4,8.1-0.8,11.8-1.2l0.2,2c-3.6,0.3-7.5,0.7-11.7,1.2L462.1,602.7z" />
		<path class="st0" d="M485.9,600.5l-0.2-2c4.3-0.4,8.2-0.7,12-0.9l0.1,2C494.1,599.8,490.2,600.1,485.9,600.5z" />
		<path class="st0" d="M545.6,599c-3.1-0.2-6.2-0.4-9.6-0.4l-0.3,0c-0.6,0-1.3,0-1.9-0.1l0-2c0.7,0,1.3,0,2,0.1l0.3,0
			c3.5,0.1,6.6,0.2,9.7,0.5L545.6,599z" />
		<path class="st0" d="M509.8,598.9l-0.1-2c4.1-0.2,8.1-0.3,12-0.4l0,2C517.8,598.6,513.9,598.7,509.8,598.9z" />
		<path class="st0"
			d="M70.6,595.9l-1.9-0.5c0.8-3,1.7-6.2,2.6-9.4l0.6-2.1l1.9,0.6l-0.6,2.1C72.3,589.8,71.4,592.9,70.6,595.9z" />
		<path class="st0" d="M932.1,591.8c-1.3-3.8-2.6-7.5-4-11.3l1.9-0.7c1.4,3.7,2.8,7.5,4,11.3L932.1,591.8z" />
		<path class="st0" d="M361,588.7c-0.2-0.4-0.5-0.8-0.7-1.2l-0.8-1.3c-1.4-2.2-2.9-4.7-4.7-7.8l1.7-1c1.8,3.1,3.2,5.5,4.6,7.7
			l0.9,1.4c0.2,0.4,0.4,0.8,0.7,1.1L361,588.7z" />
		<path class="st0" d="M738.9,585.8c-1.6-1.9-3.3-3.8-5-5.7l-0.2-0.2c-0.9-0.9-1.8-1.9-2.8-2.8l1.4-1.4c0.9,0.9,1.9,1.9,2.8,2.8
			l0.2,0.3c1.8,1.9,3.5,3.9,5.1,5.8L738.9,585.8z" />
		<path class="st0" d="M77.3,573l-1.9-0.6c1.2-3.7,2.3-7.5,3.6-11.4l1.9,0.6C79.6,565.5,78.4,569.2,77.3,573z" />
		<path class="st0" d="M923.7,569.4c-1.5-3.7-3.1-7.4-4.7-11l1.8-0.8c1.6,3.6,3.2,7.3,4.7,11.1L923.7,569.4z" />
		<path class="st0"
			d="M722.1,569.1c-2.6-2.2-5.7-4.4-9-6.7l-0.6-0.4l1.1-1.7l0.6,0.4c3.4,2.3,6.4,4.6,9.1,6.8L722.1,569.1z" />
		<path class="st0" d="M349,567.9c-1.9-3.4-3.8-6.9-5.8-10.5l1.8-1c2,3.5,3.9,7.1,5.8,10.5L349,567.9z" />
		<path class="st0" d="M702.5,555.6c-3.3-2-6.8-4-10.4-5.9l0.9-1.8c3.6,1.9,7.1,3.9,10.5,5.9L702.5,555.6z" />
		<path class="st0" d="M84.7,550.2l-1.9-0.6c1.3-3.7,2.6-7.5,3.9-11.3l1.9,0.7C87.3,542.7,85.9,546.5,84.7,550.2z" />
		<path class="st0" d="M914.1,547.5c-1.7-3.6-3.5-7.2-5.3-10.7l1.8-0.9c1.8,3.5,3.6,7.2,5.3,10.8L914.1,547.5z" />
		<path class="st0" d="M337.3,547c-2-3.4-4-6.9-6.1-10.3l1.7-1c2.1,3.4,4.1,6.9,6.1,10.3L337.3,547z" />
		<path class="st0" d="M681.4,544.4c-3.5-1.6-7.2-3.3-10.9-4.9l0.8-1.8c3.8,1.6,7.5,3.2,11,4.9L681.4,544.4z" />
		<path class="st0" d="M659.4,535.1c-3.7-1.4-7.4-2.8-11.2-4.1l0.7-1.9c3.8,1.3,7.6,2.7,11.3,4.1L659.4,535.1z" />
		<rect x="87.6" y="520.6" transform="matrix(0.332 -0.9433 0.9433 0.332 -429.4921 436.7002)" class="st0"
			width="12" height="2" />
		<path class="st0" d="M636.8,527.2c-3.7-1.2-7.6-2.4-11.4-3.5l0.6-1.9c3.9,1.1,7.7,2.3,11.5,3.5L636.8,527.2z" />
		<path class="st0" d="M324.9,526.5c-0.9-1.4-1.8-2.8-2.6-4.2l-0.1-0.1c-1.2-1.9-2.5-3.8-3.8-5.8l1.7-1.1c1.3,2,2.6,3.9,3.8,5.8
			l0.1,0.1c0.9,1.4,1.8,2.8,2.6,4.2L324.9,526.5z" />
		<path class="st0" d="M903.3,526.2c-1.9-3.5-3.9-7-5.8-10.4l1.7-1c2,3.4,3.9,6.9,5.9,10.5L903.3,526.2z" />
		<polygon class="st0"
			points="613.9,520.5 613.8,520.5 607.4,518.8 602.3,517.3 602.9,515.4 609.5,517.3 614.4,518.6 		" />
		<path class="st0" d="M590.9,513.5c-0.8-0.3-1.6-0.6-2.3-0.9c-0.4-0.2-0.8-0.3-1.2-0.5c-2.5-0.9-5.2-2.1-7.7-3.3l0.8-1.8
			c2.4,1.1,5,2.3,7.5,3.2c0.4,0.2,0.8,0.3,1.2,0.5c0.7,0.3,1.5,0.6,2.2,0.9L590.9,513.5z" />
		<path class="st0" d="M311.8,506.5c-2.2-3.1-4.5-6.4-6.9-9.8l1.6-1.2c2.4,3.4,4.7,6.7,6.9,9.8L311.8,506.5z" />
		<path class="st0" d="M891.3,505.5c-2.1-3.4-4.2-6.8-6.4-10.1l1.7-1.1c2.2,3.3,4.3,6.7,6.4,10.1L891.3,505.5z" />
		<path class="st0"
			d="M100.5,504.9l-1.9-0.7c1.3-3.8,2.6-7.6,3.9-11.3l1.9,0.6C103,497.4,101.8,501.1,100.5,504.9z" />
		<path class="st0" d="M569,503.4c-0.9-0.5-1.8-1-2.6-1.4l-2.8-1.6l-2.8-1.6l-2.2-1.4l1.1-1.7l2.1,1.4l2.8,1.6l2.8,1.6
			c0.8,0.4,1.7,0.9,2.6,1.4L569,503.4z" />
		<path class="st0" d="M548.6,490.7l-2.1-1.4L541,485c-0.7-0.5-1.4-1.1-2-1.6l1.3-1.6c0.7,0.5,1.3,1.1,2,1.6l5.5,4.2l2,1.4
			L548.6,490.7z" />
		<polygon class="st0" points="297.9,487 293.2,480.7 290.7,477.4 292.3,476.2 294.8,479.5 299.5,485.8 		" />
		<polygon class="st0" points="878.2,485.5 871.2,475.8 872.9,474.6 874.7,477.1 879.8,484.4 		" />
		<path class="st0"
			d="M108,482.2l-1.9-0.6l0.3-0.9c1.2-3.7,2.2-7.2,3.2-10.6l1.9,0.6c-1,3.3-2.1,6.9-3.2,10.6L108,482.2z" />
		<path class="st0" d="M529.8,475.5c-2.9-2.6-5.8-5.4-8.7-8.3l1.4-1.4c2.8,2.9,5.7,5.7,8.6,8.3L529.8,475.5z" />
		<polygon class="st0" points="283.4,468 275.9,458.7 277.4,457.4 280.6,461.3 284.9,466.8 		" />
		<path class="st0" d="M864.3,465.9c-2.6-3.9-4.7-7.1-6.5-10.1l1.7-1c1.8,3,3.8,6.2,6.4,10L864.3,465.9z" />
		<path class="st0" d="M114.7,459.1l-1.9-0.5c1.1-4.1,1.9-7.9,2.7-11.6l2,0.4C116.7,451.2,115.8,455,114.7,459.1z" />
		<path class="st0" d="M513,458.4c-2.6-3-5.2-6-7.8-9.2l1.6-1.3c2.5,3.1,5.1,6.2,7.7,9.1L513,458.4z" />
		<path class="st0" d="M700.4,452.8c-3.7-0.2-7.6-0.8-12-1.8l0.5-1.9c4.3,1,8.1,1.6,11.7,1.8L700.4,452.8z" />
		<path class="st0" d="M712.6,451.9l-0.4-2c2.3-0.5,4.5-1.2,6.7-2.2c1.4-0.6,2.7-1.4,4-2.2l1.1,1.7c-1.4,0.9-2.8,1.7-4.3,2.3
			C717.4,450.6,715,451.4,712.6,451.9z" />
		<polygon class="st0" points="268.2,449.4 267.3,448.4 260.5,440.3 262,439 269.8,448.2 		" />
		<path class="st0" d="M676.8,447.5c-3.6-1.3-7.4-2.8-11.2-4.5l0.8-1.8c3.8,1.7,7.5,3.2,11,4.4L676.8,447.5z" />
		<path class="st0" d="M852,445.3c-1.9-3.8-3.6-7.5-5-11l1.9-0.7c1.3,3.5,3,7.1,4.9,10.8L852,445.3z" />
		<path class="st0" d="M497.9,439.6c-2.3-3.1-4.6-6.4-6.9-9.9l1.7-1.1c2.3,3.4,4.6,6.7,6.8,9.8L497.9,439.6z" />
		<path class="st0" d="M732.8,438.8l-1.6-1.2c0.7-1,1.4-2,2.1-3c0.9-1.5,2.3-4,3.6-7.2l1.9,0.8c-1.3,3.3-2.8,5.9-3.8,7.5
			C734.3,436.6,733.6,437.7,732.8,438.8z" />
		<path class="st0" d="M654.8,437.7c-3.4-1.8-6.9-3.6-10.6-5.7l1-1.7c3.6,2.1,7.1,3.9,10.5,5.7L654.8,437.7z" />
		<path class="st0" d="M119.6,435.6l-2-0.3c0.4-2.9,0.8-5.8,1-8.4c0.1-1.2,0.2-2.3,0.2-3.4l2,0.1c-0.1,1.2-0.1,2.3-0.3,3.5
			C120.4,429.7,120.1,432.6,119.6,435.6z" />
		<path class="st0" d="M252.7,431.2c-2.7-3.2-5.2-6.3-7.6-9.3l1.6-1.2c2.3,3,4.9,6.1,7.5,9.3L252.7,431.2z" />
		<path class="st0"
			d="M633.9,425.9l-1.5-0.9c-2.8-1.7-5.6-3.4-8.7-5.3l1.1-1.7c3.1,1.9,5.9,3.6,8.7,5.3l1.5,0.9L633.9,425.9z" />
		<path class="st0" d="M843.4,422.7c-0.1-0.6-0.2-1.1-0.4-1.7c-0.1-0.7-0.3-1.4-0.3-2.2c0-0.2-0.1-0.4-0.1-0.7l0-0.3
			c-0.2-1.8-0.6-4.3-0.6-7.3l2,0c0,2.9,0.3,5.3,0.6,7.1l0,0.3c0,0.2,0.1,0.5,0.1,0.7c0.1,0.7,0.2,1.3,0.3,2c0.1,0.5,0.2,1.1,0.3,1.7
			L843.4,422.7z" />
		<path class="st0" d="M484.6,419.6c-2-3.3-4-6.8-6-10.4l1.7-1c2,3.6,4,7.1,6,10.3L484.6,419.6z" />
		<path class="st0" d="M742.5,416.5l-2-0.4c0.1-0.5,0.2-0.9,0.3-1.4l0.1-0.3c0.1-0.4,0.2-0.8,0.3-1.1c0.2-0.9,0.4-2.1,0.6-3.6
			c0-0.1,0.1-0.9,0.2-1.1l0.6-4.2l2,0.3l-0.6,4.2c0,0.2-0.2,1.1-0.2,1.1c-0.2,1.5-0.4,2.8-0.6,3.7c-0.1,0.4-0.2,0.8-0.3,1.2
			l-0.1,0.3C742.7,415.5,742.6,416,742.5,416.5z" />
		<path class="st0"
			d="M613.5,413.2c-3.3-2.1-6.5-4.1-9.8-6.1l-0.4-0.2l1.1-1.7l0.4,0.2c3.3,2,6.6,4,9.8,6.1L613.5,413.2z" />
		<path class="st0" d="M237.9,412.2c-1.8-2.5-3.5-4.9-5-7.4c-0.6-0.9-1.1-1.7-1.7-2.6l1.7-1.1c0.6,0.9,1.1,1.7,1.7,2.6
			c1.6,2.4,3.2,4.8,5,7.3L237.9,412.2z" />
		<path class="st0" d="M118.8,411.6c-0.1-1.1-0.2-2.2-0.4-3.3c0-0.2-0.1-0.5-0.1-0.7l-0.1-0.6c-0.1-0.5-0.2-1-0.3-1.6l-0.1-0.7
			c-0.1-0.7-0.3-1.4-0.4-2.1l-0.4-1.6c-0.1-0.3-0.2-0.6-0.3-1l1.9-0.6c0.1,0.3,0.2,0.7,0.3,1l0.4,1.6c0.2,0.7,0.3,1.5,0.5,2.3
			l0.1,0.7c0.1,0.6,0.2,1.2,0.3,1.7l0.1,0.6c0,0.3,0.1,0.5,0.1,0.8c0.2,1.1,0.3,2.2,0.4,3.4L118.8,411.6z" />
		<path class="st0" d="M844.9,398.8l-2-0.3c0.3-2.1,0.8-4.2,1.3-6.4c0.4-1.6,0.9-3.4,1.5-5.4l1.9,0.6c-0.6,2-1,3.7-1.4,5.3
			C845.6,394.7,845.2,396.8,844.9,398.8z" />
		<path class="st0" d="M472.9,398.6c-1.8-3.5-3.6-7.1-5.3-10.8l1.8-0.9c1.7,3.6,3.5,7.2,5.3,10.7L472.9,398.6z" />
		<path class="st0" d="M594.5,398.4c-2.3-3.4-3.9-7.4-4.6-11.4l2-0.3c0.6,3.8,2.1,7.5,4.3,10.7L594.5,398.4z" />
		<path class="st0" d="M746.3,392.8l-2-0.3c0.6-3.8,1.3-7.7,2.1-11.8l2,0.4C747.6,385.2,746.9,389,746.3,392.8z" />
		<path class="st0" d="M225.1,391.9c-0.5-1-1.1-1.9-1.6-2.9l-0.2-0.4c-1.4-2.7-2.5-5.1-3.6-7.5l1.8-0.8c1.1,2.3,2.2,4.7,3.6,7.4
			l0.2,0.4c0.5,1,1,1.9,1.6,2.9L225.1,391.9z" />
		<path class="st0" d="M113.1,388.6c-0.4-1.2-0.8-2.3-1.1-3.4c-0.1-0.4-0.3-0.8-0.4-1.1c-0.1-0.2-0.4-1.3-0.4-1.3
			c-0.1-0.3-0.2-0.5-0.2-0.8c-0.5-1.6-1.1-3.2-1.6-4.8l1.9-0.7c0.6,1.6,1.1,3.2,1.7,4.8c0.1,0.3,0.2,0.6,0.3,0.8c0,0,0.3,1,0.3,1.2
			c0.1,0.3,0.3,0.7,0.4,1.1c0.4,1.2,0.8,2.3,1.1,3.5L113.1,388.6z" />
		<path class="st0" d="M462.6,376.9l-0.1-0.3c-0.1-0.2-0.2-0.4-0.2-0.5c-1.4-3-2.7-6.3-4-9.5l-0.3-0.7l1.9-0.8l0.3,0.7
			c1.3,3.1,2.6,6.4,3.9,9.4c0.1,0.2,0.2,0.4,0.3,0.6l0.1,0.3L462.6,376.9z" />
		<polygon class="st0" points="851.2,375.9 849.3,375.3 853.1,363.9 855,364.5 854.4,366.3 		" />
		<path class="st0" d="M592.3,375.1l-1.9-0.5c0.4-1.6,0.8-2.8,1.1-3.5c0.1-0.3,0.2-0.6,0.3-0.8c0.8-2.3,1.8-4.6,3-7.1l1.8,0.9
			c-1.1,2.4-2.1,4.7-2.9,6.9c-0.1,0.2-0.2,0.5-0.2,0.7l0,0.1C593.1,372.5,592.7,373.6,592.3,375.1z" />
		<path class="st0" d="M215.2,369.9c-1.3-3.9-2.5-7.8-3.3-11.6l2-0.4c0.8,3.7,1.9,7.6,3.2,11.4L215.2,369.9z" />
		<path class="st0" d="M750.8,369.3l-2-0.4c0.4-1.8,0.8-3.7,1.2-5.6c0.5-2.1,0.9-4.1,1.4-6.1l1.9,0.4c-0.5,2-0.9,4.1-1.4,6.1
			C751.5,365.7,751.1,367.5,750.8,369.3z" />
		<path class="st0" d="M105.3,366c-1.4-3.7-2.8-7.5-4.2-11.2l1.9-0.7c1.4,3.7,2.9,7.5,4.2,11.2L105.3,366z" />
		<path class="st0" d="M453.7,354.6c-0.3-0.9-0.7-1.8-1-2.7c-0.1-0.2-0.1-0.4-0.2-0.6c-1-2.7-1.9-5.4-2.8-8l1.9-0.6
			c0.9,2.7,1.8,5.3,2.8,8c0.1,0.2,0.1,0.4,0.2,0.6c0.3,0.9,0.6,1.8,0.9,2.7L453.7,354.6z" />
		<path class="st0" d="M602.1,353.7l-1.7-1c2-3.3,4.2-6.7,6.6-10.1l1.6,1.1C606.3,347.1,604.1,350.5,602.1,353.7z" />
		<path class="st0" d="M858.4,353l-1.9-0.5c0.4-1.5,0.8-2.9,1.1-4.3c0.1-0.4,0.2-0.8,0.3-1.2c0.1-0.4,0.2-0.8,0.3-1.3
			c0.2-0.6,0.4-1.3,0.6-1.9l0.2-0.6c0.2-0.6,0.4-1.2,0.6-1.7c0.1-0.2,0.2-0.4,0.3-0.7l1.9,0.7c-0.1,0.2-0.2,0.4-0.2,0.6
			c-0.2,0.5-0.4,1-0.6,1.6l-0.2,0.6c-0.2,0.6-0.4,1.2-0.5,1.8c-0.1,0.4-0.2,0.8-0.3,1.3c-0.1,0.4-0.2,0.8-0.3,1.2
			C859.2,350,858.9,351.5,858.4,353z" />
		<path class="st0" d="M210,346.3c-0.2-2.2-0.3-4.4-0.3-6.5c0-1.6,0.1-3.2,0.2-4.7c0-0.3,0-0.6,0.1-0.9l2,0.1c0,0.3,0,0.6-0.1,0.9
			c-0.1,1.5-0.1,3-0.1,4.6c0,2.1,0.1,4.2,0.3,6.3L210,346.3z" />
		<path class="st0" d="M756.1,346l-1.9-0.5c0.9-3.9,1.9-7.8,2.9-11.6l1.9,0.5C758,338.2,757,342.1,756.1,346z" />
		<path class="st0" d="M96.7,343.7c-0.7-1.7-1.4-3.4-2.1-5.1c-0.8-2-1.6-4-2.5-6l1.8-0.8c0.8,2,1.7,4,2.5,6c0.7,1.7,1.4,3.4,2.1,5.1
			L96.7,343.7z" />
		<path class="st0" d="M615.7,334.1l-1.6-1.2c2.3-3,4.8-6,7.5-9.4l1.5,1.3C620.4,328.1,618,331.1,615.7,334.1z" />
		<path class="st0" d="M446,331.8c-0.7-2.1-1.3-4.2-1.9-6.3c-0.5-1.7-1-3.5-1.5-5.2l1.9-0.5c0.5,1.7,1,3.5,1.5,5.2
			c0.6,2.1,1.2,4.2,1.9,6.2L446,331.8z" />
		<path class="st0" d="M867.1,331.1l-1.7-1c2-3.3,4.3-6.6,6.9-9.9l1.6,1.2C871.3,324.6,869,327.9,867.1,331.1z" />
		<path class="st0" d="M762,322.8l-1.9-0.5c1-3.8,2.1-7.7,3.1-11.6l1.9,0.5C764.1,315.1,763.1,318.9,762,322.8z" />
		<path class="st0"
			d="M213.9,322.7l-1.9-0.5c1-3.9,2.4-7.7,4.1-11.4l1.8,0.8C216.2,315.2,214.9,318.9,213.9,322.7z" />
		<path class="st0" d="M87.5,321.6c-1.5-3.5-3.1-7.2-4.7-11l1.8-0.8c1.7,3.8,3.2,7.5,4.7,11L87.5,321.6z" />
		<path class="st0" d="M631.1,315.8l-1.5-1.3l1.3-1.5c0.1-0.1,2.9-3.2,2.9-3.2l0.2-0.3l2-4.6l1.8,0.8l-2.1,4.9l-0.5,0.5
			c0,0-2.8,3-2.9,3.1L631.1,315.8z" />
		<path class="st0"
			d="M881.6,312.3l-1.5-1.4c2.6-2.8,5.5-5.6,8.6-8.5l1.4,1.5C887,306.7,884.2,309.6,881.6,312.3z" />
		<path class="st0" d="M439.5,308.7c-1-3.9-2-7.8-2.9-11.7l1.9-0.5c0.9,3.9,1.9,7.8,2.9,11.6L439.5,308.7z" />
		<path class="st0" d="M223.7,301.3l-1.6-1.1c0.1-0.2,0.2-0.3,0.3-0.5c2.2-3,4.6-6,7.4-8.9l1.5,1.4c-2.7,2.8-5.1,5.7-7.2,8.7
			C223.9,301.1,223.8,301.2,223.7,301.3z" />
		<path class="st0"
			d="M768.4,299.7l-1.9-0.6c1.1-3.8,2.2-7.6,3.3-11.5l1.9,0.6C770.6,292.1,769.5,295.9,768.4,299.7z" />
		<path class="st0" d="M77.9,299.6l-0.3-0.7c-0.8-1.8-1.6-3.5-2.3-5.3c0-0.1-1.2-2.8-1.2-2.8l-1-2.3l1.8-0.8l1,2.3
			c0,0,1.2,2.7,1.2,2.8c0.8,1.7,1.5,3.5,2.3,5.2l0.3,0.7L77.9,299.6z" />
		<path class="st0" d="M899,296l-1.3-1.5c1.8-1.5,3.7-3.1,5.6-4.6c1.2-1,2.5-2,3.7-3l1.2,1.6c-1.2,1-2.5,2-3.7,2.9
			C902.7,293,900.8,294.5,899,296z" />
		<polygon class="st0" points="642.4,294.6 640.5,293.9 644.7,282.7 646.6,283.3 645.2,287 		" />
		<path class="st0" d="M434,285.3c-0.8-3.9-1.6-7.9-2.3-11.8l2-0.4c0.7,3.9,1.5,7.8,2.3,11.7L434,285.3z" />
		<path class="st0"
			d="M239.9,284.1l-1.3-1.5c3.1-2.5,6.3-4.9,9.7-7.2l1.1,1.7C246.1,279.3,242.9,281.6,239.9,284.1z" />
		<path class="st0" d="M917.8,281.3l-1.2-1.6c3-2.2,6.2-4.5,9.7-7l1.2,1.6C924,276.8,920.8,279.1,917.8,281.3z" />
		<path class="st0" d="M68.3,277.6c-1-2.2-1.9-4.4-2.9-6.6c0,0-0.8-2.1-0.9-2.3c-0.3-0.7-0.6-1.4-0.9-2.1l1.8-0.9
			c0.3,0.8,0.6,1.5,0.9,2.2c0.1,0.1,0.9,2.3,0.9,2.3c0.9,2.2,1.9,4.4,2.8,6.6L68.3,277.6z" />
		<path class="st0"
			d="M775.2,276.7l-1.9-0.6c1.2-3.8,2.3-7.6,3.5-11.5l1.9,0.6C777.5,269.1,776.3,273,775.2,276.7z" />
		<path class="st0" d="M650.6,272l-1.9-0.7c1.3-3.8,2.6-7.6,3.8-11.3l1.9,0.6C653.2,264.4,651.9,268.2,650.6,272z" />
		<path class="st0" d="M259.7,271l-0.9-1.8c3.5-1.8,7.1-3.6,10.9-5.2l0.8,1.8C266.7,267.4,263.1,269.2,259.7,271z" />
		<path class="st0"
			d="M937.3,267.3l-1.2-1.6l3.2-2.3c2.1-1.5,4.3-3.1,6.5-4.7l1.2,1.6c-2.2,1.6-4.4,3.1-6.5,4.7L937.3,267.3z" />
		<path class="st0" d="M429.6,261.7c-0.6-3.9-1.3-7.9-1.8-11.9l2-0.3c0.6,3.9,1.2,7.9,1.8,11.8L429.6,261.7z" />
		<path class="st0" d="M281.5,261.5l-0.7-1.9c0.7-0.3,1.5-0.5,2.2-0.8c3.2-1.1,6.3-2,9.3-2.7l0.5,1.9c-3,0.8-6,1.7-9.2,2.7
			C283,261,282.2,261.3,281.5,261.5z" />
		<path class="st0" d="M304.5,255.6l-0.3-2c1.5-0.3,3.1-0.5,4.6-0.7c1.4-0.3,2.9-0.4,4.3-0.5c0,0,2.3-0.2,2.4-0.2
			c0.2,0,0.4,0,0.6-0.1l0.2,2c-0.3,0-0.5,0.1-0.7,0.1c-0.1,0-2.4,0.2-2.4,0.2c-1.4,0.1-2.7,0.2-4,0.4l-0.2,0
			C307.5,255.1,306,255.3,304.5,255.6z" />
		<path class="st0" d="M59.4,255.2c-0.1-0.4-0.2-0.7-0.3-1.1c-0.1-0.4-0.1-0.7-0.2-1c-0.5-2.5-0.8-5.4-1.1-9.2l0-0.7l2-0.1l0,0.6
			c0.3,3.7,0.6,6.5,1.1,8.9c0.1,0.3,0.1,0.7,0.2,1c0.1,0.3,0.2,0.7,0.2,1.1L59.4,255.2z" />
		<path class="st0"
			d="M782.3,253.9l-1.9-0.6c1.2-3.9,2.5-7.7,3.7-11.4l1.9,0.6C784.8,246.2,783.6,250,782.3,253.9z" />
		<path class="st0" d="M956.7,253.1l-0.7-0.8l-0.6-0.8l0.3-0.2c0.9-0.7,1.9-1.5,2.9-2.4c0.5-0.5,1-1,1.5-1.4l0.2-0.2
			c0.8-0.7,1.4-1.3,1.9-1.8c0.8-0.8,1.4-1.4,1.8-1.9l1.5,1.3c-0.5,0.6-1.1,1.2-1.9,2c-0.5,0.5-1.2,1.1-2,1.9l-0.2,0.2
			c-0.5,0.5-1,0.9-1.6,1.4c-1.1,0.9-2.1,1.7-3,2.5L956.7,253.1z" />
		<path class="st0" d="M328.2,250.9l-0.8-1.8c2.8-1.3,5.5-2.9,8.4-4.9c0.5-0.4,1.1-0.8,1.6-1.2l1.2,1.6c-0.5,0.4-1.1,0.9-1.7,1.3
			C333.9,247.9,331.1,249.6,328.2,250.9z" />
		<path class="st0" d="M658,249.2l-1.9-0.6c1.2-3.9,2.3-7.7,3.4-11.5l1.9,0.5C660.4,241.5,659.2,245.3,658,249.2z" />
		<path class="st0" d="M426.2,238c-0.5-3.9-0.9-8-1.3-11.9l2-0.2c0.4,4,0.8,8,1.3,11.9L426.2,238z" />
		<path class="st0" d="M347.2,235.9l-1.6-1.2c0.9-1.1,1.7-2.3,2.4-3.4c1.4-2.1,2.5-4.3,3.5-6.6l1.8,0.8c-1,2.4-2.2,4.7-3.7,6.9
			C348.9,233.5,348.1,234.7,347.2,235.9z" />
		<path class="st0" d="M966.1,233.7c-0.1-0.2-0.1-0.3-0.2-0.5l-0.6-1.5c-1.4-3-2.7-5.5-4.4-8.4l-0.1-0.2l1.7-1l0.1,0.2
			c1.7,2.9,3,5.5,4.4,8.6l0.8,2.1L966.1,233.7z" />
		<path class="st0" d="M59.7,231.2l-2-0.1c0.2-3.9,0.5-7.9,1-12l2,0.3C60.2,223.4,59.9,227.3,59.7,231.2z" />
		<path class="st0"
			d="M789.8,231.1l-1.9-0.6c1.3-3.8,2.6-7.6,3.9-11.4l1.9,0.7C792.4,223.5,791.1,227.3,789.8,231.1z" />
		<path class="st0" d="M664.6,226.1l-1.9-0.5c1-3.9,2-7.8,2.9-11.6l1.9,0.5C666.6,218.3,665.6,222.2,664.6,226.1z" />
		<path class="st0" d="M423.9,214.1c-0.3-4.1-0.5-8.1-0.7-12l2-0.1c0.2,3.8,0.4,7.8,0.7,11.9L423.9,214.1z" />
		<path class="st0" d="M356.5,213.5l-2-0.2c0.2-1.6,0.3-3.1,0.3-4.7c0-1,0-2-0.1-3c-0.1-1.3-0.3-2.6-0.5-4l2-0.3
			c0.2,1.4,0.4,2.8,0.5,4.1c0.1,1.1,0.1,2.1,0.1,3.2C356.8,210.3,356.7,211.9,356.5,213.5z" />
		<path class="st0" d="M954.5,213c-2.1-3.2-4.5-6.5-6.9-9.8l1.6-1.2c2.4,3.3,4.7,6.6,6.9,9.8L954.5,213z" />
		<path class="st0"
			d="M797.6,208.5l-1.9-0.7c1.4-3.8,2.7-7.6,4.1-11.3l1.9,0.7C800.3,200.9,799,204.7,797.6,208.5z" />
		<path class="st0" d="M62.7,207.5l-2-0.4c0.6-3.2,1.3-6.2,2-9.2c0.2-0.9,0.4-1.7,0.7-2.6l1.9,0.5c-0.2,0.8-0.5,1.7-0.7,2.6
			C63.9,201.4,63.3,204.4,62.7,207.5z" />
		<path class="st0" d="M670.1,202.7l-2-0.4c0.8-3.9,1.5-7.9,2.2-11.7l2,0.3C671.6,194.8,670.9,198.8,670.1,202.7z" />
		<path class="st0"
			d="M940.5,193.7c-1.9-2.5-3.9-5-5.9-7.6l-1.5-1.8l1.6-1.3l1.5,1.8c2.1,2.6,4.1,5.1,6,7.6L940.5,193.7z" />
		<path class="st0"
			d="M350.7,190.5c-1.5-3.4-3.3-6.7-5.5-9.9l-0.2-0.3l1.6-1.1l0.2,0.3c2.2,3.3,4.2,6.7,5.7,10.3L350.7,190.5z" />
		<path class="st0" d="M422.8,190.1c0-1.6,0-3.2,0-4.8c0-2.4,0-4.8,0.1-7.2l2,0c-0.1,2.3-0.1,4.7-0.1,7.1c0,1.6,0,3.2,0,4.8
			L422.8,190.1z" />
		<path class="st0" d="M805.9,186l-1.9-0.7c1.4-3.8,2.9-7.6,4.3-11.2l1.9,0.7C808.8,178.4,807.3,182.2,805.9,186z" />
		<path class="st0" d="M68.8,184.6l-1.9-0.7c1.3-3.9,2.8-7.6,4.4-11.2l1.8,0.8C71.6,177,70.1,180.7,68.8,184.6z" />
		<path class="st0" d="M673.9,179l-2-0.2c0.5-4.2,0.9-8.1,1.1-11.9l2,0.1C674.8,170.9,674.5,174.8,673.9,179z" />
		<path class="st0" d="M925.5,175c-2.6-3.1-5.2-6.2-7.7-9.1l1.5-1.3c2.5,2.9,5.1,6,7.8,9.2L925.5,175z" />
		<path class="st0" d="M337.5,171c-1.3-1.4-2.7-2.9-4.3-4.4c-1.4-1.3-2.8-2.6-4.3-3.9l1.3-1.5c1.5,1.3,2.9,2.6,4.3,4
			c1.6,1.5,3,3,4.4,4.4L337.5,171z" />
		<path class="st0" d="M425.3,166.2l-2-0.1l0.1-1.2c0-0.6,0.1-1.1,0.1-1.7l0-0.3c0.1-0.8,0.1-1.7,0.2-2.5c0.1-0.7,0.1-1.4,0.2-2.2
			c0,0,0.2-1.4,0.2-1.5l0-0.2c0.1-0.9,0.2-1.6,0.2-2.4l2,0.2c-0.1,0.8-0.2,1.5-0.2,2.4l0,0.2c0,0.2-0.2,1.5-0.2,1.5
			c-0.1,0.8-0.1,1.5-0.2,2.2c-0.1,0.8-0.1,1.7-0.2,2.5l0,0.3c0,0.5-0.1,1.1-0.1,1.6L425.3,166.2z" />
		<path class="st0" d="M814.6,163.7l-1.9-0.7c1.5-3.7,3-7.4,4.5-10.9l0.1-0.1l1.9,0.7l0,0.1l-1-0.3l0.9,0.4
			C817.6,156.3,816.1,160,814.6,163.7z" />
		<path class="st0" d="M78.4,162.8l-1.8-0.9c1.9-3.6,4-7.1,6.2-10.4l1.7,1.1C82.3,155.8,80.3,159.2,78.4,162.8z" />
		<path class="st0" d="M909.9,156.9c-2.8-3-5.5-6-8.1-8.8l1.5-1.4c2.6,2.8,5.4,5.8,8.1,8.8L909.9,156.9z" />
		<path class="st0" d="M319.7,155.3c-3-2.2-6.3-4.5-9.9-6.7l1.1-1.7c3.5,2.3,6.9,4.5,10,6.8L319.7,155.3z" />
		<path class="st0"
			d="M673.5,155l0-0.8c-0.1-3.9-0.3-7.5-0.7-11l2-0.2c0.4,3.6,0.6,7.3,0.7,11.2l0,0.8L673.5,155z" />
		<path class="st0"
			d="M91.5,143l-1.5-1.3c2.4-3,5-5.8,7.7-8.5l0.5-0.4l1.4,1.4l-0.4,0.4C96.4,137.3,93.9,140.1,91.5,143z" />
		<path class="st0"
			d="M428.2,142.6l-1.9-0.4c0.2-1,0.5-2,0.7-3l0.2-0.6c0.2-0.7,0.4-1.4,0.6-2c0-0.1,0.1-0.3,0.2-0.6l1.2-3l1-2.3
			l1.8,0.8l-1.4,3.2l-0.8,2c0,0.1-0.1,0.3-0.1,0.4c-0.2,0.7-0.4,1.4-0.6,2.2l-0.2,0.6C428.7,140.7,428.5,141.6,428.2,142.6z" />
		<path class="st0" d="M299.6,142.6c-3.6-2-7-3.8-10.6-5.6l0.9-1.8c3.6,1.8,7,3.7,10.6,5.6L299.6,142.6z" />
		<path class="st0" d="M823.9,141.6l-1.8-0.8c0.8-1.9,1.7-3.7,2.6-5.7c0.9-1.8,1.7-3.6,2.5-5.2l1.8,0.9c-0.8,1.6-1.6,3.3-2.4,5.1
			C825.5,137.9,824.7,139.8,823.9,141.6z" />
		<path class="st0"
			d="M893.6,139.4c-2.8-2.9-5.5-5.7-8.2-8.4l-0.2-0.2l1.4-1.4l0.2,0.2c2.7,2.7,5.5,5.5,8.2,8.4L893.6,139.4z" />
		<path class="st0" d="M278.2,131.9c-2.7-1.2-5.1-2.3-7.2-3.2c-0.2-0.1-0.5-0.2-0.7-0.3c-0.9-0.4-1.9-0.8-3-1.3l0.8-1.9
			c1.1,0.4,2.1,0.9,3.1,1.3c0.2,0.1,0.4,0.2,0.7,0.3c2.1,0.9,4.5,1.9,7.3,3.2L278.2,131.9z" />
		<path class="st0" d="M670.7,131.5c-0.3-1.1-0.6-2.2-1-3.4c-0.9-2.8-1.9-5.3-3.1-7.6l1.8-0.9c1.3,2.4,2.3,5,3.3,7.9
			c0.4,1.2,0.7,2.3,1,3.5L670.7,131.5z" />
		<path class="st0" d="M108.4,126.4l-1.2-1.6c3.2-2.5,6.5-4.7,10-6.8l1,1.7C114.8,121.8,111.5,124,108.4,126.4z" />
		<path class="st0" d="M440.1,123.5l-1.1-1.7c2.1-1.4,4-2.5,5.3-3.1c0.4-0.2,0.7-0.4,1-0.6c0.2-0.1,0.4-0.2,0.7-0.3l2.1-1
			c0.5-0.2,1-0.5,1.5-0.7l0.9,1.8c-0.5,0.3-1,0.5-1.5,0.7l-2.1,1c-0.2,0.1-0.4,0.2-0.6,0.3c-0.3,0.2-0.7,0.4-1.1,0.6
			C443.9,121.2,442.1,122.2,440.1,123.5z" />
		<path class="st0" d="M256.1,122.7c-0.6-0.2-1.1-0.4-1.7-0.6c-1.1-0.4-2-0.7-2.6-0.9l-0.3-0.1c-0.3-0.1-0.6-0.2-0.9-0.3
			c-1.9-0.7-3.7-1.4-5.2-1.9l-0.5-0.2l0.6-1.9l0.5,0.2c1.5,0.5,3.3,1.2,5.3,1.9c0.3,0.1,0.6,0.2,0.9,0.3l0.3,0.1
			c0.6,0.2,1.5,0.6,2.5,0.9c0.6,0.2,1.2,0.4,1.8,0.7L256.1,122.7z" />
		<path class="st0" d="M876.6,122.6c-1.5-1.4-3-2.7-4.5-4.1c-1.6-1.4-3-2.6-4.4-3.8l1.3-1.5c1.5,1.2,2.9,2.4,4.5,3.9
			c1.5,1.4,3,2.7,4.5,4.1L876.6,122.6z" />
		<path class="st0" d="M834.2,120.1l-1.8-1l0.4-0.7c1.8-3.2,3.3-5.8,4.6-7.9c0.4-0.6,0.8-1.3,1.2-1.8l1.7,1.1
			c-0.3,0.5-0.7,1.1-1.1,1.7c-1.3,2.1-2.8,4.6-4.6,7.8L834.2,120.1z" />
		<path class="st0" d="M233.5,114.8l-1.8-0.6l0,0c0,0-4.4-1.3-4.5-1.3c-1.7-0.5-3.4-1-5.2-1.4l0.5-1.9c1.8,0.5,3.6,1,5.3,1.5
			c0.1,0,4.5,1.3,4.5,1.3l1.9,0.6L233.5,114.8z" />
		<path class="st0"
			d="M128.7,114.2l-0.8-1.8l0.3-0.1c3.5-1.6,7.2-3,11-4.1l0.6,1.9c-3.7,1.2-7.4,2.5-10.8,4.1L128.7,114.2z" />
		<path class="st0" d="M461.5,113.4l-0.7-1.9l2.3-0.8c1.6-0.5,3.3-1.1,4.8-1.5l0.9-0.3c0.2-0.1,0.4-0.1,0.7-0.2
			c0.9-0.3,1.8-0.5,2.8-0.8l0.6,1.9c-0.9,0.3-1.8,0.5-2.7,0.8c-0.2,0.1-0.5,0.1-0.7,0.2l-0.9,0.3c-1.4,0.4-3.2,1-4.7,1.5
			L461.5,113.4z" />
		<path class="st0" d="M659.8,111.1c-1.4-1.3-2.8-2.5-4.2-3.4l-0.3-0.2c-1.6-1.1-3.3-2-5.2-2.8l0.8-1.8c2,0.8,3.8,1.8,5.5,2.9
			l0.2,0.2c1.6,1,3.1,2.3,4.5,3.7L659.8,111.1z" />
		<path class="st0" d="M210.5,108.7l-0.6-0.1l-4.5-0.8c-0.6-0.1-1.2-0.2-1.9-0.3c-0.6-0.1-1.3-0.3-1.6-0.3c-0.4,0-0.8-0.1-1.2-0.2
			l-1.9-0.3l0.3-2l1.9,0.3c0.4,0.1,0.8,0.1,1.1,0.2c0.3,0,1.1,0.2,1.7,0.3c0.7,0.1,1.3,0.2,1.9,0.3l5.2,1L210.5,108.7z" />
		<path class="st0" d="M858.2,107.4l-0.8-0.5c-0.1,0-0.5-0.3-1.4-0.9c-0.2-0.1-0.3-0.2-0.5-0.3c-0.2-0.1-0.5-0.3-0.8-0.5
			c-0.2-0.1-0.5-0.3-0.7-0.4c-0.2-0.1-1.1-0.6-1.3-0.7c-0.2-0.1-0.4-0.2-0.6-0.3l-0.1-0.1c-0.4-0.2-0.7-0.3-1-0.4
			c-0.3-0.1-0.7-0.2-1.3-0.4c-0.2,0-0.3-0.1-0.5-0.1c-0.4,0-0.7-0.1-1.1-0.2l0.2-2l0.1,0c0.4,0.1,0.7,0.1,1.1,0.2l0.1,0
			c0.2,0.1,0.4,0.1,0.6,0.2c0.7,0.2,1.1,0.3,1.5,0.4c0.4,0.1,0.7,0.3,1.2,0.5l0.2,0.1c0.2,0.1,0.4,0.2,0.6,0.3
			c0.3,0.1,1.2,0.6,1.4,0.7c0.3,0.2,0.5,0.3,0.7,0.4c0.4,0.2,0.7,0.4,0.9,0.6c0.2,0.1,0.3,0.2,0.5,0.3c1,0.6,1.4,0.9,1.5,1l0.8,0.5
			L858.2,107.4z" />
		<path class="st0" d="M151.3,107.2l-0.4-2c3.9-0.7,7.9-1.3,12-1.7l0.2,2C159.1,105.9,155.1,106.5,151.3,107.2z" />
		<path class="st0" d="M484.4,106.8l-0.5-1.9c3.7-0.9,7.6-1.7,11.7-2.6l0.4,2C492,105.1,488.1,105.9,484.4,106.8z" />
		<path class="st0" d="M186.9,105.4l-0.1,0c-0.8-0.1-1.5-0.1-1.5-0.1c-0.2,0-0.3,0-0.5,0l-0.2,0c-0.7,0-1.5-0.1-2.2-0.1
			c-2.2-0.1-4.4-0.2-6.4-0.2l-0.9,0l0-2l0.9,0c2.1,0,4.3,0.1,6.5,0.2c0.8,0,1.5,0.1,2.2,0.1l0.2,0c0.2,0,0.4,0,0.6,0
			c0.1,0,0.7,0.1,1.5,0.1l0.1,0L186.9,105.4z" />
		<path class="st0" d="M507.8,102.2l-0.3-2c3.9-0.6,7.9-1.2,11.9-1.7l0.3,2C515.7,101,511.7,101.5,507.8,102.2z" />
		<path class="st0" d="M638.8,101.9c-0.9-0.2-1.7-0.3-1.7-0.3c-1.3-0.2-2.6-0.5-3.5-0.6c-0.8-0.1-1.5-0.2-2.3-0.4
			c-0.1,0-0.4,0-0.6-0.1c-1.2-0.2-2.5-0.3-3.7-0.5l0.3-2c1.2,0.2,2.5,0.3,3.7,0.5c0.2,0,0.4,0.1,0.6,0.1c0.8,0.2,1.5,0.3,2.2,0.4
			c0.9,0.1,2.3,0.4,3.6,0.6l1.7,0.3L638.8,101.9z" />
		<path class="st0" d="M531.5,99.1l-0.2-2c3.9-0.4,7.9-0.7,12-1l0.1,2C539.4,98.4,535.4,98.7,531.5,99.1z" />
		<path class="st0"
			d="M615.1,98.7c-3.7-0.4-7.6-0.7-11.4-1l-0.5,0l0.1-2l0.5,0c3.9,0.3,7.7,0.6,11.5,1L615.1,98.7z" />
		<path class="st0" d="M555.4,97.4l-0.1-2c3.8-0.2,7.9-0.3,12-0.4l0,2C563.2,97.1,559.2,97.2,555.4,97.4z" />
		<path class="st0" d="M591.3,97.2c-3.9-0.1-8-0.2-12-0.2l0-2c4,0,8,0.1,12,0.2L591.3,97.2z" />
	</g>

</svg>